<?xml version="1.0" encoding="utf-8"?>
<svg xmlns="http://www.w3.org/2000/svg" fill="none" version="1.1" viewBox="-241.23 -379.425 482.46 758.85" x="-241.23pt" y="-379.425pt" width="482.46pt" height="758.85pt" stroke-width="0.566929" stroke-miterlimit="10.000000">
 <path d="M145.269 -351.496L240.23 -351.496L240.23 -378.425L145.269 -378.425Z" fill="black"/>
 <path d="M193.175 -357.165L193.742 -357.165"/>
 <g transform="matrix(1.000000,-0.000000,-0.000000,1.000000,193.458449,-357.165354)">
  <path d="M-40.4207 -0M-30.8333 -6.75664C-31.2672 -5.70286 -32.0317 -3.8019 -32.197 -3.07872L-32.2177 -3.07872C-32.4036 -3.82257 -33.2508 -5.86816 -33.6847 -6.96327L-36.3295 -13.4926C-36.6808 -14.3398 -37.342 -14.3398 -37.7139 -14.3398L-39.4289 -14.3398C-40.1727 -14.3398 -40.4207 -14.1125 -40.4207 -13.348L-40.4207 -0.991801C-40.4207 -0.24795 -40.1934 -0 -39.4289 -0L-38.871 -0C-38.0858 -0 -37.8792 -0.268613 -37.8792 -0.991801L-37.8792 -11.6743L-37.8585 -11.6743C-37.6313 -10.7445 -36.7014 -8.45097 -36.2055 -7.23188L-33.8087 -1.34306C-33.4368 -0.454575 -32.9409 -0.454575 -32.2383 -0.454575C-31.5358 -0.454575 -31.0399 -0.454575 -30.668 -1.34306L-28.0232 -7.8311C-27.8166 -8.327 -26.7008 -11.1371 -26.5561 -11.6743L-26.5355 -11.6743L-26.5355 -0.991801C-26.5355 -0.3306 -26.3908 -0 -25.5437 -0L-24.9858 -0C-24.2006 -0 -23.994 -0.268613 -23.994 -0.991801L-23.994 -13.348C-23.994 -14.0092 -24.1386 -14.3398 -24.9858 -14.3398L-26.7214 -14.3398C-27.238 -14.3398 -27.7546 -14.2985 -28.1058 -13.4513ZM-28.1058 -13.4513" fill="#fff"/>
 </g>
 <g transform="matrix(1.000000,-0.000000,-0.000000,1.000000,193.458449,-357.165354)">
  <path d="M-20.2172 -0M-10.6298 -6.75664C-11.0637 -5.70286 -11.8283 -3.8019 -11.9936 -3.07872L-12.0142 -3.07872C-12.2002 -3.82257 -13.0473 -5.86816 -13.4813 -6.96327L-16.1261 -13.4926C-16.4773 -14.3398 -17.1385 -14.3398 -17.5104 -14.3398L-19.2254 -14.3398C-19.9693 -14.3398 -20.2172 -14.1125 -20.2172 -13.348L-20.2172 -0.991801C-20.2172 -0.24795 -19.9899 -0 -19.2254 -0L-18.6675 -0C-17.8824 -0 -17.6757 -0.268613 -17.6757 -0.991801L-17.6757 -11.6743L-17.6551 -11.6743C-17.4278 -10.7445 -16.498 -8.45097 -16.0021 -7.23188L-13.6052 -1.34306C-13.2333 -0.454575 -12.7374 -0.454575 -12.0349 -0.454575C-11.3324 -0.454575 -10.8364 -0.454575 -10.4645 -1.34306L-7.81972 -7.8311C-7.6131 -8.327 -6.49732 -11.1371 -6.35268 -11.6743L-6.33202 -11.6743L-6.33202 -0.991801C-6.33202 -0.3306 -6.18738 -0 -5.34022 -0L-4.78233 -0C-3.99716 -0 -3.79053 -0.268613 -3.79053 -0.991801L-3.79053 -13.348C-3.79053 -14.0092 -3.93517 -14.3398 -4.78233 -14.3398L-6.51798 -14.3398C-7.03455 -14.3398 -7.55111 -14.2985 -7.90237 -13.4513ZM-7.90237 -13.4513" fill="#fff"/>
 </g>
 <g transform="matrix(1.000000,-0.000000,-0.000000,1.000000,193.458449,-357.165354)">
  <path d="M-1.02624 -0M7.89997 -13.4513C7.59003 -14.3398 6.99082 -14.3398 6.57757 -14.3398L4.75927 -14.3398C4.34602 -14.3398 3.7468 -14.3398 3.43686 -13.4513L-0.922928 -0.971138C-1.02624 -0.702526 -1.02624 -0.661201 -1.02624 -0.557888C-1.02624 -0 -0.509677 -0 -0.220402 -0L0.523449 -0C0.895374 -0 1.53591 -0 1.82519 -0.826501L2.63103 -3.12004L8.35454 -3.12004L9.05707 -1.13644C9.30502 -0.41325 9.44966 -0 10.4415 -0L11.5572 -0C11.8465 -0 12.3631 -0 12.3631 -0.557888C12.3631 -0.661201 12.3631 -0.702526 12.2598 -0.971138ZM12.2598 -0.971138M4.7386 -9.27747C5.04854 -10.1866 5.31715 -10.9718 5.48245 -11.7156L5.50312 -11.7156C5.60643 -11.2197 5.60643 -11.1784 5.77173 -10.7032L7.73467 -4.89702L3.2509 -4.89702ZM3.2509 -4.89702" fill="#fff"/>
 </g>
 <g transform="matrix(1.000000,-0.000000,-0.000000,1.000000,193.458449,-357.165354)">
  <path d="M13.8876 -0M25.8512 -2.95474C25.8512 -3.12004 25.7065 -3.20269 25.6239 -3.20269C25.128 -3.20269 24.5288 -1.85963 21.6154 -1.85963C17.9788 -1.85963 16.9456 -4.09118 16.9456 -7.19056C16.9456 -10.2693 18.0614 -12.5008 21.4501 -12.5008C23.289 -12.5008 24.2602 -11.7776 24.8181 -11.3231C24.942 -11.2197 25.004 -11.1371 25.1487 -11.1371C25.2313 -11.1371 25.3346 -11.2404 25.3553 -11.3231L25.7685 -13.6166C25.7892 -13.6993 25.7685 -13.7819 25.6032 -13.8439C24.3841 -14.2985 23.1237 -14.5877 21.512 -14.5877C16.4704 -14.5877 13.8876 -12.1289 13.8876 -7.21122C13.8876 -2.1489 16.5117 0.206625 21.5327 0.206625C23.289 0.206625 24.3841 -0.041325 25.8925 -0.971138C26.0578 -1.07445 26.0165 -1.21909 26.0165 -1.21909ZM26.0165 -1.21909" fill="#fff"/>
 </g>
 <g transform="matrix(1.000000,-0.000000,-0.000000,1.000000,193.458449,-357.165354)">
  <path d="M28.0162 -0M36.9424 -13.4513C36.6325 -14.3398 36.0333 -14.3398 35.62 -14.3398L33.8017 -14.3398C33.3885 -14.3398 32.7893 -14.3398 32.4793 -13.4513L28.1195 -0.971138C28.0162 -0.702526 28.0162 -0.661201 28.0162 -0.557888C28.0162 -0 28.5328 -0 28.8221 -0L29.5659 -0C29.9378 -0 30.5784 -0 30.8676 -0.826501L31.6735 -3.12004L37.397 -3.12004L38.0995 -1.13644C38.3475 -0.41325 38.4921 -0 39.4839 -0L40.5997 -0C40.889 -0 41.4055 -0 41.4055 -0.557888C41.4055 -0.661201 41.4055 -0.702526 41.3022 -0.971138ZM41.3022 -0.971138M33.7811 -9.27747C34.091 -10.1866 34.3596 -10.9718 34.5249 -11.7156L34.5456 -11.7156C34.6489 -11.2197 34.6489 -11.1784 34.8142 -10.7032L36.7771 -4.89702L32.2934 -4.89702ZM32.2934 -4.89702" fill="#fff"/>
 </g>
 <path d="M193.175 -331.654L193.742 -331.654"/>
 <g transform="matrix(1.000000,-0.000000,-0.000000,1.000000,193.458449,-331.653543)">
  <path d="M-26.3996 -11.7579M-21.8662 0.508103L-24.3911 -5.07257C-24.4915 -5.30211 -24.5633 -5.30211 -24.6063 -5.30211C-24.6206 -5.30211 -24.6924 -5.30211 -24.8502 -5.18734L-26.2131 -4.15441C-26.3996 -4.01095 -26.3996 -3.96791 -26.3996 -3.92487C-26.3996 -3.85314 -26.3565 -3.76706 -26.2561 -3.76706C-26.17 -3.76706 -25.9262 -3.96791 -25.7683 -4.08268C-25.6823 -4.15441 -25.4671 -4.31222 -25.3093 -4.42699L-22.4831 1.78491C-22.3826 2.01445 -22.3109 2.01445 -22.1818 2.01445C-21.9666 2.01445 -21.9236 1.92838 -21.8231 1.72753L-15.31 -11.7579C-15.2095 -11.9587 -15.2095 -12.0161 -15.2095 -12.0448C-15.2095 -12.1883 -15.3243 -12.3317 -15.4965 -12.3317C-15.6112 -12.3317 -15.7117 -12.26 -15.8264 -12.0305ZM-15.8264 -12.0305" fill="black"/>
 </g>
 <g transform="matrix(1.000000,-0.000000,-0.000000,1.000000,193.458449,-331.653543)">
  <path d="M-15.4916 -11.7579L-8.46808 -11.7579L-8.46808 -12.3317L-15.4916 -12.3317Z" fill="black"/>
 </g>
 <g transform="matrix(1.000000,-0.000000,-0.000000,1.000000,193.458449,-331.653543)">
  <path d="M-14.9035 -0M-12.8519 -5.15028C-13.0958 -5.13594 -13.1532 -5.12159 -13.1532 -4.99248C-13.1532 -4.84901 -13.0815 -4.84901 -12.8233 -4.84901L-12.1633 -4.84901C-10.9439 -4.84901 -10.3988 -3.84478 -10.3988 -2.46755C-10.3988 -0.588194 -11.3743 -0.0860772 -12.0773 -0.0860772C-12.7659 -0.0860772 -13.9423 -0.41604 -14.3583 -1.36289C-13.8992 -1.29116 -13.4832 -1.54939 -13.4832 -2.06585C-13.4832 -2.48189 -13.7845 -2.76882 -14.1861 -2.76882C-14.5305 -2.76882 -14.9035 -2.56797 -14.9035 -2.02281C-14.9035 -0.746002 -13.6266 0.30127 -12.0342 0.30127C-10.327 0.30127 -9.06455 -1.00423 -9.06455 -2.4532C-9.06455 -3.77305 -10.1262 -4.80598 -11.5034 -5.04986C-10.2553 -5.40852 -9.4519 -6.45579 -9.4519 -7.57479C-9.4519 -8.70814 -10.6283 -9.54022 -12.0199 -9.54022C-13.4545 -9.54022 -14.5161 -8.6651 -14.5161 -7.61783C-14.5161 -7.04398 -14.0714 -6.92921 -13.8562 -6.92921C-13.5549 -6.92921 -13.2106 -7.14441 -13.2106 -7.57479C-13.2106 -8.03387 -13.5549 -8.23472 -13.8705 -8.23472C-13.9566 -8.23472 -13.9853 -8.23472 -14.0283 -8.22037C-13.4832 -9.19591 -12.1346 -9.19591 -12.0629 -9.19591C-11.5895 -9.19591 -10.657 -8.98072 -10.657 -7.57479C-10.657 -7.30221 -10.7 -6.49883 -11.1161 -5.88194C-11.5464 -5.25071 -12.0342 -5.20767 -12.4216 -5.19332ZM-12.4216 -5.19332" fill="black"/>
 </g>
 <g transform="matrix(1.000000,-0.000000,-0.000000,1.000000,193.458449,-331.653543)">
  <path d="M-3.01101 -0M2.38316 -10.2432C2.4549 -10.4297 2.4549 -10.4584 2.4549 -10.4871C2.4549 -10.6736 2.31143 -10.7596 2.19666 -10.7596C2.01016 -10.7596 1.96712 -10.6305 1.89539 -10.444L-2.93927 3.07009C-3.01101 3.25659 -3.01101 3.28528 -3.01101 3.31397C-3.01101 3.47178 -2.89624 3.58655 -2.73843 3.58655C-2.55193 3.58655 -2.50889 3.44309 -2.4515 3.28528ZM-2.4515 3.28528" fill="black"/>
 </g>
 <g transform="matrix(1.000000,-0.000000,-0.000000,1.000000,193.458449,-331.653543)">
  <path d="M8.50844 -0M13.171 -4.17474C13.171 -0.789041 11.6646 -0.0860772 10.8038 -0.0860772C10.4595 -0.0860772 9.69918 -0.129116 9.34052 -0.631233L9.4266 -0.631233C9.52702 -0.60254 10.0435 -0.688617 10.0435 -1.21943C10.0435 -1.53504 9.82829 -1.80762 9.45529 -1.80762C9.08229 -1.80762 8.85275 -1.56374 8.85275 -1.19073C8.85275 -0.30127 9.57006 0.30127 10.8182 0.30127C12.6115 0.30127 14.3473 -1.60677 14.3473 -4.7199C14.3473 -8.57903 12.7406 -9.54022 11.4781 -9.54022C9.90003 -9.54022 8.50844 -8.22037 8.50844 -6.32667C8.50844 -4.43297 9.84264 -3.14182 11.2773 -3.14182C12.3389 -3.14182 12.884 -3.91651 13.171 -4.64817ZM13.171 -4.64817M11.3346 -3.42874C10.4308 -3.42874 10.0435 -4.1604 9.91437 -4.43297C9.68483 -4.97813 9.68483 -5.66675 9.68483 -6.31233C9.68483 -7.11571 9.68483 -7.80433 10.0578 -8.39252C10.3161 -8.77987 10.7034 -9.19591 11.4781 -9.19591C12.2958 -9.19591 12.7119 -8.4786 12.8553 -8.14864C13.1423 -7.44568 13.1423 -6.22625 13.1423 -6.01106C13.1423 -4.80598 12.5971 -3.42874 11.3346 -3.42874ZM11.3346 -3.42874" fill="black"/>
 </g>
 <g transform="matrix(1.000000,-0.000000,-0.000000,1.000000,193.458449,-331.653543)">
  <path d="M15.532 -0M21.3709 -4.59078C21.3709 -5.78152 21.2992 -6.94356 20.7827 -8.03387C20.1945 -9.2246 19.1616 -9.54022 18.4586 -9.54022C17.6266 -9.54022 16.608 -9.12418 16.0772 -7.93345C15.6755 -7.02964 15.532 -6.14017 15.532 -4.59078C15.532 -3.1992 15.6324 -2.15193 16.1489 -1.13335C16.7084 -0.0430386 17.6983 0.30127 18.4443 0.30127C19.6924 0.30127 20.4097 -0.444732 20.8258 -1.27681C21.3422 -2.35278 21.3709 -3.7587 21.3709 -4.59078ZM21.3709 -4.59078M18.4443 0.0143462C17.9852 0.0143462 17.0527 -0.243885 16.7801 -1.80762C16.6223 -2.66839 16.6223 -3.7587 16.6223 -4.76294C16.6223 -5.93933 16.6223 -7.00094 16.8519 -7.84737C17.0958 -8.80856 17.8274 -9.2533 18.4443 -9.2533C18.9895 -9.2533 19.8215 -8.92333 20.0941 -7.68956C20.2806 -6.87183 20.2806 -5.73848 20.2806 -4.76294C20.2806 -3.80174 20.2806 -2.71143 20.1228 -1.83631C19.8502 -0.258232 18.9464 0.0143462 18.4443 0.0143462ZM18.4443 0.0143462" fill="black"/>
 </g>
 <g transform="matrix(1.000000,-0.000000,-0.000000,1.000000,193.458449,-331.653543)">
  <path d="M22.5153 -5.20611M26.3908 -7.69677C26.3908 -8.76277 25.5041 -9.62952 24.4581 -9.62952C23.3821 -9.62952 22.5153 -8.74285 22.5153 -7.69677C22.5153 -6.64073 23.3821 -5.76402 24.4581 -5.76402C25.5041 -5.76402 26.3908 -6.63077 26.3908 -7.69677ZM26.3908 -7.69677M24.4581 -6.16252C23.5913 -6.16252 22.9138 -6.85991 22.9138 -7.69677C22.9138 -8.53363 23.6013 -9.23102 24.4581 -9.23102C25.285 -9.23102 25.9923 -8.55356 25.9923 -7.69677C25.9923 -6.83998 25.285 -6.16252 24.4581 -6.16252ZM24.4581 -6.16252" fill="black"/>
 </g>
 <g stroke-linecap="round" stroke-linejoin="round">
  <path d="M-88.2485 188.778L-240.23 -378.425" stroke="black"/>
 </g>
 <g stroke-linecap="butt" stroke-linejoin="round" stroke-dasharray="2.000000" stroke-dashoffset="0.000000">
  <path d="M-88.2485 188.778L-88.2485 -347.062" stroke="black"/>
 </g>
 <g stroke-linecap="round" stroke-linejoin="round">
  <path d="M-88.2485 188.778L38.3041 -283.523" stroke="black"/>
 </g>
 <g stroke-linecap="butt" stroke-linejoin="round" stroke-dasharray="2.000000" stroke-dashoffset="0.000000">
  <path d="M-88.2485 188.778L134.844 -197.629" stroke="black"/>
 </g>
 <g stroke-linecap="round" stroke-linejoin="round">
  <path d="M-88.2485 188.778L199.65 -99.1205" stroke="black"/>
 </g>
 <g stroke-linecap="butt" stroke-linejoin="round" stroke-dasharray="2.000000" stroke-dashoffset="0.000000">
  <path d="M-88.2485 188.778L233.506 3.0128" stroke="black"/>
 </g>
 <g stroke-linecap="round" stroke-linejoin="round">
  <path d="M-88.2485 188.778L239.226 101.031" stroke="black"/>
 </g>
 <g stroke-linecap="butt" stroke-linejoin="round" stroke-dasharray="2.000000" stroke-dashoffset="0.000000">
  <path d="M-88.2485 188.778L221.119 188.778" stroke="black"/>
 </g>
 <g stroke-linecap="round" stroke-linejoin="round">
  <path d="M-88.2485 188.778L184.434 261.843" stroke="black"/>
 </g>
 <g stroke-linecap="butt" stroke-linejoin="round" stroke-dasharray="2.000000" stroke-dashoffset="0.000000">
  <path d="M-88.2485 188.778L134.844 317.58" stroke="black"/>
 </g>
 <g stroke-linecap="round" stroke-linejoin="round">
  <path d="M-88.2485 188.778L77.9698 354.996" stroke="black"/>
 </g>
 <g stroke-linecap="butt" stroke-linejoin="round" stroke-dasharray="2.000000" stroke-dashoffset="0.000000">
  <path d="M-88.2485 188.778L19.0031 374.543" stroke="black"/>
 </g>
 <g stroke-linecap="round" stroke-linejoin="round">
  <path d="M-88.2485 188.778L-37.5879 377.846" stroke="black"/>
 </g>
 <g stroke-linecap="butt" stroke-linejoin="round" stroke-dasharray="2.000000" stroke-dashoffset="0.000000">
  <path d="M-88.2485 188.778L-88.2485 367.391" stroke="black"/>
 </g>
 <g stroke-linecap="round" stroke-linejoin="round">
  <path d="M-88.2485 188.778L-130.433 346.212" stroke="black"/>
 </g>
 <g stroke-linecap="butt" stroke-linejoin="round" stroke-dasharray="2.000000" stroke-dashoffset="0.000000">
  <path d="M-88.2485 188.778L-162.613 317.58" stroke="black"/>
 </g>
 <g stroke-linecap="round" stroke-linejoin="round">
  <path d="M-88.2485 188.778L-184.215 284.744" stroke="black"/>
 </g>
 <g stroke-linecap="butt" stroke-linejoin="round" stroke-dasharray="2.000000" stroke-dashoffset="0.000000">
  <path d="M-88.2485 188.778L-195.5 250.7" stroke="black"/>
 </g>
 <g stroke-linecap="round" stroke-linejoin="round">
  <path d="M-88.2485 188.778L-197.407 218.027" stroke="black"/>
 </g>
 <g stroke-linecap="butt" stroke-linejoin="round" stroke-dasharray="2.000000" stroke-dashoffset="0.000000">
  <path d="M-88.2485 188.778L-191.371 188.778" stroke="black"/>
 </g>
 <g stroke-linecap="round" stroke-linejoin="round">
  <path d="M-88.2485 188.778L-179.143 164.423" stroke="black"/>
 </g>
 <g stroke-linecap="butt" stroke-linejoin="round" stroke-dasharray="2.000000" stroke-dashoffset="0.000000">
  <path d="M-88.2485 188.778L-162.613 145.844" stroke="black"/>
 </g>
 <g stroke-linecap="round" stroke-linejoin="round">
  <path d="M-88.2485 188.778L-143.655 133.372" stroke="black"/>
 </g>
 <g stroke-linecap="butt" stroke-linejoin="round" stroke-dasharray="2.000000" stroke-dashoffset="0.000000">
  <path d="M-88.2485 188.778L-123.999 126.856" stroke="black"/>
 </g>
 <g stroke-linecap="round" stroke-linejoin="round">
  <path d="M-88.2485 188.778L-105.135 125.755" stroke="black"/>
 </g>
 <g stroke-linecap="round" stroke-linejoin="round" stroke-width="1.603518">
  <path d="M-240.23 -378.425L-229.443 -377.524L-218.74 -376.442L-208.122 -375.181L-197.591 -373.743L-187.152 -372.132L-176.806 -370.349L-166.555 -368.399L-156.401 -366.282L-146.348 -364.003L-136.397 -361.564L-126.551 -358.967L-116.81 -356.215L-107.179 -353.312L-97.6574 -350.26L-88.2485 -347.062L-78.9537 -343.72L-69.7748 -340.238L-60.7136 -336.618L-51.7717 -332.864L-42.9506 -328.979L-34.252 -324.964L-25.6773 -320.824L-17.2278 -316.56L-8.90499 -312.177L-0.710125 -307.677L7.35558 -303.062L15.2909 -298.337L23.0948 -293.503L30.7662 -288.564L38.3041 -283.523L45.7075 -278.382L52.9756 -273.145L60.1075 -267.815L67.1025 -262.394L73.9598 -256.886L80.6788 -251.293L87.2589 -245.618L93.6996 -239.865L100 -234.035L106.16 -228.133L112.18 -222.161L118.058 -216.122L123.795 -210.018L129.39 -203.853L134.844 -197.629L140.155 -191.35L145.325 -185.017L150.352 -178.635L155.237 -172.204L159.981 -165.73L164.582 -159.213L169.042 -152.657L173.36 -146.065L177.536 -139.439L181.572 -132.782L185.467 -126.096L189.222 -119.385L192.838 -112.65L196.313 -105.894L199.65 -99.1205L202.849 -92.3312L205.909 -85.5287L208.833 -78.7156L211.621 -71.8942L214.272 -65.067L216.789 -58.2364L219.171 -51.4047L221.421 -44.5743L223.537 -37.7475L225.522 -30.9265L227.376 -24.1137L229.101 -17.3112L230.697 -10.5211L232.165 -3.74577L233.506 3.0128L234.722 9.75249L235.813 16.4712L236.781 23.167L237.627 29.8379L238.352 36.4817L238.957 43.0968L239.443 49.681L239.813 56.2327L240.066 62.7499L240.205 69.2308L240.23 75.6738L240.144 82.077L239.947 88.4387L239.64 94.7574L239.226 101.031L238.706 107.259L238.081 113.439L237.353 119.569L236.523 125.649L235.593 131.676L234.564 137.65L233.438 143.568L232.216 149.43L230.9 155.234L229.491 160.979L227.992 166.664L226.404 172.288L224.727 177.849L222.965 183.346L221.119 188.778L219.189 194.144L217.179 199.444L215.089 204.675L212.922 209.838L210.678 214.931L208.361 219.953L205.97 224.904L203.509 229.782L200.978 234.587L198.38 239.318L195.716 243.975L192.987 248.557L190.196 253.062L187.345 257.491L184.434 261.843L181.466 266.118L178.443 270.314L175.365 274.431L172.236 278.47L169.056 282.429L165.826 286.308L162.55 290.107L159.228 293.826L155.863 297.463L152.455 301.02L149.007 304.495L145.521 307.889L141.997 311.201L138.437 314.432L134.844 317.58L131.218 320.647L127.562 323.632L123.877 326.534L120.165 329.355L116.427 332.093L112.664 334.75L108.879 337.324L105.073 339.818L101.248 342.229L97.4042 344.559L93.5442 346.808L89.6693 348.976L85.781 351.063L81.8806 353.07L77.9698 354.996L74.05 356.843L70.1226 358.61L66.189 360.298L62.2507 361.907L58.309 363.438L54.3654 364.891L50.4211 366.267L46.4776 367.565L42.5361 368.788L38.598 369.934L34.6646 371.004L30.7372 372L26.817 372.921L22.9052 373.769L19.0031 374.543L15.112 375.245L11.2329 375.875L7.36708 376.434L3.51568 376.922L-0.320168 377.341L-4.13936 377.69L-7.94079 377.971L-11.7234 378.184L-15.4861 378.33L-19.2279 378.411L-22.9477 378.425L-26.6446 378.375L-30.3176 378.261L-33.9656 378.085L-37.5879 377.846L-41.1835 377.545L-44.7514 377.185L-48.2908 376.764L-51.8008 376.285L-55.2806 375.748L-58.7294 375.154L-62.1464 374.504L-65.5308 373.798L-68.8819 373.038L-72.1989 372.225L-75.4811 371.36L-78.7278 370.442L-81.9384 369.475L-85.1121 368.457L-88.2485 367.391L-91.3467 366.277L-94.4063 365.117L-97.4267 363.91L-100.407 362.659L-103.348 361.364L-106.247 360.025L-109.106 358.645L-111.922 357.224L-114.696 355.763L-117.428 354.263L-120.116 352.725L-122.762 351.15L-125.363 349.538L-127.92 347.892L-130.433 346.212L-132.9 344.498L-135.323 342.752L-137.7 340.976L-140.032 339.169L-142.318 337.333L-144.558 335.468L-146.751 333.577L-148.898 331.659L-150.998 329.716L-153.051 327.748L-155.058 325.758L-157.017 323.745L-158.93 321.71L-160.795 319.655L-162.613 317.58L-164.383 315.487L-166.106 313.376L-167.782 311.249L-169.41 309.105L-170.991 306.947L-172.525 304.775L-174.012 302.59L-175.451 300.392L-176.843 298.184L-178.189 295.965L-179.487 293.736L-180.739 291.499L-181.944 289.254L-183.102 287.002L-184.215 284.744L-185.281 282.481L-186.301 280.214L-187.276 277.943L-188.205 275.669L-189.089 273.393L-189.928 271.116L-190.722 268.839L-191.471 266.562L-192.177 264.287L-192.839 262.013L-193.457 259.742L-194.032 257.474L-194.564 255.211L-195.053 252.953L-195.5 250.7L-195.905 248.453L-196.269 246.214L-196.592 243.982L-196.874 241.758L-197.115 239.543L-197.317 237.338L-197.479 235.144L-197.602 232.96L-197.687 230.787L-197.733 228.627L-197.741 226.479L-197.712 224.345L-197.647 222.224L-197.545 220.118L-197.407 218.027L-197.233 215.951L-197.025 213.891L-196.782 211.848L-196.506 209.821L-196.196 207.812L-195.853 205.821L-195.477 203.848L-195.07 201.894L-194.631 199.959L-194.162 198.044L-193.662 196.149L-193.132 194.275L-192.574 192.421L-191.986 190.589L-191.371 188.778L-190.728 186.989L-190.058 185.223L-189.361 183.479L-188.639 181.758L-187.891 180.06L-187.118 178.386L-186.321 176.736L-185.501 175.11L-184.657 173.508L-183.791 171.931L-182.903 170.379L-181.994 168.852L-181.063 167.35L-180.113 165.874L-179.143 164.423L-178.153 162.998L-177.146 161.599L-176.12 160.227L-175.077 158.881L-174.016 157.561L-172.94 156.268L-171.848 155.002L-170.741 153.762L-169.619 152.55L-168.483 151.364L-167.334 150.206L-166.171 149.074L-164.997 147.97L-163.81 146.893L-162.613 145.844L-161.404 144.822L-160.185 143.827L-158.957 142.859L-157.72 141.919L-156.474 141.006L-155.219 140.121L-153.958 139.263L-152.689 138.432L-151.414 137.628L-150.133 136.851L-148.846 136.101L-147.554 135.379L-146.258 134.683L-144.958 134.014L-143.655 133.372L-142.348 132.756L-141.039 132.167L-139.728 131.605L-138.415 131.068L-137.101 130.558L-135.786 130.074L-134.472 129.615L-133.157 129.182L-131.843 128.775L-130.531 128.393L-129.219 128.036L-127.91 127.704L-126.604 127.397L-125.3 127.114L-123.999 126.856L-122.702 126.622L-121.409 126.412L-120.12 126.226L-118.837 126.063L-117.558 125.924L-116.285 125.807L-115.018 125.714L-113.757 125.643L-112.503 125.594L-111.255 125.567L-110.015 125.562L-108.783 125.579L-107.559 125.617L-106.343 125.676L-105.135 125.755L-103.937 125.856L-102.747 125.976L-101.568 126.116L-100.398 126.276L-99.2377 126.455L-98.0881 126.653L-96.9491 126.869L-95.821 127.105L-94.704 127.358L-93.5983 127.629L-92.5042 127.917L-91.422 128.223L-90.3518 128.546L-89.2939 128.885L-88.2485 129.24L-87.2157 129.612L-86.1958 129.998L-85.189 130.401L-84.1955 130.818L-83.2154 131.249L-82.2489 131.696L-81.2961 132.156L-80.3573 132.629L-79.4325 133.116L-78.522 133.616L-77.6258 134.129L-76.7441 134.654L-75.877 135.191L-75.0246 135.74L-74.1871 136.3L-73.3645 136.871L-72.5569 137.453L-71.7645 138.045L-70.9872 138.648L-70.2253 139.26L-69.4788 139.881L-68.7476 140.512L-68.032 141.151L-67.3319 141.799L-66.6475 142.455L-65.9786 143.118L-65.3255 143.789L-64.6881 144.467L-64.0664 145.152L-63.4604 145.844L-62.8703 146.542L-62.2959 147.245L-61.7373 147.954L-61.1945 148.669L-60.6675 149.388L-60.1562 150.112L-59.6607 150.841L-59.1809 151.573L-58.7168 152.309L-58.2684 153.049L-57.8356 153.792L-57.4184 154.538L-57.0167 155.286L-56.6305 156.037L-56.2597 156.789L-55.9043 157.544L-55.5642 158.299L-55.2394 159.057L-54.9297 159.814L-54.6351 160.573L-54.3554 161.332L-54.0907 162.091L-53.8408 162.85L-53.6056 163.609L-53.3851 164.366L-53.179 165.123L-52.9874 165.879L-52.8101 166.634L-52.647 167.386L-52.4979 168.137L-52.3628 168.886L-52.2416 169.633L-52.134 170.377L-52.0401 171.118L-51.9595 171.856L-51.8923 172.591L-51.8382 173.323L-51.7972 174.051L-51.7691 174.775L-51.7537 175.495L-51.7508 176.211L-51.7605 176.922L-51.7824 177.629L-51.8164 178.331L-51.8624 179.028L-51.9201 179.72L-51.9896 180.407L-52.0705 181.088L-52.1627 181.764L-52.2661 182.433L-52.3804 183.097L-52.5056 183.755L-52.6413 184.406L-52.7875 185.051L-52.944 185.689L-53.1106 186.321L-53.2871 186.946L-53.4734 187.564L-53.6692 188.174L-53.8743 188.778L-54.0887 189.374L-54.3121 189.963L-54.5443 190.544L-54.7851 191.118L-55.0344 191.684L-55.2919 192.242L-55.5575 192.792L-55.831 193.334L-56.1122 193.868L-56.4009 194.394L-56.6969 194.911L-57 195.42L-57.3101 195.921L-57.627 196.413L-57.9504 196.896L-58.2801 197.371L-58.6161 197.838L-58.958 198.295L-59.3058 198.744L-59.6591 199.184L-60.0179 199.615L-60.3819 200.037L-60.751 200.45L-61.125 200.854L-61.5036 201.249L-61.8867 201.635L-62.2741 202.013L-62.6657 202.381L-63.0612 202.74L-63.4604 203.089L-63.8633 203.43L-64.2695 203.762L-64.6789 204.084L-65.0914 204.398L-65.5068 204.702L-65.9248 204.997L-66.3454 205.283L-66.7683 205.56L-67.1933 205.828L-67.6204 206.087L-68.0493 206.337L-68.4798 206.578L-68.9119 206.81L-69.3452 207.033L-69.7798 207.247L-70.2153 207.452L-70.6517 207.648L-71.0887 207.836L-71.5263 208.015L-71.9643 208.185L-72.4025 208.346L-72.8407 208.499L-73.2789 208.643L-73.7168 208.779L-74.1544 208.906L-74.5915 209.025L-75.0278 209.136L-75.4634 209.238L-75.8981 209.333L-76.3316 209.419L-76.764 209.497L-77.195 209.567L-77.6245 209.629L-78.0524 209.683L-78.4787 209.729L-78.903 209.768L-79.3254 209.799L-79.7457 209.823L-80.1638 209.839L-80.5795 209.848L-80.9928 209.85L-81.4036 209.844L-81.8117 209.832L-82.217 209.812L-82.6195 209.786L-83.019 209.752L-83.4154 209.712L-83.8087 209.665L-84.1987 209.612L-84.5854 209.552L-84.9686 209.486L-85.3482 209.414L-85.7243 209.336L-86.0966 209.251L-86.4652 209.161L-86.8299 209.065L-87.1906 208.963L-87.5473 208.855L-87.9 208.742L-88.2485 208.624L-88.5927 208.5L-88.9327 208.371L-89.2683 208.237L-89.5995 208.098L-89.9262 207.954L-90.2483 207.805L-90.5659 207.652L-90.8789 207.494L-91.1871 207.332L-91.4906 207.165L-91.7894 206.994L-92.0833 206.819L-92.3723 206.64L-92.6564 206.457L-92.9356 206.271L-93.2098 206.08L-93.479 205.886L-93.7431 205.689L-94.0022 205.488L-94.2562 205.284L-94.505 205.077L-94.7487 204.867L-94.9873 204.654L-95.2206 204.438L-95.4488 204.219L-95.6717 203.998L-95.8895 203.774L-96.1019 203.548L-96.3092 203.32L-96.5111 203.089L-96.7079 202.857L-96.8993 202.622L-97.0855 202.386L-97.2665 202.148L-97.4421 201.908L-97.6125 201.667L-97.7777 201.424L-97.9376 201.18L-98.0923 200.934L-98.2418 200.688L-98.3861 200.44L-98.5252 200.191L-98.6591 199.942L-98.7878 199.692" stroke="black"/>
 </g>
</svg>
