<?xml version="1.0" encoding="utf-8"?>
<svg xmlns="http://www.w3.org/2000/svg" fill="none" version="1.1" viewBox="-132.036 -379.425 264.073 758.85" x="-132.036pt" y="-379.425pt" width="264.073pt" height="758.85pt" stroke-width="0.566929" stroke-miterlimit="10.000000">
 <path d="M36.0757 -351.496L131.036 -351.496L131.036 -378.425L36.0757 -378.425Z" fill="black"/>
 <path d="M83.9812 -357.165L84.5482 -357.165"/>
 <g transform="matrix(1.000000,-0.000000,-0.000000,1.000000,84.264686,-357.165354)">
  <path d="M-40.4207 -0M-30.8333 -6.75664C-31.2672 -5.70286 -32.0317 -3.8019 -32.197 -3.07872L-32.2177 -3.07872C-32.4036 -3.82257 -33.2508 -5.86816 -33.6847 -6.96327L-36.3295 -13.4926C-36.6808 -14.3398 -37.342 -14.3398 -37.7139 -14.3398L-39.4289 -14.3398C-40.1727 -14.3398 -40.4207 -14.1125 -40.4207 -13.348L-40.4207 -0.991801C-40.4207 -0.24795 -40.1934 -0 -39.4289 -0L-38.871 -0C-38.0858 -0 -37.8792 -0.268613 -37.8792 -0.991801L-37.8792 -11.6743L-37.8585 -11.6743C-37.6313 -10.7445 -36.7014 -8.45097 -36.2055 -7.23188L-33.8087 -1.34306C-33.4368 -0.454575 -32.9409 -0.454575 -32.2383 -0.454575C-31.5358 -0.454575 -31.0399 -0.454575 -30.668 -1.34306L-28.0232 -7.8311C-27.8166 -8.327 -26.7008 -11.1371 -26.5561 -11.6743L-26.5355 -11.6743L-26.5355 -0.991801C-26.5355 -0.3306 -26.3908 -0 -25.5437 -0L-24.9858 -0C-24.2006 -0 -23.994 -0.268613 -23.994 -0.991801L-23.994 -13.348C-23.994 -14.0092 -24.1386 -14.3398 -24.9858 -14.3398L-26.7214 -14.3398C-27.238 -14.3398 -27.7546 -14.2985 -28.1058 -13.4513ZM-28.1058 -13.4513" fill="#fff"/>
 </g>
 <g transform="matrix(1.000000,-0.000000,-0.000000,1.000000,84.264686,-357.165354)">
  <path d="M-20.2172 -0M-10.6298 -6.75664C-11.0637 -5.70286 -11.8283 -3.8019 -11.9936 -3.07872L-12.0142 -3.07872C-12.2002 -3.82257 -13.0473 -5.86816 -13.4813 -6.96327L-16.1261 -13.4926C-16.4773 -14.3398 -17.1385 -14.3398 -17.5104 -14.3398L-19.2254 -14.3398C-19.9693 -14.3398 -20.2172 -14.1125 -20.2172 -13.348L-20.2172 -0.991801C-20.2172 -0.24795 -19.9899 -0 -19.2254 -0L-18.6675 -0C-17.8824 -0 -17.6757 -0.268613 -17.6757 -0.991801L-17.6757 -11.6743L-17.6551 -11.6743C-17.4278 -10.7445 -16.498 -8.45097 -16.0021 -7.23188L-13.6052 -1.34306C-13.2333 -0.454575 -12.7374 -0.454575 -12.0349 -0.454575C-11.3324 -0.454575 -10.8364 -0.454575 -10.4645 -1.34306L-7.81972 -7.8311C-7.6131 -8.327 -6.49732 -11.1371 -6.35268 -11.6743L-6.33202 -11.6743L-6.33202 -0.991801C-6.33202 -0.3306 -6.18738 -0 -5.34022 -0L-4.78233 -0C-3.99716 -0 -3.79053 -0.268613 -3.79053 -0.991801L-3.79053 -13.348C-3.79053 -14.0092 -3.93517 -14.3398 -4.78233 -14.3398L-6.51798 -14.3398C-7.03455 -14.3398 -7.55111 -14.2985 -7.90237 -13.4513ZM-7.90237 -13.4513" fill="#fff"/>
 </g>
 <g transform="matrix(1.000000,-0.000000,-0.000000,1.000000,84.264686,-357.165354)">
  <path d="M-1.02624 -0M7.89997 -13.4513C7.59003 -14.3398 6.99082 -14.3398 6.57757 -14.3398L4.75927 -14.3398C4.34602 -14.3398 3.7468 -14.3398 3.43686 -13.4513L-0.922928 -0.971138C-1.02624 -0.702526 -1.02624 -0.661201 -1.02624 -0.557888C-1.02624 -0 -0.509677 -0 -0.220402 -0L0.523449 -0C0.895374 -0 1.53591 -0 1.82519 -0.826501L2.63103 -3.12004L8.35454 -3.12004L9.05707 -1.13644C9.30502 -0.41325 9.44966 -0 10.4415 -0L11.5572 -0C11.8465 -0 12.3631 -0 12.3631 -0.557888C12.3631 -0.661201 12.3631 -0.702526 12.2598 -0.971138ZM12.2598 -0.971138M4.7386 -9.27747C5.04854 -10.1866 5.31715 -10.9718 5.48245 -11.7156L5.50312 -11.7156C5.60643 -11.2197 5.60643 -11.1784 5.77173 -10.7032L7.73467 -4.89702L3.2509 -4.89702ZM3.2509 -4.89702" fill="#fff"/>
 </g>
 <g transform="matrix(1.000000,-0.000000,-0.000000,1.000000,84.264686,-357.165354)">
  <path d="M13.8876 -0M25.8512 -2.95474C25.8512 -3.12004 25.7065 -3.20269 25.6239 -3.20269C25.128 -3.20269 24.5288 -1.85963 21.6154 -1.85963C17.9788 -1.85963 16.9456 -4.09118 16.9456 -7.19056C16.9456 -10.2693 18.0614 -12.5008 21.4501 -12.5008C23.289 -12.5008 24.2602 -11.7776 24.8181 -11.3231C24.942 -11.2197 25.004 -11.1371 25.1487 -11.1371C25.2313 -11.1371 25.3346 -11.2404 25.3553 -11.3231L25.7685 -13.6166C25.7892 -13.6993 25.7685 -13.7819 25.6032 -13.8439C24.3841 -14.2985 23.1237 -14.5877 21.512 -14.5877C16.4704 -14.5877 13.8876 -12.1289 13.8876 -7.21122C13.8876 -2.1489 16.5117 0.206625 21.5327 0.206625C23.289 0.206625 24.3841 -0.041325 25.8925 -0.971138C26.0578 -1.07445 26.0165 -1.21909 26.0165 -1.21909ZM26.0165 -1.21909" fill="#fff"/>
 </g>
 <g transform="matrix(1.000000,-0.000000,-0.000000,1.000000,84.264686,-357.165354)">
  <path d="M28.0162 -0M36.9424 -13.4513C36.6325 -14.3398 36.0333 -14.3398 35.62 -14.3398L33.8017 -14.3398C33.3885 -14.3398 32.7893 -14.3398 32.4793 -13.4513L28.1195 -0.971138C28.0162 -0.702526 28.0162 -0.661201 28.0162 -0.557888C28.0162 -0 28.5328 -0 28.8221 -0L29.5659 -0C29.9378 -0 30.5784 -0 30.8676 -0.826501L31.6735 -3.12004L37.397 -3.12004L38.0995 -1.13644C38.3475 -0.41325 38.4921 -0 39.4839 -0L40.5997 -0C40.889 -0 41.4055 -0 41.4055 -0.557888C41.4055 -0.661201 41.4055 -0.702526 41.3022 -0.971138ZM41.3022 -0.971138M33.7811 -9.27747C34.091 -10.1866 34.3596 -10.9718 34.5249 -11.7156L34.5456 -11.7156C34.6489 -11.2197 34.6489 -11.1784 34.8142 -10.7032L36.7771 -4.89702L32.2934 -4.89702ZM32.2934 -4.89702" fill="#fff"/>
 </g>
 <path d="M83.9812 -331.654L84.5482 -331.654"/>
 <g transform="matrix(1.000000,-0.000000,-0.000000,1.000000,84.264686,-331.653543)">
  <path d="M-21.0819 -0M-16.2903 -9.33937C-16.2903 -9.61195 -16.2903 -9.68368 -16.4911 -9.68368C-16.6059 -9.68368 -16.6489 -9.68368 -16.7637 -9.51153L-21.0819 -2.81185L-21.0819 -2.39581L-17.3089 -2.39581L-17.3089 -1.09031C-17.3089 -0.559502 -17.3375 -0.41604 -18.3848 -0.41604L-18.6717 -0.41604L-18.6717 -0C-18.3418 -0.0286924 -17.2084 -0.0286924 -16.8067 -0.0286924C-16.405 -0.0286924 -15.2573 -0.0286924 -14.9274 -0L-14.9274 -0.41604L-15.2143 -0.41604C-16.2472 -0.41604 -16.2903 -0.559502 -16.2903 -1.09031L-16.2903 -2.39581L-14.8413 -2.39581L-14.8413 -2.81185L-16.2903 -2.81185ZM-16.2903 -2.81185M-17.2371 -8.22037L-17.2371 -2.81185L-20.7232 -2.81185ZM-20.7232 -2.81185" fill="black"/>
 </g>
 <g transform="matrix(1.000000,-0.000000,-0.000000,1.000000,84.264686,-331.653543)">
  <path d="M-8.9886 -0M-3.59443 -10.2432C-3.5227 -10.4297 -3.5227 -10.4584 -3.5227 -10.4871C-3.5227 -10.6736 -3.66617 -10.7596 -3.78094 -10.7596C-3.96744 -10.7596 -4.01047 -10.6305 -4.08221 -10.444L-8.91687 3.07009C-8.9886 3.25659 -8.9886 3.28528 -8.9886 3.31397C-8.9886 3.47178 -8.87383 3.58655 -8.71603 3.58655C-8.52953 3.58655 -8.48649 3.44309 -8.4291 3.28528ZM-8.4291 3.28528" fill="black"/>
 </g>
 <g transform="matrix(1.000000,-0.000000,-0.000000,1.000000,84.264686,-331.653543)">
  <path d="M2.53084 -0M7.19336 -4.17474C7.19336 -0.789041 5.68701 -0.0860772 4.82624 -0.0860772C4.48193 -0.0860772 3.72158 -0.129116 3.36292 -0.631233L3.449 -0.631233C3.54942 -0.60254 4.06589 -0.688617 4.06589 -1.21943C4.06589 -1.53504 3.85069 -1.80762 3.47769 -1.80762C3.10469 -1.80762 2.87515 -1.56374 2.87515 -1.19073C2.87515 -0.30127 3.59246 0.30127 4.84058 0.30127C6.63386 0.30127 8.36975 -1.60677 8.36975 -4.7199C8.36975 -8.57903 6.76297 -9.54022 5.50051 -9.54022C3.92243 -9.54022 2.53084 -8.22037 2.53084 -6.32667C2.53084 -4.43297 3.86504 -3.14182 5.29966 -3.14182C6.36128 -3.14182 6.90643 -3.91651 7.19336 -4.64817ZM7.19336 -4.64817M5.35705 -3.42874C4.45324 -3.42874 4.06589 -4.1604 3.93677 -4.43297C3.70723 -4.97813 3.70723 -5.66675 3.70723 -6.31233C3.70723 -7.11571 3.70723 -7.80433 4.08023 -8.39252C4.33847 -8.77987 4.72581 -9.19591 5.50051 -9.19591C6.31824 -9.19591 6.73428 -8.4786 6.87774 -8.14864C7.16467 -7.44568 7.16467 -6.22625 7.16467 -6.01106C7.16467 -4.80598 6.61951 -3.42874 5.35705 -3.42874ZM5.35705 -3.42874" fill="black"/>
 </g>
 <g transform="matrix(1.000000,-0.000000,-0.000000,1.000000,84.264686,-331.653543)">
  <path d="M9.55442 -0M15.3933 -4.59078C15.3933 -5.78152 15.3216 -6.94356 14.8051 -8.03387C14.2169 -9.2246 13.184 -9.54022 12.481 -9.54022C11.649 -9.54022 10.6304 -9.12418 10.0996 -7.93345C9.69788 -7.02964 9.55442 -6.14017 9.55442 -4.59078C9.55442 -3.1992 9.65484 -2.15193 10.1713 -1.13335C10.7308 -0.0430386 11.7207 0.30127 12.4667 0.30127C13.7148 0.30127 14.4321 -0.444732 14.8482 -1.27681C15.3646 -2.35278 15.3933 -3.7587 15.3933 -4.59078ZM15.3933 -4.59078M12.4667 0.0143462C12.0076 0.0143462 11.0751 -0.243885 10.8025 -1.80762C10.6447 -2.66839 10.6447 -3.7587 10.6447 -4.76294C10.6447 -5.93933 10.6447 -7.00094 10.8743 -7.84737C11.1182 -8.80856 11.8498 -9.2533 12.4667 -9.2533C13.0119 -9.2533 13.8439 -8.92333 14.1165 -7.68956C14.303 -6.87183 14.303 -5.73848 14.303 -4.76294C14.303 -3.80174 14.303 -2.71143 14.1452 -1.83631C13.8726 -0.258232 12.9688 0.0143462 12.4667 0.0143462ZM12.4667 0.0143462" fill="black"/>
 </g>
 <g transform="matrix(1.000000,-0.000000,-0.000000,1.000000,84.264686,-331.653543)">
  <path d="M16.5377 -5.20611M20.4132 -7.69677C20.4132 -8.76277 19.5265 -9.62952 18.4805 -9.62952C17.4045 -9.62952 16.5377 -8.74285 16.5377 -7.69677C16.5377 -6.64073 17.4045 -5.76402 18.4805 -5.76402C19.5265 -5.76402 20.4132 -6.63077 20.4132 -7.69677ZM20.4132 -7.69677M18.4805 -6.16252C17.6137 -6.16252 16.9362 -6.85991 16.9362 -7.69677C16.9362 -8.53363 17.6237 -9.23102 18.4805 -9.23102C19.3074 -9.23102 20.0147 -8.55356 20.0147 -7.69677C20.0147 -6.83998 19.3074 -6.16252 18.4805 -6.16252ZM18.4805 -6.16252" fill="black"/>
 </g>
 <g stroke-linecap="round" stroke-linejoin="round">
  <path d="M-115.62 316.761L-115.62 -378.425" stroke="black"/>
 </g>
 <g stroke-linecap="butt" stroke-linejoin="round" stroke-dasharray="2.000000" stroke-dashoffset="0.000000">
  <path d="M-115.62 316.761L27.1882 -216.208" stroke="black"/>
 </g>
 <g stroke-linecap="round" stroke-linejoin="round">
  <path d="M-115.62 316.761L103.35 -62.506" stroke="black"/>
 </g>
 <g stroke-linecap="butt" stroke-linejoin="round" stroke-dasharray="2.000000" stroke-dashoffset="0.000000">
  <path d="M-115.62 316.761L130.165 70.9756" stroke="black"/>
 </g>
 <g stroke-linecap="round" stroke-linejoin="round">
  <path d="M-115.62 316.761L123.303 178.819" stroke="black"/>
 </g>
 <g stroke-linecap="butt" stroke-linejoin="round" stroke-dasharray="2.000000" stroke-dashoffset="0.000000">
  <path d="M-115.62 316.761L95.8884 260.087" stroke="black"/>
 </g>
 <g stroke-linecap="round" stroke-linejoin="round">
  <path d="M-115.62 316.761L58.1763 316.761" stroke="black"/>
 </g>
 <g stroke-linecap="butt" stroke-linejoin="round" stroke-dasharray="2.000000" stroke-dashoffset="0.000000">
  <path d="M-115.62 316.761L17.6218 352.463" stroke="black"/>
 </g>
 <g stroke-linecap="round" stroke-linejoin="round">
  <path d="M-115.62 316.761L-20.8035 371.504" stroke="black"/>
 </g>
 <g stroke-linecap="butt" stroke-linejoin="round" stroke-dasharray="2.000000" stroke-dashoffset="0.000000">
  <path d="M-115.62 316.761L-54.1739 378.207" stroke="black"/>
 </g>
 <g stroke-linecap="round" stroke-linejoin="round">
  <path d="M-115.62 316.761L-81.1347 376.492" stroke="black"/>
 </g>
 <g stroke-linecap="butt" stroke-linejoin="round" stroke-dasharray="2.000000" stroke-dashoffset="0.000000">
  <path d="M-115.62 316.761L-101.452 369.638" stroke="black"/>
 </g>
 <g stroke-linecap="round" stroke-linejoin="round">
  <path d="M-115.62 316.761L-115.62 360.21" stroke="black"/>
 </g>
 <g stroke-linecap="butt" stroke-linejoin="round" stroke-dasharray="2.000000" stroke-dashoffset="0.000000">
  <path d="M-115.62 316.761L-124.546 350.072" stroke="black"/>
 </g>
 <g stroke-linecap="round" stroke-linejoin="round">
  <path d="M-115.62 316.761L-129.306 340.465" stroke="black"/>
 </g>
 <g stroke-linecap="butt" stroke-linejoin="round" stroke-dasharray="2.000000" stroke-dashoffset="0.000000">
  <path d="M-115.62 316.761L-130.982 332.123" stroke="black"/>
 </g>
 <g stroke-linecap="round" stroke-linejoin="round">
  <path d="M-115.62 316.761L-130.553 325.382" stroke="black"/>
 </g>
 <g stroke-linecap="butt" stroke-linejoin="round" stroke-dasharray="2.000000" stroke-dashoffset="0.000000">
  <path d="M-115.62 316.761L-128.84 320.303" stroke="black"/>
 </g>
 <g stroke-linecap="round" stroke-linejoin="round">
  <path d="M-115.62 316.761L-126.483 316.761" stroke="black"/>
 </g>
 <g stroke-linecap="butt" stroke-linejoin="round" stroke-dasharray="2.000000" stroke-dashoffset="0.000000">
  <path d="M-115.62 316.761L-123.948 314.53" stroke="black"/>
 </g>
 <g stroke-linecap="round" stroke-linejoin="round">
  <path d="M-115.62 316.761L-121.546 313.34" stroke="black"/>
 </g>
 <g stroke-linecap="butt" stroke-linejoin="round" stroke-dasharray="2.000000" stroke-dashoffset="0.000000">
  <path d="M-115.62 316.761L-119.461 312.921" stroke="black"/>
 </g>
 <g stroke-linecap="round" stroke-linejoin="round">
  <path d="M-115.62 316.761L-117.776 313.028" stroke="black"/>
 </g>
 <g stroke-linecap="butt" stroke-linejoin="round" stroke-dasharray="2.000000" stroke-dashoffset="0.000000">
  <path d="M-115.62 316.761L-116.506 313.456" stroke="black"/>
 </g>
 <g stroke-linecap="round" stroke-linejoin="round">
  <path d="M-115.62 316.761L-115.62 314.045" stroke="black"/>
 </g>
 <g stroke-linecap="round" stroke-linejoin="round" stroke-width="1.603518">
  <path d="M-115.62 -378.425L-103.673 -367.695L-92.0947 -356.925L-80.8801 -346.122L-70.0242 -335.293L-59.522 -324.445L-49.3684 -313.584L-39.5581 -302.716L-30.0861 -291.847L-20.947 -280.983L-12.1357 -270.129L-3.64689 -259.292L4.52462 -248.476L12.3841 -237.687L19.9369 -226.929L27.1882 -216.208L34.1433 -205.527L40.8075 -194.891L47.1861 -184.306L53.2843 -173.774L59.1074 -163.299L64.6606 -152.887L69.9491 -142.539L74.9782 -132.261L79.753 -122.054L84.2787 -111.924L88.5604 -101.871L92.6033 -91.9008L96.4124 -82.0145L99.9929 -72.2154L103.35 -62.506L106.488 -52.8888L109.412 -43.3661L112.128 -33.9401L114.639 -24.613L116.952 -15.3867L119.07 -6.26298L120.999 2.75628L122.743 11.6695L124.307 20.4751L125.696 29.1716L126.914 37.7578L127.965 46.2324L128.854 54.5942L129.586 62.8423L130.165 70.9756L130.595 78.9933L130.881 86.8947L131.027 94.679L131.036 102.346L130.914 109.894L130.664 117.324L130.29 124.635L129.796 131.827L129.186 138.899L128.464 145.851L127.634 152.684L126.699 159.397L125.663 165.99L124.53 172.464L123.303 178.819L121.986 185.054L120.582 191.17L119.094 197.168L117.527 203.048L115.882 208.81L114.164 214.454L112.376 219.983L110.52 225.395L108.599 230.691L106.618 235.873L104.577 240.941L102.482 245.895L100.333 250.737L98.1344 255.468L95.8884 260.087L93.5977 264.597L91.2649 268.998L88.8924 273.291L86.4827 277.476L84.0384 281.556L81.5616 285.53L79.0548 289.401L76.5201 293.169L73.9598 296.835L71.3761 300.401L68.7709 303.867L66.1464 307.235L63.5045 310.506L60.8471 313.681L58.1763 316.761L55.4937 319.748L52.8012 322.642L50.1005 325.446L47.3933 328.16L44.6812 330.786L41.9659 333.324L39.2489 335.777L36.5316 338.145L33.8157 340.429L31.1023 342.632L28.393 344.754L25.6891 346.797L22.9917 348.762L20.3023 350.65L17.6218 352.463L14.9517 354.202L12.2928 355.868L9.64636 357.463L7.01336 358.987L4.3948 360.443L1.79164 361.831L-0.795205 363.153L-3.36484 364.411L-5.91642 365.604L-8.44912 366.736L-10.9622 367.806L-13.4548 368.817L-15.9264 369.769L-18.3762 370.664L-20.8035 371.504L-23.2078 372.288L-25.5885 373.019L-27.945 373.698L-30.2768 374.326L-32.5834 374.904L-34.8643 375.434L-37.1191 375.916L-39.3474 376.352L-41.5488 376.743L-43.7229 377.09L-45.8695 377.394L-47.9881 377.657L-50.0786 377.88L-52.1406 378.063L-54.1739 378.207L-56.1784 378.315L-58.1537 378.386L-60.0998 378.423L-62.0165 378.425L-63.9036 378.395L-65.7611 378.332L-67.5888 378.239L-69.3867 378.115L-71.1547 377.963L-72.8929 377.782L-74.601 377.575L-76.2793 377.341L-77.9277 377.082L-79.5461 376.799L-81.1347 376.492L-82.6935 376.163L-84.2226 375.812L-85.722 375.44L-87.192 375.048L-88.6324 374.637L-90.0436 374.207L-91.4257 373.76L-92.7787 373.296L-94.1028 372.816L-95.3983 372.321L-96.6653 371.81L-97.9039 371.287L-99.1144 370.749L-100.297 370.2L-101.452 369.638L-102.579 369.066L-103.679 368.482L-104.753 367.889L-105.799 367.287L-106.819 366.676L-107.813 366.057L-108.78 365.43L-109.722 364.796L-110.639 364.156L-111.53 363.51L-112.397 362.859L-113.239 362.203L-114.057 361.542L-114.85 360.878L-115.62 360.21L-116.367 359.54L-117.091 358.866L-117.792 358.191L-118.47 357.514L-119.126 356.836L-119.761 356.158L-120.374 355.478L-120.966 354.799L-121.537 354.12L-122.088 353.442L-122.619 352.764L-123.129 352.088L-123.621 351.414L-124.093 350.742L-124.546 350.072L-124.981 349.404L-125.397 348.739L-125.796 348.078L-126.177 347.419L-126.541 346.765L-126.888 346.114L-127.218 345.467L-127.533 344.825L-127.831 344.187L-128.114 343.554L-128.382 342.926L-128.634 342.302L-128.872 341.685L-129.096 341.072L-129.306 340.465L-129.502 339.864L-129.685 339.269L-129.855 338.68L-130.012 338.097L-130.156 337.52L-130.288 336.95L-130.409 336.386L-130.518 335.829L-130.616 335.279L-130.703 334.735L-130.779 334.199L-130.844 333.669L-130.9 333.146L-130.946 332.631L-130.982 332.123L-131.009 331.622L-131.027 331.128L-131.036 330.641L-131.036 330.162L-131.029 329.69L-131.013 329.226L-130.99 328.769L-130.959 328.319L-130.921 327.877L-130.876 327.443L-130.824 327.016L-130.765 326.596L-130.701 326.184L-130.63 325.78L-130.553 325.382L-130.471 324.993L-130.383 324.61L-130.29 324.236L-130.192 323.868L-130.089 323.508L-129.982 323.155L-129.87 322.81L-129.754 322.471L-129.634 322.14L-129.51 321.817L-129.383 321.5L-129.252 321.19L-129.117 320.888L-128.98 320.592L-128.84 320.303L-128.696 320.021L-128.551 319.746L-128.402 319.478L-128.252 319.216L-128.099 318.961L-127.944 318.713L-127.787 318.471L-127.629 318.236L-127.469 318.006L-127.308 317.784L-127.145 317.567L-126.981 317.356L-126.816 317.152L-126.65 316.954L-126.483 316.761L-126.315 316.574L-126.147 316.393L-125.978 316.218L-125.809 316.049L-125.639 315.885L-125.469 315.726L-125.3 315.573L-125.13 315.425L-124.96 315.282L-124.79 315.144L-124.621 315.011L-124.452 314.884L-124.284 314.761L-124.115 314.643L-123.948 314.53L-123.781 314.421L-123.615 314.317L-123.449 314.217L-123.285 314.122L-123.121 314.031L-122.959 313.944L-122.797 313.862L-122.636 313.783L-122.477 313.708L-122.318 313.638L-122.161 313.571L-122.006 313.508L-121.851 313.448L-121.698 313.392L-121.546 313.34L-121.396 313.291L-121.247 313.245L-121.1 313.202L-120.954 313.163L-120.81 313.127L-120.668 313.094L-120.527 313.064L-120.387 313.037L-120.25 313.012L-120.114 312.99L-119.98 312.971L-119.847 312.955L-119.717 312.941L-119.588 312.93L-119.461 312.921L-119.335 312.914L-119.212 312.909L-119.09 312.907L-118.971 312.907L-118.853 312.909L-118.737 312.913L-118.622 312.919L-118.51 312.926L-118.399 312.936L-118.291 312.947L-118.184 312.96L-118.079 312.975L-117.976 312.991L-117.875 313.009L-117.776 313.028L-117.678 313.048L-117.583 313.07L-117.489 313.094L-117.397 313.118L-117.307 313.144L-117.219 313.171L-117.132 313.199L-117.048 313.228L-116.965 313.258L-116.884 313.289L-116.805 313.32L-116.728 313.353L-116.652 313.387L-116.578 313.421L-116.506 313.456L-116.435 313.492L-116.367 313.528L-116.3 313.566L-116.234 313.603L-116.17 313.641L-116.108 313.68L-116.048 313.719L-115.989 313.759L-115.932 313.799L-115.876 313.839L-115.822 313.88L-115.769 313.921L-115.718 313.962L-115.668 314.004L-115.62 314.045" stroke="black"/>
 </g>
</svg>
