<?xml version="1.0" encoding="utf-8"?>
<svg xmlns="http://www.w3.org/2000/svg" fill="none" version="1.1" viewBox="-256.118 -374.644 512.236 749.288" x="-256.118pt" y="-374.644pt" width="512.236pt" height="749.288pt" stroke-width="0.566929" stroke-miterlimit="10.000000">
 <path d="M160.157 -346.715L255.118 -346.715L255.118 -373.644L160.157 -373.644Z" fill="black"/>
 <path d="M208.063 -352.384L208.63 -352.384"/>
 <g transform="matrix(1.000000,-0.000000,-0.000000,1.000000,208.346457,-352.384072)">
  <path d="M-40.4207 -0M-30.8333 -6.75664C-31.2672 -5.70286 -32.0317 -3.8019 -32.197 -3.07872L-32.2177 -3.07872C-32.4036 -3.82257 -33.2508 -5.86816 -33.6847 -6.96327L-36.3295 -13.4926C-36.6808 -14.3398 -37.342 -14.3398 -37.7139 -14.3398L-39.4289 -14.3398C-40.1727 -14.3398 -40.4207 -14.1125 -40.4207 -13.348L-40.4207 -0.991801C-40.4207 -0.24795 -40.1934 -0 -39.4289 -0L-38.871 -0C-38.0858 -0 -37.8792 -0.268613 -37.8792 -0.991801L-37.8792 -11.6743L-37.8585 -11.6743C-37.6313 -10.7445 -36.7014 -8.45097 -36.2055 -7.23188L-33.8087 -1.34306C-33.4368 -0.454575 -32.9409 -0.454575 -32.2383 -0.454575C-31.5358 -0.454575 -31.0399 -0.454575 -30.668 -1.34306L-28.0232 -7.8311C-27.8166 -8.327 -26.7008 -11.1371 -26.5561 -11.6743L-26.5355 -11.6743L-26.5355 -0.991801C-26.5355 -0.3306 -26.3908 -0 -25.5437 -0L-24.9858 -0C-24.2006 -0 -23.994 -0.268613 -23.994 -0.991801L-23.994 -13.348C-23.994 -14.0092 -24.1386 -14.3398 -24.9858 -14.3398L-26.7214 -14.3398C-27.238 -14.3398 -27.7546 -14.2985 -28.1058 -13.4513ZM-28.1058 -13.4513" fill="#fff"/>
 </g>
 <g transform="matrix(1.000000,-0.000000,-0.000000,1.000000,208.346457,-352.384072)">
  <path d="M-20.2172 -0M-10.6298 -6.75664C-11.0637 -5.70286 -11.8283 -3.8019 -11.9936 -3.07872L-12.0142 -3.07872C-12.2002 -3.82257 -13.0473 -5.86816 -13.4813 -6.96327L-16.1261 -13.4926C-16.4773 -14.3398 -17.1385 -14.3398 -17.5104 -14.3398L-19.2254 -14.3398C-19.9693 -14.3398 -20.2172 -14.1125 -20.2172 -13.348L-20.2172 -0.991801C-20.2172 -0.24795 -19.9899 -0 -19.2254 -0L-18.6675 -0C-17.8824 -0 -17.6757 -0.268613 -17.6757 -0.991801L-17.6757 -11.6743L-17.6551 -11.6743C-17.4278 -10.7445 -16.498 -8.45097 -16.0021 -7.23188L-13.6052 -1.34306C-13.2333 -0.454575 -12.7374 -0.454575 -12.0349 -0.454575C-11.3324 -0.454575 -10.8364 -0.454575 -10.4645 -1.34306L-7.81972 -7.8311C-7.6131 -8.327 -6.49732 -11.1371 -6.35268 -11.6743L-6.33202 -11.6743L-6.33202 -0.991801C-6.33202 -0.3306 -6.18738 -0 -5.34022 -0L-4.78233 -0C-3.99716 -0 -3.79053 -0.268613 -3.79053 -0.991801L-3.79053 -13.348C-3.79053 -14.0092 -3.93517 -14.3398 -4.78233 -14.3398L-6.51798 -14.3398C-7.03455 -14.3398 -7.55111 -14.2985 -7.90237 -13.4513ZM-7.90237 -13.4513" fill="#fff"/>
 </g>
 <g transform="matrix(1.000000,-0.000000,-0.000000,1.000000,208.346457,-352.384072)">
  <path d="M-1.02624 -0M7.89997 -13.4513C7.59003 -14.3398 6.99082 -14.3398 6.57757 -14.3398L4.75927 -14.3398C4.34602 -14.3398 3.7468 -14.3398 3.43686 -13.4513L-0.922928 -0.971138C-1.02624 -0.702526 -1.02624 -0.661201 -1.02624 -0.557888C-1.02624 -0 -0.509677 -0 -0.220402 -0L0.523449 -0C0.895374 -0 1.53591 -0 1.82519 -0.826501L2.63103 -3.12004L8.35454 -3.12004L9.05707 -1.13644C9.30502 -0.41325 9.44966 -0 10.4415 -0L11.5572 -0C11.8465 -0 12.3631 -0 12.3631 -0.557888C12.3631 -0.661201 12.3631 -0.702526 12.2598 -0.971138ZM12.2598 -0.971138M4.7386 -9.27747C5.04854 -10.1866 5.31715 -10.9718 5.48245 -11.7156L5.50312 -11.7156C5.60643 -11.2197 5.60643 -11.1784 5.77173 -10.7032L7.73467 -4.89702L3.2509 -4.89702ZM3.2509 -4.89702" fill="#fff"/>
 </g>
 <g transform="matrix(1.000000,-0.000000,-0.000000,1.000000,208.346457,-352.384072)">
  <path d="M13.8876 -0M25.8512 -2.95474C25.8512 -3.12004 25.7065 -3.20269 25.6239 -3.20269C25.128 -3.20269 24.5288 -1.85963 21.6154 -1.85963C17.9788 -1.85963 16.9456 -4.09118 16.9456 -7.19056C16.9456 -10.2693 18.0614 -12.5008 21.4501 -12.5008C23.289 -12.5008 24.2602 -11.7776 24.8181 -11.3231C24.942 -11.2197 25.004 -11.1371 25.1487 -11.1371C25.2313 -11.1371 25.3346 -11.2404 25.3553 -11.3231L25.7685 -13.6166C25.7892 -13.6993 25.7685 -13.7819 25.6032 -13.8439C24.3841 -14.2985 23.1237 -14.5877 21.512 -14.5877C16.4704 -14.5877 13.8876 -12.1289 13.8876 -7.21122C13.8876 -2.1489 16.5117 0.206625 21.5327 0.206625C23.289 0.206625 24.3841 -0.041325 25.8925 -0.971138C26.0578 -1.07445 26.0165 -1.21909 26.0165 -1.21909ZM26.0165 -1.21909" fill="#fff"/>
 </g>
 <g transform="matrix(1.000000,-0.000000,-0.000000,1.000000,208.346457,-352.384072)">
  <path d="M28.0162 -0M36.9424 -13.4513C36.6325 -14.3398 36.0333 -14.3398 35.62 -14.3398L33.8017 -14.3398C33.3885 -14.3398 32.7893 -14.3398 32.4793 -13.4513L28.1195 -0.971138C28.0162 -0.702526 28.0162 -0.661201 28.0162 -0.557888C28.0162 -0 28.5328 -0 28.8221 -0L29.5659 -0C29.9378 -0 30.5784 -0 30.8676 -0.826501L31.6735 -3.12004L37.397 -3.12004L38.0995 -1.13644C38.3475 -0.41325 38.4921 -0 39.4839 -0L40.5997 -0C40.889 -0 41.4055 -0 41.4055 -0.557888C41.4055 -0.661201 41.4055 -0.702526 41.3022 -0.971138ZM41.3022 -0.971138M33.7811 -9.27747C34.091 -10.1866 34.3596 -10.9718 34.5249 -11.7156L34.5456 -11.7156C34.6489 -11.2197 34.6489 -11.1784 34.8142 -10.7032L36.7771 -4.89702L32.2934 -4.89702ZM32.2934 -4.89702" fill="#fff"/>
 </g>
 <path d="M208.063 -326.872L208.63 -326.872"/>
 <g transform="matrix(1.000000,-0.000000,-0.000000,1.000000,208.346457,-326.872261)">
  <path d="M-25.3378 -0M-21.9951 -5.40852L-20.374 -5.40852C-20.7614 -3.80174 -21.0053 -2.75447 -21.0053 -1.60677C-21.0053 -1.40593 -21.0053 0.143462 -20.4171 0.143462C-20.1158 0.143462 -19.8576 -0.129116 -19.8576 -0.373001C-19.8576 -0.444732 -19.8576 -0.473424 -19.958 -0.688617C-20.3453 -1.6785 -20.3453 -2.91228 -20.3453 -3.0127C-20.3453 -3.09878 -20.3453 -4.11736 -20.0441 -5.40852L-18.4373 -5.40852C-18.2508 -5.40852 -17.7774 -5.40852 -17.7774 -5.86759C-17.7774 -6.18321 -18.0499 -6.18321 -18.3082 -6.18321L-23.0281 -6.18321C-23.358 -6.18321 -23.8458 -6.18321 -24.5057 -5.48025C-24.8787 -5.06421 -25.3378 -4.30386 -25.3378 -4.21778C-25.3378 -4.1317 -25.2661 -4.10301 -25.18 -4.10301C-25.0796 -4.10301 -25.0652 -4.14605 -24.9935 -4.23213C-24.2475 -5.40852 -23.5015 -5.40852 -23.1428 -5.40852L-22.3251 -5.40852C-22.6407 -4.33255 -22.9994 -3.08443 -24.1758 -0.573848C-24.2905 -0.344309 -24.2905 -0.315616 -24.2905 -0.229539C-24.2905 0.071731 -24.0323 0.143462 -23.9032 0.143462C-23.4871 0.143462 -23.3724 -0.229539 -23.2002 -0.832079C-22.9707 -1.56374 -22.9707 -1.59243 -22.8272 -2.16628ZM-22.8272 -2.16628" fill="black"/>
 </g>
 <g transform="matrix(1.000000,-0.000000,-0.000000,1.000000,208.346457,-326.872261)">
  <path d="M-11.7706 -0M-6.37645 -10.2432C-6.30472 -10.4297 -6.30472 -10.4584 -6.30472 -10.4871C-6.30472 -10.6736 -6.44818 -10.7596 -6.56295 -10.7596C-6.74945 -10.7596 -6.79249 -10.6305 -6.86422 -10.444L-11.6989 3.07009C-11.7706 3.25659 -11.7706 3.28528 -11.7706 3.31397C-11.7706 3.47178 -11.6559 3.58655 -11.498 3.58655C-11.3115 3.58655 -11.2685 3.44309 -11.2111 3.28528ZM-11.2111 3.28528" fill="black"/>
 </g>
 <g transform="matrix(1.000000,-0.000000,-0.000000,1.000000,208.346457,-326.872261)">
  <path d="M-0.136403 -0M5.47296 -2.41016L5.15734 -2.41016C5.1143 -2.16628 4.99954 -1.37723 4.85607 -1.1477C4.75565 -1.01858 3.93792 -1.01858 3.50753 -1.01858L0.853485 -1.01858C1.24083 -1.34854 2.11595 -2.2667 2.48895 -2.61101C4.66957 -4.61948 5.47296 -5.36548 5.47296 -6.78575C5.47296 -8.43556 4.16746 -9.54022 2.5033 -9.54022C0.839138 -9.54022 -0.136403 -8.11995 -0.136403 -6.88617C-0.136403 -6.15452 0.49483 -6.15452 0.537868 -6.15452C0.839138 -6.15452 1.21214 -6.36971 1.21214 -6.82879C1.21214 -7.23048 0.939562 -7.50306 0.537868 -7.50306C0.408753 -7.50306 0.38006 -7.50306 0.337022 -7.48871C0.609599 -8.46426 1.38429 -9.12418 2.3168 -9.12418C3.53622 -9.12418 4.28223 -8.1056 4.28223 -6.78575C4.28223 -5.56632 3.57926 -4.50471 2.76153 -3.58655L-0.136403 -0.344309L-0.136403 -0L5.09996 -0ZM5.09996 -0" fill="black"/>
 </g>
 <g transform="matrix(1.000000,-0.000000,-0.000000,1.000000,208.346457,-326.872261)">
  <path d="M6.9589 -0M12.9986 -8.90899L12.9986 -9.23895L9.54122 -9.23895C7.80533 -9.23895 7.77663 -9.42545 7.71925 -9.69803L7.40363 -9.69803L6.9589 -6.82879L7.27452 -6.82879C7.31756 -7.08702 7.44667 -7.97648 7.63317 -8.13429C7.74794 -8.22037 8.82391 -8.22037 9.02475 -8.22037L12.0661 -8.22037L10.5455 -6.03975C10.1581 -5.48025 8.70914 -3.12747 8.70914 -0.430386C8.70914 -0.272578 8.70914 0.30127 9.29733 0.30127C9.89987 0.30127 9.89987 -0.258232 9.89987 -0.444732L9.89987 -1.16204C9.89987 -3.29963 10.2442 -4.96378 10.9185 -5.92498ZM10.9185 -5.92498" fill="black"/>
 </g>
 <g transform="matrix(1.000000,-0.000000,-0.000000,1.000000,208.346457,-326.872261)">
  <path d="M13.796 -0M19.6349 -4.59078C19.6349 -5.78152 19.5631 -6.94356 19.0467 -8.03387C18.4585 -9.2246 17.4256 -9.54022 16.7226 -9.54022C15.8905 -9.54022 14.8719 -9.12418 14.3411 -7.93345C13.9394 -7.02964 13.796 -6.14017 13.796 -4.59078C13.796 -3.1992 13.8964 -2.15193 14.4129 -1.13335C14.9724 -0.0430386 15.9622 0.30127 16.7083 0.30127C17.9564 0.30127 18.6737 -0.444732 19.0897 -1.27681C19.6062 -2.35278 19.6349 -3.7587 19.6349 -4.59078ZM19.6349 -4.59078M16.7083 0.0143462C16.2492 0.0143462 15.3167 -0.243885 15.0441 -1.80762C14.8863 -2.66839 14.8863 -3.7587 14.8863 -4.76294C14.8863 -5.93933 14.8863 -7.00094 15.1158 -7.84737C15.3597 -8.80856 16.0914 -9.2533 16.7083 -9.2533C17.2534 -9.2533 18.0855 -8.92333 18.3581 -7.68956C18.5446 -6.87183 18.5446 -5.73848 18.5446 -4.76294C18.5446 -3.80174 18.5446 -2.71143 18.3868 -1.83631C18.1142 -0.258232 17.2104 0.0143462 16.7083 0.0143462ZM16.7083 0.0143462" fill="black"/>
 </g>
 <g transform="matrix(1.000000,-0.000000,-0.000000,1.000000,208.346457,-326.872261)">
  <path d="M20.7793 -5.20611M24.6548 -7.69677C24.6548 -8.76277 23.7681 -9.62952 22.722 -9.62952C21.646 -9.62952 20.7793 -8.74285 20.7793 -7.69677C20.7793 -6.64073 21.646 -5.76402 22.722 -5.76402C23.7681 -5.76402 24.6548 -6.63077 24.6548 -7.69677ZM24.6548 -7.69677M22.722 -6.16252C21.8553 -6.16252 21.1778 -6.85991 21.1778 -7.69677C21.1778 -8.53363 21.8652 -9.23102 22.722 -9.23102C23.5489 -9.23102 24.2563 -8.55356 24.2563 -7.69677C24.2563 -6.83998 23.5489 -6.16252 22.722 -6.16252ZM22.722 -6.16252" fill="black"/>
 </g>
 <g stroke-linecap="round" stroke-linejoin="round">
  <path d="M-92.8824 136.035L-229.413 -373.504" stroke="black"/>
 </g>
 <g stroke-linecap="butt" stroke-linejoin="round" stroke-dasharray="2.000000" stroke-dashoffset="0.000000">
  <path d="M-92.8824 136.035L-92.8824 -358.976" stroke="black"/>
 </g>
 <g stroke-linecap="round" stroke-linejoin="round">
  <path d="M-92.8824 136.035L27.3416 -312.647" stroke="black"/>
 </g>
 <g stroke-linecap="butt" stroke-linejoin="round" stroke-dasharray="2.000000" stroke-dashoffset="0.000000">
  <path d="M-92.8824 136.035L125.062 -241.456" stroke="black"/>
 </g>
 <g stroke-linecap="round" stroke-linejoin="round">
  <path d="M-92.8824 136.035L196.346 -153.194" stroke="black"/>
 </g>
 <g stroke-linecap="butt" stroke-linejoin="round" stroke-dasharray="2.000000" stroke-dashoffset="0.000000">
  <path d="M-92.8824 136.035L239.522 -55.8792" stroke="black"/>
 </g>
 <g stroke-linecap="round" stroke-linejoin="round">
  <path d="M-92.8824 136.035L255.023 42.8139" stroke="black"/>
 </g>
 <g stroke-linecap="butt" stroke-linejoin="round" stroke-dasharray="2.000000" stroke-dashoffset="0.000000">
  <path d="M-92.8824 136.035L245.103 136.035" stroke="black"/>
 </g>
 <g stroke-linecap="round" stroke-linejoin="round">
  <path d="M-92.8824 136.035L213.47 218.122" stroke="black"/>
 </g>
 <g stroke-linecap="butt" stroke-linejoin="round" stroke-dasharray="2.000000" stroke-dashoffset="0.000000">
  <path d="M-92.8824 136.035L164.862 284.844" stroke="black"/>
 </g>
 <g stroke-linecap="round" stroke-linejoin="round">
  <path d="M-92.8824 136.035L104.598 333.515" stroke="black"/>
 </g>
 <g stroke-linecap="butt" stroke-linejoin="round" stroke-dasharray="2.000000" stroke-dashoffset="0.000000">
  <path d="M-92.8824 136.035L38.1534 362.995" stroke="black"/>
 </g>
 <g stroke-linecap="round" stroke-linejoin="round">
  <path d="M-92.8824 136.035L-29.2326 373.579" stroke="black"/>
 </g>
 <g stroke-linecap="butt" stroke-linejoin="round" stroke-dasharray="2.000000" stroke-dashoffset="0.000000">
  <path d="M-92.8824 136.035L-92.8824 366.806" stroke="black"/>
 </g>
 <g stroke-linecap="round" stroke-linejoin="round">
  <path d="M-92.8824 136.035L-148.93 345.208" stroke="black"/>
 </g>
 <g stroke-linecap="butt" stroke-linejoin="round" stroke-dasharray="2.000000" stroke-dashoffset="0.000000">
  <path d="M-92.8824 136.035L-194.487 312.019" stroke="black"/>
 </g>
 <g stroke-linecap="round" stroke-linejoin="round">
  <path d="M-92.8824 136.035L-227.719 270.871" stroke="black"/>
 </g>
 <g stroke-linecap="butt" stroke-linejoin="round" stroke-dasharray="2.000000" stroke-dashoffset="0.000000">
  <path d="M-92.8824 136.035L-247.847 225.504" stroke="black"/>
 </g>
 <g stroke-linecap="round" stroke-linejoin="round">
  <path d="M-92.8824 136.035L-255.074 179.494" stroke="black"/>
 </g>
 <g stroke-linecap="butt" stroke-linejoin="round" stroke-dasharray="2.000000" stroke-dashoffset="0.000000">
  <path d="M-92.8824 136.035L-250.449 136.035" stroke="black"/>
 </g>
 <g stroke-linecap="round" stroke-linejoin="round">
  <path d="M-92.8824 136.035L-235.702 97.7663" stroke="black"/>
 </g>
 <g stroke-linecap="butt" stroke-linejoin="round" stroke-dasharray="2.000000" stroke-dashoffset="0.000000">
  <path d="M-92.8824 136.035L-213.041 66.6609" stroke="black"/>
 </g>
 <g stroke-linecap="round" stroke-linejoin="round">
  <path d="M-92.8824 136.035L-184.947 43.9705" stroke="black"/>
 </g>
 <g stroke-linecap="butt" stroke-linejoin="round" stroke-dasharray="2.000000" stroke-dashoffset="0.000000">
  <path d="M-92.8824 136.035L-153.97 30.2271" stroke="black"/>
 </g>
 <g stroke-linecap="round" stroke-linejoin="round">
  <path d="M-92.8824 136.035L-122.555 25.2931" stroke="black"/>
 </g>
 <g stroke-linecap="round" stroke-linejoin="round" stroke-width="1.603518">
  <path d="M-229.413 -373.504L-219.96 -373.644L-210.545 -373.619L-201.172 -373.43L-191.844 -373.079L-182.563 -372.568L-173.331 -371.897L-164.151 -371.07L-155.026 -370.086L-145.958 -368.948L-136.95 -367.657L-128.003 -366.216L-119.121 -364.625L-110.305 -362.887L-101.558 -361.003L-92.8824 -358.976L-84.2798 -356.806L-75.7526 -354.497L-67.3029 -352.049L-58.9328 -349.466L-50.6443 -346.748L-42.4393 -343.898L-34.3199 -340.919L-26.2877 -337.811L-18.3448 -334.577L-10.4929 -331.219L-2.7338 -327.739L4.93086 -324.14L12.4994 -320.424L19.9702 -316.592L27.3416 -312.647L34.6122 -308.591L41.7804 -304.427L48.8449 -300.157L55.8041 -295.782L62.6569 -291.306L69.4018 -286.73L76.0377 -282.057L82.5632 -277.289L88.9773 -272.429L95.2788 -267.478L101.467 -262.44L107.54 -257.316L113.497 -252.109L119.338 -246.822L125.062 -241.456L130.667 -236.014L136.153 -230.498L141.519 -224.912L146.765 -219.256L151.889 -213.535L156.891 -207.749L161.771 -201.902L166.528 -195.995L171.161 -190.032L175.671 -184.014L180.056 -177.944L184.316 -171.825L188.451 -165.659L192.461 -159.447L196.346 -153.194L200.105 -146.9L203.738 -140.568L207.245 -134.201L210.626 -127.801L213.881 -121.37L217.01 -114.911L220.013 -108.426L222.89 -101.917L225.641 -95.3863L228.267 -88.8367L230.768 -82.2701L233.143 -75.6888L235.394 -69.095L237.52 -62.4911L239.522 -55.8792L241.401 -49.2614L243.156 -42.64L244.788 -36.0171L246.299 -29.3949L247.687 -22.7754L248.954 -16.1608L250.101 -9.55319L251.128 -2.9546L252.036 3.63293L252.826 10.2074L253.497 16.7667L254.052 23.309L254.491 29.8322L254.814 36.3345L255.023 42.8139L255.118 49.2685L255.101 55.6965L254.972 62.096L254.733 68.4652L254.383 74.8024L253.926 81.1057L253.36 87.3735L252.689 93.604L251.912 99.7954L251.03 105.946L250.046 112.055L248.96 118.12L247.773 124.139L246.487 130.111L245.103 136.035L243.622 141.908L242.045 147.731L240.374 153.5L238.61 159.215L236.754 164.874L234.808 170.476L232.774 176.02L230.652 181.504L228.444 186.928L226.151 192.289L223.775 197.587L221.318 202.82L218.78 207.988L216.164 213.089L213.47 218.122L210.701 223.086L207.858 227.98L204.942 232.804L201.955 237.556L198.899 242.234L195.775 246.84L192.584 251.371L189.329 255.826L186.01 260.206L182.63 264.508L179.19 268.733L175.691 272.88L172.136 276.948L168.526 280.936L164.862 284.844L161.146 288.671L157.381 292.416L153.566 296.08L149.705 299.662L145.798 303.161L141.848 306.576L137.855 309.908L133.822 313.156L129.751 316.319L125.642 319.398L121.498 322.392L117.32 325.301L113.109 328.125L108.868 330.863L104.598 333.515L100.301 336.082L95.9776 338.562L91.6303 340.957L87.2605 343.265L82.8696 345.488L78.4594 347.624L74.0314 349.675L69.5872 351.639L65.1283 353.518L60.6563 355.311L56.1727 357.018L51.6791 358.64L47.177 360.177L42.6679 361.628L38.1534 362.995L33.6349 364.278L29.1139 365.476L24.5919 366.591L20.0703 367.622L15.5507 368.57L11.0343 369.435L6.52277 370.219L2.01735 370.92L-2.48051 371.54L-6.96942 372.079L-11.448 372.537L-15.915 372.916L-20.3689 373.215L-24.8086 373.436L-29.2326 373.579L-33.6397 373.644L-38.0287 373.632L-42.3982 373.544L-46.747 373.381L-51.0739 373.142L-55.3777 372.83L-59.6572 372.444L-63.9113 371.985L-68.1387 371.455L-72.3384 370.853L-76.5093 370.181L-80.6501 369.439L-84.76 368.629L-88.8377 367.751L-92.8824 366.806L-96.8928 365.794L-100.868 364.718L-104.807 363.577L-108.709 362.372L-112.573 361.105L-116.399 359.777L-120.184 358.388L-123.928 356.939L-127.631 355.431L-131.292 353.866L-134.909 352.243L-138.482 350.566L-142.011 348.833L-145.494 347.047L-148.93 345.208L-152.32 343.317L-155.661 341.376L-158.955 339.385L-162.199 337.345L-165.394 335.258L-168.538 333.125L-171.632 330.947L-174.674 328.724L-177.664 326.458L-180.602 324.15L-183.487 321.801L-186.318 319.413L-189.095 316.985L-191.818 314.52L-194.487 312.019L-197.1 309.482L-199.657 306.91L-202.159 304.306L-204.604 301.669L-206.993 299.002L-209.325 296.305L-211.6 293.579L-213.818 290.825L-215.978 288.045L-218.08 285.24L-220.124 282.41L-222.111 279.557L-224.038 276.682L-225.908 273.787L-227.719 270.871L-229.471 267.937L-231.165 264.985L-232.8 262.017L-234.376 259.033L-235.894 256.035L-237.352 253.024L-238.752 250.001L-240.094 246.966L-241.376 243.922L-242.6 240.868L-243.766 237.807L-244.874 234.739L-245.923 231.665L-246.914 228.586L-247.847 225.504L-248.723 222.419L-249.541 219.332L-250.302 216.244L-251.007 213.157L-251.654 210.071L-252.245 206.987L-252.779 203.907L-253.258 200.831L-253.681 197.76L-254.049 194.695L-254.362 191.637L-254.621 188.587L-254.826 185.546L-254.976 182.514L-255.074 179.494L-255.118 176.485L-255.11 173.488L-255.05 170.505L-254.938 167.535L-254.776 164.581L-254.562 161.642L-254.299 158.72L-253.986 155.816L-253.623 152.929L-253.212 150.062L-252.754 147.214L-252.247 144.387L-251.694 141.581L-251.094 138.796L-250.449 136.035L-249.758 133.296L-249.023 130.582L-248.244 127.893L-247.422 125.228L-246.557 122.59L-245.65 119.978L-244.701 117.394L-243.712 114.837L-242.683 112.309L-241.614 109.809L-240.506 107.34L-239.361 104.9L-238.178 102.491L-236.958 100.113L-235.702 97.7663L-234.411 95.452L-233.086 93.1703L-231.726 90.9216L-230.334 88.7064L-228.909 86.5251L-227.453 84.3781L-225.965 82.2658L-224.447 80.1887L-222.9 78.147L-221.325 76.1412L-219.721 74.1715L-218.09 72.2384L-216.432 70.342L-214.749 68.4828L-213.041 66.6609L-211.309 64.8768L-209.553 63.1305L-207.775 61.4225L-205.975 59.7528L-204.154 58.1217L-202.312 56.5294L-200.451 54.9761L-198.571 53.4619L-196.673 51.9871L-194.757 50.5517L-192.825 49.1559L-190.877 47.7998L-188.914 46.4834L-186.937 45.207L-184.947 43.9705L-182.943 42.774L-180.928 41.6176L-178.901 40.5013L-176.864 39.4251L-174.817 38.389L-172.761 37.393L-170.697 36.4371L-168.625 35.5213L-166.546 34.6455L-164.461 33.8096L-162.371 33.0137L-160.276 32.2576L-158.177 31.5412L-156.075 30.8644L-153.97 30.2271L-151.864 29.6291L-149.756 29.0704L-147.648 28.5508L-145.54 28.0701L-143.433 27.6281L-141.328 27.2247L-139.224 26.8596L-137.124 26.5327L-135.027 26.2438L-132.934 25.9925L-130.847 25.7787L-128.764 25.6021L-126.688 25.4625L-124.618 25.3596L-122.555 25.2931L-120.501 25.2628L-118.455 25.2682L-116.418 25.3092L-114.39 25.3855L-112.373 25.4966L-110.367 25.6423L-108.372 25.8222L-106.388 26.0361L-104.418 26.2834L-102.46 26.5639L-100.515 26.8772L-98.5849 27.2229L-96.669 27.6007L-94.7679 28.0101L-92.8824 28.4507L-91.0127 28.9222L-89.1594 29.4241L-87.323 29.956L-85.5039 30.5175L-83.7025 31.1082L-81.9192 31.7275L-80.1546 32.3752L-78.4089 33.0507L-76.6826 33.7535L-74.9761 34.4833L-73.2897 35.2395L-71.6239 36.0217L-69.979 36.8295L-68.3553 37.6623L-66.7533 38.5196L-65.1731 39.401L-63.6152 40.3061L-62.0798 41.2342L-60.5673 42.185L-59.0779 43.1579L-57.612 44.1524L-56.1698 45.168L-54.7516 46.2042L-53.3575 47.2605L-51.988 48.3365L-50.6431 49.4315L-49.3232 50.5451L-48.0284 51.6767L-46.759 52.8259L-45.515 53.9921L-44.2968 55.1749L-43.1045 56.3736L-41.9383 57.5877L-40.7982 58.8169L-39.6846 60.0604L-38.5974 61.3179L-37.5368 62.5887L-36.503 63.8724L-35.496 65.1684L-34.5159 66.4763L-33.5629 67.7955L-32.6369 69.1254L-31.7381 70.4656L-30.8666 71.8156L-30.0224 73.1747L-29.2054 74.5426L-28.4158 75.9187L-27.6536 77.3025L-26.9188 78.6935L-26.2114 80.0911L-25.5313 81.495L-24.8787 82.9044L-24.2534 84.3191L-23.6554 85.7384L-23.0847 87.1619L-22.5412 88.5891L-22.025 90.0194L-21.5358 91.4525L-21.0737 92.8877L-20.6386 94.3248L-20.2303 95.7631L-19.8488 97.2021L-19.494 98.6415L-19.1658 100.081L-18.864 101.519L-18.5886 102.957L-18.3393 104.393L-18.1161 105.827L-17.9188 107.259L-17.7473 108.688L-17.6013 110.113L-17.4807 111.535L-17.3854 112.953L-17.3151 114.366L-17.2697 115.774L-17.249 117.177L-17.2527 118.574L-17.2808 119.965L-17.3328 121.349L-17.4087 122.727L-17.5082 124.097L-17.631 125.459L-17.777 126.813L-17.9459 128.159L-18.1374 129.495L-18.3513 130.823L-18.5874 132.141L-18.8453 133.449L-19.1249 134.747L-19.4257 136.035L-19.7476 137.311L-20.0903 138.577L-20.4535 139.831L-20.8369 141.073L-21.2402 142.303L-21.6631 143.52L-22.1053 144.725L-22.5665 145.917L-23.0464 147.096L-23.5446 148.261L-24.061 149.412L-24.5951 150.55L-25.1466 151.673L-25.7152 152.781L-26.3006 153.875L-26.9024 154.954L-27.5204 156.018L-28.1541 157.066L-28.8032 158.099L-29.4675 159.116L-30.1465 160.117L-30.84 161.101L-31.5475 162.07L-32.2687 163.022L-33.0034 163.957L-33.751 164.875L-34.5114 165.776L-35.284 166.66L-36.0687 167.527L-36.865 168.376L-37.6725 169.208L-38.491 170.022L-39.32 170.819L-40.1592 171.597L-41.0083 172.357L-41.8669 173.1L-42.7346 173.824L-43.6111 174.53L-44.496 175.217L-45.389 175.886L-46.2897 176.537L-47.1977 177.169L-48.1128 177.783L-49.0345 178.378L-49.9625 178.955L-50.8965 179.512L-51.8361 180.051L-52.7809 180.572L-53.7307 181.074L-54.685 181.557L-55.6435 182.021L-56.6058 182.467L-57.5717 182.894L-58.5408 183.302L-59.5127 183.691L-60.4872 184.063L-61.4638 184.415L-62.4423 184.749L-63.4223 185.065L-64.4034 185.362L-65.3855 185.64L-66.3681 185.901L-67.3509 186.143L-68.3336 186.367L-69.3159 186.573L-70.2974 186.761L-71.278 186.932L-72.2571 187.084L-73.2347 187.219L-74.2103 187.336L-75.1837 187.435L-76.1545 187.518L-77.1225 187.583L-78.0874 187.631L-79.0489 187.662L-80.0067 187.676L-80.9606 187.673L-81.9103 187.654L-82.8554 187.619L-83.7958 187.567L-84.7312 187.499L-85.6613 187.415L-86.5859 187.315L-87.5047 187.2L-88.4174 187.069L-89.3239 186.923L-90.2238 186.762L-91.1171 186.586L-92.0033 186.395L-92.8824 186.19L-93.754 185.97L-94.618 185.736L-95.4741 185.488L-96.3222 185.226L-97.162 184.951L-97.9933 184.662L-98.816 184.36L-99.6298 184.045L-100.435 183.718L-101.23 183.377L-102.016 183.025L-102.793 182.66L-103.56 182.284L-104.317 181.895L-105.064 181.496L-105.8 181.085L-106.527 180.663L-107.242 180.23L-107.947 179.787L-108.642 179.333L-109.325 178.87L-109.998 178.396L-110.659 177.913L-111.309 177.421L-111.947 176.919L-112.574 176.409L-113.189 175.89L-113.793 175.362L-114.385 174.826L-114.965 174.283L-115.533 173.731L-116.088 173.172L-116.632 172.606L-117.164 172.033L-117.683 171.454L-118.19 170.867L-118.684 170.275L-119.166 169.676L-119.636 169.072L-120.092 168.462L-120.537 167.847L-120.968 167.227L-121.387 166.603L-121.794 165.973L-122.187 165.34L-122.568 164.702L-122.936 164.06L-123.292 163.415L-123.634 162.767L-123.964 162.115L-124.281 161.461L-124.585 160.804L-124.877 160.144L-125.156 159.483L-125.422 158.819L-125.675 158.154L-125.916 157.487L-126.144 156.819L-126.359 156.15L-126.562 155.48L-126.752 154.809L-126.93 154.138L-127.096 153.467L-127.249 152.796L-127.389 152.126L-127.518 151.455L-127.634 150.786L-127.738 150.117L-127.83 149.45L-127.91 148.784L-127.978 148.119L-128.034 147.456L-128.079 146.795L-128.111 146.136L-128.133 145.48L-128.142 144.826L-128.14 144.175L-128.127 143.526L-128.103 142.881L-128.068 142.239L-128.021 141.6L-127.964 140.965L-127.896 140.334L-127.817 139.707L-127.728 139.083L-127.628 138.464L-127.518 137.85L-127.398 137.24L-127.268 136.635L-127.127 136.035L-126.977 135.44L-126.818 134.85L-126.648 134.265L-126.47 133.686L-126.282 133.113L-126.084 132.545L-125.878 131.983L-125.663 131.428L-125.439 130.878L-125.207 130.335L-124.966 129.798L-124.717 129.268L-124.46 128.744L-124.195 128.228L-123.922 127.718L-123.642 127.215L-123.354 126.719L-123.058 126.23L-122.756 125.749L-122.446 125.274L-122.129 124.808L-121.806 124.349L-121.476 123.897L-121.14 123.454L-120.798 123.018L-120.449 122.59L-120.095 122.169L-119.734 121.757L-119.369 121.353L-118.997 120.957L-118.621 120.569L-118.239 120.19L-117.853 119.819L-117.462 119.456L-117.066 119.101L-116.665 118.755L-116.261 118.418L-115.852 118.089L-115.44 117.768L-115.023 117.456L-114.604 117.153L-114.18 116.858L-113.754 116.572L-113.324 116.295L-112.891 116.026L-112.456 115.766L-112.018 115.514L-111.577 115.272L-111.135 115.038L-110.69 114.813L-110.243 114.596L-109.794 114.388L-109.344 114.189L-108.892 113.999L-108.439 113.817L-107.985 113.644L-107.529 113.48L-107.073 113.324L-106.616 113.177L-106.159 113.039L-105.701 112.909L-105.243 112.787L-104.785 112.675L-104.327 112.57L-103.869 112.474L-103.411 112.386L-102.954 112.307L-102.498 112.236L-102.042 112.173L-101.587 112.119L-101.133 112.072L-100.681 112.034L-100.229 112.003L-99.7797 111.981L-99.3314 111.966L-98.8849 111.96L-98.4402 111.961L-97.9975 111.97L-97.5568 111.987L-97.1184 112.011L-96.6824 112.042L-96.2488 112.081L-95.8177 112.128L-95.3894 112.182L-94.9639 112.243L-94.5413 112.311L-94.1217 112.386L-93.7053 112.468L-93.2922 112.557L-92.8824 112.653L-92.476 112.755L-92.0732 112.864L-91.6741 112.98L-91.2787 113.102L-90.8872 113.23L-90.4997 113.365L-90.1161 113.506L-89.7367 113.653L-89.3615 113.805L-88.9907 113.964L-88.6242 114.128L-88.2621 114.298L-87.9046 114.474L-87.5517 114.655L-87.2035 114.841L-86.8601 115.033L-86.5215 115.229L-86.1878 115.431L-85.8591 115.638L-85.5354 115.849L-85.2168 116.065L-84.9034 116.286L-84.5951 116.511L-84.2922 116.741L-83.9945 116.975L-83.7022 117.213L-83.4153 117.455L-83.1339 117.701L-82.858 117.95L-82.5877 118.204L-82.3229 118.461L-82.0638 118.721L-81.8103 118.985L-81.5626 119.252L-81.3205 119.523L-81.0842 119.796L-80.8537 120.072L-80.629 120.351L-80.4102 120.633L-80.1972 120.917L-79.99 121.204L-79.7888 121.493L-79.5935 121.784L-79.404 122.078L-79.2206 122.373L-79.043 122.67L-78.8714 122.969L-78.7057 123.27L-78.546 123.572L-78.3923 123.876L-78.2445 124.181L-78.1026 124.488L-77.9667 124.795L-77.8368 125.103L-77.7127 125.413L-77.5946 125.723L-77.4824 126.034L-77.3761 126.345L-77.2757 126.657L-77.1811 126.97L-77.0924 127.282L-77.0095 127.595L-76.9324 127.908L-76.861 128.221L-76.7954 128.533L-76.7356 128.846L-76.6814 129.158L-76.6329 129.47L-76.59 129.781L-76.5527 130.091L-76.521 130.401L-76.4948 130.71L-76.4741 131.018L-76.4588 131.325L-76.4489 131.631L-76.4444 131.936L-76.4452 132.24L-76.4513 132.542L-76.4626 132.843L-76.4791 133.142L-76.5008 133.44L-76.5275 133.736L-76.5592 134.031L-76.5959 134.323L-76.6375 134.614L-76.684 134.902L-76.7353 135.189L-76.7914 135.473L-76.8521 135.755L-76.9175 136.035L-76.9875 136.312L-77.062 136.587L-77.1409 136.86L-77.2242 137.13L-77.3119 137.397L-77.4038 137.662L-77.4999 137.923L-77.6001 138.183L-77.7044 138.439L-77.8127 138.692L-77.9249 138.942L-78.041 139.189L-78.1609 139.433L-78.2844 139.674" stroke="black"/>
 </g>
</svg>
