<?xml version="1.0" encoding="utf-8"?>
<svg xmlns="http://www.w3.org/2000/svg" fill="none" version="1.1" viewBox="-240.313 -379.425 480.627 758.85" x="-240.313pt" y="-379.425pt" width="480.627pt" height="758.85pt" stroke-width="0.566929" stroke-miterlimit="10.000000">
 <path d="M144.353 -351.496L239.313 -351.496L239.313 -378.425L144.353 -378.425Z" fill="black"/>
 <path d="M192.258 -357.165L192.825 -357.165"/>
 <g transform="matrix(1.000000,-0.000000,-0.000000,1.000000,192.541634,-357.165354)">
  <path d="M-40.4207 -0M-30.8333 -6.75664C-31.2672 -5.70286 -32.0317 -3.8019 -32.197 -3.07872L-32.2177 -3.07872C-32.4036 -3.82257 -33.2508 -5.86816 -33.6847 -6.96327L-36.3295 -13.4926C-36.6808 -14.3398 -37.342 -14.3398 -37.7139 -14.3398L-39.4289 -14.3398C-40.1727 -14.3398 -40.4207 -14.1125 -40.4207 -13.348L-40.4207 -0.991801C-40.4207 -0.24795 -40.1934 -0 -39.4289 -0L-38.871 -0C-38.0858 -0 -37.8792 -0.268613 -37.8792 -0.991801L-37.8792 -11.6743L-37.8585 -11.6743C-37.6313 -10.7445 -36.7014 -8.45097 -36.2055 -7.23188L-33.8087 -1.34306C-33.4368 -0.454575 -32.9409 -0.454575 -32.2383 -0.454575C-31.5358 -0.454575 -31.0399 -0.454575 -30.668 -1.34306L-28.0232 -7.8311C-27.8166 -8.327 -26.7008 -11.1371 -26.5561 -11.6743L-26.5355 -11.6743L-26.5355 -0.991801C-26.5355 -0.3306 -26.3908 -0 -25.5437 -0L-24.9858 -0C-24.2006 -0 -23.994 -0.268613 -23.994 -0.991801L-23.994 -13.348C-23.994 -14.0092 -24.1386 -14.3398 -24.9858 -14.3398L-26.7214 -14.3398C-27.238 -14.3398 -27.7546 -14.2985 -28.1058 -13.4513ZM-28.1058 -13.4513" fill="#fff"/>
 </g>
 <g transform="matrix(1.000000,-0.000000,-0.000000,1.000000,192.541634,-357.165354)">
  <path d="M-20.2172 -0M-10.6298 -6.75664C-11.0637 -5.70286 -11.8283 -3.8019 -11.9936 -3.07872L-12.0142 -3.07872C-12.2002 -3.82257 -13.0473 -5.86816 -13.4813 -6.96327L-16.1261 -13.4926C-16.4773 -14.3398 -17.1385 -14.3398 -17.5104 -14.3398L-19.2254 -14.3398C-19.9693 -14.3398 -20.2172 -14.1125 -20.2172 -13.348L-20.2172 -0.991801C-20.2172 -0.24795 -19.9899 -0 -19.2254 -0L-18.6675 -0C-17.8824 -0 -17.6757 -0.268613 -17.6757 -0.991801L-17.6757 -11.6743L-17.6551 -11.6743C-17.4278 -10.7445 -16.498 -8.45097 -16.0021 -7.23188L-13.6052 -1.34306C-13.2333 -0.454575 -12.7374 -0.454575 -12.0349 -0.454575C-11.3324 -0.454575 -10.8364 -0.454575 -10.4645 -1.34306L-7.81972 -7.8311C-7.6131 -8.327 -6.49732 -11.1371 -6.35268 -11.6743L-6.33202 -11.6743L-6.33202 -0.991801C-6.33202 -0.3306 -6.18738 -0 -5.34022 -0L-4.78233 -0C-3.99716 -0 -3.79053 -0.268613 -3.79053 -0.991801L-3.79053 -13.348C-3.79053 -14.0092 -3.93517 -14.3398 -4.78233 -14.3398L-6.51798 -14.3398C-7.03455 -14.3398 -7.55111 -14.2985 -7.90237 -13.4513ZM-7.90237 -13.4513" fill="#fff"/>
 </g>
 <g transform="matrix(1.000000,-0.000000,-0.000000,1.000000,192.541634,-357.165354)">
  <path d="M-1.02624 -0M7.89997 -13.4513C7.59003 -14.3398 6.99082 -14.3398 6.57757 -14.3398L4.75927 -14.3398C4.34602 -14.3398 3.7468 -14.3398 3.43686 -13.4513L-0.922928 -0.971138C-1.02624 -0.702526 -1.02624 -0.661201 -1.02624 -0.557888C-1.02624 -0 -0.509677 -0 -0.220402 -0L0.523449 -0C0.895374 -0 1.53591 -0 1.82519 -0.826501L2.63103 -3.12004L8.35454 -3.12004L9.05707 -1.13644C9.30502 -0.41325 9.44966 -0 10.4415 -0L11.5572 -0C11.8465 -0 12.3631 -0 12.3631 -0.557888C12.3631 -0.661201 12.3631 -0.702526 12.2598 -0.971138ZM12.2598 -0.971138M4.7386 -9.27747C5.04854 -10.1866 5.31715 -10.9718 5.48245 -11.7156L5.50312 -11.7156C5.60643 -11.2197 5.60643 -11.1784 5.77173 -10.7032L7.73467 -4.89702L3.2509 -4.89702ZM3.2509 -4.89702" fill="#fff"/>
 </g>
 <g transform="matrix(1.000000,-0.000000,-0.000000,1.000000,192.541634,-357.165354)">
  <path d="M13.8876 -0M25.8512 -2.95474C25.8512 -3.12004 25.7065 -3.20269 25.6239 -3.20269C25.128 -3.20269 24.5288 -1.85963 21.6154 -1.85963C17.9788 -1.85963 16.9456 -4.09118 16.9456 -7.19056C16.9456 -10.2693 18.0614 -12.5008 21.4501 -12.5008C23.289 -12.5008 24.2602 -11.7776 24.8181 -11.3231C24.942 -11.2197 25.004 -11.1371 25.1487 -11.1371C25.2313 -11.1371 25.3346 -11.2404 25.3553 -11.3231L25.7685 -13.6166C25.7892 -13.6993 25.7685 -13.7819 25.6032 -13.8439C24.3841 -14.2985 23.1237 -14.5877 21.512 -14.5877C16.4704 -14.5877 13.8876 -12.1289 13.8876 -7.21122C13.8876 -2.1489 16.5117 0.206625 21.5327 0.206625C23.289 0.206625 24.3841 -0.041325 25.8925 -0.971138C26.0578 -1.07445 26.0165 -1.21909 26.0165 -1.21909ZM26.0165 -1.21909" fill="#fff"/>
 </g>
 <g transform="matrix(1.000000,-0.000000,-0.000000,1.000000,192.541634,-357.165354)">
  <path d="M28.0162 -0M36.9424 -13.4513C36.6325 -14.3398 36.0333 -14.3398 35.62 -14.3398L33.8017 -14.3398C33.3885 -14.3398 32.7893 -14.3398 32.4793 -13.4513L28.1195 -0.971138C28.0162 -0.702526 28.0162 -0.661201 28.0162 -0.557888C28.0162 -0 28.5328 -0 28.8221 -0L29.5659 -0C29.9378 -0 30.5784 -0 30.8676 -0.826501L31.6735 -3.12004L37.397 -3.12004L38.0995 -1.13644C38.3475 -0.41325 38.4921 -0 39.4839 -0L40.5997 -0C40.889 -0 41.4055 -0 41.4055 -0.557888C41.4055 -0.661201 41.4055 -0.702526 41.3022 -0.971138ZM41.3022 -0.971138M33.7811 -9.27747C34.091 -10.1866 34.3596 -10.9718 34.5249 -11.7156L34.5456 -11.7156C34.6489 -11.2197 34.6489 -11.1784 34.8142 -10.7032L36.7771 -4.89702L32.2934 -4.89702ZM32.2934 -4.89702" fill="#fff"/>
 </g>
 <path d="M192.258 -331.654L192.825 -331.654"/>
 <g transform="matrix(1.000000,-0.000000,-0.000000,1.000000,192.541634,-331.653543)">
  <path d="M-25.3378 -0M-21.9951 -5.40852L-20.374 -5.40852C-20.7614 -3.80174 -21.0053 -2.75447 -21.0053 -1.60677C-21.0053 -1.40593 -21.0053 0.143462 -20.4171 0.143462C-20.1158 0.143462 -19.8576 -0.129116 -19.8576 -0.373001C-19.8576 -0.444732 -19.8576 -0.473424 -19.958 -0.688617C-20.3453 -1.6785 -20.3453 -2.91228 -20.3453 -3.0127C-20.3453 -3.09878 -20.3453 -4.11736 -20.0441 -5.40852L-18.4373 -5.40852C-18.2508 -5.40852 -17.7774 -5.40852 -17.7774 -5.86759C-17.7774 -6.18321 -18.0499 -6.18321 -18.3082 -6.18321L-23.0281 -6.18321C-23.358 -6.18321 -23.8458 -6.18321 -24.5057 -5.48025C-24.8787 -5.06421 -25.3378 -4.30386 -25.3378 -4.21778C-25.3378 -4.1317 -25.2661 -4.10301 -25.18 -4.10301C-25.0796 -4.10301 -25.0652 -4.14605 -24.9935 -4.23213C-24.2475 -5.40852 -23.5015 -5.40852 -23.1428 -5.40852L-22.3251 -5.40852C-22.6407 -4.33255 -22.9994 -3.08443 -24.1758 -0.573848C-24.2905 -0.344309 -24.2905 -0.315616 -24.2905 -0.229539C-24.2905 0.071731 -24.0323 0.143462 -23.9032 0.143462C-23.4871 0.143462 -23.3724 -0.229539 -23.2002 -0.832079C-22.9707 -1.56374 -22.9707 -1.59243 -22.8272 -2.16628ZM-22.8272 -2.16628" fill="black"/>
 </g>
 <g transform="matrix(1.000000,-0.000000,-0.000000,1.000000,192.541634,-331.653543)">
  <path d="M-11.7706 -0M-6.37645 -10.2432C-6.30472 -10.4297 -6.30472 -10.4584 -6.30472 -10.4871C-6.30472 -10.6736 -6.44818 -10.7596 -6.56295 -10.7596C-6.74945 -10.7596 -6.79249 -10.6305 -6.86422 -10.444L-11.6989 3.07009C-11.7706 3.25659 -11.7706 3.28528 -11.7706 3.31397C-11.7706 3.47178 -11.6559 3.58655 -11.498 3.58655C-11.3115 3.58655 -11.2685 3.44309 -11.2111 3.28528ZM-11.2111 3.28528" fill="black"/>
 </g>
 <g transform="matrix(1.000000,-0.000000,-0.000000,1.000000,192.541634,-331.653543)">
  <path d="M0.466137 -0M3.29234 -9.19591C3.29234 -9.52587 3.29234 -9.54022 3.00541 -9.54022C2.66111 -9.15287 1.9438 -8.62206 0.466137 -8.62206L0.466137 -8.20602C0.7961 -8.20602 1.51341 -8.20602 2.30245 -8.57903L2.30245 -1.10466C2.30245 -0.588194 2.25941 -0.41604 0.996947 -0.41604L0.552215 -0.41604L0.552215 -0C0.939562 -0.0286924 2.33114 -0.0286924 2.80457 -0.0286924C3.27799 -0.0286924 4.65523 -0.0286924 5.04257 -0L5.04257 -0.41604L4.59784 -0.41604C3.33538 -0.41604 3.29234 -0.588194 3.29234 -1.10466ZM3.29234 -1.10466" fill="black"/>
 </g>
 <g transform="matrix(1.000000,-0.000000,-0.000000,1.000000,192.541634,-331.653543)">
  <path d="M6.7724 -0M10.4594 -5.17898C11.1767 -5.56632 12.224 -6.22625 12.224 -7.43133C12.224 -8.67945 11.0189 -9.54022 9.69902 -9.54022C8.27875 -9.54022 7.15975 -8.49295 7.15975 -7.18744C7.15975 -6.69967 7.30321 -6.2119 7.7049 -5.72413C7.86271 -5.53763 7.87706 -5.52329 8.88129 -4.82032C7.48971 -4.17474 6.7724 -3.21355 6.7724 -2.16628C6.7724 -0.645579 8.22137 0.30127 9.68468 0.30127C11.2771 0.30127 12.6113 -0.875118 12.6113 -2.38147C12.6113 -3.84478 11.5784 -4.49036 10.4594 -5.17898ZM10.4594 -5.17898M8.50829 -6.47013C8.32179 -6.59925 7.74794 -6.97225 7.74794 -7.67521C7.74794 -8.60772 8.72348 -9.19591 9.68468 -9.19591C10.7176 -9.19591 11.6358 -8.44991 11.6358 -7.41698C11.6358 -6.54187 11.0045 -5.8389 10.1724 -5.37982ZM10.1724 -5.37982M9.18256 -4.61948L10.9185 -3.48613C11.2915 -3.24224 11.9514 -2.79751 11.9514 -1.92239C11.9514 -0.832079 10.8467 -0.0860772 9.69902 -0.0860772C8.4796 -0.0860772 7.43233 -0.975541 7.43233 -2.16628C7.43233 -3.28528 8.25006 -4.18909 9.18256 -4.61948ZM9.18256 -4.61948" fill="black"/>
 </g>
 <g transform="matrix(1.000000,-0.000000,-0.000000,1.000000,192.541634,-331.653543)">
  <path d="M13.796 -0M19.6349 -4.59078C19.6349 -5.78152 19.5631 -6.94356 19.0467 -8.03387C18.4585 -9.2246 17.4256 -9.54022 16.7226 -9.54022C15.8905 -9.54022 14.8719 -9.12418 14.3411 -7.93345C13.9394 -7.02964 13.796 -6.14017 13.796 -4.59078C13.796 -3.1992 13.8964 -2.15193 14.4129 -1.13335C14.9724 -0.0430386 15.9622 0.30127 16.7083 0.30127C17.9564 0.30127 18.6737 -0.444732 19.0897 -1.27681C19.6062 -2.35278 19.6349 -3.7587 19.6349 -4.59078ZM19.6349 -4.59078M16.7083 0.0143462C16.2492 0.0143462 15.3167 -0.243885 15.0441 -1.80762C14.8863 -2.66839 14.8863 -3.7587 14.8863 -4.76294C14.8863 -5.93933 14.8863 -7.00094 15.1158 -7.84737C15.3597 -8.80856 16.0914 -9.2533 16.7083 -9.2533C17.2534 -9.2533 18.0855 -8.92333 18.3581 -7.68956C18.5446 -6.87183 18.5446 -5.73848 18.5446 -4.76294C18.5446 -3.80174 18.5446 -2.71143 18.3868 -1.83631C18.1142 -0.258232 17.2104 0.0143462 16.7083 0.0143462ZM16.7083 0.0143462" fill="black"/>
 </g>
 <g transform="matrix(1.000000,-0.000000,-0.000000,1.000000,192.541634,-331.653543)">
  <path d="M20.7793 -5.20611M24.6548 -7.69677C24.6548 -8.76277 23.7681 -9.62952 22.722 -9.62952C21.646 -9.62952 20.7793 -8.74285 20.7793 -7.69677C20.7793 -6.64073 21.646 -5.76402 22.722 -5.76402C23.7681 -5.76402 24.6548 -6.63077 24.6548 -7.69677ZM24.6548 -7.69677M22.722 -6.16252C21.8553 -6.16252 21.1778 -6.85991 21.1778 -7.69677C21.1778 -8.53363 21.8652 -9.23102 22.722 -9.23102C23.5489 -9.23102 24.2563 -8.55356 24.2563 -7.69677C24.2563 -6.83998 23.5489 -6.16252 22.722 -6.16252ZM22.722 -6.16252" fill="black"/>
 </g>
 <g stroke-linecap="round" stroke-linejoin="round">
  <path d="M-85.6404 195.09L-239.313 -378.425" stroke="black"/>
 </g>
 <g stroke-linecap="butt" stroke-linejoin="round" stroke-dasharray="2.000000" stroke-dashoffset="0.000000">
  <path d="M-85.6404 195.09L-85.6404 -344.634" stroke="black"/>
 </g>
 <g stroke-linecap="round" stroke-linejoin="round">
  <path d="M-85.6404 195.09L41.3406 -278.81" stroke="black"/>
 </g>
 <g stroke-linecap="butt" stroke-linejoin="round" stroke-dasharray="2.000000" stroke-dashoffset="0.000000">
  <path d="M-85.6404 195.09L137.349 -191.139" stroke="black"/>
 </g>
 <g stroke-linecap="round" stroke-linejoin="round">
  <path d="M-85.6404 195.09L201.021 -91.5718" stroke="black"/>
 </g>
 <g stroke-linecap="butt" stroke-linejoin="round" stroke-dasharray="2.000000" stroke-dashoffset="0.000000">
  <path d="M-85.6404 195.09L233.503 10.8322" stroke="black"/>
 </g>
 <g stroke-linecap="round" stroke-linejoin="round">
  <path d="M-85.6404 195.09L237.931 108.389" stroke="black"/>
 </g>
 <g stroke-linecap="butt" stroke-linejoin="round" stroke-dasharray="2.000000" stroke-dashoffset="0.000000">
  <path d="M-85.6404 195.09L218.866 195.09" stroke="black"/>
 </g>
 <g stroke-linecap="round" stroke-linejoin="round">
  <path d="M-85.6404 195.09L181.729 266.731" stroke="black"/>
 </g>
 <g stroke-linecap="butt" stroke-linejoin="round" stroke-dasharray="2.000000" stroke-dashoffset="0.000000">
  <path d="M-85.6404 195.09L132.266 320.898" stroke="black"/>
 </g>
 <g stroke-linecap="round" stroke-linejoin="round">
  <path d="M-85.6404 195.09L76.091 356.821" stroke="black"/>
 </g>
 <g stroke-linecap="butt" stroke-linejoin="round" stroke-dasharray="2.000000" stroke-dashoffset="0.000000">
  <path d="M-85.6404 195.09L18.3157 375.147" stroke="black"/>
 </g>
 <g stroke-linecap="round" stroke-linejoin="round">
  <path d="M-85.6404 195.09L-36.7248 377.645" stroke="black"/>
 </g>
 <g stroke-linecap="butt" stroke-linejoin="round" stroke-dasharray="2.000000" stroke-dashoffset="0.000000">
  <path d="M-85.6404 195.09L-85.6404 366.889" stroke="black"/>
 </g>
 <g stroke-linecap="round" stroke-linejoin="round">
  <path d="M-85.6404 195.09L-126.06 345.937" stroke="black"/>
 </g>
 <g stroke-linecap="butt" stroke-linejoin="round" stroke-dasharray="2.000000" stroke-dashoffset="0.000000">
  <path d="M-85.6404 195.09L-156.62 318.03" stroke="black"/>
 </g>
 <g stroke-linecap="round" stroke-linejoin="round">
  <path d="M-85.6404 195.09L-176.888 286.337" stroke="black"/>
 </g>
 <g stroke-linecap="butt" stroke-linejoin="round" stroke-dasharray="2.000000" stroke-dashoffset="0.000000">
  <path d="M-85.6404 195.09L-187.227 253.741" stroke="black"/>
 </g>
 <g stroke-linecap="round" stroke-linejoin="round">
  <path d="M-85.6404 195.09L-188.636 222.687" stroke="black"/>
 </g>
 <g stroke-linecap="butt" stroke-linejoin="round" stroke-dasharray="2.000000" stroke-dashoffset="0.000000">
  <path d="M-85.6404 195.09L-182.568 195.09" stroke="black"/>
 </g>
 <g stroke-linecap="round" stroke-linejoin="round">
  <path d="M-85.6404 195.09L-170.747 172.286" stroke="black"/>
 </g>
 <g stroke-linecap="butt" stroke-linejoin="round" stroke-dasharray="2.000000" stroke-dashoffset="0.000000">
  <path d="M-85.6404 195.09L-155.002 155.044" stroke="black"/>
 </g>
 <g stroke-linecap="round" stroke-linejoin="round">
  <path d="M-85.6404 195.09L-137.121 143.609" stroke="black"/>
 </g>
 <g stroke-linecap="butt" stroke-linejoin="round" stroke-dasharray="2.000000" stroke-dashoffset="0.000000">
  <path d="M-85.6404 195.09L-118.731 137.776" stroke="black"/>
 </g>
 <g stroke-linecap="round" stroke-linejoin="round">
  <path d="M-85.6404 195.09L-101.211 136.98" stroke="black"/>
 </g>
 <g stroke-linecap="round" stroke-linejoin="round" stroke-width="1.603518">
  <path d="M-239.313 -378.425L-228.37 -377.368L-217.516 -376.127L-206.754 -374.706L-196.087 -373.108L-185.517 -371.336L-175.045 -369.391L-164.676 -367.278L-154.411 -364.998L-144.251 -362.555L-134.2 -359.952L-124.26 -357.192L-114.432 -354.277L-104.718 -351.21L-95.12 -347.995L-85.6404 -344.634L-76.2807 -341.131L-67.0424 -337.488L-57.9273 -333.709L-48.9368 -329.796L-40.0726 -325.753L-31.3361 -321.582L-22.7286 -317.286L-14.2514 -312.87L-5.90586 -308.335L2.30687 -303.684L10.3856 -298.922L18.3294 -294.05L26.1371 -289.072L33.8078 -283.991L41.3406 -278.81L48.7346 -273.532L55.9892 -268.16L63.1035 -262.697L70.0768 -257.146L76.9087 -251.51L83.5984 -245.793L90.1456 -239.996L96.5498 -234.124L102.811 -228.178L108.928 -222.163L114.901 -216.08L120.729 -209.934L126.414 -203.726L131.953 -197.46L137.349 -191.139L142.599 -184.765L147.705 -178.341L152.666 -171.871L157.483 -165.356L162.156 -158.8L166.685 -152.206L171.07 -145.576L175.311 -138.913L179.41 -132.22L183.365 -125.499L187.179 -118.753L190.851 -111.985L194.381 -105.197L197.771 -98.3915L201.021 -91.5718L204.132 -84.7399L207.103 -77.8984L209.937 -71.0498L212.634 -64.1965L215.195 -57.341L217.62 -50.4855L219.91 -43.6324L222.067 -36.7842L224.09 -29.9429L225.982 -23.111L227.744 -16.2906L229.375 -9.48398L230.878 -2.69321L232.254 4.07955L233.503 10.8322L234.627 17.5627L235.627 24.269L236.504 30.9491L237.259 37.601L237.894 44.2229L238.411 50.8128L238.809 57.3689L239.092 63.8893L239.259 70.3724L239.313 76.8162L239.255 83.2192L239.086 89.5796L238.808 95.8957L238.423 102.166L237.931 108.389L237.334 114.563L236.634 120.687L235.833 126.758L234.931 132.777L233.931 138.741L232.834 144.648L231.641 150.499L230.355 156.29L228.977 162.022L227.508 167.693L225.951 173.301L224.306 178.846L222.576 184.327L220.762 189.741L218.866 195.09L216.89 200.37L214.835 205.583L212.702 210.725L210.495 215.797L208.213 220.799L205.86 225.728L203.437 230.584L200.945 235.367L198.386 240.075L195.763 244.709L193.076 249.267L190.327 253.748L187.519 258.153L184.652 262.481L181.729 266.731L178.751 270.903L175.72 274.996L172.638 279.009L169.506 282.944L166.327 286.798L163.101 290.572L159.83 294.266L156.517 297.88L153.163 301.412L149.769 304.863L146.337 308.233L142.87 311.521L139.367 314.728L135.832 317.854L132.266 320.898L128.669 323.86L125.045 326.741L121.395 329.54L117.719 332.258L114.021 334.894L110.3 337.449L106.56 339.923L102.8 342.316L99.0241 344.628L95.2323 346.86L91.4263 349.011L87.6077 351.083L83.778 353.075L79.9386 354.988L76.091 356.821L72.2365 358.576L68.3766 360.253L64.5127 361.852L60.6461 363.373L56.7783 364.818L52.9105 366.186L49.0441 367.478L45.1804 368.695L41.3206 369.837L37.4661 370.904L33.6181 371.898L29.7779 372.818L25.9466 373.666L22.1255 374.442L18.3157 375.147L14.5185 375.781L10.7348 376.345L6.96599 376.84L3.21303 377.266L-0.522959 377.625L-4.24092 377.916L-7.93979 378.141L-11.6186 378.3L-15.2762 378.395L-18.9118 378.425L-22.5243 378.392L-26.1127 378.297L-29.6762 378.14L-33.2139 377.923L-36.7248 377.645L-40.2082 377.309L-43.6631 376.914L-47.0887 376.461L-50.4842 375.953L-53.8489 375.388L-57.1819 374.77L-60.4826 374.097L-63.7502 373.371L-66.984 372.594L-70.1834 371.765L-73.3475 370.886L-76.476 369.958L-79.568 368.982L-82.623 367.959L-85.6404 366.889L-88.6197 365.774L-91.5604 364.615L-94.4618 363.412L-97.3236 362.166L-100.145 360.879L-102.926 359.551L-105.666 358.184L-108.364 356.778L-111.021 355.335L-113.635 353.854L-116.206 352.338L-118.735 350.788L-121.22 349.203L-123.662 347.586L-126.06 345.937L-128.413 344.257L-130.723 342.547L-132.987 340.808L-135.207 339.041L-137.381 337.247L-139.511 335.427L-141.595 333.582L-143.633 331.713L-145.626 329.82L-147.573 327.905L-149.475 325.969L-151.33 324.013L-153.139 322.037L-154.903 320.042L-156.62 318.03L-158.291 316.001L-159.917 313.956L-161.496 311.897L-163.029 309.823L-164.516 307.736L-165.958 305.637L-167.354 303.527L-168.704 301.406L-170.008 299.276L-171.268 297.136L-172.481 294.989L-173.65 292.835L-174.774 290.674L-175.853 288.508L-176.888 286.337L-177.878 284.162L-178.824 281.985L-179.726 279.805L-180.584 277.623L-181.399 275.441L-182.171 273.259L-182.9 271.077L-183.587 268.897L-184.231 266.72L-184.833 264.545L-185.394 262.374L-185.913 260.208L-186.391 258.046L-186.829 255.89L-187.227 253.741L-187.585 251.598L-187.903 249.464L-188.182 247.337L-188.423 245.22L-188.625 243.112L-188.789 241.014L-188.916 238.928L-189.006 236.852L-189.059 234.788L-189.076 232.737L-189.058 230.699L-189.004 228.675L-188.916 226.664L-188.793 224.668L-188.636 222.687L-188.446 220.722L-188.224 218.773L-187.968 216.84L-187.681 214.924L-187.363 213.026L-187.014 211.146L-186.634 209.283L-186.225 207.44L-185.786 205.615L-185.319 203.81L-184.823 202.025L-184.3 200.26L-183.749 198.516L-183.171 196.792L-182.568 195.09L-181.939 193.409L-181.285 191.75L-180.606 190.113L-179.903 188.498L-179.177 186.906L-178.428 185.337L-177.657 183.792L-176.863 182.269L-176.049 180.77L-175.214 179.295L-174.359 177.845L-173.484 176.418L-172.59 175.016L-171.677 173.638L-170.747 172.286L-169.799 170.958L-168.834 169.655L-167.853 168.377L-166.856 167.125L-165.844 165.898L-164.817 164.697L-163.776 163.521L-162.722 162.371L-161.654 161.246L-160.574 160.148L-159.481 159.075L-158.377 158.028L-157.263 157.008L-156.137 156.013L-155.002 155.044L-153.857 154.101L-152.704 153.184L-151.542 152.293L-150.372 151.428L-149.195 150.589L-148.01 149.775L-146.82 148.988L-145.623 148.226L-144.421 147.49L-143.214 146.78L-142.003 146.095L-140.787 145.435L-139.568 144.801L-138.346 144.193L-137.121 143.609L-135.894 143.05L-134.666 142.517L-133.436 142.008L-132.205 141.523L-130.974 141.064L-129.743 140.628L-128.512 140.217L-127.282 139.829L-126.053 139.466L-124.826 139.126L-123.602 138.81L-122.379 138.517L-121.16 138.247L-119.943 138L-118.731 137.776L-117.522 137.574L-116.318 137.394L-115.118 137.237L-113.923 137.101L-112.734 136.987L-111.551 136.894L-110.373 136.823L-109.202 136.772L-108.038 136.742L-106.881 136.732L-105.731 136.743L-104.589 136.773L-103.454 136.823L-102.328 136.892L-101.211 136.98L-100.102 137.088L-99.0022 137.213L-97.9118 137.357L-96.831 137.519L-95.76 137.699L-94.6991 137.896L-93.6484 138.11L-92.6083 138.341L-91.579 138.588L-90.5606 138.852L-89.5534 139.132L-88.5576 139.427L-87.5734 139.738L-86.6009 140.064L-85.6404 140.404L-84.6921 140.759L-83.7561 141.128L-82.8325 141.511L-81.9216 141.908L-81.0235 142.317L-80.1383 142.74L-79.2661 143.175L-78.4072 143.623L-77.5616 144.082L-76.7295 144.553L-75.911 145.036L-75.1061 145.529L-74.315 146.034L-73.5378 146.549L-72.7746 147.074L-72.0254 147.608L-71.2904 148.153L-70.5695 148.706L-69.863 149.269L-69.1708 149.84L-68.493 150.419L-67.8296 151.006L-67.1807 151.601L-66.5464 152.204L-65.9266 152.813L-65.3214 153.429L-64.7308 154.052L-64.1549 154.681L-63.5936 155.316L-63.0469 155.957L-62.5149 156.602L-61.9976 157.253L-61.4949 157.909L-61.0069 158.569L-60.5334 159.233L-60.0746 159.901L-59.6303 160.573L-59.2005 161.248L-58.7853 161.926L-58.3845 162.607L-57.9981 163.291L-57.626 163.977L-57.2683 164.664L-56.9248 165.354L-56.5956 166.045L-56.2804 166.737L-55.9793 167.43L-55.6921 168.124L-55.4189 168.819L-55.1595 169.513L-54.9138 170.208L-54.6817 170.902L-54.4632 171.596L-54.2581 172.289L-54.0664 172.981L-53.888 173.672L-53.7227 174.362L-53.5704 175.05L-53.431 175.736L-53.3045 176.421L-53.1906 177.102L-53.0893 177.782L-53.0004 178.459L-52.9239 179.133L-52.8595 179.804L-52.8072 180.471L-52.7668 181.136L-52.7382 181.796L-52.7212 182.453L-52.7157 183.106L-52.7216 183.755L-52.7387 184.399L-52.7669 185.039L-52.806 185.675L-52.8558 186.305L-52.9163 186.931L-52.9872 187.551L-53.0684 188.166L-53.1598 188.776L-53.2611 189.38L-53.3723 189.979L-53.4931 190.572L-53.6234 191.158L-53.763 191.739L-53.9118 192.314L-54.0696 192.882L-54.2363 193.444L-54.4116 193.999L-54.5953 194.548L-54.7875 195.09L-54.9877 195.625L-55.196 196.153L-55.412 196.674L-55.6357 197.188L-55.8668 197.695L-56.1052 198.194L-56.3508 198.686L-56.6033 199.171L-56.8625 199.648L-57.1283 200.117L-57.4006 200.579L-57.6791 201.033L-57.9636 201.479L-58.2541 201.918L-58.5503 202.348L-58.852 202.771L-59.1591 203.186L-59.4714 203.593L-59.7887 203.991L-60.1108 204.382L-60.4377 204.764L-60.769 205.138L-61.1047 205.504L-61.4446 205.862L-61.7885 206.212L-62.1362 206.553L-62.4875 206.887L-62.8424 207.212L-63.2006 207.528L-63.5619 207.837L-63.9263 208.137L-64.2935 208.429L-64.6634 208.712L-65.0358 208.988L-65.4105 209.255L-65.7875 209.514L-66.1665 209.764L-66.5474 210.007L-66.93 210.241L-67.3142 210.467L-67.6998 210.685L-68.0867 210.895L-68.4748 211.097L-68.8638 211.291L-69.2536 211.477L-69.6442 211.654L-70.0352 211.824L-70.4267 211.986L-70.8185 212.14L-71.2104 212.287L-71.6023 212.425L-71.994 212.556L-72.3855 212.68L-72.7766 212.795L-73.1671 212.903L-73.557 213.004L-73.9461 213.097L-74.3343 213.183L-74.7215 213.262L-75.1075 213.333L-75.4922 213.398L-75.8756 213.455L-76.2574 213.505L-76.6377 213.548L-77.0162 213.584L-77.3929 213.614L-77.7677 213.637L-78.1405 213.653L-78.5111 213.662L-78.8794 213.665L-79.2454 213.662L-79.609 213.652L-79.9701 213.637L-80.3285 213.615L-80.6843 213.586L-81.0372 213.552L-81.3872 213.512L-81.7343 213.466L-82.0784 213.415L-82.4193 213.358L-82.757 213.295L-83.0914 213.227L-83.4225 213.153L-83.7501 213.075L-84.0743 212.991L-84.3949 212.902L-84.7119 212.808L-85.0252 212.709L-85.3347 212.605L-85.6404 212.497L-85.9423 212.384L-86.2403 212.266L-86.5342 212.144L-86.8242 212.018L-87.1101 211.888L-87.3918 211.753L-87.6694 211.615L-87.9428 211.472L-88.212 211.326L-88.4769 211.176L-88.7374 211.022L-88.9936 210.865L-89.2454 210.705L-89.4928 210.541L-89.7358 210.374L-89.9742 210.203L-90.2082 210.03L-90.4377 209.854L-90.6626 209.675L-90.8829 209.493L-91.0986 209.309L-91.3098 209.122L-91.5164 208.932L-91.7183 208.741L-91.9156 208.547L-92.1082 208.351L-92.2962 208.152L-92.4795 207.952L-92.6582 207.75L-92.8322 207.546L-93.0015 207.341L-93.1662 207.133L-93.3262 206.925L-93.4815 206.715L-93.6323 206.503L-93.7783 206.291L-93.9197 206.077L-94.0565 205.862L-94.1887 205.646L-94.3163 205.429L-94.4393 205.212L-94.5577 204.993L-94.6716 204.774L-94.7809 204.555" stroke="black"/>
 </g>
</svg>
