<?xml version="1.0" encoding="utf-8"?>
<svg xmlns="http://www.w3.org/2000/svg" fill="none" version="1.1" viewBox="-256.118 -313.337 512.236 626.674" x="-256.118pt" y="-313.337pt" width="512.236pt" height="626.674pt" stroke-width="0.566929" stroke-miterlimit="10.000000">
 <path d="M160.157 -285.408L255.118 -285.408L255.118 -312.337L160.157 -312.337Z" fill="black"/>
 <path d="M208.063 -291.077L208.63 -291.077"/>
 <g transform="matrix(1.000000,-0.000000,-0.000000,1.000000,208.346457,-291.076961)">
  <path d="M-40.4207 -0M-30.8333 -6.75664C-31.2672 -5.70286 -32.0317 -3.8019 -32.197 -3.07872L-32.2177 -3.07872C-32.4036 -3.82257 -33.2508 -5.86816 -33.6847 -6.96327L-36.3295 -13.4926C-36.6808 -14.3398 -37.342 -14.3398 -37.7139 -14.3398L-39.4289 -14.3398C-40.1727 -14.3398 -40.4207 -14.1125 -40.4207 -13.348L-40.4207 -0.991801C-40.4207 -0.24795 -40.1934 -0 -39.4289 -0L-38.871 -0C-38.0858 -0 -37.8792 -0.268613 -37.8792 -0.991801L-37.8792 -11.6743L-37.8585 -11.6743C-37.6313 -10.7445 -36.7014 -8.45097 -36.2055 -7.23188L-33.8087 -1.34306C-33.4368 -0.454575 -32.9409 -0.454575 -32.2383 -0.454575C-31.5358 -0.454575 -31.0399 -0.454575 -30.668 -1.34306L-28.0232 -7.8311C-27.8166 -8.327 -26.7008 -11.1371 -26.5561 -11.6743L-26.5355 -11.6743L-26.5355 -0.991801C-26.5355 -0.3306 -26.3908 -0 -25.5437 -0L-24.9858 -0C-24.2006 -0 -23.994 -0.268613 -23.994 -0.991801L-23.994 -13.348C-23.994 -14.0092 -24.1386 -14.3398 -24.9858 -14.3398L-26.7214 -14.3398C-27.238 -14.3398 -27.7546 -14.2985 -28.1058 -13.4513ZM-28.1058 -13.4513" fill="#fff"/>
 </g>
 <g transform="matrix(1.000000,-0.000000,-0.000000,1.000000,208.346457,-291.076961)">
  <path d="M-20.2172 -0M-10.6298 -6.75664C-11.0637 -5.70286 -11.8283 -3.8019 -11.9936 -3.07872L-12.0142 -3.07872C-12.2002 -3.82257 -13.0473 -5.86816 -13.4813 -6.96327L-16.1261 -13.4926C-16.4773 -14.3398 -17.1385 -14.3398 -17.5104 -14.3398L-19.2254 -14.3398C-19.9693 -14.3398 -20.2172 -14.1125 -20.2172 -13.348L-20.2172 -0.991801C-20.2172 -0.24795 -19.9899 -0 -19.2254 -0L-18.6675 -0C-17.8824 -0 -17.6757 -0.268613 -17.6757 -0.991801L-17.6757 -11.6743L-17.6551 -11.6743C-17.4278 -10.7445 -16.498 -8.45097 -16.0021 -7.23188L-13.6052 -1.34306C-13.2333 -0.454575 -12.7374 -0.454575 -12.0349 -0.454575C-11.3324 -0.454575 -10.8364 -0.454575 -10.4645 -1.34306L-7.81972 -7.8311C-7.6131 -8.327 -6.49732 -11.1371 -6.35268 -11.6743L-6.33202 -11.6743L-6.33202 -0.991801C-6.33202 -0.3306 -6.18738 -0 -5.34022 -0L-4.78233 -0C-3.99716 -0 -3.79053 -0.268613 -3.79053 -0.991801L-3.79053 -13.348C-3.79053 -14.0092 -3.93517 -14.3398 -4.78233 -14.3398L-6.51798 -14.3398C-7.03455 -14.3398 -7.55111 -14.2985 -7.90237 -13.4513ZM-7.90237 -13.4513" fill="#fff"/>
 </g>
 <g transform="matrix(1.000000,-0.000000,-0.000000,1.000000,208.346457,-291.076961)">
  <path d="M-1.02624 -0M7.89997 -13.4513C7.59003 -14.3398 6.99082 -14.3398 6.57757 -14.3398L4.75927 -14.3398C4.34602 -14.3398 3.7468 -14.3398 3.43686 -13.4513L-0.922928 -0.971138C-1.02624 -0.702526 -1.02624 -0.661201 -1.02624 -0.557888C-1.02624 -0 -0.509677 -0 -0.220402 -0L0.523449 -0C0.895374 -0 1.53591 -0 1.82519 -0.826501L2.63103 -3.12004L8.35454 -3.12004L9.05707 -1.13644C9.30502 -0.41325 9.44966 -0 10.4415 -0L11.5572 -0C11.8465 -0 12.3631 -0 12.3631 -0.557888C12.3631 -0.661201 12.3631 -0.702526 12.2598 -0.971138ZM12.2598 -0.971138M4.7386 -9.27747C5.04854 -10.1866 5.31715 -10.9718 5.48245 -11.7156L5.50312 -11.7156C5.60643 -11.2197 5.60643 -11.1784 5.77173 -10.7032L7.73467 -4.89702L3.2509 -4.89702ZM3.2509 -4.89702" fill="#fff"/>
 </g>
 <g transform="matrix(1.000000,-0.000000,-0.000000,1.000000,208.346457,-291.076961)">
  <path d="M13.8876 -0M25.8512 -2.95474C25.8512 -3.12004 25.7065 -3.20269 25.6239 -3.20269C25.128 -3.20269 24.5288 -1.85963 21.6154 -1.85963C17.9788 -1.85963 16.9456 -4.09118 16.9456 -7.19056C16.9456 -10.2693 18.0614 -12.5008 21.4501 -12.5008C23.289 -12.5008 24.2602 -11.7776 24.8181 -11.3231C24.942 -11.2197 25.004 -11.1371 25.1487 -11.1371C25.2313 -11.1371 25.3346 -11.2404 25.3553 -11.3231L25.7685 -13.6166C25.7892 -13.6993 25.7685 -13.7819 25.6032 -13.8439C24.3841 -14.2985 23.1237 -14.5877 21.512 -14.5877C16.4704 -14.5877 13.8876 -12.1289 13.8876 -7.21122C13.8876 -2.1489 16.5117 0.206625 21.5327 0.206625C23.289 0.206625 24.3841 -0.041325 25.8925 -0.971138C26.0578 -1.07445 26.0165 -1.21909 26.0165 -1.21909ZM26.0165 -1.21909" fill="#fff"/>
 </g>
 <g transform="matrix(1.000000,-0.000000,-0.000000,1.000000,208.346457,-291.076961)">
  <path d="M28.0162 -0M36.9424 -13.4513C36.6325 -14.3398 36.0333 -14.3398 35.62 -14.3398L33.8017 -14.3398C33.3885 -14.3398 32.7893 -14.3398 32.4793 -13.4513L28.1195 -0.971138C28.0162 -0.702526 28.0162 -0.661201 28.0162 -0.557888C28.0162 -0 28.5328 -0 28.8221 -0L29.5659 -0C29.9378 -0 30.5784 -0 30.8676 -0.826501L31.6735 -3.12004L37.397 -3.12004L38.0995 -1.13644C38.3475 -0.41325 38.4921 -0 39.4839 -0L40.5997 -0C40.889 -0 41.4055 -0 41.4055 -0.557888C41.4055 -0.661201 41.4055 -0.702526 41.3022 -0.971138ZM41.3022 -0.971138M33.7811 -9.27747C34.091 -10.1866 34.3596 -10.9718 34.5249 -11.7156L34.5456 -11.7156C34.6489 -11.2197 34.6489 -11.1784 34.8142 -10.7032L36.7771 -4.89702L32.2934 -4.89702ZM32.2934 -4.89702" fill="#fff"/>
 </g>
 <path d="M208.063 -265.565L208.63 -265.565"/>
 <g transform="matrix(1.000000,-0.000000,-0.000000,1.000000,208.346457,-265.565150)">
  <path d="M-24.9518 -0M-19.4573 -9.82714C-19.4573 -9.95626 -19.5577 -9.95626 -19.6007 -9.95626C-19.7298 -9.95626 -19.7442 -9.92757 -19.8016 -9.68368L-20.5763 -6.59925C-20.6193 -6.41275 -20.6336 -6.3984 -20.648 -6.38406C-20.6623 -6.35536 -20.7628 -6.34102 -20.7914 -6.34102C-23.1442 -6.14017 -24.9518 -4.20344 -24.9518 -2.41016C-24.9518 -0.860772 -23.7611 0.0860772 -22.2691 0.172154C-22.3839 0.616886 -22.4843 1.07596 -22.5991 1.5207C-22.7999 2.28105 -22.9147 2.75447 -22.9147 2.81185C-22.9147 2.84055 -22.9147 2.92662 -22.7712 2.92662C-22.7282 2.92662 -22.6708 2.92662 -22.6421 2.86924C-22.6134 2.84055 -22.5273 2.49624 -22.47 2.30974L-21.9391 0.172154C-19.4859 0.0430386 -17.6209 -1.96543 -17.6209 -3.77305C-17.6209 -5.22202 -18.7112 -6.25494 -20.3037 -6.35536ZM-20.3037 -6.35536M-20.3898 -6.06844C-19.4429 -6.01106 -18.4961 -5.48025 -18.4961 -4.07432C-18.4961 -2.4532 -19.6294 -0.30127 -21.8674 -0.129116ZM-21.8674 -0.129116M-22.1974 -0.11477C-22.9003 -0.157808 -24.0767 -0.530809 -24.0767 -2.10889C-24.0767 -3.91651 -22.7712 -5.92498 -20.7054 -6.05409ZM-20.7054 -6.05409" fill="black"/>
 </g>
 <g transform="matrix(1.000000,-0.000000,-0.000000,1.000000,208.346457,-265.565150)">
  <path d="M-11.8553 -0M-6.46116 -10.2432C-6.38943 -10.4297 -6.38943 -10.4584 -6.38943 -10.4871C-6.38943 -10.6736 -6.53289 -10.7596 -6.64766 -10.7596C-6.83416 -10.7596 -6.8772 -10.6305 -6.94893 -10.444L-11.7836 3.07009C-11.8553 3.25659 -11.8553 3.28528 -11.8553 3.31397C-11.8553 3.47178 -11.7406 3.58655 -11.5827 3.58655C-11.3962 3.58655 -11.3532 3.44309 -11.2958 3.28528ZM-11.2958 3.28528" fill="black"/>
 </g>
 <g transform="matrix(1.000000,-0.000000,-0.000000,1.000000,208.346457,-265.565150)">
  <path d="M0.381433 -0M3.20763 -9.19591C3.20763 -9.52587 3.20763 -9.54022 2.92071 -9.54022C2.5764 -9.15287 1.85909 -8.62206 0.381433 -8.62206L0.381433 -8.20602C0.711396 -8.20602 1.42871 -8.20602 2.21775 -8.57903L2.21775 -1.10466C2.21775 -0.588194 2.17471 -0.41604 0.912242 -0.41604L0.46751 -0.41604L0.46751 -0C0.854858 -0.0286924 2.24644 -0.0286924 2.71986 -0.0286924C3.19329 -0.0286924 4.57052 -0.0286924 4.95787 -0L4.95787 -0.41604L4.51314 -0.41604C3.25067 -0.41604 3.20763 -0.588194 3.20763 -1.10466ZM3.20763 -1.10466" fill="black"/>
 </g>
 <g transform="matrix(1.000000,-0.000000,-0.000000,1.000000,208.346457,-265.565150)">
  <path d="M6.6877 -0M10.3747 -5.17898C11.092 -5.56632 12.1393 -6.22625 12.1393 -7.43133C12.1393 -8.67945 10.9342 -9.54022 9.61432 -9.54022C8.19405 -9.54022 7.07504 -8.49295 7.07504 -7.18744C7.07504 -6.69967 7.21851 -6.2119 7.6202 -5.72413C7.77801 -5.53763 7.79235 -5.52329 8.79659 -4.82032C7.40501 -4.17474 6.6877 -3.21355 6.6877 -2.16628C6.6877 -0.645579 8.13666 0.30127 9.59997 0.30127C11.1924 0.30127 12.5266 -0.875118 12.5266 -2.38147C12.5266 -3.84478 11.4937 -4.49036 10.3747 -5.17898ZM10.3747 -5.17898M8.42359 -6.47013C8.23709 -6.59925 7.66324 -6.97225 7.66324 -7.67521C7.66324 -8.60772 8.63878 -9.19591 9.59997 -9.19591C10.6329 -9.19591 11.5511 -8.44991 11.5511 -7.41698C11.5511 -6.54187 10.9198 -5.8389 10.0877 -5.37982ZM10.0877 -5.37982M9.09786 -4.61948L10.8337 -3.48613C11.2067 -3.24224 11.8667 -2.79751 11.8667 -1.92239C11.8667 -0.832079 10.762 -0.0860772 9.61432 -0.0860772C8.39489 -0.0860772 7.34762 -0.975541 7.34762 -2.16628C7.34762 -3.28528 8.16535 -4.18909 9.09786 -4.61948ZM9.09786 -4.61948" fill="black"/>
 </g>
 <g transform="matrix(1.000000,-0.000000,-0.000000,1.000000,208.346457,-265.565150)">
  <path d="M13.7113 -0M19.5502 -4.59078C19.5502 -5.78152 19.4784 -6.94356 18.962 -8.03387C18.3738 -9.2246 17.3409 -9.54022 16.6379 -9.54022C15.8058 -9.54022 14.7872 -9.12418 14.2564 -7.93345C13.8547 -7.02964 13.7113 -6.14017 13.7113 -4.59078C13.7113 -3.1992 13.8117 -2.15193 14.3282 -1.13335C14.8877 -0.0430386 15.8775 0.30127 16.6235 0.30127C17.8717 0.30127 18.589 -0.444732 19.005 -1.27681C19.5215 -2.35278 19.5502 -3.7587 19.5502 -4.59078ZM19.5502 -4.59078M16.6235 0.0143462C16.1645 0.0143462 15.232 -0.243885 14.9594 -1.80762C14.8016 -2.66839 14.8016 -3.7587 14.8016 -4.76294C14.8016 -5.93933 14.8016 -7.00094 15.0311 -7.84737C15.275 -8.80856 16.0067 -9.2533 16.6235 -9.2533C17.1687 -9.2533 18.0008 -8.92333 18.2734 -7.68956C18.4599 -6.87183 18.4599 -5.73848 18.4599 -4.76294C18.4599 -3.80174 18.4599 -2.71143 18.3021 -1.83631C18.0295 -0.258232 17.1257 0.0143462 16.6235 0.0143462ZM16.6235 0.0143462" fill="black"/>
 </g>
 <g transform="matrix(1.000000,-0.000000,-0.000000,1.000000,208.346457,-265.565150)">
  <path d="M20.6946 -5.20611M24.5701 -7.69677C24.5701 -8.76277 23.6834 -9.62952 22.6373 -9.62952C21.5613 -9.62952 20.6946 -8.74285 20.6946 -7.69677C20.6946 -6.64073 21.5613 -5.76402 22.6373 -5.76402C23.6834 -5.76402 24.5701 -6.63077 24.5701 -7.69677ZM24.5701 -7.69677M22.6373 -6.16252C21.7706 -6.16252 21.0931 -6.85991 21.0931 -7.69677C21.0931 -8.53363 21.7805 -9.23102 22.6373 -9.23102C23.4642 -9.23102 24.1716 -8.55356 24.1716 -7.69677C24.1716 -6.83998 23.4642 -6.16252 22.6373 -6.16252ZM22.6373 -6.16252" fill="black"/>
 </g>
 <g stroke-linecap="round" stroke-linejoin="round">
  <path d="M-48.391 73.7327L-255.118 -284.329" stroke="black"/>
 </g>
 <g stroke-linecap="butt" stroke-linejoin="round" stroke-dasharray="2.000000" stroke-dashoffset="0.000000">
  <path d="M-48.391 73.7327L-151.195 -309.935" stroke="black"/>
 </g>
 <g stroke-linecap="round" stroke-linejoin="round">
  <path d="M-48.391 73.7327L-48.391 -307.857" stroke="black"/>
 </g>
 <g stroke-linecap="butt" stroke-linejoin="round" stroke-dasharray="2.000000" stroke-dashoffset="0.000000">
  <path d="M-48.391 73.7327L46.4895 -280.366" stroke="black"/>
 </g>
 <g stroke-linecap="round" stroke-linejoin="round">
  <path d="M-48.391 73.7327L127.699 -231.264" stroke="black"/>
 </g>
 <g stroke-linecap="butt" stroke-linejoin="round" stroke-dasharray="2.000000" stroke-dashoffset="0.000000">
  <path d="M-48.391 73.7327L190.849 -165.508" stroke="black"/>
 </g>
 <g stroke-linecap="round" stroke-linejoin="round">
  <path d="M-48.391 73.7327L233.1 -88.7861" stroke="black"/>
 </g>
 <g stroke-linecap="butt" stroke-linejoin="round" stroke-dasharray="2.000000" stroke-dashoffset="0.000000">
  <path d="M-48.391 73.7327L253.23 -7.08643" stroke="black"/>
 </g>
 <g stroke-linecap="round" stroke-linejoin="round">
  <path d="M-48.391 73.7327L251.596 73.7327" stroke="black"/>
 </g>
 <g stroke-linecap="butt" stroke-linejoin="round" stroke-dasharray="2.000000" stroke-dashoffset="0.000000">
  <path d="M-48.391 73.7327L229.984 148.323" stroke="black"/>
 </g>
 <g stroke-linecap="round" stroke-linejoin="round">
  <path d="M-48.391 73.7327L191.383 212.166" stroke="black"/>
 </g>
 <g stroke-linecap="butt" stroke-linejoin="round" stroke-dasharray="2.000000" stroke-dashoffset="0.000000">
  <path d="M-48.391 73.7327L139.688 261.812" stroke="black"/>
 </g>
 <g stroke-linecap="round" stroke-linejoin="round">
  <path d="M-48.391 73.7327L79.3734 295.027" stroke="black"/>
 </g>
 <g stroke-linecap="butt" stroke-linejoin="round" stroke-dasharray="2.000000" stroke-dashoffset="0.000000">
  <path d="M-48.391 73.7327L15.1451 310.853" stroke="black"/>
 </g>
 <g stroke-linecap="round" stroke-linejoin="round">
  <path d="M-48.391 73.7327L-48.391 309.568" stroke="black"/>
 </g>
 <g stroke-linecap="butt" stroke-linejoin="round" stroke-dasharray="2.000000" stroke-dashoffset="0.000000">
  <path d="M-48.391 73.7327L-107.03 292.578" stroke="black"/>
 </g>
 <g stroke-linecap="round" stroke-linejoin="round">
  <path d="M-48.391 73.7327L-157.221 262.231" stroke="black"/>
 </g>
 <g stroke-linecap="butt" stroke-linejoin="round" stroke-dasharray="2.000000" stroke-dashoffset="0.000000">
  <path d="M-48.391 73.7327L-196.25 221.591" stroke="black"/>
 </g>
 <g stroke-linecap="round" stroke-linejoin="round">
  <path d="M-48.391 73.7327L-222.362 174.175" stroke="black"/>
 </g>
 <g stroke-linecap="butt" stroke-linejoin="round" stroke-dasharray="2.000000" stroke-dashoffset="0.000000">
  <path d="M-48.391 73.7327L-234.803 123.682" stroke="black"/>
 </g>
 <g stroke-linecap="round" stroke-linejoin="round">
  <path d="M-48.391 73.7327L-233.793 73.7327" stroke="black"/>
 </g>
 <g stroke-linecap="butt" stroke-linejoin="round" stroke-dasharray="2.000000" stroke-dashoffset="0.000000">
  <path d="M-48.391 73.7327L-220.436 27.6333" stroke="black"/>
 </g>
 <g stroke-linecap="round" stroke-linejoin="round">
  <path d="M-48.391 73.7327L-196.579 -11.8239" stroke="black"/>
 </g>
 <g stroke-linecap="butt" stroke-linejoin="round" stroke-dasharray="2.000000" stroke-dashoffset="0.000000">
  <path d="M-48.391 73.7327L-164.63 -42.5065" stroke="black"/>
 </g>
 <g stroke-linecap="round" stroke-linejoin="round">
  <path d="M-48.391 73.7327L-127.354 -63.0348" stroke="black"/>
 </g>
 <g stroke-linecap="round" stroke-linejoin="round" stroke-width="1.603518">
  <path d="M-255.118 -284.329L-248.302 -286.917L-241.461 -289.379L-234.596 -291.715L-227.71 -293.925L-220.804 -296.009L-213.882 -297.966L-206.945 -299.798L-199.996 -301.504L-193.037 -303.084L-186.07 -304.538L-179.098 -305.867L-172.122 -307.071L-165.144 -308.15L-158.168 -309.105L-151.195 -309.935L-144.226 -310.642L-137.266 -311.226L-130.314 -311.686L-123.375 -312.025L-116.449 -312.241L-109.538 -312.337L-102.646 -312.312L-95.7735 -312.167L-88.9229 -311.903L-82.0962 -311.52L-75.2955 -311.02L-68.5226 -310.402L-61.7796 -309.669L-55.0685 -308.82L-48.391 -307.857L-41.7491 -306.78L-35.1447 -305.591L-28.5797 -304.29L-22.0558 -302.878L-15.5749 -301.357L-9.13873 -299.727L-2.74911 -297.99L3.59224 -296.147L9.88362 -294.199L16.1233 -292.146L22.3097 -289.991L28.4411 -287.734L34.5159 -285.377L40.5326 -282.92L46.4895 -280.366L52.3851 -277.715L58.218 -274.97L63.9866 -272.13L69.6896 -269.198L75.3254 -266.175L80.8926 -263.063L86.39 -259.862L91.8162 -256.575L97.1698 -253.202L102.45 -249.746L107.654 -246.208L112.783 -242.589L117.834 -238.891L122.806 -235.116L127.699 -231.264L132.511 -227.339L137.241 -223.34L141.888 -219.271L146.451 -215.132L150.929 -210.926L155.321 -206.653L159.627 -202.316L163.845 -197.917L167.974 -193.456L172.014 -188.936L175.964 -184.359L179.824 -179.725L183.591 -175.038L187.267 -170.298L190.849 -165.508L194.338 -160.668L197.733 -155.782L201.034 -150.85L204.239 -145.875L207.349 -140.858L210.362 -135.801L213.279 -130.706L216.099 -125.575L218.822 -120.409L221.447 -115.21L223.974 -109.98L226.404 -104.721L228.734 -99.4344L230.967 -94.1222L233.1 -88.7861L235.134 -83.4279L237.07 -78.0495L238.906 -72.6525L240.644 -67.2388L242.282 -61.8102L243.821 -56.3683L245.261 -50.915L246.602 -45.452L247.844 -39.9812L248.987 -34.5041L250.032 -29.0226L250.978 -23.5383L251.827 -18.0531L252.577 -12.5685L253.23 -7.08643L253.786 -1.60842L254.245 3.86381L254.607 9.32857L254.873 14.7842L255.043 20.2291L255.118 25.6616L255.098 31.0801L254.984 36.4829L254.777 41.8685L254.476 47.2353L254.083 52.5817L253.597 57.9062L253.021 63.2072L252.353 68.4832L251.596 73.7327L250.75 78.9542L249.815 84.1463L248.792 89.3074L247.682 94.4362L246.486 99.5311L245.205 104.591L243.84 109.614L242.391 114.599L240.859 119.545L239.245 124.451L237.551 129.314L235.776 134.134L233.923 138.91L231.992 143.64L229.984 148.323L227.9 152.958L225.742 157.544L223.509 162.079L221.205 166.562L218.828 170.992L216.381 175.369L213.865 179.691L211.281 183.957L208.629 188.166L205.912 192.316L203.131 196.408L200.286 200.44L197.379 204.411L194.411 208.32L191.383 212.166L188.297 215.949L185.153 219.667L181.954 223.321L178.701 226.908L175.394 230.428L172.035 233.881L168.625 237.266L165.167 240.582L161.66 243.828L158.106 247.005L154.508 250.11L150.865 253.144L147.18 256.106L143.454 258.995L139.688 261.812L135.884 264.555L132.042 267.224L128.165 269.818L124.254 272.338L120.31 274.783L116.335 277.152L112.329 279.445L108.295 281.662L104.234 283.803L100.147 285.866L96.0351 287.853L91.9006 289.763L87.7446 291.595L83.5684 293.35L79.3734 295.027L75.1611 296.627L70.9328 298.148L66.69 299.592L62.434 300.958L58.1662 302.245L53.8881 303.455L49.601 304.587L45.3063 305.642L41.0053 306.618L36.6995 307.517L32.3902 308.338L28.0788 309.082L23.7665 309.749L19.4549 310.339L15.1451 310.853L10.8386 311.289L6.53656 311.65L2.24043 311.935L-2.04854 312.144L-6.32904 312.278L-10.5998 312.337L-14.8595 312.321L-19.107 312.232L-23.3409 312.068L-27.56 311.832L-31.7631 311.523L-35.9489 311.141L-40.1163 310.688L-44.2641 310.163L-48.391 309.568L-52.4959 308.902L-56.5776 308.167L-60.635 307.363L-64.667 306.491L-68.6724 305.551L-72.6502 304.544L-76.5992 303.47L-80.5184 302.331L-84.4067 301.127L-88.263 299.858L-92.0864 298.526L-95.8758 297.131L-99.6303 295.674L-103.349 294.156L-107.03 292.578L-110.674 290.94L-114.279 289.243L-117.844 287.488L-121.369 285.676L-124.852 283.807L-128.293 281.884L-131.69 279.906L-135.044 277.874L-138.353 275.79L-141.616 273.654L-144.832 271.467L-148.002 269.23L-151.124 266.945L-154.197 264.611L-157.221 262.231L-160.195 259.805L-163.118 257.334L-165.99 254.819L-168.81 252.261L-171.578 249.661L-174.292 247.021L-176.953 244.34L-179.56 241.621L-182.112 238.864L-184.609 236.071L-187.05 233.242L-189.435 230.378L-191.764 227.481L-194.035 224.552L-196.25 221.591L-198.406 218.601L-200.504 215.581L-202.544 212.533L-204.525 209.458L-206.447 206.357L-208.309 203.232L-210.112 200.083L-211.855 196.912L-213.538 193.719L-215.16 190.506L-216.722 187.273L-218.223 184.023L-219.664 180.756L-221.043 177.473L-222.362 174.175L-223.619 170.863L-224.815 167.539L-225.95 164.204L-227.024 160.858L-228.037 157.503L-228.988 154.14L-229.878 150.769L-230.706 147.393L-231.474 144.012L-232.181 140.627L-232.827 137.239L-233.411 133.85L-233.936 130.459L-234.4 127.07L-234.803 123.682L-235.147 120.296L-235.43 116.914L-235.654 113.537L-235.818 110.165L-235.924 106.8L-235.97 103.442L-235.958 100.094L-235.887 96.7544L-235.759 93.4259L-235.573 90.109L-235.33 86.8048L-235.03 83.5141L-234.674 80.2378L-234.261 76.9771L-233.793 73.7327L-233.27 70.5056L-232.692 67.2968L-232.06 64.107L-231.374 60.9373L-230.635 57.7884L-229.843 54.6613L-228.999 51.5568L-228.104 48.4757L-227.157 45.4189L-226.16 42.3873L-225.113 39.3815L-224.016 36.4024L-222.871 33.4509L-221.677 30.5276L-220.436 27.6333L-219.148 24.7688L-217.814 21.9348L-216.435 19.132L-215.01 16.3611L-213.541 13.6229L-212.029 10.9179L-210.474 8.2469L-208.877 5.6105L-207.238 3.00933L-205.559 0.44403L-203.84 -2.08481L-202.082 -4.57659L-200.285 -7.03073L-198.451 -9.44668L-196.579 -11.8239L-194.672 -14.1618L-192.729 -16.4599L-190.752 -18.7177L-188.741 -20.9348L-186.698 -23.1106L-184.622 -25.2447L-182.514 -27.3366L-180.377 -29.3859L-178.21 -31.3923L-176.013 -33.3552L-173.789 -35.2744L-171.538 -37.1495L-169.261 -38.9801L-166.958 -40.7659L-164.63 -42.5065L-162.279 -44.2018L-159.905 -45.8513L-157.509 -47.4549L-155.092 -49.0122L-152.654 -50.5231L-150.197 -51.9872L-147.721 -53.4045L-145.228 -54.7747L-142.718 -56.0976L-140.192 -57.3731L-137.651 -58.601L-135.096 -59.7813L-132.527 -60.9137L-129.946 -61.9982L-127.354 -63.0348L-124.75 -64.0232L-122.137 -64.9636L-119.515 -65.8559L-116.885 -66.7L-114.247 -67.4959L-111.603 -68.2437L-108.953 -68.9433L-106.299 -69.5948L-103.641 -70.1984L-100.98 -70.7539L-98.3165 -71.2615L-95.6519 -71.7214L-92.9868 -72.1336L-90.322 -72.4982L-87.6584 -72.8154L-84.9968 -73.0854L-82.3381 -73.3083L-79.6829 -73.4842L-77.0322 -73.6135L-74.3867 -73.6962L-71.7472 -73.7327L-69.1145 -73.7231L-66.4895 -73.6678L-63.8728 -73.5669L-61.2652 -73.4207L-58.6676 -73.2296L-56.0806 -72.9937L-53.505 -72.7136L-50.9415 -72.3894L-48.391 -72.0214L-45.854 -71.6102L-43.3314 -71.1559L-40.8237 -70.659L-38.3318 -70.1198L-35.8563 -69.5388L-33.398 -68.9164L-30.9573 -68.2529L-28.5352 -67.5488L-26.1321 -66.8045L-23.7487 -66.0205L-21.3857 -65.1973L-19.0437 -64.3352L-16.7234 -63.4348L-14.4252 -62.4966L-12.1499 -61.521L-9.89793 -60.5085L-7.66997 -59.4597L-5.46655 -58.3751L-3.28822 -57.2552L-1.13554 -56.1005L0.99097 -54.9116L3.09079 -53.6891L5.1634 -52.4335L7.20831 -51.1453L9.22503 -49.8252L11.2131 -48.4737L13.172 -47.0914L15.1013 -45.6789L17.0006 -44.2368L18.8695 -42.7658L20.7074 -41.2663L22.5141 -39.7391L24.2891 -38.1848L26.032 -36.6039L27.7425 -34.9972L29.4202 -33.3652L31.0648 -31.7086L32.6759 -30.0281L34.2532 -28.3243L35.7964 -26.5978L37.3051 -24.8494L38.7792 -23.0796L40.2184 -21.2892L41.6223 -19.4787L42.9907 -17.6489L44.3234 -15.8005L45.6202 -13.9341L46.8808 -12.0504L48.1051 -10.1501L49.2929 -8.23377L50.4439 -6.30221L51.5581 -4.35607L52.6353 -2.39603L53.6753 -0.422774L54.678 1.56302L55.6434 3.56066L56.5712 5.56947L57.4615 7.58876L58.3141 9.61785L59.129 11.6561L59.9061 13.7027L60.6454 15.7571L61.3468 17.8185L62.0104 19.8864L62.6361 21.9599L63.224 24.0385L63.774 26.1215L64.2862 28.2082L64.7606 30.2979L65.1974 32.3899L65.5965 34.4837L65.958 36.5785L66.282 38.6737L66.5687 40.7686L66.8181 42.8626L67.0303 44.955L67.2055 47.0452L67.3438 49.1325L67.4455 51.2164L67.5105 53.2962L67.5392 55.3712L67.5317 57.4409L67.4881 59.5046L67.4088 61.5617L67.2939 63.6116L67.1436 65.6538L66.9582 67.6875L66.738 69.7123L66.4831 71.7276L66.1938 73.7327L65.8705 75.7272L65.5134 77.7103L65.1228 79.6817L64.6989 81.6407L64.2421 83.5868L63.7528 85.5195L63.2312 87.4382L62.6777 89.3424L62.0926 91.2316L61.4762 93.1053L60.829 94.9629L60.1513 96.8041L59.4435 98.6283L58.7059 100.435L57.9389 102.224L57.1429 103.994L56.3184 105.746L55.4658 107.478L54.5853 109.19L53.6776 110.883L52.743 112.554L51.7819 114.205L50.7948 115.835L49.7821 117.442L48.7443 119.028L47.6818 120.591L46.5951 122.131L45.4847 123.647L44.351 125.14L43.1945 126.61L42.0157 128.055L40.8151 129.475L39.5931 130.87L38.3503 132.24L37.0872 133.585L35.8042 134.904L34.5019 136.197L33.1807 137.464L31.8413 138.704L30.484 139.917L29.1095 141.103L27.7182 142.262L26.3106 143.393L24.8873 144.497L23.4488 145.573L21.9957 146.62L20.5284 147.64L19.0475 148.631L17.5536 149.593L16.0471 150.527L14.5286 151.432L12.9986 152.308L11.4577 153.155L9.90647 153.972L8.34533 154.761L6.77488 155.519L5.19566 156.249L3.60819 156.949L2.01302 157.619L0.410681 158.26L-1.19828 158.871L-2.81334 159.452L-4.43396 160.003L-6.0596 160.525L-7.68974 161.017L-9.32384 161.479L-10.9614 161.911L-12.6018 162.314L-14.2446 162.687L-15.8893 163.03L-17.5353 163.344L-19.1821 163.628L-20.8293 163.883L-22.4762 164.108L-24.1224 164.304L-25.7673 164.471L-27.4105 164.609L-29.0515 164.718L-30.6897 164.798L-32.3247 164.849L-33.956 164.871L-35.5831 164.865L-37.2055 164.831L-38.8227 164.769L-40.4342 164.679L-42.0397 164.56L-43.6385 164.415L-45.2303 164.242L-46.8146 164.041L-48.391 163.814L-49.9589 163.56L-51.518 163.279L-53.0678 162.972L-54.6079 162.638L-56.1378 162.279L-57.6572 161.895L-59.1656 161.485L-60.6625 161.049L-62.1477 160.59L-63.6207 160.105L-65.0811 159.596L-66.5286 159.063L-67.9626 158.507L-69.383 157.927L-70.7892 157.324L-72.181 156.698L-73.5579 156.05L-74.9197 155.38L-76.266 154.688L-77.5964 153.974L-78.9107 153.239L-80.2085 152.484L-81.4894 151.708L-82.7532 150.912L-83.9996 150.096L-85.2283 149.26L-86.439 148.406L-87.6314 147.533L-88.8052 146.642L-89.9602 145.733L-91.0961 144.806L-92.2127 143.862L-93.3097 142.902L-94.3869 141.925L-95.4441 140.931L-96.4809 139.923L-97.4973 138.899L-98.493 137.86L-99.4679 136.807L-100.422 135.74L-101.354 134.66L-102.265 133.566L-103.155 132.459L-104.022 131.341L-104.868 130.21L-105.692 129.067L-106.493 127.914L-107.272 126.75L-108.029 125.575L-108.763 124.391L-109.474 123.197L-110.163 121.994L-110.829 120.783L-111.471 119.563L-112.091 118.336L-112.688 117.101L-113.261 115.86L-113.811 114.612L-114.338 113.358L-114.842 112.098L-115.322 110.833L-115.779 109.564L-116.213 108.29L-116.623 107.012L-117.009 105.73L-117.373 104.445L-117.713 103.158L-118.029 101.868L-118.323 100.577L-118.592 99.284L-118.839 97.9899L-119.063 96.6953L-119.263 95.4004L-119.44 94.1057L-119.594 92.8115L-119.725 91.5183L-119.834 90.2265L-119.919 88.9365L-119.982 87.6486L-120.022 86.3632L-120.04 85.0808L-120.035 83.8016L-120.008 82.5262L-119.959 81.2548L-119.888 79.9879L-119.795 78.7258L-119.681 77.4689L-119.545 76.2175L-119.387 74.972L-119.208 73.7327L-119.008 72.5001L-118.788 71.2744L-118.546 70.056L-118.284 68.8453L-118.002 67.6425L-117.7 66.4481L-117.377 65.2623L-117.035 64.0854L-116.674 62.9178L-116.293 61.7598L-115.893 60.6117L-115.474 59.4738L-115.036 58.3464L-114.58 57.2298L-114.106 56.1243L-113.615 55.0302L-113.105 53.9477L-112.578 52.8771L-112.034 51.8187L-111.473 50.7728L-110.895 49.7396L-110.301 48.7194L-109.691 47.7123L-109.065 46.7188L-108.424 45.7389L-107.767 44.773L-107.096 43.8212L-106.409 42.8838L-105.709 41.961L-104.994 41.053L-104.265 40.16L-103.523 39.2822L-102.768 38.4198L-102 37.5729L-101.219 36.7419L-100.426 35.9267L-99.6216 35.1277L-98.8051 34.3449L-97.9772 33.5786L-97.1384 32.8288L-96.2889 32.0957L-95.429 31.3795L-94.5591 30.6803L-93.6794 29.9981L-92.7904 29.3333L-91.8923 28.6857L-90.9855 28.0557L-90.0703 27.4432L-89.147 26.8483L-88.2159 26.2712L-87.2774 25.712L-86.3318 25.1706L-85.3795 24.6473L-84.4208 24.142L-83.4559 23.6548L-82.4854 23.1857L-81.5093 22.7349L-80.5282 22.3024L-79.5424 21.8881L-78.5521 21.4922L-77.5577 21.1146L-76.5595 20.7554L-75.5579 20.4146L-74.5532 20.0922L-73.5457 19.7882L-72.5358 19.5026L-71.5237 19.2353L-70.5099 18.9865L-69.4946 18.7559L-68.4781 18.5437L-67.4608 18.3498L-66.443 18.1742L-65.4251 18.0167L-64.4072 17.8775L-63.3898 17.7563L-62.3732 17.6532L-61.3576 17.5681L-60.3434 17.5008L-59.3309 17.4515L-58.3205 17.4199L-57.3123 17.4059L-56.3067 17.4096L-55.304 17.4307L-54.3045 17.4693L-53.3085 17.5251L-52.3163 17.5981L-51.3281 17.6882L-50.3444 17.7952L-49.3652 17.9191L-48.391 18.0596L-47.4219 18.2167L-46.4584 18.3902L-45.5005 18.58L-44.5487 18.7859L-43.6032 19.0079L-42.6641 19.2456L-41.7319 19.499L-40.8067 19.768L-39.8888 20.0523L-38.9785 20.3517L-38.0759 20.6662L-37.1813 20.9955L-36.295 21.3394L-35.4172 21.6978L-34.5481 22.0704L-33.6879 22.4571L-32.8369 22.8577L-31.9953 23.272L-31.1633 23.6998L-30.341 24.1408L-29.5288 24.5949L-28.7267 25.0619L-27.935 25.5415L-27.1539 26.0336L-26.3836 26.5378L-25.6243 27.054L-24.876 27.582L-24.1391 28.1215L-23.4136 28.6724L-22.6998 29.2343L-21.9977 29.807L-21.3076 30.3903L-20.6297 30.984L-19.9639 31.5879L-19.3106 32.2016L-18.6697 32.825L-18.0416 33.4577L-17.4262 34.0996L-16.8237 34.7504L-16.2343 35.4099L-15.658 36.0777L-15.0949 36.7537L-14.5452 37.4376L-14.009 38.1291L-13.4863 38.828L-12.9772 39.5341L-12.4819 40.247L-12.0004 40.9665L-11.5327 41.6924L-11.0791 42.4243L-10.6394 43.1621L-10.2138 43.9055L-9.80238 44.6541L-9.40513 45.4078L-9.02212 46.1663L-8.65339 46.9294L-8.29898 47.6967L-7.95893 48.468L-7.63327 49.243L-7.32201 50.0215L-7.02519 50.8033L-6.7428 51.588L-6.47488 52.3754L-6.22141 53.1652L-5.98241 53.9573L-5.75787 54.7512L-5.54778 55.5469L-5.35213 56.3439L-5.17091 57.1421L-5.00409 57.9412L-4.85165 58.7409L-4.71356 59.5411L-4.58979 60.3414L-4.4803 61.1415L-4.38504 61.9414L-4.30398 62.7406L-4.23705 63.539L-4.18421 64.3363L-4.1454 65.1322L-4.12055 65.9266L-4.1096 66.7192L-4.11247 67.5098L-4.1291 68.298L-4.1594 69.0838L-4.20329 69.8668L-4.26069 70.6468L-4.3315 71.4237L-4.41563 72.1971L-4.51299 72.9668L-4.62347 73.7327L-4.74697 74.4945L-4.88338 75.252L-5.03259 76.005L-5.19449 76.7533L-5.36895 77.4967L-5.55586 78.2349L-5.75509 78.9677L-5.96652 79.6951L-6.19001 80.4167L-6.42543 81.1324L-6.67264 81.8419L-6.93151 82.5452L-7.20188 83.242L-7.48363 83.9321L-7.77658 84.6153L-8.08061 85.2915L-8.39554 85.9605L-8.72123 86.6222L-9.05752 87.2763L-9.40425 87.9227L-9.76125 88.5613L-10.1284 89.1918L-10.5054 89.8142L-10.8922 90.4282L-11.2886 91.0338L-11.6945 91.6308L-12.1095 92.219L-12.5337 92.7984L-12.9667 93.3687L-13.4084 93.9299L-13.8587 94.4818L-14.3173 95.0243L-14.784 95.5573L-15.2588 96.0807L-15.7412 96.5943L-16.2313 97.0981L-16.7287 97.5919L-17.2333 98.0757L-17.745 98.5494L-18.2634 99.0127L-18.7884 99.4658L-19.3199 99.9085L-19.8575 100.341L-20.4012 100.762L-20.9506 101.173L-21.5057 101.573L-22.0661 101.963L-22.6318 102.341L-23.2024 102.709L-23.7778 103.066L-24.3578 103.411L-24.9422 103.746L-25.5308 104.069L-26.1233 104.381L-26.7196 104.683L-27.3195 104.972L-27.9227 105.251L-28.5291 105.518L-29.1384 105.774L-29.7504 106.019L-30.365 106.252L-30.9819 106.474L-31.6009 106.685L-32.2218 106.884L-32.8445 107.072L-33.4687 107.249L-34.0941 107.414L-34.7207 107.568L-35.3482 107.71L-35.9764 107.841L-36.6052 107.961L-37.2342 108.07L-37.8633 108.167L-38.4924 108.253L-39.1212 108.328L-39.7495 108.392L-40.3772 108.444L-41.004 108.486L-41.6297 108.516L-42.2542 108.536L-42.8773 108.545L-43.4988 108.542L-44.1185 108.529L-44.7362 108.505L-45.3518 108.471L-45.965 108.426L-46.5757 108.37L-47.1837 108.304L-47.7889 108.227L-48.391 108.141L-48.9899 108.044L-49.5854 107.936L-50.1774 107.819L-50.7656 107.692L-51.35 107.555L-51.9303 107.408L-52.5065 107.251L-53.0783 107.085L-53.6456 106.909L-54.2082 106.724L-54.7661 106.53L-55.3189 106.326L-55.8667 106.114L-56.4092 105.892L-56.9463 105.662L-57.478 105.423L-58.0039 105.175L-58.5241 104.919L-59.0383 104.655L-59.5465 104.382L-60.0485 104.102L-60.5442 103.813L-61.0334 103.517L-61.5162 103.212L-61.9923 102.901L-62.4616 102.582L-62.924 102.255L-63.3795 101.922L-63.8278 101.582L-64.269 101.234L-64.7029 100.88L-65.1294 100.52L-65.5484 100.153L-65.9599 99.7797L-66.3637 99.4004L-66.7597 99.0151L-67.1479 98.624L-67.5283 98.2273L-67.9006 97.8251L-68.2649 97.4175L-68.6211 97.0048L-68.9691 96.587L-69.3088 96.1643L-69.6402 95.737L-69.9633 95.305L-70.2779 94.8686L-70.584 94.428L-70.8816 93.9834L-71.1706 93.5348L-71.451 93.0824L-71.7227 92.6264L-71.9858 92.167L-72.24 91.7043L-72.4856 91.2385L-72.7223 90.7697L-72.9502 90.2981L-73.1692 89.8239L-73.3794 89.3472L-73.5806 88.8682L-73.773 88.387L-73.9564 87.9039L-74.131 87.4189L-74.2965 86.9323L-74.4532 86.4441L-74.6009 85.9546L-74.7397 85.4639L-74.8695 84.9722L-74.9904 84.4796L-75.1024 83.9863L-75.2055 83.4924L-75.2998 82.9982L-75.3851 82.5036L-75.4616 82.009L-75.5293 81.5145L-75.5881 81.0202L-75.6382 80.5262L-75.6796 80.0328L-75.7123 79.54L-75.7362 79.0481L-75.7516 78.5571L-75.7584 78.0673L-75.7566 77.5787L-75.7463 77.0915L-75.7276 76.6059L-75.7005 76.122L-75.665 75.6399L-75.6212 75.1598L-75.5692 74.6818L-75.5091 74.2061L-75.4408 73.7327L-75.3645 73.2619L-75.2801 72.7937L-75.1879 72.3283L-75.0879 71.8659L-74.98 71.4065L-74.8645 70.9502L-74.7414 70.4973L-74.6107 70.0478L-74.4726 69.6018L-74.3271 69.1595L-74.1743 68.7209L-74.0143 68.2863L-73.8472 67.8557L-73.6731 67.4292L-73.4921 67.0069L-73.3042 66.589L-73.1095 66.1755L-72.9082 65.7666L-72.7004 65.3623L-72.4861 64.9628L-72.2655 64.5682L-72.0386 64.1785L-71.8056 63.7938L-71.5665 63.4143L-71.3215 63.04L-71.0707 62.6711L-70.8141 62.3075L-70.552 61.9495L-70.2844 61.597L-70.0114 61.2502L-69.7331 60.9091L-69.4497 60.5738L-69.1612 60.2444L-68.8678 59.9209L-68.5696 59.6035L-68.2668 59.2921L-67.9593 58.9869L-67.6474 58.6879L-67.3312 58.3952L-67.0108 58.1088L-66.6864 57.8288L-66.3579 57.5552L-66.0256 57.2881L-65.6896 57.0276L-65.3501 56.7736L-65.007 56.5263L-64.6606 56.2856L-64.311 56.0517L-63.9584 55.8245L-63.6027 55.604L-63.2443 55.3904L-62.8831 55.1836L-62.5193 54.9837L-62.1531 54.7907L-61.7846 54.6046L-61.4139 54.4255L-61.0411 54.2533L-60.6663 54.0881L-60.2897 53.9298L-59.9115 53.7786L-59.5317 53.6344L-59.1504 53.4972L-58.7678 53.367L-58.3841 53.2439L-57.9992 53.1277L-57.6135 53.0186L-57.2269 52.9166L-56.8397 52.8215L-56.4518 52.7335L-56.0636 52.6524L-55.675 52.5783L-55.2862 52.5112L-54.8974 52.4511L-54.5086 52.3979L-54.12 52.3516L-53.7317 52.3122L-53.3438 52.2797L-52.9564 52.2541L-52.5697 52.2352L-52.1837 52.2231L-51.7986 52.2178L-51.4145 52.2192L-51.0315 52.2273L-50.6497 52.242L-50.2693 52.2633L-49.8903 52.2912L-49.5129 52.3256L-49.1371 52.3665L-48.7631 52.4138L-48.391 52.4675L-48.0208 52.5275L-47.6528 52.5938L-47.2869 52.6663L-46.9234 52.7449L-46.5622 52.8297L-46.2035 52.9205L-45.8474 53.0173L-45.494 53.12L-45.1434 53.2286L-44.7957 53.343L-44.451 53.4631L-44.1093 53.5889L-43.7707 53.7202L-43.4354 53.8571L-43.1035 53.9995L-42.7749 54.1472L-42.4499 54.3002L-42.1284 54.4584L-41.8106 54.6218L-41.4965 54.7903L-41.1862 54.9638L-40.8799 55.1421L-40.5775 55.3253L-40.2791 55.5133L-39.9849 55.7059L-39.6949 55.903L-39.4091 56.1047L-39.1276 56.3108L-38.8505 56.5212L-38.5778 56.7358L-38.3097 56.9546L-38.0461 57.1774L-37.7871 57.4042L-37.5328 57.6348L-37.2832 57.8692L-37.0385 58.1073L-36.7985 58.349L-36.5635 58.5942L-36.3334 58.8428L-36.1082 59.0947L-35.8881 59.3498L-35.673 59.608L-35.463 59.8692L-35.2582 60.1334L-35.0586 60.4003L-34.8641 60.67L-34.6749 60.9423L-34.491 61.2171L-34.3124 61.4944L-34.1391 61.774L-33.9712 62.0558L-33.8086 62.3397L-33.6514 62.6257L-33.4997 62.9136L-33.3534 63.2033L-33.2126 63.4948L-33.0772 63.7878L-32.9473 64.0824L-32.8229 64.3785L-32.704 64.6759L-32.5906 64.9745L-32.4828 65.2742L-32.3805 65.5749L-32.2836 65.8766L-32.1923 66.1792L-32.1066 66.4824L-32.0263 66.7863L-31.9516 67.0908L-31.8824 67.3957L-31.8187 67.7009L-31.7604 68.0064L-31.7077 68.312L-31.6604 68.6177L-31.6186 68.9233L-31.5822 69.2288L-31.5512 69.5341L-31.5257 69.8391L-31.5055 70.1436L-31.4907 70.4476L-31.4812 70.7511L-31.477 71.0538L-31.4781 71.3558L-31.4844 71.6569L-31.496 71.957L-31.5128 72.2561L-31.5347 72.554L-31.5618 72.8507L-31.5939 73.1462L-31.6311 73.4402L-31.6733 73.7327L-31.7204 74.0237L-31.7726 74.313L-31.8295 74.6007L-31.8914 74.8865L-31.958 75.1704L-32.0294 75.4524L-32.1055 75.7323L-32.1863 76.0101L-32.2716 76.2858L-32.3616 76.5591L-32.456 76.8302L-32.5549 77.0988L-32.6581 77.3649L-32.7658 77.6285L-32.8777 77.8895L-32.9938 78.1478L-33.1141 78.4033L-33.2385 78.6561L-33.3669 78.9059L-33.4994 79.1528L-33.6357 79.3967L-33.776 79.6376L-33.92 79.8753L-34.0677 80.1098L-34.2191 80.3412L-34.3742 80.5692L-34.5327 80.7939L-34.6947 81.0152L-34.8601 81.233L-35.0288 81.4474L-35.2008 81.6582L-35.376 81.8654L-35.5543 82.069L-35.7356 82.2689L-35.9199 82.4651L-36.1071 82.6575L-36.2971 82.8461L-36.4898 83.0309L-36.6852 83.2118L-36.8833 83.3888L-37.0838 83.5619L-37.2868 83.731L-37.4922 83.896L-37.6998 84.057L-37.9097 84.214L-38.1217 84.3669L-38.3358 84.5156L-38.5518 84.6602L-38.7698 84.8006L-38.9896 84.9369L-39.2111 85.0689L-39.4344 85.1967L-39.6592 85.3202L-39.8855 85.4395L-40.1133 85.5545L-40.3424 85.6652L-40.5728 85.7717L-40.8044 85.8738L-41.0371 85.9716" stroke="black"/>
 </g>
</svg>
