<?xml version="1.0" encoding="utf-8"?>
<svg xmlns="http://www.w3.org/2000/svg" fill="none" version="1.1" viewBox="-155.455 -379.425 310.91 758.85" x="-155.455pt" y="-379.425pt" width="310.91pt" height="758.85pt" stroke-width="0.566929" stroke-miterlimit="10.000000">
 <path d="M59.4944 -351.496L154.455 -351.496L154.455 -378.425L59.4944 -378.425Z" fill="black"/>
 <path d="M107.4 -357.165L107.967 -357.165"/>
 <g transform="matrix(1.000000,-0.000000,-0.000000,1.000000,107.683356,-357.165354)">
  <path d="M-40.4207 -0M-30.8333 -6.75664C-31.2672 -5.70286 -32.0317 -3.8019 -32.197 -3.07872L-32.2177 -3.07872C-32.4036 -3.82257 -33.2508 -5.86816 -33.6847 -6.96327L-36.3295 -13.4926C-36.6808 -14.3398 -37.342 -14.3398 -37.7139 -14.3398L-39.4289 -14.3398C-40.1727 -14.3398 -40.4207 -14.1125 -40.4207 -13.348L-40.4207 -0.991801C-40.4207 -0.24795 -40.1934 -0 -39.4289 -0L-38.871 -0C-38.0858 -0 -37.8792 -0.268613 -37.8792 -0.991801L-37.8792 -11.6743L-37.8585 -11.6743C-37.6313 -10.7445 -36.7014 -8.45097 -36.2055 -7.23188L-33.8087 -1.34306C-33.4368 -0.454575 -32.9409 -0.454575 -32.2383 -0.454575C-31.5358 -0.454575 -31.0399 -0.454575 -30.668 -1.34306L-28.0232 -7.8311C-27.8166 -8.327 -26.7008 -11.1371 -26.5561 -11.6743L-26.5355 -11.6743L-26.5355 -0.991801C-26.5355 -0.3306 -26.3908 -0 -25.5437 -0L-24.9858 -0C-24.2006 -0 -23.994 -0.268613 -23.994 -0.991801L-23.994 -13.348C-23.994 -14.0092 -24.1386 -14.3398 -24.9858 -14.3398L-26.7214 -14.3398C-27.238 -14.3398 -27.7546 -14.2985 -28.1058 -13.4513ZM-28.1058 -13.4513" fill="#fff"/>
 </g>
 <g transform="matrix(1.000000,-0.000000,-0.000000,1.000000,107.683356,-357.165354)">
  <path d="M-20.2172 -0M-10.6298 -6.75664C-11.0637 -5.70286 -11.8283 -3.8019 -11.9936 -3.07872L-12.0142 -3.07872C-12.2002 -3.82257 -13.0473 -5.86816 -13.4813 -6.96327L-16.1261 -13.4926C-16.4773 -14.3398 -17.1385 -14.3398 -17.5104 -14.3398L-19.2254 -14.3398C-19.9693 -14.3398 -20.2172 -14.1125 -20.2172 -13.348L-20.2172 -0.991801C-20.2172 -0.24795 -19.9899 -0 -19.2254 -0L-18.6675 -0C-17.8824 -0 -17.6757 -0.268613 -17.6757 -0.991801L-17.6757 -11.6743L-17.6551 -11.6743C-17.4278 -10.7445 -16.498 -8.45097 -16.0021 -7.23188L-13.6052 -1.34306C-13.2333 -0.454575 -12.7374 -0.454575 -12.0349 -0.454575C-11.3324 -0.454575 -10.8364 -0.454575 -10.4645 -1.34306L-7.81972 -7.8311C-7.6131 -8.327 -6.49732 -11.1371 -6.35268 -11.6743L-6.33202 -11.6743L-6.33202 -0.991801C-6.33202 -0.3306 -6.18738 -0 -5.34022 -0L-4.78233 -0C-3.99716 -0 -3.79053 -0.268613 -3.79053 -0.991801L-3.79053 -13.348C-3.79053 -14.0092 -3.93517 -14.3398 -4.78233 -14.3398L-6.51798 -14.3398C-7.03455 -14.3398 -7.55111 -14.2985 -7.90237 -13.4513ZM-7.90237 -13.4513" fill="#fff"/>
 </g>
 <g transform="matrix(1.000000,-0.000000,-0.000000,1.000000,107.683356,-357.165354)">
  <path d="M-1.02624 -0M7.89997 -13.4513C7.59003 -14.3398 6.99082 -14.3398 6.57757 -14.3398L4.75927 -14.3398C4.34602 -14.3398 3.7468 -14.3398 3.43686 -13.4513L-0.922928 -0.971138C-1.02624 -0.702526 -1.02624 -0.661201 -1.02624 -0.557888C-1.02624 -0 -0.509677 -0 -0.220402 -0L0.523449 -0C0.895374 -0 1.53591 -0 1.82519 -0.826501L2.63103 -3.12004L8.35454 -3.12004L9.05707 -1.13644C9.30502 -0.41325 9.44966 -0 10.4415 -0L11.5572 -0C11.8465 -0 12.3631 -0 12.3631 -0.557888C12.3631 -0.661201 12.3631 -0.702526 12.2598 -0.971138ZM12.2598 -0.971138M4.7386 -9.27747C5.04854 -10.1866 5.31715 -10.9718 5.48245 -11.7156L5.50312 -11.7156C5.60643 -11.2197 5.60643 -11.1784 5.77173 -10.7032L7.73467 -4.89702L3.2509 -4.89702ZM3.2509 -4.89702" fill="#fff"/>
 </g>
 <g transform="matrix(1.000000,-0.000000,-0.000000,1.000000,107.683356,-357.165354)">
  <path d="M13.8876 -0M25.8512 -2.95474C25.8512 -3.12004 25.7065 -3.20269 25.6239 -3.20269C25.128 -3.20269 24.5288 -1.85963 21.6154 -1.85963C17.9788 -1.85963 16.9456 -4.09118 16.9456 -7.19056C16.9456 -10.2693 18.0614 -12.5008 21.4501 -12.5008C23.289 -12.5008 24.2602 -11.7776 24.8181 -11.3231C24.942 -11.2197 25.004 -11.1371 25.1487 -11.1371C25.2313 -11.1371 25.3346 -11.2404 25.3553 -11.3231L25.7685 -13.6166C25.7892 -13.6993 25.7685 -13.7819 25.6032 -13.8439C24.3841 -14.2985 23.1237 -14.5877 21.512 -14.5877C16.4704 -14.5877 13.8876 -12.1289 13.8876 -7.21122C13.8876 -2.1489 16.5117 0.206625 21.5327 0.206625C23.289 0.206625 24.3841 -0.041325 25.8925 -0.971138C26.0578 -1.07445 26.0165 -1.21909 26.0165 -1.21909ZM26.0165 -1.21909" fill="#fff"/>
 </g>
 <g transform="matrix(1.000000,-0.000000,-0.000000,1.000000,107.683356,-357.165354)">
  <path d="M28.0162 -0M36.9424 -13.4513C36.6325 -14.3398 36.0333 -14.3398 35.62 -14.3398L33.8017 -14.3398C33.3885 -14.3398 32.7893 -14.3398 32.4793 -13.4513L28.1195 -0.971138C28.0162 -0.702526 28.0162 -0.661201 28.0162 -0.557888C28.0162 -0 28.5328 -0 28.8221 -0L29.5659 -0C29.9378 -0 30.5784 -0 30.8676 -0.826501L31.6735 -3.12004L37.397 -3.12004L38.0995 -1.13644C38.3475 -0.41325 38.4921 -0 39.4839 -0L40.5997 -0C40.889 -0 41.4055 -0 41.4055 -0.557888C41.4055 -0.661201 41.4055 -0.702526 41.3022 -0.971138ZM41.3022 -0.971138M33.7811 -9.27747C34.091 -10.1866 34.3596 -10.9718 34.5249 -11.7156L34.5456 -11.7156C34.6489 -11.2197 34.6489 -11.1784 34.8142 -10.7032L36.7771 -4.89702L32.2934 -4.89702ZM32.2934 -4.89702" fill="#fff"/>
 </g>
 <path d="M107.4 -331.654L107.967 -331.654"/>
 <g transform="matrix(1.000000,-0.000000,-0.000000,1.000000,107.683356,-331.653543)">
  <path d="M-20.8811 -0M-18.8295 -5.15028C-19.0734 -5.13594 -19.1308 -5.12159 -19.1308 -4.99248C-19.1308 -4.84901 -19.0591 -4.84901 -18.8009 -4.84901L-18.1409 -4.84901C-16.9215 -4.84901 -16.3763 -3.84478 -16.3763 -2.46755C-16.3763 -0.588194 -17.3519 -0.0860772 -18.0549 -0.0860772C-18.7435 -0.0860772 -19.9199 -0.41604 -20.3359 -1.36289C-19.8768 -1.29116 -19.4608 -1.54939 -19.4608 -2.06585C-19.4608 -2.48189 -19.7621 -2.76882 -20.1637 -2.76882C-20.5081 -2.76882 -20.8811 -2.56797 -20.8811 -2.02281C-20.8811 -0.746002 -19.6042 0.30127 -18.0118 0.30127C-16.3046 0.30127 -15.0422 -1.00423 -15.0422 -2.4532C-15.0422 -3.77305 -16.1038 -4.80598 -17.481 -5.04986C-16.2329 -5.40852 -15.4295 -6.45579 -15.4295 -7.57479C-15.4295 -8.70814 -16.6059 -9.54022 -17.9975 -9.54022C-19.4321 -9.54022 -20.4937 -8.6651 -20.4937 -7.61783C-20.4937 -7.04398 -20.049 -6.92921 -19.8338 -6.92921C-19.5325 -6.92921 -19.1882 -7.14441 -19.1882 -7.57479C-19.1882 -8.03387 -19.5325 -8.23472 -19.8481 -8.23472C-19.9342 -8.23472 -19.9629 -8.23472 -20.0059 -8.22037C-19.4608 -9.19591 -18.1122 -9.19591 -18.0405 -9.19591C-17.5671 -9.19591 -16.6346 -8.98072 -16.6346 -7.57479C-16.6346 -7.30221 -16.6776 -6.49883 -17.0937 -5.88194C-17.524 -5.25071 -18.0118 -5.20767 -18.3992 -5.19332ZM-18.3992 -5.19332" fill="black"/>
 </g>
 <g transform="matrix(1.000000,-0.000000,-0.000000,1.000000,107.683356,-331.653543)">
  <path d="M-8.9886 -0M-3.59443 -10.2432C-3.5227 -10.4297 -3.5227 -10.4584 -3.5227 -10.4871C-3.5227 -10.6736 -3.66617 -10.7596 -3.78094 -10.7596C-3.96744 -10.7596 -4.01047 -10.6305 -4.08221 -10.444L-8.91687 3.07009C-8.9886 3.25659 -8.9886 3.28528 -8.9886 3.31397C-8.9886 3.47178 -8.87383 3.58655 -8.71603 3.58655C-8.52953 3.58655 -8.48649 3.44309 -8.4291 3.28528ZM-8.4291 3.28528" fill="black"/>
 </g>
 <g transform="matrix(1.000000,-0.000000,-0.000000,1.000000,107.683356,-331.653543)">
  <path d="M2.53084 -0M7.19336 -4.17474C7.19336 -0.789041 5.68701 -0.0860772 4.82624 -0.0860772C4.48193 -0.0860772 3.72158 -0.129116 3.36292 -0.631233L3.449 -0.631233C3.54942 -0.60254 4.06589 -0.688617 4.06589 -1.21943C4.06589 -1.53504 3.85069 -1.80762 3.47769 -1.80762C3.10469 -1.80762 2.87515 -1.56374 2.87515 -1.19073C2.87515 -0.30127 3.59246 0.30127 4.84058 0.30127C6.63386 0.30127 8.36975 -1.60677 8.36975 -4.7199C8.36975 -8.57903 6.76297 -9.54022 5.50051 -9.54022C3.92243 -9.54022 2.53084 -8.22037 2.53084 -6.32667C2.53084 -4.43297 3.86504 -3.14182 5.29966 -3.14182C6.36128 -3.14182 6.90643 -3.91651 7.19336 -4.64817ZM7.19336 -4.64817M5.35705 -3.42874C4.45324 -3.42874 4.06589 -4.1604 3.93677 -4.43297C3.70723 -4.97813 3.70723 -5.66675 3.70723 -6.31233C3.70723 -7.11571 3.70723 -7.80433 4.08023 -8.39252C4.33847 -8.77987 4.72581 -9.19591 5.50051 -9.19591C6.31824 -9.19591 6.73428 -8.4786 6.87774 -8.14864C7.16467 -7.44568 7.16467 -6.22625 7.16467 -6.01106C7.16467 -4.80598 6.61951 -3.42874 5.35705 -3.42874ZM5.35705 -3.42874" fill="black"/>
 </g>
 <g transform="matrix(1.000000,-0.000000,-0.000000,1.000000,107.683356,-331.653543)">
  <path d="M9.55442 -0M15.3933 -4.59078C15.3933 -5.78152 15.3216 -6.94356 14.8051 -8.03387C14.2169 -9.2246 13.184 -9.54022 12.481 -9.54022C11.649 -9.54022 10.6304 -9.12418 10.0996 -7.93345C9.69788 -7.02964 9.55442 -6.14017 9.55442 -4.59078C9.55442 -3.1992 9.65484 -2.15193 10.1713 -1.13335C10.7308 -0.0430386 11.7207 0.30127 12.4667 0.30127C13.7148 0.30127 14.4321 -0.444732 14.8482 -1.27681C15.3646 -2.35278 15.3933 -3.7587 15.3933 -4.59078ZM15.3933 -4.59078M12.4667 0.0143462C12.0076 0.0143462 11.0751 -0.243885 10.8025 -1.80762C10.6447 -2.66839 10.6447 -3.7587 10.6447 -4.76294C10.6447 -5.93933 10.6447 -7.00094 10.8743 -7.84737C11.1182 -8.80856 11.8498 -9.2533 12.4667 -9.2533C13.0119 -9.2533 13.8439 -8.92333 14.1165 -7.68956C14.303 -6.87183 14.303 -5.73848 14.303 -4.76294C14.303 -3.80174 14.303 -2.71143 14.1452 -1.83631C13.8726 -0.258232 12.9688 0.0143462 12.4667 0.0143462ZM12.4667 0.0143462" fill="black"/>
 </g>
 <g transform="matrix(1.000000,-0.000000,-0.000000,1.000000,107.683356,-331.653543)">
  <path d="M16.5377 -5.20611M20.4132 -7.69677C20.4132 -8.76277 19.5265 -9.62952 18.4805 -9.62952C17.4045 -9.62952 16.5377 -8.74285 16.5377 -7.69677C16.5377 -6.64073 17.4045 -5.76402 18.4805 -5.76402C19.5265 -5.76402 20.4132 -6.63077 20.4132 -7.69677ZM20.4132 -7.69677M18.4805 -6.16252C17.6137 -6.16252 16.9362 -6.85991 16.9362 -7.69677C16.9362 -8.53363 17.6237 -9.23102 18.4805 -9.23102C19.3074 -9.23102 20.0147 -8.55356 20.0147 -7.69677C20.0147 -6.83998 19.3074 -6.16252 18.4805 -6.16252ZM18.4805 -6.16252" fill="black"/>
 </g>
 <g stroke-linecap="round" stroke-linejoin="round">
  <path d="M-123.564 285.752L-123.564 -378.425" stroke="black"/>
 </g>
 <g stroke-linecap="butt" stroke-linejoin="round" stroke-dasharray="2.000000" stroke-dashoffset="0.000000">
  <path d="M-123.564 285.752L19.5757 -248.452" stroke="black"/>
 </g>
 <g stroke-linecap="round" stroke-linejoin="round">
  <path d="M-123.564 285.752L106.693 -113.065" stroke="black"/>
 </g>
 <g stroke-linecap="butt" stroke-linejoin="round" stroke-dasharray="2.000000" stroke-dashoffset="0.000000">
  <path d="M-123.564 285.752L147.585 14.6029" stroke="black"/>
 </g>
 <g stroke-linecap="round" stroke-linejoin="round">
  <path d="M-123.564 285.752L152.961 126.101" stroke="black"/>
 </g>
 <g stroke-linecap="butt" stroke-linejoin="round" stroke-dasharray="2.000000" stroke-dashoffset="0.000000">
  <path d="M-123.564 285.752L133.255 216.938" stroke="black"/>
 </g>
 <g stroke-linecap="round" stroke-linejoin="round">
  <path d="M-123.564 285.752L97.8285 285.752" stroke="black"/>
 </g>
 <g stroke-linecap="butt" stroke-linejoin="round" stroke-dasharray="2.000000" stroke-dashoffset="0.000000">
  <path d="M-123.564 285.752L54.5042 333.465" stroke="black"/>
 </g>
 <g stroke-linecap="round" stroke-linejoin="round">
  <path d="M-123.564 285.752L9.37519 362.505" stroke="black"/>
 </g>
 <g stroke-linecap="butt" stroke-linejoin="round" stroke-dasharray="2.000000" stroke-dashoffset="0.000000">
  <path d="M-123.564 285.752L-33.1809 376.135" stroke="black"/>
 </g>
 <g stroke-linecap="round" stroke-linejoin="round">
  <path d="M-123.564 285.752L-70.3468 377.927" stroke="black"/>
 </g>
 <g stroke-linecap="butt" stroke-linejoin="round" stroke-dasharray="2.000000" stroke-dashoffset="0.000000">
  <path d="M-123.564 285.752L-100.626 371.358" stroke="black"/>
 </g>
 <g stroke-linecap="round" stroke-linejoin="round">
  <path d="M-123.564 285.752L-123.564 359.55" stroke="black"/>
 </g>
 <g stroke-linecap="butt" stroke-linejoin="round" stroke-dasharray="2.000000" stroke-dashoffset="0.000000">
  <path d="M-123.564 285.752L-139.468 345.108" stroke="black"/>
 </g>
 <g stroke-linecap="round" stroke-linejoin="round">
  <path d="M-123.564 285.752L-149.148 330.065" stroke="black"/>
 </g>
 <g stroke-linecap="butt" stroke-linejoin="round" stroke-dasharray="2.000000" stroke-dashoffset="0.000000">
  <path d="M-123.564 285.752L-153.692 315.88" stroke="black"/>
 </g>
 <g stroke-linecap="round" stroke-linejoin="round">
  <path d="M-123.564 285.752L-154.289 303.491" stroke="black"/>
 </g>
 <g stroke-linecap="butt" stroke-linejoin="round" stroke-dasharray="2.000000" stroke-dashoffset="0.000000">
  <path d="M-123.564 285.752L-152.099 293.398" stroke="black"/>
 </g>
 <g stroke-linecap="round" stroke-linejoin="round">
  <path d="M-123.564 285.752L-148.163 285.752" stroke="black"/>
 </g>
 <g stroke-linecap="butt" stroke-linejoin="round" stroke-dasharray="2.000000" stroke-dashoffset="0.000000">
  <path d="M-123.564 285.752L-143.349 280.451" stroke="black"/>
 </g>
 <g stroke-linecap="round" stroke-linejoin="round">
  <path d="M-123.564 285.752L-138.335 277.224" stroke="black"/>
 </g>
 <g stroke-linecap="butt" stroke-linejoin="round" stroke-dasharray="2.000000" stroke-dashoffset="0.000000">
  <path d="M-123.564 285.752L-133.607 275.71" stroke="black"/>
 </g>
 <g stroke-linecap="round" stroke-linejoin="round">
  <path d="M-123.564 285.752L-129.477 275.511" stroke="black"/>
 </g>
 <g stroke-linecap="butt" stroke-linejoin="round" stroke-dasharray="2.000000" stroke-dashoffset="0.000000">
  <path d="M-123.564 285.752L-126.113 276.24" stroke="black"/>
 </g>
 <g stroke-linecap="round" stroke-linejoin="round">
  <path d="M-123.564 285.752L-123.564 277.552" stroke="black"/>
 </g>
 <g stroke-linecap="round" stroke-linejoin="round" stroke-width="1.603518">
  <path d="M-123.564 -378.425L-112.113 -370.267L-100.944 -362.012L-90.0536 -353.665L-79.4412 -345.233L-69.1045 -336.722L-59.0416 -328.138L-49.2503 -319.485L-39.7284 -310.769L-30.4737 -301.997L-21.484 -293.172L-12.7568 -284.302L-4.28972 -275.389L3.91968 -266.44L11.874 -257.46L19.5757 -248.452L27.0275 -239.423L34.2322 -230.376L41.1924 -221.316L47.9108 -212.247L54.3904 -203.174L60.634 -194.1L66.6445 -185.03L72.4247 -175.968L77.9778 -166.918L83.3065 -157.883L88.4141 -148.867L93.3035 -139.874L97.9778 -130.907L102.44 -121.97L106.693 -113.065L110.741 -104.197L114.586 -95.3676L118.232 -86.5804L121.681 -77.8383L124.937 -69.1441L128.003 -60.5006L130.883 -51.9103L133.579 -43.376L136.095 -34.8999L138.434 -26.4847L140.599 -18.1324L142.593 -9.84545L144.42 -1.62587L146.083 6.52424L147.585 14.6029L148.93 22.6082L150.119 30.5384L151.158 38.3917L152.048 46.1664L152.793 53.861L153.397 61.4739L153.861 69.0037L154.191 76.4491L154.387 83.8086L154.455 91.0812L154.396 98.2656L154.215 105.361L153.913 112.366L153.494 119.279L152.961 126.101L152.317 132.829L151.564 139.464L150.707 146.004L149.748 152.449L148.689 158.799L147.533 165.052L146.284 171.208L144.945 177.268L143.517 183.229L142.004 189.093L140.408 194.859L138.733 200.527L136.981 206.096L135.154 211.566L133.255 216.938L131.287 222.211L129.252 227.385L127.153 232.461L124.992 237.438L122.772 242.317L120.495 247.097L118.164 251.78L115.78 256.364L113.347 260.852L110.866 265.242L108.34 269.536L105.771 273.733L103.162 277.835L100.513 281.841L97.8285 285.752L95.1091 289.569L92.3573 293.292L89.5751 296.922L86.7645 300.46L83.9275 303.905L81.0659 307.26L78.1816 310.523L75.2765 313.697L72.3523 316.782L69.4109 319.779L66.4539 322.688L63.4831 325.51L60.5002 328.247L57.5067 330.898L54.5042 333.465L51.4944 335.949L48.4787 338.351L45.4586 340.671L42.4357 342.91L39.4113 345.07L36.3867 347.152L33.3635 349.155L30.3428 351.082L27.3261 352.933L24.3144 354.709L21.3092 356.412L18.3115 358.041L15.3225 359.599L12.3434 361.087L9.37519 362.505L6.41902 363.854L3.47591 365.136L0.546849 366.351L-2.36718 367.5L-5.26525 368.586L-8.14643 369.608L-11.0098 370.568L-13.8546 371.467L-16.68 372.305L-19.4851 373.085L-22.2691 373.806L-25.0315 374.471L-27.7713 375.08L-30.488 375.635L-33.1809 376.135L-35.8494 376.583L-38.4928 376.98L-41.1105 377.326L-43.7021 377.623L-46.267 377.871L-48.8046 378.072L-51.3145 378.227L-53.7963 378.337L-56.2495 378.403L-58.6737 378.425L-61.0685 378.406L-63.4335 378.345L-65.7685 378.244L-68.073 378.105L-70.3468 377.927L-72.5896 377.712L-74.8012 377.462L-76.9813 377.176L-79.1297 376.856L-81.2462 376.503L-83.3306 376.118L-85.3827 375.702L-87.4025 375.255L-89.3898 374.779L-91.3444 374.275L-93.2663 373.743L-95.1555 373.185L-97.0119 372.6L-98.8353 371.991L-100.626 371.358L-102.384 370.702L-104.108 370.024L-105.8 369.324L-107.459 368.604L-109.085 367.864L-110.679 367.105L-112.24 366.328L-113.768 365.534L-115.264 364.723L-116.727 363.896L-118.159 363.054L-119.558 362.197L-120.925 361.327L-122.26 360.445L-123.564 359.55L-124.836 358.643L-126.077 357.726L-127.287 356.799L-128.467 355.862L-129.615 354.916L-130.733 353.962L-131.821 353.001L-132.879 352.032L-133.907 351.058L-134.906 350.077L-135.876 349.092L-136.817 348.101L-137.729 347.107L-138.613 346.109L-139.468 345.108L-140.296 344.105L-141.097 343.1L-141.87 342.093L-142.617 341.085L-143.337 340.077L-144.03 339.069L-144.698 338.061L-145.341 337.054L-145.958 336.049L-146.55 335.045L-147.117 334.043L-147.66 333.044L-148.18 332.048L-148.676 331.055L-149.148 330.065L-149.598 329.08L-150.025 328.099L-150.43 327.122L-150.813 326.151L-151.175 325.185L-151.516 324.225L-151.836 323.27L-152.135 322.322L-152.415 321.38L-152.675 320.445L-152.915 319.517L-153.137 318.596L-153.34 317.683L-153.525 316.778L-153.692 315.88L-153.841 314.99L-153.973 314.109L-154.089 313.237L-154.188 312.373L-154.27 311.518L-154.337 310.672L-154.389 309.835L-154.426 309.008L-154.448 308.19L-154.455 307.382L-154.448 306.584L-154.428 305.796L-154.395 305.017L-154.348 304.249L-154.289 303.491L-154.217 302.744L-154.134 302.006L-154.039 301.28L-153.932 300.564L-153.814 299.858L-153.686 299.163L-153.547 298.479L-153.398 297.806L-153.24 297.144L-153.072 296.492L-152.894 295.851L-152.708 295.222L-152.513 294.603L-152.31 293.995L-152.099 293.398L-151.881 292.812L-151.655 292.237L-151.421 291.673L-151.181 291.12L-150.935 290.578L-150.682 290.047L-150.423 289.527L-150.158 289.017L-149.887 288.519L-149.612 288.031L-149.331 287.554L-149.046 287.088L-148.756 286.632L-148.461 286.187L-148.163 285.752L-147.861 285.328L-147.555 284.914L-147.246 284.511L-146.934 284.118L-146.619 283.735L-146.301 283.362L-145.98 283L-145.657 282.647L-145.332 282.304L-145.006 281.971L-144.677 281.648L-144.347 281.335L-144.016 281.031L-143.683 280.736L-143.349 280.451L-143.015 280.175L-142.68 279.908L-142.344 279.65L-142.008 279.401L-141.672 279.161L-141.336 278.93L-141 278.707L-140.665 278.493L-140.33 278.288L-139.995 278.09L-139.661 277.901L-139.328 277.72L-138.996 277.547L-138.665 277.382L-138.335 277.224L-138.007 277.074L-137.68 276.932L-137.354 276.797L-137.03 276.669L-136.708 276.548L-136.388 276.435L-136.07 276.328L-135.754 276.228L-135.44 276.135L-135.128 276.049L-134.819 275.968L-134.512 275.895L-134.208 275.827L-133.906 275.765L-133.607 275.71L-133.31 275.66L-133.016 275.616L-132.726 275.577L-132.438 275.544L-132.153 275.517L-131.871 275.494L-131.592 275.477L-131.316 275.465L-131.043 275.458L-130.774 275.455L-130.508 275.457L-130.245 275.464L-129.986 275.475L-129.73 275.491L-129.477 275.511L-129.228 275.534L-128.982 275.562L-128.74 275.594L-128.501 275.63L-128.266 275.669L-128.034 275.712L-127.806 275.758L-127.582 275.807L-127.361 275.86L-127.144 275.916L-126.93 275.975L-126.721 276.037L-126.514 276.102L-126.312 276.17L-126.113 276.24L-125.917 276.313L-125.726 276.389L-125.538 276.466L-125.353 276.546L-125.173 276.629L-124.996 276.713L-124.822 276.799L-124.652 276.888L-124.486 276.978L-124.324 277.07L-124.165 277.163L-124.009 277.258L-123.857 277.355L-123.709 277.453L-123.564 277.552" stroke="black"/>
 </g>
</svg>
