<?xml version="1.0" encoding="utf-8"?>
<svg xmlns="http://www.w3.org/2000/svg" fill="none" version="1.1" viewBox="-165.353 -379.425 330.706 758.85" x="-165.353pt" y="-379.425pt" width="330.706pt" height="758.85pt" stroke-width="0.566929" stroke-miterlimit="10.000000">
 <path d="M69.3921 -351.496L164.353 -351.496L164.353 -378.425L69.3921 -378.425Z" fill="black"/>
 <path d="M117.298 -357.165L117.865 -357.165"/>
 <g transform="matrix(1.000000,-0.000000,-0.000000,1.000000,117.581111,-357.165354)">
  <path d="M-40.4207 -0M-30.8333 -6.75664C-31.2672 -5.70286 -32.0317 -3.8019 -32.197 -3.07872L-32.2177 -3.07872C-32.4036 -3.82257 -33.2508 -5.86816 -33.6847 -6.96327L-36.3295 -13.4926C-36.6808 -14.3398 -37.342 -14.3398 -37.7139 -14.3398L-39.4289 -14.3398C-40.1727 -14.3398 -40.4207 -14.1125 -40.4207 -13.348L-40.4207 -0.991801C-40.4207 -0.24795 -40.1934 -0 -39.4289 -0L-38.871 -0C-38.0858 -0 -37.8792 -0.268613 -37.8792 -0.991801L-37.8792 -11.6743L-37.8585 -11.6743C-37.6313 -10.7445 -36.7014 -8.45097 -36.2055 -7.23188L-33.8087 -1.34306C-33.4368 -0.454575 -32.9409 -0.454575 -32.2383 -0.454575C-31.5358 -0.454575 -31.0399 -0.454575 -30.668 -1.34306L-28.0232 -7.8311C-27.8166 -8.327 -26.7008 -11.1371 -26.5561 -11.6743L-26.5355 -11.6743L-26.5355 -0.991801C-26.5355 -0.3306 -26.3908 -0 -25.5437 -0L-24.9858 -0C-24.2006 -0 -23.994 -0.268613 -23.994 -0.991801L-23.994 -13.348C-23.994 -14.0092 -24.1386 -14.3398 -24.9858 -14.3398L-26.7214 -14.3398C-27.238 -14.3398 -27.7546 -14.2985 -28.1058 -13.4513ZM-28.1058 -13.4513" fill="#fff"/>
 </g>
 <g transform="matrix(1.000000,-0.000000,-0.000000,1.000000,117.581111,-357.165354)">
  <path d="M-20.2172 -0M-10.6298 -6.75664C-11.0637 -5.70286 -11.8283 -3.8019 -11.9936 -3.07872L-12.0142 -3.07872C-12.2002 -3.82257 -13.0473 -5.86816 -13.4813 -6.96327L-16.1261 -13.4926C-16.4773 -14.3398 -17.1385 -14.3398 -17.5104 -14.3398L-19.2254 -14.3398C-19.9693 -14.3398 -20.2172 -14.1125 -20.2172 -13.348L-20.2172 -0.991801C-20.2172 -0.24795 -19.9899 -0 -19.2254 -0L-18.6675 -0C-17.8824 -0 -17.6757 -0.268613 -17.6757 -0.991801L-17.6757 -11.6743L-17.6551 -11.6743C-17.4278 -10.7445 -16.498 -8.45097 -16.0021 -7.23188L-13.6052 -1.34306C-13.2333 -0.454575 -12.7374 -0.454575 -12.0349 -0.454575C-11.3324 -0.454575 -10.8364 -0.454575 -10.4645 -1.34306L-7.81972 -7.8311C-7.6131 -8.327 -6.49732 -11.1371 -6.35268 -11.6743L-6.33202 -11.6743L-6.33202 -0.991801C-6.33202 -0.3306 -6.18738 -0 -5.34022 -0L-4.78233 -0C-3.99716 -0 -3.79053 -0.268613 -3.79053 -0.991801L-3.79053 -13.348C-3.79053 -14.0092 -3.93517 -14.3398 -4.78233 -14.3398L-6.51798 -14.3398C-7.03455 -14.3398 -7.55111 -14.2985 -7.90237 -13.4513ZM-7.90237 -13.4513" fill="#fff"/>
 </g>
 <g transform="matrix(1.000000,-0.000000,-0.000000,1.000000,117.581111,-357.165354)">
  <path d="M-1.02624 -0M7.89997 -13.4513C7.59003 -14.3398 6.99082 -14.3398 6.57757 -14.3398L4.75927 -14.3398C4.34602 -14.3398 3.7468 -14.3398 3.43686 -13.4513L-0.922928 -0.971138C-1.02624 -0.702526 -1.02624 -0.661201 -1.02624 -0.557888C-1.02624 -0 -0.509677 -0 -0.220402 -0L0.523449 -0C0.895374 -0 1.53591 -0 1.82519 -0.826501L2.63103 -3.12004L8.35454 -3.12004L9.05707 -1.13644C9.30502 -0.41325 9.44966 -0 10.4415 -0L11.5572 -0C11.8465 -0 12.3631 -0 12.3631 -0.557888C12.3631 -0.661201 12.3631 -0.702526 12.2598 -0.971138ZM12.2598 -0.971138M4.7386 -9.27747C5.04854 -10.1866 5.31715 -10.9718 5.48245 -11.7156L5.50312 -11.7156C5.60643 -11.2197 5.60643 -11.1784 5.77173 -10.7032L7.73467 -4.89702L3.2509 -4.89702ZM3.2509 -4.89702" fill="#fff"/>
 </g>
 <g transform="matrix(1.000000,-0.000000,-0.000000,1.000000,117.581111,-357.165354)">
  <path d="M13.8876 -0M25.8512 -2.95474C25.8512 -3.12004 25.7065 -3.20269 25.6239 -3.20269C25.128 -3.20269 24.5288 -1.85963 21.6154 -1.85963C17.9788 -1.85963 16.9456 -4.09118 16.9456 -7.19056C16.9456 -10.2693 18.0614 -12.5008 21.4501 -12.5008C23.289 -12.5008 24.2602 -11.7776 24.8181 -11.3231C24.942 -11.2197 25.004 -11.1371 25.1487 -11.1371C25.2313 -11.1371 25.3346 -11.2404 25.3553 -11.3231L25.7685 -13.6166C25.7892 -13.6993 25.7685 -13.7819 25.6032 -13.8439C24.3841 -14.2985 23.1237 -14.5877 21.512 -14.5877C16.4704 -14.5877 13.8876 -12.1289 13.8876 -7.21122C13.8876 -2.1489 16.5117 0.206625 21.5327 0.206625C23.289 0.206625 24.3841 -0.041325 25.8925 -0.971138C26.0578 -1.07445 26.0165 -1.21909 26.0165 -1.21909ZM26.0165 -1.21909" fill="#fff"/>
 </g>
 <g transform="matrix(1.000000,-0.000000,-0.000000,1.000000,117.581111,-357.165354)">
  <path d="M28.0162 -0M36.9424 -13.4513C36.6325 -14.3398 36.0333 -14.3398 35.62 -14.3398L33.8017 -14.3398C33.3885 -14.3398 32.7893 -14.3398 32.4793 -13.4513L28.1195 -0.971138C28.0162 -0.702526 28.0162 -0.661201 28.0162 -0.557888C28.0162 -0 28.5328 -0 28.8221 -0L29.5659 -0C29.9378 -0 30.5784 -0 30.8676 -0.826501L31.6735 -3.12004L37.397 -3.12004L38.0995 -1.13644C38.3475 -0.41325 38.4921 -0 39.4839 -0L40.5997 -0C40.889 -0 41.4055 -0 41.4055 -0.557888C41.4055 -0.661201 41.4055 -0.702526 41.3022 -0.971138ZM41.3022 -0.971138M33.7811 -9.27747C34.091 -10.1866 34.3596 -10.9718 34.5249 -11.7156L34.5456 -11.7156C34.6489 -11.2197 34.6489 -11.1784 34.8142 -10.7032L36.7771 -4.89702L32.2934 -4.89702ZM32.2934 -4.89702" fill="#fff"/>
 </g>
 <path d="M117.298 -331.654L117.865 -331.654"/>
 <g transform="matrix(1.000000,-0.000000,-0.000000,1.000000,117.581111,-331.653543)">
  <path d="M-20.5671 -0M-18.6448 -3.32832C-18.2574 -3.32832 -17.2819 -3.35701 -16.5932 -3.61524C-15.5029 -4.03128 -15.4025 -4.86336 -15.4025 -5.12159C-15.4025 -5.75282 -15.9477 -6.32667 -16.8945 -6.32667C-18.4009 -6.32667 -20.5671 -4.96378 -20.5671 -2.41016C-20.5671 -0.90381 -19.7064 0.143462 -18.4009 0.143462C-16.4498 0.143462 -15.216 -1.37723 -15.216 -1.56374C-15.216 -1.64981 -15.3021 -1.72154 -15.3595 -1.72154C-15.4025 -1.72154 -15.4169 -1.7072 -15.546 -1.57808C-16.4641 -0.358655 -17.827 -0.143462 -18.3722 -0.143462C-19.1899 -0.143462 -19.6203 -0.789041 -19.6203 -1.85066C-19.6203 -2.05151 -19.6203 -2.41016 -19.4051 -3.32832ZM-19.4051 -3.32832M-19.3334 -3.61524C-18.7165 -5.82456 -17.3536 -6.03975 -16.8945 -6.03975C-16.2633 -6.03975 -15.8329 -5.66675 -15.8329 -5.12159C-15.8329 -3.61524 -18.1283 -3.61524 -18.7308 -3.61524ZM-18.7308 -3.61524" fill="black"/>
 </g>
 <g transform="matrix(1.000000,-0.000000,-0.000000,1.000000,117.581111,-331.653543)">
  <path d="M-9.24513 -0M-3.85097 -10.2432C-3.77923 -10.4297 -3.77923 -10.4584 -3.77923 -10.4871C-3.77923 -10.6736 -3.9227 -10.7596 -4.03747 -10.7596C-4.22397 -10.7596 -4.267 -10.6305 -4.33874 -10.444L-9.1734 3.07009C-9.24513 3.25659 -9.24513 3.28528 -9.24513 3.31397C-9.24513 3.47178 -9.13037 3.58655 -8.97256 3.58655C-8.78606 3.58655 -8.74302 3.44309 -8.68563 3.28528ZM-8.68563 3.28528" fill="black"/>
 </g>
 <g transform="matrix(1.000000,-0.000000,-0.000000,1.000000,117.581111,-331.653543)">
  <path d="M2.27431 -0M6.93683 -4.17474C6.93683 -0.789041 5.43048 -0.0860772 4.56971 -0.0860772C4.2254 -0.0860772 3.46505 -0.129116 3.10639 -0.631233L3.19247 -0.631233C3.29289 -0.60254 3.80936 -0.688617 3.80936 -1.21943C3.80936 -1.53504 3.59416 -1.80762 3.22116 -1.80762C2.84816 -1.80762 2.61862 -1.56374 2.61862 -1.19073C2.61862 -0.30127 3.33593 0.30127 4.58405 0.30127C6.37733 0.30127 8.11322 -1.60677 8.11322 -4.7199C8.11322 -8.57903 6.50644 -9.54022 5.24398 -9.54022C3.6659 -9.54022 2.27431 -8.22037 2.27431 -6.32667C2.27431 -4.43297 3.60851 -3.14182 5.04313 -3.14182C6.10475 -3.14182 6.6499 -3.91651 6.93683 -4.64817ZM6.93683 -4.64817M5.10052 -3.42874C4.19671 -3.42874 3.80936 -4.1604 3.68024 -4.43297C3.4507 -4.97813 3.4507 -5.66675 3.4507 -6.31233C3.4507 -7.11571 3.4507 -7.80433 3.8237 -8.39252C4.08194 -8.77987 4.46928 -9.19591 5.24398 -9.19591C6.06171 -9.19591 6.47775 -8.4786 6.62121 -8.14864C6.90814 -7.44568 6.90814 -6.22625 6.90814 -6.01106C6.90814 -4.80598 6.36298 -3.42874 5.10052 -3.42874ZM5.10052 -3.42874" fill="black"/>
 </g>
 <g transform="matrix(1.000000,-0.000000,-0.000000,1.000000,117.581111,-331.653543)">
  <path d="M9.29789 -0M15.1368 -4.59078C15.1368 -5.78152 15.0651 -6.94356 14.5486 -8.03387C13.9604 -9.2246 12.9275 -9.54022 12.2245 -9.54022C11.3924 -9.54022 10.3739 -9.12418 9.84304 -7.93345C9.44135 -7.02964 9.29789 -6.14017 9.29789 -4.59078C9.29789 -3.1992 9.39831 -2.15193 9.91477 -1.13335C10.4743 -0.0430386 11.4642 0.30127 12.2102 0.30127C13.4583 0.30127 14.1756 -0.444732 14.5916 -1.27681C15.1081 -2.35278 15.1368 -3.7587 15.1368 -4.59078ZM15.1368 -4.59078M12.2102 0.0143462C11.7511 0.0143462 10.8186 -0.243885 10.546 -1.80762C10.3882 -2.66839 10.3882 -3.7587 10.3882 -4.76294C10.3882 -5.93933 10.3882 -7.00094 10.6177 -7.84737C10.8616 -8.80856 11.5933 -9.2533 12.2102 -9.2533C12.7553 -9.2533 13.5874 -8.92333 13.86 -7.68956C14.0465 -6.87183 14.0465 -5.73848 14.0465 -4.76294C14.0465 -3.80174 14.0465 -2.71143 13.8887 -1.83631C13.6161 -0.258232 12.7123 0.0143462 12.2102 0.0143462ZM12.2102 0.0143462" fill="black"/>
 </g>
 <g transform="matrix(1.000000,-0.000000,-0.000000,1.000000,117.581111,-331.653543)">
  <path d="M16.2812 -5.20611M20.1567 -7.69677C20.1567 -8.76277 19.27 -9.62952 18.2239 -9.62952C17.148 -9.62952 16.2812 -8.74285 16.2812 -7.69677C16.2812 -6.64073 17.148 -5.76402 18.2239 -5.76402C19.27 -5.76402 20.1567 -6.63077 20.1567 -7.69677ZM20.1567 -7.69677M18.2239 -6.16252C17.3572 -6.16252 16.6797 -6.85991 16.6797 -7.69677C16.6797 -8.53363 17.3671 -9.23102 18.2239 -9.23102C19.0508 -9.23102 19.7582 -8.55356 19.7582 -7.69677C19.7582 -6.83998 19.0508 -6.16252 18.2239 -6.16252ZM18.2239 -6.16252" fill="black"/>
 </g>
 <g stroke-linecap="round" stroke-linejoin="round">
  <path d="M-125.17 271.916L-125.17 -378.425" stroke="black"/>
 </g>
 <g stroke-linecap="butt" stroke-linejoin="round" stroke-dasharray="2.000000" stroke-dashoffset="0.000000">
  <path d="M-125.17 271.916L17.3102 -259.828" stroke="black"/>
 </g>
 <g stroke-linecap="round" stroke-linejoin="round">
  <path d="M-125.17 271.916L107.825 -131.643" stroke="black"/>
 </g>
 <g stroke-linecap="butt" stroke-linejoin="round" stroke-dasharray="2.000000" stroke-dashoffset="0.000000">
  <path d="M-125.17 271.916L153.749 -7.00378" stroke="black"/>
 </g>
 <g stroke-linecap="round" stroke-linejoin="round">
  <path d="M-125.17 271.916L163.992 104.968" stroke="black"/>
 </g>
 <g stroke-linecap="butt" stroke-linejoin="round" stroke-dasharray="2.000000" stroke-dashoffset="0.000000">
  <path d="M-125.17 271.916L147.836 198.764" stroke="black"/>
 </g>
 <g stroke-linecap="round" stroke-linejoin="round">
  <path d="M-125.17 271.916L114.077 271.916" stroke="black"/>
 </g>
 <g stroke-linecap="butt" stroke-linejoin="round" stroke-dasharray="2.000000" stroke-dashoffset="0.000000">
  <path d="M-125.17 271.916L70.4475 324.331" stroke="black"/>
 </g>
 <g stroke-linecap="round" stroke-linejoin="round">
  <path d="M-125.17 271.916L23.2909 357.63" stroke="black"/>
 </g>
 <g stroke-linecap="butt" stroke-linejoin="round" stroke-dasharray="2.000000" stroke-dashoffset="0.000000">
  <path d="M-125.17 271.916L-22.5614 374.524" stroke="black"/>
 </g>
 <g stroke-linecap="round" stroke-linejoin="round">
  <path d="M-125.17 271.916L-63.7533 378.293" stroke="black"/>
 </g>
 <g stroke-linecap="butt" stroke-linejoin="round" stroke-dasharray="2.000000" stroke-dashoffset="0.000000">
  <path d="M-125.17 271.916L-98.259 372.349" stroke="black"/>
 </g>
 <g stroke-linecap="round" stroke-linejoin="round">
  <path d="M-125.17 271.916L-125.17 359.93" stroke="black"/>
 </g>
 <g stroke-linecap="butt" stroke-linejoin="round" stroke-dasharray="2.000000" stroke-dashoffset="0.000000">
  <path d="M-125.17 271.916L-144.453 343.879" stroke="black"/>
 </g>
 <g stroke-linecap="round" stroke-linejoin="round">
  <path d="M-125.17 271.916L-156.703 326.531" stroke="black"/>
 </g>
 <g stroke-linecap="butt" stroke-linejoin="round" stroke-dasharray="2.000000" stroke-dashoffset="0.000000">
  <path d="M-125.17 271.916L-162.918 309.663" stroke="black"/>
 </g>
 <g stroke-linecap="round" stroke-linejoin="round">
  <path d="M-125.17 271.916L-164.304 294.51" stroke="black"/>
 </g>
 <g stroke-linecap="butt" stroke-linejoin="round" stroke-dasharray="2.000000" stroke-dashoffset="0.000000">
  <path d="M-125.17 271.916L-162.117 281.816" stroke="black"/>
 </g>
 <g stroke-linecap="round" stroke-linejoin="round">
  <path d="M-125.17 271.916L-157.549 271.916" stroke="black"/>
 </g>
 <g stroke-linecap="butt" stroke-linejoin="round" stroke-dasharray="2.000000" stroke-dashoffset="0.000000">
  <path d="M-125.17 271.916L-151.644 264.822" stroke="black"/>
 </g>
 <g stroke-linecap="round" stroke-linejoin="round">
  <path d="M-125.17 271.916L-145.262 260.316" stroke="black"/>
 </g>
 <g stroke-linecap="butt" stroke-linejoin="round" stroke-dasharray="2.000000" stroke-dashoffset="0.000000">
  <path d="M-125.17 271.916L-139.057 258.029" stroke="black"/>
 </g>
 <g stroke-linecap="round" stroke-linejoin="round">
  <path d="M-125.17 271.916L-133.482 257.519" stroke="black"/>
 </g>
 <g stroke-linecap="butt" stroke-linejoin="round" stroke-dasharray="2.000000" stroke-dashoffset="0.000000">
  <path d="M-125.17 271.916L-128.812 258.323" stroke="black"/>
 </g>
 <g stroke-linecap="round" stroke-linejoin="round">
  <path d="M-125.17 271.916L-125.17 260.004" stroke="black"/>
 </g>
 <g stroke-linecap="round" stroke-linejoin="round" stroke-width="1.603518">
  <path d="M-125.17 -378.425L-113.946 -371.141L-102.972 -363.745L-92.2497 -356.242L-81.7767 -348.639L-71.5522 -340.939L-61.5752 -333.15L-51.8443 -325.275L-42.3583 -317.321L-33.1158 -309.292L-24.1154 -301.194L-15.3557 -293.031L-6.83488 -284.808L1.44854 -276.53L9.49631 -268.202L17.3102 -259.828L24.8921 -251.413L32.2438 -242.962L39.3673 -234.478L46.2645 -225.967L52.9377 -217.431L59.3887 -208.877L65.6199 -200.306L71.6333 -191.724L77.4313 -183.135L83.0161 -174.541L88.39 -165.947L93.5554 -157.357L98.5147 -148.774L103.27 -140.202L107.825 -131.643L112.18 -123.102L116.34 -114.581L120.306 -106.084L124.08 -97.6133L127.667 -89.1725L131.067 -80.7644L134.284 -72.3917L137.321 -64.0573L140.18 -55.7639L142.863 -47.514L145.374 -39.3102L147.716 -31.1549L149.89 -23.0505L151.901 -14.9994L153.749 -7.00378L155.439 0.934216L156.974 8.81247L158.355 16.629L159.585 24.3817L160.668 32.0689L161.606 39.6887L162.402 47.2393L163.059 54.7192L163.58 62.1265L163.967 69.4599L164.223 76.7178L164.35 83.8989L164.353 91.0017L164.233 98.025L163.992 104.968L163.635 111.828L163.164 118.606L162.58 125.3L161.888 131.908L161.089 138.431L160.187 144.867L159.184 151.215L158.082 157.474L156.885 163.645L155.594 169.726L154.214 175.716L152.745 181.616L151.191 187.424L149.554 193.14L147.836 198.764L146.041 204.295L144.171 209.733L142.227 215.079L140.213 220.33L138.131 225.489L135.983 230.553L133.772 235.524L131.5 240.401L129.169 245.184L126.782 249.873L124.341 254.468L121.847 258.97L119.304 263.378L116.713 267.694L114.077 271.916L111.397 276.045L108.676 280.082L105.916 284.026L103.119 287.879L100.287 291.641L97.4211 295.311L94.5242 298.891L91.598 302.38L88.6443 305.781L85.6651 309.092L82.662 312.314L79.637 315.449L76.5918 318.496L73.528 321.457L70.4475 324.331L67.3519 327.12L64.2428 329.825L61.1218 332.446L57.9906 334.983L54.8506 337.438L51.7035 339.811L48.5506 342.103L45.3935 344.316L42.2335 346.449L39.0722 348.503L35.9107 350.48L32.7506 352.38L29.5931 354.205L26.4394 355.954L23.2909 357.63L20.1487 359.232L17.0141 360.762L13.8881 362.221L10.772 363.61L7.66681 364.929L4.57364 366.18L1.49352 367.364L-1.57253 368.481L-4.62352 369.532L-7.6585 370.52L-10.6765 371.443L-13.6767 372.305L-16.6581 373.105L-19.6199 373.844L-22.5614 374.524L-25.4816 375.146L-28.3798 375.711L-31.2554 376.219L-34.1075 376.671L-36.9354 377.07L-39.7386 377.415L-42.5163 377.708L-45.268 377.949L-47.993 378.141L-50.6908 378.283L-53.3608 378.377L-56.0026 378.424L-58.6156 378.425L-61.1993 378.381L-63.7533 378.293L-66.2772 378.161L-68.7706 377.988L-71.2331 377.773L-73.6642 377.518L-76.0637 377.225L-78.4313 376.893L-80.7667 376.524L-83.0695 376.118L-85.3395 375.678L-87.5765 375.203L-89.7803 374.695L-91.9506 374.155L-94.0873 373.583L-96.1901 372.981L-98.259 372.349L-100.294 371.689L-102.295 371.001L-104.261 370.286L-106.193 369.545L-108.091 368.779L-109.954 367.989L-111.782 367.175L-113.576 366.339L-115.336 365.482L-117.061 364.604L-118.752 363.706L-120.408 362.788L-122.029 361.853L-123.617 360.9L-125.17 359.93L-126.689 358.944L-128.174 357.943L-129.625 356.928L-131.043 355.899L-132.426 354.857L-133.777 353.802L-135.094 352.737L-136.377 351.66L-137.628 350.574L-138.846 349.478L-140.032 348.373L-141.185 347.26L-142.306 346.14L-143.395 345.013L-144.453 343.879L-145.479 342.741L-146.474 341.597L-147.438 340.449L-148.371 339.297L-149.274 338.142L-150.147 336.984L-150.991 335.824L-151.805 334.663L-152.589 333.5L-153.345 332.337L-154.072 331.174L-154.771 330.011L-155.443 328.85L-156.086 327.69L-156.703 326.531L-157.292 325.375L-157.855 324.222L-158.392 323.072L-158.902 321.926L-159.388 320.784L-159.848 319.646L-160.283 318.513L-160.694 317.385L-161.081 316.262L-161.444 315.146L-161.784 314.036L-162.101 312.932L-162.395 311.835L-162.668 310.745L-162.918 309.663L-163.146 308.589L-163.354 307.523L-163.541 306.465L-163.708 305.416L-163.854 304.375L-163.981 303.344L-164.089 302.322L-164.178 301.31L-164.248 300.308L-164.301 299.315L-164.335 298.333L-164.352 297.361L-164.353 296.4L-164.336 295.449L-164.304 294.51L-164.256 293.581L-164.192 292.664L-164.113 291.758L-164.019 290.864L-163.911 289.981L-163.789 289.11L-163.653 288.251L-163.504 287.404L-163.342 286.569L-163.167 285.746L-162.981 284.935L-162.782 284.136L-162.571 283.35L-162.35 282.577L-162.117 281.816L-161.875 281.067L-161.621 280.331L-161.358 279.608L-161.086 278.897L-160.804 278.199L-160.513 277.514L-160.214 276.841L-159.907 276.181L-159.591 275.533L-159.268 274.899L-158.938 274.277L-158.6 273.668L-158.256 273.071L-157.905 272.487L-157.549 271.916L-157.186 271.357L-156.818 270.811L-156.444 270.277L-156.066 269.755L-155.682 269.246L-155.295 268.749L-154.902 268.265L-154.506 267.793L-154.107 267.333L-153.704 266.884L-153.297 266.448L-152.888 266.024L-152.476 265.612L-152.061 265.211L-151.644 264.822L-151.225 264.445L-150.804 264.079L-150.382 263.724L-149.958 263.38L-149.533 263.048L-149.107 262.727L-148.681 262.417L-148.253 262.117L-147.826 261.829L-147.398 261.551L-146.97 261.283L-146.542 261.026L-146.115 260.779L-145.688 260.542L-145.262 260.316L-144.837 260.099L-144.413 259.892L-143.99 259.694L-143.568 259.506L-143.148 259.328L-142.729 259.158L-142.312 258.998L-141.897 258.847L-141.484 258.705L-141.074 258.571L-140.665 258.446L-140.259 258.329L-139.856 258.221L-139.455 258.121L-139.057 258.029L-138.661 257.945L-138.269 257.869L-137.88 257.8L-137.494 257.739L-137.111 257.685L-136.732 257.638L-136.356 257.598L-135.984 257.566L-135.615 257.54L-135.25 257.52L-134.888 257.508L-134.531 257.501L-134.177 257.501L-133.828 257.507L-133.482 257.519L-133.14 257.537L-132.803 257.56L-132.47 257.589L-132.141 257.624L-131.816 257.664L-131.496 257.709L-131.179 257.759L-130.868 257.813L-130.561 257.873L-130.258 257.937L-129.96 258.006L-129.666 258.079L-129.377 258.156L-129.092 258.238L-128.812 258.323L-128.537 258.413L-128.266 258.506L-128 258.603L-127.738 258.703L-127.482 258.807L-127.229 258.914L-126.982 259.024L-126.739 259.137L-126.501 259.253L-126.268 259.372L-126.039 259.493L-125.815 259.617L-125.595 259.744L-125.38 259.873L-125.17 260.004" stroke="black"/>
 </g>
</svg>
