<?xml version="1.0" encoding="utf-8"?>
<svg xmlns="http://www.w3.org/2000/svg" fill="none" version="1.1" viewBox="-256.118 -307.381 512.236 614.762" x="-256.118pt" y="-307.381pt" width="512.236pt" height="614.762pt" stroke-width="0.566929" stroke-miterlimit="10.000000">
 <path d="M160.157 -279.452L255.118 -279.452L255.118 -306.381L160.157 -306.381Z" fill="black"/>
 <path d="M208.063 -285.121L208.63 -285.121"/>
 <g transform="matrix(1.000000,-0.000000,-0.000000,1.000000,208.346457,-285.120924)">
  <path d="M-40.4207 -0M-30.8333 -6.75664C-31.2672 -5.70286 -32.0317 -3.8019 -32.197 -3.07872L-32.2177 -3.07872C-32.4036 -3.82257 -33.2508 -5.86816 -33.6847 -6.96327L-36.3295 -13.4926C-36.6808 -14.3398 -37.342 -14.3398 -37.7139 -14.3398L-39.4289 -14.3398C-40.1727 -14.3398 -40.4207 -14.1125 -40.4207 -13.348L-40.4207 -0.991801C-40.4207 -0.24795 -40.1934 -0 -39.4289 -0L-38.871 -0C-38.0858 -0 -37.8792 -0.268613 -37.8792 -0.991801L-37.8792 -11.6743L-37.8585 -11.6743C-37.6313 -10.7445 -36.7014 -8.45097 -36.2055 -7.23188L-33.8087 -1.34306C-33.4368 -0.454575 -32.9409 -0.454575 -32.2383 -0.454575C-31.5358 -0.454575 -31.0399 -0.454575 -30.668 -1.34306L-28.0232 -7.8311C-27.8166 -8.327 -26.7008 -11.1371 -26.5561 -11.6743L-26.5355 -11.6743L-26.5355 -0.991801C-26.5355 -0.3306 -26.3908 -0 -25.5437 -0L-24.9858 -0C-24.2006 -0 -23.994 -0.268613 -23.994 -0.991801L-23.994 -13.348C-23.994 -14.0092 -24.1386 -14.3398 -24.9858 -14.3398L-26.7214 -14.3398C-27.238 -14.3398 -27.7546 -14.2985 -28.1058 -13.4513ZM-28.1058 -13.4513" fill="#fff"/>
 </g>
 <g transform="matrix(1.000000,-0.000000,-0.000000,1.000000,208.346457,-285.120924)">
  <path d="M-20.2172 -0M-10.6298 -6.75664C-11.0637 -5.70286 -11.8283 -3.8019 -11.9936 -3.07872L-12.0142 -3.07872C-12.2002 -3.82257 -13.0473 -5.86816 -13.4813 -6.96327L-16.1261 -13.4926C-16.4773 -14.3398 -17.1385 -14.3398 -17.5104 -14.3398L-19.2254 -14.3398C-19.9693 -14.3398 -20.2172 -14.1125 -20.2172 -13.348L-20.2172 -0.991801C-20.2172 -0.24795 -19.9899 -0 -19.2254 -0L-18.6675 -0C-17.8824 -0 -17.6757 -0.268613 -17.6757 -0.991801L-17.6757 -11.6743L-17.6551 -11.6743C-17.4278 -10.7445 -16.498 -8.45097 -16.0021 -7.23188L-13.6052 -1.34306C-13.2333 -0.454575 -12.7374 -0.454575 -12.0349 -0.454575C-11.3324 -0.454575 -10.8364 -0.454575 -10.4645 -1.34306L-7.81972 -7.8311C-7.6131 -8.327 -6.49732 -11.1371 -6.35268 -11.6743L-6.33202 -11.6743L-6.33202 -0.991801C-6.33202 -0.3306 -6.18738 -0 -5.34022 -0L-4.78233 -0C-3.99716 -0 -3.79053 -0.268613 -3.79053 -0.991801L-3.79053 -13.348C-3.79053 -14.0092 -3.93517 -14.3398 -4.78233 -14.3398L-6.51798 -14.3398C-7.03455 -14.3398 -7.55111 -14.2985 -7.90237 -13.4513ZM-7.90237 -13.4513" fill="#fff"/>
 </g>
 <g transform="matrix(1.000000,-0.000000,-0.000000,1.000000,208.346457,-285.120924)">
  <path d="M-1.02624 -0M7.89997 -13.4513C7.59003 -14.3398 6.99082 -14.3398 6.57757 -14.3398L4.75927 -14.3398C4.34602 -14.3398 3.7468 -14.3398 3.43686 -13.4513L-0.922928 -0.971138C-1.02624 -0.702526 -1.02624 -0.661201 -1.02624 -0.557888C-1.02624 -0 -0.509677 -0 -0.220402 -0L0.523449 -0C0.895374 -0 1.53591 -0 1.82519 -0.826501L2.63103 -3.12004L8.35454 -3.12004L9.05707 -1.13644C9.30502 -0.41325 9.44966 -0 10.4415 -0L11.5572 -0C11.8465 -0 12.3631 -0 12.3631 -0.557888C12.3631 -0.661201 12.3631 -0.702526 12.2598 -0.971138ZM12.2598 -0.971138M4.7386 -9.27747C5.04854 -10.1866 5.31715 -10.9718 5.48245 -11.7156L5.50312 -11.7156C5.60643 -11.2197 5.60643 -11.1784 5.77173 -10.7032L7.73467 -4.89702L3.2509 -4.89702ZM3.2509 -4.89702" fill="#fff"/>
 </g>
 <g transform="matrix(1.000000,-0.000000,-0.000000,1.000000,208.346457,-285.120924)">
  <path d="M13.8876 -0M25.8512 -2.95474C25.8512 -3.12004 25.7065 -3.20269 25.6239 -3.20269C25.128 -3.20269 24.5288 -1.85963 21.6154 -1.85963C17.9788 -1.85963 16.9456 -4.09118 16.9456 -7.19056C16.9456 -10.2693 18.0614 -12.5008 21.4501 -12.5008C23.289 -12.5008 24.2602 -11.7776 24.8181 -11.3231C24.942 -11.2197 25.004 -11.1371 25.1487 -11.1371C25.2313 -11.1371 25.3346 -11.2404 25.3553 -11.3231L25.7685 -13.6166C25.7892 -13.6993 25.7685 -13.7819 25.6032 -13.8439C24.3841 -14.2985 23.1237 -14.5877 21.512 -14.5877C16.4704 -14.5877 13.8876 -12.1289 13.8876 -7.21122C13.8876 -2.1489 16.5117 0.206625 21.5327 0.206625C23.289 0.206625 24.3841 -0.041325 25.8925 -0.971138C26.0578 -1.07445 26.0165 -1.21909 26.0165 -1.21909ZM26.0165 -1.21909" fill="#fff"/>
 </g>
 <g transform="matrix(1.000000,-0.000000,-0.000000,1.000000,208.346457,-285.120924)">
  <path d="M28.0162 -0M36.9424 -13.4513C36.6325 -14.3398 36.0333 -14.3398 35.62 -14.3398L33.8017 -14.3398C33.3885 -14.3398 32.7893 -14.3398 32.4793 -13.4513L28.1195 -0.971138C28.0162 -0.702526 28.0162 -0.661201 28.0162 -0.557888C28.0162 -0 28.5328 -0 28.8221 -0L29.5659 -0C29.9378 -0 30.5784 -0 30.8676 -0.826501L31.6735 -3.12004L37.397 -3.12004L38.0995 -1.13644C38.3475 -0.41325 38.4921 -0 39.4839 -0L40.5997 -0C40.889 -0 41.4055 -0 41.4055 -0.557888C41.4055 -0.661201 41.4055 -0.702526 41.3022 -0.971138ZM41.3022 -0.971138M33.7811 -9.27747C34.091 -10.1866 34.3596 -10.9718 34.5249 -11.7156L34.5456 -11.7156C34.6489 -11.2197 34.6489 -11.1784 34.8142 -10.7032L36.7771 -4.89702L32.2934 -4.89702ZM32.2934 -4.89702" fill="#fff"/>
 </g>
 <path d="M208.063 -259.609L208.63 -259.609"/>
 <g transform="matrix(1.000000,-0.000000,-0.000000,1.000000,208.346457,-259.609113)">
  <path d="M-29.9114 -11.7579M-25.378 0.508103L-27.9029 -5.07257C-28.0033 -5.30211 -28.0751 -5.30211 -28.1181 -5.30211C-28.1324 -5.30211 -28.2042 -5.30211 -28.362 -5.18734L-29.7249 -4.15441C-29.9114 -4.01095 -29.9114 -3.96791 -29.9114 -3.92487C-29.9114 -3.85314 -29.8683 -3.76706 -29.7679 -3.76706C-29.6818 -3.76706 -29.4379 -3.96791 -29.2801 -4.08268C-29.1941 -4.15441 -28.9789 -4.31222 -28.8211 -4.42699L-25.9949 1.78491C-25.8944 2.01445 -25.8227 2.01445 -25.6936 2.01445C-25.4784 2.01445 -25.4354 1.92838 -25.3349 1.72753L-18.8218 -11.7579C-18.7213 -11.9587 -18.7213 -12.0161 -18.7213 -12.0448C-18.7213 -12.1883 -18.8361 -12.3317 -19.0083 -12.3317C-19.123 -12.3317 -19.2235 -12.26 -19.3382 -12.0305ZM-19.3382 -12.0305" fill="black"/>
 </g>
 <g transform="matrix(1.000000,-0.000000,-0.000000,1.000000,208.346457,-259.609113)">
  <path d="M-19.0034 -11.7579L-11.9799 -11.7579L-11.9799 -12.3317L-19.0034 -12.3317Z" fill="black"/>
 </g>
 <g transform="matrix(1.000000,-0.000000,-0.000000,1.000000,208.346457,-259.609113)">
  <path d="M-18.4153 -0M-16.3637 -5.15028C-16.6076 -5.13594 -16.665 -5.12159 -16.665 -4.99248C-16.665 -4.84901 -16.5933 -4.84901 -16.3351 -4.84901L-15.6751 -4.84901C-14.4557 -4.84901 -13.9105 -3.84478 -13.9105 -2.46755C-13.9105 -0.588194 -14.8861 -0.0860772 -15.589 -0.0860772C-16.2777 -0.0860772 -17.4541 -0.41604 -17.8701 -1.36289C-17.411 -1.29116 -16.995 -1.54939 -16.995 -2.06585C-16.995 -2.48189 -17.2962 -2.76882 -17.6979 -2.76882C-18.0422 -2.76882 -18.4153 -2.56797 -18.4153 -2.02281C-18.4153 -0.746002 -17.1384 0.30127 -15.546 0.30127C-13.8388 0.30127 -12.5763 -1.00423 -12.5763 -2.4532C-12.5763 -3.77305 -13.638 -4.80598 -15.0152 -5.04986C-13.7671 -5.40852 -12.9637 -6.45579 -12.9637 -7.57479C-12.9637 -8.70814 -14.1401 -9.54022 -15.5317 -9.54022C-16.9663 -9.54022 -18.0279 -8.6651 -18.0279 -7.61783C-18.0279 -7.04398 -17.5832 -6.92921 -17.368 -6.92921C-17.0667 -6.92921 -16.7224 -7.14441 -16.7224 -7.57479C-16.7224 -8.03387 -17.0667 -8.23472 -17.3823 -8.23472C-17.4684 -8.23472 -17.4971 -8.23472 -17.5401 -8.22037C-16.995 -9.19591 -15.6464 -9.19591 -15.5747 -9.19591C-15.1013 -9.19591 -14.1688 -8.98072 -14.1688 -7.57479C-14.1688 -7.30221 -14.2118 -6.49883 -14.6279 -5.88194C-15.0582 -5.25071 -15.546 -5.20767 -15.9334 -5.19332ZM-15.9334 -5.19332" fill="black"/>
 </g>
 <g transform="matrix(1.000000,-0.000000,-0.000000,1.000000,208.346457,-259.609113)">
  <path d="M-6.5228 -0M-1.12863 -10.2432C-1.0569 -10.4297 -1.0569 -10.4584 -1.0569 -10.4871C-1.0569 -10.6736 -1.20036 -10.7596 -1.31513 -10.7596C-1.50163 -10.7596 -1.54467 -10.6305 -1.6164 -10.444L-6.45107 3.07009C-6.5228 3.25659 -6.5228 3.28528 -6.5228 3.31397C-6.5228 3.47178 -6.40803 3.58655 -6.25022 3.58655C-6.06372 3.58655 -6.02068 3.44309 -5.9633 3.28528ZM-5.9633 3.28528" fill="black"/>
 </g>
 <g transform="matrix(1.000000,-0.000000,-0.000000,1.000000,208.346457,-259.609113)">
  <path d="M5.11142 -0M10.7208 -2.41016L10.4052 -2.41016C10.3621 -2.16628 10.2474 -1.37723 10.1039 -1.1477C10.0035 -1.01858 9.18574 -1.01858 8.75535 -1.01858L6.10131 -1.01858C6.48865 -1.34854 7.36377 -2.2667 7.73677 -2.61101C9.9174 -4.61948 10.7208 -5.36548 10.7208 -6.78575C10.7208 -8.43556 9.41528 -9.54022 7.75112 -9.54022C6.08696 -9.54022 5.11142 -8.11995 5.11142 -6.88617C5.11142 -6.15452 5.74265 -6.15452 5.78569 -6.15452C6.08696 -6.15452 6.45996 -6.36971 6.45996 -6.82879C6.45996 -7.23048 6.18738 -7.50306 5.78569 -7.50306C5.65658 -7.50306 5.62788 -7.50306 5.58484 -7.48871C5.85742 -8.46426 6.63212 -9.12418 7.56462 -9.12418C8.78405 -9.12418 9.53005 -8.1056 9.53005 -6.78575C9.53005 -5.56632 8.82708 -4.50471 8.00935 -3.58655L5.11142 -0.344309L5.11142 -0L10.3478 -0ZM10.3478 -0" fill="black"/>
 </g>
 <g transform="matrix(1.000000,-0.000000,-0.000000,1.000000,208.346457,-259.609113)">
  <path d="M12.2067 -0M18.2465 -8.90899L18.2465 -9.23895L14.789 -9.23895C13.0531 -9.23895 13.0245 -9.42545 12.9671 -9.69803L12.6515 -9.69803L12.2067 -6.82879L12.5223 -6.82879C12.5654 -7.08702 12.6945 -7.97648 12.881 -8.13429C12.9958 -8.22037 14.0717 -8.22037 14.2726 -8.22037L17.314 -8.22037L15.7933 -6.03975C15.4059 -5.48025 13.957 -3.12747 13.957 -0.430386C13.957 -0.272578 13.957 0.30127 14.5452 0.30127C15.1477 0.30127 15.1477 -0.258232 15.1477 -0.444732L15.1477 -1.16204C15.1477 -3.29963 15.492 -4.96378 16.1663 -5.92498ZM16.1663 -5.92498" fill="black"/>
 </g>
 <g transform="matrix(1.000000,-0.000000,-0.000000,1.000000,208.346457,-259.609113)">
  <path d="M19.0438 -0M24.8827 -4.59078C24.8827 -5.78152 24.811 -6.94356 24.2945 -8.03387C23.7063 -9.2246 22.6734 -9.54022 21.9704 -9.54022C21.1383 -9.54022 20.1198 -9.12418 19.589 -7.93345C19.1873 -7.02964 19.0438 -6.14017 19.0438 -4.59078C19.0438 -3.1992 19.1442 -2.15193 19.6607 -1.13335C20.2202 -0.0430386 21.2101 0.30127 21.9561 0.30127C23.2042 0.30127 23.9215 -0.444732 24.3375 -1.27681C24.854 -2.35278 24.8827 -3.7587 24.8827 -4.59078ZM24.8827 -4.59078M21.9561 0.0143462C21.497 0.0143462 20.5645 -0.243885 20.2919 -1.80762C20.1341 -2.66839 20.1341 -3.7587 20.1341 -4.76294C20.1341 -5.93933 20.1341 -7.00094 20.3636 -7.84737C20.6075 -8.80856 21.3392 -9.2533 21.9561 -9.2533C22.5012 -9.2533 23.3333 -8.92333 23.6059 -7.68956C23.7924 -6.87183 23.7924 -5.73848 23.7924 -4.76294C23.7924 -3.80174 23.7924 -2.71143 23.6346 -1.83631C23.362 -0.258232 22.4582 0.0143462 21.9561 0.0143462ZM21.9561 0.0143462" fill="black"/>
 </g>
 <g transform="matrix(1.000000,-0.000000,-0.000000,1.000000,208.346457,-259.609113)">
  <path d="M26.0271 -5.20611M29.9026 -7.69677C29.9026 -8.76277 29.0159 -9.62952 27.9698 -9.62952C26.8939 -9.62952 26.0271 -8.74285 26.0271 -7.69677C26.0271 -6.64073 26.8939 -5.76402 27.9698 -5.76402C29.0159 -5.76402 29.9026 -6.63077 29.9026 -7.69677ZM29.9026 -7.69677M27.9698 -6.16252C27.1031 -6.16252 26.4256 -6.85991 26.4256 -7.69677C26.4256 -8.53363 27.113 -9.23102 27.9698 -9.23102C28.7967 -9.23102 29.5041 -8.55356 29.5041 -7.69677C29.5041 -6.83998 28.7967 -6.16252 27.9698 -6.16252ZM27.9698 -6.16252" fill="black"/>
 </g>
 <g stroke-linecap="round" stroke-linejoin="round">
  <path d="M-46.1975 55.4803L-237.219 -275.379" stroke="black"/>
 </g>
 <g stroke-linecap="butt" stroke-linejoin="round" stroke-dasharray="2.000000" stroke-dashoffset="0.000000">
  <path d="M-46.1975 55.4803L-142.106 -302.454" stroke="black"/>
 </g>
 <g stroke-linecap="round" stroke-linejoin="round">
  <path d="M-46.1975 55.4803L-46.1975 -303.943" stroke="black"/>
 </g>
 <g stroke-linecap="butt" stroke-linejoin="round" stroke-dasharray="2.000000" stroke-dashoffset="0.000000">
  <path d="M-46.1975 55.4803L44.0321 -281.261" stroke="black"/>
 </g>
 <g stroke-linecap="round" stroke-linejoin="round">
  <path d="M-46.1975 55.4803L122.874 -237.36" stroke="black"/>
 </g>
 <g stroke-linecap="butt" stroke-linejoin="round" stroke-dasharray="2.000000" stroke-dashoffset="0.000000">
  <path d="M-46.1975 55.4803L185.719 -176.436" stroke="black"/>
 </g>
 <g stroke-linecap="round" stroke-linejoin="round">
  <path d="M-46.1975 55.4803L229.304 -103.58" stroke="black"/>
 </g>
 <g stroke-linecap="butt" stroke-linejoin="round" stroke-dasharray="2.000000" stroke-dashoffset="0.000000">
  <path d="M-46.1975 55.4803L251.848 -24.3809" stroke="black"/>
 </g>
 <g stroke-linecap="round" stroke-linejoin="round">
  <path d="M-46.1975 55.4803L253.088 55.4803" stroke="black"/>
 </g>
 <g stroke-linecap="butt" stroke-linejoin="round" stroke-dasharray="2.000000" stroke-dashoffset="0.000000">
  <path d="M-46.1975 55.4803L234.201 130.613" stroke="black"/>
 </g>
 <g stroke-linecap="round" stroke-linejoin="round">
  <path d="M-46.1975 55.4803L197.645 196.263" stroke="black"/>
 </g>
 <g stroke-linecap="butt" stroke-linejoin="round" stroke-dasharray="2.000000" stroke-dashoffset="0.000000">
  <path d="M-46.1975 55.4803L146.915 248.593" stroke="black"/>
 </g>
 <g stroke-linecap="round" stroke-linejoin="round">
  <path d="M-46.1975 55.4803L86.2496 284.885" stroke="black"/>
 </g>
 <g stroke-linecap="butt" stroke-linejoin="round" stroke-dasharray="2.000000" stroke-dashoffset="0.000000">
  <path d="M-46.1975 55.4803L20.3015 303.658" stroke="black"/>
 </g>
 <g stroke-linecap="round" stroke-linejoin="round">
  <path d="M-46.1975 55.4803L-46.1975 304.691" stroke="black"/>
 </g>
 <g stroke-linecap="butt" stroke-linejoin="round" stroke-dasharray="2.000000" stroke-dashoffset="0.000000">
  <path d="M-46.1975 55.4803L-108.759 288.964" stroke="black"/>
 </g>
 <g stroke-linecap="round" stroke-linejoin="round">
  <path d="M-46.1975 55.4803L-163.425 258.524" stroke="black"/>
 </g>
 <g stroke-linecap="butt" stroke-linejoin="round" stroke-dasharray="2.000000" stroke-dashoffset="0.000000">
  <path d="M-46.1975 55.4803L-206.999 216.282" stroke="black"/>
 </g>
 <g stroke-linecap="round" stroke-linejoin="round">
  <path d="M-46.1975 55.4803L-237.219 165.767" stroke="black"/>
 </g>
 <g stroke-linecap="butt" stroke-linejoin="round" stroke-dasharray="2.000000" stroke-dashoffset="0.000000">
  <path d="M-46.1975 55.4803L-252.851 110.853" stroke="black"/>
 </g>
 <g stroke-linecap="round" stroke-linejoin="round">
  <path d="M-46.1975 55.4803L-253.711 55.4803" stroke="black"/>
 </g>
 <g stroke-linecap="butt" stroke-linejoin="round" stroke-dasharray="2.000000" stroke-dashoffset="0.000000">
  <path d="M-46.1975 55.4803L-240.615 3.38622" stroke="black"/>
 </g>
 <g stroke-linecap="round" stroke-linejoin="round">
  <path d="M-46.1975 55.4803L-215.269 -42.133" stroke="black"/>
 </g>
 <g stroke-linecap="butt" stroke-linejoin="round" stroke-dasharray="2.000000" stroke-dashoffset="0.000000">
  <path d="M-46.1975 55.4803L-180.094 -78.4166" stroke="black"/>
 </g>
 <g stroke-linecap="round" stroke-linejoin="round">
  <path d="M-46.1975 55.4803L-138.031 -103.58" stroke="black"/>
 </g>
 <g stroke-linecap="round" stroke-linejoin="round" stroke-width="1.603518">
  <path d="M-237.219 -275.379L-231.04 -277.983L-224.828 -280.474L-218.586 -282.852L-212.317 -285.115L-206.022 -287.265L-199.703 -289.299L-193.363 -291.22L-187.003 -293.026L-180.626 -294.717L-174.233 -296.293L-167.826 -297.755L-161.408 -299.102L-154.981 -300.334L-148.546 -301.451L-142.106 -302.454L-135.662 -303.343L-129.217 -304.117L-122.773 -304.777L-116.331 -305.324L-109.894 -305.758L-103.463 -306.078L-97.0404 -306.285L-90.6285 -306.381L-84.2289 -306.364L-77.8436 -306.236L-71.4745 -305.997L-65.1234 -305.648L-58.7924 -305.189L-52.4831 -304.62L-46.1975 -303.943L-39.9375 -303.158L-33.7048 -302.265L-27.5012 -301.266L-21.3286 -300.162L-15.1888 -298.951L-9.08337 -297.637L-3.01422 -296.219L3.01698 -294.699L9.00853 -293.077L14.9587 -291.354L20.8659 -289.531L26.7285 -287.61L32.5448 -285.59L38.3132 -283.474L44.0321 -281.261L49.7 -278.954L55.3154 -276.553L60.8766 -274.06L66.3823 -271.475L71.831 -268.8L77.2211 -266.036L82.5513 -263.184L87.8203 -260.246L93.0265 -257.222L98.1687 -254.114L103.246 -250.923L108.256 -247.651L113.198 -244.299L118.071 -240.868L122.874 -237.36L127.605 -233.775L132.263 -230.116L136.847 -226.384L141.357 -222.58L145.79 -218.706L150.146 -214.764L154.424 -210.754L158.623 -206.678L162.741 -202.538L166.779 -198.335L170.734 -194.071L174.607 -189.748L178.396 -185.366L182.1 -180.929L185.719 -176.436L189.251 -171.89L192.697 -167.293L196.055 -162.645L199.325 -157.949L202.506 -153.207L205.598 -148.419L208.599 -143.589L211.51 -138.716L214.329 -133.803L217.057 -128.852L219.692 -123.864L222.235 -118.842L224.685 -113.786L227.041 -108.698L229.304 -103.58L231.472 -98.4345L233.546 -93.2621L235.526 -88.065L237.411 -82.8446L239.2 -77.6029L240.895 -72.3414L242.494 -67.062L243.998 -61.7661L245.406 -56.4557L246.718 -51.1324L247.935 -45.7978L249.057 -40.4537L250.083 -35.1017L251.013 -29.7435L251.848 -24.3809L252.588 -19.0154L253.233 -13.6487L253.783 -8.28253L254.238 -2.9185L254.599 2.44173L254.866 7.79655L255.039 13.1443L255.118 18.4834L255.104 23.8122L254.998 29.1291L254.799 34.4326L254.508 39.721L254.125 44.9928L253.652 50.2464L253.088 55.4803L252.434 60.693L251.691 65.8828L250.859 71.0484L249.939 76.1882L248.932 81.3008L247.837 86.3846L246.657 91.4383L245.391 96.4604L244.04 101.449L242.606 106.404L241.088 111.323L239.488 116.205L237.806 121.048L236.044 125.851L234.201 130.613L232.28 135.333L230.281 140.008L228.205 144.639L226.053 149.224L223.825 153.761L221.524 158.249L219.149 162.687L216.702 167.075L214.184 171.41L211.596 175.692L208.94 179.919L206.215 184.091L203.424 188.206L200.567 192.264L197.645 196.263L194.661 200.202L191.614 204.081L188.506 207.899L185.339 211.654L182.113 215.345L178.83 218.972L175.491 222.535L172.097 226.031L168.65 229.46L165.15 232.822L161.6 236.116L158 239.34L154.351 242.495L150.656 245.58L146.915 248.593L143.13 251.535L139.302 254.404L135.432 257.2L131.522 259.923L127.573 262.572L123.586 265.146L119.564 267.645L115.506 270.069L111.416 272.416L107.293 274.688L103.14 276.882L98.9575 278.999L94.7474 281.039L90.511 283.001L86.2496 284.885L81.9648 286.691L77.6578 288.418L73.3302 290.067L68.9833 291.636L64.6186 293.126L60.2375 294.537L55.8414 295.869L51.4316 297.121L47.0097 298.294L42.5771 299.386L38.1351 300.4L33.6851 301.334L29.2286 302.188L24.7669 302.963L20.3015 303.658L15.8338 304.274L11.365 304.811L6.89672 305.269L2.43019 305.648L-2.03319 305.949L-6.49205 306.171L-10.945 306.315L-15.3908 306.381L-19.828 306.369L-24.2553 306.28L-28.6714 306.115L-33.075 305.873L-37.4647 305.554L-41.8393 305.16L-46.1975 304.691L-50.538 304.146L-54.8595 303.527L-59.1608 302.835L-63.4407 302.069L-67.6978 301.23L-71.931 300.318L-76.1391 299.335L-80.321 298.281L-84.4753 297.156L-88.6009 295.962L-92.6967 294.698L-96.7616 293.366L-100.794 291.965L-104.794 290.498L-108.759 288.964L-112.689 287.364L-116.583 285.7L-120.439 283.971L-124.256 282.179L-128.034 280.324L-131.771 278.407L-135.467 276.43L-139.12 274.393L-142.73 272.296L-146.295 270.141L-149.816 267.929L-153.289 265.66L-156.716 263.336L-160.095 260.957L-163.425 258.524L-166.705 256.039L-169.935 253.502L-173.114 250.914L-176.24 248.277L-179.314 245.591L-182.335 242.857L-185.301 240.077L-188.212 237.251L-191.068 234.38L-193.867 231.466L-196.61 228.51L-199.295 225.512L-201.922 222.474L-204.49 219.397L-206.999 216.282L-209.449 213.13L-211.838 209.942L-214.166 206.72L-216.434 203.464L-218.639 200.176L-220.783 196.856L-222.864 193.507L-224.882 190.128L-226.836 186.722L-228.728 183.289L-230.555 179.831L-232.318 176.348L-234.017 172.843L-235.651 169.315L-237.219 165.767L-238.723 162.199L-240.161 158.613L-241.534 155.009L-242.84 151.389L-244.081 147.755L-245.256 144.107L-246.365 140.446L-247.408 136.774L-248.384 133.092L-249.294 129.401L-250.138 125.703L-250.916 121.997L-251.627 118.286L-252.272 114.571L-252.851 110.853L-253.364 107.133L-253.811 103.412L-254.192 99.691L-254.508 95.9718L-254.758 92.2552L-254.943 88.5424L-255.063 84.8345L-255.118 81.1325L-255.109 77.4377L-255.035 73.7512L-254.897 70.074L-254.695 66.4072L-254.43 62.7519L-254.102 59.1093L-253.711 55.4803L-253.257 51.8661L-252.742 48.2676L-252.165 44.686L-251.527 41.1222L-250.829 37.5774L-250.07 34.0524L-249.251 30.5484L-248.374 27.0663L-247.437 23.6071L-246.442 20.1717L-245.39 16.7612L-244.281 13.3765L-243.115 10.0184L-241.893 6.68804L-240.615 3.38622L-239.283 0.113847L-237.897 -3.12817L-236.458 -6.33897L-234.965 -9.51768L-233.421 -12.6635L-231.825 -15.7755L-230.179 -18.8529L-228.482 -21.8949L-226.736 -24.9007L-224.942 -27.8696L-223.1 -30.8007L-221.211 -33.6933L-219.275 -36.5467L-217.294 -39.3602L-215.269 -42.133L-213.199 -44.8644L-211.087 -47.5539L-208.932 -50.2007L-206.736 -52.8042L-204.499 -55.3637L-202.223 -57.8787L-199.908 -60.3486L-197.555 -62.7728L-195.164 -65.1506L-192.738 -67.4817L-190.276 -69.7653L-187.78 -72.0012L-185.25 -74.1886L-182.688 -76.3273L-180.094 -78.4166L-177.47 -80.4562L-174.816 -82.4456L-172.132 -84.3845L-169.421 -86.2723L-166.683 -88.1089L-163.919 -89.8937L-161.13 -91.6265L-158.317 -93.3069L-155.48 -94.9347L-152.622 -96.5095L-149.742 -98.0311L-146.842 -99.4992L-143.923 -100.914L-140.986 -102.274L-138.031 -103.58L-135.06 -104.832L-132.074 -106.03L-129.073 -107.173L-126.059 -108.261L-123.033 -109.294L-119.995 -110.273L-116.947 -111.196L-113.89 -112.064L-110.824 -112.877L-107.75 -113.635L-104.67 -114.337L-101.585 -114.985L-98.4951 -115.577L-95.4015 -116.114L-92.3054 -116.597L-89.2076 -117.024L-86.1092 -117.396L-83.011 -117.714L-79.9141 -117.976L-76.8194 -118.185L-73.7278 -118.339L-70.6402 -118.439L-67.5577 -118.484L-64.4811 -118.476L-61.4114 -118.415L-58.3494 -118.3L-55.2962 -118.132L-52.2525 -117.911L-49.2193 -117.638L-46.1975 -117.312L-43.188 -116.935L-40.1916 -116.506L-37.2093 -116.026L-34.2418 -115.494L-31.2901 -114.913L-28.3549 -114.281L-25.4372 -113.599L-22.5377 -112.868L-19.6572 -112.089L-16.7967 -111.26L-13.9568 -110.384L-11.1384 -109.46L-8.34218 -108.489L-5.56902 -107.472L-2.81964 -106.408L-0.0947985 -105.299L2.60478 -104.145L5.27835 -102.946L7.92521 -101.704L10.5447 -100.418L13.136 -99.0887L15.6985 -97.7177L18.2315 -96.305L20.7344 -94.8513L23.2065 -93.3571L25.6472 -91.8232L28.0558 -90.2501L30.4318 -88.6385L32.7745 -86.9891L35.0834 -85.3024L37.3579 -83.5792L39.5973 -81.8202L41.8013 -80.026L43.9692 -78.1973L46.1005 -76.3349L48.1947 -74.4394L50.2513 -72.5116L52.2698 -70.5521L54.2498 -68.5618L56.1908 -66.5414L58.0924 -64.4916L59.9542 -62.4131L61.7756 -60.3067L63.5564 -58.1732L65.2962 -56.0134L66.9945 -53.828L68.6511 -51.6177L70.2655 -49.3835L71.8375 -47.126L73.3668 -44.846L74.853 -42.5444L76.2958 -40.222L77.6951 -37.8795L79.0505 -35.5177L80.3618 -33.1375L81.6288 -30.7397L82.8513 -28.325L84.029 -25.8943L85.1619 -23.4484L86.2496 -20.9881L87.2921 -18.5142L88.2893 -16.0276L89.241 -13.5291L90.1471 -11.0194L91.0075 -8.49942L91.8221 -5.96998L92.5909 -3.43186L93.3138 -0.885909L93.9907 1.66708L94.6218 4.22628L95.2069 6.79088L95.746 9.36006L96.2392 11.933L96.6865 14.509L97.088 17.0871L97.4437 19.6665L97.7537 22.2465L98.0181 24.8263L98.237 27.4051L98.4105 29.982L98.5387 32.5563L98.6218 35.1273L98.6599 37.6941L98.6533 40.2559L98.602 42.812L98.5064 45.3616L98.3665 47.904L98.1827 50.4384L97.9551 52.9641L97.6841 55.4803L97.3698 57.9863L97.0125 60.4813L96.6126 62.9647L96.1703 65.4356L95.6859 67.8935L95.1598 70.3376L94.5922 72.7671L93.9836 75.1815L93.3343 77.58L92.6446 79.9619L91.9149 82.3266L91.1456 84.6735L90.3371 87.0018L89.4899 89.311L88.6043 91.6003L87.6807 93.8693L86.7196 96.1172L85.7215 98.3434L84.6868 100.547L83.616 102.729L82.5095 104.886L81.3679 107.02L80.1915 109.129L78.981 111.213L77.7369 113.272L76.4596 115.304L75.1498 117.31L73.8078 119.288L72.4343 121.239L71.0299 123.162L69.595 125.055L68.1303 126.92L66.6363 128.755L65.1136 130.561L63.5628 132.335L61.9844 134.079L60.3792 135.792L58.7476 137.472L57.0903 139.121L55.4079 140.737L53.701 142.321L51.9703 143.871L50.2164 145.388L48.4399 146.871L46.6414 148.319L44.8216 149.733L42.9812 151.113L41.1208 152.457L39.241 153.766L37.3425 155.039L35.426 156.277L33.4922 157.478L31.5416 158.644L29.575 159.772L27.593 160.864L25.5964 161.919L23.5857 162.937L21.5617 163.918L19.5251 164.861L17.4764 165.767L15.4165 166.635L13.3459 167.465L11.2654 168.258L9.17566 169.012L7.07733 169.729L4.9711 170.407L2.85766 171.047L0.737681 171.649L-1.38815 172.213L-3.51915 172.738L-5.65465 173.225L-7.79397 173.674L-9.93643 174.085L-12.0814 174.457L-14.2281 174.792L-16.376 175.088L-18.5243 175.346L-20.6725 175.566L-22.8198 175.748L-24.9655 175.893L-27.1091 176L-29.2499 176.069L-31.3872 176.101L-33.5204 176.095L-35.6488 176.052L-37.7719 175.973L-39.8889 175.856L-41.9992 175.703L-44.1023 175.514L-46.1975 175.288L-48.2842 175.026L-50.3618 174.729L-52.4296 174.396L-54.4872 174.028L-56.5338 173.624L-58.5689 173.186L-60.592 172.714L-62.6024 172.207L-64.5995 171.666L-66.5829 171.092L-68.552 170.484L-70.5062 169.844L-72.445 169.17L-74.3677 168.465L-76.2741 167.727L-78.1634 166.958L-80.0351 166.158L-81.8889 165.327L-83.7241 164.465L-85.5403 163.574L-87.3371 162.652L-89.1138 161.702L-90.8701 160.722L-92.6055 159.714L-94.3196 158.678L-96.0119 157.615L-97.6819 156.524L-99.3293 155.407L-100.954 154.263L-102.555 153.094L-104.132 151.899L-105.684 150.679L-107.212 149.435L-108.716 148.167L-110.193 146.876L-111.645 145.562L-113.071 144.225L-114.471 142.866L-115.844 141.486L-117.19 140.085L-118.508 138.664L-119.799 137.223L-121.062 135.763L-122.297 134.283L-123.503 132.786L-124.68 131.27L-125.829 129.738L-126.948 128.189L-128.038 126.624L-129.099 125.043L-130.129 123.447L-131.13 121.837L-132.1 120.212L-133.04 118.575L-133.949 116.924L-134.827 115.262L-135.675 113.588L-136.492 111.902L-137.277 110.206L-138.031 108.501L-138.754 106.785L-139.445 105.061L-140.105 103.329L-140.734 101.589L-141.33 99.8414L-141.895 98.0876L-142.428 96.3277L-142.929 94.5625L-143.399 92.7923L-143.836 91.0179L-144.242 89.2397L-144.616 87.4583L-144.958 85.6743L-145.268 83.8883L-145.546 82.1007L-145.793 80.3122L-146.008 78.5233L-146.191 76.7346L-146.343 74.9466L-146.463 73.1598L-146.552 71.3749L-146.61 69.5923L-146.636 67.8126L-146.631 66.0363L-146.596 64.264L-146.53 62.4962L-146.433 60.7334L-146.305 58.9761L-146.147 57.2249L-145.959 55.4803L-145.742 53.7428L-145.494 52.0128L-145.217 50.2909L-144.91 48.5777L-144.574 46.8735L-144.209 45.1789L-143.816 43.4943L-143.394 41.8203L-142.943 40.1573L-142.465 38.5057L-141.959 36.8661L-141.426 35.2389L-140.865 33.6245L-140.278 32.0234L-139.664 30.4361L-139.023 28.8629L-138.357 27.3043L-137.665 25.7607L-136.948 24.2325L-136.205 22.7202L-135.438 21.2241L-134.646 19.7446L-133.831 18.2822L-132.991 16.8371L-132.129 15.4099L-131.243 14.0007L-130.335 12.6101L-129.405 11.2383L-128.452 9.88577L-127.478 8.55274L-126.484 7.23958L-125.468 5.94662L-124.432 4.67418L-123.376 3.42255L-122.301 2.19205L-121.207 0.982959L-120.094 -0.204428L-118.962 -1.36983L-117.813 -2.51299L-116.647 -3.63364L-115.463 -4.73152L-114.263 -5.80639L-113.047 -6.85802L-111.815 -7.88616L-110.568 -8.89061L-109.307 -9.87114L-108.031 -10.8276L-106.741 -11.7597L-105.437 -12.6673L-104.121 -13.5502L-102.792 -14.4082L-101.451 -15.2413L-100.099 -16.0491L-98.7353 -16.8317L-97.361 -17.5888L-95.9766 -18.3203L-94.5825 -19.0261L-93.1792 -19.706L-91.767 -20.3601L-90.3466 -20.9881L-88.9183 -21.59L-87.4826 -22.1657L-86.0401 -22.7151L-84.5911 -23.2383L-83.1362 -23.735L-81.6759 -24.2053L-80.2105 -24.6492L-78.7406 -25.0666L-77.2666 -25.4574L-75.7891 -25.8218L-74.3084 -26.1595L-72.8251 -26.4708L-71.3396 -26.7556L-69.8523 -27.0138L-68.3639 -27.2456L-66.8746 -27.451L-65.385 -27.63L-63.8956 -27.7826L-62.4068 -27.909L-60.919 -28.0091L-59.4327 -28.0832L-57.9483 -28.1312L-56.4664 -28.1532L-54.9874 -28.1493L-53.5116 -28.1198L-52.0395 -28.0645L-50.5717 -27.9838L-49.1084 -27.8776L-47.6502 -27.7463L-46.1975 -27.5898L-44.7507 -27.4083L-43.3102 -27.202L-41.8764 -26.9711L-40.4498 -26.7158L-39.0308 -26.4361L-37.6197 -26.1324L-36.217 -25.8047L-34.823 -25.4533L-33.4383 -25.0784L-32.0631 -24.6802L-30.6978 -24.2589L-29.3428 -23.8148L-27.9986 -23.348L-26.6654 -22.8588L-25.3436 -22.3475L-24.0336 -21.8143L-22.7358 -21.2594L-21.4505 -20.6832L-20.178 -20.0858L-18.9187 -19.4676L-17.673 -18.8287L-16.441 -18.1696L-15.2233 -17.4904L-14.02 -16.7916L-12.8315 -16.0733L-11.6582 -15.3358L-10.5002 -14.5796L-9.35798 -13.8048L-8.23171 -13.0118L-7.12172 -12.201L-6.02828 -11.3725L-4.95165 -10.5269L-3.89211 -9.66431L-2.8499 -8.78518L-1.82528 -7.88982L-0.818493 -6.97856L0.170223 -6.05176L1.14064 -5.10977L2.09253 -4.15293L3.02567 -3.18161L3.93986 -2.19615L4.83489 -1.19692L5.71055 -0.184286L6.56667 0.841387L7.40306 1.87973L8.21953 2.93037L9.01592 3.99294L9.79207 5.06706L10.5478 6.15235L11.283 7.24843L11.9975 8.35492L12.6911 9.47144L13.3638 10.5976L14.0155 11.733L14.6459 12.8773L15.255 14.0301L15.8427 15.1909L16.4089 16.3595L16.9535 17.5354L17.4764 18.7181L17.9776 19.9074L18.457 21.1029L18.9145 22.3041L19.3501 23.5106L19.7638 24.7221L20.1554 25.9381L20.525 27.1583L20.8725 28.3823L21.198 29.6096L21.5013 30.8399L21.7826 32.0729L22.0418 33.308L22.2789 34.545L22.494 35.7833L22.687 37.0228L22.858 38.2628L23.007 39.5032L23.1341 40.7434L23.2393 41.9832L23.3227 43.222L23.3844 44.4596L23.4243 45.6956L23.4427 46.9296L23.4395 48.1612L23.4148 49.39L23.3689 50.6158L23.3016 51.838L23.2132 53.0564L23.1038 54.2706L22.9735 55.4803L22.8224 56.6851L22.6507 57.8845L22.4584 59.0784L22.2458 60.2663L22.0129 61.4479L21.76 62.6229L21.4871 63.7909L21.1945 64.9516L20.8824 66.1047L20.5508 67.2498L20.2 68.3867L19.8302 69.5149L19.4415 70.6343L19.0342 71.7444L18.6084 72.845L18.1644 73.9358L17.7024 75.0165L17.2225 76.0867L16.7251 77.1463L16.2103 78.1949L15.6784 79.2322L15.1295 80.258L14.564 81.272L13.9821 82.274L13.3839 83.2636L12.7699 84.2406L12.1402 85.2048L11.495 86.156L10.8347 87.0938L10.1595 88.0181L9.46972 88.9286L8.76555 89.825L8.04731 90.7073L7.31527 91.5751L6.56972 92.4283L5.81093 93.2667L5.0392 94.09L4.25482 94.898L3.45808 95.6906L2.64927 96.4676L1.82869 97.2289L0.996655 97.9741L0.153452 98.7033L-0.700609 99.4162L-1.56522 100.113L-2.44007 100.792L-3.32486 101.456L-4.21925 102.102L-5.12296 102.731L-6.03565 103.343L-6.957 103.938L-7.88671 104.516L-8.82445 105.076L-9.76989 105.619L-10.7227 106.144L-11.6826 106.651L-12.6492 107.14L-13.6223 107.612L-14.6014 108.065L-15.5863 108.501L-16.5766 108.918L-17.572 109.317L-18.5722 109.698L-19.5769 110.061L-20.5856 110.405L-21.5982 110.731L-22.6143 111.039L-23.6334 111.328L-24.6554 111.599L-25.6799 111.852L-26.7065 112.086L-27.735 112.302L-28.765 112.499L-29.7962 112.679L-30.8282 112.839L-31.8608 112.982L-32.8936 113.106L-33.9264 113.212L-34.9587 113.299L-35.9902 113.369L-37.0208 113.42L-38.05 113.453L-39.0775 113.469L-40.103 113.466L-41.1262 113.445L-42.1469 113.407L-43.1646 113.351L-44.1792 113.277L-45.1903 113.186L-46.1975 113.078L-47.2007 112.952L-48.1995 112.809L-49.1936 112.649L-50.1828 112.472L-51.1667 112.278L-52.1451 112.067L-53.1176 111.84L-54.0841 111.597L-55.0443 111.337L-55.9978 111.061L-56.9444 110.768L-57.8839 110.46L-58.816 110.137L-59.7404 109.798L-60.6568 109.443L-61.5651 109.073L-62.465 108.689L-63.3561 108.289L-64.2384 107.875L-65.1116 107.446L-65.9753 107.003L-66.8295 106.546L-67.6739 106.075L-68.5082 105.591L-69.3322 105.093L-70.1458 104.581L-70.9486 104.057L-71.7406 103.52L-72.5215 102.97L-73.2912 102.408L-74.0493 101.833L-74.7958 101.247L-75.5305 100.649L-76.2531 100.04L-76.9635 99.4187L-77.6616 98.7869L-78.3471 98.1443L-79.02 97.4911L-79.68 96.8277L-80.327 96.1542L-80.9608 95.4709L-81.5814 94.7781L-82.1886 94.076L-82.7822 93.3648L-83.3621 92.6449L-83.9282 91.9164L-84.4804 91.1797L-85.0185 90.4349L-85.5425 89.6824L-86.0523 88.9224L-86.5477 88.1552L-87.0286 87.3811L-87.4951 86.6002L-87.9469 85.813L-88.384 85.0196L-88.8063 84.2203L-89.2138 83.4154L-89.6064 82.6052L-89.984 81.7899L-90.3466 80.9698L-90.6941 80.1452L-91.0265 79.3163L-91.3437 78.4834L-91.6457 77.6469L-91.9325 76.8069L-92.2041 75.9637L-92.4603 75.1177L-92.7013 74.269L-92.9269 73.4181L-93.1373 72.565L-93.3323 71.7101L-93.512 70.8537L-93.6764 69.9961L-93.8255 69.1374L-93.9594 68.2781L-94.0779 67.4182L-94.1813 66.5582L-94.2694 65.6983L-94.3424 64.8387L-94.4002 63.9797L-94.4429 63.1216L-94.4706 62.2647L-94.4833 61.4091L-94.4811 60.5551L-94.464 59.7031L-94.4322 58.8532L-94.3855 58.0057L-94.3243 57.1609L-94.2484 56.319L-94.158 55.4803L-94.0533 54.645L-93.9342 53.8133L-93.8009 52.9855L-93.6535 52.1619L-93.492 51.3426L-93.3166 50.5279L-93.1274 49.718L-92.9246 48.9133L-92.7081 48.1138L-92.4782 47.3198L-92.235 46.5315L-91.9786 45.7492L-91.7091 44.9731L-91.4267 44.2034L-91.1314 43.4403L-90.8236 42.684L-90.5032 41.9347L-90.1705 41.1926L-89.8256 40.4579L-89.4687 39.7309L-89.0999 39.0116L-88.7193 38.3004L-88.3272 37.5973L-87.9237 36.9026L-87.509 36.2165L-87.0832 35.539L-86.6466 34.8705L-86.1993 34.211L-85.7415 33.5607L-85.2733 32.9199L-84.795 32.2886L-84.3068 31.667L-83.8088 31.0553L-83.3012 30.4535L-82.7843 29.862L-82.2582 29.2807L-81.7231 28.7099L-81.1792 28.1496L-80.6268 27.6L-80.066 27.0613L-79.497 26.5335L-78.9201 26.0167L-78.3355 25.5112L-77.7433 25.0169L-77.1438 24.534L-76.5372 24.0626L-75.9238 23.6028L-75.3036 23.1547L-74.677 22.7184L-74.0442 22.2939L-73.4054 21.8814L-72.7608 21.4809L-72.1106 21.0925L-71.455 20.7163L-70.7944 20.3524L-70.1288 20.0007L-69.4586 19.6614L-68.7839 19.3345L-68.105 19.0201L-67.4222 18.7181L-66.7355 18.4288L-66.0453 18.152L-65.3518 17.8879L-64.6552 17.6364L-63.9558 17.3976L-63.2537 17.1714L-62.5492 16.9581L-61.8426 16.7574L-61.134 16.5695L-60.4236 16.3944L-59.7118 16.232L-58.9987 16.0823L-58.2845 15.9454L-57.5696 15.8213L-56.854 15.7098L-56.138 15.6111L-55.4219 15.5251L-54.7059 15.4517L-53.9901 15.3909L-53.2749 15.3428L-52.5603 15.3072L-51.8467 15.2841L-51.1343 15.2735L-50.4232 15.2754L-49.7138 15.2896L-49.0061 15.3161L-48.3004 15.355L-47.5969 15.406L-46.8959 15.4691L-46.1975 15.5444L-45.502 15.6316L-44.8094 15.7308L-44.1202 15.8418L-43.4343 15.9646L-42.7521 16.099L-42.0737 16.245L-41.3994 16.4026L-40.7292 16.5715L-40.0635 16.7517L-39.4024 16.9432L-38.746 17.1457L-38.0946 17.3592L-37.4484 17.5836L-36.8074 17.8188L-36.172 18.0646L-35.5422 18.3209L-34.9183 18.5877L-34.3004 18.8647L-33.6887 19.1519L-33.0832 19.4491L-32.4843 19.7563L-31.8921 20.0731L-31.3067 20.3996L-30.7282 20.7356L-30.1568 21.0809L-29.5927 21.4355L-29.0361 21.799L-28.4869 22.1715L-27.9455 22.5527L-27.4118 22.9426L-26.8862 23.3408L-26.3686 23.7474L-25.8592 24.162L-25.3582 24.5847L-24.8656 25.0151L-24.3816 25.4532L-23.9062 25.8988L-23.4397 26.3516L-22.9821 26.8116L-22.5335 27.2786L-22.094 27.7524L-21.6637 28.2327L-21.2427 28.7196L-20.8311 29.2127L-20.429 29.7118L-20.0365 30.2169L-19.6537 30.7278L-19.2805 31.2441L-18.9172 31.7659L-18.5638 32.2928L-18.2203 32.8248L-17.8868 33.3616L-17.5634 33.903L-17.2501 34.4488L-16.9471 34.9989L-16.6542 35.5531L-16.3717 36.1112L-16.0995 36.673L-15.8377 37.2383L-15.5863 37.8069L-15.3453 38.3787L-15.1149 38.9534L-14.8949 39.5308L-14.6855 40.1109L-14.4866 40.6933L-14.2984 41.2779L-14.1207 41.8645L-13.9536 42.4529L-13.7971 43.043L-13.6513 43.6345L-13.5161 44.2272L-13.3915 44.821L-13.2775 45.4156L-13.1741 46.011L-13.0813 46.6068L-12.9991 47.203L-12.9274 47.7993L-12.8663 48.3955L-12.8158 48.9916L-12.7757 49.5871L-12.746 50.1821L-12.7268 50.7763L-12.718 51.3695L-12.7195 51.9616L-12.7314 52.5524L-12.7535 53.1417L-12.7858 53.7293L-12.8283 54.315L-12.8809 54.8988L-12.9435 55.4803L-13.0162 56.0595L-13.0988 56.6361L-13.1912 57.2101L-13.2934 57.7812L-13.4054 58.3493L-13.527 58.9141L-13.6581 59.4756L-13.7988 60.0337L-13.9489 60.588L-14.1083 61.1385L-14.2769 61.685L-14.4547 62.2275L-14.6416 62.7656L-14.8374 63.2993L-15.0421 63.8284L-15.2555 64.3528L-15.4777 64.8723L-15.7083 65.3868L-15.9475 65.8962L-16.195 66.4003L-16.4507 66.899L-16.7146 67.3922L-16.9864 67.8797L-17.2662 68.3614L-17.5537 68.8371L-17.8489 69.3068L-18.1517 69.7704L-18.4618 70.2276L-18.7793 70.6785L-19.1039 71.1228L-19.4355 71.5606L-19.774 71.9915L-20.1193 72.4157L-20.4713 72.8329L-20.8297 73.2431L-21.1945 73.6461L-21.5655 74.0419L-21.9426 74.4304L-22.3256 74.8114L-22.7144 75.185L-23.1089 75.5509L-23.5089 75.9092L-23.9143 76.2598L-24.3249 76.6025L-24.7405 76.9373L-25.1611 77.2641L-25.5865 77.5829L-26.0165 77.8936L-26.4509 78.1962L-26.8897 78.4905L-27.3326 78.7765L-27.7796 79.0542L-28.2304 79.3235L-28.6849 79.5843L-29.143 79.8367L-29.6045 80.0805L-30.0692 80.3158L-30.537 80.5424L-31.0077 80.7604L-31.4812 80.9698L-31.9573 81.1704L-32.4358 81.3623L-32.9167 81.5455L-33.3996 81.7198L-33.8846 81.8854L-34.3714 82.0422L-34.8599 82.1901L-35.3498 82.3293L-35.8412 82.4596L-36.3337 82.581L-36.8272 82.6936L-37.3217 82.7974L-37.8168 82.8923L-38.3126 82.9784L-38.8087 83.0556L-39.3052 83.1241L-39.8017 83.1837L-40.2982 83.2346L-40.7944 83.2767L-41.2904 83.3101L-41.7858 83.3348L-42.2806 83.3508L-42.7746 83.3581L-43.2676 83.3569L-43.7595 83.347L-44.2502 83.3286L-44.7395 83.3017L-45.2272 83.2663L-45.7133 83.2225L-46.1975 83.1703L-46.6798 83.1098L-47.16 83.0411L-47.6379 82.9641L-48.1134 82.879L-48.5864 82.7858L-49.0568 82.6845L-49.5244 82.5753L-49.989 82.4582L-50.4506 82.3332L-50.909 82.2005L-51.3641 82.0601L-51.8158 81.912L-52.2638 81.7564L-52.7082 81.5934L-53.1488 81.4229L-53.5855 81.2452L-54.0181 81.0602L-54.4465 80.8681L-54.8707 80.669L-55.2905 80.4629L-55.7057 80.25L-56.1164 80.0303L-56.5223 79.8039L-56.9234 79.5709L-57.3195 79.3315L-57.7106 79.0857L-58.0966 78.8336L-58.4774 78.5753L-58.8528 78.311L-59.2228 78.0407L-59.5873 77.7646L-59.9461 77.4827L-60.2993 77.1952L-60.6467 76.9021L-60.9883 76.6037L-61.3239 76.2999L-61.6534 75.991L-61.9769 75.677L-62.2942 75.3581L-62.6053 75.0343L-62.91 74.7058L-63.2083 74.3727L-63.5002 74.0352L-63.7856 73.6933L-64.0644 73.3472L-64.3365 72.997L-64.602 72.6428L-64.8607 72.2847L-65.1126 71.923L-65.3577 71.5576L-65.5959 71.1888L-65.8271 70.8166L-66.0513 70.4412L-66.2685 70.0627L-66.4787 69.6813L-66.6817 69.2971L-66.8776 68.9101L-67.0663 68.5206L-67.2479 68.1286L-67.4222 67.7344L-67.5892 67.3379L-67.749 66.9394L-67.9015 66.5391L-68.0467 66.1369L-68.1846 65.7331L-68.3152 65.3277L-68.4384 64.921L-68.5542 64.513L-68.6627 64.1039L-68.7638 63.6938L-68.8576 63.2828L-68.944 62.8711L-69.023 62.4588L-69.0947 62.046L-69.159 61.6328L-69.216 61.2195L-69.2657 60.806L-69.3081 60.3926L-69.3431 59.9794L-69.3709 59.5664L-69.3915 59.1539L-69.4048 58.7419L-69.4109 58.3306L-69.4099 57.92L-69.4016 57.5104L-69.3863 57.1018L-69.3639 56.6944L-69.3344 56.2883L-69.298 55.8835L-69.2545 55.4803L-69.2042 55.0787L-69.1469 54.6789L-69.0828 54.2809L-69.012 53.885L-68.9343 53.4911L-68.85 53.0994L-68.7591 52.7101L-68.6615 52.3232L-68.5575 51.9388L-68.447 51.5571L-68.33 51.1782L-68.2067 50.8021L-68.0772 50.429L-67.9414 50.0589L-67.7995 49.6921L-67.6515 49.3285L-67.4975 48.9683L-67.3375 48.6115L-67.1717 48.2583L-67.0001 47.9088L-66.8228 47.563L-66.6399 47.2211L-66.4514 46.8831L-66.2574 46.5491L-66.058 46.2192L-65.8533 45.8935L-65.6434 45.5721L-65.4284 45.2551L-65.2083 44.9425L-64.9832 44.6344L-64.7533 44.3309L-64.5185 44.0321L-64.2791 43.738L-64.0351 43.4487L-63.7866 43.1643L-63.5337 42.8849L-63.2764 42.6104L-63.015 42.3411L-62.7494 42.0769L-62.4798 41.8179L-62.2063 41.5641L-61.9289 41.3157L-61.6478 41.0726L-61.3632 40.835L-61.075 40.6029L-60.7833 40.3763L-60.4884 40.1552L-60.1903 39.9398L-59.889 39.73L-59.5848 39.526L-59.2777 39.3276L-58.9678 39.1351L-58.6552 38.9484L-58.3401 38.7675L-58.0225 38.5926L-57.7025 38.4235L-57.3803 38.2604L-57.0559 38.1032L-56.7296 37.952L-56.4013 37.8069L-56.0712 37.6678L-55.7394 37.5347L-55.406 37.4077L-55.0711 37.2868L-54.7348 37.172L-54.3973 37.0633L-54.0586 36.9607L-53.7189 36.8643L-53.3782 36.7739L-53.0367 36.6897L-52.6945 36.6117L-52.3517 36.5397L-52.0084 36.4739L-51.6646 36.4142L-51.3206 36.3607L-50.9764 36.3132L-50.6321 36.2718L-50.2879 36.2365L-49.9438 36.2073L-49.5999 36.1842L-49.2564 36.1671L-48.9134 36.156L-48.5709 36.1509L-48.229 36.1518L-47.8879 36.1586L-47.5477 36.1714L-47.2085 36.1901L-46.8703 36.2146L-46.5333 36.2449L-46.1975 36.2811L-45.8631 36.3231L-45.5302 36.3707L-45.1988 36.4241L-44.8691 36.4831L-44.5411 36.5477L-44.215 36.618L-43.8908 36.6937L-43.5686 36.7749L-43.2486 36.8615L-42.9308 36.9536L-42.6152 37.0509L-42.3021 37.1536L-41.9914 37.2615L-41.6832 37.3745L-41.3778 37.4927L-41.075 37.6159L-40.775 37.7442L-40.478 37.8774L-40.1839 38.0154L-39.8928 38.1583L-39.6049 38.306L-39.3202 38.4583L-39.0387 38.6153L-38.7606 38.7768L-38.486 38.9428L-38.2148 39.1133L-37.9471 39.288L-37.6831 39.4671L-37.4228 39.6504L-37.1663 39.8378L-36.9136 40.0293L-36.6648 40.2247L-36.4199 40.4241L-36.179 40.6272L-35.9422 40.8342L-35.7095 41.0448L-35.481 41.259L-35.2567 41.4767L-35.0367 41.6978L-34.821 41.9223L-34.6097 42.1501L-34.4029 42.381L-34.2005 42.6151L-34.0026 42.8521L-33.8093 43.0921L-33.6206 43.3349L-33.4366 43.5805L-33.2572 43.8288L-33.0825 44.0796L-32.9126 44.3329L-32.7475 44.5887L-32.5871 44.8467L-32.4317 45.107L-32.2811 45.3694L-32.1354 45.6339L-31.9946 45.9003L-31.8588 46.1686L-31.7279 46.4387L-31.602 46.7105L-31.4812 46.9838L-31.3653 47.2587L-31.2545 47.535L-31.1488 47.8126L-31.0481 48.0915L-30.9525 48.3715L-30.862 48.6525L-30.7766 48.9345L-30.6963 49.2174L-30.621 49.5011L-30.5509 49.7854L-30.4859 50.0704L-30.426 50.3558L-30.3712 50.6417L-30.3215 50.9279L-30.2769 51.2144L-30.2374 51.501L-30.2029 51.7877L-30.1736 52.0743L-30.1492 52.3608L-30.13 52.6472L-30.1157 52.9332L-30.1065 53.2189L-30.1022 53.5041L-30.103 53.7887L-30.1087 54.0727L-30.1193 54.356L-30.1348 54.6385L-30.1553 54.9201L-30.1806 55.2007L-30.2107 55.4803L-30.2456 55.7588L-30.2853 56.036L-30.3297 56.3119L-30.3789 56.5865L-30.4327 56.8596L-30.4912 57.1311L-30.5542 57.4011L-30.6218 57.6693L-30.694 57.9358L-30.7706 58.2005L-30.8517 58.4632L-30.9372 58.724L-31.027 58.9827L-31.1211 59.2393L-31.2195 59.4936L-31.3222 59.7457L-31.4289 59.9955L-31.5398 60.2429L-31.6548 60.4878L-31.7738 60.7301L-31.8967 60.9699L-32.0236 61.2069L-32.1543 61.4413L-32.2888 61.6729L-32.427 61.9016L-32.5689 62.1274L-32.7145 62.3503L-32.8636 62.5701L-33.0162 62.7868L-33.1723 63.0005L-33.3317 63.2109L-33.4944 63.4181L-33.6604 63.622L-33.8296 63.8226L-34.0019 64.0198L-34.1773 64.2135L-34.3557 64.4038L-34.537 64.5905L-34.7211 64.7737L-34.908 64.9533L-35.0977 65.1293L-35.29 65.3015L-35.4849 65.47L-35.6823 65.6348L-35.8821 65.7957L-36.0843 65.9529L-36.2888 66.1061L-36.4955 66.2555L-36.7044 66.401L-36.9153 66.5424L-37.1282 66.6799L-37.3431 66.8134L-37.5598 66.9429L-37.7784 67.0683L-37.9986 67.1896L-38.2204 67.3068L-38.4438 67.42L-38.6687 67.5289L-38.895 67.6337" stroke="black"/>
 </g>
</svg>
