<?xml version="1.0" encoding="utf-8"?>
<svg xmlns="http://www.w3.org/2000/svg" fill="none" version="1.1" viewBox="-256.118 -279.208 512.236 558.417" x="-256.118pt" y="-279.208pt" width="512.236pt" height="558.417pt" stroke-width="0.566929" stroke-miterlimit="10.000000">
 <path d="M160.157 -251.279L255.118 -251.279L255.118 -278.208L160.157 -278.208Z" fill="black"/>
 <path d="M208.063 -256.948L208.63 -256.948"/>
 <g transform="matrix(1.000000,-0.000000,-0.000000,1.000000,208.346457,-256.948429)">
  <path d="M-40.4207 -0M-30.8333 -6.75664C-31.2672 -5.70286 -32.0317 -3.8019 -32.197 -3.07872L-32.2177 -3.07872C-32.4036 -3.82257 -33.2508 -5.86816 -33.6847 -6.96327L-36.3295 -13.4926C-36.6808 -14.3398 -37.342 -14.3398 -37.7139 -14.3398L-39.4289 -14.3398C-40.1727 -14.3398 -40.4207 -14.1125 -40.4207 -13.348L-40.4207 -0.991801C-40.4207 -0.24795 -40.1934 -0 -39.4289 -0L-38.871 -0C-38.0858 -0 -37.8792 -0.268613 -37.8792 -0.991801L-37.8792 -11.6743L-37.8585 -11.6743C-37.6313 -10.7445 -36.7014 -8.45097 -36.2055 -7.23188L-33.8087 -1.34306C-33.4368 -0.454575 -32.9409 -0.454575 -32.2383 -0.454575C-31.5358 -0.454575 -31.0399 -0.454575 -30.668 -1.34306L-28.0232 -7.8311C-27.8166 -8.327 -26.7008 -11.1371 -26.5561 -11.6743L-26.5355 -11.6743L-26.5355 -0.991801C-26.5355 -0.3306 -26.3908 -0 -25.5437 -0L-24.9858 -0C-24.2006 -0 -23.994 -0.268613 -23.994 -0.991801L-23.994 -13.348C-23.994 -14.0092 -24.1386 -14.3398 -24.9858 -14.3398L-26.7214 -14.3398C-27.238 -14.3398 -27.7546 -14.2985 -28.1058 -13.4513ZM-28.1058 -13.4513" fill="#fff"/>
 </g>
 <g transform="matrix(1.000000,-0.000000,-0.000000,1.000000,208.346457,-256.948429)">
  <path d="M-20.2172 -0M-10.6298 -6.75664C-11.0637 -5.70286 -11.8283 -3.8019 -11.9936 -3.07872L-12.0142 -3.07872C-12.2002 -3.82257 -13.0473 -5.86816 -13.4813 -6.96327L-16.1261 -13.4926C-16.4773 -14.3398 -17.1385 -14.3398 -17.5104 -14.3398L-19.2254 -14.3398C-19.9693 -14.3398 -20.2172 -14.1125 -20.2172 -13.348L-20.2172 -0.991801C-20.2172 -0.24795 -19.9899 -0 -19.2254 -0L-18.6675 -0C-17.8824 -0 -17.6757 -0.268613 -17.6757 -0.991801L-17.6757 -11.6743L-17.6551 -11.6743C-17.4278 -10.7445 -16.498 -8.45097 -16.0021 -7.23188L-13.6052 -1.34306C-13.2333 -0.454575 -12.7374 -0.454575 -12.0349 -0.454575C-11.3324 -0.454575 -10.8364 -0.454575 -10.4645 -1.34306L-7.81972 -7.8311C-7.6131 -8.327 -6.49732 -11.1371 -6.35268 -11.6743L-6.33202 -11.6743L-6.33202 -0.991801C-6.33202 -0.3306 -6.18738 -0 -5.34022 -0L-4.78233 -0C-3.99716 -0 -3.79053 -0.268613 -3.79053 -0.991801L-3.79053 -13.348C-3.79053 -14.0092 -3.93517 -14.3398 -4.78233 -14.3398L-6.51798 -14.3398C-7.03455 -14.3398 -7.55111 -14.2985 -7.90237 -13.4513ZM-7.90237 -13.4513" fill="#fff"/>
 </g>
 <g transform="matrix(1.000000,-0.000000,-0.000000,1.000000,208.346457,-256.948429)">
  <path d="M-1.02624 -0M7.89997 -13.4513C7.59003 -14.3398 6.99082 -14.3398 6.57757 -14.3398L4.75927 -14.3398C4.34602 -14.3398 3.7468 -14.3398 3.43686 -13.4513L-0.922928 -0.971138C-1.02624 -0.702526 -1.02624 -0.661201 -1.02624 -0.557888C-1.02624 -0 -0.509677 -0 -0.220402 -0L0.523449 -0C0.895374 -0 1.53591 -0 1.82519 -0.826501L2.63103 -3.12004L8.35454 -3.12004L9.05707 -1.13644C9.30502 -0.41325 9.44966 -0 10.4415 -0L11.5572 -0C11.8465 -0 12.3631 -0 12.3631 -0.557888C12.3631 -0.661201 12.3631 -0.702526 12.2598 -0.971138ZM12.2598 -0.971138M4.7386 -9.27747C5.04854 -10.1866 5.31715 -10.9718 5.48245 -11.7156L5.50312 -11.7156C5.60643 -11.2197 5.60643 -11.1784 5.77173 -10.7032L7.73467 -4.89702L3.2509 -4.89702ZM3.2509 -4.89702" fill="#fff"/>
 </g>
 <g transform="matrix(1.000000,-0.000000,-0.000000,1.000000,208.346457,-256.948429)">
  <path d="M13.8876 -0M25.8512 -2.95474C25.8512 -3.12004 25.7065 -3.20269 25.6239 -3.20269C25.128 -3.20269 24.5288 -1.85963 21.6154 -1.85963C17.9788 -1.85963 16.9456 -4.09118 16.9456 -7.19056C16.9456 -10.2693 18.0614 -12.5008 21.4501 -12.5008C23.289 -12.5008 24.2602 -11.7776 24.8181 -11.3231C24.942 -11.2197 25.004 -11.1371 25.1487 -11.1371C25.2313 -11.1371 25.3346 -11.2404 25.3553 -11.3231L25.7685 -13.6166C25.7892 -13.6993 25.7685 -13.7819 25.6032 -13.8439C24.3841 -14.2985 23.1237 -14.5877 21.512 -14.5877C16.4704 -14.5877 13.8876 -12.1289 13.8876 -7.21122C13.8876 -2.1489 16.5117 0.206625 21.5327 0.206625C23.289 0.206625 24.3841 -0.041325 25.8925 -0.971138C26.0578 -1.07445 26.0165 -1.21909 26.0165 -1.21909ZM26.0165 -1.21909" fill="#fff"/>
 </g>
 <g transform="matrix(1.000000,-0.000000,-0.000000,1.000000,208.346457,-256.948429)">
  <path d="M28.0162 -0M36.9424 -13.4513C36.6325 -14.3398 36.0333 -14.3398 35.62 -14.3398L33.8017 -14.3398C33.3885 -14.3398 32.7893 -14.3398 32.4793 -13.4513L28.1195 -0.971138C28.0162 -0.702526 28.0162 -0.661201 28.0162 -0.557888C28.0162 -0 28.5328 -0 28.8221 -0L29.5659 -0C29.9378 -0 30.5784 -0 30.8676 -0.826501L31.6735 -3.12004L37.397 -3.12004L38.0995 -1.13644C38.3475 -0.41325 38.4921 -0 39.4839 -0L40.5997 -0C40.889 -0 41.4055 -0 41.4055 -0.557888C41.4055 -0.661201 41.4055 -0.702526 41.3022 -0.971138ZM41.3022 -0.971138M33.7811 -9.27747C34.091 -10.1866 34.3596 -10.9718 34.5249 -11.7156L34.5456 -11.7156C34.6489 -11.2197 34.6489 -11.1784 34.8142 -10.7032L36.7771 -4.89702L32.2934 -4.89702ZM32.2934 -4.89702" fill="#fff"/>
 </g>
 <path d="M208.063 -231.437L208.63 -231.437"/>
 <g transform="matrix(1.000000,-0.000000,-0.000000,1.000000,208.346457,-231.436618)">
  <path d="M-29.9114 -11.7579M-25.378 0.508103L-27.9029 -5.07257C-28.0033 -5.30211 -28.0751 -5.30211 -28.1181 -5.30211C-28.1324 -5.30211 -28.2042 -5.30211 -28.362 -5.18734L-29.7249 -4.15441C-29.9114 -4.01095 -29.9114 -3.96791 -29.9114 -3.92487C-29.9114 -3.85314 -29.8683 -3.76706 -29.7679 -3.76706C-29.6818 -3.76706 -29.4379 -3.96791 -29.2801 -4.08268C-29.1941 -4.15441 -28.9789 -4.31222 -28.8211 -4.42699L-25.9949 1.78491C-25.8944 2.01445 -25.8227 2.01445 -25.6936 2.01445C-25.4784 2.01445 -25.4354 1.92838 -25.3349 1.72753L-18.8218 -11.7579C-18.7213 -11.9587 -18.7213 -12.0161 -18.7213 -12.0448C-18.7213 -12.1883 -18.8361 -12.3317 -19.0083 -12.3317C-19.123 -12.3317 -19.2235 -12.26 -19.3382 -12.0305ZM-19.3382 -12.0305" fill="black"/>
 </g>
 <g transform="matrix(1.000000,-0.000000,-0.000000,1.000000,208.346457,-231.436618)">
  <path d="M-19.0034 -11.7579L-11.9799 -11.7579L-11.9799 -12.3317L-19.0034 -12.3317Z" fill="black"/>
 </g>
 <g transform="matrix(1.000000,-0.000000,-0.000000,1.000000,208.346457,-231.436618)">
  <path d="M-18.3005 -0M-12.6911 -2.41016L-13.0067 -2.41016C-13.0498 -2.16628 -13.1645 -1.37723 -13.308 -1.1477C-13.4084 -1.01858 -14.2262 -1.01858 -14.6565 -1.01858L-17.3106 -1.01858C-16.9232 -1.34854 -16.0481 -2.2667 -15.6751 -2.61101C-13.4945 -4.61948 -12.6911 -5.36548 -12.6911 -6.78575C-12.6911 -8.43556 -13.9966 -9.54022 -15.6608 -9.54022C-17.3249 -9.54022 -18.3005 -8.11995 -18.3005 -6.88617C-18.3005 -6.15452 -17.6692 -6.15452 -17.6262 -6.15452C-17.3249 -6.15452 -16.9519 -6.36971 -16.9519 -6.82879C-16.9519 -7.23048 -17.2245 -7.50306 -17.6262 -7.50306C-17.7553 -7.50306 -17.784 -7.50306 -17.8271 -7.48871C-17.5545 -8.46426 -16.7798 -9.12418 -15.8473 -9.12418C-14.6279 -9.12418 -13.8819 -8.1056 -13.8819 -6.78575C-13.8819 -5.56632 -14.5848 -4.50471 -15.4025 -3.58655L-18.3005 -0.344309L-18.3005 -0L-13.0641 -0ZM-13.0641 -0" fill="black"/>
 </g>
 <g transform="matrix(1.000000,-0.000000,-0.000000,1.000000,208.346457,-231.436618)">
  <path d="M-6.5228 -0M-1.12863 -10.2432C-1.0569 -10.4297 -1.0569 -10.4584 -1.0569 -10.4871C-1.0569 -10.6736 -1.20036 -10.7596 -1.31513 -10.7596C-1.50163 -10.7596 -1.54467 -10.6305 -1.6164 -10.444L-6.45107 3.07009C-6.5228 3.25659 -6.5228 3.28528 -6.5228 3.31397C-6.5228 3.47178 -6.40803 3.58655 -6.25022 3.58655C-6.06372 3.58655 -6.02068 3.44309 -5.9633 3.28528ZM-5.9633 3.28528" fill="black"/>
 </g>
 <g transform="matrix(1.000000,-0.000000,-0.000000,1.000000,208.346457,-231.436618)">
  <path d="M4.99665 -0M7.04816 -5.15028C6.80427 -5.13594 6.74689 -5.12159 6.74689 -4.99248C6.74689 -4.84901 6.81862 -4.84901 7.07685 -4.84901L7.73677 -4.84901C8.9562 -4.84901 9.50136 -3.84478 9.50136 -2.46755C9.50136 -0.588194 8.52581 -0.0860772 7.82285 -0.0860772C7.13423 -0.0860772 5.95785 -0.41604 5.54181 -1.36289C6.00088 -1.29116 6.41692 -1.54939 6.41692 -2.06585C6.41692 -2.48189 6.11565 -2.76882 5.71396 -2.76882C5.36965 -2.76882 4.99665 -2.56797 4.99665 -2.02281C4.99665 -0.746002 6.27346 0.30127 7.86589 0.30127C9.57309 0.30127 10.8356 -1.00423 10.8356 -2.4532C10.8356 -3.77305 9.77393 -4.80598 8.3967 -5.04986C9.64482 -5.40852 10.4482 -6.45579 10.4482 -7.57479C10.4482 -8.70814 9.27182 -9.54022 7.88024 -9.54022C6.44562 -9.54022 5.384 -8.6651 5.384 -7.61783C5.384 -7.04398 5.82873 -6.92921 6.04392 -6.92921C6.34519 -6.92921 6.6895 -7.14441 6.6895 -7.57479C6.6895 -8.03387 6.34519 -8.23472 6.02958 -8.23472C5.9435 -8.23472 5.91481 -8.23472 5.87177 -8.22037C6.41692 -9.19591 7.76547 -9.19591 7.8372 -9.19591C8.31062 -9.19591 9.24312 -8.98072 9.24312 -7.57479C9.24312 -7.30221 9.20009 -6.49883 8.78405 -5.88194C8.35366 -5.25071 7.86589 -5.20767 7.47854 -5.19332ZM7.47854 -5.19332" fill="black"/>
 </g>
 <g transform="matrix(1.000000,-0.000000,-0.000000,1.000000,208.346457,-231.436618)">
  <path d="M12.0202 -0M13.1966 -4.99248C13.1966 -8.62206 14.9612 -9.19591 15.7359 -9.19591C16.2524 -9.19591 16.7688 -9.0381 17.0414 -8.60772C16.8692 -8.60772 16.3241 -8.60772 16.3241 -8.01952C16.3241 -7.70391 16.5393 -7.43133 16.9123 -7.43133C17.2709 -7.43133 17.5148 -7.64652 17.5148 -8.06256C17.5148 -8.80856 16.9697 -9.54022 15.7215 -9.54022C13.9139 -9.54022 12.0202 -7.68956 12.0202 -4.5334C12.0202 -0.588194 13.7418 0.30127 14.9612 0.30127C16.5249 0.30127 17.8591 -1.06162 17.8591 -2.92662C17.8591 -4.83467 16.5249 -6.11148 15.0903 -6.11148C13.8135 -6.11148 13.3401 -5.00682 13.1966 -4.60513ZM13.1966 -4.60513M14.9612 -0.0860772C14.0574 -0.0860772 13.627 -0.889464 13.4979 -1.19073C13.3688 -1.56374 13.2253 -2.2667 13.2253 -3.27093C13.2253 -4.40428 13.7418 -5.82456 15.0329 -5.82456C15.822 -5.82456 16.238 -5.29375 16.4532 -4.80598C16.6827 -4.27517 16.6827 -3.55786 16.6827 -2.94097C16.6827 -2.20931 16.6827 -1.56374 16.4102 -1.01858C16.0515 -0.329963 15.535 -0.0860772 14.9612 -0.0860772ZM14.9612 -0.0860772" fill="black"/>
 </g>
 <g transform="matrix(1.000000,-0.000000,-0.000000,1.000000,208.346457,-231.436618)">
  <path d="M19.0438 -0M24.8827 -4.59078C24.8827 -5.78152 24.811 -6.94356 24.2945 -8.03387C23.7063 -9.2246 22.6734 -9.54022 21.9704 -9.54022C21.1383 -9.54022 20.1198 -9.12418 19.589 -7.93345C19.1873 -7.02964 19.0438 -6.14017 19.0438 -4.59078C19.0438 -3.1992 19.1442 -2.15193 19.6607 -1.13335C20.2202 -0.0430386 21.2101 0.30127 21.9561 0.30127C23.2042 0.30127 23.9215 -0.444732 24.3375 -1.27681C24.854 -2.35278 24.8827 -3.7587 24.8827 -4.59078ZM24.8827 -4.59078M21.9561 0.0143462C21.497 0.0143462 20.5645 -0.243885 20.2919 -1.80762C20.1341 -2.66839 20.1341 -3.7587 20.1341 -4.76294C20.1341 -5.93933 20.1341 -7.00094 20.3636 -7.84737C20.6075 -8.80856 21.3392 -9.2533 21.9561 -9.2533C22.5012 -9.2533 23.3333 -8.92333 23.6059 -7.68956C23.7924 -6.87183 23.7924 -5.73848 23.7924 -4.76294C23.7924 -3.80174 23.7924 -2.71143 23.6346 -1.83631C23.362 -0.258232 22.4582 0.0143462 21.9561 0.0143462ZM21.9561 0.0143462" fill="black"/>
 </g>
 <g transform="matrix(1.000000,-0.000000,-0.000000,1.000000,208.346457,-231.436618)">
  <path d="M26.0271 -5.20611M29.9026 -7.69677C29.9026 -8.76277 29.0159 -9.62952 27.9698 -9.62952C26.8939 -9.62952 26.0271 -8.74285 26.0271 -7.69677C26.0271 -6.64073 26.8939 -5.76402 27.9698 -5.76402C29.0159 -5.76402 29.9026 -6.63077 29.9026 -7.69677ZM29.9026 -7.69677M27.9698 -6.16252C27.1031 -6.16252 26.4256 -6.85991 26.4256 -7.69677C26.4256 -8.53363 27.113 -9.23102 27.9698 -9.23102C28.7967 -9.23102 29.5041 -8.55356 29.5041 -7.69677C29.5041 -6.83998 28.7967 -6.16252 27.9698 -6.16252ZM27.9698 -6.16252" fill="black"/>
 </g>
 <g stroke-linecap="round" stroke-linejoin="round">
  <path d="M-22.0492 24.0448L-244.898 -198.805" stroke="black"/>
 </g>
 <g stroke-linecap="butt" stroke-linejoin="round" stroke-dasharray="2.000000" stroke-dashoffset="0.000000">
  <path d="M-22.0492 24.0448L-177.368 -244.976" stroke="black"/>
 </g>
 <g stroke-linecap="round" stroke-linejoin="round">
  <path d="M-22.0492 24.0448L-101.296 -271.707" stroke="black"/>
 </g>
 <g stroke-linecap="butt" stroke-linejoin="round" stroke-dasharray="2.000000" stroke-dashoffset="0.000000">
  <path d="M-22.0492 24.0448L-22.0492 -277.75" stroke="black"/>
 </g>
 <g stroke-linecap="round" stroke-linejoin="round">
  <path d="M-22.0492 24.0448L54.9413 -263.287" stroke="black"/>
 </g>
 <g stroke-linecap="butt" stroke-linejoin="round" stroke-dasharray="2.000000" stroke-dashoffset="0.000000">
  <path d="M-22.0492 24.0448L124.553 -229.877" stroke="black"/>
 </g>
 <g stroke-linecap="round" stroke-linejoin="round">
  <path d="M-22.0492 24.0448L182.305 -180.309" stroke="black"/>
 </g>
 <g stroke-linecap="butt" stroke-linejoin="round" stroke-dasharray="2.000000" stroke-dashoffset="0.000000">
  <path d="M-22.0492 24.0448L224.644 -118.383" stroke="black"/>
 </g>
 <g stroke-linecap="round" stroke-linejoin="round">
  <path d="M-22.0492 24.0448L249.156 -48.6245" stroke="black"/>
 </g>
 <g stroke-linecap="butt" stroke-linejoin="round" stroke-dasharray="2.000000" stroke-dashoffset="0.000000">
  <path d="M-22.0492 24.0448L254.698 24.0448" stroke="black"/>
 </g>
 <g stroke-linecap="round" stroke-linejoin="round">
  <path d="M-22.0492 24.0448L241.436 94.6453" stroke="black"/>
 </g>
 <g stroke-linecap="butt" stroke-linejoin="round" stroke-dasharray="2.000000" stroke-dashoffset="0.000000">
  <path d="M-22.0492 24.0448L210.798 158.479" stroke="black"/>
 </g>
 <g stroke-linecap="round" stroke-linejoin="round">
  <path d="M-22.0492 24.0448L165.344 211.438" stroke="black"/>
 </g>
 <g stroke-linecap="butt" stroke-linejoin="round" stroke-dasharray="2.000000" stroke-dashoffset="0.000000">
  <path d="M-22.0492 24.0448L108.558 250.263" stroke="black"/>
 </g>
 <g stroke-linecap="round" stroke-linejoin="round">
  <path d="M-22.0492 24.0448L44.5889 272.741" stroke="black"/>
 </g>
 <g stroke-linecap="butt" stroke-linejoin="round" stroke-dasharray="2.000000" stroke-dashoffset="0.000000">
  <path d="M-22.0492 24.0448L-22.0492 277.823" stroke="black"/>
 </g>
 <g stroke-linecap="round" stroke-linejoin="round">
  <path d="M-22.0492 24.0448L-86.7901 265.661" stroke="black"/>
 </g>
 <g stroke-linecap="butt" stroke-linejoin="round" stroke-dasharray="2.000000" stroke-dashoffset="0.000000">
  <path d="M-22.0492 24.0448L-145.326 237.567" stroke="black"/>
 </g>
 <g stroke-linecap="round" stroke-linejoin="round">
  <path d="M-22.0492 24.0448L-193.889 195.885" stroke="black"/>
 </g>
 <g stroke-linecap="butt" stroke-linejoin="round" stroke-dasharray="2.000000" stroke-dashoffset="0.000000">
  <path d="M-22.0492 24.0448L-229.492 143.812" stroke="black"/>
 </g>
 <g stroke-linecap="round" stroke-linejoin="round">
  <path d="M-22.0492 24.0448L-250.105 85.1521" stroke="black"/>
 </g>
 <g stroke-linecap="butt" stroke-linejoin="round" stroke-dasharray="2.000000" stroke-dashoffset="0.000000">
  <path d="M-22.0492 24.0448L-254.765 24.0448" stroke="black"/>
 </g>
 <g stroke-linecap="round" stroke-linejoin="round">
  <path d="M-22.0492 24.0448L-243.613 -35.323" stroke="black"/>
 </g>
 <g stroke-linecap="butt" stroke-linejoin="round" stroke-dasharray="2.000000" stroke-dashoffset="0.000000">
  <path d="M-22.0492 24.0448L-217.849 -89.0006" stroke="black"/>
 </g>
 <g stroke-linecap="round" stroke-linejoin="round">
  <path d="M-22.0492 24.0448L-179.627 -133.534" stroke="black"/>
 </g>
 <g stroke-linecap="round" stroke-linejoin="round" stroke-width="1.603518">
  <path d="M-244.898 -198.805L-240.765 -202.442L-236.572 -206.003L-232.322 -209.487L-228.016 -212.893L-223.655 -216.22L-219.241 -219.467L-214.776 -222.634L-210.26 -225.719L-205.695 -228.723L-201.084 -231.643L-196.426 -234.48L-191.724 -237.232L-186.98 -239.899L-182.194 -242.481L-177.368 -244.976L-172.505 -247.384L-167.604 -249.705L-162.669 -251.938L-157.701 -254.082L-152.7 -256.137L-147.669 -258.103L-142.61 -259.979L-137.524 -261.764L-132.412 -263.459L-127.276 -265.063L-122.118 -266.575L-116.939 -267.996L-111.741 -269.325L-106.526 -270.562L-101.296 -271.707L-96.0507 -272.759L-90.7932 -273.719L-85.5249 -274.585L-80.2474 -275.359L-74.9623 -276.04L-69.6711 -276.628L-64.3756 -277.124L-59.0774 -277.526L-53.7781 -277.836L-48.4792 -278.052L-43.1825 -278.177L-37.8896 -278.208L-32.6019 -278.148L-27.3213 -277.995L-22.0492 -277.75L-16.7872 -277.414L-11.5369 -276.986L-6.29998 -276.467L-1.07791 -275.858L4.1277 -275.158L9.31532 -274.368L14.4834 -273.489L19.6303 -272.52L24.7547 -271.463L29.8549 -270.318L34.9294 -269.085L39.9768 -267.765L44.9956 -266.358L49.9842 -264.865L54.9413 -263.287L59.8653 -261.625L64.7548 -259.878L69.6085 -258.048L74.4248 -256.136L79.2024 -254.142L83.9399 -252.066L88.636 -249.911L93.2892 -247.675L97.8983 -245.362L102.462 -242.97L106.979 -240.501L111.447 -237.957L115.867 -235.337L120.236 -232.644L124.553 -229.877L128.816 -227.038L133.026 -224.128L137.18 -221.147L141.278 -218.098L145.318 -214.98L149.299 -211.796L153.22 -208.545L157.08 -205.23L160.878 -201.851L164.613 -198.41L168.283 -194.908L171.889 -191.345L175.428 -187.724L178.9 -184.045L182.305 -180.309L185.64 -176.518L188.905 -172.674L192.1 -168.776L195.224 -164.827L198.274 -160.829L201.252 -156.781L204.156 -152.686L206.986 -148.545L209.74 -144.36L212.418 -140.131L215.019 -135.86L217.543 -131.548L219.988 -127.197L222.356 -122.808L224.644 -118.383L226.852 -113.924L228.98 -109.43L231.028 -104.904L232.994 -100.348L234.879 -95.7627L236.681 -91.1495L238.402 -86.51L240.039 -81.8457L241.593 -77.158L243.064 -72.4485L244.451 -67.7185L245.754 -62.9697L246.972 -58.2034L248.107 -53.4212L249.156 -48.6245L250.121 -43.8149L251.001 -38.9938L251.796 -34.1628L252.506 -29.3233L253.13 -24.4768L253.669 -19.6248L254.124 -14.7688L254.493 -9.91028L254.776 -5.05077L254.975 -0.191719L255.089 4.66538L255.118 9.51905L255.063 14.3678L254.922 19.2102L254.698 24.0448L254.39 28.87L253.997 33.6845L253.522 38.4868L252.963 43.2755L252.321 48.0491L251.597 52.8061L250.79 57.5453L249.902 62.265L248.933 66.9641L247.882 71.641L246.752 76.2944L245.541 80.9229L244.251 85.5251L242.883 90.0997L241.436 94.6453L239.911 99.1607L238.309 103.644L236.631 108.095L234.878 112.512L233.049 116.893L231.146 121.237L229.169 125.543L227.119 129.811L224.998 134.037L222.804 138.222L220.541 142.364L218.208 146.462L215.805 150.514L213.335 154.52L210.798 158.479L208.195 162.389L205.526 166.249L202.793 170.059L199.996 173.816L197.138 177.521L194.217 181.172L191.237 184.767L188.197 188.307L185.099 191.79L181.943 195.214L178.731 198.58L175.464 201.887L172.143 205.132L168.77 208.316L165.344 211.438L161.868 214.496L158.342 217.491L154.768 220.421L151.147 223.285L147.481 226.082L143.769 228.813L140.014 231.476L136.217 234.071L132.378 236.596L128.5 239.052L124.584 241.437L120.63 243.751L116.64 245.994L112.616 248.165L108.558 250.263L104.468 252.288L100.348 254.24L96.1978 256.117L92.0197 257.921L87.8148 259.649L83.5845 261.302L79.33 262.879L75.0528 264.381L70.7542 265.806L66.4355 267.154L62.0982 268.426L57.7434 269.621L53.3727 270.739L48.9874 271.779L44.5889 272.741L40.1784 273.626L35.7575 274.433L31.3274 275.162L26.8895 275.813L22.4453 276.385L17.996 276.88L13.543 277.296L9.08777 277.635L4.63157 277.895L0.175807 278.077L-4.27817 278.182L-8.72901 278.208L-13.1753 278.157L-17.6158 278.029L-22.0492 277.823L-26.4739 277.54L-30.8889 277.181L-35.2926 276.744L-39.6838 276.232L-44.0612 275.643L-48.4234 274.979L-52.7692 274.24L-57.0973 273.425L-61.4063 272.536L-65.6951 271.573L-69.9623 270.536L-74.2066 269.426L-78.4268 268.243L-82.6218 266.988L-86.7901 265.661L-90.9307 264.263L-95.0423 262.795L-99.1237 261.256L-103.174 259.648L-107.191 257.971L-111.175 256.226L-115.124 254.413L-119.037 252.533L-122.913 250.588L-126.75 248.577L-130.548 246.501L-134.306 244.361L-138.022 242.158L-141.696 239.893L-145.326 237.567L-148.912 235.179L-152.451 232.732L-155.945 230.226L-159.39 227.661L-162.787 225.04L-166.135 222.362L-169.432 219.629L-172.678 216.841L-175.872 214L-179.012 211.106L-182.099 208.161L-185.131 205.165L-188.107 202.12L-191.027 199.026L-193.889 195.885L-196.694 192.697L-199.44 189.464L-202.127 186.187L-204.753 182.867L-207.319 179.504L-209.823 176.101L-212.265 172.657L-214.644 169.175L-216.959 165.655L-219.211 162.099L-221.399 158.508L-223.521 154.882L-225.578 151.224L-227.568 147.533L-229.492 143.812L-231.349 140.062L-233.139 136.283L-234.861 132.478L-236.514 128.646L-238.099 124.79L-239.615 120.911L-241.061 117.01L-242.438 113.088L-243.745 109.146L-244.982 105.186L-246.148 101.208L-247.244 97.2149L-248.268 93.207L-249.222 89.1856L-250.105 85.1521L-250.916 81.1077L-251.656 77.0537L-252.324 72.9913L-252.921 68.9218L-253.446 64.8463L-253.9 60.7663L-254.282 56.6829L-254.592 52.5975L-254.831 48.5111L-254.998 44.4251L-255.094 40.3408L-255.118 36.2594L-255.071 32.1821L-254.954 28.1101L-254.765 24.0448L-254.506 19.9872L-254.176 15.9387L-253.776 11.9005L-253.306 7.87373L-252.766 3.85965L-252.157 -0.140542L-251.479 -4.12566L-250.732 -8.09452L-249.917 -12.0459L-249.034 -15.9787L-248.083 -19.8917L-247.065 -23.7838L-245.98 -27.6538L-244.829 -31.5006L-243.613 -35.323L-242.331 -39.1199L-240.984 -42.8903L-239.573 -46.6329L-238.098 -50.3468L-236.56 -54.0309L-234.96 -57.684L-233.298 -61.3051L-231.574 -64.8933L-229.79 -68.4473L-227.946 -71.9664L-226.042 -75.4493L-224.08 -78.8952L-222.06 -82.303L-219.983 -85.6718L-217.849 -89.0006L-215.66 -92.2885L-213.416 -95.5346L-211.118 -98.738L-208.766 -101.898L-206.363 -105.013L-203.907 -108.083L-201.401 -111.106L-198.844 -114.083L-196.239 -117.011L-193.585 -119.891L-190.885 -122.722L-188.137 -125.502L-185.345 -128.231L-182.508 -130.908L-179.627 -133.534L-176.704 -136.105L-173.74 -138.623L-170.734 -141.087L-167.69 -143.495L-164.606 -145.848L-161.485 -148.144L-158.327 -150.383L-155.134 -152.565L-151.907 -154.689L-148.646 -156.754L-145.352 -158.76L-142.028 -160.706L-138.673 -162.592L-135.288 -164.417L-131.876 -166.182L-128.437 -167.884L-124.972 -169.525L-121.483 -171.104L-117.969 -172.621L-114.433 -174.074L-110.876 -175.464L-107.299 -176.79L-103.702 -178.053L-100.087 -179.251L-96.4556 -180.385L-92.8083 -181.455L-89.1465 -182.46L-85.4712 -183.399L-81.7836 -184.274L-78.0848 -185.083L-74.3761 -185.827L-70.6586 -186.506L-66.9333 -187.119L-63.2015 -187.666L-59.4644 -188.147L-55.723 -188.563L-51.9785 -188.914L-48.2321 -189.198L-44.4849 -189.417L-40.738 -189.57L-36.9927 -189.658L-33.25 -189.68L-29.5111 -189.638L-25.7771 -189.53L-22.0492 -189.356L-18.3284 -189.119L-14.6159 -188.816L-10.9128 -188.449L-7.22025 -188.018L-3.53932 -187.524L0.128878 -186.965L3.78325 -186.343L7.42271 -185.658L11.0462 -184.911L14.6526 -184.101L18.2408 -183.229L21.8098 -182.296L25.3586 -181.301L28.8861 -180.246L32.3913 -179.13L35.8731 -177.954L39.3305 -176.719L42.7626 -175.425L46.1682 -174.073L49.5465 -172.663L52.8964 -171.195L56.2171 -169.671L59.5074 -168.09L62.7665 -166.454L65.9934 -164.763L69.1873 -163.018L72.3472 -161.218L75.4722 -159.366L78.5614 -157.461L81.6139 -155.505L84.629 -153.497L87.6056 -151.44L90.5431 -149.332L93.4406 -147.176L96.2972 -144.971L99.1122 -142.72L101.885 -140.421L104.614 -138.077L107.3 -135.688L109.941 -133.255L112.536 -130.778L115.086 -128.259L117.588 -125.698L120.044 -123.097L122.451 -120.455L124.809 -117.775L127.118 -115.056L129.377 -112.3L131.586 -109.508L133.743 -106.681L135.849 -103.819L137.902 -100.923L139.903 -97.9949L141.85 -95.0351L143.744 -92.0447L145.583 -89.0247L147.368 -85.9759L149.097 -82.8994L150.771 -79.7962L152.389 -76.6672L153.951 -73.5135L155.456 -70.3362L156.903 -67.1361L158.294 -63.9143L159.626 -60.6719L160.901 -57.4099L162.117 -54.1293L163.275 -50.8311L164.374 -47.5164L165.414 -44.1862L166.395 -40.8417L167.316 -37.4837L168.178 -34.1135L168.98 -30.7319L169.722 -27.3402L170.404 -23.9393L171.026 -20.5302L171.588 -17.1142L172.09 -13.6921L172.532 -10.2651L172.913 -6.83425L173.234 -3.40055L173.495 0.0349245L173.696 3.47112L173.837 6.90698L173.917 10.3415L173.938 13.7735L173.898 17.2021L173.799 20.6262L173.641 24.0448L173.423 27.4567L173.145 30.8611L172.809 34.2568L172.414 37.6429L171.96 41.0184L171.448 44.3821L170.878 47.7332L170.249 51.0706L169.564 54.3933L168.821 57.7004L168.022 60.9908L167.166 64.2637L166.254 67.5179L165.286 70.7526L164.263 73.9669L163.185 77.1597L162.052 80.3302L160.866 83.4774L159.626 86.6004L158.332 89.6983L156.987 92.7702L155.589 95.8152L154.14 98.8324L152.639 101.821L151.088 104.78L149.488 107.709L147.838 110.607L146.139 113.472L144.393 116.305L142.599 119.104L140.758 121.869L138.871 124.599L136.938 127.292L134.961 129.949L132.939 132.569L130.874 135.15L128.767 137.693L126.617 140.196L124.426 142.658L122.195 145.08L119.924 147.46L117.614 149.798L115.266 152.093L112.88 154.344L110.458 156.552L108 158.714L105.507 160.832L102.98 162.903L100.419 164.929L97.8265 166.907L95.202 168.838L92.5468 170.721L89.8617 172.555L87.1476 174.341L84.4054 176.078L81.636 177.764L78.8402 179.401L76.0191 180.987L73.1734 182.522L70.3041 184.005L67.4122 185.437L64.4985 186.817L61.5641 188.145L58.6097 189.42L55.6364 190.642L52.6451 191.811L49.6367 192.926L46.6123 193.988L43.5727 194.996L40.519 195.949L37.452 196.849L34.3727 197.693L31.2822 198.484L28.1813 199.219L25.0711 199.9L21.9524 200.525L18.8263 201.096L15.6938 201.611L12.5557 202.071L9.41316 202.476L6.26704 202.826L3.11832 203.121L-0.032026 203.36L-3.18303 203.544L-6.33373 203.673L-9.48317 203.747L-12.6304 203.766L-15.7744 203.729L-18.9143 203.639L-22.0492 203.493L-25.1779 203.293L-28.2998 203.039L-31.4137 202.73L-34.5187 202.368L-37.614 201.952L-40.6986 201.482L-43.7715 200.959L-46.8319 200.383L-49.8789 199.755L-52.9115 199.074L-55.9288 198.341L-58.93 197.556L-61.9142 196.719L-64.8805 195.832L-67.8279 194.894L-70.7558 193.905L-73.6631 192.866L-76.5491 191.778L-79.4129 190.641L-82.2537 189.455L-85.0706 188.221L-87.8629 186.94L-90.6297 185.611L-93.3703 184.235L-96.0839 182.813L-98.7696 181.345L-101.427 179.832L-104.054 178.274L-106.652 176.673L-109.219 175.027L-111.754 173.339L-114.257 171.609L-116.728 169.837L-119.164 168.024L-121.566 166.17L-123.933 164.276L-126.265 162.344L-128.56 160.372L-130.818 158.363L-133.039 156.317L-135.222 154.235L-137.365 152.116L-139.47 149.963L-141.534 147.775L-143.559 145.554L-145.542 143.3L-147.483 141.014L-149.383 138.697L-151.24 136.349L-153.054 133.971L-154.825 131.565L-156.552 129.13L-158.234 126.667L-159.872 124.179L-161.464 121.664L-163.011 119.124L-164.511 116.561L-165.966 113.974L-167.373 111.364L-168.734 108.733L-170.047 106.081L-171.312 103.409L-172.53 100.718L-173.699 98.0093L-174.819 95.2827L-175.891 92.5397L-176.914 89.781L-177.888 87.0076L-178.812 84.2203L-179.686 81.42L-180.511 78.6076L-181.286 75.7839L-182.01 72.9498L-182.685 70.1063L-183.309 67.2542L-183.883 64.3944L-184.406 61.5277L-184.878 58.6552L-185.3 55.7776L-185.672 52.8958L-185.992 50.0108L-186.262 47.1234L-186.482 44.2346L-186.651 41.3451L-186.769 38.4559L-186.837 35.5678L-186.854 32.6818L-186.821 29.7987L-186.737 26.9194L-186.604 24.0448L-186.421 21.1757L-186.187 18.3129L-185.905 15.4575L-185.572 12.6101L-185.191 9.77174L-184.76 6.94317L-184.28 4.12527L-183.752 1.31886L-183.176 -1.47521L-182.551 -4.25611L-181.879 -7.02303L-181.159 -9.77514L-180.392 -12.5116L-179.579 -15.2317L-178.718 -17.9346L-177.812 -20.6194L-176.859 -23.2854L-175.862 -25.9319L-174.819 -28.558L-173.731 -31.163L-172.6 -33.7462L-171.424 -36.3067L-170.206 -38.8439L-168.944 -41.357L-167.64 -43.8453L-166.294 -46.3082L-164.907 -48.7448L-163.478 -51.1544L-162.01 -53.5365L-160.501 -55.8904L-158.953 -58.2153L-157.366 -60.5106L-155.741 -62.7757L-154.078 -65.01L-152.378 -67.2127L-150.642 -69.3834L-148.87 -71.5214L-147.062 -73.6261L-145.22 -75.6969L-143.344 -77.7333L-141.434 -79.7348L-139.491 -81.7006L-137.517 -83.6305L-135.511 -85.5237L-133.474 -87.3799L-131.407 -89.1985L-129.311 -90.979L-127.186 -92.721L-125.032 -94.424L-122.852 -96.0875L-120.645 -97.7112L-118.412 -99.2946L-116.155 -100.837L-113.872 -102.339L-111.566 -103.799L-109.238 -105.217L-106.887 -106.594L-104.514 -107.927L-102.121 -109.218L-99.7087 -110.466L-97.2769 -111.67L-94.8268 -112.83L-92.3592 -113.946L-89.8749 -115.019L-87.3746 -116.046L-84.8593 -117.029L-82.3296 -117.967L-79.7863 -118.86L-77.2304 -119.707L-74.6625 -120.509L-72.0834 -121.265L-69.4941 -121.976L-66.8953 -122.64L-64.2878 -123.259L-61.6724 -123.831L-59.0499 -124.357L-56.4212 -124.837L-53.787 -125.27L-51.1483 -125.657L-48.5057 -125.998L-45.8601 -126.292L-43.2124 -126.539L-40.5633 -126.741L-37.9136 -126.895L-35.2642 -127.004L-32.6158 -127.066L-29.9694 -127.082L-27.3255 -127.051L-24.6852 -126.975L-22.0492 -126.853L-19.4182 -126.685L-16.793 -126.471L-14.1746 -126.211L-11.5635 -125.907L-8.96072 -125.557L-6.36692 -125.162L-3.78289 -124.722L-1.2094 -124.238L1.35277 -123.709L3.90287 -123.136L6.44015 -122.52L8.96384 -121.86L11.4732 -121.157L13.9675 -120.41L16.4461 -119.621L18.9081 -118.79L21.3528 -117.917L23.7797 -117.002L26.1878 -116.046L28.5766 -115.048L30.9454 -114.011L33.2934 -112.933L35.62 -111.815L37.9246 -110.658L40.2064 -109.463L42.4648 -108.228L44.6991 -106.956L46.9088 -105.646L49.0932 -104.299L51.2517 -102.916L53.3837 -101.497L55.4885 -100.041L57.5656 -98.5512L59.6144 -97.0264L61.6344 -95.4677L63.6249 -93.8754L65.5854 -92.2502L67.5154 -90.5927L69.4144 -88.9033L71.2818 -87.1827L73.1171 -85.4315L74.9198 -83.6502L76.6895 -81.8395L78.4256 -79.9999L80.1277 -78.1321L81.7954 -76.2367L83.4281 -74.3144L85.0255 -72.3657L86.5872 -70.3914L88.1127 -68.392L89.6016 -66.3682L91.0536 -64.3208L92.4682 -62.2503L93.8452 -60.1574L95.1842 -58.0429L96.4848 -55.9074L97.7467 -53.7516L98.9696 -51.5762L100.153 -49.3819L101.297 -47.1694L102.402 -44.9394L103.466 -42.6926L104.489 -40.4298L105.473 -38.1517L106.415 -35.859L107.316 -33.5524L108.176 -31.2326L108.995 -28.9005L109.772 -26.5566L110.507 -24.2018L111.201 -21.8369L111.852 -19.4625L112.462 -17.0793L113.029 -14.6882L113.554 -12.2899L114.036 -9.88507L114.476 -7.47453L114.873 -5.059L115.228 -2.63924L115.54 -0.215991L115.81 2.21L116.037 4.638L116.222 7.06725L116.364 9.497L116.463 11.9265L116.52 14.3551L116.534 16.7819L116.507 19.2063L116.437 21.6275L116.324 24.0448L116.17 26.4574L115.974 28.8647L115.736 31.2658L115.457 33.6601L115.136 36.0469L114.774 38.4254L114.371 40.795L113.927 43.1549L113.442 45.5044L112.917 47.8429L112.351 50.1696L111.746 52.4838L111.101 54.7849L110.417 57.0722L109.693 59.345L108.931 61.6027L108.13 63.8446L107.291 66.07L106.414 68.2783L105.5 70.4688L104.548 72.641L103.56 74.7941L102.535 76.9276L101.474 79.0409L100.378 81.1333L99.2458 83.2043L98.0792 85.2532L96.8781 87.2795L95.643 89.2826L94.3744 91.262L93.0727 93.217L91.7384 95.1471L90.3718 97.0518L88.9736 98.9306L87.5442 100.783L86.0841 102.608L84.5938 104.406L83.0738 106.176L81.5247 107.917L79.9469 109.63L78.341 111.313L76.7076 112.966L75.0471 114.589L73.3602 116.181L71.6475 117.741L69.9094 119.271L68.1466 120.768L66.3596 122.233L64.5492 123.665L62.7157 125.064L60.8599 126.429L58.9824 127.76L57.0838 129.058L55.1646 130.32L53.2256 131.548L51.2673 132.741L49.2904 133.898L47.2956 135.019L45.2834 136.105L43.2545 137.154L41.2096 138.167L39.1493 139.142L37.0743 140.081L34.9853 140.983L32.8828 141.847L30.7677 142.673L28.6404 143.462L26.5018 144.213L24.3525 144.925L22.1932 145.6L20.0245 146.236L17.8471 146.833L15.6618 147.392L13.4691 147.912L11.2699 148.393L9.06465 148.835L6.85417 149.239L4.63913 149.603L2.4202 149.929L0.198065 150.215L-2.02658 150.462L-4.25306 150.671L-6.48069 150.84L-8.70879 150.97L-10.9367 151.061L-13.1637 151.113L-15.3891 151.127L-17.6123 151.101L-19.8325 151.037L-22.0492 150.934L-24.2615 150.793L-26.469 150.613L-28.6709 150.395L-30.8665 150.138L-33.0552 149.844L-35.2363 149.512L-37.4092 149.142L-39.5732 148.735L-41.7277 148.291L-43.8721 147.809L-46.0057 147.291L-48.1279 146.735L-50.238 146.144L-52.3355 145.517L-54.4196 144.853L-56.4899 144.154L-58.5457 143.42L-60.5864 142.65L-62.6115 141.846L-64.6202 141.008L-66.6121 140.135L-68.5865 139.229L-70.543 138.289L-72.4808 137.316L-74.3996 136.311L-76.2987 135.273L-78.1775 134.203L-80.0357 133.102L-81.8725 131.969L-83.6876 130.806L-85.4803 129.612L-87.2503 128.388L-88.9969 127.135L-90.7198 125.853L-92.4183 124.542L-94.0921 123.203L-95.7407 121.837L-97.3637 120.443L-98.9605 119.022L-100.531 117.576L-102.074 116.103L-103.59 114.605L-105.078 113.082L-106.538 111.536L-107.969 109.965L-109.372 108.371L-110.745 106.755L-112.088 105.116L-113.401 103.456L-114.684 101.774L-115.936 100.073L-117.157 98.351L-118.346 96.61L-119.504 94.8501L-120.63 93.072L-121.724 91.2763L-122.785 89.4634L-123.813 87.6341L-124.809 85.789L-125.771 83.9285L-126.699 82.0533L-127.594 80.164L-128.455 78.2612L-129.282 76.3456L-130.074 74.4176L-130.832 72.478L-131.555 70.5273L-132.244 68.5662L-132.897 66.5953L-133.515 64.6152L-134.099 62.6265L-134.646 60.6298L-135.159 58.6259L-135.636 56.6152L-136.077 54.5984L-136.483 52.5762L-136.853 50.5492L-137.187 48.518L-137.485 46.4833L-137.748 44.4456L-137.975 42.4055L-138.165 40.3639L-138.321 38.3211L-138.44 36.2779L-138.524 34.235L-138.571 32.1928L-138.584 30.1521L-138.56 28.1134L-138.501 26.0775L-138.407 24.0448L-138.277 22.016L-138.112 19.9918L-137.912 17.9726L-137.677 15.9593L-137.408 13.9522L-137.103 11.9521L-136.764 9.95955L-136.391 7.97513L-135.983 5.99942L-135.541 4.03302L-135.066 2.07652L-134.557 0.130482L-134.015 -1.80451L-133.439 -3.72789L-132.831 -5.6391L-132.19 -7.53757L-131.516 -9.42274L-130.811 -11.2941L-130.074 -13.151L-129.305 -14.993L-128.504 -16.8196L-127.673 -18.6302L-126.812 -20.4242L-125.919 -22.2013L-124.997 -23.9608L-124.046 -25.7023L-123.065 -27.4252L-122.055 -29.1291L-121.016 -30.8135L-119.949 -32.4779L-118.855 -34.1219L-117.733 -35.7449L-116.584 -37.3466L-115.408 -38.9264L-114.206 -40.484L-112.978 -42.0189L-111.725 -43.5307L-110.447 -45.019L-109.144 -46.4833L-107.817 -47.9232L-106.467 -49.3384L-105.093 -50.7285L-103.697 -52.0931L-102.279 -53.4319L-100.838 -54.7444L-99.3768 -56.0303L-97.8944 -57.2893L-96.3918 -58.5211L-94.8694 -59.7253L-93.3276 -60.9016L-91.7671 -62.0497L-90.1883 -63.1694L-88.5917 -64.2602L-86.9779 -65.322L-85.3474 -66.3545L-83.7007 -67.3574L-82.0383 -68.3305L-80.3609 -69.2735L-78.6688 -70.1862L-76.9628 -71.0684L-75.2432 -71.9198L-73.5107 -72.7404L-71.7659 -73.5298L-70.0092 -74.2879L-68.2412 -75.0145L-66.4626 -75.7095L-64.6738 -76.3727L-62.8755 -77.004L-61.0682 -77.6032L-59.2524 -78.1703L-57.4287 -78.705L-55.5978 -79.2074L-53.7602 -79.6772L-51.9164 -80.1146L-50.067 -80.5192L-48.2126 -80.8912L-46.3539 -81.2305L-44.4912 -81.5369L-42.6253 -81.8105L-40.7568 -82.0513L-38.8861 -82.2593L-37.0138 -82.4344L-35.1406 -82.5766L-33.267 -82.6861L-31.3936 -82.7627L-29.5209 -82.8066L-27.6496 -82.8178L-25.7801 -82.7964L-23.9131 -82.7424L-22.0492 -82.6559L-20.1888 -82.537L-18.3325 -82.3857L-16.481 -82.2023L-14.6347 -81.9868L-12.7942 -81.7394L-10.9601 -81.4602L-9.13295 -81.1492L-7.31322 -80.8068L-5.50149 -80.433L-3.6983 -80.0281L-1.90418 -79.5921L-0.119652 -79.1254L1.65474 -78.6281L3.41849 -78.1004L5.17108 -77.5425L6.91198 -76.9547L8.64069 -76.3372L10.3567 -75.6902L12.0595 -75.0141L13.7487 -74.309L15.4236 -73.5752L17.0839 -72.8131L18.7291 -72.0228L20.3587 -71.2048L21.9721 -70.3592L23.5691 -69.4865L25.149 -68.5868L26.7115 -67.6607L28.2561 -66.7083L29.7824 -65.7301L31.2899 -64.7263L32.7782 -63.6974L34.247 -62.6437L35.6957 -61.5655L37.124 -60.4633L38.5315 -59.3374L39.9178 -58.1882L41.2826 -57.0161L42.6253 -55.8216L43.9458 -54.6049L45.2435 -53.3666L46.5183 -52.1071L47.7696 -50.8267L48.9972 -49.5259L50.2008 -48.2052L51.38 -46.865L52.5345 -45.5056L53.6641 -44.1277L54.7683 -42.7317L55.847 -41.3179L56.8998 -39.8869L57.9266 -38.4391L58.9269 -36.975L59.9006 -35.4952L60.8473 -34L61.767 -32.4899L62.6593 -30.9656L63.5241 -29.4273L64.361 -27.8757L65.17 -26.3112L65.9508 -24.7344L66.7032 -23.1457L67.4271 -21.5457L68.1223 -19.9348L68.7886 -18.3136L69.4259 -16.6826L70.0341 -15.0422L70.613 -13.3932L71.1625 -11.7358L71.6824 -10.0707L72.1728 -8.39845L72.6335 -6.71948L73.0644 -5.03435L73.4654 -3.34358L73.8365 -1.6477L74.1776 0.0527533L74.4887 1.75726L74.7697 3.4653L75.0206 5.17632L75.2414 6.88982L75.4321 8.60526L75.5927 10.3221L75.7231 12.0398L75.8235 13.7579L75.8937 15.4759L75.934 17.1931L75.9443 18.9092L75.9246 20.6235L75.8751 22.3355L75.7958 24.0448L75.6867 25.7508L75.5481 27.4529L75.3799 29.1508L75.1823 30.8439L74.9554 32.5316L74.6993 34.2134L74.4142 35.889L74.1002 37.5577L73.7574 39.219L73.3861 40.8726L72.9863 42.5178L72.5583 44.1542L72.1023 45.7813L71.6184 47.3987L71.1068 49.0058L70.5678 50.6022L70.0015 52.1875L69.4082 53.7611L68.7882 55.3226L68.1416 56.8715L67.4688 58.4075L66.7699 59.93L66.0452 61.4386L65.295 62.9329L64.5197 64.4125L63.7194 65.8769L62.8944 67.3257L62.0451 68.7585L61.1718 70.1749L60.2748 71.5745L59.3543 72.9569L58.4108 74.3217L57.4445 75.6686L56.4558 76.997L55.4451 78.3068L54.4126 79.5975L53.3588 80.8688L52.284 82.1202L51.1886 83.3515L50.0729 84.5624L48.9374 85.7524L47.7824 86.9214L46.6083 88.0689L45.4155 89.1946L44.2044 90.2983L42.9754 91.3796L41.7289 92.4383L40.4653 93.4741L39.1851 94.4867L37.8887 95.4759L36.5764 96.4413L35.2488 97.3828L33.9063 98.3001L32.5492 99.193L31.1781 100.061L29.7934 100.905L28.3955 101.723L26.985 102.516L25.5621 103.283L24.1275 104.025L22.6815 104.741L21.2247 105.431L19.7575 106.095L18.2803 106.732L16.7936 107.343L15.298 107.928L13.7938 108.485L12.2816 109.016L10.7618 109.52L9.23491 109.997L7.70142 110.447L6.16179 110.869L4.61652 111.264L3.06608 111.632L1.51095 111.972L-0.048375 112.285L-1.61142 112.57L-3.17769 112.828L-4.74671 113.058L-6.31799 113.261L-7.89106 113.435L-9.46542 113.583L-11.0406 113.702L-12.6161 113.794L-14.1914 113.859L-15.7662 113.896L-17.3398 113.905L-18.9118 113.887L-20.4817 113.842L-22.0492 113.769L-23.6135 113.669L-25.1745 113.542L-26.7314 113.388L-28.2839 113.206L-29.8316 112.998L-31.3739 112.763L-32.9103 112.502L-34.4405 112.214L-35.964 111.9L-37.4803 111.559L-38.989 111.193L-40.4896 110.8L-41.9817 110.382L-43.4648 109.938L-44.9385 109.469L-46.4025 108.975L-47.8561 108.456L-49.2991 107.912L-50.731 107.343L-52.1514 106.75L-53.5599 106.133L-54.956 105.492L-56.3395 104.828L-57.7097 104.14L-59.0665 103.429L-60.4094 102.695L-61.7379 101.938L-63.0518 101.16L-64.3507 100.359L-65.6341 99.5361L-66.9018 98.6921L-68.1533 97.8268L-69.3884 96.9408L-70.6066 96.0341L-71.8077 95.1073L-72.9912 94.1605L-74.157 93.1942L-75.3046 92.2086L-76.4337 91.2041L-77.5441 90.181L-78.6353 89.1397L-79.7072 88.0806L-80.7595 87.0039L-81.7918 85.9101L-82.8039 84.7995L-83.7955 83.6725L-84.7663 82.5295L-85.7161 81.3708L-86.6447 80.1968L-87.5518 79.008L-88.4371 77.8047L-89.3004 76.5872L-90.1416 75.3561L-90.9604 74.1117L-91.7565 72.8544L-92.5299 71.5846L-93.2802 70.3028L-94.0074 69.0092L-94.7112 67.7045L-95.3914 66.3889L-96.048 65.063L-96.6807 63.7271L-97.2894 62.3816L-97.874 61.027L-98.4343 59.6637L-98.9702 58.2922L-99.4816 56.9129L-99.9684 55.5262L-100.43 54.1325L-100.868 52.7324L-101.28 51.3262L-101.667 49.9143L-102.03 48.4973L-102.367 47.0755L-102.679 45.6495L-102.966 44.2196L-103.227 42.7863L-103.464 41.35L-103.675 39.9112L-103.86 38.4703L-104.021 37.0278L-104.156 35.5841L-104.265 34.1397L-104.35 32.6949L-104.409 31.2503L-104.443 29.8063L-104.451 28.3633L-104.435 26.9217L-104.393 25.4821L-104.327 24.0448L-104.235 22.6102L-104.118 21.1789L-103.977 19.7511L-103.811 18.3274L-103.62 16.9083L-103.405 15.494L-103.165 14.085L-102.901 12.6818L-102.613 11.2848L-102.3 9.89433L-101.964 8.51087L-101.604 7.13482L-101.221 5.76657L-100.814 4.40653L-100.384 3.05511L-99.9304 1.71269L-99.4542 0.379667L-98.9553 -0.943566L-98.434 -2.25663L-97.8903 -3.55913L-97.3244 -4.85071L-96.7367 -6.13098L-96.1274 -7.39957L-95.4966 -8.65613L-94.8446 -9.90029L-94.1716 -11.1317L-93.4779 -12.35L-92.7637 -13.5548L-92.0294 -14.7459L-91.275 -15.9228L-90.501 -17.0853L-89.7076 -18.2329L-88.8951 -19.3655L-88.0637 -20.4826L-87.2138 -21.584L-86.3456 -22.6693L-85.4594 -23.7383L-84.5557 -24.7907L-83.6345 -25.8261L-82.6964 -26.8443L-81.7415 -27.845L-80.7702 -28.8279L-79.7829 -29.7929L-78.7799 -30.7395L-77.7615 -31.6676L-76.728 -32.5769L-75.6799 -33.4671L-74.6173 -34.3381L-73.5408 -35.1896L-72.4506 -36.0214L-71.3472 -36.8332L-70.2308 -37.6249L-69.1019 -38.3963L-67.9607 -39.1471L-66.8078 -39.8772L-65.6434 -40.5863L-64.4679 -41.2744L-63.2818 -41.9412L-62.0853 -42.5866L-60.8789 -43.2104L-59.663 -43.8124L-58.438 -44.3927L-57.2042 -44.9508L-55.962 -45.4869L-54.7119 -46.0007L-53.4542 -46.4921L-52.1894 -46.9611L-50.9177 -47.4075L-49.6398 -47.8312L-48.3558 -48.2322L-47.0663 -48.6103L-45.7716 -48.9655L-44.4722 -49.2978L-43.1685 -49.607L-41.8608 -49.8931L-40.5495 -50.1562L-39.2352 -50.3961L-37.9181 -50.6127L-36.5987 -50.8062L-35.2774 -50.9765L-33.9546 -51.1235L-32.6308 -51.2474L-31.3062 -51.3479L-29.9814 -51.4253L-28.6567 -51.4795L-27.3325 -51.5106L-26.0093 -51.5185L-24.6874 -51.5033L-23.3672 -51.4651L-22.0492 -51.404L-20.7337 -51.3199L-19.4211 -51.213L-18.1119 -51.0833L-16.8063 -50.9309L-15.5049 -50.7559L-14.208 -50.5585L-12.916 -50.3386L-11.6293 -50.0965L-10.3482 -49.8322L-9.07314 -49.5459L-7.8045 -49.2376L-6.54265 -48.9076L-5.28797 -48.5559L-4.04081 -48.1828L-2.80154 -47.7883L-1.57054 -47.3726L-0.348156 -46.936L0.865254 -46.4785L2.06933 -46.0004L3.26374 -45.5018L4.44812 -44.983L5.62213 -44.4441L6.78544 -43.8853L7.93771 -43.3068L9.0786 -42.7089L10.2078 -42.0918L11.325 -41.4557L12.4298 -40.8008L13.522 -40.1274L14.6013 -39.4356L15.6673 -38.7259L16.7197 -37.9983L17.7582 -37.2532L18.7826 -36.4908L19.7926 -35.7114L20.7879 -34.9153L21.7681 -34.1027L22.7331 -33.2739L23.6826 -32.4293L24.6163 -31.569L25.534 -30.6933L26.4353 -29.8027L27.3202 -28.8973L28.1882 -27.9776L29.0393 -27.0437L29.8731 -26.096L30.6895 -25.1348L31.4882 -24.1605L32.269 -23.1733L33.0318 -22.1736L33.7762 -21.1617L34.5022 -20.138L35.2095 -19.1028L35.898 -18.0563L36.5675 -16.9991L37.2178 -15.9313L37.8488 -14.8534L38.4602 -13.7657L39.0521 -12.6685L39.6241 -11.5623L40.1762 -10.4473L40.7082 -9.32393L41.2201 -8.19253L41.7117 -7.05346L42.1828 -5.9071L42.6335 -4.7538L43.0635 -3.59392L43.4729 -2.42784L43.8614 -1.25592L44.2291 -0.0785373L44.5758 1.10395L44.9016 2.29116L45.2063 3.48273L45.4898 4.67828L45.7522 5.87745L45.9934 7.07985L46.2134 8.28512L46.4121 9.49288L46.5895 10.7028L46.7457 11.9144L46.8805 13.1274L46.994 14.3414L47.0863 15.556L47.1572 16.7709L47.2069 17.9856L47.2354 19.1999L47.2427 20.4133L47.2288 21.6255L47.1937 22.8361L47.1376 24.0448L47.0605 25.2511L46.9625 26.4547L46.8436 27.6553L46.7038 28.8524L46.5434 30.0458L46.3623 31.2351L46.1607 32.4199L45.9387 33.5998L45.6963 34.7746L45.4337 35.9438L45.1511 37.1072L44.8484 38.2643L44.526 39.4148L44.1838 40.5585L43.822 41.6949L43.4409 42.8237L43.0405 43.9447L42.621 45.0574L42.1826 46.1615L41.7254 47.2568L41.2496 48.3429L40.7554 49.4194L40.243 50.4862L39.7125 51.5428L39.1643 52.5891L38.5983 53.6245L38.015 54.649L37.4145 55.6621L36.7969 56.6637L36.1626 57.6534L35.5118 58.6309L34.8446 59.5959L34.1613 60.5483L33.4622 61.4877L32.7475 62.4138L32.0175 63.3265L31.2723 64.2254L30.5123 65.1103L29.7378 65.981L28.9489 66.8372L28.1459 67.6787L27.3292 68.5052L26.499 69.3166L25.6555 70.1127L24.7992 70.8931L23.9301 71.6577L23.0487 72.4063L22.1552 73.1387L21.25 73.8547L20.3333 74.5542L19.4054 75.2369L18.4666 75.9026L17.5173 76.5512L16.5577 77.1826L15.5882 77.7965L14.6091 78.3928L13.6206 78.9714L12.6232 79.5321L11.6171 80.0748L10.6027 80.5994L9.58022 81.1057L8.55008 81.5936L7.51258 82.0629L6.46805 82.5137L5.41683 82.9458L4.35925 83.359L3.29564 83.7534L2.22634 84.1287L1.15169 84.485L0.072019 84.8222L-1.01232 85.1402L-2.101 85.4389L-3.19368 85.7183L-4.29 85.9783L-5.38964 86.2189L-6.49225 86.4401L-7.59749 86.6418L-8.70501 86.824L-9.81448 86.9867L-10.9255 87.1299L-12.0379 87.2535L-13.1511 87.3576L-14.2649 87.4422L-15.379 87.5073L-16.4929 87.5529L-17.6064 87.579L-18.7191 87.5856L-19.8307 87.5729L-20.9408 87.5408L-22.0492 87.4893L-23.1553 87.4186L-24.2591 87.3287L-25.36 87.2197L-26.4578 87.0915L-27.5522 86.9444L-28.6427 86.7784L-29.7292 86.5935L-30.8112 86.3899L-31.8884 86.1676L-32.9606 85.9269L-34.0274 85.6677L-35.0885 85.3901L-36.1436 85.0944L-37.1923 84.7806L-38.2344 84.4489L-39.2695 84.0994L-40.2974 83.7322L-41.3178 83.3476L-42.3303 82.9455L-43.3347 82.5263L-44.3306 82.09L-45.3178 81.6368L-46.2961 81.1669L-47.265 80.6805L-48.2244 80.1777L-49.1739 79.6588L-50.1134 79.1239L-51.0424 78.5732L-51.9608 78.0069L-52.8684 77.4252L-53.7647 76.8284L-54.6497 76.2166L-55.523 75.59L-56.3845 74.9489L-57.2337 74.2936L-58.0706 73.6241L-58.8949 72.9408L-59.7064 72.2439L-60.5048 71.5336L-61.29 70.8102L-62.0616 70.0739L-62.8196 69.3249L-63.5636 68.5636L-64.2936 67.7902L-65.0092 67.0049L-65.7104 66.2079L-66.3969 65.3997L-67.0685 64.5804L-67.7251 63.7503L-68.3665 62.9096L-68.9925 62.0588L-69.603 61.1979L-70.1978 60.3274L-70.7767 59.4474L-71.3397 58.5584L-71.8865 57.6605L-72.4171 56.7541L-72.9313 55.8395L-73.4289 54.9169L-73.91 53.9866L-74.3742 53.049L-74.8216 52.1044L-75.252 51.153L-75.6654 50.1952L-76.0616 49.2312L-76.4406 48.2614L-76.8022 47.286L-77.1464 46.3055L-77.4731 45.32L-77.7823 44.33L-78.0739 43.3356L-78.3478 42.3373L-78.604 41.3353L-78.8424 40.33L-79.0631 39.3216L-79.2659 38.3105L-79.4509 37.297L-79.618 36.2814L-79.7672 35.264L-79.8985 34.2452L-80.0118 33.2252L-80.1073 32.2043L-80.1849 31.1829L-80.2446 30.1614L-80.2863 29.1399L-80.3103 28.1188L-80.3164 27.0984L-80.3047 26.0791L-80.2753 25.0611L-80.2281 24.0448L-80.1632 23.0304L-80.0808 22.0183L-79.9808 21.0087L-79.8633 20.002L-79.7284 18.9985L-79.5761 17.9984L-79.4066 17.0022L-79.2199 16.0099L-79.0161 15.0221L-78.7953 14.0389L-78.5576 13.0606L-78.3031 12.0876L-78.0319 11.1201L-77.7442 10.1584L-77.44 9.20284L-77.1195 8.2536L-76.7828 7.31102L-76.43 6.37535L-76.0614 5.44688L-75.6769 4.52586L-75.2768 3.61258L-74.8613 2.7073L-74.4304 1.81026L-73.9843 0.921743L-73.5233 0.0419897L-73.0474 -0.828745L-72.5569 -1.69021L-72.0519 -2.54217L-71.5326 -3.38437L-70.9992 -4.21657L-70.4519 -5.03855L-69.8909 -5.85008L-69.3164 -6.65091L-68.7285 -7.44084L-68.1275 -8.21963L-67.5136 -8.98708L-66.887 -9.74297L-66.2479 -10.4871L-65.5966 -11.2192L-64.9332 -11.9392L-64.258 -12.6468L-63.5712 -13.3419L-62.8731 -14.0242L-62.1639 -14.6935L-61.4437 -15.3498L-60.713 -15.9928L-59.9718 -16.6223L-59.2205 -17.2382L-58.4593 -17.8403L-57.6884 -18.4284L-56.9081 -19.0025L-56.1187 -19.5623L-55.3204 -20.1077L-54.5135 -20.6386L-53.6983 -21.1549L-52.8749 -21.6563L-52.0437 -22.1429L-51.205 -22.6144L-50.359 -23.0707L-49.506 -23.5118L-48.6462 -23.9375L-47.7799 -24.3478L-46.9075 -24.7425L-46.0292 -25.1215L-45.1452 -25.4849L-44.2559 -25.8324L-43.3615 -26.164L-42.4623 -26.4796L-41.5587 -26.7792L-40.6508 -27.0627L-39.7389 -27.3301L-38.8235 -27.5813L-37.9047 -27.8162L-36.9828 -28.0349L-36.0581 -28.2372L-35.1309 -28.4232L-34.2015 -28.5928L-33.2702 -28.7461L-32.3372 -28.8829L-31.403 -29.0033L-30.4676 -29.1073L-29.5315 -29.1948L-28.5949 -29.2659L-27.6581 -29.3206L-26.7214 -29.359L-25.785 -29.3809L-24.8494 -29.3865L-23.9146 -29.3758L-22.9811 -29.3488L-22.0492 -29.3055L-21.119 -29.2461L-20.1908 -29.1705L-19.2651 -29.0788L-18.3419 -28.971L-17.4217 -28.8473L-16.5046 -28.7077L-15.5911 -28.5522L-14.6812 -28.381L-13.7753 -28.1941L-12.8737 -27.9917L-11.9767 -27.7737L-11.0844 -27.5403L-10.1972 -27.2917L-9.31533 -27.0278L-8.43904 -26.7489L-7.56859 -26.455L-6.70423 -26.1462L-5.84622 -25.8227L-4.99481 -25.4846L-4.15024 -25.1321L-3.31275 -24.7652L-2.4826 -24.3841L-1.66002 -23.989L-0.845242 -23.58L-0.0385048 -23.1572L0.759962 -22.7208L1.54993 -22.271L2.33118 -21.808L3.10348 -21.3318L3.86662 -20.8427L4.62037 -20.3408L5.36454 -19.8263L6.09891 -19.2994L6.82328 -18.7604L7.53744 -18.2093L8.24119 -17.6463L8.93434 -17.0717L9.61671 -16.4857L10.2881 -15.8884L10.9483 -15.2801L11.5972 -14.6609L12.2346 -14.0311L12.8602 -13.391L13.474 -12.7406L14.0758 -12.0802L14.6654 -11.4101L15.2427 -10.7304L15.8075 -10.0415L16.3596 -9.34344L16.8989 -8.63655L17.4253 -7.92105L17.9387 -7.19716L18.4389 -6.46513L18.9257 -5.7252L19.3991 -4.9776L19.8589 -4.22259L20.3051 -3.46039L20.7375 -2.69127L21.1559 -1.91546L21.5604 -1.13323L21.9508 -0.344807L22.327 0.449539L22.689 1.24956L23.0366 2.055L23.3697 2.8656L23.6884 3.68111L23.9925 4.50126L24.2819 5.32581L24.5567 6.15448L24.8166 6.98702L25.0618 7.82316L25.2922 8.66265L25.5076 9.50521L25.7081 10.3506L25.8937 11.1985L26.0642 12.0488L26.2198 12.901L26.3603 13.755L26.4857 14.6105L26.5961 15.4673L26.6915 16.325L26.7717 17.1834L26.837 18.0423L26.8872 18.9014L26.9223 19.7603L26.9424 20.6189L26.9476 21.477L26.9377 22.3341L26.913 23.1901L26.8733 24.0448L26.8188 24.8978L26.7495 25.7489L26.6654 26.5978L26.5666 27.4443L26.4531 28.2882L26.3251 29.1291L26.1825 29.9669L26.0255 30.8012L25.8541 31.6319L25.6685 32.4587L25.4686 33.2813L25.2546 34.0995L25.0266 34.9131L24.7846 35.7217L24.5288 36.5253L24.2593 37.3235L23.9762 38.1161L23.6795 38.9029L23.3695 39.6837L23.0462 40.4581L22.7098 41.2261L22.3604 41.9874L21.998 42.7417L21.6229 43.4888L21.2353 44.2286L20.8351 44.9608L20.4226 45.6852L19.998 46.4016L19.5613 47.1098L19.1128 47.8096L18.6526 48.5008L18.1808 49.1832L17.6977 49.8567L17.2033 50.5209L16.698 51.1758L16.1817 51.8211L15.6548 52.4568L15.1174 53.0825L14.5697 53.6982L14.0119 54.3036L13.4441 54.8986L12.8666 55.4831L12.2796 56.0568L11.6832 56.6197L11.0776 57.1715L10.4631 57.7122L9.83986 58.2415L9.20808 58.7594L8.56797 59.2657L7.91975 59.7603L7.26363 60.243L6.59983 60.7138L5.92855 61.1724L5.25003 61.6189L4.56448 62.053L3.87213 62.4747L3.17319 62.8838L2.4679 63.2803L1.75649 63.664L1.03917 64.0349L0.31619 64.3929L-0.412229 64.7379L-1.14585 65.0698L-1.88444 65.3886L-2.62777 65.6941L-3.37559 65.9863L-4.12768 66.2651L-4.88379 66.5305L-5.64368 66.7825L-6.40712 67.0209L-7.17387 67.2457L-7.94368 67.4569L-8.71632 67.6545L-9.49154 67.8384L-10.2691 68.0085L-11.0488 68.1649L-11.8303 68.3076L-12.6134 68.4364L-13.3979 68.5514L-14.1836 68.6527L-14.9701 68.7401L-15.7573 68.8137L-16.5449 68.8735L-17.3326 68.9196L-18.1203 68.9518L-18.9077 68.9702L-19.6945 68.975L-20.4805 68.9659L-21.2654 68.9432L-22.0492 68.9069L-22.8314 68.8569L-23.6118 68.7933L-24.3903 68.7162L-25.1665 68.6256L-25.9404 68.5215L-26.7115 68.4041L-27.4797 68.2734L-28.2448 68.1294L-29.0066 67.9723L-29.7647 67.802L-30.5191 67.6187L-31.2694 67.4225L-32.0154 67.2134L-32.757 66.9915L-33.4938 66.757L-34.2258 66.5098L-34.9526 66.2502L-35.6741 65.9782L-36.3901 65.6939L-37.1003 65.3974L-37.8045 65.0889L-38.5026 64.7685L-39.1943 64.4362L-39.8794 64.0923L-40.5578 63.7368L-41.2293 63.3698L-41.8935 62.9916L-42.5505 62.6022L-43.1999 62.2017L-43.8416 61.7904L-44.4755 61.3684L-45.1012 60.9358L-45.7188 60.4928L-46.3279 60.0395L-46.9284 59.576L-47.5202 59.1027L-48.1031 58.6195L-48.6769 58.1267L-49.2414 57.6244L-49.7966 57.1129L-50.3422 56.5923L-50.8782 56.0627L-51.4043 55.5243L-51.9205 54.9774L-52.4265 54.4221L-52.9223 53.8586L-53.4077 53.2871L-53.8826 52.7078L-54.3469 52.1208L-54.8005 51.5264L-55.2431 50.9247L-55.6748 50.316L-56.0954 49.7004L-56.5048 49.0782L-56.9028 48.4496L-57.2895 47.8147L-57.6647 47.1738L-58.0283 46.527L-58.3802 45.8746L-58.7203 45.2169L-59.0486 44.5539L-59.3649 43.8859L-59.6693 43.2132L-59.9616 42.5359L-60.2417 41.8543L-60.5097 41.1685L-60.7654 40.4788L-61.0088 39.7855L-61.2398 39.0887L-61.4584 38.3886L-61.6646 37.6855L-61.8583 36.9795L-62.0395 36.271L-62.2081 35.5602L-62.3641 34.8471L-62.5075 34.1322L-62.6383 33.4155L-62.7565 32.6974L-62.862 31.978L-62.9548 31.2575L-63.035 30.5363L-63.1025 29.8144L-63.1573 29.0922L-63.1995 28.3698L-63.2291 27.6475L-63.246 26.9255L-63.2503 26.204L-63.242 25.4833L-63.2212 24.7634L-63.1879 24.0448L-63.142 23.3275L-63.0837 22.6118L-63.013 21.8979L-62.9299 21.1861L-62.8345 20.4765L-62.7269 19.7694L-62.607 19.0649L-62.475 18.3633L-62.3309 17.6648L-62.1747 16.9696L-62.0066 16.2778L-61.8267 15.5898L-61.635 14.9057L-61.4315 14.2257L-61.2164 13.5499L-60.9898 12.8787L-60.7517 12.2122L-60.5022 11.5506L-60.2416 10.8941L-59.9697 10.2428L-59.6868 9.59703L-59.3929 8.9569L-59.0883 8.3226L-58.7729 7.69432L-58.4469 7.07224L-58.1104 6.45654L-57.7635 5.84739L-57.4064 5.24497L-57.0393 4.64944L-56.6621 4.06098L-56.2751 3.47975L-55.8784 2.90592L-55.4721 2.33965L-55.0564 1.78108L-54.6315 1.23039L-54.1974 0.687724L-53.7543 0.15323L-53.3024 -0.372944L-52.8418 -0.890653L-52.3728 -1.39975L-51.8953 -1.90011L-51.4097 -2.39158L-50.916 -2.87404L-50.4145 -3.34735L-49.9053 -3.8114L-49.3886 -4.26604L-48.8645 -4.71117L-48.3332 -5.14667L-47.795 -5.57242L-47.2499 -5.98831L-46.6982 -6.39423L-46.14 -6.79008L-45.5755 -7.17575L-45.0049 -7.55116L-44.4285 -7.9162L-43.8463 -8.27078L-43.2585 -8.61481L-42.6655 -8.94821L-42.0672 -9.2709L-41.464 -9.5828L-40.8561 -9.88384L-40.2436 -10.1739L-39.6267 -10.453L-39.0056 -10.7211L-38.3805 -10.978L-37.7517 -11.2237L-37.1193 -11.4582L-36.4834 -11.6814L-35.8445 -11.8932L-35.2025 -12.0937L-34.5577 -12.2828L-33.9104 -12.4604L-33.2607 -12.6265L-32.6088 -12.7811L-31.955 -12.9242L-31.2993 -13.0557L-30.6422 -13.1756L-29.9836 -13.284L-29.3239 -13.3807L-28.6633 -13.4659L-28.0019 -13.5394L-27.34 -13.6013L-26.6777 -13.6516L-26.0153 -13.6903L-25.3529 -13.7174L-24.6908 -13.7329L-24.0292 -13.7369L-23.3683 -13.7293L-22.7082 -13.7102L-22.0492 -13.6796L-21.3914 -13.6376L-20.7351 -13.5841L-20.0805 -13.5193L-19.4277 -13.4431L-18.777 -13.3556L-18.1286 -13.2569L-17.4826 -13.1469L-16.8392 -13.0259L-16.1987 -12.8937L-15.5611 -12.7505L-14.9268 -12.5964L-14.2959 -12.4314L-13.6686 -12.2556L-13.045 -12.069L-12.4253 -11.8718L-11.8098 -11.6639L-11.1987 -11.4456L-10.5919 -11.2169L-9.98991 -10.9778L-9.39271 -10.7285L-8.80052 -10.4691L-8.21351 -10.1996L-7.63186 -9.92025L-7.05572 -9.63102L-6.48527 -9.33207L-5.92067 -9.02351L-5.36208 -8.70545L-4.80966 -8.37801L-4.26356 -8.04129L-3.72394 -7.69543L-3.19095 -7.34055L-2.66474 -6.97677L-2.14546 -6.60422L-1.63326 -6.22303L-1.12828 -5.83334L-0.630646 -5.43527L-0.140512 -5.02898L0.341991 -4.61459L0.816732 -4.19224L1.28358 -3.7621L1.74241 -3.32429L2.19309 -2.87897L2.63551 -2.42629L3.06954 -1.96639L3.49507 -1.49945L3.91198 -1.0256L4.32017 -0.545015L4.71952 -0.0578471L5.10993 0.435741L5.4913 0.935586L5.86353 1.44152L6.22653 1.95339L6.5802 2.47101L6.92444 2.99422L7.25918 3.52285L7.58434 4.05673L7.89982 4.59568L8.20555 5.13954L8.50146 5.68811L8.78747 6.24124L9.06352 6.79874L9.32954 7.36042L9.58548 7.92612L9.83126 8.49565L10.0668 9.06884L10.2922 9.64549L10.5072 10.2254L10.7119 10.8085L10.9061 11.3944L11.09 11.9831L11.2633 12.5744L11.4262 13.168L11.5786 13.7638L11.7203 14.3615L11.8515 14.9611L11.9721 15.5623L12.0821 16.1649L12.1815 16.7688L12.2702 17.3738L12.3483 17.9796L12.4157 18.5861L12.4724 19.1931L12.5186 19.8004L12.554 20.4078L12.5789 21.0152L12.5931 21.6223L12.5968 22.2291L12.5898 22.8352L12.5723 23.4405L12.5442 24.0448L12.5057 24.6479L12.4567 25.2497L12.3972 25.85L12.3273 26.4486L12.2471 27.0453L12.1566 27.6399L12.0558 28.2323L11.9448 28.8223L11.8236 29.4097L11.6923 29.9943L11.551 30.576L11.3996 31.1545L11.2384 31.7298L11.0673 32.3016L10.8864 32.8698L10.6959 33.4343L10.4957 33.9947L10.2859 34.5511L10.0667 35.1031L9.8381 35.6508L9.60021 36.1938L9.35311 36.7321L9.09691 37.2655L8.83169 37.7938L8.55755 38.3169L8.2746 38.8347L7.98293 39.3469L7.68266 39.8535L7.3739 40.3542L7.05674 40.8491L6.73131 41.3378L6.39773 41.8204L6.0561 42.2965L5.70655 42.7662L5.34919 43.2293L4.98417 43.6856L4.61159 44.1351L4.23159 44.5775L3.84431 45.0129L3.44986 45.441L3.04839 45.8617L2.64003 46.275L2.22491 46.6807L1.80319 47.0787L1.375 47.4689L0.940481 47.8512L0.499781 48.2255L0.053046 48.5917L-0.399576 48.9498L-0.857936 49.2995L-1.32188 49.6408L-1.79126 49.9737L-2.26593 50.298L-2.74571 50.6137L-3.23047 50.9206L-3.72004 51.2188L-4.21426 51.5081L-4.71298 51.7885L-5.21602 52.0598L-5.72324 52.3221L-6.23447 52.5752L-6.74954 52.8192L-7.26829 53.0539L-7.79055 53.2792L-8.31616 53.4953L-8.84495 53.7019L-9.37676 53.8991L-9.91141 54.0867L-10.4487 54.2649L-10.9886 54.4335L-11.5307 54.5925L-12.0751 54.7418L-12.6214 54.8815L-13.1696 55.0115L-13.7194 55.1318L-14.2707 55.2424L-14.8233 55.3433L-15.3771 55.4344L-15.9318 55.5157L-16.4873 55.5873L-17.0435 55.6492L-17.6001 55.7012L-18.157 55.7435L-18.7141 55.776L-19.271 55.7988L-19.8278 55.8119L-20.3841 55.8152L-20.9399 55.8088L-21.495 55.7928L-22.0492 55.7671L-22.6023 55.7317L-23.1541 55.6868L-23.7046 55.6322L-24.2535 55.5682L-24.8007 55.4946L-25.3459 55.4116L-25.8892 55.3191L-26.4302 55.2173L-26.9688 55.1062L-27.5049 54.9858L-28.0383 54.8562L-28.5688 54.7175L-29.0964 54.5696L-29.6207 54.4127L-30.1418 54.2468L-30.6593 54.0721L-31.1733 53.8885L-31.6835 53.6962L-32.1897 53.4951L-32.6919 53.2855L-33.1899 53.0674L-33.6835 52.8408L-34.1726 52.6058L-34.6571 52.3626L-35.1368 52.1112L-35.6115 51.8518L-36.0813 51.5843L-36.5458 51.309L-37.005 51.0258L-37.4588 50.735L-37.9069 50.4366L-38.3494 50.1307L-38.7861 49.8174L-39.2168 49.4969L-39.6414 49.1692L-40.0599 48.8344L-40.472 48.4928L-40.8778 48.1443L-41.277 47.7892L-41.6696 47.4275L-42.0554 47.0593L-42.4344 46.6848L-42.8064 46.3042L-43.1714 45.9175L-43.5292 45.5248L-43.8798 45.1264L-44.223 44.7222L-44.5588 44.3126L-44.8871 43.8975L-45.2078 43.4772L-45.5208 43.0518L-45.8261 42.6213L-46.1235 42.1861L-46.4129 41.7461L-46.6944 41.3016L-46.9678 40.8526L-47.2331 40.3994L-47.4902 39.9421L-47.739 39.4808L-47.9796 39.0157L-48.2117 38.5469L-48.4354 38.0746L-48.6506 37.5989L-48.8573 37.12L-49.0554 36.638L-49.2449 36.1531L-49.4257 35.6654L-49.5978 35.1751L-49.7611 34.6824L-49.9157 34.1874L-50.0615 33.6902L-50.1985 33.191L-50.3266 32.69L-50.4458 32.1874L-50.5561 31.6832L-50.6575 31.1776L-50.75 30.6709L-50.8336 30.1631L-50.9082 29.6544L-50.9738 29.145L-51.0305 28.635L-51.0782 28.1245L-51.117 27.6139L-51.1469 27.1031L-51.1678 26.5923L-51.1797 26.0818L-51.1828 25.5716L-51.1769 25.0619L-51.1622 24.5529L-51.1386 24.0448L-51.1062 23.5376L-51.065 23.0315L-51.015 22.5267L-50.9562 22.0234L-50.8888 21.5216L-50.8126 21.0216L-50.7279 20.5235L-50.6345 20.0274L-50.5326 19.5334L-50.4222 19.0418L-50.3034 18.5527L-50.1761 18.0662L-50.0405 17.5825L-49.8967 17.1016L-49.7446 16.6238L-49.5843 16.1492L-49.416 15.6779L-49.2396 15.2101L-49.0553 14.7458L-48.863 14.2853L-48.663 13.8287L-48.4552 13.376L-48.2398 12.9275L-48.0167 12.4833L-47.7862 12.0434L-47.5483 11.608L-47.303 11.1773L-47.0505 10.7513L-46.7909 10.3302L-46.5242 9.9141L-46.2505 9.50311L-45.97 9.09735L-45.6828 8.69693L-45.3888 8.30197L-45.0883 7.91257L-44.7814 7.52885L-44.4681 7.1509L-44.1485 6.77884L-43.8229 6.41276L-43.4912 6.05277L-43.1536 5.69897L-42.8102 5.35145L-42.4611 5.0103L-42.1065 4.67561L-41.7464 4.34749L-41.3811 4.026L-41.0105 3.71125L-40.6348 3.40331L-40.2542 3.10226L-39.8688 2.80818L-39.4786 2.52115L-39.0839 2.24124L-38.6848 1.96853L-38.2813 1.70308L-37.8737 1.44495L-37.462 1.19423L-37.0464 0.95096L-36.6271 0.715209L-36.2041 0.487032L-35.7776 0.266485L-35.3477 0.0536207L-34.9145 -0.151511L-34.4783 -0.348863L-34.0392 -0.538389L-33.5972 -0.720047L-33.1525 -0.893796L-32.7053 -1.0596L-32.2557 -1.21742L-31.8039 -1.36722L-31.35 -1.50899L-30.894 -1.64267L-30.4363 -1.76826L-29.9769 -1.88573L-29.516 -1.99506L-29.0536 -2.09623L-28.59 -2.18923L-28.1253 -2.27404L-27.6597 -2.35065L-27.1932 -2.41906L-26.7261 -2.47925L-26.2584 -2.53124L-25.7903 -2.57501L-25.322 -2.61058L-24.8536 -2.63794L-24.3853 -2.6571L-23.9171 -2.66808L-23.4493 -2.67088L-22.9819 -2.66552L-22.5151 -2.65201L-22.0492 -2.63039L-21.5841 -2.60066L-21.12 -2.56286L-20.6571 -2.517L-20.1955 -2.46313L-19.7354 -2.40127L-19.2769 -2.33146L-18.8201 -2.25373L-18.3652 -2.16812L-17.9122 -2.07468L-17.4614 -1.97344L-17.0129 -1.86446L-16.5668 -1.74778L-16.1232 -1.62344L-15.6822 -1.49152L-15.2441 -1.35205L-14.8089 -1.20509L-14.3767 -1.05072L-13.9477 -0.888977L-13.522 -0.719937L-13.0997 -0.543663L-12.681 -0.360222L-12.2659 -0.169685L-11.8546 0.0278771L-11.4472 0.23239L-11.0438 0.443778L-10.6446 0.661964L-10.2496 0.886867L-9.85899 1.11841L-9.47284 1.3565L-9.09127 1.60106L-8.71439 1.852L-8.3423 2.10923L-7.97512 2.37266L-7.61294 2.6422L-7.25586 2.91776L-6.90398 3.19923L-6.5574 3.48653L-6.21622 3.77955L-5.88053 4.07819L-5.55042 4.38235L-5.22598 4.69192L-4.9073 5.00681L-4.59446 5.32691L-4.28756 5.6521L-3.98666 5.98228L-3.69186 6.31734L-3.40323 6.65717L-3.12084 7.00165L-2.84478 7.35067L-2.57511 7.70411L-2.3119 8.06186L-2.05523 8.4238L-1.80515 8.78982L-1.56173 9.15979L-1.32503 9.53358L-1.09511 9.91109L-0.872034 10.2922L-0.655849 10.6768L-0.44661 11.0647L-0.244368 11.4558L-0.0491704 11.85L0.138936 12.2472L0.319909 12.6472L0.493705 13.0499L0.660286 13.4552L0.819614 13.8629L0.971656 14.273L1.11638 14.6853L1.25375 15.0996L1.38375 15.5159L1.50634 15.934L1.62151 16.3537L1.72923 16.775L1.82948 17.1977L1.92225 17.6217L2.00753 18.0468L2.0853 18.4729L2.15555 18.8999L2.21828 19.3277L2.27349 19.756L2.32116 20.1849L2.3613 20.6141L2.39391 21.0435L2.419 21.4731L2.43657 21.9025L2.44664 22.3319L2.4492 22.7609L2.44429 23.1894L2.43191 23.6175L2.41208 24.0448L2.38482 24.4713L2.35015 24.8968L2.3081 25.3213L2.2587 25.7445L2.20198 26.1665L2.13796 26.5869L2.06668 27.0058L1.98818 27.423L1.90249 27.8383L1.80966 28.2517L1.70972 28.663L1.60272 29.0721L1.4887 29.4789L1.36773 29.8833L1.23983 30.285L1.10508 30.6841L0.963512 31.0804L0.815196 31.4738L0.660185 31.8642L0.498541 32.2515L0.330325 32.6354L0.155602 33.0161L-0.0255634 33.3932L-0.213103 33.7668L-0.406946 34.1367L-0.607023 34.5028L-0.81326 34.865L-1.02558 35.2232L-1.24391 35.5773L-1.46818 35.9272L-1.69829 36.2728L-1.93417 36.614L-2.17574 36.9507L-2.42291 37.2828L-2.6756 37.6103L-2.93371 37.933L-3.19716 38.2508L-3.46586 38.5636L-3.73971 38.8715L-4.01863 39.1742L-4.30251 39.4717L-4.59127 39.7639L-4.8848 40.0508L-5.183 40.3322L-5.48578 40.6081L-5.79303 40.8785L-6.10465 41.1432L-6.42054 41.4021L-6.74059 41.6553L-7.0647 41.9025L-7.39276 42.1439L-7.72466 42.3793L-8.0603 42.6086L-8.39956 42.8318L-8.74233 43.0489L-9.08851 43.2597L-9.43798 43.4643L-9.79062 43.6625L-10.1463 43.8544L-10.505 44.0398L-10.8665 44.2188L-11.2307 44.3913L-11.5975 44.5573L-11.9668 44.7167L-12.3385 44.8694L-12.7124 45.0155L-13.0884 45.1549L-13.4665 45.2877L-13.8464 45.4136L-14.2281 45.5328L-14.6115 45.6453L-14.9964 45.7509L-15.3827 45.8496L-15.7703 45.9416L-16.1591 46.0266L-16.549 46.1048L-16.9397 46.1762L-17.3313 46.2406L-17.7235 46.2981L-18.1164 46.3487L-18.5096 46.3924L-18.9032 46.4293L-19.297 46.4592L-19.6909 46.4822L-20.0847 46.4983L-20.4784 46.5075L-20.8718 46.5099L-21.2648 46.5054L-21.6573 46.494L-22.0492 46.4758L-22.4403 46.4508L-22.8305 46.419L-23.2197 46.3805L-23.6078 46.3352L-23.9948 46.2832L-24.3803 46.2245L-24.7644 46.1591L-25.147 46.0871L-25.5279 46.0085L-25.9069 45.9234L-26.2841 45.8317L-26.6593 45.7336L-27.0323 45.6291L-27.4031 45.5181L-27.7715 45.4009L-28.1375 45.2773L-28.5009 45.1475L-28.8616 45.0115L-29.2196 44.8693L-29.5747 44.7211L-29.9268 44.5668L-30.2759 44.4066L-30.6217 44.2405L-30.9643 44.0685L-31.3035 43.8908L-31.6392 43.7073L-31.9713 43.5182L-32.2998 43.3235L-32.6245 43.1233L-32.9454 42.9176L-33.2623 42.7066L-33.5752 42.4903L-33.884 42.2688L-34.1885 42.0421L-34.4888 41.8104L-34.7847 41.5737L-35.0761 41.3321L-35.363 41.0857L-35.6453 40.8346L-35.9229 40.5788L-36.1957 40.3185L-36.4637 40.0537L-36.7267 39.7846L-36.9848 39.5111L-37.2378 39.2335L-37.4857 38.9517L-37.7284 38.6659L-37.9659 38.3763L-38.198 38.0828L-38.4248 37.7856L-38.6461 37.4847L-38.862 37.1804L-39.0723 36.8726L-39.277 36.5615L-39.476 36.2472L-39.6693 35.9297L-39.8569 35.6093L-40.0387 35.2859L-40.2147 34.9597L-40.3847 34.6308L-40.5489 34.2993L-40.707 33.9653L-40.8592 33.629L-41.0054 33.2903L-41.1454 32.9495L-41.2794 32.6066L-41.4073 32.2618L-41.529 31.9151L-41.6445 31.5667L-41.7538 31.2167L-41.8569 30.8651L-41.9537 30.5122L-42.0443 30.1579L-42.1286 29.8025L-42.2066 29.4459L-42.2783 29.0885L-42.3437 28.7301L-42.4028 28.3711L-42.4556 28.0114L-42.502 27.6512L-42.5421 27.2905L-42.5758 26.9296L-42.6032 26.5685L-42.6243 26.2073L-42.6391 25.8462L-42.6476 25.4852L-42.6497 25.1244L-42.6456 24.764L-42.6352 24.4041L-42.6185 24.0448L-42.5956 23.6861L-42.5664 23.3283L-42.5311 22.9714L-42.4895 22.6154L-42.4418 22.2606L-42.388 21.9071L-42.3281 21.5548L-42.2621 21.204L-42.19 20.8548L-42.1119 20.5072L-42.0279 20.1613L-41.9379 19.8173L-41.8421 19.4752L-41.7403 19.1352L-41.6328 18.7974L-41.5195 18.4618L-41.4004 18.1285L-41.2757 17.7977L-41.1454 17.4694L-41.0094 17.1438L-40.868 16.8209L-40.7211 16.5008L-40.5687 16.1837L-40.411 15.8695L-40.248 15.5585L-40.0798 15.2507L-39.9063 14.9461L-39.7278 14.6449L-39.5442 14.3471L-39.3556 14.0529L-39.1621 13.7623L-38.9638 13.4753L-38.7606 13.1922L-38.5528 12.9129L-38.3403 12.6376L-38.1233 12.3662L-37.9017 12.099L-37.6758 11.8359L-37.4455 11.5771L-37.211 11.3225L-36.9722 11.0723L-36.7294 10.8266L-36.4826 10.5854L-36.2318 10.3487L-35.9772 10.1167L-35.7189 9.88936L-35.4568 9.6668L-35.1912 9.44905L-34.9221 9.23618L-34.6495 9.02823L-34.3737 8.82527L-34.0946 8.62735L-33.8123 8.43451L-33.527 8.24681L-33.2388 8.06429L-32.9477 7.887L-32.6538 7.71498L-32.3573 7.54828L-32.0582 7.38693L-31.7566 7.23098L-31.4526 7.08047L-31.1464 6.93542L-30.8379 6.79587L-30.5274 6.66185L-30.2148 6.5334L-29.9004 6.41054L-29.5842 6.2933L-29.2663 6.18171L-28.9468 6.07578L-28.6258 5.97554L-28.3034 5.881L-27.9798 5.7922L-27.6549 5.70914L-27.329 5.63183L-27.0021 5.56029L-26.6742 5.49453L-26.3457 5.43456L-26.0164 5.38039L-25.6865 5.33202L-25.3562 5.28945L-25.0255 5.25269L-24.6946 5.22174L-24.3634 5.19659L-24.0322 5.17725L-23.701 5.1637L-23.37 5.15594L-23.0392 5.15396L-22.7087 5.15775L-22.3787 5.16729L-22.0492 5.18259L-21.7203 5.20361L-21.3921 5.23034L-21.0648 5.26276L-20.7385 5.30085L-20.4131 5.34459L-20.0889 5.39396L-19.7659 5.44892L-19.4442 5.50946L-19.1239 5.57553L-18.8051 5.64712L-18.488 5.72418L-18.1725 5.80669L-17.8589 5.8946L-17.5471 5.98789L-17.2373 6.08651L-16.9295 6.19042L-16.6239 6.29958L-16.3206 6.41395L-16.0195 6.53348L-15.7209 6.65812L-15.4248 6.78783L-15.1313 6.92257L-14.8405 7.06226L-14.5524 7.20688L-14.2672 7.35635L-13.9849 7.51063L-13.7056 7.66966L-13.4294 7.83338L-13.1564 8.00174L-12.8865 8.17467L-12.6201 8.35211L-12.3569 8.534L-12.0973 8.72028L-11.8412 8.91087L-11.5887 9.10572L-11.3399 9.30475L-11.0948 9.5079L-10.8536 9.71509L-10.6162 9.92626L-10.3828 10.1413L-10.1534 10.3602L-9.92803 10.5829L-9.70682 10.8092L-9.48981 11.0392L-9.27704 11.2727L-9.06859 11.5096L-8.86449 11.7499L-8.66482 11.9935L-8.46961 12.2403L-8.27893 12.4902L-8.09281 12.7431L-7.91131 12.9991L-7.73448 13.2579L-7.56235 13.5195L-7.39498 13.7838L-7.23241 14.0508L-7.07467 14.3202L-6.9218 14.5922L-6.77385 14.8664L-6.63084 15.143L-6.49282 15.4218L-6.3598 15.7026L-6.23184 15.9854L-6.10895 16.2702L-5.99115 16.5568L-5.87849 16.8451L-5.77098 17.1351L-5.66865 17.4266L-5.57151 17.7196L-5.47959 18.0139L-5.39291 18.3096L-5.31147 18.6064L-5.2353 18.9043L-5.16441 19.2031L-5.09881 19.5029L-5.03851 19.8035L-4.98352 20.1049L-4.93384 20.4068L-4.88948 20.7093L-4.85045 21.0122L-4.81674 21.3154L-4.78836 21.6189L-4.7653 21.9226L-4.74756 22.2263L-4.73513 22.53L-4.72801 22.8336L-4.7262 23.1369L-4.72967 23.44L-4.73843 23.7426L-4.75245 24.0448L-4.77173 24.3463L-4.79624 24.6473L-4.82597 24.9474L-4.8609 25.2467L-4.90101 25.545L-4.94628 25.8424L-4.99668 26.1386L-5.05219 26.4335L-5.11278 26.7272L-5.17843 27.0195L-5.2491 27.3104L-5.32476 27.5997L-5.40537 27.8873L-5.49092 28.1732L-5.58135 28.4573L-5.67664 28.7395L-5.77674 29.0197L-5.88162 29.2979L-5.99123 29.574L-6.10553 29.8478L-6.22447 30.1193L-6.34802 30.3884L-6.47612 30.6551L-6.60873 30.9193L-6.7458 31.1808L-6.88728 31.4397L-7.03311 31.6958L-7.18324 31.9491L-7.33763 32.1995L-7.4962 32.4469L-7.65892 32.6913L-7.82571 32.9326L-7.99653 33.1707L-8.1713 33.4055L-8.34998 33.637L-8.53249 33.8652L-8.71878 34.0899L-8.90878 34.3112L-9.10242 34.5288L-9.29965 34.7429L-9.50038 34.9532L-9.70456 35.1599L-9.91212 35.3627L-10.123 35.5617L-10.3371 35.7568L-10.5543 35.948L-10.7747 36.1352L-10.9981 36.3183L-11.2244 36.4973L-11.4535 36.6721L-11.6855 36.8428L-11.9202 37.0092L-12.1575 37.1714L-12.3974 37.3292L-12.6398 37.4827L-12.8846 37.6318L-13.1317 37.7764L-13.3811 37.9166L-13.6326 38.0523L-13.8862 38.1834L-14.1418 38.31L-14.3993 38.432L-14.6587 38.5493L-14.9199 38.662L-15.1827 38.77L-15.4471 38.8733L-15.713 38.9719L-15.9803 39.0658L-16.2489 39.1548L-16.5189 39.2391L-16.7899 39.3186L-17.0621 39.3933L-17.3353 39.4631L-17.6094 39.5281L-17.8843 39.5883L-18.1599 39.6436L-18.4362 39.694L-18.7131 39.7396L-18.9905 39.7803L-19.2683 39.8161L-19.5463 39.847L-19.8246 39.873L-20.1031 39.8941L-20.3816 39.9104L-20.6601 39.9218L-20.9385 39.9283L-21.2166 39.93L-21.4945 39.9268L-21.7721 39.9188L-22.0492 39.9059L-22.3257 39.8882L-22.6016 39.8658L-22.8769 39.8385L-23.1513 39.8065L-23.4249 39.7697L-23.6975 39.7282L-23.9692 39.682L-24.2397 39.6311L-24.509 39.5755L-24.777 39.5153L-25.0437 39.4505L-25.309 39.3811L-25.5728 39.3072L-25.8349 39.2287L-26.0955 39.1458L-26.3543 39.0584L-26.6112 38.9666L-26.8663 38.8705L-27.1194 38.77L-27.3705 38.6651L-27.6195 38.5561L-27.8663 38.4428L-28.1109 38.3253L-28.3531 38.2037L-28.593 38.078L-28.8303 37.9483L-29.0652 37.8145L-29.2975 37.6769L-29.5271 37.5353L-29.754 37.3899L-29.9781 37.2407L-30.1993 37.0877L-30.4176 36.9311L-30.633 36.7708L-30.8453 36.607L-31.0545 36.4396L-31.2606 36.2688L-31.4635 36.0945L-31.6631 35.917L-31.8594 35.7361L-32.0523 35.552L-32.2418 35.3648L-32.4278 35.1745L-32.6103 34.9811L-32.7892 34.7848L-32.9645 34.5856L-33.1361 34.3835L-33.304 34.1787L-33.4681 33.9711L-33.6285 33.761L-33.785 33.5483L-33.9376 33.3331L-34.0863 33.1154L-34.231 32.8954L-34.3718 32.6732L-34.5085 32.4487L-34.6411 32.2221L-34.7697 31.9934L-34.8941 31.7628L-35.0144 31.5302L-35.1304 31.2958L-35.2423 31.0597L-35.3499 30.8218L-35.4532 30.5824L-35.5523 30.3414L-35.647 30.0989L-35.7374 29.8551L-35.8235 29.61L-35.9051 29.3636L-35.9824 29.1161L-36.0553 28.8675L-36.1238 28.6179L-36.1879 28.3674L-36.2475 28.1161L-36.3026 27.864L-36.3533 27.6112L-36.3996 27.3578L-36.4414 27.1039L-36.4787 26.8496L-36.5115 26.5949L-36.5398 26.3399L-36.5637 26.0847L-36.5831 25.8293L-36.598 25.5739L-36.6085 25.3185L-36.6144 25.0633L-36.616 24.8082L-36.613 24.5534L-36.6057 24.2989L-36.5939 24.0448L-36.5777 23.7912L-36.5571 23.5381L-36.5321 23.2858L-36.5027 23.0341L-36.469 22.7832L-36.4309 22.5332L-36.3885 22.2841L-36.3418 22.0361L-36.2909 21.7891L-36.2357 21.5433L-36.1763 21.2987L-36.1126 21.0555L-36.0448 20.8136L-35.9729 20.5732" stroke="black"/>
 </g>
</svg>
