<?xml version="1.0" encoding="utf-8"?>
<svg xmlns="http://www.w3.org/2000/svg" fill="none" version="1.1" viewBox="-244.285 -379.425 488.571 758.85" x="-244.285pt" y="-379.425pt" width="488.571pt" height="758.85pt" stroke-width="0.566929" stroke-miterlimit="10.000000">
 <path d="M148.325 -351.496L243.285 -351.496L243.285 -378.425L148.325 -378.425Z" fill="black"/>
 <path d="M196.23 -357.165L196.797 -357.165"/>
 <g transform="matrix(1.000000,-0.000000,-0.000000,1.000000,196.513821,-357.165354)">
  <path d="M-40.4207 -0M-30.8333 -6.75664C-31.2672 -5.70286 -32.0317 -3.8019 -32.197 -3.07872L-32.2177 -3.07872C-32.4036 -3.82257 -33.2508 -5.86816 -33.6847 -6.96327L-36.3295 -13.4926C-36.6808 -14.3398 -37.342 -14.3398 -37.7139 -14.3398L-39.4289 -14.3398C-40.1727 -14.3398 -40.4207 -14.1125 -40.4207 -13.348L-40.4207 -0.991801C-40.4207 -0.24795 -40.1934 -0 -39.4289 -0L-38.871 -0C-38.0858 -0 -37.8792 -0.268613 -37.8792 -0.991801L-37.8792 -11.6743L-37.8585 -11.6743C-37.6313 -10.7445 -36.7014 -8.45097 -36.2055 -7.23188L-33.8087 -1.34306C-33.4368 -0.454575 -32.9409 -0.454575 -32.2383 -0.454575C-31.5358 -0.454575 -31.0399 -0.454575 -30.668 -1.34306L-28.0232 -7.8311C-27.8166 -8.327 -26.7008 -11.1371 -26.5561 -11.6743L-26.5355 -11.6743L-26.5355 -0.991801C-26.5355 -0.3306 -26.3908 -0 -25.5437 -0L-24.9858 -0C-24.2006 -0 -23.994 -0.268613 -23.994 -0.991801L-23.994 -13.348C-23.994 -14.0092 -24.1386 -14.3398 -24.9858 -14.3398L-26.7214 -14.3398C-27.238 -14.3398 -27.7546 -14.2985 -28.1058 -13.4513ZM-28.1058 -13.4513" fill="#fff"/>
 </g>
 <g transform="matrix(1.000000,-0.000000,-0.000000,1.000000,196.513821,-357.165354)">
  <path d="M-20.2172 -0M-10.6298 -6.75664C-11.0637 -5.70286 -11.8283 -3.8019 -11.9936 -3.07872L-12.0142 -3.07872C-12.2002 -3.82257 -13.0473 -5.86816 -13.4813 -6.96327L-16.1261 -13.4926C-16.4773 -14.3398 -17.1385 -14.3398 -17.5104 -14.3398L-19.2254 -14.3398C-19.9693 -14.3398 -20.2172 -14.1125 -20.2172 -13.348L-20.2172 -0.991801C-20.2172 -0.24795 -19.9899 -0 -19.2254 -0L-18.6675 -0C-17.8824 -0 -17.6757 -0.268613 -17.6757 -0.991801L-17.6757 -11.6743L-17.6551 -11.6743C-17.4278 -10.7445 -16.498 -8.45097 -16.0021 -7.23188L-13.6052 -1.34306C-13.2333 -0.454575 -12.7374 -0.454575 -12.0349 -0.454575C-11.3324 -0.454575 -10.8364 -0.454575 -10.4645 -1.34306L-7.81972 -7.8311C-7.6131 -8.327 -6.49732 -11.1371 -6.35268 -11.6743L-6.33202 -11.6743L-6.33202 -0.991801C-6.33202 -0.3306 -6.18738 -0 -5.34022 -0L-4.78233 -0C-3.99716 -0 -3.79053 -0.268613 -3.79053 -0.991801L-3.79053 -13.348C-3.79053 -14.0092 -3.93517 -14.3398 -4.78233 -14.3398L-6.51798 -14.3398C-7.03455 -14.3398 -7.55111 -14.2985 -7.90237 -13.4513ZM-7.90237 -13.4513" fill="#fff"/>
 </g>
 <g transform="matrix(1.000000,-0.000000,-0.000000,1.000000,196.513821,-357.165354)">
  <path d="M-1.02624 -0M7.89997 -13.4513C7.59003 -14.3398 6.99082 -14.3398 6.57757 -14.3398L4.75927 -14.3398C4.34602 -14.3398 3.7468 -14.3398 3.43686 -13.4513L-0.922928 -0.971138C-1.02624 -0.702526 -1.02624 -0.661201 -1.02624 -0.557888C-1.02624 -0 -0.509677 -0 -0.220402 -0L0.523449 -0C0.895374 -0 1.53591 -0 1.82519 -0.826501L2.63103 -3.12004L8.35454 -3.12004L9.05707 -1.13644C9.30502 -0.41325 9.44966 -0 10.4415 -0L11.5572 -0C11.8465 -0 12.3631 -0 12.3631 -0.557888C12.3631 -0.661201 12.3631 -0.702526 12.2598 -0.971138ZM12.2598 -0.971138M4.7386 -9.27747C5.04854 -10.1866 5.31715 -10.9718 5.48245 -11.7156L5.50312 -11.7156C5.60643 -11.2197 5.60643 -11.1784 5.77173 -10.7032L7.73467 -4.89702L3.2509 -4.89702ZM3.2509 -4.89702" fill="#fff"/>
 </g>
 <g transform="matrix(1.000000,-0.000000,-0.000000,1.000000,196.513821,-357.165354)">
  <path d="M13.8876 -0M25.8512 -2.95474C25.8512 -3.12004 25.7065 -3.20269 25.6239 -3.20269C25.128 -3.20269 24.5288 -1.85963 21.6154 -1.85963C17.9788 -1.85963 16.9456 -4.09118 16.9456 -7.19056C16.9456 -10.2693 18.0614 -12.5008 21.4501 -12.5008C23.289 -12.5008 24.2602 -11.7776 24.8181 -11.3231C24.942 -11.2197 25.004 -11.1371 25.1487 -11.1371C25.2313 -11.1371 25.3346 -11.2404 25.3553 -11.3231L25.7685 -13.6166C25.7892 -13.6993 25.7685 -13.7819 25.6032 -13.8439C24.3841 -14.2985 23.1237 -14.5877 21.512 -14.5877C16.4704 -14.5877 13.8876 -12.1289 13.8876 -7.21122C13.8876 -2.1489 16.5117 0.206625 21.5327 0.206625C23.289 0.206625 24.3841 -0.041325 25.8925 -0.971138C26.0578 -1.07445 26.0165 -1.21909 26.0165 -1.21909ZM26.0165 -1.21909" fill="#fff"/>
 </g>
 <g transform="matrix(1.000000,-0.000000,-0.000000,1.000000,196.513821,-357.165354)">
  <path d="M28.0162 -0M36.9424 -13.4513C36.6325 -14.3398 36.0333 -14.3398 35.62 -14.3398L33.8017 -14.3398C33.3885 -14.3398 32.7893 -14.3398 32.4793 -13.4513L28.1195 -0.971138C28.0162 -0.702526 28.0162 -0.661201 28.0162 -0.557888C28.0162 -0 28.5328 -0 28.8221 -0L29.5659 -0C29.9378 -0 30.5784 -0 30.8676 -0.826501L31.6735 -3.12004L37.397 -3.12004L38.0995 -1.13644C38.3475 -0.41325 38.4921 -0 39.4839 -0L40.5997 -0C40.889 -0 41.4055 -0 41.4055 -0.557888C41.4055 -0.661201 41.4055 -0.702526 41.3022 -0.971138ZM41.3022 -0.971138M33.7811 -9.27747C34.091 -10.1866 34.3596 -10.9718 34.5249 -11.7156L34.5456 -11.7156C34.6489 -11.2197 34.6489 -11.1784 34.8142 -10.7032L36.7771 -4.89702L32.2934 -4.89702ZM32.2934 -4.89702" fill="#fff"/>
 </g>
 <path d="M196.23 -331.654L196.797 -331.654"/>
 <g transform="matrix(1.000000,-0.000000,-0.000000,1.000000,196.513821,-331.653543)">
  <path d="M-24.5937 -0M-19.8021 -9.33937C-19.8021 -9.61195 -19.8021 -9.68368 -20.0029 -9.68368C-20.1177 -9.68368 -20.1607 -9.68368 -20.2755 -9.51153L-24.5937 -2.81185L-24.5937 -2.39581L-20.8206 -2.39581L-20.8206 -1.09031C-20.8206 -0.559502 -20.8493 -0.41604 -21.8966 -0.41604L-22.1835 -0.41604L-22.1835 -0C-21.8536 -0.0286924 -20.7202 -0.0286924 -20.3185 -0.0286924C-19.9168 -0.0286924 -18.7691 -0.0286924 -18.4392 -0L-18.4392 -0.41604L-18.7261 -0.41604C-19.759 -0.41604 -19.8021 -0.559502 -19.8021 -1.09031L-19.8021 -2.39581L-18.3531 -2.39581L-18.3531 -2.81185L-19.8021 -2.81185ZM-19.8021 -2.81185M-20.7489 -8.22037L-20.7489 -2.81185L-24.235 -2.81185ZM-24.235 -2.81185" fill="black"/>
 </g>
 <g transform="matrix(1.000000,-0.000000,-0.000000,1.000000,196.513821,-331.653543)">
  <path d="M-12.5004 -0M-7.10623 -10.2432C-7.0345 -10.4297 -7.0345 -10.4584 -7.0345 -10.4871C-7.0345 -10.6736 -7.17796 -10.7596 -7.29273 -10.7596C-7.47923 -10.7596 -7.52227 -10.6305 -7.594 -10.444L-12.4287 3.07009C-12.5004 3.25659 -12.5004 3.28528 -12.5004 3.31397C-12.5004 3.47178 -12.3856 3.58655 -12.2278 3.58655C-12.0413 3.58655 -11.9983 3.44309 -11.9409 3.28528ZM-11.9409 3.28528" fill="black"/>
 </g>
 <g transform="matrix(1.000000,-0.000000,-0.000000,1.000000,196.513821,-331.653543)">
  <path d="M-0.86618 -0M4.74318 -2.41016L4.42757 -2.41016C4.38453 -2.16628 4.26976 -1.37723 4.1263 -1.1477C4.02587 -1.01858 3.20814 -1.01858 2.77775 -1.01858L0.123708 -1.01858C0.511055 -1.34854 1.38617 -2.2667 1.75917 -2.61101C3.9398 -4.61948 4.74318 -5.36548 4.74318 -6.78575C4.74318 -8.43556 3.43768 -9.54022 1.77352 -9.54022C0.109362 -9.54022 -0.86618 -8.11995 -0.86618 -6.88617C-0.86618 -6.15452 -0.234947 -6.15452 -0.191908 -6.15452C0.109362 -6.15452 0.482363 -6.36971 0.482363 -6.82879C0.482363 -7.23048 0.209785 -7.50306 -0.191908 -7.50306C-0.321024 -7.50306 -0.349717 -7.50306 -0.392755 -7.48871C-0.120177 -8.46426 0.654517 -9.12418 1.58702 -9.12418C2.80645 -9.12418 3.55245 -8.1056 3.55245 -6.78575C3.55245 -5.56632 2.84949 -4.50471 2.03175 -3.58655L-0.86618 -0.344309L-0.86618 -0L4.37018 -0ZM4.37018 -0" fill="black"/>
 </g>
 <g transform="matrix(1.000000,-0.000000,-0.000000,1.000000,196.513821,-331.653543)">
  <path d="M6.22912 -0M12.2689 -8.90899L12.2689 -9.23895L8.81144 -9.23895C7.07555 -9.23895 7.04686 -9.42545 6.98947 -9.69803L6.67386 -9.69803L6.22912 -6.82879L6.54474 -6.82879C6.58778 -7.08702 6.7169 -7.97648 6.9034 -8.13429C7.01817 -8.22037 8.09413 -8.22037 8.29498 -8.22037L11.3364 -8.22037L9.81567 -6.03975C9.42833 -5.48025 7.97936 -3.12747 7.97936 -0.430386C7.97936 -0.272578 7.97936 0.30127 8.56755 0.30127C9.17009 0.30127 9.17009 -0.258232 9.17009 -0.444732L9.17009 -1.16204C9.17009 -3.29963 9.5144 -4.96378 10.1887 -5.92498ZM10.1887 -5.92498" fill="black"/>
 </g>
 <g transform="matrix(1.000000,-0.000000,-0.000000,1.000000,196.513821,-331.653543)">
  <path d="M13.0662 -0M18.9051 -4.59078C18.9051 -5.78152 18.8334 -6.94356 18.3169 -8.03387C17.7287 -9.2246 16.6958 -9.54022 15.9928 -9.54022C15.1607 -9.54022 14.1422 -9.12418 13.6114 -7.93345C13.2097 -7.02964 13.0662 -6.14017 13.0662 -4.59078C13.0662 -3.1992 13.1666 -2.15193 13.6831 -1.13335C14.2426 -0.0430386 15.2325 0.30127 15.9785 0.30127C17.2266 0.30127 17.9439 -0.444732 18.3599 -1.27681C18.8764 -2.35278 18.9051 -3.7587 18.9051 -4.59078ZM18.9051 -4.59078M15.9785 0.0143462C15.5194 0.0143462 14.5869 -0.243885 14.3143 -1.80762C14.1565 -2.66839 14.1565 -3.7587 14.1565 -4.76294C14.1565 -5.93933 14.1565 -7.00094 14.386 -7.84737C14.6299 -8.80856 15.3616 -9.2533 15.9785 -9.2533C16.5236 -9.2533 17.3557 -8.92333 17.6283 -7.68956C17.8148 -6.87183 17.8148 -5.73848 17.8148 -4.76294C17.8148 -3.80174 17.8148 -2.71143 17.657 -1.83631C17.3844 -0.258232 16.4806 0.0143462 15.9785 0.0143462ZM15.9785 0.0143462" fill="black"/>
 </g>
 <g transform="matrix(1.000000,-0.000000,-0.000000,1.000000,196.513821,-331.653543)">
  <path d="M20.0495 -5.20611M23.925 -7.69677C23.925 -8.76277 23.0383 -9.62952 21.9922 -9.62952C20.9163 -9.62952 20.0495 -8.74285 20.0495 -7.69677C20.0495 -6.64073 20.9163 -5.76402 21.9922 -5.76402C23.0383 -5.76402 23.925 -6.63077 23.925 -7.69677ZM23.925 -7.69677M21.9922 -6.16252C21.1255 -6.16252 20.448 -6.85991 20.448 -7.69677C20.448 -8.53363 21.1354 -9.23102 21.9922 -9.23102C22.8191 -9.23102 23.5265 -8.55356 23.5265 -7.69677C23.5265 -6.83998 22.8191 -6.16252 21.9922 -6.16252ZM21.9922 -6.16252" fill="black"/>
 </g>
 <g stroke-linecap="round" stroke-linejoin="round">
  <path d="M-98.1156 163.356L-243.285 -378.425" stroke="black"/>
 </g>
 <g stroke-linecap="butt" stroke-linejoin="round" stroke-dasharray="2.000000" stroke-dashoffset="0.000000">
  <path d="M-98.1156 163.356L-98.1156 -355.961" stroke="black"/>
 </g>
 <g stroke-linecap="round" stroke-linejoin="round">
  <path d="M-98.1156 163.356L26.3303 -301.083" stroke="black"/>
 </g>
 <g stroke-linecap="butt" stroke-linejoin="round" stroke-dasharray="2.000000" stroke-dashoffset="0.000000">
  <path d="M-98.1156 163.356L124.475 -222.182" stroke="black"/>
 </g>
 <g stroke-linecap="round" stroke-linejoin="round">
  <path d="M-98.1156 163.356L193.341 -128.101" stroke="black"/>
 </g>
 <g stroke-linecap="butt" stroke-linejoin="round" stroke-dasharray="2.000000" stroke-dashoffset="0.000000">
  <path d="M-98.1156 163.356L232.385 -27.4585" stroke="black"/>
 </g>
 <g stroke-linecap="round" stroke-linejoin="round">
  <path d="M-98.1156 163.356L243.185 71.9047" stroke="black"/>
 </g>
 <g stroke-linecap="butt" stroke-linejoin="round" stroke-dasharray="2.000000" stroke-dashoffset="0.000000">
  <path d="M-98.1156 163.356L229.033 163.356" stroke="black"/>
 </g>
 <g stroke-linecap="round" stroke-linejoin="round">
  <path d="M-98.1156 163.356L194.462 241.752" stroke="black"/>
 </g>
 <g stroke-linecap="butt" stroke-linejoin="round" stroke-dasharray="2.000000" stroke-dashoffset="0.000000">
  <path d="M-98.1156 163.356L144.758 303.579" stroke="black"/>
 </g>
 <g stroke-linecap="round" stroke-linejoin="round">
  <path d="M-98.1156 163.356L85.4906 346.962" stroke="black"/>
 </g>
 <g stroke-linecap="butt" stroke-linejoin="round" stroke-dasharray="2.000000" stroke-dashoffset="0.000000">
  <path d="M-98.1156 163.356L22.0899 371.558" stroke="black"/>
 </g>
 <g stroke-linecap="round" stroke-linejoin="round">
  <path d="M-98.1156 163.356L-40.505 378.362" stroke="black"/>
 </g>
 <g stroke-linecap="butt" stroke-linejoin="round" stroke-dasharray="2.000000" stroke-dashoffset="0.000000">
  <path d="M-98.1156 163.356L-98.1156 369.447" stroke="black"/>
 </g>
 <g stroke-linecap="round" stroke-linejoin="round">
  <path d="M-98.1156 163.356L-147.502 347.669" stroke="black"/>
 </g>
 <g stroke-linecap="butt" stroke-linejoin="round" stroke-dasharray="2.000000" stroke-dashoffset="0.000000">
  <path d="M-98.1156 163.356L-186.451 316.357" stroke="black"/>
 </g>
 <g stroke-linecap="round" stroke-linejoin="round">
  <path d="M-98.1156 163.356L-213.78 279.021" stroke="black"/>
 </g>
 <g stroke-linecap="butt" stroke-linejoin="round" stroke-dasharray="2.000000" stroke-dashoffset="0.000000">
  <path d="M-98.1156 163.356L-229.275 239.081" stroke="black"/>
 </g>
 <g stroke-linecap="round" stroke-linejoin="round">
  <path d="M-98.1156 163.356L-233.561 199.648" stroke="black"/>
 </g>
 <g stroke-linecap="butt" stroke-linejoin="round" stroke-dasharray="2.000000" stroke-dashoffset="0.000000">
  <path d="M-98.1156 163.356L-227.945 163.356" stroke="black"/>
 </g>
 <g stroke-linecap="round" stroke-linejoin="round">
  <path d="M-98.1156 163.356L-214.225 132.244" stroke="black"/>
 </g>
 <g stroke-linecap="butt" stroke-linejoin="round" stroke-dasharray="2.000000" stroke-dashoffset="0.000000">
  <path d="M-98.1156 163.356L-194.5 107.708" stroke="black"/>
 </g>
 <g stroke-linecap="round" stroke-linejoin="round">
  <path d="M-98.1156 163.356L-170.98 90.4918" stroke="black"/>
 </g>
 <g stroke-linecap="butt" stroke-linejoin="round" stroke-dasharray="2.000000" stroke-dashoffset="0.000000">
  <path d="M-98.1156 163.356L-145.819 80.7309" stroke="black"/>
 </g>
 <g stroke-linecap="round" stroke-linejoin="round">
  <path d="M-98.1156 163.356L-120.978 78.0308" stroke="black"/>
 </g>
 <g stroke-linecap="round" stroke-linejoin="round" stroke-width="1.603518">
  <path d="M-243.285 -378.425L-233.113 -378.089L-223 -377.578L-212.949 -376.894L-202.964 -376.04L-193.045 -375.016L-183.197 -373.825L-173.421 -372.47L-163.72 -370.952L-154.097 -369.274L-144.554 -367.438L-135.093 -365.445L-125.716 -363.299L-116.427 -361.001L-107.226 -358.555L-98.1156 -355.961L-89.0987 -353.223L-80.1769 -350.342L-71.3521 -347.322L-62.6263 -344.165L-54.0014 -340.872L-45.4791 -337.448L-37.0611 -333.893L-28.7493 -330.211L-20.5452 -326.404L-12.4505 -322.475L-4.46672 -318.426L3.40468 -314.26L11.1622 -309.979L18.8046 -305.585L26.3303 -301.083L33.7382 -296.473L41.027 -291.759L48.1955 -286.943L55.2426 -282.029L62.1672 -277.017L68.9683 -271.912L75.6448 -266.716L82.196 -261.432L88.6208 -256.061L94.9186 -250.607L101.088 -245.073L107.13 -239.461L113.041 -233.773L118.823 -228.013L124.475 -222.182L129.995 -216.285L135.384 -210.322L140.641 -204.297L145.766 -198.213L150.758 -192.072L155.617 -185.877L160.343 -179.63L164.935 -173.334L169.394 -166.991L173.72 -160.605L177.911 -154.177L181.969 -147.71L185.893 -141.206L189.684 -134.669L193.341 -128.101L196.865 -121.503L200.255 -114.88L203.513 -108.232L206.638 -101.563L209.631 -94.8744L212.492 -88.1694L215.222 -81.45L217.82 -74.7187L220.288 -67.9778L222.626 -61.2296L224.834 -54.4763L226.913 -47.7204L228.865 -40.9639L230.688 -34.2092L232.385 -27.4585L233.955 -20.7139L235.4 -13.9776L236.721 -7.25166L237.917 -0.538312L238.991 6.16042L239.943 12.8425L240.774 19.5058L241.485 26.1485L242.077 32.7684L242.55 39.3638L242.907 45.9325L243.147 52.4729L243.273 58.9829L243.285 65.4608L243.185 71.9047L242.973 78.3129L242.651 84.6837L242.221 91.0152L241.682 97.306L241.037 103.554L240.287 109.758L239.434 115.916L238.478 122.028L237.42 128.09L236.263 134.102L235.008 140.062L233.656 145.969L232.209 151.821L230.667 157.617L229.033 163.356L227.308 169.036L225.494 174.657L223.591 180.216L221.602 185.713L219.528 191.146L217.371 196.515L215.132 201.818L212.812 207.054L210.414 212.222L207.939 217.322L205.388 222.351L202.763 227.31L200.066 232.197L197.299 237.011L194.462 241.752L191.558 246.419L188.589 251.01L185.555 255.526L182.459 259.966L179.302 264.328L176.086 268.612L172.813 272.818L169.484 276.945L166.101 280.993L162.665 284.96L159.178 288.847L155.643 292.652L152.06 296.377L148.431 300.019L144.758 303.579L141.043 307.057L137.287 310.452L133.492 313.763L129.659 316.992L125.79 320.137L121.887 323.198L117.952 326.175L113.986 329.068L109.99 331.877L105.967 334.601L101.917 337.242L97.8434 339.798L93.7466 342.27L89.6284 344.658L85.4906 346.962L81.3345 349.182L77.1618 351.318L72.974 353.37L68.7726 355.339L64.5593 357.224L60.3354 359.027L56.1025 360.746L51.862 362.383L47.6155 363.938L43.3644 365.41L39.1101 366.802L34.8541 368.111L30.5978 369.341L26.3426 370.489L22.0899 371.558L17.8411 372.547L13.5975 373.458L9.36042 374.29L5.13128 375.044L0.911339 375.72L-3.29809 376.32L-7.49574 376.843L-11.6803 377.291L-15.8507 377.664L-20.0055 377.962L-24.1435 378.187L-28.2637 378.338L-32.3647 378.418L-36.4455 378.425L-40.505 378.362L-44.5419 378.229L-48.5552 378.026L-52.5439 377.754L-56.5068 377.415L-60.4429 377.009L-64.3512 376.537L-68.2307 375.999L-72.0804 375.396L-75.8993 374.73L-79.6865 374.002L-83.4412 373.211L-87.1623 372.359L-90.8489 371.447L-94.5004 370.476L-98.1156 369.447L-101.694 368.36L-105.235 367.217L-108.737 366.019L-112.2 364.766L-115.622 363.459L-119.004 362.1L-122.345 360.689L-125.644 359.228L-128.899 357.717L-132.112 356.158L-135.28 354.551L-138.404 352.898L-141.483 351.199L-144.515 349.455L-147.502 347.669L-150.442 345.839L-153.334 343.968L-156.179 342.057L-158.976 340.107L-161.724 338.118L-164.423 336.092L-167.073 334.03L-169.672 331.933L-172.222 329.802L-174.721 327.637L-177.17 325.441L-179.567 323.214L-181.913 320.957L-184.208 318.671L-186.451 316.357L-188.642 314.016L-190.78 311.65L-192.866 309.259L-194.9 306.845L-196.881 304.408L-198.81 301.949L-200.685 299.47L-202.508 296.971L-204.277 294.454L-205.994 291.92L-207.657 289.369L-209.267 286.802L-210.825 284.222L-212.329 281.627L-213.78 279.021L-215.179 276.402L-216.524 273.774L-217.817 271.136L-219.057 268.489L-220.245 265.835L-221.38 263.174L-222.464 260.507L-223.495 257.836L-224.474 255.161L-225.402 252.483L-226.278 249.803L-227.104 247.122L-227.878 244.44L-228.601 241.76L-229.275 239.081L-229.898 236.404L-230.471 233.731L-230.996 231.062L-231.47 228.397L-231.897 225.739L-232.274 223.087L-232.604 220.443L-232.886 217.807L-233.121 215.18L-233.309 212.562L-233.45 209.955L-233.546 207.36L-233.596 204.776L-233.601 202.206L-233.561 199.648L-233.477 197.105L-233.349 194.577L-233.178 192.064L-232.965 189.568L-232.709 187.088L-232.411 184.626L-232.072 182.182L-231.693 179.757L-231.273 177.351L-230.814 174.966L-230.316 172.6L-229.779 170.256L-229.205 167.934L-228.593 165.633L-227.945 163.356L-227.26 161.102L-226.54 158.871L-225.785 156.665L-224.996 154.484L-224.173 152.327L-223.317 150.197L-222.428 148.092L-221.507 146.014L-220.556 143.963L-219.573 141.94L-218.561 139.944L-217.52 137.976L-216.449 136.036L-215.351 134.126L-214.225 132.244L-213.073 130.393L-211.894 128.57L-210.69 126.778L-209.462 125.016L-208.209 123.285L-206.933 121.585L-205.634 119.916L-204.313 118.278L-202.97 116.672L-201.606 115.097L-200.223 113.555L-198.82 112.045L-197.398 110.567L-195.958 109.121L-194.5 107.708L-193.026 106.328L-191.535 104.981L-190.029 103.667L-188.508 102.386L-186.973 101.138L-185.424 99.9228L-183.862 98.7413L-182.288 97.5932L-180.702 96.4785L-179.106 95.3972L-177.499 94.3493L-175.882 93.3348L-174.256 92.3537L-172.622 91.4061L-170.98 90.4918L-169.33 89.6108L-167.675 88.7632L-166.013 87.9487L-164.345 87.1675L-162.673 86.4192L-160.997 85.704L-159.317 85.0216L-157.634 84.372L-155.949 83.7551L-154.262 83.1706L-152.574 82.6185L-150.885 82.0987L-149.196 81.6109L-147.507 81.155L-145.819 80.7309L-144.133 80.3383L-142.449 79.977L-140.768 79.6469L-139.089 79.3477L-137.415 79.0792L-135.744 78.8413L-134.078 78.6335L-132.418 78.4558L-130.763 78.3079L-129.114 78.1895L-127.472 78.1004L-125.836 78.0402L-124.209 78.0087L-122.589 78.0057L-120.978 78.0308L-119.376 78.0837L-117.784 78.1642L-116.201 78.2719L-114.628 78.4065L-113.066 78.5677L-111.515 78.7552L-109.976 78.9686L-108.448 79.2077L-106.932 79.472L-105.429 79.7612L-103.939 80.075L-102.463 80.413L-100.999 80.7748L-99.5504 81.1602L-98.1156 81.5687L-96.6956 81.9999L-95.2905 82.4536L-93.9007 82.9292L-92.5264 83.4265L-91.1681 83.945L-89.8259 84.4843L-88.5002 85.0441L-87.1911 85.624L-85.8991 86.2235L-84.6242 86.8424L-83.3669 87.4801L-82.1272 88.1362L-80.9055 88.8104L-79.7019 89.5023L-78.5166 90.2115L-77.35 90.9374L-76.2021 91.6798L-75.0731 92.4383L-73.9632 93.2123L-72.8727 94.0015L-71.8016 94.8055L-70.7501 95.6238L-69.7183 96.4561L-68.7065 97.3019L-67.7147 98.1608L-66.743 99.0325L-65.7915 99.9163L-64.8605 100.812L-63.9499 101.719L-63.0598 102.638L-62.1904 103.566L-61.3417 104.505L-60.5138 105.454L-59.7067 106.412L-58.9205 107.38L-58.1553 108.355L-57.411 109.339L-56.6877 110.331L-55.9855 111.33L-55.3043 112.335L-54.6441 113.348L-54.0051 114.366L-53.387 115.39L-52.7901 116.42L-52.2141 117.454L-51.6591 118.493L-51.1251 119.537L-50.6121 120.584L-50.1199 121.634L-49.6485 122.687L-49.198 123.743L-48.7681 124.801L-48.3589 125.862L-47.9702 126.923L-47.602 127.986L-47.2543 129.05L-46.9268 130.114L-46.6195 131.178L-46.3323 132.241L-46.0651 133.305L-45.8178 134.367L-45.5902 135.428L-45.3822 136.487L-45.1938 137.544L-45.0246 138.599L-44.8747 139.652L-44.7439 140.701L-44.6319 141.747L-44.5387 142.79L-44.4641 143.828L-44.408 144.863L-44.3701 145.893L-44.3503 146.918L-44.3483 147.938L-44.3642 148.953L-44.3975 149.963L-44.4482 150.966L-44.516 151.963L-44.6008 152.954L-44.7024 153.938L-44.8205 154.915L-44.955 155.885L-45.1055 156.847L-45.272 157.802L-45.4542 158.749L-45.6519 159.687L-45.8648 160.618L-46.0928 161.539L-46.3356 162.452L-46.5929 163.356L-46.8646 164.251L-47.1503 165.136L-47.45 166.011L-47.7632 166.877L-48.0899 167.733L-48.4296 168.578L-48.7823 169.413L-49.1476 170.238L-49.5253 171.052L-49.9151 171.855L-50.3168 172.647L-50.7302 173.428L-51.1549 174.198L-51.5908 174.956L-52.0375 175.703L-52.4948 176.438L-52.9625 177.161L-53.4403 177.872L-53.9279 178.571L-54.4251 179.258L-54.9315 179.933L-55.4471 180.595L-55.9714 181.245L-56.5042 181.883L-57.0453 182.507L-57.5944 183.12L-58.1512 183.719L-58.7155 184.305L-59.287 184.879L-59.8654 185.44L-60.4505 185.987L-61.0421 186.522L-61.6398 187.044L-62.2434 187.552L-62.8527 188.047L-63.4673 188.529L-64.0871 188.998L-64.7118 189.454L-65.341 189.896L-65.9747 190.325L-66.6124 190.741L-67.254 191.144L-67.8992 191.533L-68.5478 191.909L-69.1995 192.272L-69.854 192.622L-70.5112 192.958L-71.1707 193.281L-71.8324 193.591L-72.496 193.888L-73.1612 194.172L-73.8278 194.443L-74.4956 194.701L-75.1644 194.946L-75.8339 195.178L-76.5039 195.397L-77.1742 195.603L-77.8445 195.797L-78.5147 195.977L-79.1845 196.146L-79.8536 196.302L-80.5219 196.445L-81.1892 196.576L-81.8553 196.695L-82.5199 196.801L-83.1828 196.896L-83.8439 196.978L-84.5029 197.049L-85.1597 197.107L-85.8141 197.154L-86.4658 197.19L-87.1147 197.214L-87.7605 197.226L-88.4032 197.227L-89.0425 197.217L-89.6783 197.196L-90.3104 197.164L-90.9385 197.122L-91.5627 197.068L-92.1826 197.004L-92.7981 196.93L-93.4091 196.845L-94.0153 196.75L-94.6168 196.645L-95.2132 196.531L-95.8046 196.406L-96.3906 196.272L-96.9712 196.128L-97.5463 195.975L-98.1156 195.813L-98.6792 195.642L-99.2368 195.462L-99.7884 195.273L-100.334 195.076L-100.873 194.87L-101.405 194.656L-101.932 194.434L-102.451 194.204L-102.964 193.966L-103.47 193.72L-103.969 193.467L-104.461 193.207L-104.946 192.939L-105.423 192.665L-105.894 192.383L-106.357 192.095L-106.812 191.801L-107.26 191.5L-107.701 191.193L-108.133 190.879L-108.558 190.56L-108.976 190.235L-109.385 189.905L-109.787 189.57L-110.18 189.229L-110.566 188.883L-110.943 188.532L-111.313 188.177L-111.674 187.816L-112.028 187.452L-112.373 187.083L-112.709 186.711L-113.038 186.334L-113.358 185.954L-113.67 185.57L-113.974 185.183L-114.269 184.793L-114.556 184.399L-114.835 184.003L-115.105 183.604L-115.367 183.202L-115.621 182.798L-115.866 182.391L-116.103 181.983L-116.332 181.572L-116.552 181.16L-116.764 180.746L-116.967 180.33L-117.163 179.913L-117.35 179.495L-117.529 179.076L-117.699 178.656L-117.862 178.236L-118.016 177.814L-118.162 177.393L-118.3 176.97L-118.43 176.548L-118.552 176.126L-118.666 175.704L-118.772 175.282L-118.87 174.86L-118.96 174.439L-119.043 174.019L-119.118 173.599L-119.185 173.181L-119.244 172.763L-119.296 172.347L-119.341 171.931L-119.378 171.518L-119.407 171.105L-119.43 170.695L-119.445 170.286L-119.452 169.879L-119.453 169.474L-119.447 169.072L-119.434 168.671L-119.414 168.273L-119.387 167.877L-119.353 167.484L-119.313 167.094L-119.266 166.706L-119.212 166.321L-119.153 165.939L-119.087 165.56L-119.014 165.184L-118.936 164.812L-118.851 164.443L-118.761 164.077L-118.665 163.715L-118.562 163.356L-118.455 163.001L-118.341 162.65L-118.222 162.302L-118.098 161.959L-117.968 161.619L-117.834 161.284L-117.694 160.952L-117.549 160.625L-117.399 160.302L-117.244 159.983L-117.085 159.669L-116.921 159.359L-116.752 159.053L-116.579 158.753L-116.402 158.456L-116.22 158.165L-116.035 157.878L-115.845 157.595L-115.652 157.318L-115.454 157.045L-115.253 156.777L-115.049 156.515L-114.841 156.257L-114.629 156.004L-114.414 155.756L-114.197 155.513L-113.976 155.275L-113.752 155.042L-113.525 154.815L-113.295 154.592L-113.063 154.375L-112.828 154.162L-112.591 153.955L-112.352 153.754L-112.11 153.557L-111.866 153.366L-111.62 153.18L-111.372 152.999L-111.122 152.823L-110.871 152.653L-110.618 152.488L-110.363 152.328L-110.107 152.174L-109.85 152.025L-109.591 151.881L-109.331 151.742L-109.07 151.608L-108.809 151.48L-108.546 151.357L-108.283 151.239L-108.019 151.127L-107.754 151.019L-107.489 150.917L-107.224 150.82L-106.958 150.728L-106.692 150.641L-106.426 150.559L-106.16 150.482L-105.894 150.41L-105.628 150.343L-105.363 150.281L-105.098 150.225L-104.833 150.173L-104.569 150.125L-104.305 150.083L-104.042 150.046L-103.779 150.013L-103.518 149.985L-103.257 149.962L-102.998 149.943L-102.739 149.929L-102.481 149.92L-102.225 149.915L-101.97 149.914" stroke="black"/>
 </g>
</svg>
