<?xml version="1.0" encoding="utf-8"?>
<svg xmlns="http://www.w3.org/2000/svg" fill="none" version="1.1" viewBox="-256.118 -304.388 512.236 608.777" x="-256.118pt" y="-304.388pt" width="512.236pt" height="608.777pt" stroke-width="0.566929" stroke-miterlimit="10.000000">
 <path d="M160.157 -276.459L255.118 -276.459L255.118 -303.388L160.157 -303.388Z" fill="black"/>
 <path d="M208.063 -282.128L208.63 -282.128"/>
 <g transform="matrix(1.000000,-0.000000,-0.000000,1.000000,208.346457,-282.128429)">
  <path d="M-40.4207 -0M-30.8333 -6.75664C-31.2672 -5.70286 -32.0317 -3.8019 -32.197 -3.07872L-32.2177 -3.07872C-32.4036 -3.82257 -33.2508 -5.86816 -33.6847 -6.96327L-36.3295 -13.4926C-36.6808 -14.3398 -37.342 -14.3398 -37.7139 -14.3398L-39.4289 -14.3398C-40.1727 -14.3398 -40.4207 -14.1125 -40.4207 -13.348L-40.4207 -0.991801C-40.4207 -0.24795 -40.1934 -0 -39.4289 -0L-38.871 -0C-38.0858 -0 -37.8792 -0.268613 -37.8792 -0.991801L-37.8792 -11.6743L-37.8585 -11.6743C-37.6313 -10.7445 -36.7014 -8.45097 -36.2055 -7.23188L-33.8087 -1.34306C-33.4368 -0.454575 -32.9409 -0.454575 -32.2383 -0.454575C-31.5358 -0.454575 -31.0399 -0.454575 -30.668 -1.34306L-28.0232 -7.8311C-27.8166 -8.327 -26.7008 -11.1371 -26.5561 -11.6743L-26.5355 -11.6743L-26.5355 -0.991801C-26.5355 -0.3306 -26.3908 -0 -25.5437 -0L-24.9858 -0C-24.2006 -0 -23.994 -0.268613 -23.994 -0.991801L-23.994 -13.348C-23.994 -14.0092 -24.1386 -14.3398 -24.9858 -14.3398L-26.7214 -14.3398C-27.238 -14.3398 -27.7546 -14.2985 -28.1058 -13.4513ZM-28.1058 -13.4513" fill="#fff"/>
 </g>
 <g transform="matrix(1.000000,-0.000000,-0.000000,1.000000,208.346457,-282.128429)">
  <path d="M-20.2172 -0M-10.6298 -6.75664C-11.0637 -5.70286 -11.8283 -3.8019 -11.9936 -3.07872L-12.0142 -3.07872C-12.2002 -3.82257 -13.0473 -5.86816 -13.4813 -6.96327L-16.1261 -13.4926C-16.4773 -14.3398 -17.1385 -14.3398 -17.5104 -14.3398L-19.2254 -14.3398C-19.9693 -14.3398 -20.2172 -14.1125 -20.2172 -13.348L-20.2172 -0.991801C-20.2172 -0.24795 -19.9899 -0 -19.2254 -0L-18.6675 -0C-17.8824 -0 -17.6757 -0.268613 -17.6757 -0.991801L-17.6757 -11.6743L-17.6551 -11.6743C-17.4278 -10.7445 -16.498 -8.45097 -16.0021 -7.23188L-13.6052 -1.34306C-13.2333 -0.454575 -12.7374 -0.454575 -12.0349 -0.454575C-11.3324 -0.454575 -10.8364 -0.454575 -10.4645 -1.34306L-7.81972 -7.8311C-7.6131 -8.327 -6.49732 -11.1371 -6.35268 -11.6743L-6.33202 -11.6743L-6.33202 -0.991801C-6.33202 -0.3306 -6.18738 -0 -5.34022 -0L-4.78233 -0C-3.99716 -0 -3.79053 -0.268613 -3.79053 -0.991801L-3.79053 -13.348C-3.79053 -14.0092 -3.93517 -14.3398 -4.78233 -14.3398L-6.51798 -14.3398C-7.03455 -14.3398 -7.55111 -14.2985 -7.90237 -13.4513ZM-7.90237 -13.4513" fill="#fff"/>
 </g>
 <g transform="matrix(1.000000,-0.000000,-0.000000,1.000000,208.346457,-282.128429)">
  <path d="M-1.02624 -0M7.89997 -13.4513C7.59003 -14.3398 6.99082 -14.3398 6.57757 -14.3398L4.75927 -14.3398C4.34602 -14.3398 3.7468 -14.3398 3.43686 -13.4513L-0.922928 -0.971138C-1.02624 -0.702526 -1.02624 -0.661201 -1.02624 -0.557888C-1.02624 -0 -0.509677 -0 -0.220402 -0L0.523449 -0C0.895374 -0 1.53591 -0 1.82519 -0.826501L2.63103 -3.12004L8.35454 -3.12004L9.05707 -1.13644C9.30502 -0.41325 9.44966 -0 10.4415 -0L11.5572 -0C11.8465 -0 12.3631 -0 12.3631 -0.557888C12.3631 -0.661201 12.3631 -0.702526 12.2598 -0.971138ZM12.2598 -0.971138M4.7386 -9.27747C5.04854 -10.1866 5.31715 -10.9718 5.48245 -11.7156L5.50312 -11.7156C5.60643 -11.2197 5.60643 -11.1784 5.77173 -10.7032L7.73467 -4.89702L3.2509 -4.89702ZM3.2509 -4.89702" fill="#fff"/>
 </g>
 <g transform="matrix(1.000000,-0.000000,-0.000000,1.000000,208.346457,-282.128429)">
  <path d="M13.8876 -0M25.8512 -2.95474C25.8512 -3.12004 25.7065 -3.20269 25.6239 -3.20269C25.128 -3.20269 24.5288 -1.85963 21.6154 -1.85963C17.9788 -1.85963 16.9456 -4.09118 16.9456 -7.19056C16.9456 -10.2693 18.0614 -12.5008 21.4501 -12.5008C23.289 -12.5008 24.2602 -11.7776 24.8181 -11.3231C24.942 -11.2197 25.004 -11.1371 25.1487 -11.1371C25.2313 -11.1371 25.3346 -11.2404 25.3553 -11.3231L25.7685 -13.6166C25.7892 -13.6993 25.7685 -13.7819 25.6032 -13.8439C24.3841 -14.2985 23.1237 -14.5877 21.512 -14.5877C16.4704 -14.5877 13.8876 -12.1289 13.8876 -7.21122C13.8876 -2.1489 16.5117 0.206625 21.5327 0.206625C23.289 0.206625 24.3841 -0.041325 25.8925 -0.971138C26.0578 -1.07445 26.0165 -1.21909 26.0165 -1.21909ZM26.0165 -1.21909" fill="#fff"/>
 </g>
 <g transform="matrix(1.000000,-0.000000,-0.000000,1.000000,208.346457,-282.128429)">
  <path d="M28.0162 -0M36.9424 -13.4513C36.6325 -14.3398 36.0333 -14.3398 35.62 -14.3398L33.8017 -14.3398C33.3885 -14.3398 32.7893 -14.3398 32.4793 -13.4513L28.1195 -0.971138C28.0162 -0.702526 28.0162 -0.661201 28.0162 -0.557888C28.0162 -0 28.5328 -0 28.8221 -0L29.5659 -0C29.9378 -0 30.5784 -0 30.8676 -0.826501L31.6735 -3.12004L37.397 -3.12004L38.0995 -1.13644C38.3475 -0.41325 38.4921 -0 39.4839 -0L40.5997 -0C40.889 -0 41.4055 -0 41.4055 -0.557888C41.4055 -0.661201 41.4055 -0.702526 41.3022 -0.971138ZM41.3022 -0.971138M33.7811 -9.27747C34.091 -10.1866 34.3596 -10.9718 34.5249 -11.7156L34.5456 -11.7156C34.6489 -11.2197 34.6489 -11.1784 34.8142 -10.7032L36.7771 -4.89702L32.2934 -4.89702ZM32.2934 -4.89702" fill="#fff"/>
 </g>
 <path d="M208.063 -256.617L208.63 -256.617"/>
 <g transform="matrix(1.000000,-0.000000,-0.000000,1.000000,208.346457,-256.616618)">
  <path d="M-29.9114 -11.7579M-25.378 0.508103L-27.9029 -5.07257C-28.0033 -5.30211 -28.0751 -5.30211 -28.1181 -5.30211C-28.1324 -5.30211 -28.2042 -5.30211 -28.362 -5.18734L-29.7249 -4.15441C-29.9114 -4.01095 -29.9114 -3.96791 -29.9114 -3.92487C-29.9114 -3.85314 -29.8683 -3.76706 -29.7679 -3.76706C-29.6818 -3.76706 -29.4379 -3.96791 -29.2801 -4.08268C-29.1941 -4.15441 -28.9789 -4.31222 -28.8211 -4.42699L-25.9949 1.78491C-25.8944 2.01445 -25.8227 2.01445 -25.6936 2.01445C-25.4784 2.01445 -25.4354 1.92838 -25.3349 1.72753L-18.8218 -11.7579C-18.7213 -11.9587 -18.7213 -12.0161 -18.7213 -12.0448C-18.7213 -12.1883 -18.8361 -12.3317 -19.0083 -12.3317C-19.123 -12.3317 -19.2235 -12.26 -19.3382 -12.0305ZM-19.3382 -12.0305" fill="black"/>
 </g>
 <g transform="matrix(1.000000,-0.000000,-0.000000,1.000000,208.346457,-256.616618)">
  <path d="M-19.0034 -11.7579L-11.9799 -11.7579L-11.9799 -12.3317L-19.0034 -12.3317Z" fill="black"/>
 </g>
 <g transform="matrix(1.000000,-0.000000,-0.000000,1.000000,208.346457,-256.616618)">
  <path d="M-18.3005 -0M-12.6911 -2.41016L-13.0067 -2.41016C-13.0498 -2.16628 -13.1645 -1.37723 -13.308 -1.1477C-13.4084 -1.01858 -14.2262 -1.01858 -14.6565 -1.01858L-17.3106 -1.01858C-16.9232 -1.34854 -16.0481 -2.2667 -15.6751 -2.61101C-13.4945 -4.61948 -12.6911 -5.36548 -12.6911 -6.78575C-12.6911 -8.43556 -13.9966 -9.54022 -15.6608 -9.54022C-17.3249 -9.54022 -18.3005 -8.11995 -18.3005 -6.88617C-18.3005 -6.15452 -17.6692 -6.15452 -17.6262 -6.15452C-17.3249 -6.15452 -16.9519 -6.36971 -16.9519 -6.82879C-16.9519 -7.23048 -17.2245 -7.50306 -17.6262 -7.50306C-17.7553 -7.50306 -17.784 -7.50306 -17.8271 -7.48871C-17.5545 -8.46426 -16.7798 -9.12418 -15.8473 -9.12418C-14.6279 -9.12418 -13.8819 -8.1056 -13.8819 -6.78575C-13.8819 -5.56632 -14.5848 -4.50471 -15.4025 -3.58655L-18.3005 -0.344309L-18.3005 -0L-13.0641 -0ZM-13.0641 -0" fill="black"/>
 </g>
 <g transform="matrix(1.000000,-0.000000,-0.000000,1.000000,208.346457,-256.616618)">
  <path d="M-6.5228 -0M-1.12863 -10.2432C-1.0569 -10.4297 -1.0569 -10.4584 -1.0569 -10.4871C-1.0569 -10.6736 -1.20036 -10.7596 -1.31513 -10.7596C-1.50163 -10.7596 -1.54467 -10.6305 -1.6164 -10.444L-6.45107 3.07009C-6.5228 3.25659 -6.5228 3.28528 -6.5228 3.31397C-6.5228 3.47178 -6.40803 3.58655 -6.25022 3.58655C-6.06372 3.58655 -6.02068 3.44309 -5.9633 3.28528ZM-5.9633 3.28528" fill="black"/>
 </g>
 <g transform="matrix(1.000000,-0.000000,-0.000000,1.000000,208.346457,-256.616618)">
  <path d="M5.71396 -0M8.54016 -9.19591C8.54016 -9.52587 8.54016 -9.54022 8.25324 -9.54022C7.90893 -9.15287 7.19162 -8.62206 5.71396 -8.62206L5.71396 -8.20602C6.04392 -8.20602 6.76123 -8.20602 7.55027 -8.57903L7.55027 -1.10466C7.55027 -0.588194 7.50723 -0.41604 6.24477 -0.41604L5.80004 -0.41604L5.80004 -0C6.18738 -0.0286924 7.57897 -0.0286924 8.05239 -0.0286924C8.52581 -0.0286924 9.90305 -0.0286924 10.2904 -0L10.2904 -0.41604L9.84566 -0.41604C8.5832 -0.41604 8.54016 -0.588194 8.54016 -1.10466ZM8.54016 -1.10466" fill="black"/>
 </g>
 <g transform="matrix(1.000000,-0.000000,-0.000000,1.000000,208.346457,-256.616618)">
  <path d="M12.0202 -0M15.7072 -5.17898C16.4245 -5.56632 17.4718 -6.22625 17.4718 -7.43133C17.4718 -8.67945 16.2667 -9.54022 14.9468 -9.54022C13.5266 -9.54022 12.4076 -8.49295 12.4076 -7.18744C12.4076 -6.69967 12.551 -6.2119 12.9527 -5.72413C13.1105 -5.53763 13.1249 -5.52329 14.1291 -4.82032C12.7375 -4.17474 12.0202 -3.21355 12.0202 -2.16628C12.0202 -0.645579 13.4692 0.30127 14.9325 0.30127C16.5249 0.30127 17.8591 -0.875118 17.8591 -2.38147C17.8591 -3.84478 16.8262 -4.49036 15.7072 -5.17898ZM15.7072 -5.17898M13.7561 -6.47013C13.5696 -6.59925 12.9958 -6.97225 12.9958 -7.67521C12.9958 -8.60772 13.9713 -9.19591 14.9325 -9.19591C15.9654 -9.19591 16.8836 -8.44991 16.8836 -7.41698C16.8836 -6.54187 16.2524 -5.8389 15.4203 -5.37982ZM15.4203 -5.37982M14.4304 -4.61948L16.1663 -3.48613C16.5393 -3.24224 17.1992 -2.79751 17.1992 -1.92239C17.1992 -0.832079 16.0945 -0.0860772 14.9468 -0.0860772C13.7274 -0.0860772 12.6801 -0.975541 12.6801 -2.16628C12.6801 -3.28528 13.4979 -4.18909 14.4304 -4.61948ZM14.4304 -4.61948" fill="black"/>
 </g>
 <g transform="matrix(1.000000,-0.000000,-0.000000,1.000000,208.346457,-256.616618)">
  <path d="M19.0438 -0M24.8827 -4.59078C24.8827 -5.78152 24.811 -6.94356 24.2945 -8.03387C23.7063 -9.2246 22.6734 -9.54022 21.9704 -9.54022C21.1383 -9.54022 20.1198 -9.12418 19.589 -7.93345C19.1873 -7.02964 19.0438 -6.14017 19.0438 -4.59078C19.0438 -3.1992 19.1442 -2.15193 19.6607 -1.13335C20.2202 -0.0430386 21.2101 0.30127 21.9561 0.30127C23.2042 0.30127 23.9215 -0.444732 24.3375 -1.27681C24.854 -2.35278 24.8827 -3.7587 24.8827 -4.59078ZM24.8827 -4.59078M21.9561 0.0143462C21.497 0.0143462 20.5645 -0.243885 20.2919 -1.80762C20.1341 -2.66839 20.1341 -3.7587 20.1341 -4.76294C20.1341 -5.93933 20.1341 -7.00094 20.3636 -7.84737C20.6075 -8.80856 21.3392 -9.2533 21.9561 -9.2533C22.5012 -9.2533 23.3333 -8.92333 23.6059 -7.68956C23.7924 -6.87183 23.7924 -5.73848 23.7924 -4.76294C23.7924 -3.80174 23.7924 -2.71143 23.6346 -1.83631C23.362 -0.258232 22.4582 0.0143462 21.9561 0.0143462ZM21.9561 0.0143462" fill="black"/>
 </g>
 <g transform="matrix(1.000000,-0.000000,-0.000000,1.000000,208.346457,-256.616618)">
  <path d="M26.0271 -5.20611M29.9026 -7.69677C29.9026 -8.76277 29.0159 -9.62952 27.9698 -9.62952C26.8939 -9.62952 26.0271 -8.74285 26.0271 -7.69677C26.0271 -6.64073 26.8939 -5.76402 27.9698 -5.76402C29.0159 -5.76402 29.9026 -6.63077 29.9026 -7.69677ZM29.9026 -7.69677M27.9698 -6.16252C27.1031 -6.16252 26.4256 -6.85991 26.4256 -7.69677C26.4256 -8.53363 27.113 -9.23102 27.9698 -9.23102C28.7967 -9.23102 29.5041 -8.55356 29.5041 -7.69677C29.5041 -6.83998 28.7967 -6.16252 27.9698 -6.16252ZM27.9698 -6.16252" fill="black"/>
 </g>
 <g stroke-linecap="round" stroke-linejoin="round">
  <path d="M-43.7713 52.0532L-230.922 -272.102" stroke="black"/>
 </g>
 <g stroke-linecap="butt" stroke-linejoin="round" stroke-dasharray="2.000000" stroke-dashoffset="0.000000">
  <path d="M-43.7713 52.0532L-137.89 -299.202" stroke="black"/>
 </g>
 <g stroke-linecap="round" stroke-linejoin="round">
  <path d="M-43.7713 52.0532L-43.7713 -301.241" stroke="black"/>
 </g>
 <g stroke-linecap="butt" stroke-linejoin="round" stroke-dasharray="2.000000" stroke-dashoffset="0.000000">
  <path d="M-43.7713 52.0532L45.0648 -279.488" stroke="black"/>
 </g>
 <g stroke-linecap="round" stroke-linejoin="round">
  <path d="M-43.7713 52.0532L122.961 -236.736" stroke="black"/>
 </g>
 <g stroke-linecap="butt" stroke-linejoin="round" stroke-dasharray="2.000000" stroke-dashoffset="0.000000">
  <path d="M-43.7713 52.0532L185.312 -177.03" stroke="black"/>
 </g>
 <g stroke-linecap="round" stroke-linejoin="round">
  <path d="M-43.7713 52.0532L228.81 -105.322" stroke="black"/>
 </g>
 <g stroke-linecap="butt" stroke-linejoin="round" stroke-dasharray="2.000000" stroke-dashoffset="0.000000">
  <path d="M-43.7713 52.0532L251.598 -27.0908" stroke="black"/>
 </g>
 <g stroke-linecap="round" stroke-linejoin="round">
  <path d="M-43.7713 52.0532L253.313 52.0532" stroke="black"/>
 </g>
 <g stroke-linecap="butt" stroke-linejoin="round" stroke-dasharray="2.000000" stroke-dashoffset="0.000000">
  <path d="M-43.7713 52.0532L235.02 126.755" stroke="black"/>
 </g>
 <g stroke-linecap="round" stroke-linejoin="round">
  <path d="M-43.7713 52.0532L199.071 192.258" stroke="black"/>
 </g>
 <g stroke-linecap="butt" stroke-linejoin="round" stroke-dasharray="2.000000" stroke-dashoffset="0.000000">
  <path d="M-43.7713 52.0532L148.864 244.688" stroke="black"/>
 </g>
 <g stroke-linecap="round" stroke-linejoin="round">
  <path d="M-43.7713 52.0532L88.5645 281.266" stroke="black"/>
 </g>
 <g stroke-linecap="butt" stroke-linejoin="round" stroke-dasharray="2.000000" stroke-dashoffset="0.000000">
  <path d="M-43.7713 52.0532L22.7806 300.428" stroke="black"/>
 </g>
 <g stroke-linecap="round" stroke-linejoin="round">
  <path d="M-43.7713 52.0532L-43.7713 301.87" stroke="black"/>
 </g>
 <g stroke-linecap="butt" stroke-linejoin="round" stroke-dasharray="2.000000" stroke-dashoffset="0.000000">
  <path d="M-43.7713 52.0532L-106.588 286.488" stroke="black"/>
 </g>
 <g stroke-linecap="round" stroke-linejoin="round">
  <path d="M-43.7713 52.0532L-161.669 256.258" stroke="black"/>
 </g>
 <g stroke-linecap="butt" stroke-linejoin="round" stroke-dasharray="2.000000" stroke-dashoffset="0.000000">
  <path d="M-43.7713 52.0532L-205.757 214.039" stroke="black"/>
 </g>
 <g stroke-linecap="round" stroke-linejoin="round">
  <path d="M-43.7713 52.0532L-236.515 163.334" stroke="black"/>
 </g>
 <g stroke-linecap="butt" stroke-linejoin="round" stroke-dasharray="2.000000" stroke-dashoffset="0.000000">
  <path d="M-43.7713 52.0532L-252.629 108.016" stroke="black"/>
 </g>
 <g stroke-linecap="round" stroke-linejoin="round">
  <path d="M-43.7713 52.0532L-253.841 52.0532" stroke="black"/>
 </g>
 <g stroke-linecap="butt" stroke-linejoin="round" stroke-dasharray="2.000000" stroke-dashoffset="0.000000">
  <path d="M-43.7713 52.0532L-240.907 -0.769113" stroke="black"/>
 </g>
 <g stroke-linecap="round" stroke-linejoin="round">
  <path d="M-43.7713 52.0532L-215.487 -47.0867" stroke="black"/>
 </g>
 <g stroke-linecap="butt" stroke-linejoin="round" stroke-dasharray="2.000000" stroke-dashoffset="0.000000">
  <path d="M-43.7713 52.0532L-179.985 -84.1604" stroke="black"/>
 </g>
 <g stroke-linecap="round" stroke-linejoin="round">
  <path d="M-43.7713 52.0532L-137.347 -110.024" stroke="black"/>
 </g>
 <g stroke-linecap="round" stroke-linejoin="round" stroke-width="1.603518">
  <path d="M-230.922 -272.102L-224.888 -274.689L-218.82 -277.166L-212.722 -279.532L-206.596 -281.786L-200.443 -283.93L-194.265 -285.961L-188.065 -287.881L-181.844 -289.689L-175.605 -291.385L-169.349 -292.968L-163.078 -294.44L-156.795 -295.799L-150.502 -297.045L-144.199 -298.18L-137.89 -299.202L-131.576 -300.113L-125.26 -300.911L-118.942 -301.598L-112.626 -302.174L-106.313 -302.638L-100.005 -302.991L-93.7036 -303.233L-87.4113 -303.366L-81.1298 -303.388L-74.8608 -303.301L-68.6064 -303.105L-62.3685 -302.801L-56.1487 -302.388L-49.9491 -301.868L-43.7713 -301.241L-37.6174 -300.508L-31.4889 -299.669L-25.3878 -298.725L-19.3159 -297.677L-13.2747 -296.525L-7.26621 -295.27L-1.29201 -293.913L4.64615 -292.455L10.5466 -290.897L16.4076 -289.239L22.2276 -287.482L28.005 -285.628L33.738 -283.677L39.4251 -281.63L45.0648 -279.488L50.6555 -277.252L56.1956 -274.924L61.6837 -272.504L67.1182 -269.994L72.4978 -267.394L77.8208 -264.705L83.086 -261.93L88.2919 -259.068L93.4372 -256.122L98.5205 -253.093L103.54 -249.981L108.496 -246.788L113.385 -243.515L118.207 -240.164L122.961 -236.736L127.646 -233.233L132.259 -229.655L136.801 -226.004L141.27 -222.281L145.664 -218.489L149.983 -214.627L154.226 -210.699L158.392 -206.705L162.48 -202.646L166.488 -198.525L170.417 -194.342L174.264 -190.1L178.03 -185.799L181.712 -181.442L185.312 -177.03L188.827 -172.564L192.256 -168.046L195.6 -163.478L198.858 -158.861L202.028 -154.197L205.111 -149.487L208.105 -144.734L211.01 -139.938L213.825 -135.102L216.55 -130.226L219.185 -125.313L221.729 -120.365L224.181 -115.382L226.542 -110.367L228.81 -105.322L230.985 -100.247L233.068 -95.1448L235.057 -90.017L236.953 -84.8653L238.755 -79.6912L240.464 -74.4965L242.078 -69.2828L243.599 -64.0518L245.024 -58.8051L246.356 -53.5445L247.593 -48.2717L248.736 -42.9882L249.784 -37.6958L250.739 -32.3961L251.598 -27.0908L252.364 -21.7816L253.035 -16.47L253.613 -11.1578L254.097 -5.84647L254.487 -0.537781L254.784 4.76669L254.988 10.0653L255.099 15.3565L255.118 20.6387L255.045 25.9102L254.88 31.1695L254.624 36.415L254.277 41.6451L253.84 46.8584L253.313 52.0532L252.696 57.2281L251.99 62.3814L251.197 67.5118L250.315 72.6177L249.347 77.6977L248.291 82.7502L247.151 87.7739L245.925 92.7673L244.614 97.729L243.22 102.657L241.743 107.552L240.183 112.41L238.543 117.231L236.821 122.013L235.02 126.755L233.141 131.456L231.183 136.115L229.148 140.73L227.037 145.3L224.85 149.823L222.59 154.3L220.256 158.727L217.85 163.105L215.372 167.431L212.825 171.706L210.208 175.927L207.523 180.094L204.771 184.206L201.953 188.261L199.071 192.258L196.124 196.197L193.116 200.077L190.046 203.896L186.915 207.653L183.726 211.349L180.479 214.981L177.176 218.549L173.817 222.052L170.404 225.489L166.939 228.86L163.422 232.163L159.854 235.399L156.238 238.565L152.574 241.662L148.864 244.688L145.108 247.644L141.309 250.528L137.468 253.34L133.586 256.079L129.664 258.745L125.703 261.337L121.706 263.855L117.673 266.298L113.606 268.665L109.507 270.957L105.375 273.172L101.214 275.311L97.0244 277.373L92.8073 279.358L88.5645 281.266L84.2972 283.095L80.0069 284.846L75.695 286.519L71.3629 288.113L67.0121 289.629L62.6438 291.066L58.2596 292.423L53.8609 293.701L49.449 294.901L45.0254 296.02L40.5915 297.061L36.1486 298.022L31.6983 298.903L27.2418 299.705L22.7806 300.428L18.3161 301.072L13.8496 301.637L9.38251 302.122L4.91627 302.529L0.452218 302.858L-4.00829 303.107L-8.46389 303.279L-12.9132 303.372L-17.355 303.388L-21.7878 303.327L-26.2103 303.188L-30.6212 302.973L-35.0192 302.681L-39.403 302.313L-43.7713 301.87L-48.1229 301.351L-52.4563 300.758L-56.7704 300.091L-61.064 299.349L-65.3357 298.535L-69.5844 297.648L-73.8088 296.688L-78.0077 295.657L-82.1799 294.555L-86.3243 293.383L-90.4397 292.141L-94.5249 290.83L-98.5787 289.45L-102.6 288.003L-106.588 286.488L-110.541 284.907L-114.459 283.261L-118.339 281.55L-122.182 279.775L-125.986 277.936L-129.75 276.035L-133.473 274.073L-137.154 272.049L-140.792 269.966L-144.387 267.824L-147.937 265.623L-151.44 263.366L-154.898 261.052L-158.308 258.682L-161.669 256.258L-164.981 253.781L-168.244 251.251L-171.455 248.669L-174.615 246.037L-177.722 243.355L-180.777 240.625L-183.777 237.847L-186.723 235.023L-189.613 232.153L-192.447 229.239L-195.225 226.281L-197.946 223.281L-200.608 220.24L-203.212 217.159L-205.757 214.039L-208.243 210.882L-210.668 207.687L-213.033 204.457L-215.336 201.192L-217.578 197.894L-219.757 194.564L-221.875 191.203L-223.929 187.811L-225.919 184.392L-227.847 180.944L-229.71 177.47L-231.508 173.971L-233.242 170.448L-234.911 166.902L-236.515 163.334L-238.054 159.746L-239.526 156.138L-240.933 152.512L-242.274 148.869L-243.548 145.211L-244.756 141.537L-245.898 137.851L-246.973 134.152L-247.981 130.442L-248.922 126.722L-249.797 122.994L-250.605 119.258L-251.347 115.515L-252.021 111.768L-252.629 108.016L-253.171 104.262L-253.645 100.506L-254.054 96.7501L-254.396 92.9944L-254.672 89.2406L-254.882 85.4898L-255.026 81.7431L-255.105 78.0017L-255.118 74.2666L-255.066 70.5391L-254.95 66.8202L-254.769 63.1111L-254.523 59.4128L-254.214 55.7265L-253.841 52.0532L-253.405 48.394L-252.907 44.75L-252.345 41.1223L-251.722 37.5119L-251.037 33.9198L-250.291 30.3471L-249.484 26.7948L-248.617 23.264L-247.691 19.7556L-246.705 16.2706L-245.66 12.81L-244.558 9.37475L-243.398 5.96586L-242.18 2.58427L-240.907 -0.769113L-239.578 -4.09335L-238.193 -7.38753L-236.754 -10.6508L-235.262 -13.8822L-233.716 -17.0808L-232.117 -20.2459L-230.467 -23.3766L-228.765 -26.4721L-227.014 -29.5315L-225.212 -32.554L-223.362 -35.5389L-221.463 -38.4854L-219.517 -41.3926L-217.525 -44.26L-215.487 -47.0867L-213.403 -49.872L-211.276 -52.6152L-209.105 -55.3157L-206.892 -57.9728L-204.636 -60.5857L-202.341 -63.154L-200.005 -65.677L-197.63 -68.1541L-195.216 -70.5846L-192.766 -72.968L-190.279 -75.3039L-187.756 -77.5915L-185.199 -79.8305L-182.608 -82.0203L-179.985 -84.1604L-177.33 -86.2503L-174.643 -88.2897L-171.927 -90.278L-169.182 -92.2149L-166.408 -94.1L-163.608 -95.9328L-160.782 -97.7131L-157.93 -99.4404L-155.054 -101.115L-152.155 -102.735L-149.234 -104.302L-146.292 -105.814L-143.329 -107.272L-140.347 -108.676L-137.347 -110.024L-134.329 -111.318L-131.296 -112.556L-128.247 -113.739L-125.184 -114.867L-122.107 -115.938L-119.018 -116.954L-115.918 -117.914L-112.808 -118.818L-109.688 -119.666L-106.56 -120.458L-103.425 -121.193L-100.283 -121.873L-97.1364 -122.496L-93.9852 -123.063L-90.8307 -123.575L-87.6738 -124.03L-84.5155 -124.429L-81.3568 -124.772L-78.1987 -125.06L-75.0421 -125.292L-71.8881 -125.469L-68.7375 -125.59L-65.5913 -125.656L-62.4505 -125.668L-59.3161 -125.624L-56.1889 -125.526L-53.0699 -125.374L-49.96 -125.167L-46.8602 -124.907L-43.7713 -124.594L-40.6944 -124.227L-37.6301 -123.808L-34.5796 -123.336L-31.5436 -122.812L-28.523 -122.236L-25.5188 -121.608L-22.5317 -120.93L-19.5626 -120.201L-16.6124 -119.422L-13.6819 -118.593L-10.7719 -117.714L-7.88319 -116.787L-5.01667 -115.812L-2.1731 -114.788L0.646744 -113.717L3.44208 -112.6L6.21215 -111.435L8.95618 -110.225L11.6735 -108.97L14.3632 -107.67L17.0247 -106.326L19.6573 -104.938L22.2603 -103.508L24.8329 -102.035L27.3746 -100.52L29.8845 -98.9638L32.3622 -97.3673L34.8069 -95.731L37.2181 -94.0555L39.595 -92.3415L41.9372 -90.5897L44.2439 -88.8007L46.5148 -86.9752L48.7491 -85.114L50.9463 -83.2177L53.106 -81.287L55.2276 -79.3228L57.3105 -77.3257L59.3543 -75.2964L61.3586 -73.2358L63.3227 -71.1445L65.2464 -69.0233L67.1292 -66.873L68.9705 -64.6944L70.7701 -62.4883L72.5276 -60.2554L74.2425 -57.9965L75.9145 -55.7124L77.5432 -53.4039L79.1284 -51.0719L80.6696 -48.7171L82.1666 -46.3403L83.6191 -43.9424L85.0268 -41.5242L86.3895 -39.0864L87.7069 -36.63L88.9788 -34.1557L90.2049 -31.6644L91.3851 -29.157L92.5191 -26.6342L93.6069 -24.0968L94.6482 -21.5458L95.6429 -18.9819L96.5909 -16.406L97.4921 -13.819L98.3463 -11.2216L99.1535 -8.61479L99.9136 -5.99928L100.627 -3.37597L101.292 -0.745676L101.911 1.89075L102.482 4.53248L103.007 7.17869L103.484 9.82853L103.913 12.4812L104.296 15.1358L104.632 17.7916L104.921 20.4477L105.163 23.1034L105.358 25.7577L105.506 28.4099L105.608 31.0593L105.664 33.7049L105.673 36.3459L105.637 38.9817L105.554 41.6113L105.426 44.2341L105.253 46.8492L105.034 49.4558L104.771 52.0532L104.462 54.6406L104.11 57.2173L103.713 59.7825L103.272 62.3355L102.788 64.8754L102.26 67.4017L101.69 69.9136L101.077 72.4102L100.421 74.8911L99.7243 77.3553L98.9857 79.8024L98.206 82.2314L97.3857 84.6419L96.525 87.033L95.6245 89.4042L94.6846 91.7548L93.7057 94.0841L92.6882 96.3916L91.6326 98.6765L90.5395 100.938L89.4092 103.176L88.2423 105.39L87.0392 107.579L85.8005 109.742L84.5267 111.88L83.2183 113.99L81.8758 116.074L80.4999 118.129L79.091 120.157L77.6497 122.156L76.1766 124.125L74.6722 126.065L73.1371 127.974L71.572 129.853L69.9774 131.701L68.354 133.517L66.7023 135.301L65.0229 137.053L63.3165 138.771L61.5837 140.457L59.8251 142.108L58.0415 143.726L56.2333 145.309L54.4013 146.857L52.5462 148.371L50.6685 149.849L48.769 151.291L46.8484 152.697L44.9072 154.066L42.9462 155.399L40.966 156.695L38.9674 157.954L36.951 159.175L34.9175 160.359L32.8676 161.505L30.802 162.613L28.7214 163.682L26.6265 164.713L24.518 165.706L22.3966 166.659L20.2629 167.574L18.1178 168.45L15.9618 169.286L13.7958 170.083L11.6204 170.841L9.43624 171.559L7.24414 172.238L5.04477 172.877L2.83884 173.477L0.627036 174.037L-1.58993 174.557L-3.81135 175.037L-6.03653 175.478L-8.26477 175.879L-10.4954 176.241L-12.7276 176.563L-14.9609 176.845L-17.1944 177.088L-19.4275 177.291L-21.6596 177.455L-23.8898 177.58L-26.1176 177.666L-28.3423 177.713L-30.5632 177.721L-32.7796 177.69L-34.9908 177.621L-37.1963 177.513L-39.3953 177.367L-41.5872 177.183L-43.7713 176.962L-45.9471 176.702L-48.1138 176.406L-50.2709 176.072L-52.4177 175.701L-54.5535 175.294L-56.6779 174.85L-58.7901 174.371L-60.8895 173.855L-62.9756 173.304L-65.0478 172.718L-67.1055 172.097L-69.1481 171.441L-71.175 170.752L-73.1858 170.028L-75.1797 169.271L-77.1563 168.48L-79.115 167.657L-81.0553 166.802L-82.9767 165.914L-84.8787 164.995L-86.7607 164.044L-88.6222 163.063L-90.4628 162.051L-92.2819 161.01L-94.0791 159.939L-95.8539 158.838L-97.6059 157.709L-99.3346 156.552L-101.04 155.368L-102.72 154.156L-104.376 152.917L-106.008 151.652L-107.613 150.361L-109.193 149.045L-110.747 147.704L-112.274 146.339L-113.774 144.95L-115.247 143.538L-116.692 142.103L-118.109 140.646L-119.498 139.167L-120.859 137.667L-122.19 136.147L-123.492 134.606L-124.764 133.046L-126.007 131.467L-127.22 129.87L-128.402 128.255L-129.554 126.623L-130.675 124.974L-131.764 123.309L-132.823 121.628L-133.85 119.932L-134.845 118.222L-135.809 116.499L-136.741 114.762L-137.64 113.012L-138.507 111.251L-139.341 109.477L-140.143 107.694L-140.912 105.899L-141.649 104.096L-142.352 102.283L-143.022 100.461L-143.66 98.6319L-144.264 96.7953L-144.834 94.9519L-145.372 93.1025L-145.876 91.2475L-146.347 89.3876L-146.784 87.5234L-147.188 85.6554L-147.559 83.7843L-147.896 81.9105L-148.2 80.0348L-148.471 78.1577L-148.708 76.2798L-148.913 74.4016L-149.084 72.5238L-149.222 70.6469L-149.327 68.7715L-149.399 66.8982L-149.438 65.0274L-149.445 63.1599L-149.419 61.2962L-149.361 59.4367L-149.27 57.5822L-149.147 55.733L-148.993 53.8898L-148.806 52.0532L-148.588 50.2236L-148.339 48.4016L-148.058 46.5878L-147.747 44.7825L-147.404 42.9865L-147.031 41.2002L-146.628 39.424L-146.194 37.6586L-145.731 35.9044L-145.238 34.1619L-144.716 32.4316L-144.165 30.714L-143.584 29.0095L-142.976 27.3187L-142.339 25.642L-141.674 23.9799L-140.982 22.3328L-140.263 20.7012L-139.516 19.0855L-138.743 17.4862L-137.944 15.9036L-137.119 14.3383L-136.268 12.7905L-135.392 11.2608L-134.492 9.74958L-133.567 8.25714L-132.617 6.78392L-131.644 5.33028L-130.648 3.89661L-129.629 2.48327L-128.587 1.09062L-127.524 -0.281L-126.438 -1.63124L-125.331 -2.95978L-124.204 -4.26628L-123.056 -5.55042L-121.888 -6.81191L-120.7 -8.05043L-119.494 -9.2657L-118.269 -10.4574L-117.025 -11.6253L-115.764 -12.7692L-114.485 -13.8886L-113.19 -14.9835L-111.878 -16.0536L-110.55 -17.0986L-109.207 -18.1182L-107.849 -19.1124L-106.477 -20.0809L-105.09 -21.0234L-103.69 -21.9398L-102.276 -22.83L-100.851 -23.6936L-99.4128 -24.5307L-97.9633 -25.3409L-96.5027 -26.1242L-95.0315 -26.8805L-93.5502 -27.6096L-92.0592 -28.3113L-90.5591 -28.9856L-89.0504 -29.6324L-87.5336 -30.2516L-86.0091 -30.843L-84.4775 -31.4067L-82.9392 -31.9425L-81.3948 -32.4504L-79.8447 -32.9304L-78.2896 -33.3824L-76.7297 -33.8063L-75.1657 -34.2022L-73.5981 -34.57L-72.0273 -34.9098L-70.4539 -35.2215L-68.8783 -35.5051L-67.301 -35.7607L-65.7226 -35.9883L-64.1434 -36.1879L-62.5641 -36.3596L-60.985 -36.5035L-59.4067 -36.6195L-57.8297 -36.7078L-56.2544 -36.7685L-54.6813 -36.8016L-53.1109 -36.8072L-51.5437 -36.7854L-49.9801 -36.7364L-48.4206 -36.6603L-46.8657 -36.5571L-45.3158 -36.4271L-43.7713 -36.2704L-42.2329 -36.087L-40.7007 -35.8773L-39.1755 -35.6413L-37.6575 -35.3792L-36.1472 -35.0913L-34.6451 -34.7776L-33.1515 -34.4384L-31.667 -34.0739L-30.1919 -33.6843L-28.7266 -33.2698L-27.2716 -32.8306L-25.8273 -32.3671L-24.394 -31.8793L-22.9722 -31.3675L-21.5623 -30.8321L-20.1646 -30.2732L-18.7796 -29.6911L-17.4076 -29.0861L-16.0489 -28.4585L-14.7041 -27.8085L-13.3733 -27.1364L-12.057 -26.4426L-10.7555 -25.7272L-9.46921 -24.9907L-8.19839 -24.2333L-6.9434 -23.4553L-5.70457 -22.6571L-4.48222 -21.8389L-3.27665 -21.0012L-2.08818 -20.1442L-0.917098 -19.2683L0.236292 -18.3737L1.37171 -17.461L2.48887 -16.5304L3.5875 -15.5822L4.66733 -14.6169L5.72811 -13.6348L6.76958 -12.6362L7.79149 -11.6216L8.79361 -10.5913L9.7757 -9.54563L10.7375 -8.48505L11.6789 -7.40992L12.5996 -6.32062L13.4994 -5.21755L14.3781 -4.10109L15.2356 -2.97164L16.0716 -1.8296L16.8859 -0.67537L17.6785 0.490651L18.4491 1.66806L19.1976 2.85644L19.9239 4.0554L20.6277 5.26452L21.3091 6.48339L21.9678 7.7116L22.6037 8.94873L23.2168 10.1944L23.8069 11.4481L24.3739 12.7095L24.9178 13.9782L25.4384 15.2537L25.9358 16.5356L26.4098 17.8236L26.8604 19.1171L27.2875 20.4158L27.6911 21.7192L28.0711 23.027L28.4276 24.3386L28.7605 25.6538L29.0698 26.972L29.3555 28.2928L29.6176 29.6159L29.8561 30.9409L30.071 32.2672L30.2624 33.5945L30.4303 34.9224L30.5747 36.2505L30.6956 37.5783L30.7932 38.9055L30.8675 40.2316L30.9185 41.5562L30.9463 42.879L30.951 44.1996L30.9327 45.5174L30.8915 46.8323L30.8275 48.1436L30.7408 49.4512L30.6314 50.7545L30.4996 52.0532L30.3455 53.3469L30.1691 54.6353L29.9707 55.9179L29.7503 57.1943L29.5081 58.4643L29.2444 59.7275L28.9591 60.9834L28.6526 62.2317L28.325 63.4721L27.9765 64.7043L27.6072 65.9278L27.2173 67.1423L26.8072 68.3475L26.3768 69.5431L25.9266 70.7287L25.4566 71.904L24.9672 73.0687L24.4584 74.2224L23.9306 75.3649L23.3841 76.4958L22.8189 77.6148L22.2355 78.7217L21.6339 79.8161L21.0146 80.8977L20.3777 81.9664L19.7235 83.0217L19.0522 84.0634L18.3643 85.0913L17.6598 86.105L16.9392 87.1044L16.2026 88.0892L15.4504 89.0591L14.6829 90.0138L13.9003 90.9532L13.103 91.8771L12.2913 92.7851L11.4655 93.6771L10.6258 94.5529L9.77256 95.4122L8.90617 96.2549L8.02689 97.0807L7.13505 97.8895L6.23098 98.6811L5.31499 99.4553L4.38742 100.212L3.44859 100.951L2.49884 101.672L1.53851 102.375L0.567916 103.06L-0.412586 103.726L-1.40266 104.374L-2.40197 105.004L-3.41017 105.614L-4.42692 106.206L-5.45186 106.779L-6.48466 107.333L-7.52496 107.868L-8.57241 108.383L-9.62667 108.879L-10.6874 109.356L-11.7542 109.814L-12.8268 110.251L-13.9048 110.67L-14.9878 111.068L-16.0755 111.447L-17.1676 111.806L-18.2636 112.146L-19.3633 112.465L-20.4663 112.765L-21.5722 113.045L-22.6806 113.305L-23.7913 113.545L-24.9039 113.766L-26.0181 113.966L-27.1334 114.147L-28.2495 114.308L-29.3661 114.449L-30.4829 114.571L-31.5994 114.672L-32.7155 114.754L-33.8306 114.817L-34.9445 114.86L-36.0568 114.883L-37.1673 114.887L-38.2755 114.872L-39.3811 114.837L-40.4838 114.783L-41.5833 114.71L-42.6793 114.618L-43.7713 114.507L-44.8592 114.378L-45.9426 114.229L-47.0211 114.063L-48.0945 113.877L-49.1624 113.674L-50.2246 113.452L-51.2807 113.212L-52.3304 112.954L-53.3735 112.679L-54.4096 112.386L-55.4384 112.075L-56.4597 111.747L-57.4732 111.402L-58.4785 111.041L-59.4755 110.662L-60.4638 110.267L-61.4432 109.855L-62.4133 109.427L-63.374 108.984L-64.325 108.524L-65.266 108.049L-66.1968 107.558L-67.1171 107.052L-68.0266 106.531L-68.9252 105.996L-69.8126 105.446L-70.6886 104.881L-71.553 104.303L-72.4054 103.71L-73.2458 103.104L-74.0739 102.485L-74.8894 101.853L-75.6923 101.207L-76.4823 100.549L-77.2591 99.8787L-78.0227 99.1961L-78.7727 98.5016L-79.5092 97.7955L-80.2318 97.0781L-80.9404 96.3495L-81.6348 95.6102L-82.315 94.8602L-82.9806 94.1L-83.6316 93.3297L-84.2679 92.5497L-84.8892 91.7603L-85.4955 90.9616L-86.0867 90.1541L-86.6625 89.3379L-87.223 88.5134L-87.7679 87.6809L-88.2971 86.8406L-88.8107 85.9928L-89.3084 85.1378L-89.7902 84.2759L-90.2559 83.4074L-90.7056 82.5327L-91.1391 81.6519L-91.5564 80.7653L-91.9573 79.8734L-92.3419 78.9763L-92.7101 78.0744L-93.0617 77.1679L-93.3969 76.2572L-93.7155 75.3425L-94.0175 74.4242L-94.3029 73.5026L-94.5716 72.5778L-94.8237 71.6504L-95.0591 70.7204L-95.2778 69.7883L-95.4798 68.8543L-95.6652 67.9187L-95.8338 66.9819L-95.9858 66.044L-96.1211 65.1055L-96.2398 64.1665L-96.3419 63.2274L-96.4275 62.2885L-96.4965 61.3501L-96.549 60.4124L-96.585 59.4757L-96.6047 58.5403L-96.608 57.6066L-96.5951 56.6747L-96.566 55.745L-96.5207 54.8177L-96.4594 53.8931L-96.3821 52.9715L-96.2889 52.0532L-96.1798 51.1384L-96.0551 50.2274L-95.9148 49.3205L-95.759 48.4179L-95.5878 47.5198L-95.4012 46.6267L-95.1996 45.7386L-94.9828 44.8559L-94.7512 43.9788L-94.5047 43.1075L-94.2436 42.2424L-93.9679 41.3836L-93.6779 40.5314L-93.3736 39.686L-93.0552 38.8476L-92.7229 38.0166L-92.3768 37.193L-92.0171 36.3772L-91.6439 35.5694L-91.2574 34.7697L-90.8578 33.9784L-90.4452 33.1957L-90.0199 32.4219L-89.5819 31.657L-89.1315 30.9014L-88.669 30.1552L-88.1943 29.4186L-87.7079 28.6917L-87.2097 27.9749L-86.7002 27.2682L-86.1793 26.5719L-85.6475 25.8861L-85.1047 25.211L-84.5514 24.5467L-83.9876 23.8935L-83.4136 23.2514L-82.8297 22.6206L-82.2359 22.0014L-81.6326 21.3938L-81.02 20.7979L-80.3982 20.2139L-79.7676 19.642L-79.1283 19.0823L-78.4806 18.5348L-77.8247 17.9998L-77.1609 17.4773L-76.4893 16.9675L-75.8103 16.4704L-75.1239 15.9862L-74.4306 15.5149L-73.7305 15.0567L-73.0239 14.6116L-72.311 14.1798L-71.5921 13.7613L-70.8673 13.3561L-70.137 12.9645L-69.4014 12.5864L-68.6608 12.2218L-67.9153 11.871L-67.1652 11.5338L-66.4109 11.2104L-65.6525 10.9008L-64.8902 10.6051L-64.1244 10.3233L-63.3553 10.0553L-62.5831 9.80138L-61.808 9.5614L-61.0305 9.33541L-60.2505 9.12344L-59.4685 8.9255L-58.6847 8.74159L-57.8993 8.57171L-57.1126 8.41586L-56.3248 8.27405L-55.5362 8.14625L-54.747 8.03245L-53.9574 7.93263L-53.1677 7.84678L-52.3782 7.77486L-51.589 7.71684L-50.8005 7.67269L-50.0129 7.64236L-49.2263 7.62582L-48.4411 7.62301L-47.6575 7.63389L-46.8757 7.65839L-46.096 7.69646L-45.3185 7.74803L-44.5436 7.81304L-43.7713 7.89142L-43.0021 7.98308L-42.236 8.08795L-41.4734 8.20594L-40.7144 8.33698L-39.9593 8.48096L-39.2082 8.6378L-38.4614 8.8074L-37.7192 8.98965L-36.9816 9.18445L-36.249 9.3917L-35.5215 9.61128L-34.7993 9.84307L-34.0827 10.087L-33.3718 10.3428L-32.6668 10.6106L-31.968 10.89L-31.2755 11.181L-30.5895 11.4835L-29.9101 11.7974L-29.2377 12.1224L-28.5723 12.4584L-27.9142 12.8053L-27.2634 13.163L-26.6203 13.5313L-25.9849 13.91L-25.3574 14.299L-24.738 14.6981L-24.1268 15.1071L-23.524 15.526L-22.9298 15.9545L-22.3442 16.3925L-21.7675 16.8397L-21.1998 17.2961L-20.6412 17.7614L-20.0919 18.2355L-19.552 18.7181L-19.0216 19.2092L-18.5009 19.7085L-17.9899 20.2158L-17.4889 20.731L-16.9978 21.2538L-16.5169 21.7841L-16.0462 22.3216L-15.5859 22.8663L-15.136 23.4178L-14.6966 23.9761L-14.2679 24.5408L-13.8499 25.1118L-13.4427 25.6889L-13.0464 26.2719L-12.6611 26.8606L-12.2869 27.4548L-11.9237 28.0543L-11.5718 28.6589L-11.2311 29.2683L-10.9018 29.8824L-10.5838 30.501L-10.2773 31.1238L-9.98224 31.7507L-9.69873 32.3814L-9.42678 33.0157L-9.16646 33.6535L-8.91778 34.2944L-8.68078 34.9384L-8.4555 35.5851L-8.24194 36.2345L-8.04014 36.8862L-7.85011 37.5401L-7.67187 38.1959L-7.50542 38.8535L-7.35077 39.5126L-7.20792 40.173L-7.07687 40.8346L-6.95762 41.497L-6.85015 42.1602L-6.75446 42.8239L-6.67052 43.4878L-6.59833 44.1518L-6.53785 44.8157L-6.48906 45.4793L-6.45194 46.1424L-6.42644 46.8047L-6.41253 47.4661L-6.41017 48.1264L-6.41931 48.7853L-6.43991 49.4427L-6.47193 50.0984L-6.51529 50.7522L-6.56996 51.4038L-6.63586 52.0532L-6.71294 52.7001L-6.80113 53.3442L-6.90035 53.9855L-7.01053 54.6238L-7.13161 55.2588L-7.2635 55.8903L-7.40611 56.5183L-7.55936 57.1425L-7.72317 57.7627L-7.89745 58.3787L-8.08209 58.9905L-8.277 59.5978L-8.48209 60.2004L-8.69725 60.7982L-8.92238 61.391L-9.15736 61.9786L-9.40209 62.5609L-9.65646 63.1378L-9.92035 63.709L-10.1936 64.2745L-10.4762 64.834L-10.7679 65.3874L-11.0687 65.9346L-11.3784 66.4755L-11.6968 67.0098L-12.0239 67.5374L-12.3596 68.0583L-12.7035 68.5722L-13.0558 69.0791L-13.4161 69.5788L-13.7844 70.0712L-14.1605 70.5561L-14.5442 71.0335L-14.9355 71.5032L-15.3341 71.9651L-15.74 72.4192L-16.1529 72.8652L-16.5728 73.303L-16.9994 73.7327L-17.4326 74.154L-17.8722 74.567L-18.3181 74.9714L-18.7702 75.3672L-19.2282 75.7543L-19.692 76.1326L-20.1614 76.502L-20.6363 76.8626L-21.1164 77.214L-21.6017 77.5564L-22.092 77.8897L-22.587 78.2137L-23.0867 78.5284L-23.5908 78.8337L-24.0991 79.1297L-24.6116 79.4161L-25.128 79.6931L-25.6482 79.9605L-26.1719 80.2182L-26.699 80.4663L-27.2294 80.7047L-27.7628 80.9334L-28.2991 81.1523L-28.8381 81.3614L-29.3796 81.5607L-29.9234 81.7502L-30.4695 81.9297L-31.0175 82.0994L-31.5673 82.2592L-32.1188 82.4091L-32.6718 82.5491L-33.226 82.6791L-33.7813 82.7993L-34.3376 82.9095L-34.8947 83.0097L-35.4524 83.1001L-36.0104 83.1806L-36.5687 83.2511L-37.1271 83.3119L-37.6854 83.3627L-38.2434 83.4037L-38.801 83.435L-39.3579 83.4564L-39.9141 83.4681L-40.4693 83.4701L-41.0234 83.4624L-41.5762 83.4451L-42.1276 83.4181L-42.6773 83.3817L-43.2253 83.3357L-43.7713 83.2803L-44.3153 83.2155L-44.857 83.1413L-45.3962 83.0579L-45.9329 82.9652L-46.4669 82.8634L-46.998 82.7525L-47.526 82.6326L-48.0509 82.5037L-48.5724 82.366L-49.0905 82.2194L-49.6049 82.0642L-50.1155 81.9003L-50.6223 81.7278L-51.1249 81.5469L-51.6234 81.3576L-52.1176 81.16L-52.6073 80.9542L-53.0923 80.7403L-53.5727 80.5184L-54.0482 80.2886L-54.5187 80.051L-54.9841 79.8056L-55.4442 79.5527L-55.899 79.2923L-56.3483 79.0245L-56.792 78.7495L-57.23 78.4673L-57.6622 78.178L-58.0884 77.8818L-58.5086 77.5788L-58.9226 77.2691L-59.3304 76.9529L-59.7318 76.6302L-60.1268 76.3012L-60.5152 75.9659L-60.897 75.6246L-61.272 75.2774L-61.6403 74.9244L-62.0016 74.5656L-62.3559 74.2014L-62.7031 73.8317L-63.0431 73.4567L-63.376 73.0766L-63.7015 72.6915L-64.0196 72.3015L-64.3303 71.9067L-64.6334 71.5074L-64.929 71.1036L-65.2169 70.6956L-65.4972 70.2833L-65.7696 69.867L-66.0342 69.4469L-66.291 69.023L-66.5399 68.5955L-66.7808 68.1646L-67.0136 67.7303L-67.2385 67.2929L-67.4552 66.8525L-67.6639 66.4093L-67.8643 65.9633L-68.0566 65.5147L-68.2407 65.0638L-68.4165 64.6106L-68.5841 64.1552L-68.7434 63.6979L-68.8944 63.2387L-69.0371 62.7779L-69.1715 62.3155L-69.2975 61.8518L-69.4152 61.3868L-69.5246 60.9207L-69.6256 60.4538L-69.7183 59.986L-69.8026 59.5175L-69.8786 59.0486L-69.9462 58.5793L-70.0056 58.1099L-70.0566 57.6403L-70.0994 57.1709L-70.1339 56.7016L-70.1602 56.2328L-70.1782 55.7644L-70.188 55.2968L-70.1897 54.8299L-70.1832 54.3639L-70.1687 53.8991L-70.146 53.4354L-70.1154 52.9732L-70.0767 52.5124L-70.0301 52.0532L-69.9756 51.5958L-69.9132 51.1403L-69.8431 50.6868L-69.7652 50.2355L-69.6796 49.7865L-69.5863 49.3399L-69.4855 48.8959L-69.3771 48.4545L-69.2613 48.016L-69.138 47.5804L-69.0075 47.1478L-68.8696 46.7184L-68.7246 46.2923L-68.5725 45.8696L-68.4133 45.4504L-68.2471 45.0349L-68.0741 44.6231L-67.8942 44.2152L-67.7076 43.8113L-67.5144 43.4114L-67.3146 43.0158L-67.1083 42.6245L-66.8956 42.2375L-66.6766 41.8551L-66.4514 41.4773L-66.2202 41.1042L-65.9828 40.7359L-65.7396 40.3725L-65.4905 40.0141L-65.2358 39.6607L-64.9753 39.3126L-64.7094 38.9696L-64.438 38.6321L-64.1614 38.3L-63.8795 37.9733L-63.5925 37.6523L-63.3005 37.3369L-63.0036 37.0273L-62.702 36.7235L-62.3957 36.4255L-62.0848 36.1336L-61.7695 35.8476L-61.4498 35.5677L-61.126 35.294L-60.798 35.0265L-60.4661 34.7653L-60.1303 34.5103L-59.7908 34.2618L-59.4476 34.0197L-59.101 33.784L-58.7509 33.5549L-58.3976 33.3324L-58.0412 33.1165L-57.6817 32.9072L-57.3193 32.7047L-56.9542 32.5088L-56.5864 32.3198L-56.2161 32.1375L-55.8433 31.9621L-55.4683 31.7935L-55.0911 31.6318L-54.7119 31.477L-54.3308 31.3291L-53.9479 31.1882L-53.5633 31.0543L-53.1772 30.9273L-52.7897 30.8073L-52.4009 30.6943L-52.0109 30.5883L-51.6199 30.4893L-51.228 30.3974L-50.8353 30.3125L-50.442 30.2345L-50.0481 30.1636L-49.6538 30.0997L-49.2592 30.0428L-48.8644 29.9929L-48.4695 29.95L-48.0748 29.914L-47.6802 29.885L-47.2859 29.8629L-46.8921 29.8478L-46.4988 29.8395L-46.1062 29.8381L-45.7144 29.8435L-45.3235 29.8558L-44.9337 29.8748L-44.5449 29.9006L-44.1575 29.9331L-43.7713 29.9723L-43.3867 30.0181L-43.0037 30.0706L-42.6224 30.1296L-42.2429 30.1951L-41.8653 30.2671L-41.4898 30.3455L-41.1164 30.4303L-40.7453 30.5214L-40.3765 30.6188L-40.0102 30.7224L-39.6464 30.8322L-39.2853 30.9481L-38.927 31.0701L-38.5716 31.198L-38.2191 31.3319L-37.8697 31.4716L-37.5234 31.6171L-37.1804 31.7684L-36.8407 31.9253L-36.5045 32.0878L-36.1718 32.2558L-35.8428 32.4293L-35.5174 32.6081L-35.1958 32.7922L-34.8781 32.9816L-34.5644 33.1761L-34.2547 33.3756L-33.9491 33.5802L-33.6477 33.7896L-33.3506 34.0039L-33.0578 34.2228L-32.7694 34.4465L-32.4856 34.6746L-32.2063 34.9073L-31.9316 35.1443L-31.6617 35.3857L-31.3965 35.6312L-31.1361 35.8808L-30.8806 36.1345L-30.6301 36.3921L-30.3846 36.6535L-30.1441 36.9186L-29.9088 37.1874L-29.6786 37.4597L-29.4537 37.7355L-29.234 38.0146L-29.0196 38.297L-28.8106 38.5825L-28.607 38.8711L-28.4089 39.1626L-28.2162 39.4569L-28.0291 39.754L-27.8475 40.0537L-27.6716 40.356L-27.5012 40.6607L-27.3366 40.9678L-27.1776 41.2771L-27.0243 41.5885L-26.8768 41.9019L-26.735 42.2173L-26.5991 42.5344L-26.4689 42.8533L-26.3446 43.1738L-26.2261 43.4958L-26.1134 43.8192L-26.0066 44.1438L-25.9057 44.4697L-25.8107 44.7966L-25.7216 45.1246L-25.6384 45.4533L-25.5611 45.7829L-25.4896 46.1131L-25.4241 46.4439L-25.3645 46.7751L-25.3107 47.1067L-25.2629 47.4385L-25.2209 47.7705L-25.1848 48.1025L-25.1546 48.4345L-25.1302 48.7663L-25.1116 49.0978L-25.0989 49.429L-25.0919 49.7597L-25.0908 50.0898L-25.0953 50.4193L-25.1056 50.748L-25.1216 51.0758L-25.1433 51.4027L-25.1707 51.7285L-25.2036 52.0532L-25.2421 52.3766L-25.2862 52.6987L-25.3358 53.0194L-25.3909 53.3385L-25.4515 53.656L-25.5174 53.9718L-25.5887 54.2857L-25.6654 54.5978L-25.7473 54.9079L-25.8344 55.216L-25.9267 55.5218L-26.0242 55.8255L-26.1267 56.1268L-26.2343 56.4257L-26.3469 56.7221L-26.4644 57.0159L-26.5867 57.3071L-26.7139 57.5955L-26.8458 57.8811L-26.9825 58.1638L-27.1238 58.4436L-27.2696 58.7203L-27.42 58.9939L-27.5749 59.2643L-27.7341 59.5315L-27.8976 59.7953L-28.0655 60.0558L-28.2374 60.3127L-28.4136 60.5662L-28.5937 60.816L-28.7779 61.0622L-28.9659 61.3047L-29.1578 61.5434L-29.3534 61.7782L-29.5527 62.0092L-29.7557 62.2362L-29.9621 62.4592L-30.1721 62.6781L-30.3854 62.8929L-30.602 63.1036L-30.8218 63.3101L-31.0447 63.5123L-31.2708 63.7102L-31.4998 63.9037L-31.7317 64.0929L-31.9664 64.2776L-32.2038 64.4579L-32.4439 64.6336L-32.6865 64.8048L-32.9317 64.9714L-33.1792 65.1334L-33.429 65.2908L-33.6811 65.4435L-33.9352 65.5914L-34.1915 65.7347L-34.4497 65.8731L-34.7097 66.0068L-34.9716 66.1357L-35.2352 66.2598L-35.5004 66.379L-35.7671 66.4933L-36.0352 66.6028L-36.3047 66.7073L-36.5755 66.807L-36.8474 66.9017L-37.1204 66.9915L-37.3944 67.0763L-37.6693 67.1562L-37.9451 67.2312L-38.2215 67.3011L-38.4987 67.3662L-38.7763 67.4262L-39.0545 67.4813L-39.333 67.5315L-39.6119 67.5766L-39.8909 67.6169L-40.17 67.6522L-40.4492 67.6825L-40.7284 67.708L-41.0074 67.7285L-41.2862 67.7441L-41.5646 67.7548L-41.8427 67.7606L-42.1203 67.7616L-42.3974 67.7578L-42.6738 67.7491L-42.9495 67.7357L-43.2243 67.7174L-43.4983 67.6945L-43.7713 67.6667L-44.0433 67.6343L-44.3142 67.5973L-44.5838 67.5555L-44.8521 67.5092L-45.1191 67.4583L-45.3847 67.4029L-45.6487 67.3429L-45.9111 67.2785L-46.1719 67.2096L-46.4309 67.1363L-46.6881 67.0587L-46.9434 66.9767L-47.1968 66.8905L-47.4481 66.8L-47.6974 66.7054L-47.9445 66.6066L-48.1893 66.5037L-48.4318 66.3967L-48.672 66.2858L-48.9098 66.1709L-49.145 66.0521L-49.3777 65.9294L-49.6078 65.803L-49.8352 65.6728L-50.0598 65.5389L-50.2817 65.4013L-50.5007 65.2602L-50.7168 65.1156L-50.9299 64.9675L-51.14 64.816L-51.347 64.6612L-51.5509 64.503L-51.7516 64.3417L-51.9491 64.1772L-52.1433 64.0096L-52.3342 63.8389L-52.5217 63.6653L-52.7058 63.4888L-52.8865 63.3094L-53.0636 63.1273L-53.2372 62.9424L-53.4072 62.755L-53.5737 62.5649L-53.7364 62.3723L-53.8955 62.1773L-54.0508 61.98L-54.2024 61.7803L-54.3502 61.5784L-54.4941 61.3744L-54.6342 61.1683L-54.7705 60.9601L-54.9028 60.75L-55.0312 60.5381L-55.1556 60.3243L-55.2761 60.1089L-55.3925 59.8918L-55.5049 59.6731L-55.6133 59.4529L-55.7176 59.2312" stroke="black"/>
 </g>
</svg>
