<?xml version="1.0" encoding="utf-8"?>
<svg xmlns="http://www.w3.org/2000/svg" fill="none" version="1.1" viewBox="-118.066 -379.425 236.131 758.85" x="-118.066pt" y="-379.425pt" width="236.131pt" height="758.85pt" stroke-width="0.566929" stroke-miterlimit="10.000000">
 <path d="M22.105 -351.496L117.066 -351.496L117.066 -378.425L22.105 -378.425Z" fill="black"/>
 <path d="M70.0105 -357.165L70.5774 -357.165"/>
 <g transform="matrix(1.000000,-0.000000,-0.000000,1.000000,70.293944,-357.165354)">
  <path d="M-40.4207 -0M-30.8333 -6.75664C-31.2672 -5.70286 -32.0317 -3.8019 -32.197 -3.07872L-32.2177 -3.07872C-32.4036 -3.82257 -33.2508 -5.86816 -33.6847 -6.96327L-36.3295 -13.4926C-36.6808 -14.3398 -37.342 -14.3398 -37.7139 -14.3398L-39.4289 -14.3398C-40.1727 -14.3398 -40.4207 -14.1125 -40.4207 -13.348L-40.4207 -0.991801C-40.4207 -0.24795 -40.1934 -0 -39.4289 -0L-38.871 -0C-38.0858 -0 -37.8792 -0.268613 -37.8792 -0.991801L-37.8792 -11.6743L-37.8585 -11.6743C-37.6313 -10.7445 -36.7014 -8.45097 -36.2055 -7.23188L-33.8087 -1.34306C-33.4368 -0.454575 -32.9409 -0.454575 -32.2383 -0.454575C-31.5358 -0.454575 -31.0399 -0.454575 -30.668 -1.34306L-28.0232 -7.8311C-27.8166 -8.327 -26.7008 -11.1371 -26.5561 -11.6743L-26.5355 -11.6743L-26.5355 -0.991801C-26.5355 -0.3306 -26.3908 -0 -25.5437 -0L-24.9858 -0C-24.2006 -0 -23.994 -0.268613 -23.994 -0.991801L-23.994 -13.348C-23.994 -14.0092 -24.1386 -14.3398 -24.9858 -14.3398L-26.7214 -14.3398C-27.238 -14.3398 -27.7546 -14.2985 -28.1058 -13.4513ZM-28.1058 -13.4513" fill="#fff"/>
 </g>
 <g transform="matrix(1.000000,-0.000000,-0.000000,1.000000,70.293944,-357.165354)">
  <path d="M-20.2172 -0M-10.6298 -6.75664C-11.0637 -5.70286 -11.8283 -3.8019 -11.9936 -3.07872L-12.0142 -3.07872C-12.2002 -3.82257 -13.0473 -5.86816 -13.4813 -6.96327L-16.1261 -13.4926C-16.4773 -14.3398 -17.1385 -14.3398 -17.5104 -14.3398L-19.2254 -14.3398C-19.9693 -14.3398 -20.2172 -14.1125 -20.2172 -13.348L-20.2172 -0.991801C-20.2172 -0.24795 -19.9899 -0 -19.2254 -0L-18.6675 -0C-17.8824 -0 -17.6757 -0.268613 -17.6757 -0.991801L-17.6757 -11.6743L-17.6551 -11.6743C-17.4278 -10.7445 -16.498 -8.45097 -16.0021 -7.23188L-13.6052 -1.34306C-13.2333 -0.454575 -12.7374 -0.454575 -12.0349 -0.454575C-11.3324 -0.454575 -10.8364 -0.454575 -10.4645 -1.34306L-7.81972 -7.8311C-7.6131 -8.327 -6.49732 -11.1371 -6.35268 -11.6743L-6.33202 -11.6743L-6.33202 -0.991801C-6.33202 -0.3306 -6.18738 -0 -5.34022 -0L-4.78233 -0C-3.99716 -0 -3.79053 -0.268613 -3.79053 -0.991801L-3.79053 -13.348C-3.79053 -14.0092 -3.93517 -14.3398 -4.78233 -14.3398L-6.51798 -14.3398C-7.03455 -14.3398 -7.55111 -14.2985 -7.90237 -13.4513ZM-7.90237 -13.4513" fill="#fff"/>
 </g>
 <g transform="matrix(1.000000,-0.000000,-0.000000,1.000000,70.293944,-357.165354)">
  <path d="M-1.02624 -0M7.89997 -13.4513C7.59003 -14.3398 6.99082 -14.3398 6.57757 -14.3398L4.75927 -14.3398C4.34602 -14.3398 3.7468 -14.3398 3.43686 -13.4513L-0.922928 -0.971138C-1.02624 -0.702526 -1.02624 -0.661201 -1.02624 -0.557888C-1.02624 -0 -0.509677 -0 -0.220402 -0L0.523449 -0C0.895374 -0 1.53591 -0 1.82519 -0.826501L2.63103 -3.12004L8.35454 -3.12004L9.05707 -1.13644C9.30502 -0.41325 9.44966 -0 10.4415 -0L11.5572 -0C11.8465 -0 12.3631 -0 12.3631 -0.557888C12.3631 -0.661201 12.3631 -0.702526 12.2598 -0.971138ZM12.2598 -0.971138M4.7386 -9.27747C5.04854 -10.1866 5.31715 -10.9718 5.48245 -11.7156L5.50312 -11.7156C5.60643 -11.2197 5.60643 -11.1784 5.77173 -10.7032L7.73467 -4.89702L3.2509 -4.89702ZM3.2509 -4.89702" fill="#fff"/>
 </g>
 <g transform="matrix(1.000000,-0.000000,-0.000000,1.000000,70.293944,-357.165354)">
  <path d="M13.8876 -0M25.8512 -2.95474C25.8512 -3.12004 25.7065 -3.20269 25.6239 -3.20269C25.128 -3.20269 24.5288 -1.85963 21.6154 -1.85963C17.9788 -1.85963 16.9456 -4.09118 16.9456 -7.19056C16.9456 -10.2693 18.0614 -12.5008 21.4501 -12.5008C23.289 -12.5008 24.2602 -11.7776 24.8181 -11.3231C24.942 -11.2197 25.004 -11.1371 25.1487 -11.1371C25.2313 -11.1371 25.3346 -11.2404 25.3553 -11.3231L25.7685 -13.6166C25.7892 -13.6993 25.7685 -13.7819 25.6032 -13.8439C24.3841 -14.2985 23.1237 -14.5877 21.512 -14.5877C16.4704 -14.5877 13.8876 -12.1289 13.8876 -7.21122C13.8876 -2.1489 16.5117 0.206625 21.5327 0.206625C23.289 0.206625 24.3841 -0.041325 25.8925 -0.971138C26.0578 -1.07445 26.0165 -1.21909 26.0165 -1.21909ZM26.0165 -1.21909" fill="#fff"/>
 </g>
 <g transform="matrix(1.000000,-0.000000,-0.000000,1.000000,70.293944,-357.165354)">
  <path d="M28.0162 -0M36.9424 -13.4513C36.6325 -14.3398 36.0333 -14.3398 35.62 -14.3398L33.8017 -14.3398C33.3885 -14.3398 32.7893 -14.3398 32.4793 -13.4513L28.1195 -0.971138C28.0162 -0.702526 28.0162 -0.661201 28.0162 -0.557888C28.0162 -0 28.5328 -0 28.8221 -0L29.5659 -0C29.9378 -0 30.5784 -0 30.8676 -0.826501L31.6735 -3.12004L37.397 -3.12004L38.0995 -1.13644C38.3475 -0.41325 38.4921 -0 39.4839 -0L40.5997 -0C40.889 -0 41.4055 -0 41.4055 -0.557888C41.4055 -0.661201 41.4055 -0.702526 41.3022 -0.971138ZM41.3022 -0.971138M33.7811 -9.27747C34.091 -10.1866 34.3596 -10.9718 34.5249 -11.7156L34.5456 -11.7156C34.6489 -11.2197 34.6489 -11.1784 34.8142 -10.7032L36.7771 -4.89702L32.2934 -4.89702ZM32.2934 -4.89702" fill="#fff"/>
 </g>
 <path d="M70.0105 -331.654L70.5774 -331.654"/>
 <g transform="matrix(1.000000,-0.000000,-0.000000,1.000000,70.293944,-331.653543)">
  <path d="M-20.7663 -0M-19.6329 -8.22037C-19.016 -8.01952 -18.5139 -8.00518 -18.3561 -8.00518C-16.735 -8.00518 -15.7021 -9.19591 -15.7021 -9.39676C-15.7021 -9.45414 -15.7308 -9.52587 -15.8168 -9.52587C-15.8455 -9.52587 -15.8742 -9.52587 -16.0033 -9.46849C-16.8067 -9.12418 -17.4954 -9.08114 -17.8684 -9.08114C-18.8152 -9.08114 -19.4895 -9.36807 -19.7621 -9.48284C-19.8625 -9.52587 -19.8912 -9.52587 -19.9055 -9.52587C-20.0203 -9.52587 -20.0203 -9.4398 -20.0203 -9.21026L-20.0203 -4.94944C-20.0203 -4.69121 -20.0203 -4.60513 -19.8481 -4.60513C-19.7764 -4.60513 -19.7621 -4.61948 -19.6186 -4.79163C-19.2169 -5.37982 -18.5426 -5.72413 -17.8253 -5.72413C-17.065 -5.72413 -16.692 -5.02117 -16.5772 -4.77728C-16.3333 -4.21778 -16.319 -3.51482 -16.319 -2.96966C-16.319 -2.42451 -16.319 -1.60677 -16.7207 -0.961195C-17.0363 -0.444732 -17.5958 -0.0860772 -18.227 -0.0860772C-19.1739 -0.0860772 -20.1064 -0.731656 -20.3646 -1.77893C-20.2929 -1.75024 -20.2068 -1.73589 -20.1351 -1.73589C-19.8912 -1.73589 -19.5038 -1.87935 -19.5038 -2.36712C-19.5038 -2.76882 -19.7764 -2.99835 -20.1351 -2.99835C-20.3933 -2.99835 -20.7663 -2.86924 -20.7663 -2.30974C-20.7663 -1.09031 -19.7907 0.30127 -18.1983 0.30127C-16.5772 0.30127 -15.1569 -1.06162 -15.1569 -2.88359C-15.1569 -4.59078 -16.3046 -6.01106 -17.811 -6.01106C-18.6287 -6.01106 -19.2599 -5.6524 -19.6329 -5.25071ZM-19.6329 -5.25071" fill="black"/>
 </g>
 <g transform="matrix(1.000000,-0.000000,-0.000000,1.000000,70.293944,-331.653543)">
  <path d="M-8.9886 -0M-3.59443 -10.2432C-3.5227 -10.4297 -3.5227 -10.4584 -3.5227 -10.4871C-3.5227 -10.6736 -3.66617 -10.7596 -3.78094 -10.7596C-3.96744 -10.7596 -4.01047 -10.6305 -4.08221 -10.444L-8.91687 3.07009C-8.9886 3.25659 -8.9886 3.28528 -8.9886 3.31397C-8.9886 3.47178 -8.87383 3.58655 -8.71603 3.58655C-8.52953 3.58655 -8.48649 3.44309 -8.4291 3.28528ZM-8.4291 3.28528" fill="black"/>
 </g>
 <g transform="matrix(1.000000,-0.000000,-0.000000,1.000000,70.293944,-331.653543)">
  <path d="M2.53084 -0M7.19336 -4.17474C7.19336 -0.789041 5.68701 -0.0860772 4.82624 -0.0860772C4.48193 -0.0860772 3.72158 -0.129116 3.36292 -0.631233L3.449 -0.631233C3.54942 -0.60254 4.06589 -0.688617 4.06589 -1.21943C4.06589 -1.53504 3.85069 -1.80762 3.47769 -1.80762C3.10469 -1.80762 2.87515 -1.56374 2.87515 -1.19073C2.87515 -0.30127 3.59246 0.30127 4.84058 0.30127C6.63386 0.30127 8.36975 -1.60677 8.36975 -4.7199C8.36975 -8.57903 6.76297 -9.54022 5.50051 -9.54022C3.92243 -9.54022 2.53084 -8.22037 2.53084 -6.32667C2.53084 -4.43297 3.86504 -3.14182 5.29966 -3.14182C6.36128 -3.14182 6.90643 -3.91651 7.19336 -4.64817ZM7.19336 -4.64817M5.35705 -3.42874C4.45324 -3.42874 4.06589 -4.1604 3.93677 -4.43297C3.70723 -4.97813 3.70723 -5.66675 3.70723 -6.31233C3.70723 -7.11571 3.70723 -7.80433 4.08023 -8.39252C4.33847 -8.77987 4.72581 -9.19591 5.50051 -9.19591C6.31824 -9.19591 6.73428 -8.4786 6.87774 -8.14864C7.16467 -7.44568 7.16467 -6.22625 7.16467 -6.01106C7.16467 -4.80598 6.61951 -3.42874 5.35705 -3.42874ZM5.35705 -3.42874" fill="black"/>
 </g>
 <g transform="matrix(1.000000,-0.000000,-0.000000,1.000000,70.293944,-331.653543)">
  <path d="M9.55442 -0M15.3933 -4.59078C15.3933 -5.78152 15.3216 -6.94356 14.8051 -8.03387C14.2169 -9.2246 13.184 -9.54022 12.481 -9.54022C11.649 -9.54022 10.6304 -9.12418 10.0996 -7.93345C9.69788 -7.02964 9.55442 -6.14017 9.55442 -4.59078C9.55442 -3.1992 9.65484 -2.15193 10.1713 -1.13335C10.7308 -0.0430386 11.7207 0.30127 12.4667 0.30127C13.7148 0.30127 14.4321 -0.444732 14.8482 -1.27681C15.3646 -2.35278 15.3933 -3.7587 15.3933 -4.59078ZM15.3933 -4.59078M12.4667 0.0143462C12.0076 0.0143462 11.0751 -0.243885 10.8025 -1.80762C10.6447 -2.66839 10.6447 -3.7587 10.6447 -4.76294C10.6447 -5.93933 10.6447 -7.00094 10.8743 -7.84737C11.1182 -8.80856 11.8498 -9.2533 12.4667 -9.2533C13.0119 -9.2533 13.8439 -8.92333 14.1165 -7.68956C14.303 -6.87183 14.303 -5.73848 14.303 -4.76294C14.303 -3.80174 14.303 -2.71143 14.1452 -1.83631C13.8726 -0.258232 12.9688 0.0143462 12.4667 0.0143462ZM12.4667 0.0143462" fill="black"/>
 </g>
 <g transform="matrix(1.000000,-0.000000,-0.000000,1.000000,70.293944,-331.653543)">
  <path d="M16.5377 -5.20611M20.4132 -7.69677C20.4132 -8.76277 19.5265 -9.62952 18.4805 -9.62952C17.4045 -9.62952 16.5377 -8.74285 16.5377 -7.69677C16.5377 -6.64073 17.4045 -5.76402 18.4805 -5.76402C19.5265 -5.76402 20.4132 -6.63077 20.4132 -7.69677ZM20.4132 -7.69677M18.4805 -6.16252C17.6137 -6.16252 16.9362 -6.85991 16.9362 -7.69677C16.9362 -8.53363 17.6237 -9.23102 18.4805 -9.23102C19.3074 -9.23102 20.0147 -8.55356 20.0147 -7.69677C20.0147 -6.83998 19.3074 -6.16252 18.4805 -6.16252ZM18.4805 -6.16252" fill="black"/>
 </g>
 <g stroke-linecap="round" stroke-linejoin="round">
  <path d="M-108.061 333.4L-108.061 -378.425" stroke="black"/>
 </g>
 <g stroke-linecap="butt" stroke-linejoin="round" stroke-dasharray="2.000000" stroke-dashoffset="0.000000">
  <path d="M-108.061 333.4L32.8276 -192.402" stroke="black"/>
 </g>
 <g stroke-linecap="round" stroke-linejoin="round">
  <path d="M-108.061 333.4L100.078 -27.1073" stroke="black"/>
 </g>
 <g stroke-linecap="butt" stroke-linejoin="round" stroke-dasharray="2.000000" stroke-dashoffset="0.000000">
  <path d="M-108.061 333.4L117.038 108.301" stroke="black"/>
 </g>
 <g stroke-linecap="round" stroke-linejoin="round">
  <path d="M-108.061 333.4L102.765 211.68" stroke="black"/>
 </g>
 <g stroke-linecap="butt" stroke-linejoin="round" stroke-dasharray="2.000000" stroke-dashoffset="0.000000">
  <path d="M-108.061 333.4L71.7612 285.217" stroke="black"/>
 </g>
 <g stroke-linecap="round" stroke-linejoin="round">
  <path d="M-108.061 333.4L34.3045 333.4" stroke="black"/>
 </g>
 <g stroke-linecap="butt" stroke-linejoin="round" stroke-dasharray="2.000000" stroke-dashoffset="0.000000">
  <path d="M-108.061 333.4L-2.90018 361.578" stroke="black"/>
 </g>
 <g stroke-linecap="round" stroke-linejoin="round">
  <path d="M-108.061 333.4L-35.9591 375.028" stroke="black"/>
 </g>
 <g stroke-linecap="butt" stroke-linejoin="round" stroke-dasharray="2.000000" stroke-dashoffset="0.000000">
  <path d="M-108.061 333.4L-63.0408 378.42" stroke="black"/>
 </g>
 <g stroke-linecap="round" stroke-linejoin="round">
  <path d="M-108.061 333.4L-83.7165 375.565" stroke="black"/>
 </g>
 <g stroke-linecap="butt" stroke-linejoin="round" stroke-dasharray="2.000000" stroke-dashoffset="0.000000">
  <path d="M-108.061 333.4L-98.4239 369.364" stroke="black"/>
 </g>
 <g stroke-linecap="round" stroke-linejoin="round">
  <path d="M-108.061 333.4L-108.061 361.873" stroke="black"/>
 </g>
 <g stroke-linecap="butt" stroke-linejoin="round" stroke-dasharray="2.000000" stroke-dashoffset="0.000000">
  <path d="M-108.061 333.4L-113.696 354.432" stroke="black"/>
 </g>
 <g stroke-linecap="round" stroke-linejoin="round">
  <path d="M-108.061 333.4L-116.386 347.82" stroke="black"/>
 </g>
 <g stroke-linecap="butt" stroke-linejoin="round" stroke-dasharray="2.000000" stroke-dashoffset="0.000000">
  <path d="M-108.061 333.4L-117.065 342.404" stroke="black"/>
 </g>
 <g stroke-linecap="round" stroke-linejoin="round">
  <path d="M-108.061 333.4L-116.494 338.269" stroke="black"/>
 </g>
 <g stroke-linecap="butt" stroke-linejoin="round" stroke-dasharray="2.000000" stroke-dashoffset="0.000000">
  <path d="M-108.061 333.4L-115.253 335.327" stroke="black"/>
 </g>
 <g stroke-linecap="round" stroke-linejoin="round">
  <path d="M-108.061 333.4L-113.755 333.4" stroke="black"/>
 </g>
 <g stroke-linecap="butt" stroke-linejoin="round" stroke-dasharray="2.000000" stroke-dashoffset="0.000000">
  <path d="M-108.061 333.4L-112.267 332.273" stroke="black"/>
 </g>
 <g stroke-linecap="round" stroke-linejoin="round">
  <path d="M-108.061 333.4L-110.945 331.735" stroke="black"/>
 </g>
 <g stroke-linecap="butt" stroke-linejoin="round" stroke-dasharray="2.000000" stroke-dashoffset="0.000000">
  <path d="M-108.061 333.4L-109.861 331.599" stroke="black"/>
 </g>
 <g stroke-linecap="round" stroke-linejoin="round">
  <path d="M-108.061 333.4L-109.034 331.713" stroke="black"/>
 </g>
 <g stroke-linecap="butt" stroke-linejoin="round" stroke-dasharray="2.000000" stroke-dashoffset="0.000000">
  <path d="M-108.061 333.4L-108.446 331.961" stroke="black"/>
 </g>
 <g stroke-linecap="round" stroke-linejoin="round">
  <path d="M-108.061 333.4L-108.061 332.261" stroke="black"/>
 </g>
 <g stroke-linecap="round" stroke-linejoin="round" stroke-width="1.603518">
  <path d="M-108.061 -378.425L-95.8577 -365.703L-84.091 -352.998L-72.7524 -340.319L-61.8339 -327.672L-51.3273 -315.064L-41.2246 -302.501L-31.5179 -289.99L-22.1991 -277.536L-13.2605 -265.144L-4.69395 -252.821L3.50819 -240.571L11.3537 -228.4L18.8504 -216.312L26.0058 -204.311L32.8276 -192.402L39.3234 -180.589L45.5005 -168.876L51.3664 -157.266L56.9284 -145.763L62.1939 -134.37L67.1699 -123.091L71.8636 -111.928L76.282 -100.884L80.4322 -89.9617L84.3209 -79.1634L87.955 -68.4916L91.3413 -57.9481L94.4862 -47.5351L97.3964 -37.2542L100.078 -27.1073L102.538 -17.0957L104.783 -7.22082L106.818 2.51599L108.65 12.1137L110.284 21.5712L111.727 30.8877L112.985 40.0624L114.063 49.0948L114.967 57.9841L115.702 66.7301L116.274 75.3323L116.689 83.7906L116.951 92.1049L117.066 100.275L117.038 108.301L116.874 116.183L116.577 123.922L116.153 131.517L115.607 138.969L114.942 146.278L114.164 153.446L113.278 160.472L112.286 167.357L111.194 174.102L110.006 180.708L108.726 187.175L107.358 193.505L105.906 199.699L104.374 205.756L102.765 211.68L101.084 217.469L99.3332 223.127L97.5168 228.653L95.6381 234.049L93.7005 239.317L91.7073 244.458L89.6615 249.472L87.5663 254.362L85.4248 259.128L83.2398 263.772L81.0143 268.296L78.751 272.701L76.4526 276.989L74.1218 281.16L71.7612 285.217L69.3732 289.161L66.9602 292.993L64.5247 296.716L62.0689 300.33L59.5951 303.838L57.1053 307.24L54.6017 310.539L52.0863 313.736L49.561 316.833L47.0278 319.831L44.4885 322.733L41.9448 325.539L39.3985 328.251L36.8512 330.871L34.3045 333.4L31.7599 335.841L29.2191 338.194L26.6832 340.462L24.1539 342.645L21.6323 344.747L19.1197 346.767L16.6174 348.708L14.1266 350.572L11.6483 352.36L9.18367 354.073L6.73373 355.714L4.29945 357.283L1.88178 358.782L-0.518384 360.213L-2.90018 361.578L-5.2628 362.877L-7.60545 364.112L-9.92742 365.285L-12.228 366.398L-14.5065 367.451L-16.7624 368.446L-18.995 369.385L-21.2038 370.268L-23.3882 371.099L-25.5479 371.876L-27.6822 372.603L-29.7909 373.28L-31.8735 373.909L-33.9297 374.491L-35.9591 375.028L-37.9614 375.52L-39.9364 375.969L-41.8838 376.376L-43.8033 376.742L-45.6948 377.069L-47.5581 377.358L-49.393 377.609L-51.1995 377.825L-52.9774 378.005L-54.7266 378.152L-56.447 378.267L-58.1387 378.35L-59.8015 378.402L-61.4356 378.425L-63.0408 378.42L-64.6172 378.387L-66.1649 378.328L-67.6839 378.243L-69.1743 378.133L-70.6362 378.001L-72.0697 377.845L-73.4749 377.668L-74.8519 377.469L-76.201 377.251L-77.5221 377.013L-78.8156 376.757L-80.0816 376.484L-81.3203 376.193L-82.5318 375.887L-83.7165 375.565L-84.8744 375.229L-86.0059 374.879L-87.1112 374.515L-88.1905 374.14L-89.244 373.752L-90.2721 373.354L-91.2749 372.944L-92.2529 372.525L-93.2061 372.097L-94.135 371.66L-95.0398 371.215L-95.9208 370.762L-96.7783 370.303L-97.6126 369.836L-98.4239 369.364L-99.2127 368.887L-99.9792 368.404L-100.724 367.917L-101.447 367.426L-102.148 366.931L-102.829 366.433L-103.488 365.932L-104.128 365.429L-104.747 364.924L-105.347 364.418L-105.927 363.91L-106.488 363.401L-107.031 362.892L-107.555 362.382L-108.061 361.873L-108.549 361.364L-109.019 360.856L-109.473 360.349L-109.91 359.843L-110.33 359.339L-110.734 358.836L-111.122 358.336L-111.495 357.837L-111.853 357.342L-112.195 356.849L-112.523 356.359L-112.837 355.872L-113.137 355.388L-113.423 354.908L-113.696 354.432L-113.956 353.96L-114.203 353.491L-114.438 353.027L-114.66 352.566L-114.871 352.111L-115.07 351.66L-115.258 351.213L-115.434 350.771L-115.6 350.334L-115.756 349.903L-115.901 349.476L-116.037 349.054L-116.162 348.637L-116.279 348.226L-116.386 347.82L-116.485 347.42L-116.574 347.025L-116.656 346.635L-116.729 346.251L-116.794 345.873L-116.852 345.5L-116.902 345.133L-116.945 344.772L-116.982 344.417L-117.011 344.067L-117.034 343.723L-117.051 343.384L-117.061 343.052L-117.066 342.725L-117.065 342.404L-117.058 342.089L-117.046 341.779L-117.029 341.475L-117.007 341.177L-116.981 340.885L-116.95 340.598L-116.914 340.317L-116.874 340.042L-116.831 339.772L-116.783 339.508L-116.732 339.249L-116.677 338.996L-116.619 338.748L-116.558 338.506L-116.494 338.269L-116.426 338.037L-116.356 337.811L-116.284 337.59L-116.208 337.374L-116.131 337.163L-116.051 336.958L-115.969 336.757L-115.886 336.562L-115.8 336.371L-115.713 336.185L-115.624 336.004L-115.533 335.828L-115.441 335.656L-115.348 335.49L-115.253 335.327L-115.158 335.17L-115.061 335.016L-114.964 334.867L-114.866 334.723L-114.767 334.582L-114.667 334.446L-114.567 334.314L-114.466 334.187L-114.365 334.063L-114.264 333.943L-114.163 333.827L-114.061 333.714L-113.959 333.606L-113.857 333.501L-113.755 333.4L-113.653 333.302L-113.552 333.208L-113.45 333.118L-113.349 333.03L-113.248 332.946L-113.148 332.865L-113.048 332.788L-112.948 332.713L-112.849 332.642L-112.75 332.573L-112.652 332.507L-112.555 332.445L-112.458 332.385L-112.362 332.327L-112.267 332.273L-112.172 332.221L-112.079 332.171L-111.986 332.125L-111.894 332.08L-111.803 332.038L-111.712 331.998L-111.623 331.961L-111.535 331.925L-111.447 331.892L-111.361 331.861L-111.276 331.832L-111.191 331.805L-111.108 331.78L-111.026 331.756L-110.945 331.735L-110.865 331.715L-110.786 331.697L-110.708 331.681L-110.631 331.666L-110.555 331.653L-110.481 331.642L-110.407 331.632L-110.335 331.623L-110.264 331.616L-110.194 331.61L-110.125 331.605L-110.057 331.602L-109.991 331.6L-109.926 331.599L-109.861 331.599L-109.798 331.6L-109.736 331.603L-109.676 331.606L-109.616 331.611L-109.558 331.616L-109.5 331.622L-109.444 331.629L-109.389 331.637L-109.335 331.646L-109.282 331.655L-109.23 331.666L-109.18 331.677L-109.13 331.688L-109.082 331.7L-109.034 331.713L-108.988 331.727L-108.943 331.741L-108.899 331.755L-108.855 331.77L-108.813 331.786L-108.772 331.802L-108.732 331.818L-108.693 331.835L-108.655 331.852L-108.618 331.87L-108.581 331.887L-108.546 331.905L-108.512 331.924L-108.478 331.943L-108.446 331.961L-108.414 331.98L-108.384 332L-108.354 332.019L-108.325 332.039L-108.297 332.059L-108.27 332.079L-108.243 332.099L-108.218 332.119L-108.193 332.139L-108.169 332.159L-108.146 332.18L-108.123 332.2L-108.102 332.22L-108.081 332.241L-108.061 332.261" stroke="black"/>
 </g>
</svg>
