<?xml version="1.0" encoding="utf-8"?>
<svg xmlns="http://www.w3.org/2000/svg" fill="none" version="1.1" viewBox="-151.192 -379.425 302.384 758.85" x="-151.192pt" y="-379.425pt" width="302.384pt" height="758.85pt" stroke-width="0.566929" stroke-miterlimit="10.000000">
 <path d="M55.2315 -351.496L150.192 -351.496L150.192 -378.425L55.2315 -378.425Z" fill="black"/>
 <path d="M103.137 -357.165L103.704 -357.165"/>
 <g transform="matrix(1.000000,-0.000000,-0.000000,1.000000,103.420441,-357.165354)">
  <path d="M-40.4207 -0M-30.8333 -6.75664C-31.2672 -5.70286 -32.0317 -3.8019 -32.197 -3.07872L-32.2177 -3.07872C-32.4036 -3.82257 -33.2508 -5.86816 -33.6847 -6.96327L-36.3295 -13.4926C-36.6808 -14.3398 -37.342 -14.3398 -37.7139 -14.3398L-39.4289 -14.3398C-40.1727 -14.3398 -40.4207 -14.1125 -40.4207 -13.348L-40.4207 -0.991801C-40.4207 -0.24795 -40.1934 -0 -39.4289 -0L-38.871 -0C-38.0858 -0 -37.8792 -0.268613 -37.8792 -0.991801L-37.8792 -11.6743L-37.8585 -11.6743C-37.6313 -10.7445 -36.7014 -8.45097 -36.2055 -7.23188L-33.8087 -1.34306C-33.4368 -0.454575 -32.9409 -0.454575 -32.2383 -0.454575C-31.5358 -0.454575 -31.0399 -0.454575 -30.668 -1.34306L-28.0232 -7.8311C-27.8166 -8.327 -26.7008 -11.1371 -26.5561 -11.6743L-26.5355 -11.6743L-26.5355 -0.991801C-26.5355 -0.3306 -26.3908 -0 -25.5437 -0L-24.9858 -0C-24.2006 -0 -23.994 -0.268613 -23.994 -0.991801L-23.994 -13.348C-23.994 -14.0092 -24.1386 -14.3398 -24.9858 -14.3398L-26.7214 -14.3398C-27.238 -14.3398 -27.7546 -14.2985 -28.1058 -13.4513ZM-28.1058 -13.4513" fill="#fff"/>
 </g>
 <g transform="matrix(1.000000,-0.000000,-0.000000,1.000000,103.420441,-357.165354)">
  <path d="M-20.2172 -0M-10.6298 -6.75664C-11.0637 -5.70286 -11.8283 -3.8019 -11.9936 -3.07872L-12.0142 -3.07872C-12.2002 -3.82257 -13.0473 -5.86816 -13.4813 -6.96327L-16.1261 -13.4926C-16.4773 -14.3398 -17.1385 -14.3398 -17.5104 -14.3398L-19.2254 -14.3398C-19.9693 -14.3398 -20.2172 -14.1125 -20.2172 -13.348L-20.2172 -0.991801C-20.2172 -0.24795 -19.9899 -0 -19.2254 -0L-18.6675 -0C-17.8824 -0 -17.6757 -0.268613 -17.6757 -0.991801L-17.6757 -11.6743L-17.6551 -11.6743C-17.4278 -10.7445 -16.498 -8.45097 -16.0021 -7.23188L-13.6052 -1.34306C-13.2333 -0.454575 -12.7374 -0.454575 -12.0349 -0.454575C-11.3324 -0.454575 -10.8364 -0.454575 -10.4645 -1.34306L-7.81972 -7.8311C-7.6131 -8.327 -6.49732 -11.1371 -6.35268 -11.6743L-6.33202 -11.6743L-6.33202 -0.991801C-6.33202 -0.3306 -6.18738 -0 -5.34022 -0L-4.78233 -0C-3.99716 -0 -3.79053 -0.268613 -3.79053 -0.991801L-3.79053 -13.348C-3.79053 -14.0092 -3.93517 -14.3398 -4.78233 -14.3398L-6.51798 -14.3398C-7.03455 -14.3398 -7.55111 -14.2985 -7.90237 -13.4513ZM-7.90237 -13.4513" fill="#fff"/>
 </g>
 <g transform="matrix(1.000000,-0.000000,-0.000000,1.000000,103.420441,-357.165354)">
  <path d="M-1.02624 -0M7.89997 -13.4513C7.59003 -14.3398 6.99082 -14.3398 6.57757 -14.3398L4.75927 -14.3398C4.34602 -14.3398 3.7468 -14.3398 3.43686 -13.4513L-0.922928 -0.971138C-1.02624 -0.702526 -1.02624 -0.661201 -1.02624 -0.557888C-1.02624 -0 -0.509677 -0 -0.220402 -0L0.523449 -0C0.895374 -0 1.53591 -0 1.82519 -0.826501L2.63103 -3.12004L8.35454 -3.12004L9.05707 -1.13644C9.30502 -0.41325 9.44966 -0 10.4415 -0L11.5572 -0C11.8465 -0 12.3631 -0 12.3631 -0.557888C12.3631 -0.661201 12.3631 -0.702526 12.2598 -0.971138ZM12.2598 -0.971138M4.7386 -9.27747C5.04854 -10.1866 5.31715 -10.9718 5.48245 -11.7156L5.50312 -11.7156C5.60643 -11.2197 5.60643 -11.1784 5.77173 -10.7032L7.73467 -4.89702L3.2509 -4.89702ZM3.2509 -4.89702" fill="#fff"/>
 </g>
 <g transform="matrix(1.000000,-0.000000,-0.000000,1.000000,103.420441,-357.165354)">
  <path d="M13.8876 -0M25.8512 -2.95474C25.8512 -3.12004 25.7065 -3.20269 25.6239 -3.20269C25.128 -3.20269 24.5288 -1.85963 21.6154 -1.85963C17.9788 -1.85963 16.9456 -4.09118 16.9456 -7.19056C16.9456 -10.2693 18.0614 -12.5008 21.4501 -12.5008C23.289 -12.5008 24.2602 -11.7776 24.8181 -11.3231C24.942 -11.2197 25.004 -11.1371 25.1487 -11.1371C25.2313 -11.1371 25.3346 -11.2404 25.3553 -11.3231L25.7685 -13.6166C25.7892 -13.6993 25.7685 -13.7819 25.6032 -13.8439C24.3841 -14.2985 23.1237 -14.5877 21.512 -14.5877C16.4704 -14.5877 13.8876 -12.1289 13.8876 -7.21122C13.8876 -2.1489 16.5117 0.206625 21.5327 0.206625C23.289 0.206625 24.3841 -0.041325 25.8925 -0.971138C26.0578 -1.07445 26.0165 -1.21909 26.0165 -1.21909ZM26.0165 -1.21909" fill="#fff"/>
 </g>
 <g transform="matrix(1.000000,-0.000000,-0.000000,1.000000,103.420441,-357.165354)">
  <path d="M28.0162 -0M36.9424 -13.4513C36.6325 -14.3398 36.0333 -14.3398 35.62 -14.3398L33.8017 -14.3398C33.3885 -14.3398 32.7893 -14.3398 32.4793 -13.4513L28.1195 -0.971138C28.0162 -0.702526 28.0162 -0.661201 28.0162 -0.557888C28.0162 -0 28.5328 -0 28.8221 -0L29.5659 -0C29.9378 -0 30.5784 -0 30.8676 -0.826501L31.6735 -3.12004L37.397 -3.12004L38.0995 -1.13644C38.3475 -0.41325 38.4921 -0 39.4839 -0L40.5997 -0C40.889 -0 41.4055 -0 41.4055 -0.557888C41.4055 -0.661201 41.4055 -0.702526 41.3022 -0.971138ZM41.3022 -0.971138M33.7811 -9.27747C34.091 -10.1866 34.3596 -10.9718 34.5249 -11.7156L34.5456 -11.7156C34.6489 -11.2197 34.6489 -11.1784 34.8142 -10.7032L36.7771 -4.89702L32.2934 -4.89702ZM32.2934 -4.89702" fill="#fff"/>
 </g>
 <path d="M103.137 -331.654L103.704 -331.654"/>
 <g transform="matrix(1.000000,-0.000000,-0.000000,1.000000,103.420441,-331.653543)">
  <path d="M-21.826 -0M-18.4834 -5.40852L-16.8622 -5.40852C-17.2496 -3.80174 -17.4935 -2.75447 -17.4935 -1.60677C-17.4935 -1.40593 -17.4935 0.143462 -16.9053 0.143462C-16.604 0.143462 -16.3458 -0.129116 -16.3458 -0.373001C-16.3458 -0.444732 -16.3458 -0.473424 -16.4462 -0.688617C-16.8335 -1.6785 -16.8335 -2.91228 -16.8335 -3.0127C-16.8335 -3.09878 -16.8335 -4.11736 -16.5323 -5.40852L-14.9255 -5.40852C-14.739 -5.40852 -14.2656 -5.40852 -14.2656 -5.86759C-14.2656 -6.18321 -14.5382 -6.18321 -14.7964 -6.18321L-19.5163 -6.18321C-19.8462 -6.18321 -20.334 -6.18321 -20.9939 -5.48025C-21.3669 -5.06421 -21.826 -4.30386 -21.826 -4.21778C-21.826 -4.1317 -21.7543 -4.10301 -21.6682 -4.10301C-21.5678 -4.10301 -21.5534 -4.14605 -21.4817 -4.23213C-20.7357 -5.40852 -19.9897 -5.40852 -19.6311 -5.40852L-18.8133 -5.40852C-19.1289 -4.33255 -19.4876 -3.08443 -20.664 -0.573848C-20.7788 -0.344309 -20.7788 -0.315616 -20.7788 -0.229539C-20.7788 0.071731 -20.5205 0.143462 -20.3914 0.143462C-19.9754 0.143462 -19.8606 -0.229539 -19.6884 -0.832079C-19.4589 -1.56374 -19.4589 -1.59243 -19.3154 -2.16628ZM-19.3154 -2.16628" fill="black"/>
 </g>
 <g transform="matrix(1.000000,-0.000000,-0.000000,1.000000,103.420441,-331.653543)">
  <path d="M-8.25884 -0M-2.86467 -10.2432C-2.79294 -10.4297 -2.79294 -10.4584 -2.79294 -10.4871C-2.79294 -10.6736 -2.9364 -10.7596 -3.05117 -10.7596C-3.23767 -10.7596 -3.28071 -10.6305 -3.35244 -10.444L-8.18711 3.07009C-8.25884 3.25659 -8.25884 3.28528 -8.25884 3.31397C-8.25884 3.47178 -8.14407 3.58655 -7.98627 3.58655C-7.79976 3.58655 -7.75673 3.44309 -7.69934 3.28528ZM-7.69934 3.28528" fill="black"/>
 </g>
 <g transform="matrix(1.000000,-0.000000,-0.000000,1.000000,103.420441,-331.653543)">
  <path d="M3.26061 -0M7.92312 -4.17474C7.92312 -0.789041 6.41677 -0.0860772 5.556 -0.0860772C5.21169 -0.0860772 4.45134 -0.129116 4.09269 -0.631233L4.17876 -0.631233C4.27919 -0.60254 4.79565 -0.688617 4.79565 -1.21943C4.79565 -1.53504 4.58046 -1.80762 4.20746 -1.80762C3.83445 -1.80762 3.60492 -1.56374 3.60492 -1.19073C3.60492 -0.30127 4.32223 0.30127 5.57034 0.30127C7.36362 0.30127 9.09951 -1.60677 9.09951 -4.7199C9.09951 -8.57903 7.49273 -9.54022 6.23027 -9.54022C4.65219 -9.54022 3.26061 -8.22037 3.26061 -6.32667C3.26061 -4.43297 4.5948 -3.14182 6.02942 -3.14182C7.09104 -3.14182 7.6362 -3.91651 7.92312 -4.64817ZM7.92312 -4.64817M6.08681 -3.42874C5.183 -3.42874 4.79565 -4.1604 4.66653 -4.43297C4.43699 -4.97813 4.43699 -5.66675 4.43699 -6.31233C4.43699 -7.11571 4.43699 -7.80433 4.81 -8.39252C5.06823 -8.77987 5.45557 -9.19591 6.23027 -9.19591C7.048 -9.19591 7.46404 -8.4786 7.6075 -8.14864C7.89443 -7.44568 7.89443 -6.22625 7.89443 -6.01106C7.89443 -4.80598 7.34927 -3.42874 6.08681 -3.42874ZM6.08681 -3.42874" fill="black"/>
 </g>
 <g transform="matrix(1.000000,-0.000000,-0.000000,1.000000,103.420441,-331.653543)">
  <path d="M10.2842 -0M16.1231 -4.59078C16.1231 -5.78152 16.0514 -6.94356 15.5349 -8.03387C14.9467 -9.2246 13.9138 -9.54022 13.2108 -9.54022C12.3787 -9.54022 11.3601 -9.12418 10.8293 -7.93345C10.4276 -7.02964 10.2842 -6.14017 10.2842 -4.59078C10.2842 -3.1992 10.3846 -2.15193 10.9011 -1.13335C11.4606 -0.0430386 12.4505 0.30127 13.1965 0.30127C14.4446 0.30127 15.1619 -0.444732 15.5779 -1.27681C16.0944 -2.35278 16.1231 -3.7587 16.1231 -4.59078ZM16.1231 -4.59078M13.1965 0.0143462C12.7374 0.0143462 11.8049 -0.243885 11.5323 -1.80762C11.3745 -2.66839 11.3745 -3.7587 11.3745 -4.76294C11.3745 -5.93933 11.3745 -7.00094 11.604 -7.84737C11.8479 -8.80856 12.5796 -9.2533 13.1965 -9.2533C13.7416 -9.2533 14.5737 -8.92333 14.8463 -7.68956C15.0328 -6.87183 15.0328 -5.73848 15.0328 -4.76294C15.0328 -3.80174 15.0328 -2.71143 14.875 -1.83631C14.6024 -0.258232 13.6986 0.0143462 13.1965 0.0143462ZM13.1965 0.0143462" fill="black"/>
 </g>
 <g transform="matrix(1.000000,-0.000000,-0.000000,1.000000,103.420441,-331.653543)">
  <path d="M17.2675 -5.20611M21.143 -7.69677C21.143 -8.76277 20.2563 -9.62952 19.2102 -9.62952C18.1343 -9.62952 17.2675 -8.74285 17.2675 -7.69677C17.2675 -6.64073 18.1343 -5.76402 19.2102 -5.76402C20.2563 -5.76402 21.143 -6.63077 21.143 -7.69677ZM21.143 -7.69677M19.2102 -6.16252C18.3435 -6.16252 17.666 -6.85991 17.666 -7.69677C17.666 -8.53363 18.3534 -9.23102 19.2102 -9.23102C20.0371 -9.23102 20.7445 -8.55356 20.7445 -7.69677C20.7445 -6.83998 20.0371 -6.16252 19.2102 -6.16252ZM19.2102 -6.16252" fill="black"/>
 </g>
 <g stroke-linecap="round" stroke-linejoin="round">
  <path d="M-122.557 291.607L-122.557 -378.425" stroke="black"/>
 </g>
 <g stroke-linecap="butt" stroke-linejoin="round" stroke-dasharray="2.000000" stroke-dashoffset="0.000000">
  <path d="M-122.557 291.607L20.7389 -243.18" stroke="black"/>
 </g>
 <g stroke-linecap="round" stroke-linejoin="round">
  <path d="M-122.557 291.607L106.187 -104.589" stroke="black"/>
 </g>
 <g stroke-linecap="butt" stroke-linejoin="round" stroke-dasharray="2.000000" stroke-dashoffset="0.000000">
  <path d="M-122.557 291.607L144.747 24.3025" stroke="black"/>
 </g>
 <g stroke-linecap="round" stroke-linejoin="round">
  <path d="M-122.557 291.607L147.959 135.424" stroke="black"/>
 </g>
 <g stroke-linecap="butt" stroke-linejoin="round" stroke-dasharray="2.000000" stroke-dashoffset="0.000000">
  <path d="M-122.557 291.607L126.758 224.803" stroke="black"/>
 </g>
 <g stroke-linecap="round" stroke-linejoin="round">
  <path d="M-122.557 291.607L90.7209 291.607" stroke="black"/>
 </g>
 <g stroke-linecap="butt" stroke-linejoin="round" stroke-dasharray="2.000000" stroke-dashoffset="0.000000">
  <path d="M-122.557 291.607L47.6711 337.219" stroke="black"/>
 </g>
 <g stroke-linecap="round" stroke-linejoin="round">
  <path d="M-122.557 291.607L3.55604 364.418" stroke="black"/>
 </g>
 <g stroke-linecap="butt" stroke-linejoin="round" stroke-dasharray="2.000000" stroke-dashoffset="0.000000">
  <path d="M-122.557 291.607L-37.4714 376.692" stroke="black"/>
 </g>
 <g stroke-linecap="round" stroke-linejoin="round">
  <path d="M-122.557 291.607L-72.8424 377.714" stroke="black"/>
 </g>
 <g stroke-linecap="butt" stroke-linejoin="round" stroke-dasharray="2.000000" stroke-dashoffset="0.000000">
  <path d="M-122.557 291.607L-101.293 370.966" stroke="black"/>
 </g>
 <g stroke-linecap="round" stroke-linejoin="round">
  <path d="M-122.557 291.607L-122.557 359.495" stroke="black"/>
 </g>
 <g stroke-linecap="butt" stroke-linejoin="round" stroke-dasharray="2.000000" stroke-dashoffset="0.000000">
  <path d="M-122.557 291.607L-137.076 345.792" stroke="black"/>
 </g>
 <g stroke-linecap="round" stroke-linejoin="round">
  <path d="M-122.557 291.607L-145.733 331.749" stroke="black"/>
 </g>
 <g stroke-linecap="butt" stroke-linejoin="round" stroke-dasharray="2.000000" stroke-dashoffset="0.000000">
  <path d="M-122.557 291.607L-149.64 318.69" stroke="black"/>
 </g>
 <g stroke-linecap="round" stroke-linejoin="round">
  <path d="M-122.557 291.607L-149.966 307.431" stroke="black"/>
 </g>
 <g stroke-linecap="butt" stroke-linejoin="round" stroke-dasharray="2.000000" stroke-dashoffset="0.000000">
  <path d="M-122.557 291.607L-147.818 298.375" stroke="black"/>
 </g>
 <g stroke-linecap="round" stroke-linejoin="round">
  <path d="M-122.557 291.607L-144.166 291.607" stroke="black"/>
 </g>
 <g stroke-linecap="butt" stroke-linejoin="round" stroke-dasharray="2.000000" stroke-dashoffset="0.000000">
  <path d="M-122.557 291.607L-139.805 286.985" stroke="black"/>
 </g>
 <g stroke-linecap="round" stroke-linejoin="round">
  <path d="M-122.557 291.607L-135.335 284.229" stroke="black"/>
 </g>
 <g stroke-linecap="butt" stroke-linejoin="round" stroke-dasharray="2.000000" stroke-dashoffset="0.000000">
  <path d="M-122.557 291.607L-131.178 282.986" stroke="black"/>
 </g>
 <g stroke-linecap="round" stroke-linejoin="round">
  <path d="M-122.557 291.607L-127.594 282.882" stroke="black"/>
 </g>
 <g stroke-linecap="butt" stroke-linejoin="round" stroke-dasharray="2.000000" stroke-dashoffset="0.000000">
  <path d="M-122.557 291.607L-124.711 283.566" stroke="black"/>
 </g>
 <g stroke-linecap="round" stroke-linejoin="round">
  <path d="M-122.557 291.607L-122.557 284.728" stroke="black"/>
 </g>
 <g stroke-linecap="round" stroke-linejoin="round" stroke-width="1.603518">
  <path d="M-122.557 -378.425L-111.011 -369.856L-99.7604 -361.198L-88.803 -352.456L-78.1363 -343.638L-67.7579 -334.748L-57.6655 -325.793L-47.8565 -316.779L-38.3283 -307.711L-29.0781 -298.595L-20.1034 -289.436L-11.4012 -280.24L-2.96885 -271.011L5.19666 -261.755L13.0982 -252.476L20.7389 -243.18L28.1216 -233.872L35.2495 -224.555L42.1258 -215.234L48.7534 -205.915L55.1357 -196.6L61.2759 -187.294L67.1772 -178.002L72.8429 -168.726L78.2763 -159.472L83.4807 -150.242L88.4596 -141.041L93.2162 -131.872L97.754 -122.738L102.076 -113.642L106.187 -104.589L110.088 -95.5802L113.785 -86.6195L117.28 -77.7098L120.577 -68.8538L123.679 -60.0542L126.589 -51.3137L129.312 -42.6348L131.85 -34.02L134.208 -25.4717L136.388 -16.992L138.394 -8.58322L140.23 -0.247414L141.898 8.01341L143.403 16.1973L144.747 24.3025L145.935 32.3272L146.969 40.2698L147.853 48.1286L148.59 55.9021L149.184 63.5889L149.638 71.1876L149.955 78.6969L150.139 86.1157L150.192 93.4428L150.119 100.677L149.921 107.818L149.604 114.863L149.169 121.814L148.619 128.667L147.959 135.424L147.191 142.083L146.317 148.644L145.342 155.105L144.268 161.467L143.098 167.729L141.836 173.891L140.483 179.953L139.043 185.913L137.518 191.773L135.913 197.531L134.228 203.188L132.468 208.744L130.634 214.198L128.73 219.551L126.758 224.803L124.72 229.953L122.62 235.003L120.46 239.952L118.242 244.8L115.969 249.548L113.643 254.196L111.267 258.745L108.843 263.194L106.373 267.545L103.86 271.798L101.306 275.953L98.7126 280.01L96.0826 283.971L93.418 287.837L90.7209 291.607L87.9932 295.282L85.2372 298.863L82.4547 302.351L79.6476 305.746L76.818 309.05L73.9676 312.262L71.0983 315.384L68.2119 318.417L65.3101 321.362L62.3947 324.218L59.4674 326.988L56.5298 329.673L53.5835 332.272L50.6301 334.787L47.6711 337.219L44.7081 339.569L41.7425 341.838L38.7756 344.027L35.8091 346.136L32.8441 348.168L29.882 350.122L26.9241 352.001L23.9717 353.804L21.0259 355.534L18.0881 357.19L15.1592 358.775L12.2405 360.289L9.33306 361.734L6.43789 363.109L3.55604 364.418L0.688508 365.66L-2.16376 366.836L-4.99982 367.949L-7.81878 368.998L-10.6198 369.986L-13.402 370.912L-16.1645 371.779L-18.9067 372.587L-21.6277 373.337L-24.3269 374.031L-27.0035 374.67L-29.6569 375.254L-32.2864 375.785L-34.8914 376.264L-37.4714 376.692L-40.0257 377.07L-42.5539 377.399L-45.0554 377.681L-47.5298 377.915L-49.9766 378.104L-52.3953 378.249L-54.7856 378.35L-57.1471 378.408L-59.4794 378.425L-61.7821 378.402L-64.055 378.339L-66.2978 378.238L-68.5101 378.099L-70.6917 377.925L-72.8424 377.714L-74.962 377.47L-77.0503 377.192L-79.1071 376.881L-81.1322 376.54L-83.1256 376.167L-85.087 375.765L-87.0164 375.335L-88.9137 374.876L-90.7789 374.391L-92.6118 373.88L-94.4125 373.344L-96.1809 372.783L-97.9171 372.2L-99.6209 371.594L-101.293 370.966L-102.932 370.317L-104.539 369.649L-106.115 368.961L-107.658 368.255L-109.169 367.532L-110.649 366.791L-112.097 366.035L-113.513 365.263L-114.898 364.477L-116.251 363.677L-117.574 362.864L-118.866 362.039L-120.127 361.202L-121.357 360.353L-122.557 359.495L-123.727 358.627L-124.867 357.749L-125.977 356.864L-127.058 355.97L-128.109 355.069L-129.132 354.162L-130.126 353.249L-131.091 352.33L-132.028 351.406L-132.938 350.478L-133.819 349.547L-134.674 348.612L-135.501 347.674L-136.302 346.734L-137.076 345.792L-137.824 344.849L-138.546 343.905L-139.243 342.96L-139.914 342.016L-140.561 341.072L-141.183 340.129L-141.781 339.188L-142.355 338.248L-142.905 337.31L-143.433 336.375L-143.937 335.443L-144.419 334.514L-144.879 333.588L-145.317 332.667L-145.733 331.749L-146.129 330.837L-146.503 329.929L-146.857 329.026L-147.191 328.129L-147.506 327.237L-147.801 326.352L-148.077 325.472L-148.334 324.599L-148.573 323.733L-148.793 322.874L-148.997 322.022L-149.183 321.177L-149.352 320.341L-149.504 319.511L-149.64 318.69L-149.761 317.877L-149.866 317.072L-149.955 316.276L-150.03 315.488L-150.09 314.71L-150.136 313.94L-150.168 313.179L-150.187 312.427L-150.192 311.685L-150.185 310.952L-150.165 310.228L-150.132 309.514L-150.088 308.81L-150.033 308.116L-149.966 307.431L-149.888 306.756L-149.8 306.092L-149.701 305.437L-149.592 304.792L-149.473 304.158L-149.345 303.534L-149.208 302.919L-149.062 302.315L-148.908 301.722L-148.745 301.138L-148.575 300.565L-148.396 300.002L-148.21 299.45L-148.018 298.907L-147.818 298.375L-147.611 297.853L-147.398 297.342L-147.18 296.84L-146.955 296.349L-146.725 295.868L-146.489 295.397L-146.248 294.936L-146.003 294.485L-145.752 294.044L-145.498 293.614L-145.239 293.193L-144.976 292.781L-144.71 292.38L-144.44 291.988L-144.166 291.607L-143.89 291.234L-143.611 290.871L-143.329 290.518L-143.044 290.174L-142.758 289.839L-142.469 289.514L-142.178 289.197L-141.886 288.89L-141.592 288.592L-141.296 288.302L-141 288.022L-140.702 287.75L-140.404 287.486L-140.104 287.231L-139.805 286.985L-139.504 286.747L-139.204 286.517L-138.903 286.295L-138.603 286.081L-138.302 285.876L-138.002 285.678L-137.702 285.487L-137.403 285.305L-137.105 285.129L-136.807 284.961L-136.51 284.801L-136.215 284.648L-135.92 284.501L-135.627 284.362L-135.335 284.229L-135.044 284.103L-134.755 283.984L-134.468 283.871L-134.182 283.765L-133.898 283.665L-133.617 283.571L-133.337 283.483L-133.059 283.401L-132.783 283.325L-132.51 283.255L-132.238 283.19L-131.97 283.131L-131.703 283.077L-131.439 283.029L-131.178 282.986L-130.919 282.947L-130.663 282.914L-130.409 282.885L-130.159 282.862L-129.911 282.842L-129.666 282.828L-129.424 282.818L-129.184 282.812L-128.948 282.81L-128.715 282.812L-128.484 282.819L-128.257 282.829L-128.033 282.843L-127.812 282.861L-127.594 282.882L-127.379 282.907L-127.168 282.935L-126.959 282.966L-126.754 283.001L-126.552 283.039L-126.353 283.079L-126.158 283.123L-125.966 283.17L-125.777 283.219L-125.591 283.27L-125.408 283.325L-125.229 283.382L-125.053 283.441L-124.881 283.502L-124.711 283.566L-124.545 283.631L-124.382 283.699L-124.223 283.769L-124.066 283.84L-123.913 283.914L-123.763 283.989L-123.617 284.065L-123.473 284.144L-123.333 284.223L-123.196 284.304L-123.062 284.387L-122.931 284.47L-122.803 284.555L-122.678 284.641L-122.557 284.728" stroke="black"/>
 </g>
</svg>
