<?xml version="1.0" encoding="utf-8"?>
<svg xmlns="http://www.w3.org/2000/svg" fill="none" version="1.1" viewBox="-256.118 -311.145 512.236 622.29" x="-256.118pt" y="-311.145pt" width="512.236pt" height="622.29pt" stroke-width="0.566929" stroke-miterlimit="10.000000">
 <path d="M160.157 -283.216L255.118 -283.216L255.118 -310.145L160.157 -310.145Z" fill="black"/>
 <path d="M208.063 -288.885L208.63 -288.885"/>
 <g transform="matrix(1.000000,-0.000000,-0.000000,1.000000,208.346457,-288.885299)">
  <path d="M-40.4207 -0M-30.8333 -6.75664C-31.2672 -5.70286 -32.0317 -3.8019 -32.197 -3.07872L-32.2177 -3.07872C-32.4036 -3.82257 -33.2508 -5.86816 -33.6847 -6.96327L-36.3295 -13.4926C-36.6808 -14.3398 -37.342 -14.3398 -37.7139 -14.3398L-39.4289 -14.3398C-40.1727 -14.3398 -40.4207 -14.1125 -40.4207 -13.348L-40.4207 -0.991801C-40.4207 -0.24795 -40.1934 -0 -39.4289 -0L-38.871 -0C-38.0858 -0 -37.8792 -0.268613 -37.8792 -0.991801L-37.8792 -11.6743L-37.8585 -11.6743C-37.6313 -10.7445 -36.7014 -8.45097 -36.2055 -7.23188L-33.8087 -1.34306C-33.4368 -0.454575 -32.9409 -0.454575 -32.2383 -0.454575C-31.5358 -0.454575 -31.0399 -0.454575 -30.668 -1.34306L-28.0232 -7.8311C-27.8166 -8.327 -26.7008 -11.1371 -26.5561 -11.6743L-26.5355 -11.6743L-26.5355 -0.991801C-26.5355 -0.3306 -26.3908 -0 -25.5437 -0L-24.9858 -0C-24.2006 -0 -23.994 -0.268613 -23.994 -0.991801L-23.994 -13.348C-23.994 -14.0092 -24.1386 -14.3398 -24.9858 -14.3398L-26.7214 -14.3398C-27.238 -14.3398 -27.7546 -14.2985 -28.1058 -13.4513ZM-28.1058 -13.4513" fill="#fff"/>
 </g>
 <g transform="matrix(1.000000,-0.000000,-0.000000,1.000000,208.346457,-288.885299)">
  <path d="M-20.2172 -0M-10.6298 -6.75664C-11.0637 -5.70286 -11.8283 -3.8019 -11.9936 -3.07872L-12.0142 -3.07872C-12.2002 -3.82257 -13.0473 -5.86816 -13.4813 -6.96327L-16.1261 -13.4926C-16.4773 -14.3398 -17.1385 -14.3398 -17.5104 -14.3398L-19.2254 -14.3398C-19.9693 -14.3398 -20.2172 -14.1125 -20.2172 -13.348L-20.2172 -0.991801C-20.2172 -0.24795 -19.9899 -0 -19.2254 -0L-18.6675 -0C-17.8824 -0 -17.6757 -0.268613 -17.6757 -0.991801L-17.6757 -11.6743L-17.6551 -11.6743C-17.4278 -10.7445 -16.498 -8.45097 -16.0021 -7.23188L-13.6052 -1.34306C-13.2333 -0.454575 -12.7374 -0.454575 -12.0349 -0.454575C-11.3324 -0.454575 -10.8364 -0.454575 -10.4645 -1.34306L-7.81972 -7.8311C-7.6131 -8.327 -6.49732 -11.1371 -6.35268 -11.6743L-6.33202 -11.6743L-6.33202 -0.991801C-6.33202 -0.3306 -6.18738 -0 -5.34022 -0L-4.78233 -0C-3.99716 -0 -3.79053 -0.268613 -3.79053 -0.991801L-3.79053 -13.348C-3.79053 -14.0092 -3.93517 -14.3398 -4.78233 -14.3398L-6.51798 -14.3398C-7.03455 -14.3398 -7.55111 -14.2985 -7.90237 -13.4513ZM-7.90237 -13.4513" fill="#fff"/>
 </g>
 <g transform="matrix(1.000000,-0.000000,-0.000000,1.000000,208.346457,-288.885299)">
  <path d="M-1.02624 -0M7.89997 -13.4513C7.59003 -14.3398 6.99082 -14.3398 6.57757 -14.3398L4.75927 -14.3398C4.34602 -14.3398 3.7468 -14.3398 3.43686 -13.4513L-0.922928 -0.971138C-1.02624 -0.702526 -1.02624 -0.661201 -1.02624 -0.557888C-1.02624 -0 -0.509677 -0 -0.220402 -0L0.523449 -0C0.895374 -0 1.53591 -0 1.82519 -0.826501L2.63103 -3.12004L8.35454 -3.12004L9.05707 -1.13644C9.30502 -0.41325 9.44966 -0 10.4415 -0L11.5572 -0C11.8465 -0 12.3631 -0 12.3631 -0.557888C12.3631 -0.661201 12.3631 -0.702526 12.2598 -0.971138ZM12.2598 -0.971138M4.7386 -9.27747C5.04854 -10.1866 5.31715 -10.9718 5.48245 -11.7156L5.50312 -11.7156C5.60643 -11.2197 5.60643 -11.1784 5.77173 -10.7032L7.73467 -4.89702L3.2509 -4.89702ZM3.2509 -4.89702" fill="#fff"/>
 </g>
 <g transform="matrix(1.000000,-0.000000,-0.000000,1.000000,208.346457,-288.885299)">
  <path d="M13.8876 -0M25.8512 -2.95474C25.8512 -3.12004 25.7065 -3.20269 25.6239 -3.20269C25.128 -3.20269 24.5288 -1.85963 21.6154 -1.85963C17.9788 -1.85963 16.9456 -4.09118 16.9456 -7.19056C16.9456 -10.2693 18.0614 -12.5008 21.4501 -12.5008C23.289 -12.5008 24.2602 -11.7776 24.8181 -11.3231C24.942 -11.2197 25.004 -11.1371 25.1487 -11.1371C25.2313 -11.1371 25.3346 -11.2404 25.3553 -11.3231L25.7685 -13.6166C25.7892 -13.6993 25.7685 -13.7819 25.6032 -13.8439C24.3841 -14.2985 23.1237 -14.5877 21.512 -14.5877C16.4704 -14.5877 13.8876 -12.1289 13.8876 -7.21122C13.8876 -2.1489 16.5117 0.206625 21.5327 0.206625C23.289 0.206625 24.3841 -0.041325 25.8925 -0.971138C26.0578 -1.07445 26.0165 -1.21909 26.0165 -1.21909ZM26.0165 -1.21909" fill="#fff"/>
 </g>
 <g transform="matrix(1.000000,-0.000000,-0.000000,1.000000,208.346457,-288.885299)">
  <path d="M28.0162 -0M36.9424 -13.4513C36.6325 -14.3398 36.0333 -14.3398 35.62 -14.3398L33.8017 -14.3398C33.3885 -14.3398 32.7893 -14.3398 32.4793 -13.4513L28.1195 -0.971138C28.0162 -0.702526 28.0162 -0.661201 28.0162 -0.557888C28.0162 -0 28.5328 -0 28.8221 -0L29.5659 -0C29.9378 -0 30.5784 -0 30.8676 -0.826501L31.6735 -3.12004L37.397 -3.12004L38.0995 -1.13644C38.3475 -0.41325 38.4921 -0 39.4839 -0L40.5997 -0C40.889 -0 41.4055 -0 41.4055 -0.557888C41.4055 -0.661201 41.4055 -0.702526 41.3022 -0.971138ZM41.3022 -0.971138M33.7811 -9.27747C34.091 -10.1866 34.3596 -10.9718 34.5249 -11.7156L34.5456 -11.7156C34.6489 -11.2197 34.6489 -11.1784 34.8142 -10.7032L36.7771 -4.89702L32.2934 -4.89702ZM32.2934 -4.89702" fill="#fff"/>
 </g>
 <path d="M208.063 -263.373L208.63 -263.373"/>
 <g transform="matrix(1.000000,-0.000000,-0.000000,1.000000,208.346457,-263.373488)">
  <path d="M-29.9114 -11.7579M-25.378 0.508103L-27.9029 -5.07257C-28.0033 -5.30211 -28.0751 -5.30211 -28.1181 -5.30211C-28.1324 -5.30211 -28.2042 -5.30211 -28.362 -5.18734L-29.7249 -4.15441C-29.9114 -4.01095 -29.9114 -3.96791 -29.9114 -3.92487C-29.9114 -3.85314 -29.8683 -3.76706 -29.7679 -3.76706C-29.6818 -3.76706 -29.4379 -3.96791 -29.2801 -4.08268C-29.1941 -4.15441 -28.9789 -4.31222 -28.8211 -4.42699L-25.9949 1.78491C-25.8944 2.01445 -25.8227 2.01445 -25.6936 2.01445C-25.4784 2.01445 -25.4354 1.92838 -25.3349 1.72753L-18.8218 -11.7579C-18.7213 -11.9587 -18.7213 -12.0161 -18.7213 -12.0448C-18.7213 -12.1883 -18.8361 -12.3317 -19.0083 -12.3317C-19.123 -12.3317 -19.2235 -12.26 -19.3382 -12.0305ZM-19.3382 -12.0305" fill="black"/>
 </g>
 <g transform="matrix(1.000000,-0.000000,-0.000000,1.000000,208.346457,-263.373488)">
  <path d="M-19.0034 -11.7579L-11.9799 -11.7579L-11.9799 -12.3317L-19.0034 -12.3317Z" fill="black"/>
 </g>
 <g transform="matrix(1.000000,-0.000000,-0.000000,1.000000,208.346457,-263.373488)">
  <path d="M-18.3005 -0M-17.1671 -8.22037C-16.5502 -8.01952 -16.0481 -8.00518 -15.8903 -8.00518C-14.2692 -8.00518 -13.2363 -9.19591 -13.2363 -9.39676C-13.2363 -9.45414 -13.265 -9.52587 -13.351 -9.52587C-13.3797 -9.52587 -13.4084 -9.52587 -13.5375 -9.46849C-14.3409 -9.12418 -15.0295 -9.08114 -15.4025 -9.08114C-16.3494 -9.08114 -17.0237 -9.36807 -17.2962 -9.48284C-17.3967 -9.52587 -17.4254 -9.52587 -17.4397 -9.52587C-17.5545 -9.52587 -17.5545 -9.4398 -17.5545 -9.21026L-17.5545 -4.94944C-17.5545 -4.69121 -17.5545 -4.60513 -17.3823 -4.60513C-17.3106 -4.60513 -17.2962 -4.61948 -17.1528 -4.79163C-16.7511 -5.37982 -16.0768 -5.72413 -15.3595 -5.72413C-14.5992 -5.72413 -14.2262 -5.02117 -14.1114 -4.77728C-13.8675 -4.21778 -13.8532 -3.51482 -13.8532 -2.96966C-13.8532 -2.42451 -13.8532 -1.60677 -14.2549 -0.961195C-14.5705 -0.444732 -15.13 -0.0860772 -15.7612 -0.0860772C-16.7081 -0.0860772 -17.6406 -0.731656 -17.8988 -1.77893C-17.8271 -1.75024 -17.741 -1.73589 -17.6692 -1.73589C-17.4254 -1.73589 -17.038 -1.87935 -17.038 -2.36712C-17.038 -2.76882 -17.3106 -2.99835 -17.6692 -2.99835C-17.9275 -2.99835 -18.3005 -2.86924 -18.3005 -2.30974C-18.3005 -1.09031 -17.3249 0.30127 -15.7325 0.30127C-14.1114 0.30127 -12.6911 -1.06162 -12.6911 -2.88359C-12.6911 -4.59078 -13.8388 -6.01106 -15.3452 -6.01106C-16.1629 -6.01106 -16.7941 -5.6524 -17.1671 -5.25071ZM-17.1671 -5.25071" fill="black"/>
 </g>
 <g transform="matrix(1.000000,-0.000000,-0.000000,1.000000,208.346457,-263.373488)">
  <path d="M-6.5228 -0M-1.12863 -10.2432C-1.0569 -10.4297 -1.0569 -10.4584 -1.0569 -10.4871C-1.0569 -10.6736 -1.20036 -10.7596 -1.31513 -10.7596C-1.50163 -10.7596 -1.54467 -10.6305 -1.6164 -10.444L-6.45107 3.07009C-6.5228 3.25659 -6.5228 3.28528 -6.5228 3.31397C-6.5228 3.47178 -6.40803 3.58655 -6.25022 3.58655C-6.06372 3.58655 -6.02068 3.44309 -5.9633 3.28528ZM-5.9633 3.28528" fill="black"/>
 </g>
 <g transform="matrix(1.000000,-0.000000,-0.000000,1.000000,208.346457,-263.373488)">
  <path d="M5.11142 -0M10.7208 -2.41016L10.4052 -2.41016C10.3621 -2.16628 10.2474 -1.37723 10.1039 -1.1477C10.0035 -1.01858 9.18574 -1.01858 8.75535 -1.01858L6.10131 -1.01858C6.48865 -1.34854 7.36377 -2.2667 7.73677 -2.61101C9.9174 -4.61948 10.7208 -5.36548 10.7208 -6.78575C10.7208 -8.43556 9.41528 -9.54022 7.75112 -9.54022C6.08696 -9.54022 5.11142 -8.11995 5.11142 -6.88617C5.11142 -6.15452 5.74265 -6.15452 5.78569 -6.15452C6.08696 -6.15452 6.45996 -6.36971 6.45996 -6.82879C6.45996 -7.23048 6.18738 -7.50306 5.78569 -7.50306C5.65658 -7.50306 5.62788 -7.50306 5.58484 -7.48871C5.85742 -8.46426 6.63212 -9.12418 7.56462 -9.12418C8.78405 -9.12418 9.53005 -8.1056 9.53005 -6.78575C9.53005 -5.56632 8.82708 -4.50471 8.00935 -3.58655L5.11142 -0.344309L5.11142 -0L10.3478 -0ZM10.3478 -0" fill="black"/>
 </g>
 <g transform="matrix(1.000000,-0.000000,-0.000000,1.000000,208.346457,-263.373488)">
  <path d="M12.2067 -0M18.2465 -8.90899L18.2465 -9.23895L14.789 -9.23895C13.0531 -9.23895 13.0245 -9.42545 12.9671 -9.69803L12.6515 -9.69803L12.2067 -6.82879L12.5223 -6.82879C12.5654 -7.08702 12.6945 -7.97648 12.881 -8.13429C12.9958 -8.22037 14.0717 -8.22037 14.2726 -8.22037L17.314 -8.22037L15.7933 -6.03975C15.4059 -5.48025 13.957 -3.12747 13.957 -0.430386C13.957 -0.272578 13.957 0.30127 14.5452 0.30127C15.1477 0.30127 15.1477 -0.258232 15.1477 -0.444732L15.1477 -1.16204C15.1477 -3.29963 15.492 -4.96378 16.1663 -5.92498ZM16.1663 -5.92498" fill="black"/>
 </g>
 <g transform="matrix(1.000000,-0.000000,-0.000000,1.000000,208.346457,-263.373488)">
  <path d="M19.0438 -0M24.8827 -4.59078C24.8827 -5.78152 24.811 -6.94356 24.2945 -8.03387C23.7063 -9.2246 22.6734 -9.54022 21.9704 -9.54022C21.1383 -9.54022 20.1198 -9.12418 19.589 -7.93345C19.1873 -7.02964 19.0438 -6.14017 19.0438 -4.59078C19.0438 -3.1992 19.1442 -2.15193 19.6607 -1.13335C20.2202 -0.0430386 21.2101 0.30127 21.9561 0.30127C23.2042 0.30127 23.9215 -0.444732 24.3375 -1.27681C24.854 -2.35278 24.8827 -3.7587 24.8827 -4.59078ZM24.8827 -4.59078M21.9561 0.0143462C21.497 0.0143462 20.5645 -0.243885 20.2919 -1.80762C20.1341 -2.66839 20.1341 -3.7587 20.1341 -4.76294C20.1341 -5.93933 20.1341 -7.00094 20.3636 -7.84737C20.6075 -8.80856 21.3392 -9.2533 21.9561 -9.2533C22.5012 -9.2533 23.3333 -8.92333 23.6059 -7.68956C23.7924 -6.87183 23.7924 -5.73848 23.7924 -4.76294C23.7924 -3.80174 23.7924 -2.71143 23.6346 -1.83631C23.362 -0.258232 22.4582 0.0143462 21.9561 0.0143462ZM21.9561 0.0143462" fill="black"/>
 </g>
 <g transform="matrix(1.000000,-0.000000,-0.000000,1.000000,208.346457,-263.373488)">
  <path d="M26.0271 -5.20611M29.9026 -7.69677C29.9026 -8.76277 29.0159 -9.62952 27.9698 -9.62952C26.8939 -9.62952 26.0271 -8.74285 26.0271 -7.69677C26.0271 -6.64073 26.8939 -5.76402 27.9698 -5.76402C29.0159 -5.76402 29.9026 -6.63077 29.9026 -7.69677ZM29.9026 -7.69677M27.9698 -6.16252C27.1031 -6.16252 26.4256 -6.85991 26.4256 -7.69677C26.4256 -8.53363 27.113 -9.23102 27.9698 -9.23102C28.7967 -9.23102 29.5041 -8.55356 29.5041 -7.69677C29.5041 -6.83998 28.7967 -6.16252 27.9698 -6.16252ZM27.9698 -6.16252" fill="black"/>
 </g>
 <g stroke-linecap="round" stroke-linejoin="round">
  <path d="M-44.1942 81.2537L-255.118 -284.077" stroke="black"/>
 </g>
 <g stroke-linecap="butt" stroke-linejoin="round" stroke-dasharray="2.000000" stroke-dashoffset="0.000000">
  <path d="M-44.1942 81.2537L-148.603 -308.404" stroke="black"/>
 </g>
 <g stroke-linecap="round" stroke-linejoin="round">
  <path d="M-44.1942 81.2537L-44.1942 -304.513" stroke="black"/>
 </g>
 <g stroke-linecap="butt" stroke-linejoin="round" stroke-dasharray="2.000000" stroke-dashoffset="0.000000">
  <path d="M-44.1942 81.2537L51.2841 -275.076" stroke="black"/>
 </g>
 <g stroke-linecap="round" stroke-linejoin="round">
  <path d="M-44.1942 81.2537L132.191 -224.255" stroke="black"/>
 </g>
 <g stroke-linecap="butt" stroke-linejoin="round" stroke-dasharray="2.000000" stroke-dashoffset="0.000000">
  <path d="M-44.1942 81.2537L194.346 -157.287" stroke="black"/>
 </g>
 <g stroke-linecap="round" stroke-linejoin="round">
  <path d="M-44.1942 81.2537L235.183 -80.045" stroke="black"/>
 </g>
 <g stroke-linecap="butt" stroke-linejoin="round" stroke-dasharray="2.000000" stroke-dashoffset="0.000000">
  <path d="M-44.1942 81.2537L253.787 1.4099" stroke="black"/>
 </g>
 <g stroke-linecap="round" stroke-linejoin="round">
  <path d="M-44.1942 81.2537L250.811 81.2537" stroke="black"/>
 </g>
 <g stroke-linecap="butt" stroke-linejoin="round" stroke-dasharray="2.000000" stroke-dashoffset="0.000000">
  <path d="M-44.1942 81.2537L228.3 154.268" stroke="black"/>
 </g>
 <g stroke-linecap="round" stroke-linejoin="round">
  <path d="M-44.1942 81.2537L189.436 216.14" stroke="black"/>
 </g>
 <g stroke-linecap="butt" stroke-linejoin="round" stroke-dasharray="2.000000" stroke-dashoffset="0.000000">
  <path d="M-44.1942 81.2537L138.223 263.671" stroke="black"/>
 </g>
 <g stroke-linecap="round" stroke-linejoin="round">
  <path d="M-44.1942 81.2537L79.1549 294.901" stroke="black"/>
 </g>
 <g stroke-linecap="butt" stroke-linejoin="round" stroke-dasharray="2.000000" stroke-dashoffset="0.000000">
  <path d="M-44.1942 81.2537L16.8643 309.127" stroke="black"/>
 </g>
 <g stroke-linecap="round" stroke-linejoin="round">
  <path d="M-44.1942 81.2537L-44.1942 306.851" stroke="black"/>
 </g>
 <g stroke-linecap="butt" stroke-linejoin="round" stroke-dasharray="2.000000" stroke-dashoffset="0.000000">
  <path d="M-44.1942 81.2537L-100.03 289.637" stroke="black"/>
 </g>
 <g stroke-linecap="round" stroke-linejoin="round">
  <path d="M-44.1942 81.2537L-147.345 259.916" stroke="black"/>
 </g>
 <g stroke-linecap="butt" stroke-linejoin="round" stroke-dasharray="2.000000" stroke-dashoffset="0.000000">
  <path d="M-44.1942 81.2537L-183.693 220.753" stroke="black"/>
 </g>
 <g stroke-linecap="round" stroke-linejoin="round">
  <path d="M-44.1942 81.2537L-207.575 175.582" stroke="black"/>
 </g>
 <g stroke-linecap="butt" stroke-linejoin="round" stroke-dasharray="2.000000" stroke-dashoffset="0.000000">
  <path d="M-44.1942 81.2537L-218.455 127.947" stroke="black"/>
 </g>
 <g stroke-linecap="round" stroke-linejoin="round">
  <path d="M-44.1942 81.2537L-216.714 81.2537" stroke="black"/>
 </g>
 <g stroke-linecap="butt" stroke-linejoin="round" stroke-dasharray="2.000000" stroke-dashoffset="0.000000">
  <path d="M-44.1942 81.2537L-203.55 38.5545" stroke="black"/>
 </g>
 <g stroke-linecap="round" stroke-linejoin="round">
  <path d="M-44.1942 81.2537L-180.822 2.37178" stroke="black"/>
 </g>
 <g stroke-linecap="butt" stroke-linejoin="round" stroke-dasharray="2.000000" stroke-dashoffset="0.000000">
  <path d="M-44.1942 81.2537L-150.873 -25.4247" stroke="black"/>
 </g>
 <g stroke-linecap="round" stroke-linejoin="round">
  <path d="M-44.1942 81.2537L-116.329 -43.6877" stroke="black"/>
 </g>
 <g stroke-linecap="round" stroke-linejoin="round" stroke-width="1.603518">
  <path d="M-255.118 -284.077L-248.101 -286.605L-241.063 -289.002L-234.004 -291.27L-226.929 -293.407L-219.838 -295.415L-212.734 -297.293L-205.62 -299.042L-198.498 -300.661L-191.37 -302.152L-184.238 -303.513L-177.105 -304.747L-169.972 -305.852L-162.843 -306.83L-155.719 -307.68L-148.603 -308.404L-141.496 -309.002L-134.401 -309.475L-127.32 -309.822L-120.255 -310.046L-113.208 -310.145L-106.182 -310.122L-99.178 -309.976L-92.1984 -309.709L-85.2453 -309.322L-78.3207 -308.814L-71.4266 -308.188L-64.5649 -307.444L-57.7377 -306.582L-50.9468 -305.605L-44.1942 -304.513L-37.4817 -303.306L-30.8111 -301.986L-24.1844 -300.555L-17.6034 -299.012L-11.0698 -297.36L-4.58531 -295.599L1.84822 -293.732L8.22913 -291.757L14.5557 -289.679L20.8264 -287.496L27.0394 -285.211L33.1933 -282.826L39.2864 -280.34L45.3171 -277.757L51.2841 -275.076L57.1858 -272.3L63.0207 -269.43L68.7874 -266.468L74.4845 -263.414L80.1107 -260.271L85.6646 -257.04L91.1449 -253.722L96.5503 -250.319L101.88 -246.833L107.132 -243.265L112.305 -239.617L117.399 -235.89L122.412 -232.087L127.343 -228.207L132.191 -224.255L136.955 -220.23L141.635 -216.135L146.228 -211.971L150.735 -207.741L155.154 -203.445L159.484 -199.085L163.725 -194.665L167.876 -190.184L171.936 -185.644L175.904 -181.049L179.78 -176.399L183.562 -171.695L187.251 -166.941L190.846 -162.138L194.346 -157.287L197.751 -152.39L201.059 -147.449L204.272 -142.466L207.387 -137.443L210.406 -132.381L213.327 -127.283L216.15 -122.15L218.875 -116.983L221.502 -111.786L224.03 -106.559L226.459 -101.304L228.789 -96.0235L231.02 -90.7189L233.151 -85.3922L235.183 -80.045L237.116 -74.6792L238.95 -69.2965L240.684 -63.8988L242.318 -58.4878L243.854 -53.0652L245.29 -47.6329L246.627 -42.1926L247.866 -36.7461L249.005 -31.295L250.047 -25.8412L250.99 -20.3863L251.835 -14.932L252.583 -9.4801L253.233 -4.03224L253.787 1.4099L254.244 6.84465L254.606 12.2704L254.871 17.6854L255.042 23.0881L255.118 28.4769L255.1 33.8501L254.989 39.2063L254.785 44.5437L254.488 49.8609L254.1 55.1563L253.621 60.4284L253.052 65.6757L252.394 70.8966L251.646 76.0898L250.811 81.2537L249.888 86.3869L248.879 91.488L247.784 96.5556L246.605 101.588L245.341 106.585L243.995 111.544L242.566 116.463L241.057 121.343L239.467 126.181L237.798 130.977L236.051 135.728L234.226 140.434L232.326 145.093L230.35 149.705L228.3 154.268L226.177 158.781L223.982 163.244L221.717 167.653L219.382 172.01L216.978 176.313L214.507 180.56L211.97 184.751L209.368 188.884L206.702 192.96L203.973 196.976L201.184 200.932L198.334 204.828L195.425 208.661L192.458 212.432L189.436 216.14L186.358 219.783L183.226 223.362L180.042 226.874L176.807 230.321L173.522 233.7L170.188 237.012L166.807 240.255L163.381 243.429L159.909 246.534L156.395 249.568L152.839 252.532L149.242 255.425L145.607 258.246L141.933 260.995L138.223 263.671L134.479 266.275L130.7 268.805L126.89 271.262L123.048 273.644L119.178 275.953L115.279 278.186L111.353 280.345L107.402 282.429L103.428 284.438L99.4305 286.371L95.4121 288.229L91.374 290.01L87.3175 291.716L83.244 293.346L79.1549 294.901L75.0515 296.379L70.9353 297.781L66.8075 299.107L62.6695 300.357L58.5228 301.531L54.3686 302.629L50.2083 303.652L46.0431 304.599L41.8746 305.47L37.7039 306.267L33.5324 306.988L29.3614 307.634L25.1922 308.206L21.0261 308.704L16.8643 309.127L12.7083 309.477L8.55908 309.753L4.41808 309.956L0.286495 310.087L-3.83444 310.145L-7.9435 310.131L-12.0395 310.046L-16.1211 309.89L-20.1873 309.664L-24.2369 309.367L-28.2686 309.001L-32.2813 308.565L-36.2739 308.062L-40.2452 307.49L-44.1942 306.851L-48.1197 306.146L-52.0206 305.374L-55.8959 304.537L-59.7446 303.635L-63.5655 302.668L-67.3576 301.639L-71.1199 300.546L-74.8515 299.392L-78.5513 298.176L-82.2184 296.9L-85.8518 295.564L-89.4506 294.169L-93.0139 292.715L-96.5407 291.204L-100.03 289.637L-103.482 288.013L-106.894 286.335L-110.266 284.602L-113.598 282.817L-116.888 280.979L-120.136 279.089L-123.341 277.149L-126.502 275.159L-129.619 273.12L-132.69 271.034L-135.715 268.9L-138.694 266.721L-141.626 264.496L-144.51 262.228L-147.345 259.916L-150.131 257.562L-152.868 255.168L-155.554 252.733L-158.189 250.259L-160.774 247.746L-163.306 245.197L-165.786 242.612L-168.214 239.991L-170.588 237.337L-172.908 234.649L-175.175 231.93L-177.387 229.179L-179.544 226.399L-181.647 223.59L-183.693 220.753L-185.684 217.889L-187.619 215L-189.498 212.086L-191.32 209.148L-193.085 206.188L-194.793 203.207L-196.444 200.205L-198.038 197.183L-199.574 194.144L-201.052 191.087L-202.473 188.014L-203.836 184.926L-205.14 181.824L-206.387 178.709L-207.575 175.582L-208.705 172.444L-209.778 169.296L-210.792 166.139L-211.748 162.975L-212.646 159.804L-213.485 156.627L-214.268 153.446L-214.992 150.26L-215.658 147.073L-216.267 143.883L-216.819 140.693L-217.313 137.503L-217.75 134.315L-218.131 131.129L-218.455 127.947L-218.722 124.768L-218.933 121.595L-219.089 118.429L-219.189 115.269L-219.233 112.118L-219.223 108.975L-219.158 105.843L-219.038 102.722L-218.865 99.6123L-218.638 96.5156L-218.358 93.4324L-218.025 90.3638L-217.64 87.3106L-217.203 84.2736L-216.714 81.2537L-216.174 78.2518L-215.584 75.2686L-214.944 72.3051L-214.254 69.3619L-213.515 66.44L-212.728 63.5401L-211.893 60.6629L-211.01 57.8093L-210.08 54.98L-209.104 52.1756L-208.082 49.3971L-207.015 46.645L-205.904 43.9201L-204.748 41.223L-203.55 38.5545L-202.308 35.9152L-201.025 33.3058L-199.7 30.7268L-198.334 28.179L-196.929 25.6629L-195.484 23.1791L-194 20.7283L-192.478 18.3109L-190.919 15.9275L-189.324 13.5788L-187.692 11.2651L-186.025 8.98713L-184.324 6.74525L-182.589 4.53997L-180.822 2.37178L-179.022 0.241125L-177.19 -1.85154L-175.328 -3.9058L-173.436 -5.92123L-171.515 -7.89743L-169.566 -9.83402L-167.589 -11.7306L-165.585 -13.5869L-163.555 -15.4025L-161.499 -17.1771L-159.42 -18.9104L-157.316 -20.6021L-155.19 -22.2519L-153.042 -23.8595L-150.873 -25.4247L-148.683 -26.9473L-146.473 -28.427L-144.245 -29.8637L-141.998 -31.257L-139.735 -32.607L-137.455 -33.9133L-135.159 -35.1758L-132.848 -36.3945L-130.524 -37.5691L-128.186 -38.6996L-125.836 -39.7859L-123.475 -40.828L-121.103 -41.8256L-118.72 -42.7789L-116.329 -43.6877L-113.929 -44.5521L-111.522 -45.372L-109.108 -46.1475L-106.688 -46.8786L-104.263 -47.5652L-101.834 -48.2075L-99.401 -48.8055L-96.9653 -49.3594L-94.5275 -49.8691L-92.0885 -50.3347L-89.6489 -50.7565L-87.2097 -51.1346L-84.7716 -51.469L-82.3352 -51.7599L-79.9014 -52.0075L-77.4709 -52.212L-75.0445 -52.3736L-72.6228 -52.4924L-70.2066 -52.5688L-67.7967 -52.6028L-65.3937 -52.5948L-62.9984 -52.5451L-60.6114 -52.4537L-58.2335 -52.3212L-55.8653 -52.1477L-53.5075 -51.9335L-51.1609 -51.679L-48.826 -51.3844L-46.5035 -51.0501L-44.1942 -50.6765L-41.8985 -50.2638L-39.6172 -49.8125L-37.3509 -49.3229L-35.1003 -48.7954L-32.8658 -48.2304L-30.6481 -47.6283L-28.4479 -46.9894L-26.2657 -46.3143L-24.102 -45.6033L-21.9575 -44.8569L-19.8326 -44.0756L-17.728 -43.2596L-15.6442 -42.4097L-13.5817 -41.5261L-11.5411 -40.6094L-9.52272 -39.66L-7.52721 -38.6785L-5.55503 -37.6654L-3.60664 -36.6211L-1.68251 -35.5461L0.21689 -34.4411L2.09112 -33.3064L3.93975 -32.1427L5.76234 -30.9505L7.55849 -29.7302L9.32779 -28.4826L11.0698 -27.208L12.7843 -25.9072L14.4707 -24.5805L16.1288 -23.2287L17.7581 -21.8522L19.3584 -20.4517L20.9294 -19.0278L22.4706 -17.5809L23.9819 -16.1118L25.4628 -14.621L26.9132 -13.109L28.3328 -11.5766L29.7212 -10.0242L31.0783 -8.45252L32.4038 -6.86216L33.6974 -5.2537L34.9591 -3.62777L36.1885 -1.98497L37.3854 -0.325916L38.5498 1.34878L39.6814 3.03849L40.78 4.74261L41.8455 6.46052L42.8779 8.19159L43.8768 9.93521L44.8423 11.6908L45.7743 13.4576L46.6725 15.2352L47.5371 17.0228L48.3678 18.8199L49.1647 20.6258L49.9276 22.4399L50.6566 24.2616L51.3516 26.0903L52.0126 27.9254L52.6396 29.7663L53.2327 31.6123L53.7917 33.4628L54.3168 35.3173L54.808 37.1751L55.2653 39.0357L55.6888 40.8984L56.0786 42.7626L56.4347 44.6278L56.7573 46.4933L57.0464 48.3587L57.3021 50.2232L57.5246 52.0863L57.7139 53.9475L57.8703 55.8062L57.9939 57.6617L58.0848 59.5136L58.1431 61.3613L58.1692 63.2043L58.1631 65.0419L58.125 66.8737L58.0552 68.6991L57.9538 70.5175L57.8211 72.3285L57.6574 74.1316L57.4627 75.9261L57.2374 77.7116L56.9818 79.4877L56.6961 81.2537L56.3805 83.0092L56.0354 84.7538L55.661 86.4869L55.2576 88.2081L54.8255 89.9168L54.365 91.6127L53.8765 93.2953L53.3602 94.9641L52.8165 96.6187L52.2457 98.2587L51.6482 99.8836L51.0242 101.493L50.3742 103.087L49.6985 104.664L48.9975 106.224L48.2715 107.768L47.5209 109.294L46.7462 110.802L45.9476 112.292L45.1255 113.763L44.2805 115.216L43.4128 116.649L42.5228 118.063L41.6111 119.457L40.678 120.83L39.7239 122.183L38.7492 123.515L37.7544 124.827L36.7399 126.116L35.7061 127.384L34.6535 128.63L33.5825 129.854L32.4935 131.055L31.3871 132.234L30.2636 133.39L29.1235 134.522L27.9673 135.631L26.7954 136.717L25.6083 137.779L24.4064 138.816L23.1902 139.83L21.9602 140.819L20.7168 141.784L19.4605 142.724L18.1918 143.64L16.9111 144.53L15.6189 145.395L14.3157 146.236L13.002 147.05L11.6782 147.84L10.3448 148.604L9.00231 149.342L7.65115 150.055L6.29182 150.742L4.92478 151.403L3.55051 152.038L2.16949 152.647L0.782189 153.231L-0.610928 153.788L-2.00939 154.32L-3.41272 154.825L-4.82046 155.305L-6.23214 155.758L-7.6473 156.186L-9.06547 156.587L-10.4862 156.963L-11.909 157.313L-13.3334 157.637L-14.7591 157.935L-16.1854 158.207L-17.6121 158.454L-19.0385 158.675L-20.4644 158.87L-21.8892 159.041L-23.3125 159.185L-24.7338 159.305L-26.1528 159.399L-27.569 159.469L-28.982 159.514L-30.3913 159.533L-31.7966 159.529L-33.1974 159.5L-34.5933 159.446L-35.9839 159.369L-37.3689 159.267L-38.7477 159.142L-40.12 158.993L-41.4855 158.821L-42.8436 158.625L-44.1942 158.407L-45.5367 158.166L-46.8708 157.902L-48.1961 157.615L-49.5123 157.307L-50.8191 156.976L-52.1159 156.624L-53.4027 156.251L-54.6788 155.856L-55.9442 155.44L-57.1983 155.004L-58.4409 154.547L-59.6717 154.07L-60.8903 153.572L-62.0964 153.056L-63.2898 152.52L-64.4702 151.964L-65.6371 151.39L-66.7905 150.798L-67.9299 150.187L-69.0551 149.559L-70.1659 148.912L-71.262 148.249L-72.3431 147.568L-73.4089 146.871L-74.4593 146.158L-75.494 145.428L-76.5128 144.683L-77.5154 143.922L-78.5016 143.146L-79.4712 142.355L-80.4241 141.55L-81.36 140.731L-82.2787 139.899L-83.18 139.053L-84.0638 138.193L-84.9298 137.322L-85.778 136.437L-86.6082 135.541L-87.4202 134.633L-88.2138 133.714L-88.9889 132.784L-89.7455 131.844L-90.4833 130.893L-91.2022 129.932L-91.9022 128.962L-92.5831 127.982L-93.2449 126.994L-93.8874 125.998L-94.5105 124.993L-95.1142 123.981L-95.6984 122.961L-96.263 121.934L-96.808 120.901L-97.3334 119.862L-97.8389 118.816L-98.3247 117.765L-98.7908 116.709L-99.2369 115.648L-99.6632 114.583L-100.07 113.513L-100.456 112.44L-100.823 111.364L-101.17 110.284L-101.497 109.202L-101.804 108.117L-102.091 107.031L-102.358 105.943L-102.606 104.854L-102.834 103.763L-103.042 102.673L-103.231 101.582L-103.4 100.491L-103.55 99.4005L-103.68 98.3109L-103.79 97.2225L-103.882 96.1355L-103.954 95.0504L-104.007 93.9674L-104.041 92.8868L-104.057 91.8091L-104.053 90.7344L-104.031 89.6632L-103.99 88.5957L-103.931 87.5323L-103.853 86.4732L-103.757 85.4188L-103.643 84.3693L-103.512 83.3251L-103.362 82.2865L-103.195 81.2537L-103.011 80.2271L-102.809 79.2068L-102.59 78.1933L-102.354 77.1868L-102.101 76.1875L-101.832 75.1957L-101.546 74.2118L-101.244 73.2358L-100.926 72.2682L-100.593 71.3091L-100.243 70.3589L-99.8782 69.4177L-99.4981 68.4858L-99.103 67.5634L-98.693 66.6508L-98.2684 65.7482L-97.8295 64.8557L-97.3764 63.9738L-96.9094 63.1024L-96.4286 62.2419L-95.9345 61.3925L-95.427 60.5543L-94.9066 59.7276L-94.3734 58.9125L-93.8277 58.1092L-93.2697 57.318L-92.6997 56.5389L-92.118 55.7722L-91.5247 55.018L-90.9201 54.2765L-90.3046 53.5478L-89.6782 52.8321L-89.0414 52.1296L-88.3944 51.4403L-87.7374 50.7644L-87.0706 50.1021L-86.3945 49.4535L-85.7091 48.8187L-85.0149 48.1977L-84.312 47.5908L-83.6008 46.9981L-82.8815 46.4195L-82.1543 45.8553L-81.4196 45.3055L-80.6777 44.7702L-79.9287 44.2495L-79.1731 43.7434L-78.411 43.2521L-77.6427 42.7756L-76.8685 42.3139L-76.0888 41.8672L-75.3037 41.4354L-74.5135 41.0186L-73.7186 40.6169L-72.9191 40.2302L-72.1154 39.8587L-71.3078 39.5024L-70.4965 39.1612L-69.6818 38.8352L-68.864 38.5243L-68.0433 38.2287L-67.2201 37.9483L-66.3945 37.6831L-65.5669 37.4331L-64.7376 37.1983L-63.9067 36.9786L-63.0747 36.7741L-62.2416 36.5847L-61.4079 36.4104L-60.5738 36.2511L-59.7395 36.1068L-58.9053 35.9776L-58.0714 35.8632L-57.2382 35.7637L-56.4059 35.679L-55.5747 35.6091L-54.7448 35.5538L-53.9166 35.5132L-53.0903 35.4871L-52.2661 35.4754L-51.4443 35.4782L-50.6251 35.4952L-49.8088 35.5264L-48.9955 35.5717L-48.1856 35.6311L-47.3793 35.7043L-46.5768 35.7914L-45.7782 35.8921L-44.984 36.0064L-44.1942 36.1342L-43.4091 36.2753L-42.6289 36.4297L-41.8538 36.5971L-41.0841 36.7775L-40.3199 36.9708L-39.5615 37.1767L-38.809 37.3952L-38.0627 37.6261L-37.3227 37.8692L-36.5893 38.1245L-35.8626 38.3917L-35.1429 38.6707L-34.4302 38.9614L-33.7249 39.2636L-33.027 39.5771L-32.3367 39.9018L-31.6543 40.2375L-30.9798 40.584L-30.3134 40.9411L-29.6554 41.3087L-29.0058 41.6866L-28.3648 42.0747L-27.7326 42.4727L-27.1093 42.8804L-26.495 43.2977L-25.8899 43.7244L-25.2941 44.1603L-24.7078 44.6052L-24.1311 45.0589L-23.564 45.5212L-23.0068 45.992L-22.4595 46.4709L-21.9222 46.9579L-21.3951 47.4527L-20.8783 47.9552L-20.3718 48.465L-19.8758 48.9821L-19.3903 49.5062L-18.9155 50.0371L-18.4514 50.5746L-17.998 51.1185L-17.5556 51.6686L-17.1241 52.2246L-16.7037 52.7865L-16.2943 53.3539L-15.8961 53.9266L-15.5091 54.5045L-15.1334 55.0873L-14.769 55.6748L-14.416 56.2668L-14.0743 56.8631L-13.7441 57.4635L-13.4254 58.0678L-13.1182 58.6757L-12.8225 59.287L-12.5384 59.9016L-12.2659 60.5192L-12.005 61.1397L-11.7557 61.7627L-11.518 62.3881L-11.2919 63.0157L-11.0775 63.6452L-10.8747 64.2766L-10.6835 64.9094L-10.5039 65.5437L-10.3359 66.179L-10.1795 66.8153L-10.0347 67.4524L-9.90136 68.0899L-9.77957 68.7278L-9.66926 69.3658L-9.57039 70.0038L-9.48294 70.6414L-9.40685 71.2786L-9.34209 71.9151L-9.2886 72.5508L-9.24635 73.1854L-9.21527 73.8187L-9.1953 74.4506L-9.1864 75.0809L-9.18849 75.7094L-9.20151 76.3358L-9.22538 76.9601L-9.26005 77.582L-9.30543 78.2013L-9.36144 78.818L-9.42801 79.4317L-9.50505 80.0423L-9.59248 80.6497L-9.6902 81.2537L-9.79812 81.8541L-9.91615 82.4507L-10.0442 83.0434L-10.1822 83.6321L-10.3299 84.2164L-10.4874 84.7964L-10.6545 85.3719L-10.831 85.9426L-11.017 86.5085L-11.2122 87.0693L-11.4165 87.625L-11.6299 88.1754L-11.8522 88.7204L-12.0833 89.2598L-12.3231 89.7935L-12.5714 90.3214L-12.828 90.8433L-13.093 91.3591L-13.3661 91.8687L-13.6473 92.3719L-13.9363 92.8686L-14.233 93.3588L-14.5374 93.8423L-14.8492 94.3189L-15.1683 94.7887L-15.4946 95.2514L-15.8279 95.707L-16.1682 96.1554L-16.5151 96.5965L-16.8687 97.0301L-17.2287 97.4562L-17.5949 97.8748L-17.9673 98.2856L-18.3457 98.6887L-18.73 99.0839L-19.1199 99.4713L-19.5153 99.8506L-19.9161 100.222L-20.3221 100.585L-20.7331 100.94L-21.149 101.287L-21.5697 101.625L-21.9949 101.955L-22.4246 102.276L-22.8585 102.589L-23.2965 102.894L-23.7384 103.19L-24.1841 103.477L-24.6334 103.756L-25.0861 104.026L-25.5421 104.287L-26.0012 104.54L-26.4633 104.783L-26.9282 105.018L-27.3957 105.244L-27.8657 105.462L-28.338 105.67L-28.8125 105.87L-29.2889 106.06L-29.7672 106.242L-30.2471 106.415L-30.7286 106.579L-31.2113 106.734L-31.6953 106.88L-32.1803 107.017L-32.6662 107.146L-33.1528 107.266L-33.64 107.376L-34.1275 107.478L-34.6153 107.571L-35.1032 107.656L-35.5911 107.731L-36.0787 107.798L-36.566 107.856L-37.0527 107.906L-37.5388 107.947L-38.0241 107.979L-38.5085 108.003L-38.9917 108.018L-39.4737 108.025L-39.9543 108.023L-40.4333 108.013L-40.9107 107.995L-41.3863 107.969L-41.86 107.934L-42.3315 107.891L-42.8008 107.84L-43.2678 107.781L-43.7323 107.714L-44.1942 107.64L-44.6533 107.557L-45.1096 107.467L-45.5628 107.369L-46.013 107.264L-46.4599 107.151L-46.9034 107.03L-47.3434 106.902L-47.7799 106.767L-48.2126 106.625L-48.6415 106.476L-49.0665 106.32L-49.4874 106.156L-49.9042 105.986L-50.3167 105.81L-50.7248 105.626L-51.1285 105.436L-51.5276 105.24L-51.922 105.038L-52.3117 104.829L-52.6965 104.614L-53.0764 104.393L-53.4512 104.166L-53.821 103.933L-54.1855 103.695L-54.5447 103.45L-54.8986 103.201L-55.247 102.946L-55.5899 102.686L-55.9271 102.421L-56.2588 102.15L-56.5846 101.875L-56.9047 101.595L-57.2189 101.31L-57.5271 101.021L-57.8294 100.727L-58.1256 100.429L-58.4157 100.126L-58.6996 99.8198L-58.9773 99.5093L-59.2487 99.195L-59.5138 98.8769L-59.7725 98.5552L-60.0248 98.23L-60.2707 97.9014L-60.5101 97.5696L-60.743 97.2347L-60.9693 96.8967L-61.189 96.5559L-61.4021 96.2123L-61.6086 95.8661L-61.8084 95.5174L-62.0015 95.1663L-62.1879 94.8129L-62.3675 94.4574L-62.5404 94.0999L-62.7066 93.7405L-62.8659 93.3793L-63.0185 93.0165L-63.1643 92.6521L-63.3033 92.2864L-63.4355 91.9194L-63.5609 91.5512L-63.6795 91.182L-63.7914 90.8119L-63.8964 90.441L-63.9946 90.0694L-64.0861 89.6973L-64.1708 89.3248L-64.2487 88.9519L-64.32 88.5789L-64.3845 88.2058L-64.4423 87.8327L-64.4934 87.4598L-64.5379 87.0872L-64.5758 86.7149L-64.6071 86.3432L-64.6318 85.9721L-64.65 85.6017L-64.6616 85.2322L-64.6668 84.8636L-64.6656 84.4961L-64.658 84.1297L-64.644 83.7646L-64.6238 83.4009L-64.5972 83.0387L-64.5645 82.6781L-64.5256 82.3192L-64.4805 81.9621L-64.4294 81.6069L-64.3722 81.2537L-64.3091 80.9026L-64.2401 80.5537L-64.1652 80.2071L-64.0845 79.8628L-63.9981 79.5211L-63.906 79.1819L-63.8083 78.8454L-63.7051 78.5116L-63.5963 78.1807L-63.4822 77.8527L-63.3626 77.5277L-63.2379 77.2058L-63.1079 76.8871L-62.9727 76.5717L-62.8325 76.2596L-62.6873 75.9509L-62.5372 75.6457L-62.3822 75.344L-62.2225 75.046L-62.0581 74.7518L-61.8891 74.4613L-61.7156 74.1746L-61.5376 73.8919L-61.3552 73.6131L-61.1686 73.3384L-60.9778 73.0678L-60.7828 72.8014L-60.5839 72.5391L-60.381 72.2812L-60.1742 72.0276L-59.9637 71.7784L-59.7495 71.5337L-59.5317 71.2934L-59.3104 71.0577L-59.0857 70.8265L-58.8577 70.6L-58.6265 70.3782L-58.3921 70.1611L-58.1547 69.9487L-57.9143 69.7412L-57.671 69.5384L-57.425 69.3406L-57.1764 69.1476L-56.9251 68.9596L-56.6714 68.7765L-56.4152 68.5984L-56.1568 68.4254L-55.8962 68.2573L-55.6334 68.0944L-55.3687 67.9365L-55.102 67.7837L-54.8335 67.636L-54.5632 67.4935L-54.2914 67.3561L-54.018 67.2239L-53.7431 67.0968L-53.4669 66.9749L-53.1894 66.8583L-52.9108 66.7468L-52.6311 66.6405L-52.3505 66.5394L-52.0689 66.4435L-51.7866 66.3528L-51.5035 66.2673L-51.2199 66.187L-50.9358 66.1118L-50.6512 66.0419L-50.3663 65.9771L-50.0812 65.9175L-49.7959 65.863L-49.5106 65.8137L-49.2253 65.7695L-48.9401 65.7304L-48.6552 65.6963L-48.3705 65.6674L-48.0862 65.6435L-47.8024 65.6246L-47.5192 65.6107L-47.2366 65.6017L-46.9547 65.5978L-46.6737 65.5987L-46.3935 65.6045L-46.1143 65.6152L-45.8362 65.6307L-45.5592 65.651L-45.2835 65.676L-45.009 65.7058L-44.7359 65.7403L-44.4643 65.7794L-44.1942 65.8231L-43.9257 65.8713L-43.6589 65.9241L-43.3938 65.9814L-43.1305 66.0431L-42.8692 66.1092L-42.6098 66.1796L-42.3525 66.2543L-42.0972 66.3333L-41.8442 66.4164L-41.5934 66.5037L-41.3448 66.5951L-41.0987 66.6905L-40.855 66.79L-40.6137 66.8933L-40.375 67.0005L-40.139 67.1116L-39.9056 67.2263L-39.6749 67.3448L-39.447 67.467L-39.222 67.5927L-38.9998 67.722L-38.7806 67.8547L-38.5644 67.9908L-38.3512 68.1302L-38.1411 68.2729L-37.9342 68.4189L-37.7305 68.5679L-37.5299 68.7201L-37.3327 68.8753" stroke="black"/>
 </g>
</svg>
