<?xml version="1.0" encoding="utf-8"?>
<svg xmlns="http://www.w3.org/2000/svg" fill="none" version="1.1" viewBox="-204.91 -379.425 409.82 758.85" x="-204.91pt" y="-379.425pt" width="409.82pt" height="758.85pt" stroke-width="0.566929" stroke-miterlimit="10.000000">
 <path d="M108.949 -351.496L203.91 -351.496L203.91 -378.425L108.949 -378.425Z" fill="black"/>
 <path d="M156.855 -357.165L157.422 -357.165"/>
 <g transform="matrix(1.000000,-0.000000,-0.000000,1.000000,157.138256,-357.165354)">
  <path d="M-40.4207 -0M-30.8333 -6.75664C-31.2672 -5.70286 -32.0317 -3.8019 -32.197 -3.07872L-32.2177 -3.07872C-32.4036 -3.82257 -33.2508 -5.86816 -33.6847 -6.96327L-36.3295 -13.4926C-36.6808 -14.3398 -37.342 -14.3398 -37.7139 -14.3398L-39.4289 -14.3398C-40.1727 -14.3398 -40.4207 -14.1125 -40.4207 -13.348L-40.4207 -0.991801C-40.4207 -0.24795 -40.1934 -0 -39.4289 -0L-38.871 -0C-38.0858 -0 -37.8792 -0.268613 -37.8792 -0.991801L-37.8792 -11.6743L-37.8585 -11.6743C-37.6313 -10.7445 -36.7014 -8.45097 -36.2055 -7.23188L-33.8087 -1.34306C-33.4368 -0.454575 -32.9409 -0.454575 -32.2383 -0.454575C-31.5358 -0.454575 -31.0399 -0.454575 -30.668 -1.34306L-28.0232 -7.8311C-27.8166 -8.327 -26.7008 -11.1371 -26.5561 -11.6743L-26.5355 -11.6743L-26.5355 -0.991801C-26.5355 -0.3306 -26.3908 -0 -25.5437 -0L-24.9858 -0C-24.2006 -0 -23.994 -0.268613 -23.994 -0.991801L-23.994 -13.348C-23.994 -14.0092 -24.1386 -14.3398 -24.9858 -14.3398L-26.7214 -14.3398C-27.238 -14.3398 -27.7546 -14.2985 -28.1058 -13.4513ZM-28.1058 -13.4513" fill="#fff"/>
 </g>
 <g transform="matrix(1.000000,-0.000000,-0.000000,1.000000,157.138256,-357.165354)">
  <path d="M-20.2172 -0M-10.6298 -6.75664C-11.0637 -5.70286 -11.8283 -3.8019 -11.9936 -3.07872L-12.0142 -3.07872C-12.2002 -3.82257 -13.0473 -5.86816 -13.4813 -6.96327L-16.1261 -13.4926C-16.4773 -14.3398 -17.1385 -14.3398 -17.5104 -14.3398L-19.2254 -14.3398C-19.9693 -14.3398 -20.2172 -14.1125 -20.2172 -13.348L-20.2172 -0.991801C-20.2172 -0.24795 -19.9899 -0 -19.2254 -0L-18.6675 -0C-17.8824 -0 -17.6757 -0.268613 -17.6757 -0.991801L-17.6757 -11.6743L-17.6551 -11.6743C-17.4278 -10.7445 -16.498 -8.45097 -16.0021 -7.23188L-13.6052 -1.34306C-13.2333 -0.454575 -12.7374 -0.454575 -12.0349 -0.454575C-11.3324 -0.454575 -10.8364 -0.454575 -10.4645 -1.34306L-7.81972 -7.8311C-7.6131 -8.327 -6.49732 -11.1371 -6.35268 -11.6743L-6.33202 -11.6743L-6.33202 -0.991801C-6.33202 -0.3306 -6.18738 -0 -5.34022 -0L-4.78233 -0C-3.99716 -0 -3.79053 -0.268613 -3.79053 -0.991801L-3.79053 -13.348C-3.79053 -14.0092 -3.93517 -14.3398 -4.78233 -14.3398L-6.51798 -14.3398C-7.03455 -14.3398 -7.55111 -14.2985 -7.90237 -13.4513ZM-7.90237 -13.4513" fill="#fff"/>
 </g>
 <g transform="matrix(1.000000,-0.000000,-0.000000,1.000000,157.138256,-357.165354)">
  <path d="M-1.02624 -0M7.89997 -13.4513C7.59003 -14.3398 6.99082 -14.3398 6.57757 -14.3398L4.75927 -14.3398C4.34602 -14.3398 3.7468 -14.3398 3.43686 -13.4513L-0.922928 -0.971138C-1.02624 -0.702526 -1.02624 -0.661201 -1.02624 -0.557888C-1.02624 -0 -0.509677 -0 -0.220402 -0L0.523449 -0C0.895374 -0 1.53591 -0 1.82519 -0.826501L2.63103 -3.12004L8.35454 -3.12004L9.05707 -1.13644C9.30502 -0.41325 9.44966 -0 10.4415 -0L11.5572 -0C11.8465 -0 12.3631 -0 12.3631 -0.557888C12.3631 -0.661201 12.3631 -0.702526 12.2598 -0.971138ZM12.2598 -0.971138M4.7386 -9.27747C5.04854 -10.1866 5.31715 -10.9718 5.48245 -11.7156L5.50312 -11.7156C5.60643 -11.2197 5.60643 -11.1784 5.77173 -10.7032L7.73467 -4.89702L3.2509 -4.89702ZM3.2509 -4.89702" fill="#fff"/>
 </g>
 <g transform="matrix(1.000000,-0.000000,-0.000000,1.000000,157.138256,-357.165354)">
  <path d="M13.8876 -0M25.8512 -2.95474C25.8512 -3.12004 25.7065 -3.20269 25.6239 -3.20269C25.128 -3.20269 24.5288 -1.85963 21.6154 -1.85963C17.9788 -1.85963 16.9456 -4.09118 16.9456 -7.19056C16.9456 -10.2693 18.0614 -12.5008 21.4501 -12.5008C23.289 -12.5008 24.2602 -11.7776 24.8181 -11.3231C24.942 -11.2197 25.004 -11.1371 25.1487 -11.1371C25.2313 -11.1371 25.3346 -11.2404 25.3553 -11.3231L25.7685 -13.6166C25.7892 -13.6993 25.7685 -13.7819 25.6032 -13.8439C24.3841 -14.2985 23.1237 -14.5877 21.512 -14.5877C16.4704 -14.5877 13.8876 -12.1289 13.8876 -7.21122C13.8876 -2.1489 16.5117 0.206625 21.5327 0.206625C23.289 0.206625 24.3841 -0.041325 25.8925 -0.971138C26.0578 -1.07445 26.0165 -1.21909 26.0165 -1.21909ZM26.0165 -1.21909" fill="#fff"/>
 </g>
 <g transform="matrix(1.000000,-0.000000,-0.000000,1.000000,157.138256,-357.165354)">
  <path d="M28.0162 -0M36.9424 -13.4513C36.6325 -14.3398 36.0333 -14.3398 35.62 -14.3398L33.8017 -14.3398C33.3885 -14.3398 32.7893 -14.3398 32.4793 -13.4513L28.1195 -0.971138C28.0162 -0.702526 28.0162 -0.661201 28.0162 -0.557888C28.0162 -0 28.5328 -0 28.8221 -0L29.5659 -0C29.9378 -0 30.5784 -0 30.8676 -0.826501L31.6735 -3.12004L37.397 -3.12004L38.0995 -1.13644C38.3475 -0.41325 38.4921 -0 39.4839 -0L40.5997 -0C40.889 -0 41.4055 -0 41.4055 -0.557888C41.4055 -0.661201 41.4055 -0.702526 41.3022 -0.971138ZM41.3022 -0.971138M33.7811 -9.27747C34.091 -10.1866 34.3596 -10.9718 34.5249 -11.7156L34.5456 -11.7156C34.6489 -11.2197 34.6489 -11.1784 34.8142 -10.7032L36.7771 -4.89702L32.2934 -4.89702ZM32.2934 -4.89702" fill="#fff"/>
 </g>
 <path d="M156.855 -331.654L157.422 -331.654"/>
 <g transform="matrix(1.000000,-0.000000,-0.000000,1.000000,157.138256,-331.653543)">
  <path d="M-24.5937 -0M-19.8021 -9.33937C-19.8021 -9.61195 -19.8021 -9.68368 -20.0029 -9.68368C-20.1177 -9.68368 -20.1607 -9.68368 -20.2755 -9.51153L-24.5937 -2.81185L-24.5937 -2.39581L-20.8206 -2.39581L-20.8206 -1.09031C-20.8206 -0.559502 -20.8493 -0.41604 -21.8966 -0.41604L-22.1835 -0.41604L-22.1835 -0C-21.8536 -0.0286924 -20.7202 -0.0286924 -20.3185 -0.0286924C-19.9168 -0.0286924 -18.7691 -0.0286924 -18.4392 -0L-18.4392 -0.41604L-18.7261 -0.41604C-19.759 -0.41604 -19.8021 -0.559502 -19.8021 -1.09031L-19.8021 -2.39581L-18.3531 -2.39581L-18.3531 -2.81185L-19.8021 -2.81185ZM-19.8021 -2.81185M-20.7489 -8.22037L-20.7489 -2.81185L-24.235 -2.81185ZM-24.235 -2.81185" fill="black"/>
 </g>
 <g transform="matrix(1.000000,-0.000000,-0.000000,1.000000,157.138256,-331.653543)">
  <path d="M-12.5004 -0M-7.10623 -10.2432C-7.0345 -10.4297 -7.0345 -10.4584 -7.0345 -10.4871C-7.0345 -10.6736 -7.17796 -10.7596 -7.29273 -10.7596C-7.47923 -10.7596 -7.52227 -10.6305 -7.594 -10.444L-12.4287 3.07009C-12.5004 3.25659 -12.5004 3.28528 -12.5004 3.31397C-12.5004 3.47178 -12.3856 3.58655 -12.2278 3.58655C-12.0413 3.58655 -11.9983 3.44309 -11.9409 3.28528ZM-11.9409 3.28528" fill="black"/>
 </g>
 <g transform="matrix(1.000000,-0.000000,-0.000000,1.000000,157.138256,-331.653543)">
  <path d="M-0.263639 -0M2.56256 -9.19591C2.56256 -9.52587 2.56256 -9.54022 2.27564 -9.54022C1.93133 -9.15287 1.21402 -8.62206 -0.263639 -8.62206L-0.263639 -8.20602C0.0663231 -8.20602 0.783633 -8.20602 1.57267 -8.57903L1.57267 -1.10466C1.57267 -0.588194 1.52964 -0.41604 0.26717 -0.41604L-0.177562 -0.41604L-0.177562 -0C0.209785 -0.0286924 1.60137 -0.0286924 2.07479 -0.0286924C2.54821 -0.0286924 3.92545 -0.0286924 4.3128 -0L4.3128 -0.41604L3.86806 -0.41604C2.6056 -0.41604 2.56256 -0.588194 2.56256 -1.10466ZM2.56256 -1.10466" fill="black"/>
 </g>
 <g transform="matrix(1.000000,-0.000000,-0.000000,1.000000,157.138256,-331.653543)">
  <path d="M6.04262 -0M9.7296 -5.17898C10.4469 -5.56632 11.4942 -6.22625 11.4942 -7.43133C11.4942 -8.67945 10.2891 -9.54022 8.96925 -9.54022C7.54897 -9.54022 6.42997 -8.49295 6.42997 -7.18744C6.42997 -6.69967 6.57343 -6.2119 6.97513 -5.72413C7.13293 -5.53763 7.14728 -5.52329 8.15151 -4.82032C6.75993 -4.17474 6.04262 -3.21355 6.04262 -2.16628C6.04262 -0.645579 7.49159 0.30127 8.9549 0.30127C10.5473 0.30127 11.8815 -0.875118 11.8815 -2.38147C11.8815 -3.84478 10.8486 -4.49036 9.7296 -5.17898ZM9.7296 -5.17898M7.77851 -6.47013C7.59201 -6.59925 7.01817 -6.97225 7.01817 -7.67521C7.01817 -8.60772 7.99371 -9.19591 8.9549 -9.19591C9.98783 -9.19591 10.906 -8.44991 10.906 -7.41698C10.906 -6.54187 10.2748 -5.8389 9.44267 -5.37982ZM9.44267 -5.37982M8.45278 -4.61948L10.1887 -3.48613C10.5617 -3.24224 11.2216 -2.79751 11.2216 -1.92239C11.2216 -0.832079 10.1169 -0.0860772 8.96925 -0.0860772C7.74982 -0.0860772 6.70255 -0.975541 6.70255 -2.16628C6.70255 -3.28528 7.52028 -4.18909 8.45278 -4.61948ZM8.45278 -4.61948" fill="black"/>
 </g>
 <g transform="matrix(1.000000,-0.000000,-0.000000,1.000000,157.138256,-331.653543)">
  <path d="M13.0662 -0M18.9051 -4.59078C18.9051 -5.78152 18.8334 -6.94356 18.3169 -8.03387C17.7287 -9.2246 16.6958 -9.54022 15.9928 -9.54022C15.1607 -9.54022 14.1422 -9.12418 13.6114 -7.93345C13.2097 -7.02964 13.0662 -6.14017 13.0662 -4.59078C13.0662 -3.1992 13.1666 -2.15193 13.6831 -1.13335C14.2426 -0.0430386 15.2325 0.30127 15.9785 0.30127C17.2266 0.30127 17.9439 -0.444732 18.3599 -1.27681C18.8764 -2.35278 18.9051 -3.7587 18.9051 -4.59078ZM18.9051 -4.59078M15.9785 0.0143462C15.5194 0.0143462 14.5869 -0.243885 14.3143 -1.80762C14.1565 -2.66839 14.1565 -3.7587 14.1565 -4.76294C14.1565 -5.93933 14.1565 -7.00094 14.386 -7.84737C14.6299 -8.80856 15.3616 -9.2533 15.9785 -9.2533C16.5236 -9.2533 17.3557 -8.92333 17.6283 -7.68956C17.8148 -6.87183 17.8148 -5.73848 17.8148 -4.76294C17.8148 -3.80174 17.8148 -2.71143 17.657 -1.83631C17.3844 -0.258232 16.4806 0.0143462 15.9785 0.0143462ZM15.9785 0.0143462" fill="black"/>
 </g>
 <g transform="matrix(1.000000,-0.000000,-0.000000,1.000000,157.138256,-331.653543)">
  <path d="M20.0495 -5.20611M23.925 -7.69677C23.925 -8.76277 23.0383 -9.62952 21.9922 -9.62952C20.9163 -9.62952 20.0495 -8.74285 20.0495 -7.69677C20.0495 -6.64073 20.9163 -5.76402 21.9922 -5.76402C23.0383 -5.76402 23.925 -6.63077 23.925 -7.69677ZM23.925 -7.69677M21.9922 -6.16252C21.1255 -6.16252 20.448 -6.85991 20.448 -7.69677C20.448 -8.53363 21.1354 -9.23102 21.9922 -9.23102C22.8191 -9.23102 23.5265 -8.55356 23.5265 -7.69677C23.5265 -6.83998 22.8191 -6.16252 21.9922 -6.16252ZM21.9922 -6.16252" fill="black"/>
 </g>
 <g stroke-linecap="round" stroke-linejoin="round">
  <path d="M-122.346 215.297L-122.346 -378.425" stroke="black"/>
 </g>
 <g stroke-linecap="butt" stroke-linejoin="round" stroke-dasharray="2.000000" stroke-dashoffset="0.000000">
  <path d="M-122.346 215.297L14.5555 -295.626" stroke="black"/>
 </g>
 <g stroke-linecap="round" stroke-linejoin="round">
  <path d="M-122.346 215.297L113.273 -192.807" stroke="black"/>
 </g>
 <g stroke-linecap="butt" stroke-linejoin="round" stroke-dasharray="2.000000" stroke-dashoffset="0.000000">
  <path d="M-122.346 215.297L174.515 -81.564" stroke="black"/>
 </g>
 <g stroke-linecap="round" stroke-linejoin="round">
  <path d="M-122.346 215.297L201.566 28.2864" stroke="black"/>
 </g>
 <g stroke-linecap="butt" stroke-linejoin="round" stroke-dasharray="2.000000" stroke-dashoffset="0.000000">
  <path d="M-122.346 215.297L199.515 129.055" stroke="black"/>
 </g>
 <g stroke-linecap="round" stroke-linejoin="round">
  <path d="M-122.346 215.297L174.515 215.297" stroke="black"/>
 </g>
 <g stroke-linecap="butt" stroke-linejoin="round" stroke-dasharray="2.000000" stroke-dashoffset="0.000000">
  <path d="M-122.346 215.297L133.116 283.748" stroke="black"/>
 </g>
 <g stroke-linecap="round" stroke-linejoin="round">
  <path d="M-122.346 215.297L81.706 333.107" stroke="black"/>
 </g>
 <g stroke-linecap="butt" stroke-linejoin="round" stroke-dasharray="2.000000" stroke-dashoffset="0.000000">
  <path d="M-122.346 215.297L26.0847 363.728" stroke="black"/>
 </g>
 <g stroke-linecap="round" stroke-linejoin="round">
  <path d="M-122.346 215.297L-28.8405 377.253" stroke="black"/>
 </g>
 <g stroke-linecap="butt" stroke-linejoin="round" stroke-dasharray="2.000000" stroke-dashoffset="0.000000">
  <path d="M-122.346 215.297L-79.2247 376.228" stroke="black"/>
 </g>
 <g stroke-linecap="round" stroke-linejoin="round">
  <path d="M-122.346 215.297L-122.346 363.728" stroke="black"/>
 </g>
 <g stroke-linecap="butt" stroke-linejoin="round" stroke-dasharray="2.000000" stroke-dashoffset="0.000000">
  <path d="M-122.346 215.297L-156.571 343.028" stroke="black"/>
 </g>
 <g stroke-linecap="round" stroke-linejoin="round">
  <path d="M-122.346 215.297L-181.251 317.323" stroke="black"/>
 </g>
 <g stroke-linecap="butt" stroke-linejoin="round" stroke-dasharray="2.000000" stroke-dashoffset="0.000000">
  <path d="M-122.346 215.297L-196.561 289.513" stroke="black"/>
 </g>
 <g stroke-linecap="round" stroke-linejoin="round">
  <path d="M-122.346 215.297L-203.324 262.05" stroke="black"/>
 </g>
 <g stroke-linecap="butt" stroke-linejoin="round" stroke-dasharray="2.000000" stroke-dashoffset="0.000000">
  <path d="M-122.346 215.297L-202.811 236.858" stroke="black"/>
 </g>
 <g stroke-linecap="round" stroke-linejoin="round">
  <path d="M-122.346 215.297L-196.561 215.297" stroke="black"/>
 </g>
 <g stroke-linecap="butt" stroke-linejoin="round" stroke-dasharray="2.000000" stroke-dashoffset="0.000000">
  <path d="M-122.346 215.297L-186.211 198.185" stroke="black"/>
 </g>
 <g stroke-linecap="round" stroke-linejoin="round">
  <path d="M-122.346 215.297L-173.359 185.845" stroke="black"/>
 </g>
 <g stroke-linecap="butt" stroke-linejoin="round" stroke-dasharray="2.000000" stroke-dashoffset="0.000000">
  <path d="M-122.346 215.297L-159.454 178.19" stroke="black"/>
 </g>
 <g stroke-linecap="round" stroke-linejoin="round">
  <path d="M-122.346 215.297L-145.722 174.808" stroke="black"/>
 </g>
 <g stroke-linecap="butt" stroke-linejoin="round" stroke-dasharray="2.000000" stroke-dashoffset="0.000000">
  <path d="M-122.346 215.297L-133.126 175.065" stroke="black"/>
 </g>
 <g stroke-linecap="round" stroke-linejoin="round">
  <path d="M-122.346 215.297L-122.346 178.19" stroke="black"/>
 </g>
 <g stroke-linecap="round" stroke-linejoin="round" stroke-width="1.603518">
  <path d="M-122.346 -378.425L-112.064 -373.78L-101.942 -368.994L-91.9826 -364.069L-82.1864 -359.011L-72.5544 -353.823L-63.0876 -348.508L-53.7869 -343.071L-44.6532 -337.515L-35.6871 -331.845L-26.8894 -326.064L-18.2606 -320.176L-9.80124 -314.184L-1.51188 -308.093L6.60715 -301.905L14.5555 -295.626L22.3329 -289.258L29.9392 -282.805L37.3743 -276.271L44.638 -269.659L51.7303 -262.973L58.6514 -256.217L65.4014 -249.394L71.9804 -242.507L78.3886 -235.56L84.6264 -228.556L90.6941 -221.5L96.5921 -214.393L102.321 -207.24L107.881 -200.043L113.273 -192.807L118.497 -185.533L123.555 -178.227L128.447 -170.889L133.173 -163.525L137.734 -156.136L142.132 -148.726L146.368 -141.298L150.441 -133.854L154.354 -126.399L158.107 -118.933L161.701 -111.462L165.138 -103.986L168.419 -96.5095L171.544 -89.0345L174.515 -81.564L177.334 -74.1004L180.002 -66.6463L182.519 -59.2044L184.888 -51.7771L187.11 -44.3669L189.186 -36.9762L191.118 -29.6074L192.907 -22.2627L194.555 -14.9445L196.063 -7.65506L197.433 -0.396491L198.667 6.82902L199.766 14.0194L200.732 21.1725L201.566 28.2864L202.271 35.3591L202.848 42.3887L203.298 49.3733L203.624 56.311L203.828 63.2001L203.91 70.0388L203.873 76.8255L203.719 83.5584L203.45 90.236L203.067 96.8566L202.572 103.419L201.968 109.921L201.256 116.362L200.438 122.741L199.515 129.055L198.491 135.304L197.366 141.486L196.144 147.6L194.824 153.646L193.411 159.621L191.905 165.525L190.308 171.357L188.623 177.115L186.852 182.799L184.996 188.408L183.057 193.941L181.038 199.398L178.94 204.776L176.765 210.076L174.515 215.297L172.193 220.438L169.8 225.499L167.337 230.479L164.808 235.377L162.214 240.193L159.557 244.926L156.838 249.577L154.06 254.144L151.225 258.627L148.335 263.026L145.391 267.34L142.395 271.57L139.349 275.714L136.255 279.774L133.116 283.748L129.932 287.637L126.705 291.44L123.438 295.157L120.132 298.789L116.789 302.335L113.411 305.796L110 309.171L106.556 312.46L103.083 315.665L99.5809 318.783L96.0525 321.817L92.4991 324.766L88.9225 327.631L85.3243 330.411L81.706 333.107L78.0694 335.719L74.416 338.248L70.7474 340.694L67.0651 343.057L63.3707 345.337L59.6657 347.536L55.9516 349.654L52.2299 351.691L48.502 353.647L44.7694 355.524L41.0335 357.321L37.2957 359.039L33.5574 360.68L29.82 362.242L26.0847 363.728L22.3529 365.137L18.6259 366.471L14.9049 367.73L11.1913 368.914L7.48616 370.025L3.7908 371.063L0.106376 372.029L-3.56595 372.924L-7.22505 373.748L-10.8698 374.502L-14.4991 375.187L-18.1118 375.804L-21.707 376.353L-25.2836 376.836L-28.8405 377.253L-32.3769 377.606L-35.8917 377.894L-39.3839 378.119L-42.8528 378.282L-46.2974 378.384L-49.7167 378.425L-53.11 378.407L-56.4765 378.33L-59.8153 378.195L-63.1256 378.004L-66.4068 377.756L-69.6579 377.454L-72.8784 377.098L-76.0676 376.689L-79.2247 376.228L-82.3491 375.716L-85.4402 375.153L-88.4974 374.542L-91.5201 373.882L-94.5077 373.176L-97.4597 372.423L-100.376 371.624L-103.255 370.782L-106.097 369.896L-108.901 368.968L-111.668 367.999L-114.396 366.989L-117.085 365.94L-119.735 364.853L-122.346 363.728L-124.917 362.567L-127.447 361.37L-129.937 360.139L-132.386 358.874L-134.794 357.577L-137.161 356.249L-139.486 354.889L-141.769 353.5L-144.011 352.083L-146.21 350.638L-148.367 349.165L-150.482 347.668L-152.554 346.145L-154.584 344.598L-156.571 343.028L-158.516 341.436L-160.417 339.823L-162.276 338.189L-164.092 336.536L-165.865 334.865L-167.595 333.176L-169.283 331.47L-170.928 329.748L-172.53 328.012L-174.089 326.261L-175.606 324.496L-177.08 322.72L-178.513 320.931L-179.903 319.132L-181.251 317.323L-182.557 315.505L-183.821 313.678L-185.044 311.844L-186.226 310.003L-187.366 308.156L-188.466 306.303L-189.524 304.446L-190.543 302.585L-191.521 300.721L-192.459 298.855L-193.358 296.987L-194.217 295.118L-195.037 293.249L-195.818 291.38L-196.561 289.513L-197.266 287.647L-197.933 285.783L-198.562 283.923L-199.154 282.066L-199.71 280.213L-200.229 278.366L-200.712 276.523L-201.159 274.687L-201.571 272.858L-201.948 271.035L-202.291 269.221L-202.599 267.414L-202.874 265.617L-203.115 263.828L-203.324 262.05L-203.5 260.282L-203.644 258.524L-203.757 256.778L-203.838 255.044L-203.889 253.322L-203.91 251.612L-203.901 249.915L-203.862 248.232L-203.795 246.563L-203.699 244.907L-203.576 243.267L-203.424 241.641L-203.246 240.031L-203.042 238.436L-202.811 236.858L-202.555 235.296L-202.274 233.75L-201.968 232.222L-201.639 230.71L-201.285 229.216L-200.909 227.74L-200.51 226.282L-200.088 224.843L-199.645 223.422L-199.181 222.019L-198.697 220.636L-198.192 219.272L-197.667 217.928L-197.124 216.603L-196.561 215.297L-195.981 214.012L-195.382 212.747L-194.767 211.502L-194.134 210.277L-193.486 209.073L-192.822 207.89L-192.142 206.727L-191.448 205.586L-190.739 204.465L-190.016 203.365L-189.28 202.287L-188.531 201.229L-187.77 200.193L-186.996 199.178L-186.211 198.185L-185.415 197.212L-184.609 196.262L-183.792 195.332L-182.966 194.424L-182.13 193.538L-181.285 192.673L-180.432 191.829L-179.571 191.006L-178.703 190.205L-177.828 189.426L-176.946 188.667L-176.057 187.93L-175.163 187.214L-174.263 186.519L-173.359 185.845L-172.45 185.192L-171.536 184.56L-170.619 183.948L-169.699 183.357L-168.775 182.787L-167.849 182.237L-166.92 181.708L-165.99 181.199L-165.058 180.71L-164.125 180.241L-163.191 179.791L-162.256 179.362L-161.322 178.952L-160.387 178.561L-159.454 178.19L-158.521 177.837L-157.589 177.504L-156.659 177.189L-155.73 176.893L-154.804 176.615L-153.88 176.356L-152.959 176.114L-152.041 175.891L-151.126 175.685L-150.215 175.496L-149.308 175.325L-148.404 175.171L-147.506 175.033L-146.612 174.913L-145.722 174.808L-144.838 174.72L-143.96 174.648L-143.086 174.592L-142.219 174.551L-141.358 174.526L-140.503 174.515L-139.655 174.52L-138.813 174.539L-137.979 174.573L-137.151 174.621L-136.331 174.682L-135.518 174.758L-134.713 174.847L-133.916 174.949L-133.126 175.065L-132.345 175.193L-131.572 175.333L-130.808 175.486L-130.052 175.651L-129.306 175.828L-128.568 176.016L-127.839 176.215L-127.119 176.426L-126.408 176.648L-125.707 176.88L-125.015 177.122L-124.333 177.374L-123.661 177.637L-122.999 177.908L-122.346 178.19L-121.703 178.48L-121.071 178.779L-120.448 179.087L-119.836 179.403L-119.234 179.727L-118.642 180.059L-118.061 180.399L-117.49 180.746L-116.93 181.101L-116.38 181.462L-115.841 181.83L-115.312 182.205L-114.794 182.585L-114.286 182.972L-113.79 183.365L-113.304 183.763L-112.828 184.166L-112.363 184.574L-111.909 184.987L-111.466 185.405L-111.034 185.828L-110.612 186.254L-110.201 186.685L-109.8 187.119L-109.41 187.556L-109.031 187.997L-108.662 188.442L-108.304 188.889L-107.957 189.338L-107.62 189.791L-107.293 190.245L-106.977 190.702L-106.671 191.161L-106.376 191.621L-106.091 192.083L-105.816 192.546L-105.551 193.01L-105.297 193.475L-105.052 193.941L-104.818 194.408L-104.593 194.875L-104.378 195.342L-104.173 195.809L-103.978 196.277L-103.792 196.743L-103.616 197.21L-103.449 197.676L-103.292 198.141L-103.144 198.605L-103.005 199.068L-102.875 199.53L-102.754 199.991L-102.643 200.45L-102.54 200.907L-102.445 201.363L-102.36 201.816L-102.283 202.268L-102.214 202.717L-102.154 203.164L-102.101 203.609L-102.057 204.051L-102.021 204.49L-101.993 204.927L-101.973 205.361L-101.96 205.791L-101.955 206.219L-101.957 206.643L-101.967 207.064L-101.984 207.481L-102.008 207.895L-102.039 208.305L-102.076 208.711L-102.121 209.114L-102.172 209.512L-102.23 209.907L-102.294 210.298L-102.364 210.684L-102.44 211.066L-102.523 211.444L-102.611 211.817L-102.705 212.186L-102.805 212.551L-102.91 212.911L-103.021 213.266L-103.137 213.617L-103.258 213.963L-103.384 214.304L-103.516 214.64L-103.652 214.971L-103.792 215.297L-103.937 215.619L-104.087 215.935L-104.241 216.246L-104.399 216.552L-104.561 216.853L-104.727 217.149L-104.897 217.44L-105.071 217.725L-105.248 218.005L-105.428 218.28L-105.612 218.55L-105.8 218.814L-105.99 219.073L-106.183 219.327L-106.38 219.575L-106.579 219.818L-106.78 220.056L-106.984 220.289L-107.191 220.516L-107.4 220.737L-107.611 220.953L-107.824 221.164L-108.04 221.37L-108.257 221.57L-108.476 221.765L-108.696 221.955L-108.918 222.139L-109.142 222.318L-109.367 222.492" stroke="black"/>
 </g>
</svg>
