<?xml version="1.0" encoding="utf-8"?>
<svg xmlns="http://www.w3.org/2000/svg" fill="none" version="1.1" viewBox="-243.68 -379.425 487.359 758.85" x="-243.68pt" y="-379.425pt" width="487.359pt" height="758.85pt" stroke-width="0.566929" stroke-miterlimit="10.000000">
 <path d="M147.719 -351.496L242.68 -351.496L242.68 -378.425L147.719 -378.425Z" fill="black"/>
 <path d="M195.624 -357.165L196.191 -357.165"/>
 <g transform="matrix(1.000000,-0.000000,-0.000000,1.000000,195.907867,-357.165354)">
  <path d="M-40.4207 -0M-30.8333 -6.75664C-31.2672 -5.70286 -32.0317 -3.8019 -32.197 -3.07872L-32.2177 -3.07872C-32.4036 -3.82257 -33.2508 -5.86816 -33.6847 -6.96327L-36.3295 -13.4926C-36.6808 -14.3398 -37.342 -14.3398 -37.7139 -14.3398L-39.4289 -14.3398C-40.1727 -14.3398 -40.4207 -14.1125 -40.4207 -13.348L-40.4207 -0.991801C-40.4207 -0.24795 -40.1934 -0 -39.4289 -0L-38.871 -0C-38.0858 -0 -37.8792 -0.268613 -37.8792 -0.991801L-37.8792 -11.6743L-37.8585 -11.6743C-37.6313 -10.7445 -36.7014 -8.45097 -36.2055 -7.23188L-33.8087 -1.34306C-33.4368 -0.454575 -32.9409 -0.454575 -32.2383 -0.454575C-31.5358 -0.454575 -31.0399 -0.454575 -30.668 -1.34306L-28.0232 -7.8311C-27.8166 -8.327 -26.7008 -11.1371 -26.5561 -11.6743L-26.5355 -11.6743L-26.5355 -0.991801C-26.5355 -0.3306 -26.3908 -0 -25.5437 -0L-24.9858 -0C-24.2006 -0 -23.994 -0.268613 -23.994 -0.991801L-23.994 -13.348C-23.994 -14.0092 -24.1386 -14.3398 -24.9858 -14.3398L-26.7214 -14.3398C-27.238 -14.3398 -27.7546 -14.2985 -28.1058 -13.4513ZM-28.1058 -13.4513" fill="#fff"/>
 </g>
 <g transform="matrix(1.000000,-0.000000,-0.000000,1.000000,195.907867,-357.165354)">
  <path d="M-20.2172 -0M-10.6298 -6.75664C-11.0637 -5.70286 -11.8283 -3.8019 -11.9936 -3.07872L-12.0142 -3.07872C-12.2002 -3.82257 -13.0473 -5.86816 -13.4813 -6.96327L-16.1261 -13.4926C-16.4773 -14.3398 -17.1385 -14.3398 -17.5104 -14.3398L-19.2254 -14.3398C-19.9693 -14.3398 -20.2172 -14.1125 -20.2172 -13.348L-20.2172 -0.991801C-20.2172 -0.24795 -19.9899 -0 -19.2254 -0L-18.6675 -0C-17.8824 -0 -17.6757 -0.268613 -17.6757 -0.991801L-17.6757 -11.6743L-17.6551 -11.6743C-17.4278 -10.7445 -16.498 -8.45097 -16.0021 -7.23188L-13.6052 -1.34306C-13.2333 -0.454575 -12.7374 -0.454575 -12.0349 -0.454575C-11.3324 -0.454575 -10.8364 -0.454575 -10.4645 -1.34306L-7.81972 -7.8311C-7.6131 -8.327 -6.49732 -11.1371 -6.35268 -11.6743L-6.33202 -11.6743L-6.33202 -0.991801C-6.33202 -0.3306 -6.18738 -0 -5.34022 -0L-4.78233 -0C-3.99716 -0 -3.79053 -0.268613 -3.79053 -0.991801L-3.79053 -13.348C-3.79053 -14.0092 -3.93517 -14.3398 -4.78233 -14.3398L-6.51798 -14.3398C-7.03455 -14.3398 -7.55111 -14.2985 -7.90237 -13.4513ZM-7.90237 -13.4513" fill="#fff"/>
 </g>
 <g transform="matrix(1.000000,-0.000000,-0.000000,1.000000,195.907867,-357.165354)">
  <path d="M-1.02624 -0M7.89997 -13.4513C7.59003 -14.3398 6.99082 -14.3398 6.57757 -14.3398L4.75927 -14.3398C4.34602 -14.3398 3.7468 -14.3398 3.43686 -13.4513L-0.922928 -0.971138C-1.02624 -0.702526 -1.02624 -0.661201 -1.02624 -0.557888C-1.02624 -0 -0.509677 -0 -0.220402 -0L0.523449 -0C0.895374 -0 1.53591 -0 1.82519 -0.826501L2.63103 -3.12004L8.35454 -3.12004L9.05707 -1.13644C9.30502 -0.41325 9.44966 -0 10.4415 -0L11.5572 -0C11.8465 -0 12.3631 -0 12.3631 -0.557888C12.3631 -0.661201 12.3631 -0.702526 12.2598 -0.971138ZM12.2598 -0.971138M4.7386 -9.27747C5.04854 -10.1866 5.31715 -10.9718 5.48245 -11.7156L5.50312 -11.7156C5.60643 -11.2197 5.60643 -11.1784 5.77173 -10.7032L7.73467 -4.89702L3.2509 -4.89702ZM3.2509 -4.89702" fill="#fff"/>
 </g>
 <g transform="matrix(1.000000,-0.000000,-0.000000,1.000000,195.907867,-357.165354)">
  <path d="M13.8876 -0M25.8512 -2.95474C25.8512 -3.12004 25.7065 -3.20269 25.6239 -3.20269C25.128 -3.20269 24.5288 -1.85963 21.6154 -1.85963C17.9788 -1.85963 16.9456 -4.09118 16.9456 -7.19056C16.9456 -10.2693 18.0614 -12.5008 21.4501 -12.5008C23.289 -12.5008 24.2602 -11.7776 24.8181 -11.3231C24.942 -11.2197 25.004 -11.1371 25.1487 -11.1371C25.2313 -11.1371 25.3346 -11.2404 25.3553 -11.3231L25.7685 -13.6166C25.7892 -13.6993 25.7685 -13.7819 25.6032 -13.8439C24.3841 -14.2985 23.1237 -14.5877 21.512 -14.5877C16.4704 -14.5877 13.8876 -12.1289 13.8876 -7.21122C13.8876 -2.1489 16.5117 0.206625 21.5327 0.206625C23.289 0.206625 24.3841 -0.041325 25.8925 -0.971138C26.0578 -1.07445 26.0165 -1.21909 26.0165 -1.21909ZM26.0165 -1.21909" fill="#fff"/>
 </g>
 <g transform="matrix(1.000000,-0.000000,-0.000000,1.000000,195.907867,-357.165354)">
  <path d="M28.0162 -0M36.9424 -13.4513C36.6325 -14.3398 36.0333 -14.3398 35.62 -14.3398L33.8017 -14.3398C33.3885 -14.3398 32.7893 -14.3398 32.4793 -13.4513L28.1195 -0.971138C28.0162 -0.702526 28.0162 -0.661201 28.0162 -0.557888C28.0162 -0 28.5328 -0 28.8221 -0L29.5659 -0C29.9378 -0 30.5784 -0 30.8676 -0.826501L31.6735 -3.12004L37.397 -3.12004L38.0995 -1.13644C38.3475 -0.41325 38.4921 -0 39.4839 -0L40.5997 -0C40.889 -0 41.4055 -0 41.4055 -0.557888C41.4055 -0.661201 41.4055 -0.702526 41.3022 -0.971138ZM41.3022 -0.971138M33.7811 -9.27747C34.091 -10.1866 34.3596 -10.9718 34.5249 -11.7156L34.5456 -11.7156C34.6489 -11.2197 34.6489 -11.1784 34.8142 -10.7032L36.7771 -4.89702L32.2934 -4.89702ZM32.2934 -4.89702" fill="#fff"/>
 </g>
 <path d="M195.624 -331.654L196.191 -331.654"/>
 <g transform="matrix(1.000000,-0.000000,-0.000000,1.000000,195.907867,-331.653543)">
  <path d="M-21.4401 -0M-15.9455 -9.82714C-15.9455 -9.95626 -16.0459 -9.95626 -16.0889 -9.95626C-16.218 -9.95626 -16.2324 -9.92757 -16.2898 -9.68368L-17.0645 -6.59925C-17.1075 -6.41275 -17.1218 -6.3984 -17.1362 -6.38406C-17.1505 -6.35536 -17.251 -6.34102 -17.2797 -6.34102C-19.6324 -6.14017 -21.4401 -4.20344 -21.4401 -2.41016C-21.4401 -0.860772 -20.2493 0.0860772 -18.7573 0.172154C-18.8721 0.616886 -18.9725 1.07596 -19.0873 1.5207C-19.2881 2.28105 -19.4029 2.75447 -19.4029 2.81185C-19.4029 2.84055 -19.4029 2.92662 -19.2594 2.92662C-19.2164 2.92662 -19.159 2.92662 -19.1303 2.86924C-19.1016 2.84055 -19.0155 2.49624 -18.9582 2.30974L-18.4273 0.172154C-15.9741 0.0430386 -14.1091 -1.96543 -14.1091 -3.77305C-14.1091 -5.22202 -15.1995 -6.25494 -16.7919 -6.35536ZM-16.7919 -6.35536M-16.878 -6.06844C-15.9311 -6.01106 -14.9843 -5.48025 -14.9843 -4.07432C-14.9843 -2.4532 -16.1176 -0.30127 -18.3556 -0.129116ZM-18.3556 -0.129116M-18.6856 -0.11477C-19.3885 -0.157808 -20.5649 -0.530809 -20.5649 -2.10889C-20.5649 -3.91651 -19.2594 -5.92498 -17.1936 -6.05409ZM-17.1936 -6.05409" fill="black"/>
 </g>
 <g transform="matrix(1.000000,-0.000000,-0.000000,1.000000,195.907867,-331.653543)">
  <path d="M-8.34353 -0M-2.94936 -10.2432C-2.87763 -10.4297 -2.87763 -10.4584 -2.87763 -10.4871C-2.87763 -10.6736 -3.02109 -10.7596 -3.13586 -10.7596C-3.32236 -10.7596 -3.3654 -10.6305 -3.43713 -10.444L-8.2718 3.07009C-8.34353 3.25659 -8.34353 3.28528 -8.34353 3.31397C-8.34353 3.47178 -8.22876 3.58655 -8.07095 3.58655C-7.88445 3.58655 -7.84142 3.44309 -7.78403 3.28528ZM-7.78403 3.28528" fill="black"/>
 </g>
 <g transform="matrix(1.000000,-0.000000,-0.000000,1.000000,195.907867,-331.653543)">
  <path d="M3.17592 -0M7.83843 -4.17474C7.83843 -0.789041 6.33208 -0.0860772 5.47131 -0.0860772C5.127 -0.0860772 4.36665 -0.129116 4.008 -0.631233L4.09407 -0.631233C4.1945 -0.60254 4.71096 -0.688617 4.71096 -1.21943C4.71096 -1.53504 4.49577 -1.80762 4.12277 -1.80762C3.74977 -1.80762 3.52023 -1.56374 3.52023 -1.19073C3.52023 -0.30127 4.23754 0.30127 5.48565 0.30127C7.27893 0.30127 9.01482 -1.60677 9.01482 -4.7199C9.01482 -8.57903 7.40805 -9.54022 6.14558 -9.54022C4.5675 -9.54022 3.17592 -8.22037 3.17592 -6.32667C3.17592 -4.43297 4.51011 -3.14182 5.94473 -3.14182C7.00635 -3.14182 7.55151 -3.91651 7.83843 -4.64817ZM7.83843 -4.64817M6.00212 -3.42874C5.09831 -3.42874 4.71096 -4.1604 4.58184 -4.43297C4.35231 -4.97813 4.35231 -5.66675 4.35231 -6.31233C4.35231 -7.11571 4.35231 -7.80433 4.72531 -8.39252C4.98354 -8.77987 5.37089 -9.19591 6.14558 -9.19591C6.96331 -9.19591 7.37935 -8.4786 7.52281 -8.14864C7.80974 -7.44568 7.80974 -6.22625 7.80974 -6.01106C7.80974 -4.80598 7.26458 -3.42874 6.00212 -3.42874ZM6.00212 -3.42874" fill="black"/>
 </g>
 <g transform="matrix(1.000000,-0.000000,-0.000000,1.000000,195.907867,-331.653543)">
  <path d="M10.1995 -0M16.0384 -4.59078C16.0384 -5.78152 15.9667 -6.94356 15.4502 -8.03387C14.862 -9.2246 13.8291 -9.54022 13.1261 -9.54022C12.294 -9.54022 11.2755 -9.12418 10.7446 -7.93345C10.343 -7.02964 10.1995 -6.14017 10.1995 -4.59078C10.1995 -3.1992 10.2999 -2.15193 10.8164 -1.13335C11.3759 -0.0430386 12.3658 0.30127 13.1118 0.30127C14.3599 0.30127 15.0772 -0.444732 15.4932 -1.27681C16.0097 -2.35278 16.0384 -3.7587 16.0384 -4.59078ZM16.0384 -4.59078M13.1118 0.0143462C12.6527 0.0143462 11.7202 -0.243885 11.4476 -1.80762C11.2898 -2.66839 11.2898 -3.7587 11.2898 -4.76294C11.2898 -5.93933 11.2898 -7.00094 11.5193 -7.84737C11.7632 -8.80856 12.4949 -9.2533 13.1118 -9.2533C13.6569 -9.2533 14.489 -8.92333 14.7616 -7.68956C14.9481 -6.87183 14.9481 -5.73848 14.9481 -4.76294C14.9481 -3.80174 14.9481 -2.71143 14.7903 -1.83631C14.5177 -0.258232 13.6139 0.0143462 13.1118 0.0143462ZM13.1118 0.0143462" fill="black"/>
 </g>
 <g transform="matrix(1.000000,-0.000000,-0.000000,1.000000,195.907867,-331.653543)">
  <path d="M17.1828 -5.20611M21.0583 -7.69677C21.0583 -8.76277 20.1716 -9.62952 19.1255 -9.62952C18.0496 -9.62952 17.1828 -8.74285 17.1828 -7.69677C17.1828 -6.64073 18.0496 -5.76402 19.1255 -5.76402C20.1716 -5.76402 21.0583 -6.63077 21.0583 -7.69677ZM21.0583 -7.69677M19.1255 -6.16252C18.2588 -6.16252 17.5813 -6.85991 17.5813 -7.69677C17.5813 -8.53363 18.2687 -9.23102 19.1255 -9.23102C19.9524 -9.23102 20.6598 -8.55356 20.6598 -7.69677C20.6598 -6.83998 19.9524 -6.16252 19.1255 -6.16252ZM19.1255 -6.16252" fill="black"/>
 </g>
 <g stroke-linecap="round" stroke-linejoin="round">
  <path d="M-95.9616 169.133L-242.68 -378.425" stroke="black"/>
 </g>
 <g stroke-linecap="butt" stroke-linejoin="round" stroke-dasharray="2.000000" stroke-dashoffset="0.000000">
  <path d="M-95.9616 169.133L-95.9616 -354.052" stroke="black"/>
 </g>
 <g stroke-linecap="round" stroke-linejoin="round">
  <path d="M-95.9616 169.133L29.0126 -297.277" stroke="black"/>
 </g>
 <g stroke-linecap="butt" stroke-linejoin="round" stroke-dasharray="2.000000" stroke-dashoffset="0.000000">
  <path d="M-95.9616 169.133L126.863 -216.81" stroke="black"/>
 </g>
 <g stroke-linecap="round" stroke-linejoin="round">
  <path d="M-95.9616 169.133L194.873 -121.702" stroke="black"/>
 </g>
 <g stroke-linecap="butt" stroke-linejoin="round" stroke-dasharray="2.000000" stroke-dashoffset="0.000000">
  <path d="M-95.9616 169.133L232.785 -20.6684" stroke="black"/>
 </g>
 <g stroke-linecap="round" stroke-linejoin="round">
  <path d="M-95.9616 169.133L242.448 78.4568" stroke="black"/>
 </g>
 <g stroke-linecap="butt" stroke-linejoin="round" stroke-dasharray="2.000000" stroke-dashoffset="0.000000">
  <path d="M-95.9616 169.133L227.385 169.133" stroke="black"/>
 </g>
 <g stroke-linecap="round" stroke-linejoin="round">
  <path d="M-95.9616 169.133L192.296 246.372" stroke="black"/>
 </g>
 <g stroke-linecap="butt" stroke-linejoin="round" stroke-dasharray="2.000000" stroke-dashoffset="0.000000">
  <path d="M-95.9616 169.133L142.565 306.847" stroke="black"/>
 </g>
 <g stroke-linecap="round" stroke-linejoin="round">
  <path d="M-95.9616 169.133L83.7843 348.879" stroke="black"/>
 </g>
 <g stroke-linecap="butt" stroke-linejoin="round" stroke-dasharray="2.000000" stroke-dashoffset="0.000000">
  <path d="M-95.9616 169.133L21.3424 372.31" stroke="black"/>
 </g>
 <g stroke-linecap="round" stroke-linejoin="round">
  <path d="M-95.9616 169.133L-39.9204 378.282" stroke="black"/>
 </g>
 <g stroke-linecap="butt" stroke-linejoin="round" stroke-dasharray="2.000000" stroke-dashoffset="0.000000">
  <path d="M-95.9616 169.133L-95.9616 368.972" stroke="black"/>
 </g>
 <g stroke-linecap="round" stroke-linejoin="round">
  <path d="M-95.9616 169.133L-143.698 347.286" stroke="black"/>
 </g>
 <g stroke-linecap="butt" stroke-linejoin="round" stroke-dasharray="2.000000" stroke-dashoffset="0.000000">
  <path d="M-95.9616 169.133L-181.073 316.551" stroke="black"/>
 </g>
 <g stroke-linecap="round" stroke-linejoin="round">
  <path d="M-95.9616 169.133L-207.051 280.223" stroke="black"/>
 </g>
 <g stroke-linecap="butt" stroke-linejoin="round" stroke-dasharray="2.000000" stroke-dashoffset="0.000000">
  <path d="M-95.9616 169.133L-221.532 241.631" stroke="black"/>
 </g>
 <g stroke-linecap="round" stroke-linejoin="round">
  <path d="M-95.9616 169.133L-225.223 203.769" stroke="black"/>
 </g>
 <g stroke-linecap="butt" stroke-linejoin="round" stroke-dasharray="2.000000" stroke-dashoffset="0.000000">
  <path d="M-95.9616 169.133L-219.469 169.133" stroke="black"/>
 </g>
 <g stroke-linecap="round" stroke-linejoin="round">
  <path d="M-95.9616 169.133L-206.066 139.631" stroke="black"/>
 </g>
 <g stroke-linecap="butt" stroke-linejoin="round" stroke-dasharray="2.000000" stroke-dashoffset="0.000000">
  <path d="M-95.9616 169.133L-187.071 116.532" stroke="black"/>
 </g>
 <g stroke-linecap="round" stroke-linejoin="round">
  <path d="M-95.9616 169.133L-164.618 100.477" stroke="black"/>
 </g>
 <g stroke-linecap="butt" stroke-linejoin="round" stroke-dasharray="2.000000" stroke-dashoffset="0.000000">
  <path d="M-95.9616 169.133L-140.768 91.5269" stroke="black"/>
 </g>
 <g stroke-linecap="round" stroke-linejoin="round">
  <path d="M-95.9616 169.133L-117.367 89.2457" stroke="black"/>
 </g>
 <g stroke-linecap="round" stroke-linejoin="round" stroke-width="1.603518">
  <path d="M-242.68 -378.425L-232.37 -377.969L-222.124 -377.337L-211.946 -376.53L-201.838 -375.551L-191.802 -374.402L-181.841 -373.085L-171.957 -371.602L-162.153 -369.956L-152.432 -368.149L-142.796 -366.183L-133.246 -364.06L-123.786 -361.783L-114.417 -359.355L-105.141 -356.777L-95.9616 -354.052L-86.8795 -351.183L-77.8969 -348.172L-69.0159 -345.021L-60.2383 -341.734L-51.5659 -338.312L-43.0004 -334.759L-34.5436 -331.076L-26.1972 -327.266L-17.9626 -323.333L-9.84143 -319.278L-1.83521 -315.105L6.05466 -310.815L13.8268 -306.412L21.4799 -301.899L29.0126 -297.277L36.4238 -292.55L43.7124 -287.72L50.877 -282.789L57.9169 -277.762L64.8308 -272.64L71.6179 -267.426L78.2773 -262.123L84.8081 -256.733L91.2095 -251.26L97.4808 -245.705L103.621 -240.072L109.63 -234.363L115.507 -228.582L121.252 -222.73L126.863 -216.81L132.341 -210.825L137.685 -204.779L142.894 -198.672L147.969 -192.509L152.909 -186.291L157.714 -180.021L162.384 -173.703L166.919 -167.338L171.318 -160.93L175.582 -154.48L179.711 -147.991L183.704 -141.467L187.562 -134.908L191.285 -128.319L194.873 -121.702L198.327 -115.058L201.647 -108.391L204.832 -101.703L207.884 -94.9957L210.803 -88.2726L213.589 -81.5358L216.243 -74.7875L218.765 -68.0302L221.156 -61.2661L223.417 -54.4977L225.547 -47.7271L227.549 -40.9566L229.422 -34.1885L231.167 -27.4251L232.785 -20.6684L234.277 -13.9207L235.644 -7.18412L236.886 -0.460746L238.004 6.24732L239.001 12.938L239.875 19.6093L240.629 26.2592L241.263 32.8857L241.779 39.4869L242.178 46.0609L242.46 52.6057L242.627 59.1195L242.68 65.6005L242.62 72.0468L242.448 78.4568L242.166 84.8287L241.776 91.1607L241.277 97.4512L240.672 103.699L239.962 109.901L239.148 116.057L238.231 122.166L237.214 128.225L236.097 134.233L234.882 140.188L233.57 146.09L232.163 151.937L230.662 157.728L229.069 163.46L227.385 169.133L225.611 174.747L223.751 180.298L221.803 185.787L219.772 191.212L217.657 196.572L215.461 201.865L213.185 207.092L210.83 212.25L208.399 217.34L205.894 222.359L203.314 227.307L200.663 232.183L197.942 236.986L195.152 241.716L192.296 246.372L189.374 250.952L186.389 255.457L183.342 259.885L180.235 264.236L177.069 268.509L173.847 272.703L170.57 276.819L167.239 280.855L163.856 284.812L160.423 288.687L156.941 292.482L153.413 296.196L149.84 299.828L146.223 303.379L142.565 306.847L138.866 310.232L135.129 313.535L131.355 316.754L127.545 319.891L123.703 322.944L119.828 325.914L115.923 328.8L111.989 331.603L108.029 334.321L104.042 336.957L100.032 339.508L95.9998 341.976L91.9466 344.361L87.8743 346.662L83.7843 348.879L79.6783 351.014L75.5578 353.066L71.4242 355.034L67.2792 356.921L63.1241 358.724L58.9605 360.446L54.7898 362.087L50.6136 363.645L46.4332 365.123L42.25 366.52L38.0656 367.837L33.8812 369.074L29.6983 370.231L25.5182 371.31L21.3424 372.31L17.1721 373.232L13.0086 374.077L8.85336 374.844L4.70755 375.536L0.572469 376.151L-3.55062 376.692L-7.66049 377.158L-11.7559 377.55L-15.8357 377.869L-19.8986 378.115L-23.9435 378.289L-27.9692 378.392L-31.9747 378.425L-35.9588 378.388L-39.9204 378.282L-43.8584 378.108L-47.7718 377.867L-51.6595 377.558L-55.5206 377.184L-59.354 376.746L-63.1588 376.242L-66.9339 375.676L-70.6786 375.047L-74.3918 374.357L-78.0726 373.606L-81.7202 372.795L-85.3337 371.926L-88.9124 370.998L-92.4553 370.013L-95.9616 368.972L-99.4307 367.877L-102.862 366.726L-106.254 365.523L-109.607 364.267L-112.919 362.96L-116.191 361.603L-119.421 360.196L-122.609 358.741L-125.755 357.239L-128.857 355.69L-131.915 354.096L-134.928 352.458L-137.897 350.776L-140.82 349.052L-143.698 347.286L-146.528 345.481L-149.312 343.636L-152.049 341.753L-154.738 339.832L-157.379 337.876L-159.971 335.884L-162.515 333.859L-165.01 331.8L-167.455 329.709L-169.85 327.588L-172.196 325.436L-174.491 323.256L-176.736 321.047L-178.93 318.812L-181.073 316.551L-183.165 314.265L-185.207 311.955L-187.196 309.623L-189.135 307.268L-191.022 304.893L-192.857 302.499L-194.641 300.085L-196.373 297.654L-198.053 295.206L-199.682 292.743L-201.259 290.264L-202.784 287.772L-204.258 285.267L-205.68 282.75L-207.051 280.223L-208.37 277.685L-209.638 275.138L-210.855 272.584L-212.02 270.022L-213.135 267.454L-214.199 264.881L-215.213 262.303L-216.177 259.722L-217.09 257.138L-217.953 254.553L-218.767 251.967L-219.532 249.381L-220.247 246.796L-220.914 244.212L-221.532 241.631L-222.101 239.054L-222.624 236.481L-223.098 233.913L-223.525 231.35L-223.906 228.795L-224.24 226.247L-224.528 223.707L-224.77 221.175L-224.967 218.654L-225.119 216.143L-225.227 213.643L-225.291 211.155L-225.311 208.68L-225.288 206.217L-225.223 203.769L-225.115 201.335L-224.966 198.916L-224.775 196.514L-224.544 194.127L-224.273 191.758L-223.962 189.407L-223.612 187.074L-223.223 184.759L-222.797 182.464L-222.333 180.189L-221.831 177.935L-221.294 175.702L-220.721 173.49L-220.112 171.301L-219.469 169.133L-218.792 166.989L-218.081 164.869L-217.337 162.772L-216.561 160.7L-215.753 158.653L-214.914 156.631L-214.045 154.635L-213.146 152.664L-212.217 150.72L-211.26 148.803L-210.275 146.913L-209.262 145.051L-208.223 143.216L-207.157 141.409L-206.066 139.631L-204.95 137.881L-203.81 136.161L-202.646 134.47L-201.459 132.808L-200.25 131.176L-199.019 129.573L-197.767 128.001L-196.495 126.46L-195.203 124.948L-193.892 123.468L-192.562 122.018L-191.214 120.6L-189.849 119.212L-188.468 117.856L-187.071 116.532L-185.658 115.239L-184.23 113.977L-182.789 112.747L-181.334 111.549L-179.866 110.383L-178.386 109.249L-176.894 108.146L-175.392 107.076L-173.879 106.037L-172.356 105.031L-170.825 104.056L-169.284 103.113L-167.736 102.203L-166.181 101.324L-164.618 100.477L-163.05 99.6613L-161.476 98.8777L-159.897 98.1257L-158.314 97.4052L-156.727 96.7161L-155.137 96.0584L-153.544 95.4319L-151.948 94.8365L-150.352 94.2721L-148.754 93.7385L-147.155 93.2355L-145.557 92.763L-143.959 92.3209L-142.363 91.9089L-140.768 91.5269L-139.175 91.1747L-137.585 90.8521L-135.997 90.5589L-134.414 90.2948L-132.834 90.0596L-131.259 89.8532L-129.69 89.6752L-128.125 89.5255L-126.567 89.4037L-125.015 89.3096L-123.47 89.243L-121.932 89.2036L-120.402 89.1911L-118.881 89.2053L-117.367 89.2457L-115.863 89.3122L-114.368 89.4045L-112.884 89.5222L-111.409 89.665L-109.944 89.8327L-108.491 90.0249L-107.049 90.2412L-105.619 90.4814L-104.201 90.745L-102.795 91.0319L-101.401 91.3416L-100.021 91.6738L-98.6542 92.0281L-97.3009 92.4042L-95.9616 92.8017L-94.6366 93.2203L-93.326 93.6597L-92.0303 94.1193L-90.7497 94.5989L-89.4844 95.0982L-88.2347 95.6166L-87.0009 96.1539L-85.7831 96.7097L-84.5817 97.2836L-83.3969 97.8751L-82.2288 98.484L-81.0776 99.1099L-79.9437 99.7523L-78.8271 100.411L-77.7281 101.085L-76.6468 101.775L-75.5835 102.48L-74.5381 103.199L-73.5111 103.932L-72.5023 104.68L-71.5121 105.44L-70.5405 106.214L-69.5877 107L-68.6537 107.799L-67.7388 108.609L-66.8429 109.431L-65.9662 110.264L-65.1087 111.108L-64.2706 111.961L-63.452 112.825L-62.6528 113.698L-61.8731 114.58L-61.113 115.471L-60.3726 116.371L-59.6519 117.278L-58.9508 118.192L-58.2695 119.114L-57.6079 120.043L-56.966 120.978L-56.3439 121.919L-55.7416 122.866L-55.159 123.818L-54.5961 124.774L-54.0529 125.736L-53.5294 126.701L-53.0255 127.67L-52.5412 128.643L-52.0764 129.619L-51.6311 130.598L-51.2053 131.578L-50.7988 132.561L-50.4116 133.546L-50.0436 134.532L-49.6948 135.519L-49.3649 136.506L-49.0541 137.494L-48.7621 138.482L-48.4888 139.469L-48.2342 140.456L-47.9982 141.442L-47.7805 142.426L-47.5811 143.409L-47.3998 144.39L-47.2366 145.369L-47.0913 146.345L-46.9637 147.318L-46.8537 148.288L-46.7612 149.255L-46.6859 150.218L-46.6278 151.177L-46.5866 152.132L-46.5623 153.083L-46.5545 154.028L-46.5633 154.969L-46.5883 155.904L-46.6294 156.834L-46.6864 157.757L-46.7592 158.675L-46.8474 159.587L-46.9511 160.492L-47.0698 161.39L-47.2035 162.281L-47.3519 163.165L-47.5149 164.042L-47.6922 164.91L-47.8836 165.772L-48.0889 166.625L-48.3079 167.469L-48.5403 168.306L-48.786 169.133L-49.0447 169.952L-49.3162 170.762L-49.6003 171.563L-49.8968 172.355L-50.2053 173.137L-50.5257 173.909L-50.8578 174.672L-51.2013 175.424L-51.5559 176.167L-51.9215 176.899L-52.2979 177.621L-52.6847 178.332L-53.0817 179.033L-53.4887 179.723L-53.9054 180.402L-54.3317 181.071L-54.7672 181.728L-55.2118 182.374L-55.6651 183.009L-56.1269 183.632L-56.5971 184.244L-57.0753 184.845L-57.5612 185.433L-58.0548 186.011L-58.5556 186.576L-59.0636 187.13L-59.5783 187.672L-60.0997 188.202L-60.6273 188.72L-61.1611 189.226L-61.7008 189.719L-62.246 190.201L-62.7966 190.671L-63.3524 191.129L-63.913 191.574L-64.4783 192.007L-65.0481 192.428L-65.622 192.837L-66.1999 193.234L-66.7814 193.619L-67.3665 193.991L-67.9548 194.351L-68.5462 194.699L-69.1403 195.034L-69.737 195.358L-70.3361 195.669L-70.9373 195.969L-71.5404 196.256L-72.1451 196.531L-72.7513 196.794L-73.3588 197.046L-73.9673 197.285L-74.5766 197.512L-75.1865 197.728L-75.7968 197.932L-76.4073 198.124L-77.0178 198.304L-77.6281 198.473L-78.2379 198.631L-78.8472 198.777L-79.4556 198.911L-80.0631 199.034L-80.6693 199.146L-81.2742 199.247L-81.8775 199.337L-82.479 199.416L-83.0787 199.484L-83.6762 199.541L-84.2714 199.588L-84.8642 199.623L-85.4543 199.649L-86.0417 199.664L-86.6261 199.669L-87.2073 199.663L-87.7853 199.648L-88.3599 199.622L-88.9308 199.587L-89.498 199.542L-90.0614 199.488L-90.6206 199.424L-91.1757 199.35L-91.7265 199.268L-92.2729 199.176L-92.8146 199.075L-93.3516 198.966L-93.8838 198.847L-94.411 198.72L-94.9331 198.585L-95.45 198.441L-95.9616 198.29L-96.4678 198.13L-96.9683 197.962L-97.4633 197.786L-97.9524 197.603L-98.4357 197.412L-98.913 197.214L-99.3843 197.009L-99.8495 196.797L-100.308 196.578L-100.761 196.352L-101.207 196.119L-101.647 195.88L-102.08 195.635L-102.506 195.383L-102.926 195.126L-103.339 194.862L-103.745 194.593L-104.145 194.318L-104.537 194.038L-104.922 193.753L-105.301 193.462L-105.672 193.167L-106.036 192.866L-106.392 192.561L-106.742 192.252L-107.084 191.938L-107.419 191.62L-107.746 191.297L-108.067 190.971L-108.379 190.641L-108.684 190.308L-108.982 189.971L-109.273 189.631L-109.555 189.287L-109.831 188.941L-110.098 188.591L-110.359 188.239L-110.611 187.884L-110.857 187.527L-111.094 187.168L-111.324 186.806L-111.547 186.443L-111.762 186.077L-111.969 185.71L-112.169 185.341L-112.362 184.971L-112.547 184.599L-112.724 184.227L-112.894 183.853L-113.057 183.478L-113.212 183.103L-113.36 182.727L-113.501 182.35L-113.634 181.973L-113.76 181.596L-113.879 181.219L-113.99 180.841L-114.095 180.464L-114.192 180.087L-114.282 179.711L-114.365 179.335L-114.441 178.959L-114.511 178.585L-114.573 178.211L-114.628 177.838L-114.677 177.466L-114.719 177.096L-114.755 176.726L-114.783 176.358L-114.805 175.992L-114.821 175.627L-114.83 175.264L-114.833 174.903L-114.83 174.544L-114.821 174.187L-114.805 173.832L-114.783 173.479L-114.755 173.128L-114.722 172.78L-114.682 172.434L-114.637 172.091L-114.586 171.751L-114.529 171.413L-114.467 171.078L-114.399 170.747L-114.326 170.418L-114.247 170.092L-114.164 169.769L-114.075 169.45L-113.981 169.133L-113.882 168.821L-113.779 168.511L-113.67 168.205L-113.557 167.903L-113.439 167.604L-113.317 167.309L-113.19 167.018L-113.059 166.731L-112.923 166.447L-112.783 166.167L-112.64 165.892L-112.492 165.62L-112.34 165.352L-112.185 165.089L-112.026 164.829L-111.863 164.574L-111.696 164.323L-111.527 164.076L-111.354 163.834L-111.177 163.595L-110.998 163.362L-110.815 163.132L-110.629 162.907L-110.441 162.687L-110.249 162.471L-110.055 162.259L-109.859 162.052L-109.66 161.85L-109.458 161.652L-109.254 161.459L-109.048 161.27L-108.84 161.086L-108.63 160.907L-108.417 160.732L-108.203 160.562L-107.987 160.396L-107.77 160.236L-107.55 160.079L-107.33 159.928L-107.107 159.781L-106.884 159.639L-106.659 159.501L-106.433 159.368L-106.206 159.24" stroke="black"/>
 </g>
</svg>
