<?xml version="1.0" encoding="utf-8"?>
<svg xmlns="http://www.w3.org/2000/svg" fill="none" version="1.1" viewBox="-256.118 -314.138 512.236 628.276" x="-256.118pt" y="-314.138pt" width="512.236pt" height="628.276pt" stroke-width="0.566929" stroke-miterlimit="10.000000">
 <path d="M160.157 -286.209L255.118 -286.209L255.118 -313.138L160.157 -313.138Z" fill="black"/>
 <path d="M208.063 -291.878L208.63 -291.878"/>
 <g transform="matrix(1.000000,-0.000000,-0.000000,1.000000,208.346457,-291.878358)">
  <path d="M-40.4207 -0M-30.8333 -6.75664C-31.2672 -5.70286 -32.0317 -3.8019 -32.197 -3.07872L-32.2177 -3.07872C-32.4036 -3.82257 -33.2508 -5.86816 -33.6847 -6.96327L-36.3295 -13.4926C-36.6808 -14.3398 -37.342 -14.3398 -37.7139 -14.3398L-39.4289 -14.3398C-40.1727 -14.3398 -40.4207 -14.1125 -40.4207 -13.348L-40.4207 -0.991801C-40.4207 -0.24795 -40.1934 -0 -39.4289 -0L-38.871 -0C-38.0858 -0 -37.8792 -0.268613 -37.8792 -0.991801L-37.8792 -11.6743L-37.8585 -11.6743C-37.6313 -10.7445 -36.7014 -8.45097 -36.2055 -7.23188L-33.8087 -1.34306C-33.4368 -0.454575 -32.9409 -0.454575 -32.2383 -0.454575C-31.5358 -0.454575 -31.0399 -0.454575 -30.668 -1.34306L-28.0232 -7.8311C-27.8166 -8.327 -26.7008 -11.1371 -26.5561 -11.6743L-26.5355 -11.6743L-26.5355 -0.991801C-26.5355 -0.3306 -26.3908 -0 -25.5437 -0L-24.9858 -0C-24.2006 -0 -23.994 -0.268613 -23.994 -0.991801L-23.994 -13.348C-23.994 -14.0092 -24.1386 -14.3398 -24.9858 -14.3398L-26.7214 -14.3398C-27.238 -14.3398 -27.7546 -14.2985 -28.1058 -13.4513ZM-28.1058 -13.4513" fill="#fff"/>
 </g>
 <g transform="matrix(1.000000,-0.000000,-0.000000,1.000000,208.346457,-291.878358)">
  <path d="M-20.2172 -0M-10.6298 -6.75664C-11.0637 -5.70286 -11.8283 -3.8019 -11.9936 -3.07872L-12.0142 -3.07872C-12.2002 -3.82257 -13.0473 -5.86816 -13.4813 -6.96327L-16.1261 -13.4926C-16.4773 -14.3398 -17.1385 -14.3398 -17.5104 -14.3398L-19.2254 -14.3398C-19.9693 -14.3398 -20.2172 -14.1125 -20.2172 -13.348L-20.2172 -0.991801C-20.2172 -0.24795 -19.9899 -0 -19.2254 -0L-18.6675 -0C-17.8824 -0 -17.6757 -0.268613 -17.6757 -0.991801L-17.6757 -11.6743L-17.6551 -11.6743C-17.4278 -10.7445 -16.498 -8.45097 -16.0021 -7.23188L-13.6052 -1.34306C-13.2333 -0.454575 -12.7374 -0.454575 -12.0349 -0.454575C-11.3324 -0.454575 -10.8364 -0.454575 -10.4645 -1.34306L-7.81972 -7.8311C-7.6131 -8.327 -6.49732 -11.1371 -6.35268 -11.6743L-6.33202 -11.6743L-6.33202 -0.991801C-6.33202 -0.3306 -6.18738 -0 -5.34022 -0L-4.78233 -0C-3.99716 -0 -3.79053 -0.268613 -3.79053 -0.991801L-3.79053 -13.348C-3.79053 -14.0092 -3.93517 -14.3398 -4.78233 -14.3398L-6.51798 -14.3398C-7.03455 -14.3398 -7.55111 -14.2985 -7.90237 -13.4513ZM-7.90237 -13.4513" fill="#fff"/>
 </g>
 <g transform="matrix(1.000000,-0.000000,-0.000000,1.000000,208.346457,-291.878358)">
  <path d="M-1.02624 -0M7.89997 -13.4513C7.59003 -14.3398 6.99082 -14.3398 6.57757 -14.3398L4.75927 -14.3398C4.34602 -14.3398 3.7468 -14.3398 3.43686 -13.4513L-0.922928 -0.971138C-1.02624 -0.702526 -1.02624 -0.661201 -1.02624 -0.557888C-1.02624 -0 -0.509677 -0 -0.220402 -0L0.523449 -0C0.895374 -0 1.53591 -0 1.82519 -0.826501L2.63103 -3.12004L8.35454 -3.12004L9.05707 -1.13644C9.30502 -0.41325 9.44966 -0 10.4415 -0L11.5572 -0C11.8465 -0 12.3631 -0 12.3631 -0.557888C12.3631 -0.661201 12.3631 -0.702526 12.2598 -0.971138ZM12.2598 -0.971138M4.7386 -9.27747C5.04854 -10.1866 5.31715 -10.9718 5.48245 -11.7156L5.50312 -11.7156C5.60643 -11.2197 5.60643 -11.1784 5.77173 -10.7032L7.73467 -4.89702L3.2509 -4.89702ZM3.2509 -4.89702" fill="#fff"/>
 </g>
 <g transform="matrix(1.000000,-0.000000,-0.000000,1.000000,208.346457,-291.878358)">
  <path d="M13.8876 -0M25.8512 -2.95474C25.8512 -3.12004 25.7065 -3.20269 25.6239 -3.20269C25.128 -3.20269 24.5288 -1.85963 21.6154 -1.85963C17.9788 -1.85963 16.9456 -4.09118 16.9456 -7.19056C16.9456 -10.2693 18.0614 -12.5008 21.4501 -12.5008C23.289 -12.5008 24.2602 -11.7776 24.8181 -11.3231C24.942 -11.2197 25.004 -11.1371 25.1487 -11.1371C25.2313 -11.1371 25.3346 -11.2404 25.3553 -11.3231L25.7685 -13.6166C25.7892 -13.6993 25.7685 -13.7819 25.6032 -13.8439C24.3841 -14.2985 23.1237 -14.5877 21.512 -14.5877C16.4704 -14.5877 13.8876 -12.1289 13.8876 -7.21122C13.8876 -2.1489 16.5117 0.206625 21.5327 0.206625C23.289 0.206625 24.3841 -0.041325 25.8925 -0.971138C26.0578 -1.07445 26.0165 -1.21909 26.0165 -1.21909ZM26.0165 -1.21909" fill="#fff"/>
 </g>
 <g transform="matrix(1.000000,-0.000000,-0.000000,1.000000,208.346457,-291.878358)">
  <path d="M28.0162 -0M36.9424 -13.4513C36.6325 -14.3398 36.0333 -14.3398 35.62 -14.3398L33.8017 -14.3398C33.3885 -14.3398 32.7893 -14.3398 32.4793 -13.4513L28.1195 -0.971138C28.0162 -0.702526 28.0162 -0.661201 28.0162 -0.557888C28.0162 -0 28.5328 -0 28.8221 -0L29.5659 -0C29.9378 -0 30.5784 -0 30.8676 -0.826501L31.6735 -3.12004L37.397 -3.12004L38.0995 -1.13644C38.3475 -0.41325 38.4921 -0 39.4839 -0L40.5997 -0C40.889 -0 41.4055 -0 41.4055 -0.557888C41.4055 -0.661201 41.4055 -0.702526 41.3022 -0.971138ZM41.3022 -0.971138M33.7811 -9.27747C34.091 -10.1866 34.3596 -10.9718 34.5249 -11.7156L34.5456 -11.7156C34.6489 -11.2197 34.6489 -11.1784 34.8142 -10.7032L36.7771 -4.89702L32.2934 -4.89702ZM32.2934 -4.89702" fill="#fff"/>
 </g>
 <path d="M208.063 -266.367L208.63 -266.367"/>
 <g transform="matrix(1.000000,-0.000000,-0.000000,1.000000,208.346457,-266.366546)">
  <path d="M-24.2781 -0M-18.6687 -2.41016L-18.9843 -2.41016C-19.0274 -2.16628 -19.1421 -1.37723 -19.2856 -1.1477C-19.386 -1.01858 -20.2038 -1.01858 -20.6341 -1.01858L-23.2882 -1.01858C-22.9008 -1.34854 -22.0257 -2.2667 -21.6527 -2.61101C-19.4721 -4.61948 -18.6687 -5.36548 -18.6687 -6.78575C-18.6687 -8.43556 -19.9742 -9.54022 -21.6384 -9.54022C-23.3025 -9.54022 -24.2781 -8.11995 -24.2781 -6.88617C-24.2781 -6.15452 -23.6468 -6.15452 -23.6038 -6.15452C-23.3025 -6.15452 -22.9295 -6.36971 -22.9295 -6.82879C-22.9295 -7.23048 -23.2021 -7.50306 -23.6038 -7.50306C-23.7329 -7.50306 -23.7616 -7.50306 -23.8047 -7.48871C-23.5321 -8.46426 -22.7574 -9.12418 -21.8249 -9.12418C-20.6055 -9.12418 -19.8595 -8.1056 -19.8595 -6.78575C-19.8595 -5.56632 -20.5624 -4.50471 -21.3801 -3.58655L-24.2781 -0.344309L-24.2781 -0L-19.0417 -0ZM-19.0417 -0" fill="black"/>
 </g>
 <g transform="matrix(1.000000,-0.000000,-0.000000,1.000000,208.346457,-266.366546)">
  <path d="M-12.5004 -0M-7.10623 -10.2432C-7.0345 -10.4297 -7.0345 -10.4584 -7.0345 -10.4871C-7.0345 -10.6736 -7.17796 -10.7596 -7.29273 -10.7596C-7.47923 -10.7596 -7.52227 -10.6305 -7.594 -10.444L-12.4287 3.07009C-12.5004 3.25659 -12.5004 3.28528 -12.5004 3.31397C-12.5004 3.47178 -12.3856 3.58655 -12.2278 3.58655C-12.0413 3.58655 -11.9983 3.44309 -11.9409 3.28528ZM-11.9409 3.28528" fill="black"/>
 </g>
 <g transform="matrix(1.000000,-0.000000,-0.000000,1.000000,208.346457,-266.366546)">
  <path d="M-0.86618 -0M4.74318 -2.41016L4.42757 -2.41016C4.38453 -2.16628 4.26976 -1.37723 4.1263 -1.1477C4.02587 -1.01858 3.20814 -1.01858 2.77775 -1.01858L0.123708 -1.01858C0.511055 -1.34854 1.38617 -2.2667 1.75917 -2.61101C3.9398 -4.61948 4.74318 -5.36548 4.74318 -6.78575C4.74318 -8.43556 3.43768 -9.54022 1.77352 -9.54022C0.109362 -9.54022 -0.86618 -8.11995 -0.86618 -6.88617C-0.86618 -6.15452 -0.234947 -6.15452 -0.191908 -6.15452C0.109362 -6.15452 0.482363 -6.36971 0.482363 -6.82879C0.482363 -7.23048 0.209785 -7.50306 -0.191908 -7.50306C-0.321024 -7.50306 -0.349717 -7.50306 -0.392755 -7.48871C-0.120177 -8.46426 0.654517 -9.12418 1.58702 -9.12418C2.80645 -9.12418 3.55245 -8.1056 3.55245 -6.78575C3.55245 -5.56632 2.84949 -4.50471 2.03175 -3.58655L-0.86618 -0.344309L-0.86618 -0L4.37018 -0ZM4.37018 -0" fill="black"/>
 </g>
 <g transform="matrix(1.000000,-0.000000,-0.000000,1.000000,208.346457,-266.366546)">
  <path d="M6.22912 -0M12.2689 -8.90899L12.2689 -9.23895L8.81144 -9.23895C7.07555 -9.23895 7.04686 -9.42545 6.98947 -9.69803L6.67386 -9.69803L6.22912 -6.82879L6.54474 -6.82879C6.58778 -7.08702 6.7169 -7.97648 6.9034 -8.13429C7.01817 -8.22037 8.09413 -8.22037 8.29498 -8.22037L11.3364 -8.22037L9.81567 -6.03975C9.42833 -5.48025 7.97936 -3.12747 7.97936 -0.430386C7.97936 -0.272578 7.97936 0.30127 8.56755 0.30127C9.17009 0.30127 9.17009 -0.258232 9.17009 -0.444732L9.17009 -1.16204C9.17009 -3.29963 9.5144 -4.96378 10.1887 -5.92498ZM10.1887 -5.92498" fill="black"/>
 </g>
 <g transform="matrix(1.000000,-0.000000,-0.000000,1.000000,208.346457,-266.366546)">
  <path d="M13.0662 -0M18.9051 -4.59078C18.9051 -5.78152 18.8334 -6.94356 18.3169 -8.03387C17.7287 -9.2246 16.6958 -9.54022 15.9928 -9.54022C15.1607 -9.54022 14.1422 -9.12418 13.6114 -7.93345C13.2097 -7.02964 13.0662 -6.14017 13.0662 -4.59078C13.0662 -3.1992 13.1666 -2.15193 13.6831 -1.13335C14.2426 -0.0430386 15.2325 0.30127 15.9785 0.30127C17.2266 0.30127 17.9439 -0.444732 18.3599 -1.27681C18.8764 -2.35278 18.9051 -3.7587 18.9051 -4.59078ZM18.9051 -4.59078M15.9785 0.0143462C15.5194 0.0143462 14.5869 -0.243885 14.3143 -1.80762C14.1565 -2.66839 14.1565 -3.7587 14.1565 -4.76294C14.1565 -5.93933 14.1565 -7.00094 14.386 -7.84737C14.6299 -8.80856 15.3616 -9.2533 15.9785 -9.2533C16.5236 -9.2533 17.3557 -8.92333 17.6283 -7.68956C17.8148 -6.87183 17.8148 -5.73848 17.8148 -4.76294C17.8148 -3.80174 17.8148 -2.71143 17.657 -1.83631C17.3844 -0.258232 16.4806 0.0143462 15.9785 0.0143462ZM15.9785 0.0143462" fill="black"/>
 </g>
 <g transform="matrix(1.000000,-0.000000,-0.000000,1.000000,208.346457,-266.366546)">
  <path d="M20.0495 -5.20611M23.925 -7.69677C23.925 -8.76277 23.0383 -9.62952 21.9922 -9.62952C20.9163 -9.62952 20.0495 -8.74285 20.0495 -7.69677C20.0495 -6.64073 20.9163 -5.76402 21.9922 -5.76402C23.0383 -5.76402 23.925 -6.63077 23.925 -7.69677ZM23.925 -7.69677M21.9922 -6.16252C21.1255 -6.16252 20.448 -6.85991 20.448 -7.69677C20.448 -8.53363 21.1354 -9.23102 21.9922 -9.23102C22.8191 -9.23102 23.5265 -8.55356 23.5265 -7.69677C23.5265 -6.83998 22.8191 -6.16252 21.9922 -6.16252ZM21.9922 -6.16252" fill="black"/>
 </g>
 <g stroke-linecap="round" stroke-linejoin="round">
  <path d="M-49.8438 71.0898L-255.118 -284.456" stroke="black"/>
 </g>
 <g stroke-linecap="butt" stroke-linejoin="round" stroke-dasharray="2.000000" stroke-dashoffset="0.000000">
  <path d="M-49.8438 71.0898L-152.088 -310.489" stroke="black"/>
 </g>
 <g stroke-linecap="round" stroke-linejoin="round">
  <path d="M-49.8438 71.0898L-49.8438 -309.027" stroke="black"/>
 </g>
 <g stroke-linecap="butt" stroke-linejoin="round" stroke-dasharray="2.000000" stroke-dashoffset="0.000000">
  <path d="M-49.8438 71.0898L44.8211 -282.205" stroke="black"/>
 </g>
 <g stroke-linecap="round" stroke-linejoin="round">
  <path d="M-49.8438 71.0898L126.126 -233.699" stroke="black"/>
 </g>
 <g stroke-linecap="butt" stroke-linejoin="round" stroke-dasharray="2.000000" stroke-dashoffset="0.000000">
  <path d="M-49.8438 71.0898L189.615 -168.369" stroke="black"/>
 </g>
 <g stroke-linecap="round" stroke-linejoin="round">
  <path d="M-49.8438 71.0898L232.353 -91.8366" stroke="black"/>
 </g>
 <g stroke-linecap="butt" stroke-linejoin="round" stroke-dasharray="2.000000" stroke-dashoffset="0.000000">
  <path d="M-49.8438 71.0898L253.016 -10.0612" stroke="black"/>
 </g>
 <g stroke-linecap="round" stroke-linejoin="round">
  <path d="M-49.8438 71.0898L251.855 71.0898" stroke="black"/>
 </g>
 <g stroke-linecap="butt" stroke-linejoin="round" stroke-dasharray="2.000000" stroke-dashoffset="0.000000">
  <path d="M-49.8438 71.0898L230.566 146.225" stroke="black"/>
 </g>
 <g stroke-linecap="round" stroke-linejoin="round">
  <path d="M-49.8438 71.0898L192.068 210.757" stroke="black"/>
 </g>
 <g stroke-linecap="butt" stroke-linejoin="round" stroke-dasharray="2.000000" stroke-dashoffset="0.000000">
  <path d="M-49.8438 71.0898L140.214 261.148" stroke="black"/>
 </g>
 <g stroke-linecap="round" stroke-linejoin="round">
  <path d="M-49.8438 71.0898L79.4709 295.069" stroke="black"/>
 </g>
 <g stroke-linecap="butt" stroke-linejoin="round" stroke-dasharray="2.000000" stroke-dashoffset="0.000000">
  <path d="M-49.8438 71.0898L14.5657 311.469" stroke="black"/>
 </g>
 <g stroke-linecap="round" stroke-linejoin="round">
  <path d="M-49.8438 71.0898L-49.8438 310.548" stroke="black"/>
 </g>
 <g stroke-linecap="butt" stroke-linejoin="round" stroke-dasharray="2.000000" stroke-dashoffset="0.000000">
  <path d="M-49.8438 71.0898L-109.479 293.651" stroke="black"/>
 </g>
 <g stroke-linecap="round" stroke-linejoin="round">
  <path d="M-49.8438 71.0898L-160.698 263.095" stroke="black"/>
 </g>
 <g stroke-linecap="butt" stroke-linejoin="round" stroke-dasharray="2.000000" stroke-dashoffset="0.000000">
  <path d="M-49.8438 71.0898L-200.693 221.939" stroke="black"/>
 </g>
 <g stroke-linecap="round" stroke-linejoin="round">
  <path d="M-49.8438 71.0898L-227.617 173.727" stroke="black"/>
 </g>
 <g stroke-linecap="butt" stroke-linejoin="round" stroke-dasharray="2.000000" stroke-dashoffset="0.000000">
  <path d="M-49.8438 71.0898L-240.633 122.212" stroke="black"/>
 </g>
 <g stroke-linecap="round" stroke-linejoin="round">
  <path d="M-49.8438 71.0898L-239.902 71.0898" stroke="black"/>
 </g>
 <g stroke-linecap="butt" stroke-linejoin="round" stroke-dasharray="2.000000" stroke-dashoffset="0.000000">
  <path d="M-49.8438 71.0898L-226.491 23.7573" stroke="black"/>
 </g>
 <g stroke-linecap="round" stroke-linejoin="round">
  <path d="M-49.8438 71.0898L-202.238 -16.8953" stroke="black"/>
 </g>
 <g stroke-linecap="butt" stroke-linejoin="round" stroke-dasharray="2.000000" stroke-dashoffset="0.000000">
  <path d="M-49.8438 71.0898L-169.573 -48.6395" stroke="black"/>
 </g>
 <g stroke-linecap="round" stroke-linejoin="round">
  <path d="M-49.8438 71.0898L-131.307 -70.0086" stroke="black"/>
 </g>
 <g stroke-linecap="round" stroke-linejoin="round" stroke-width="1.603518">
  <path d="M-255.118 -284.456L-248.371 -287.063L-241.598 -289.547L-234.799 -291.905L-227.978 -294.139L-221.136 -296.248L-214.277 -298.232L-207.401 -300.092L-200.512 -301.826L-193.611 -303.436L-186.701 -304.922L-179.784 -306.283L-172.862 -307.52L-165.937 -308.633L-159.011 -309.623L-152.088 -310.489L-145.168 -311.233L-138.253 -311.854L-131.347 -312.353L-124.451 -312.73L-117.567 -312.987L-110.697 -313.122L-103.844 -313.138L-97.0084 -313.035L-90.1936 -312.813L-83.4012 -312.472L-76.6331 -312.015L-69.8914 -311.441L-63.178 -310.751L-56.4948 -309.946L-49.8438 -309.027L-43.2269 -307.994L-36.6459 -306.85L-30.1027 -305.594L-23.5991 -304.227L-17.137 -302.751L-10.7182 -301.166L-4.34431 -299.474L1.98277 -297.676L8.26136 -295.772L14.4898 -293.764L20.6663 -291.653L26.7893 -289.441L32.8572 -287.128L38.8683 -284.715L44.8211 -282.205L50.714 -279.597L56.5456 -276.894L62.3142 -274.097L68.0185 -271.207L73.657 -268.226L79.2283 -265.155L84.731 -261.995L90.1637 -258.747L95.5252 -255.414L100.814 -251.997L106.029 -248.497L111.169 -244.916L116.233 -241.255L121.219 -237.515L126.126 -233.699L130.954 -229.808L135.701 -225.844L140.366 -221.808L144.948 -217.701L149.446 -213.526L153.86 -209.284L158.187 -204.976L162.428 -200.605L166.581 -196.172L170.645 -191.679L174.621 -187.127L178.506 -182.518L182.301 -177.855L186.004 -173.137L189.615 -168.369L193.133 -163.55L196.557 -158.683L199.888 -153.77L203.124 -148.812L206.265 -143.811L209.31 -138.769L212.26 -133.688L215.113 -128.569L217.869 -123.415L220.527 -118.226L223.089 -113.005L225.552 -107.754L227.917 -102.475L230.184 -97.1682L232.353 -91.8366L234.423 -86.4817L236.394 -81.1053L238.266 -75.7093L240.038 -70.2953L241.712 -64.8651L243.287 -59.4206L244.763 -53.9634L246.14 -48.4954L247.418 -43.0182L248.597 -37.5337L249.677 -32.0436L250.659 -26.5495L251.542 -21.0533L252.328 -15.5566L253.016 -10.0612L253.606 -4.56872L254.099 0.919103L254.495 6.4006L254.794 11.8741L254.998 17.338L255.106 22.7905L255.118 28.2302L255.036 33.6552L254.86 39.0641L254.59 44.4553L254.226 49.8271L253.771 55.178L253.223 60.5064L252.584 65.8109L251.855 71.0898L251.036 76.3416L250.127 81.565L249.13 86.7583L248.045 91.9202L246.874 97.0492L245.616 102.144L244.273 107.203L242.845 112.225L241.335 117.208L239.741 122.151L238.066 127.054L236.309 131.914L234.474 136.73L232.559 141.501L230.566 146.225L228.497 150.903L226.351 155.531L224.131 160.11L221.838 164.637L219.471 169.112L217.034 173.534L214.525 177.902L211.948 182.214L209.303 186.469L206.59 190.667L203.812 194.806L200.97 198.886L198.064 202.905L195.096 206.862L192.068 210.757L188.979 214.589L185.833 218.357L182.629 222.059L179.37 225.696L176.056 229.266L172.689 232.769L169.27 236.204L165.801 239.57L162.282 242.866L158.716 246.092L155.103 249.247L151.445 252.331L147.744 255.343L143.999 258.282L140.214 261.148L136.39 263.94L132.527 266.658L128.627 269.302L124.692 271.87L120.723 274.363L116.721 276.781L112.688 279.121L108.626 281.386L104.534 283.573L100.416 285.683L96.2727 287.716L92.1049 289.672L87.9144 291.549L83.7026 293.348L79.4709 295.069L75.2207 296.712L70.9535 298.276L66.6707 299.762L62.3736 301.169L58.0637 302.498L53.7423 303.748L49.411 304.919L45.071 306.012L40.7238 307.026L36.3707 307.962L32.0131 308.82L27.6525 309.599L23.2902 310.3L18.9274 310.924L14.5657 311.469L10.2064 311.938L5.85066 312.329L1.49999 312.643L-2.84433 312.881L-7.181 313.043L-11.5087 313.128L-15.8261 313.138L-20.132 313.073L-24.4251 312.933L-28.704 312.719L-32.9676 312.43L-37.2146 312.069L-41.4438 311.634L-45.654 311.127L-49.8438 310.548L-54.0122 309.898L-58.158 309.177L-62.28 308.385L-66.3769 307.524L-70.4478 306.595L-74.4914 305.596L-78.5067 304.53L-82.4925 303.397L-86.4478 302.198L-90.3714 300.933L-94.2624 299.604L-98.1197 298.21L-101.942 296.753L-105.729 295.233L-109.479 293.651L-113.191 292.009L-116.865 290.306L-120.499 288.544L-124.092 286.723L-127.644 284.845L-131.154 282.91L-134.621 280.92L-138.043 278.874L-141.421 276.774L-144.752 274.622L-148.038 272.417L-151.276 270.161L-154.465 267.854L-157.607 265.499L-160.698 263.095L-163.739 260.644L-166.73 258.146L-169.669 255.604L-172.555 253.017L-175.389 250.386L-178.169 247.714L-180.895 245.001L-183.566 242.247L-186.183 239.454L-188.743 236.624L-191.248 233.756L-193.695 230.853L-196.086 227.915L-198.418 224.943L-200.693 221.939L-202.909 218.903L-205.067 215.838L-207.165 212.742L-209.204 209.619L-211.182 206.469L-213.101 203.293L-214.959 200.092L-216.756 196.867L-218.492 193.62L-220.167 190.351L-221.78 187.062L-223.332 183.755L-224.822 180.429L-226.251 177.086L-227.617 173.727L-228.92 170.354L-230.162 166.967L-231.341 163.567L-232.458 160.157L-233.513 156.736L-234.505 153.306L-235.434 149.868L-236.302 146.424L-237.107 142.973L-237.85 139.518L-238.53 136.06L-239.149 132.599L-239.705 129.136L-240.2 125.674L-240.633 122.212L-241.005 118.752L-241.316 115.294L-241.565 111.841L-241.754 108.393L-241.882 104.951L-241.95 101.516L-241.958 98.0896L-241.906 94.672L-241.795 91.2646L-241.625 87.8684L-241.396 84.4844L-241.109 81.1135L-240.764 77.7568L-240.362 74.4153L-239.902 71.0898L-239.386 67.7813L-238.814 64.4908L-238.185 61.2192L-237.502 57.9674L-236.764 54.7364L-235.972 51.5269L-235.126 48.34L-234.227 45.1765L-233.275 42.0372L-232.271 38.923L-231.215 35.8347L-230.109 32.7732L-228.953 29.7393L-227.746 26.7337L-226.491 23.7573L-225.187 20.8108L-223.836 17.8951L-222.437 15.0107L-220.992 12.1586L-219.502 9.33933L-217.966 6.55369L-216.386 3.80234L-214.762 1.08597L-213.096 -1.59475L-211.387 -4.23919L-209.637 -6.8467L-207.847 -9.41667L-206.016 -11.9485L-204.146 -14.4416L-202.238 -16.8953L-200.293 -19.3092L-198.311 -21.6827L-196.293 -24.0152L-194.239 -26.3062L-192.152 -28.5553L-190.031 -30.7619L-187.877 -32.9256L-185.691 -35.046L-183.475 -37.1225L-181.228 -39.1548L-178.952 -41.1425L-176.648 -43.0852L-174.316 -44.9825L-171.957 -46.834L-169.573 -48.6395L-167.164 -50.3985L-164.73 -52.1108L-162.274 -53.7761L-159.795 -55.3942L-157.294 -56.9646L-154.773 -58.4873L-152.233 -59.962L-149.673 -61.3884L-147.096 -62.7664L-144.502 -64.0958L-141.891 -65.3765L-139.266 -66.6082L-136.626 -67.7908L-133.973 -68.9243L-131.307 -70.0086L-128.63 -71.0435L-125.941 -72.0289L-123.243 -72.9649L-120.536 -73.8514L-117.821 -74.6884L-115.099 -75.4758L-112.37 -76.2137L-109.636 -76.9021L-106.898 -77.541L-104.156 -78.1305L-101.41 -78.6707L-98.6634 -79.1616L-95.9153 -79.6034L-93.167 -79.9961L-90.4193 -80.34L-87.6731 -80.635L-84.9291 -80.8815L-82.1884 -81.0795L-79.4516 -81.2293L-76.7197 -81.331L-73.9934 -81.3849L-71.2736 -81.3912L-68.5611 -81.3501L-65.8566 -81.262L-63.1611 -81.1269L-60.4752 -80.9454L-57.7997 -80.7175L-55.1355 -80.4437L-52.4833 -80.1243L-49.8438 -79.7596L-47.2179 -79.3499L-44.6062 -78.8956L-42.0095 -78.3971L-39.4286 -77.8548L-36.8641 -77.269L-34.3168 -76.6401L-31.7873 -75.9686L-29.2764 -75.2549L-26.7848 -74.4994L-24.313 -73.7026L-21.8619 -72.8649L-19.4319 -71.9869L-17.0239 -71.0689L-14.6384 -70.1115L-12.276 -69.1152L-9.93741 -68.0805L-7.62316 -67.0078L-5.33387 -65.8978L-3.07011 -64.7509L-0.832476 -63.5678L1.37849 -62.3489L3.56223 -61.0949L5.71822 -59.8062L7.84591 -58.4835L9.9448 -57.1274L12.0144 -55.7384L14.0542 -54.3171L16.0637 -52.8642L18.0424 -51.3803L19.99 -49.8659L21.9059 -48.3218L23.7897 -46.7485L25.641 -45.1467L27.4594 -43.517L29.2445 -41.8601L30.9959 -40.1766L32.7132 -38.4672L34.3962 -36.7325L36.0443 -34.9733L37.6574 -33.1901L39.235 -31.3837L40.7769 -29.5547L42.2828 -27.7039L43.7523 -25.8319L45.1853 -23.9394L46.5815 -22.0271L47.9405 -20.0956L49.2623 -18.1458L50.5465 -16.1782L51.793 -14.1937L53.0016 -12.1928L54.172 -10.1763L55.3042 -8.14494L56.3979 -6.09937L57.453 -4.04032L58.4695 -1.96849L59.4471 0.115403L60.3858 2.21066L61.2854 4.31656L62.146 6.43241L62.9674 8.55748L63.7495 10.6911L64.4924 12.8325L65.196 14.9811L65.8603 17.136L66.4853 19.2967L67.071 21.4624L67.6174 23.6324L68.1245 25.806L68.5924 27.9825L69.0211 30.1613L69.4108 32.3416L69.7614 34.5228L70.0731 36.7041L70.346 38.885L70.5802 41.0647L70.7758 43.2425L70.933 45.4178L71.0519 47.59L71.1326 49.7583L71.1754 51.9222L71.1804 54.0809L71.1478 56.2339L71.0778 58.3804L70.9707 60.5199L70.8265 62.6517L70.6457 64.7752L70.4284 66.8898L70.1749 68.9948L69.8854 71.0898L69.5602 73.174L69.1997 75.2468L68.804 77.3078L68.3735 79.3563L67.9086 81.3918L67.4094 83.4136L66.8765 85.4212L66.31 87.4141L65.7104 89.3917L65.078 91.3536L64.4131 93.2991L63.7162 95.2277L62.9876 97.1389L62.2277 99.0323L61.4369 100.907L60.6156 102.763L59.7643 104.6L58.8833 106.417L57.973 108.214L57.034 109.99L56.0665 111.745L55.0712 113.478L54.0484 115.189L52.9985 116.878L51.9222 118.544L50.8197 120.187L49.6917 121.806L48.5385 123.401L47.3607 124.971L46.1588 126.517L44.9332 128.038L43.6845 129.533L42.4131 131.002L41.1196 132.445L39.8045 133.862L38.4683 135.252L37.1116 136.615L35.7348 137.951L34.3384 139.259L32.9231 140.539L31.4894 141.792L30.0378 143.015L28.5688 144.211L27.0829 145.377L25.5809 146.514L24.063 147.623L22.5301 148.701L20.9825 149.75L19.4208 150.77L17.8457 151.759L16.2576 152.718L14.6571 153.647L13.0448 154.546L11.4212 155.414L9.78696 156.251L8.14255 157.058L6.48856 157.834L4.82556 158.579L3.1541 159.293L1.47475 159.976L-0.211924 160.628L-1.90537 161.249L-3.60502 161.839L-5.31032 162.397L-7.02071 162.924L-8.73563 163.42L-10.4545 163.885L-12.1769 164.319L-13.9021 164.721L-15.6296 165.093L-17.3589 165.433L-19.0894 165.742L-20.8206 166.02L-22.5519 166.268L-24.2829 166.485L-26.0129 166.67L-27.7414 166.826L-29.468 166.95L-31.1921 167.045L-32.9131 167.109L-34.6305 167.143L-36.3439 167.147L-38.0527 167.121L-39.7564 167.065L-41.4545 166.98L-43.1465 166.866L-44.8319 166.722L-46.5103 166.55L-48.1811 166.349L-49.8438 166.119L-51.4981 165.861L-53.1433 165.575L-54.7791 165.261L-56.405 164.919L-58.0205 164.55L-59.6252 164.154L-61.2187 163.731L-62.8005 163.281L-64.3701 162.805L-65.9272 162.303L-67.4713 161.776L-69.0021 161.222L-70.5191 160.644L-72.0219 160.041L-73.5101 159.413L-74.9833 158.761L-76.4412 158.086L-77.8833 157.387L-79.3094 156.664L-80.719 155.919L-82.1119 155.151L-83.4875 154.361L-84.8457 153.549L-86.1861 152.716L-87.5083 151.861L-88.812 150.986L-90.097 150.091L-91.3629 149.176L-92.6095 148.241L-93.8364 147.287L-95.0433 146.314L-96.23 145.323L-97.3963 144.314L-98.5418 143.287L-99.6663 142.244L-100.77 141.183L-101.852 140.106L-102.912 139.014L-103.95 137.905L-104.966 136.782L-105.96 135.644L-106.931 134.492L-107.88 133.326L-108.806 132.147L-109.708 130.954L-110.588 129.75L-111.444 128.533L-112.277 127.305L-113.086 126.065L-113.871 124.815L-114.632 123.554L-115.37 122.284L-116.083 121.004L-116.772 119.716L-117.437 118.419L-118.077 117.114L-118.693 115.801L-119.284 114.481L-119.851 113.154L-120.393 111.821L-120.91 110.483L-121.403 109.139L-121.871 107.79L-122.314 106.436L-122.733 105.078L-123.127 103.717L-123.496 102.353L-123.84 100.986L-124.159 99.6168L-124.454 98.2456L-124.724 96.8731L-124.97 95.4996L-125.19 94.1255L-125.387 92.7513L-125.559 91.3775L-125.706 90.0044L-125.829 88.6324L-125.928 87.262L-126.003 85.8937L-126.054 84.5277L-126.081 83.1646L-126.084 81.8047L-126.064 80.4484L-126.02 79.0962L-125.952 77.7484L-125.861 76.4054L-125.747 75.0677L-125.611 73.7356L-125.451 72.4095L-125.268 71.0898L-125.064 69.7768L-124.837 68.471L-124.587 67.1726L-124.316 65.8821L-124.023 64.5999L-123.709 63.3262L-123.373 62.0615L-123.016 60.8061L-122.638 59.5602L-122.24 58.3244L-121.821 57.0988L-121.382 55.8838L-120.923 54.6798L-120.444 53.487L-119.946 52.3059L-119.429 51.1365L-118.893 49.9794L-118.338 48.8348L-117.764 47.7029L-117.173 46.5841L-116.563 45.4786L-115.936 44.3867L-115.292 43.3087L-114.63 42.2449L-113.952 41.1954L-113.258 40.1607L-112.547 39.1408L-111.821 38.136L-111.079 37.1466L-110.322 36.1729L-109.55 35.2149L-108.763 34.273L-107.962 33.3473L-107.147 32.4381L-106.319 31.5456L-105.477 30.6699L-104.622 29.8112L-103.755 28.9698L-102.875 28.1457L-101.984 27.3392L-101.081 26.5504L-100.166 25.7794L-99.2407 25.0265L-98.3046 24.2917L-97.3584 23.5752L-96.4022 22.8771L-95.4365 22.1976L-94.4616 21.5367L-93.4778 20.8946L-92.4855 20.2713L-91.4851 19.6671L-90.4769 19.0818L-89.4612 18.5158L-88.4384 17.9689L-87.4089 17.4413L-86.3729 16.9331L-85.331 16.4443L-84.2834 15.975L-83.2304 15.5251L-82.1725 15.0948L-81.11 14.6842L-80.0432 14.2931L-78.9724 13.9216L-77.8982 13.5698L-76.8207 13.2377L-75.7404 12.9252L-74.6575 12.6324L-73.5725 12.3592L-72.4857 12.1056L-71.3974 11.8717L-70.3081 11.6573L-69.2179 11.4625L-68.1273 11.2871L-67.0366 11.1313L-65.9462 10.9948L-64.8564 10.8777L-63.7674 10.7799L-62.6798 10.7013L-61.5937 10.6419L-60.5095 10.6015L-59.4276 10.5801L-58.3482 10.5776L-57.2718 10.5939L-56.1985 10.6289L-55.1288 10.6825L-54.0629 10.7546L-53.0011 10.845L-51.9438 10.9536L-50.8913 11.0804L-49.8438 11.2252L-48.8017 11.3877L-47.7653 11.568L-46.7348 11.7658L-45.7105 11.9811L-44.6928 12.2136L-43.6819 12.4631L-42.6781 12.7296L-41.6816 13.0128L-40.6928 13.3127L-39.7119 13.6289L-38.7392 13.9613L-37.7749 14.3098L-36.8192 14.6741L-35.8725 15.054L-34.935 15.4494L-34.0069 15.86L-33.0885 16.2857L-32.18 16.7262L-31.2817 17.1813L-30.3937 17.6509L-29.5162 18.1346L-28.6496 18.6323L-27.794 19.1437L-26.9496 19.6686L-26.1167 20.2068L-25.2954 20.758L-24.4859 21.322L-23.6884 21.8986L-22.9031 22.4875L-22.1303 23.0885L-21.3699 23.7012L-20.6223 24.3256L-19.8876 24.9613L-19.166 25.608L-18.4576 26.2656L-17.7626 26.9337L-17.081 27.6121L-16.4132 28.3005L-15.7591 28.9986L-15.119 29.7063L-14.4929 30.4231L-13.881 31.149L-13.2834 31.8835L-12.7002 32.6264L-12.1315 33.3774L-11.5774 34.1363L-11.0381 34.9028L-10.5135 35.6766L-10.0039 36.4574L-9.50922 37.245L-9.0296 38.0391L-8.56511 38.8393L-8.11581 39.6454L-7.68177 40.4572L-7.26303 41.2744L-6.85966 42.0966L-6.47169 42.9236L-6.09917 43.7551L-5.74214 44.5908L-5.40063 45.4305L-5.07466 46.2738L-4.76426 47.1205L-4.46944 47.9704L-4.19022 48.823L-3.92659 49.6782L-3.67857 50.5357L-3.44615 51.3951L-3.22932 52.2563L-3.02807 53.1189L-2.84238 53.9826L-2.67224 54.8473L-2.5176 55.7125L-2.37845 56.5781L-2.25475 57.4438L-2.14645 58.3093L-2.05351 59.1743L-1.97588 60.0386L-1.9135 60.9019L-1.86633 61.7639L-1.83428 62.6244L-1.81731 63.4831L-1.81533 64.3398L-1.82826 65.1942L-1.85604 66.046L-1.89856 66.8951L-1.95576 67.7411L-2.02752 68.5838L-2.11376 69.423L-2.21437 70.2584L-2.32925 71.0898L-2.45829 71.9169L-2.60138 72.7395L-2.7584 73.5574L-2.92924 74.3703L-3.11375 75.1781L-3.31183 75.9805L-3.52334 76.7772L-3.74815 77.5681L-3.98611 78.3529L-4.23708 79.1315L-4.50093 79.9035L-4.7775 80.6689L-5.06665 81.4274L-5.36821 82.1788L-5.68203 82.9229L-6.00795 83.6595L-6.34581 84.3884L-6.69544 85.1095L-7.05668 85.8225L-7.42935 86.5274L-7.81327 87.2238L-8.20827 87.9116L-8.61418 88.5907L-9.0308 89.2609L-9.45796 89.922L-9.89546 90.5739L-10.3431 91.2164L-10.8008 91.8493L-11.2682 92.4726L-11.7452 93.086L-12.2315 93.6895L-12.7271 94.2829L-13.2316 94.866L-13.745 95.4387L-14.2669 96.001L-14.7971 96.5527L-15.3356 97.0936L-15.8819 97.6237L-16.4361 98.1428L-16.9977 98.6509L-17.5667 99.1478L-18.1428 99.6335L-18.7258 100.108L-19.3154 100.571L-19.9115 101.022L-20.5139 101.462L-21.1222 101.89L-21.7364 102.306L-22.3561 102.711L-22.9812 103.103L-23.6115 103.484L-24.2466 103.853L-24.8865 104.209L-25.5308 104.554L-26.1793 104.886L-26.8319 105.206L-27.4883 105.514L-28.1483 105.81L-28.8116 106.093L-29.478 106.364L-30.1474 106.623L-30.8194 106.869L-31.4939 107.103L-32.1707 107.325L-32.8495 107.534L-33.53 107.731L-34.2122 107.916L-34.8957 108.088L-35.5803 108.247L-36.2659 108.395L-36.9522 108.53L-37.6389 108.653L-38.3259 108.763L-39.013 108.861L-39.7 108.947L-40.3865 109.021L-41.0725 109.083L-41.7577 109.132L-42.4419 109.17L-43.1248 109.195L-43.8064 109.208L-44.4864 109.21L-45.1645 109.2L-45.8406 109.178L-46.5145 109.144L-47.186 109.099L-47.8548 109.042L-48.5209 108.973L-49.184 108.893L-49.8438 108.802L-50.5003 108.7L-51.1532 108.586L-51.8024 108.461L-52.4476 108.326L-53.0887 108.179L-53.7256 108.022L-54.3579 107.854L-54.9857 107.676L-55.6086 107.487L-56.2265 107.288L-56.8393 107.078L-57.4468 106.859L-58.0488 106.629L-58.6452 106.39L-59.2358 106.141L-59.8204 105.882L-60.399 105.614L-60.9713 105.337L-61.5372 105.05L-62.0967 104.754L-62.6494 104.449L-63.1953 104.136L-63.7343 103.814L-64.2663 103.483L-64.791 103.144L-65.3084 102.797L-65.8183 102.441L-66.3207 102.078L-66.8154 101.707L-67.3023 101.329L-67.7812 100.943L-68.2522 100.549L-68.715 100.149L-69.1696 99.7414L-69.6159 99.3272L-70.0538 98.9063L-70.4831 98.479L-70.9038 98.0453L-71.3159 97.6055L-71.7191 97.1597L-72.1135 96.7081L-72.499 96.2509L-72.8755 95.7882L-73.2429 95.3202L-73.6011 94.847L-73.9501 94.369L-74.2899 93.8861L-74.6203 93.3986L-74.9414 92.9068L-75.253 92.4106L-75.5552 91.9104L-75.8478 91.4063L-76.1308 90.8984L-76.4043 90.387L-76.668 89.8723L-76.9221 89.3543L-77.1665 88.8333L-77.4012 88.3095L-77.6261 87.7831L-77.8413 87.2541L-78.0466 86.7228L-78.2422 86.1894L-78.4279 85.6541L-78.6038 85.1169L-78.7699 84.5782L-78.9261 84.038L-79.0725 83.4966L-79.2091 82.9541L-79.3359 82.4107L-79.4529 81.8666L-79.5601 81.3219L-79.6575 80.7768L-79.7451 80.2315L-79.8231 79.6862L-79.8913 79.1409L-79.9498 78.596L-79.9987 78.0516L-80.038 77.5077L-80.0677 76.9647L-80.0879 76.4226L-80.0986 75.8816L-80.0999 75.342L-80.0917 74.8037L-80.0742 74.2671L-80.0474 73.7322L-80.0114 73.1993L-79.9662 72.6684L-79.9119 72.1398L-79.8485 71.6135L-79.7761 71.0898L-79.6948 70.5687L-79.6047 70.0505L-79.5058 69.5352L-79.3982 69.0231L-79.2819 68.5143L-79.1571 68.0088L-79.0239 67.5069L-78.8823 67.0087L-78.7324 66.5143L-78.5743 66.0238L-78.408 65.5374L-78.2338 65.0553L-78.0517 64.5775L-77.8617 64.1041L-77.664 63.6354L-77.4587 63.1713L-77.2458 62.7121L-77.0256 62.2579L-76.798 61.8087L-76.5633 61.3647L-76.3214 60.926L-76.0726 60.4927L-75.8169 60.0649L-75.5544 59.6427L-75.2853 59.2262L-75.0097 58.8155L-74.7277 58.4108L-74.4394 58.0121L-74.145 57.6194L-73.8445 57.233L-73.5381 56.8528L-73.2259 56.479L-72.9081 56.1117L-72.5847 55.7509L-72.2559 55.3966L-71.9219 55.0491L-71.5827 54.7084L-71.2385 54.3744L-70.8894 54.0474L-70.5356 53.7273L-70.1771 53.4143L-69.8142 53.1083L-69.447 52.8095L-69.0755 52.5179L-68.7 52.2336L-68.3205 51.9566L-67.9373 51.6869L-67.5504 51.4246L-67.16 51.1698L-66.7662 50.9225L-66.3692 50.6826L-65.9691 50.4504L-65.566 50.2258L-65.1601 50.0087L-64.7515 49.7994L-64.3404 49.5977L-63.9269 49.4037L-63.5112 49.2174L-63.0933 49.0389L-62.6735 48.8682L-62.2518 48.7052L-61.8284 48.55L-61.4035 48.4026L-60.9772 48.263L-60.5496 48.1311L-60.1209 48.0071L-59.6911 47.8909L-59.2606 47.7825L-58.8293 47.6819L-58.3974 47.589L-57.9651 47.504L-57.5324 47.4266L-57.0996 47.3571L-56.6668 47.2952L-56.2341 47.2411L-55.8016 47.1946L-55.3694 47.1558L-54.9378 47.1246L-54.5068 47.101L-54.0765 47.085L-53.6471 47.0765L-53.2188 47.0755L-52.7916 47.082L-52.3657 47.0959L-51.9412 47.1171L-51.5181 47.1457L-51.0968 47.1816L-50.6772 47.2247L-50.2595 47.275L-49.8438 47.3325L-49.4303 47.397L-49.0189 47.4685L-48.61 47.547L-48.2035 47.6325L-47.7996 47.7247L-47.3985 47.8238L-47.0001 47.9295L-46.6047 48.0419L-46.2122 48.1609L-45.823 48.2864L-45.4369 48.4183L-45.0542 48.5566L-44.675 48.7012L-44.2993 48.8519L-43.9273 49.0089L-43.559 49.1718L-43.1945 49.3408L-42.8339 49.5156L-42.4774 49.6962L-42.125 49.8825L-41.7768 50.0745L-41.4329 50.272L-41.0933 50.4749L-40.7583 50.6832L-40.4277 50.8968L-40.1018 51.1156L-39.7805 51.3394L-39.464 51.5682L-39.1524 51.8019L-38.8457 52.0404L-38.544 52.2836L-38.2473 52.5314L-37.9557 52.7837L-37.6693 53.0403L-37.3882 53.3013L-37.1124 53.5664L-36.8419 53.8356L-36.5769 54.1088L-36.3173 54.3859L-36.0632 54.6667L-35.8148 54.9512L-35.572 55.2392L-35.3348 55.5307L-35.1034 55.8256L-34.8777 56.1236L-34.6578 56.4248L-34.4437 56.729L-34.2356 57.036L-34.0333 57.3459L-33.837 57.6585L-33.6467 57.9736L-33.4624 58.2912L-33.284 58.6111L-33.1118 58.9332L-32.9456 59.2575L-32.7855 59.5838L-32.6316 59.912L-32.4837 60.242L-32.3421 60.5736L-32.2065 60.9069L-32.0772 61.2415L-31.954 61.5776L-31.837 61.9148L-31.7262 62.2532L-31.6216 62.5926L-31.5231 62.9329L-31.4309 63.2739L-31.3448 63.6157L-31.265 63.958L-31.1913 64.3008L-31.1238 64.6439L-31.0624 64.9873L-31.0072 65.3308L-30.9581 65.6744L-30.9151 66.0178L-30.8782 66.3611L-30.8474 66.7041L-30.8227 67.0467L-30.8039 67.3888L-30.7912 67.7303L-30.7845 68.0711L-30.7837 68.411L-30.7888 68.7501L-30.7999 69.0882L-30.8167 69.4251L-30.8394 69.7608L-30.8679 70.0953L-30.9021 70.4283L-30.9421 70.7598L-30.9877 71.0898L-31.0389 71.418L-31.0956 71.7445L-31.158 72.069L-31.2258 72.3917L-31.299 72.7122L-31.3776 73.0306L-31.4615 73.3468L-31.5507 73.6607L-31.6452 73.9721L-31.7448 74.2811L-31.8495 74.5875L-31.9592 74.8912L-32.074 75.1922L-32.1937 75.4904L-32.3182 75.7857L-32.4475 76.0781L-32.5816 76.3673L-32.7204 76.6535L-32.8637 76.9365L-33.0116 77.2162L-33.164 77.4925L-33.3207 77.7655L-33.4818 78.035L-33.6472 78.301L-33.8167 78.5633L-33.9903 78.822L-34.168 79.077L-34.3496 79.3282L-34.5351 79.5755L-34.7244 79.819L-34.9174 80.0585L-35.114 80.2939L-35.3143 80.5254L-35.518 80.7527L-35.7251 80.9758L-35.9355 81.1947L-36.1492 81.4094L-36.366 81.6198L-36.5859 81.8258L-36.8088 82.0274L-37.0346 82.2246L-37.2633 82.4173L-37.4946 82.6056L-37.7286 82.7893L-37.9652 82.9684L-38.2042 83.1429L-38.4456 83.3128L-38.6894 83.478L-38.9353 83.6385L-39.1834 83.7944L-39.4335 83.9454L-39.6856 84.0917L-39.9395 84.2333L-40.1952 84.37L-40.4526 84.5019L-40.7115 84.6289L-40.972 84.7511L-41.2339 84.8685L-41.4972 84.9809L-41.7617 85.0885L-42.0273 85.1912L-42.294 85.2889L-42.5617 85.3818L-42.8302 85.4697L-43.0996 85.5528L-43.3697 85.6309L-43.6404 85.7041L-43.9116 85.7724L-44.1833 85.8358L-44.4554 85.8943L-44.7278 85.9479L-45.0003 85.9966L-45.2729 86.0404L-45.5456 86.0794L-45.8182 86.1135L-46.0907 86.1428L-46.3629 86.1672L-46.6348 86.1869L-46.9064 86.2017L-47.1774 86.2118L-47.4479 86.2172L-47.7177 86.2178L-47.9868 86.2137L-48.2551 86.205L-48.5226 86.1916L-48.7891 86.1736L-49.0545 86.1509L-49.3188 86.1238L-49.582 86.0921L-49.8438 86.0559L-50.1043 86.0153L-50.3635 85.9702L-50.6211 85.9207L-50.8771 85.8669L-51.1316 85.8088L-51.3843 85.7464L-51.6353 85.6798L-51.8844 85.609L-52.1316 85.534L-52.3768 85.455L-52.62 85.3719L-52.8611 85.2848L-53.1 85.1937L-53.3366 85.0987L-53.571 84.9998L-53.803 84.8972L-54.0326 84.7908L-54.2598 84.6806L-54.4844 84.5669L-54.7064 84.4495L-54.9257 84.3285L-55.1424 84.2041L-55.3563 84.0763L-55.5674 83.9451L-55.7756 83.8105L-55.9809 83.6727L-56.1833 83.5317L-56.3827 83.3875L-56.579 83.2403" stroke="black"/>
 </g>
</svg>
