<?xml version="1.0" encoding="utf-8"?>
<svg xmlns="http://www.w3.org/2000/svg" fill="none" version="1.1" viewBox="-256.118 -312.97 512.236 625.94" x="-256.118pt" y="-312.97pt" width="512.236pt" height="625.94pt" stroke-width="0.566929" stroke-miterlimit="10.000000">
 <path d="M160.157 -285.041L255.118 -285.041L255.118 -311.97L160.157 -311.97Z" fill="black"/>
 <path d="M208.063 -290.71L208.63 -290.71"/>
 <g transform="matrix(1.000000,-0.000000,-0.000000,1.000000,208.346457,-290.709947)">
  <path d="M-40.4207 -0M-30.8333 -6.75664C-31.2672 -5.70286 -32.0317 -3.8019 -32.197 -3.07872L-32.2177 -3.07872C-32.4036 -3.82257 -33.2508 -5.86816 -33.6847 -6.96327L-36.3295 -13.4926C-36.6808 -14.3398 -37.342 -14.3398 -37.7139 -14.3398L-39.4289 -14.3398C-40.1727 -14.3398 -40.4207 -14.1125 -40.4207 -13.348L-40.4207 -0.991801C-40.4207 -0.24795 -40.1934 -0 -39.4289 -0L-38.871 -0C-38.0858 -0 -37.8792 -0.268613 -37.8792 -0.991801L-37.8792 -11.6743L-37.8585 -11.6743C-37.6313 -10.7445 -36.7014 -8.45097 -36.2055 -7.23188L-33.8087 -1.34306C-33.4368 -0.454575 -32.9409 -0.454575 -32.2383 -0.454575C-31.5358 -0.454575 -31.0399 -0.454575 -30.668 -1.34306L-28.0232 -7.8311C-27.8166 -8.327 -26.7008 -11.1371 -26.5561 -11.6743L-26.5355 -11.6743L-26.5355 -0.991801C-26.5355 -0.3306 -26.3908 -0 -25.5437 -0L-24.9858 -0C-24.2006 -0 -23.994 -0.268613 -23.994 -0.991801L-23.994 -13.348C-23.994 -14.0092 -24.1386 -14.3398 -24.9858 -14.3398L-26.7214 -14.3398C-27.238 -14.3398 -27.7546 -14.2985 -28.1058 -13.4513ZM-28.1058 -13.4513" fill="#fff"/>
 </g>
 <g transform="matrix(1.000000,-0.000000,-0.000000,1.000000,208.346457,-290.709947)">
  <path d="M-20.2172 -0M-10.6298 -6.75664C-11.0637 -5.70286 -11.8283 -3.8019 -11.9936 -3.07872L-12.0142 -3.07872C-12.2002 -3.82257 -13.0473 -5.86816 -13.4813 -6.96327L-16.1261 -13.4926C-16.4773 -14.3398 -17.1385 -14.3398 -17.5104 -14.3398L-19.2254 -14.3398C-19.9693 -14.3398 -20.2172 -14.1125 -20.2172 -13.348L-20.2172 -0.991801C-20.2172 -0.24795 -19.9899 -0 -19.2254 -0L-18.6675 -0C-17.8824 -0 -17.6757 -0.268613 -17.6757 -0.991801L-17.6757 -11.6743L-17.6551 -11.6743C-17.4278 -10.7445 -16.498 -8.45097 -16.0021 -7.23188L-13.6052 -1.34306C-13.2333 -0.454575 -12.7374 -0.454575 -12.0349 -0.454575C-11.3324 -0.454575 -10.8364 -0.454575 -10.4645 -1.34306L-7.81972 -7.8311C-7.6131 -8.327 -6.49732 -11.1371 -6.35268 -11.6743L-6.33202 -11.6743L-6.33202 -0.991801C-6.33202 -0.3306 -6.18738 -0 -5.34022 -0L-4.78233 -0C-3.99716 -0 -3.79053 -0.268613 -3.79053 -0.991801L-3.79053 -13.348C-3.79053 -14.0092 -3.93517 -14.3398 -4.78233 -14.3398L-6.51798 -14.3398C-7.03455 -14.3398 -7.55111 -14.2985 -7.90237 -13.4513ZM-7.90237 -13.4513" fill="#fff"/>
 </g>
 <g transform="matrix(1.000000,-0.000000,-0.000000,1.000000,208.346457,-290.709947)">
  <path d="M-1.02624 -0M7.89997 -13.4513C7.59003 -14.3398 6.99082 -14.3398 6.57757 -14.3398L4.75927 -14.3398C4.34602 -14.3398 3.7468 -14.3398 3.43686 -13.4513L-0.922928 -0.971138C-1.02624 -0.702526 -1.02624 -0.661201 -1.02624 -0.557888C-1.02624 -0 -0.509677 -0 -0.220402 -0L0.523449 -0C0.895374 -0 1.53591 -0 1.82519 -0.826501L2.63103 -3.12004L8.35454 -3.12004L9.05707 -1.13644C9.30502 -0.41325 9.44966 -0 10.4415 -0L11.5572 -0C11.8465 -0 12.3631 -0 12.3631 -0.557888C12.3631 -0.661201 12.3631 -0.702526 12.2598 -0.971138ZM12.2598 -0.971138M4.7386 -9.27747C5.04854 -10.1866 5.31715 -10.9718 5.48245 -11.7156L5.50312 -11.7156C5.60643 -11.2197 5.60643 -11.1784 5.77173 -10.7032L7.73467 -4.89702L3.2509 -4.89702ZM3.2509 -4.89702" fill="#fff"/>
 </g>
 <g transform="matrix(1.000000,-0.000000,-0.000000,1.000000,208.346457,-290.709947)">
  <path d="M13.8876 -0M25.8512 -2.95474C25.8512 -3.12004 25.7065 -3.20269 25.6239 -3.20269C25.128 -3.20269 24.5288 -1.85963 21.6154 -1.85963C17.9788 -1.85963 16.9456 -4.09118 16.9456 -7.19056C16.9456 -10.2693 18.0614 -12.5008 21.4501 -12.5008C23.289 -12.5008 24.2602 -11.7776 24.8181 -11.3231C24.942 -11.2197 25.004 -11.1371 25.1487 -11.1371C25.2313 -11.1371 25.3346 -11.2404 25.3553 -11.3231L25.7685 -13.6166C25.7892 -13.6993 25.7685 -13.7819 25.6032 -13.8439C24.3841 -14.2985 23.1237 -14.5877 21.512 -14.5877C16.4704 -14.5877 13.8876 -12.1289 13.8876 -7.21122C13.8876 -2.1489 16.5117 0.206625 21.5327 0.206625C23.289 0.206625 24.3841 -0.041325 25.8925 -0.971138C26.0578 -1.07445 26.0165 -1.21909 26.0165 -1.21909ZM26.0165 -1.21909" fill="#fff"/>
 </g>
 <g transform="matrix(1.000000,-0.000000,-0.000000,1.000000,208.346457,-290.709947)">
  <path d="M28.0162 -0M36.9424 -13.4513C36.6325 -14.3398 36.0333 -14.3398 35.62 -14.3398L33.8017 -14.3398C33.3885 -14.3398 32.7893 -14.3398 32.4793 -13.4513L28.1195 -0.971138C28.0162 -0.702526 28.0162 -0.661201 28.0162 -0.557888C28.0162 -0 28.5328 -0 28.8221 -0L29.5659 -0C29.9378 -0 30.5784 -0 30.8676 -0.826501L31.6735 -3.12004L37.397 -3.12004L38.0995 -1.13644C38.3475 -0.41325 38.4921 -0 39.4839 -0L40.5997 -0C40.889 -0 41.4055 -0 41.4055 -0.557888C41.4055 -0.661201 41.4055 -0.702526 41.3022 -0.971138ZM41.3022 -0.971138M33.7811 -9.27747C34.091 -10.1866 34.3596 -10.9718 34.5249 -11.7156L34.5456 -11.7156C34.6489 -11.2197 34.6489 -11.1784 34.8142 -10.7032L36.7771 -4.89702L32.2934 -4.89702ZM32.2934 -4.89702" fill="#fff"/>
 </g>
 <path d="M208.063 -265.198L208.63 -265.198"/>
 <g transform="matrix(1.000000,-0.000000,-0.000000,1.000000,208.346457,-265.198136)">
  <path d="M-29.9114 -11.7579M-25.378 0.508103L-27.9029 -5.07257C-28.0033 -5.30211 -28.0751 -5.30211 -28.1181 -5.30211C-28.1324 -5.30211 -28.2042 -5.30211 -28.362 -5.18734L-29.7249 -4.15441C-29.9114 -4.01095 -29.9114 -3.96791 -29.9114 -3.92487C-29.9114 -3.85314 -29.8683 -3.76706 -29.7679 -3.76706C-29.6818 -3.76706 -29.4379 -3.96791 -29.2801 -4.08268C-29.1941 -4.15441 -28.9789 -4.31222 -28.8211 -4.42699L-25.9949 1.78491C-25.8944 2.01445 -25.8227 2.01445 -25.6936 2.01445C-25.4784 2.01445 -25.4354 1.92838 -25.3349 1.72753L-18.8218 -11.7579C-18.7213 -11.9587 -18.7213 -12.0161 -18.7213 -12.0448C-18.7213 -12.1883 -18.8361 -12.3317 -19.0083 -12.3317C-19.123 -12.3317 -19.2235 -12.26 -19.3382 -12.0305ZM-19.3382 -12.0305" fill="black"/>
 </g>
 <g transform="matrix(1.000000,-0.000000,-0.000000,1.000000,208.346457,-265.198136)">
  <path d="M-19.0034 -11.7579L-11.9799 -11.7579L-11.9799 -12.3317L-19.0034 -12.3317Z" fill="black"/>
 </g>
 <g transform="matrix(1.000000,-0.000000,-0.000000,1.000000,208.346457,-265.198136)">
  <path d="M-18.3005 -0M-17.1671 -8.22037C-16.5502 -8.01952 -16.0481 -8.00518 -15.8903 -8.00518C-14.2692 -8.00518 -13.2363 -9.19591 -13.2363 -9.39676C-13.2363 -9.45414 -13.265 -9.52587 -13.351 -9.52587C-13.3797 -9.52587 -13.4084 -9.52587 -13.5375 -9.46849C-14.3409 -9.12418 -15.0295 -9.08114 -15.4025 -9.08114C-16.3494 -9.08114 -17.0237 -9.36807 -17.2962 -9.48284C-17.3967 -9.52587 -17.4254 -9.52587 -17.4397 -9.52587C-17.5545 -9.52587 -17.5545 -9.4398 -17.5545 -9.21026L-17.5545 -4.94944C-17.5545 -4.69121 -17.5545 -4.60513 -17.3823 -4.60513C-17.3106 -4.60513 -17.2962 -4.61948 -17.1528 -4.79163C-16.7511 -5.37982 -16.0768 -5.72413 -15.3595 -5.72413C-14.5992 -5.72413 -14.2262 -5.02117 -14.1114 -4.77728C-13.8675 -4.21778 -13.8532 -3.51482 -13.8532 -2.96966C-13.8532 -2.42451 -13.8532 -1.60677 -14.2549 -0.961195C-14.5705 -0.444732 -15.13 -0.0860772 -15.7612 -0.0860772C-16.7081 -0.0860772 -17.6406 -0.731656 -17.8988 -1.77893C-17.8271 -1.75024 -17.741 -1.73589 -17.6692 -1.73589C-17.4254 -1.73589 -17.038 -1.87935 -17.038 -2.36712C-17.038 -2.76882 -17.3106 -2.99835 -17.6692 -2.99835C-17.9275 -2.99835 -18.3005 -2.86924 -18.3005 -2.30974C-18.3005 -1.09031 -17.3249 0.30127 -15.7325 0.30127C-14.1114 0.30127 -12.6911 -1.06162 -12.6911 -2.88359C-12.6911 -4.59078 -13.8388 -6.01106 -15.3452 -6.01106C-16.1629 -6.01106 -16.7941 -5.6524 -17.1671 -5.25071ZM-17.1671 -5.25071" fill="black"/>
 </g>
 <g transform="matrix(1.000000,-0.000000,-0.000000,1.000000,208.346457,-265.198136)">
  <path d="M-6.5228 -0M-1.12863 -10.2432C-1.0569 -10.4297 -1.0569 -10.4584 -1.0569 -10.4871C-1.0569 -10.6736 -1.20036 -10.7596 -1.31513 -10.7596C-1.50163 -10.7596 -1.54467 -10.6305 -1.6164 -10.444L-6.45107 3.07009C-6.5228 3.25659 -6.5228 3.28528 -6.5228 3.31397C-6.5228 3.47178 -6.40803 3.58655 -6.25022 3.58655C-6.06372 3.58655 -6.02068 3.44309 -5.9633 3.28528ZM-5.9633 3.28528" fill="black"/>
 </g>
 <g transform="matrix(1.000000,-0.000000,-0.000000,1.000000,208.346457,-265.198136)">
  <path d="M4.99665 -0M7.04816 -5.15028C6.80427 -5.13594 6.74689 -5.12159 6.74689 -4.99248C6.74689 -4.84901 6.81862 -4.84901 7.07685 -4.84901L7.73677 -4.84901C8.9562 -4.84901 9.50136 -3.84478 9.50136 -2.46755C9.50136 -0.588194 8.52581 -0.0860772 7.82285 -0.0860772C7.13423 -0.0860772 5.95785 -0.41604 5.54181 -1.36289C6.00088 -1.29116 6.41692 -1.54939 6.41692 -2.06585C6.41692 -2.48189 6.11565 -2.76882 5.71396 -2.76882C5.36965 -2.76882 4.99665 -2.56797 4.99665 -2.02281C4.99665 -0.746002 6.27346 0.30127 7.86589 0.30127C9.57309 0.30127 10.8356 -1.00423 10.8356 -2.4532C10.8356 -3.77305 9.77393 -4.80598 8.3967 -5.04986C9.64482 -5.40852 10.4482 -6.45579 10.4482 -7.57479C10.4482 -8.70814 9.27182 -9.54022 7.88024 -9.54022C6.44562 -9.54022 5.384 -8.6651 5.384 -7.61783C5.384 -7.04398 5.82873 -6.92921 6.04392 -6.92921C6.34519 -6.92921 6.6895 -7.14441 6.6895 -7.57479C6.6895 -8.03387 6.34519 -8.23472 6.02958 -8.23472C5.9435 -8.23472 5.91481 -8.23472 5.87177 -8.22037C6.41692 -9.19591 7.76547 -9.19591 7.8372 -9.19591C8.31062 -9.19591 9.24312 -8.98072 9.24312 -7.57479C9.24312 -7.30221 9.20009 -6.49883 8.78405 -5.88194C8.35366 -5.25071 7.86589 -5.20767 7.47854 -5.19332ZM7.47854 -5.19332" fill="black"/>
 </g>
 <g transform="matrix(1.000000,-0.000000,-0.000000,1.000000,208.346457,-265.198136)">
  <path d="M12.0202 -0M13.1966 -4.99248C13.1966 -8.62206 14.9612 -9.19591 15.7359 -9.19591C16.2524 -9.19591 16.7688 -9.0381 17.0414 -8.60772C16.8692 -8.60772 16.3241 -8.60772 16.3241 -8.01952C16.3241 -7.70391 16.5393 -7.43133 16.9123 -7.43133C17.2709 -7.43133 17.5148 -7.64652 17.5148 -8.06256C17.5148 -8.80856 16.9697 -9.54022 15.7215 -9.54022C13.9139 -9.54022 12.0202 -7.68956 12.0202 -4.5334C12.0202 -0.588194 13.7418 0.30127 14.9612 0.30127C16.5249 0.30127 17.8591 -1.06162 17.8591 -2.92662C17.8591 -4.83467 16.5249 -6.11148 15.0903 -6.11148C13.8135 -6.11148 13.3401 -5.00682 13.1966 -4.60513ZM13.1966 -4.60513M14.9612 -0.0860772C14.0574 -0.0860772 13.627 -0.889464 13.4979 -1.19073C13.3688 -1.56374 13.2253 -2.2667 13.2253 -3.27093C13.2253 -4.40428 13.7418 -5.82456 15.0329 -5.82456C15.822 -5.82456 16.238 -5.29375 16.4532 -4.80598C16.6827 -4.27517 16.6827 -3.55786 16.6827 -2.94097C16.6827 -2.20931 16.6827 -1.56374 16.4102 -1.01858C16.0515 -0.329963 15.535 -0.0860772 14.9612 -0.0860772ZM14.9612 -0.0860772" fill="black"/>
 </g>
 <g transform="matrix(1.000000,-0.000000,-0.000000,1.000000,208.346457,-265.198136)">
  <path d="M19.0438 -0M24.8827 -4.59078C24.8827 -5.78152 24.811 -6.94356 24.2945 -8.03387C23.7063 -9.2246 22.6734 -9.54022 21.9704 -9.54022C21.1383 -9.54022 20.1198 -9.12418 19.589 -7.93345C19.1873 -7.02964 19.0438 -6.14017 19.0438 -4.59078C19.0438 -3.1992 19.1442 -2.15193 19.6607 -1.13335C20.2202 -0.0430386 21.2101 0.30127 21.9561 0.30127C23.2042 0.30127 23.9215 -0.444732 24.3375 -1.27681C24.854 -2.35278 24.8827 -3.7587 24.8827 -4.59078ZM24.8827 -4.59078M21.9561 0.0143462C21.497 0.0143462 20.5645 -0.243885 20.2919 -1.80762C20.1341 -2.66839 20.1341 -3.7587 20.1341 -4.76294C20.1341 -5.93933 20.1341 -7.00094 20.3636 -7.84737C20.6075 -8.80856 21.3392 -9.2533 21.9561 -9.2533C22.5012 -9.2533 23.3333 -8.92333 23.6059 -7.68956C23.7924 -6.87183 23.7924 -5.73848 23.7924 -4.76294C23.7924 -3.80174 23.7924 -2.71143 23.6346 -1.83631C23.362 -0.258232 22.4582 0.0143462 21.9561 0.0143462ZM21.9561 0.0143462" fill="black"/>
 </g>
 <g transform="matrix(1.000000,-0.000000,-0.000000,1.000000,208.346457,-265.198136)">
  <path d="M26.0271 -5.20611M29.9026 -7.69677C29.9026 -8.76277 29.0159 -9.62952 27.9698 -9.62952C26.8939 -9.62952 26.0271 -8.74285 26.0271 -7.69677C26.0271 -6.64073 26.8939 -5.76402 27.9698 -5.76402C29.0159 -5.76402 29.9026 -6.63077 29.9026 -7.69677ZM29.9026 -7.69677M27.9698 -6.16252C27.1031 -6.16252 26.4256 -6.85991 26.4256 -7.69677C26.4256 -8.53363 27.113 -9.23102 27.9698 -9.23102C28.7967 -9.23102 29.5041 -8.55356 29.5041 -7.69677C29.5041 -6.83998 28.7967 -6.16252 27.9698 -6.16252ZM27.9698 -6.16252" fill="black"/>
 </g>
 <g stroke-linecap="round" stroke-linejoin="round">
  <path d="M-50.6432 61.9288L-248.933 -281.52" stroke="black"/>
 </g>
 <g stroke-linecap="butt" stroke-linejoin="round" stroke-dasharray="2.000000" stroke-dashoffset="0.000000">
  <path d="M-50.6432 61.9288L-149.901 -308.507" stroke="black"/>
 </g>
 <g stroke-linecap="round" stroke-linejoin="round">
  <path d="M-50.6432 61.9288L-50.6432 -308.929" stroke="black"/>
 </g>
 <g stroke-linecap="butt" stroke-linejoin="round" stroke-dasharray="2.000000" stroke-dashoffset="0.000000">
  <path d="M-50.6432 61.9288L42.1769 -284.48" stroke="black"/>
 </g>
 <g stroke-linecap="round" stroke-linejoin="round">
  <path d="M-50.6432 61.9288L122.759 -238.412" stroke="black"/>
 </g>
 <g stroke-linecap="butt" stroke-linejoin="round" stroke-dasharray="2.000000" stroke-dashoffset="0.000000">
  <path d="M-50.6432 61.9288L186.498 -175.212" stroke="black"/>
 </g>
 <g stroke-linecap="round" stroke-linejoin="round">
  <path d="M-50.6432 61.9288L230.217 -100.226" stroke="black"/>
 </g>
 <g stroke-linecap="butt" stroke-linejoin="round" stroke-dasharray="2.000000" stroke-dashoffset="0.000000">
  <path d="M-50.6432 61.9288L252.287 -19.241" stroke="black"/>
 </g>
 <g stroke-linecap="round" stroke-linejoin="round">
  <path d="M-50.6432 61.9288L252.632 61.9288" stroke="black"/>
 </g>
 <g stroke-linecap="butt" stroke-linejoin="round" stroke-dasharray="2.000000" stroke-dashoffset="0.000000">
  <path d="M-50.6432 61.9288L232.638 137.834" stroke="black"/>
 </g>
 <g stroke-linecap="round" stroke-linejoin="round">
  <path d="M-50.6432 61.9288L194.965 203.731" stroke="black"/>
 </g>
 <g stroke-linecap="butt" stroke-linejoin="round" stroke-dasharray="2.000000" stroke-dashoffset="0.000000">
  <path d="M-50.6432 61.9288L143.283 255.855" stroke="black"/>
 </g>
 <g stroke-linecap="round" stroke-linejoin="round">
  <path d="M-50.6432 61.9288L81.9615 291.607" stroke="black"/>
 </g>
 <g stroke-linecap="butt" stroke-linejoin="round" stroke-dasharray="2.000000" stroke-dashoffset="0.000000">
  <path d="M-50.6432 61.9288L15.7346 309.654" stroke="black"/>
 </g>
 <g stroke-linecap="round" stroke-linejoin="round">
  <path d="M-50.6432 61.9288L-50.6432 309.936" stroke="black"/>
 </g>
 <g stroke-linecap="butt" stroke-linejoin="round" stroke-dasharray="2.000000" stroke-dashoffset="0.000000">
  <path d="M-50.6432 61.9288L-112.716 293.587" stroke="black"/>
 </g>
 <g stroke-linecap="round" stroke-linejoin="round">
  <path d="M-50.6432 61.9288L-166.604 262.779" stroke="black"/>
 </g>
 <g stroke-linecap="butt" stroke-linejoin="round" stroke-dasharray="2.000000" stroke-dashoffset="0.000000">
  <path d="M-50.6432 61.9288L-209.229 220.515" stroke="black"/>
 </g>
 <g stroke-linecap="round" stroke-linejoin="round">
  <path d="M-50.6432 61.9288L-238.466 170.368" stroke="black"/>
 </g>
 <g stroke-linecap="butt" stroke-linejoin="round" stroke-dasharray="2.000000" stroke-dashoffset="0.000000">
  <path d="M-50.6432 61.9288L-253.225 116.21" stroke="black"/>
 </g>
 <g stroke-linecap="round" stroke-linejoin="round">
  <path d="M-50.6432 61.9288L-253.455 61.9288" stroke="black"/>
 </g>
 <g stroke-linecap="butt" stroke-linejoin="round" stroke-dasharray="2.000000" stroke-dashoffset="0.000000">
  <path d="M-50.6432 61.9288L-240.085 11.168" stroke="black"/>
 </g>
 <g stroke-linecap="round" stroke-linejoin="round">
  <path d="M-50.6432 61.9288L-214.891 -32.9" stroke="black"/>
 </g>
 <g stroke-linecap="butt" stroke-linejoin="round" stroke-dasharray="2.000000" stroke-dashoffset="0.000000">
  <path d="M-50.6432 61.9288L-180.329 -67.7573" stroke="black"/>
 </g>
 <g stroke-linecap="round" stroke-linejoin="round">
  <path d="M-50.6432 61.9288L-139.321 -91.6662" stroke="black"/>
 </g>
 <g stroke-linecap="round" stroke-linejoin="round" stroke-width="1.603518">
  <path d="M-248.933 -281.52L-242.48 -284.154L-235.996 -286.669L-229.484 -289.065L-222.945 -291.342L-216.383 -293.5L-209.798 -295.539L-203.194 -297.458L-196.572 -299.257L-189.934 -300.937L-183.283 -302.497L-176.621 -303.938L-169.95 -305.259L-163.271 -306.461L-156.588 -307.543L-149.901 -308.507L-143.214 -309.352L-136.528 -310.079L-129.845 -310.687L-123.168 -311.178L-116.498 -311.551L-109.837 -311.807L-103.188 -311.946L-96.5522 -311.97L-89.9318 -311.878L-83.3289 -311.67L-76.7453 -311.348L-70.183 -310.913L-63.6439 -310.364L-57.13 -309.702L-50.6432 -308.929L-44.1853 -308.045L-37.7582 -307.05L-31.3637 -305.946L-25.0037 -304.733L-18.68 -303.412L-12.3944 -301.984L-6.14869 -300.45L0.0554631 -298.811L6.21628 -297.068L12.332 -295.222L18.4011 -293.273L24.4217 -291.224L30.3923 -289.075L36.3112 -286.826L42.1769 -284.48L47.9877 -282.038L53.7421 -279.5L59.4386 -276.868L65.0757 -274.143L70.6519 -271.327L76.1658 -268.42L81.6159 -265.424L87.0008 -262.34L92.3192 -259.17L97.5697 -255.915L102.751 -252.576L107.862 -249.155L112.901 -245.653L117.867 -242.071L122.759 -238.412L127.575 -234.676L132.315 -230.866L136.977 -226.981L141.561 -223.025L146.064 -218.999L150.487 -214.903L154.828 -210.741L159.086 -206.513L163.261 -202.22L167.35 -197.866L171.354 -193.45L175.272 -188.975L179.102 -184.443L182.844 -179.855L186.498 -175.212L190.062 -170.517L193.536 -165.772L196.918 -160.977L200.209 -156.134L203.408 -151.246L206.515 -146.314L209.528 -141.339L212.447 -136.324L215.272 -131.27L218.002 -126.178L220.637 -121.052L223.176 -115.891L225.619 -110.699L227.967 -105.477L230.217 -100.226L232.371 -94.9487L234.428 -89.6463L236.388 -84.3207L238.25 -78.9738L240.014 -73.6071L241.681 -68.2226L243.251 -62.8218L244.722 -57.4066L246.096 -51.9787L247.372 -46.5398L248.55 -41.0916L249.63 -35.636L250.613 -30.1745L251.498 -24.709L252.287 -19.241L252.978 -13.7724L253.572 -8.30479L254.069 -2.83987L254.47 2.62068L254.776 8.0752L254.985 13.522L255.099 18.9595L255.118 24.386L255.043 29.7999L254.873 35.1995L254.61 40.5834L254.254 45.9498L253.805 51.2972L253.264 56.624L252.632 61.9288L251.908 67.2098L251.095 72.4657L250.192 77.6949L249.2 82.8958L248.12 88.0671L246.952 93.2073L245.698 98.3148L244.357 103.388L242.932 108.426L241.422 113.428L239.829 118.391L238.153 123.314L236.395 128.197L234.557 133.037L232.638 137.834L230.641 142.586L228.566 147.291L226.413 151.95L224.185 156.56L221.882 161.12L219.505 165.629L217.055 170.086L214.533 174.489L211.94 178.838L209.278 183.132L206.548 187.369L203.75 191.549L200.886 195.669L197.958 199.73L194.965 203.731L191.91 207.67L188.794 211.546L185.618 215.358L182.382 219.106L179.09 222.789L175.741 226.406L172.337 229.956L168.879 233.438L165.369 236.852L161.808 240.196L158.197 243.471L154.537 246.674L150.831 249.807L147.079 252.867L143.283 255.855L139.443 258.769L135.562 261.61L131.641 264.376L127.681 267.067L123.684 269.683L119.65 272.224L115.582 274.687L111.481 277.075L107.348 279.385L103.184 281.617L98.9919 283.772L94.772 285.849L90.526 287.847L86.2554 289.766L81.9615 291.607L77.6457 293.368L73.3096 295.05L68.9546 296.653L64.582 298.175L60.1934 299.619L55.7901 300.982L51.3735 302.265L46.9451 303.468L42.5064 304.592L38.0586 305.635L33.6033 306.598L29.1419 307.482L24.6757 308.286L20.2061 309.01L15.7346 309.654L11.2626 310.219L6.79137 310.705L2.32235 311.112L-2.1431 311.44L-6.60362 311.69L-11.0578 311.861L-15.5044 311.954L-19.942 311.97L-24.3693 311.908L-28.785 311.769L-33.1877 311.554L-37.5761 311.263L-41.9491 310.896L-46.3052 310.454L-50.6432 309.936L-54.9619 309.345L-59.2599 308.68L-63.5362 307.941L-67.7893 307.13L-72.0182 306.247L-76.2217 305.292L-80.3985 304.266L-84.5474 303.17L-88.6674 302.004L-92.7573 300.77L-96.8159 299.467L-100.842 298.096L-104.835 296.659L-108.793 295.155L-112.716 293.587L-116.602 291.953L-120.45 290.256L-124.259 288.496L-128.029 286.674L-131.758 284.79L-135.445 282.846L-139.09 280.843L-142.691 278.78L-146.248 276.66L-149.759 274.484L-153.224 272.251L-156.642 269.963L-160.012 267.621L-163.333 265.226L-166.604 262.779L-169.825 260.281L-172.995 257.732L-176.113 255.135L-179.178 252.489L-182.189 249.796L-185.147 247.058L-188.05 244.274L-190.898 241.446L-193.689 238.576L-196.424 235.664L-199.102 232.711L-201.722 229.718L-204.283 226.687L-206.786 223.619L-209.229 220.515L-211.612 217.375L-213.935 214.201L-216.198 210.995L-218.398 207.756L-220.538 204.487L-222.615 201.189L-224.63 197.862L-226.582 194.508L-228.471 191.128L-230.297 187.724L-232.059 184.295L-233.757 180.844L-235.391 177.372L-236.961 173.88L-238.466 170.368L-239.906 166.839L-241.282 163.293L-242.592 159.732L-243.838 156.156L-245.018 152.567L-246.132 148.966L-247.182 145.354L-248.166 141.733L-249.085 138.103L-249.938 134.466L-250.726 130.823L-251.448 127.174L-252.105 123.522L-252.697 119.867L-253.225 116.21L-253.687 112.553L-254.084 108.897L-254.417 105.242L-254.685 101.59L-254.889 97.9428L-255.029 94.3003L-255.105 90.664L-255.118 87.0351L-255.068 83.4146L-254.954 79.8037L-254.778 76.2033L-254.54 72.6145L-254.24 69.0385L-253.878 65.4762L-253.455 61.9288L-252.972 58.3971L-252.428 54.8823L-251.824 51.3853L-251.16 47.9072L-250.438 44.449L-249.657 41.0116L-248.818 37.5959L-247.922 34.203L-246.969 30.8339L-245.959 27.4893L-244.893 24.1703L-243.773 20.8778L-242.597 17.6127L-241.368 14.3758L-240.085 11.168L-238.749 7.99022L-237.361 4.84328L-235.922 1.72801L-234.432 -1.35476L-232.892 -4.40424L-231.302 -7.41962L-229.663 -10.4001L-227.977 -13.345L-226.243 -16.2535L-224.463 -19.1248L-222.637 -21.9583L-220.766 -24.7533L-218.851 -27.509L-216.893 -30.2248L-214.891 -32.9L-212.848 -35.534L-210.764 -38.1261L-208.64 -40.6757L-206.477 -43.1823L-204.275 -45.6453L-202.035 -48.064L-199.759 -50.4379L-197.447 -52.7666L-195.099 -55.0494L-192.718 -57.2859L-190.303 -59.4756L-187.856 -61.618L-185.377 -63.7127L-182.868 -65.7593L-180.329 -67.7573L-177.762 -69.7063L-175.166 -71.6059L-172.544 -73.4558L-169.896 -75.2557L-167.223 -77.0051L-164.525 -78.7038L-161.805 -80.3515L-159.062 -81.9479L-156.298 -83.4928L-153.514 -84.9858L-150.71 -86.4267L-147.888 -87.8155L-145.049 -89.1517L-142.193 -90.4353L-139.321 -91.6662L-136.435 -92.8441L-133.535 -93.9689L-130.623 -95.0406L-127.699 -96.0589L-124.764 -97.024L-121.819 -97.9356L-118.866 -98.7938L-115.904 -99.5985L-112.936 -100.35L-109.962 -101.047L-106.982 -101.692L-103.999 -102.283L-101.012 -102.82L-98.023 -103.304L-95.0327 -103.735L-92.0421 -104.113L-89.052 -104.438L-86.0634 -104.71L-83.0772 -104.93L-80.0942 -105.096L-77.1155 -105.211L-74.1419 -105.273L-71.1743 -105.284L-68.2136 -105.243L-65.2607 -105.15L-62.3164 -105.006L-59.3817 -104.811L-56.4573 -104.566L-53.5442 -104.27L-50.6432 -103.924L-47.7551 -103.528L-44.8808 -103.084L-42.0212 -102.59L-39.1769 -102.047L-36.3488 -101.456L-33.5378 -100.818L-30.7446 -100.132L-27.9701 -99.3989L-25.2149 -98.6194L-22.4798 -97.7937L-19.7657 -96.9224L-17.0732 -96.0059L-14.403 -95.0447L-11.756 -94.0393L-9.1328 -92.9901L-6.53413 -91.8979L-3.96067 -90.7629L-1.41311 -89.5859L1.10788 -88.3673L3.60163 -87.1077L6.06751 -85.8077L8.50486 -84.4678L10.9131 -83.0887L13.2915 -81.671L15.6396 -80.2152L17.9568 -78.722L20.2424 -77.192L22.4959 -75.6259L24.7168 -74.0243L26.9045 -72.3878L29.0585 -70.7171L31.1782 -69.0129L33.2632 -67.2758L35.313 -65.5066L37.3271 -63.7059L39.305 -61.8744L41.2464 -60.0128L43.1507 -58.1219L45.0175 -56.2023L46.8464 -54.2548L48.6371 -52.2801L50.3891 -50.279L52.1021 -48.252L53.7757 -46.2001L55.4095 -44.124L57.0034 -42.0243L58.5568 -39.9019L60.0696 -37.7575L61.5415 -35.5919L62.9721 -33.4058L64.3613 -31.2L65.7087 -28.9753L67.0142 -26.7324L68.2775 -24.4722L69.4984 -22.1953L70.6768 -19.9026L71.8124 -17.5949L72.9052 -15.2728L73.9549 -12.9373L74.9614 -10.5891L75.9247 -8.22896L76.8445 -5.85767L77.7209 -3.47601L78.5537 -1.08477L79.3429 1.31526L80.0884 3.72332L80.7901 6.13861L81.4482 8.56037L82.0625 10.9878L82.6331 13.4202L83.16 15.8566L83.6431 18.2965L84.0827 20.7389L84.4786 23.1832L84.8311 25.6285L85.1401 28.0742L85.4058 30.5194L85.6283 32.9633L85.8077 35.4054L85.9442 37.8447L86.0379 40.2806L86.0889 42.7123L86.0974 45.1391L86.0637 47.5603L85.9879 49.9751L85.8702 52.3828L85.7109 54.7827L85.5101 57.1742L85.2682 59.5564L84.9854 61.9288L84.662 64.2905L84.2982 66.641L83.8943 68.9796L83.4507 71.3055L82.9676 73.6182L82.4454 75.9169L81.8844 78.2011L81.285 80.4701L80.6475 82.7232L79.9723 84.9598L79.2598 87.1793L78.5103 89.3812L77.7243 91.5647L76.9021 93.7294L76.0441 95.8745L75.1509 97.9996L74.2228 100.104L73.2602 102.187L72.2637 104.249L71.2337 106.288L70.1706 108.305L69.0749 110.298L67.9471 112.267L66.7877 114.212L65.5972 116.133L64.3761 118.027L63.125 119.897L61.8442 121.739L60.5345 123.556L59.1962 125.345L57.83 127.106L56.4363 128.839L55.0158 130.545L53.569 132.221L52.0965 133.868L50.5987 135.485L49.0764 137.073L47.5301 138.63L45.9603 140.157L44.3677 141.652L42.7529 143.117L41.1164 144.549L39.4589 145.95L37.7809 147.319L36.0831 148.655L34.366 149.958L32.6304 151.229L30.8768 152.466L29.1058 153.67L27.3181 154.839L25.5143 155.975L23.695 157.077L21.8609 158.145L20.0125 159.178L18.1506 160.176L16.2757 161.14L14.3885 162.069L12.4896 162.962L10.5797 163.821L8.65941 164.644L6.72936 165.432L4.7902 166.184L2.84256 166.9L0.887089 167.582L-1.07558 168.227L-3.0448 168.837L-5.01995 169.41L-7.00037 169.949L-8.98545 170.451L-10.9745 170.918L-12.967 171.348L-14.9622 171.743L-16.9596 172.103L-18.9584 172.427L-20.9581 172.715L-22.9581 172.968L-24.9577 173.185L-26.9563 173.367L-28.9533 173.514L-30.9481 173.625L-32.9401 173.702L-34.9287 173.744L-36.9132 173.751L-38.8932 173.723L-40.8679 173.661L-42.8369 173.565L-44.7994 173.434L-46.7551 173.27L-48.7032 173.072L-50.6432 172.841L-52.5746 172.577L-54.4967 172.279L-56.4091 171.949L-58.3112 171.586L-60.2024 171.191L-62.0822 170.764L-63.9502 170.305L-65.8056 169.815L-67.6481 169.294L-69.4772 168.742L-71.2923 168.159L-73.0928 167.546L-74.8785 166.903L-76.6486 166.231L-78.4029 165.529L-80.1407 164.799L-81.8617 164.04L-83.5653 163.253L-85.2512 162.438L-86.9189 161.595L-88.5679 160.726L-90.1979 159.83L-91.8084 158.908L-93.3989 157.96L-94.9692 156.986L-96.5188 155.988L-98.0472 154.964L-99.5543 153.917L-101.039 152.846L-102.502 151.752L-103.943 150.634L-105.36 149.495L-106.755 148.333L-108.126 147.15L-109.472 145.946L-110.795 144.721L-112.093 143.476L-113.367 142.211L-114.615 140.928L-115.838 139.625L-117.036 138.305L-118.208 136.967L-119.353 135.611L-120.472 134.239L-121.565 132.851L-122.631 131.446L-123.67 130.027L-124.681 128.593L-125.666 127.145L-126.622 125.683L-127.551 124.208L-128.452 122.72L-129.325 121.22L-130.17 119.709L-130.987 118.186L-131.775 116.653L-132.534 115.109L-133.265 113.557L-133.967 111.995L-134.64 110.424L-135.284 108.846L-135.899 107.26L-136.485 105.668L-137.042 104.068L-137.57 102.463L-138.069 100.853L-138.538 99.2379L-138.978 97.6184L-139.389 95.995L-139.77 94.3684L-140.123 92.739L-140.446 91.1074L-140.74 89.4741L-141.005 87.8395L-141.24 86.2042L-141.447 84.5687L-141.625 82.9335L-141.773 81.2991L-141.893 79.666L-141.985 78.0347L-142.047 76.4058L-142.081 74.7796L-142.087 73.1567L-142.065 71.5375L-142.014 69.9227L-141.935 68.3125L-141.829 66.7076L-141.694 65.1083L-141.533 63.5152L-141.344 61.9288L-141.127 60.3494L-140.884 58.7775L-140.614 57.2136L-140.317 55.6581L-139.994 54.1116L-139.645 52.5743L-139.27 51.0468L-138.869 49.5294L-138.443 48.0227L-137.991 46.527L-137.515 45.0427L-137.013 43.5702L-136.488 42.11L-135.938 40.6624L-135.364 39.2279L-134.767 37.8067L-134.146 36.3994L-133.502 35.0062L-132.836 33.6275L-132.147 32.2637L-131.436 30.9152L-130.703 29.5823L-129.949 28.2653L-129.174 26.9646L-128.378 25.6805L-127.561 24.4133L-126.725 23.1634L-125.868 21.931L-124.992 20.7164L-124.097 19.5201L-123.184 18.3421L-122.252 17.1829L-121.302 16.0426L-120.334 14.9217L-119.349 13.8202L-118.348 12.7385L-117.33 11.6769L-116.296 10.6355L-115.246 9.61455L-114.181 8.61435L-113.101 7.63509L-112.007 6.67696L-110.898 5.74018L-109.776 4.82493L-108.641 3.93141L-107.492 3.05979L-106.332 2.21024L-105.159 1.38293L-103.975 0.578014L-102.779 -0.20436L-101.573 -0.96405L-100.356 -1.70092L-99.1296 -2.41485L-97.8935 -3.10572L-96.6484 -3.77342L-95.3945 -4.41784L-94.1325 -5.03889L-92.8626 -5.63648L-91.5854 -6.21054L-90.3012 -6.76099L-89.0105 -7.28776L-87.7137 -7.7908L-86.4113 -8.27006L-85.1036 -8.72549L-83.7911 -9.15707L-82.4742 -9.56476L-81.1533 -9.94855L-79.8289 -10.3084L-78.5014 -10.6444L-77.1712 -10.9564L-75.8388 -11.2445L-74.5045 -11.5088L-73.1688 -11.7492L-71.8321 -11.9657L-70.4948 -12.1584L-69.1573 -12.3274L-67.8201 -12.4728L-66.4836 -12.5944L-65.1481 -12.6925L-63.8141 -12.7672L-62.482 -12.8184L-61.1521 -12.8463L-59.825 -12.851L-58.5009 -12.8325L-57.1803 -12.791L-55.8636 -12.7267L-54.5512 -12.6396L-53.2433 -12.5298L-51.9406 -12.3975L-50.6432 -12.2428L-49.3516 -12.0659L-48.0662 -11.867L-46.7873 -11.6461L-45.5153 -11.4035L-44.2506 -11.1393L-42.9934 -10.8538L-41.7443 -10.547L-40.5035 -10.2192L-39.2713 -9.87056L-38.0482 -9.50131L-36.8343 -9.11164L-35.6302 -8.70176L-34.4361 -8.2719L-33.2523 -7.82226L-32.0792 -7.35308L-30.917 -6.8646L-29.7661 -6.35704L-28.6268 -5.83065L-27.4994 -5.28567L-26.3842 -4.72237L-25.2814 -4.14099L-24.1914 -3.54179L-23.1144 -2.92504L-22.0507 -2.291L-21.0006 -1.63996L-19.9644 -0.972179L-18.9422 -0.287949L-17.9344 0.412449L-16.9412 1.12873L-15.9628 1.86059L-14.9995 2.60774L-14.0516 3.36989L-13.1191 4.14673L-12.2024 4.93795L-11.3017 5.74325L-10.4171 6.56231L-9.54893 7.39482L-8.69731 8.24047L-7.86244 9.09893L-7.04452 9.96987L-6.24371 10.853L-5.46019 11.7479L-4.69412 12.6544L-3.94566 13.572L-3.21497 14.5005L-2.50219 15.4395L-1.80746 16.3887L-1.13091 17.3477L-0.47268 18.3162L0.167118 19.2938L0.788366 20.2803L1.39096 21.2752L1.97478 22.2783L2.53975 23.2891L3.08577 24.3073L3.61275 25.3327L4.12063 26.3647L4.60932 27.4032L5.07876 28.4476L5.5289 29.4978L5.95968 30.5533L6.37104 31.6137L6.76297 32.6789L7.1354 33.7483L7.48833 34.8216L7.82173 35.8985L8.13558 36.9786L8.42987 38.0617L8.7046 39.1473L8.95977 40.2351L9.19539 41.3247L9.41148 42.4158L9.60805 43.5081L9.78513 44.6012L9.94275 45.6948L10.081 46.7885L10.1998 47.8821L10.2993 48.975L10.3795 50.0671L10.4405 51.158L10.4824 52.2474L10.5052 53.3349L10.5091 54.4202L10.494 55.503L10.4601 56.5829L10.4074 57.6597L10.3362 58.733L10.2464 59.8024L10.1382 60.8678L10.0118 61.9288L9.8671 62.985L9.70441 64.0361L9.52379 65.082L9.3254 66.1222L9.10936 67.1564L8.87583 68.1845L8.62496 69.206L8.3569 70.2207L8.0718 71.2283L7.76984 72.2286L7.45118 73.2212L7.116 74.2059L6.76447 75.1824L6.39677 76.1504L6.0131 77.1098L5.61363 78.0601L5.19857 79.0013L4.7681 79.933L4.32244 80.8549L3.86179 81.767L3.38636 82.6688L2.89635 83.5601L2.39199 84.4409L1.8735 85.3107L1.3411 86.1694L0.795014 87.0169L0.235475 87.8527L-0.337286 88.6769L-0.923033 89.4891L-1.52153 90.2892L-2.13252 91.0769L-2.75578 91.8521L-3.39105 92.6147L-4.03809 93.3643L-4.69663 94.1009L-5.36643 94.8243L-6.04723 95.5342L-6.73877 96.2307L-7.44079 96.9134L-8.15302 97.5823L-8.8752 98.2371L-9.60706 98.8779L-10.3483 99.5043L-11.0987 100.116L-11.858 100.714L-12.6259 101.297L-13.4021 101.865L-14.1863 102.418L-14.9783 102.956L-15.7778 103.48L-16.5845 103.988L-17.3981 104.48L-18.2184 104.958L-19.045 105.42L-19.8777 105.866L-20.7162 106.297L-21.5602 106.713L-22.4094 107.112L-23.2635 107.496L-24.1223 107.864L-24.9854 108.217L-25.8526 108.553L-26.7236 108.874L-27.5982 109.178L-28.4759 109.467L-29.3565 109.739L-30.2399 109.996L-31.1255 110.237L-32.0133 110.461L-32.9028 110.67L-33.7939 110.863L-34.6862 111.039L-35.5794 111.2L-36.4733 111.345L-37.3676 111.474L-38.262 111.587L-39.1563 111.684L-40.0501 111.765L-40.9432 111.831L-41.8353 111.881L-42.7261 111.915L-43.6154 111.934L-44.503 111.937L-45.3884 111.925L-46.2716 111.897L-47.1521 111.854L-48.0298 111.796L-48.9044 111.722L-49.7756 111.634L-50.6432 111.53L-51.5069 111.412L-52.3665 111.279L-53.2218 111.131L-54.0724 110.969L-54.9182 110.792L-55.7589 110.601L-56.5943 110.396L-57.424 110.177L-58.248 109.944L-59.066 109.697L-59.8777 109.436L-60.683 109.162L-61.4815 108.875L-62.2732 108.574L-63.0577 108.26L-63.8349 107.934L-64.6045 107.594L-65.3664 107.242L-66.1204 106.878L-66.8662 106.501L-67.6037 106.112L-68.3326 105.712L-69.0528 105.299L-69.7641 104.875L-70.4664 104.44L-71.1594 103.993L-71.8429 103.536L-72.5169 103.067L-73.1811 102.588L-73.8354 102.099L-74.4796 101.599L-75.1135 101.089L-75.7371 100.57L-76.3501 100.041L-76.9525 99.5023L-77.544 98.9545L-78.1246 98.3978L-78.6941 97.8323L-79.2524 97.2582L-79.7994 96.6758L-80.3349 96.0852L-80.8589 95.4867L-81.3712 94.8805L-81.8717 94.2668L-82.3604 93.6459L-82.837 93.018L-83.3016 92.3832L-83.7541 91.7419L-84.1942 91.0942L-84.6221 90.4404L-85.0376 89.7808L-85.4405 89.1154L-85.831 88.4446L-86.2088 87.7687L-86.5739 87.0877L-86.9263 86.402L-87.266 85.7119L-87.5928 85.0174L-87.9067 84.3189L-88.2077 83.6167L-88.4958 82.9108L-88.7709 82.2016L-89.033 81.4893L-89.2821 80.7742L-89.5181 80.0564L-89.7411 79.3362L-89.9509 78.6139L-90.1477 77.8896L-90.3315 77.1637L-90.5021 76.4362L-90.6597 75.7075L-90.8042 74.9779L-90.9356 74.2474L-91.0541 73.5164L-91.1595 72.7851L-91.2519 72.0536L-91.3314 71.3224L-91.3979 70.5914L-91.4516 69.8611L-91.4924 69.1316L-91.5204 68.4031L-91.5356 67.6758L-91.5382 66.95L-91.5281 66.2259L-91.5054 65.5037L-91.4702 64.7837L-91.4226 64.0659L-91.3625 63.3507L-91.2902 62.6383L-91.2056 61.9288L-91.1089 61.2224L-91.0001 60.5195L-90.8793 59.8201L-90.7466 59.1245L-90.6021 58.4328L-90.446 57.7453L-90.2782 57.0622L-90.0989 56.3836L-89.9083 55.7098L-89.7064 55.0409L-89.4933 54.3771L-89.2691 53.7186L-89.034 53.0655L-88.7881 52.4182L-88.5315 51.7766L-88.2644 51.1411L-87.9868 50.5117L-87.699 49.8886L-87.4009 49.2721L-87.0929 48.6622L-86.7749 48.0591L-86.4473 47.463L-86.11 46.874L-85.7632 46.2923L-85.4072 45.718L-85.042 45.1513L-84.6678 44.5923L-84.2848 44.0412L-83.8931 43.4981L-83.4928 42.963L-83.0842 42.4362L-82.6674 41.9178L-82.2426 41.4079L-81.8099 40.9065L-81.3695 40.414L-80.9216 39.9302L-80.4663 39.4554L-80.0039 38.9897L-79.5344 38.5331L-79.0581 38.0858L-78.5751 37.6479L-78.0857 37.2194L-77.59 36.8005L-77.0882 36.3912L-76.5804 35.9916L-76.0669 35.6018L-75.5478 35.2218L-75.0234 34.8518L-74.4937 34.4919L-73.9591 34.142L-73.4196 33.8022L-72.8755 33.4727L-72.327 33.1534L-71.7742 32.8445L-71.2173 32.5459L-70.6566 32.2577L-70.0922 31.9799L-69.5243 31.7127L-68.9531 31.4559L-68.3788 31.2098L-67.8016 30.9742L-67.2217 30.7492L-66.6392 30.5349L-66.0543 30.3312L-65.4674 30.1382L-64.8784 29.9559L-64.2877 29.7842L-63.6954 29.6233L-63.1018 29.4731L-62.5069 29.3335L-61.911 29.2047L-61.3143 29.0865L-60.717 28.979L-60.1192 28.8822L-59.5211 28.796L-58.923 28.7204L-58.325 28.6554L-57.7272 28.601L-57.13 28.5571L-56.5334 28.5237L-55.9377 28.5008L-55.3429 28.4883L-54.7494 28.4863L-54.1573 28.4945L-53.5667 28.513L-52.9778 28.5418L-52.3909 28.5808L-51.806 28.6299L-51.2234 28.6891L-50.6432 28.7582L-50.0656 28.8373L-49.4907 28.9263L-48.9188 29.0251L-48.3499 29.1336L-47.7843 29.2517L-47.2221 29.3794L-46.6635 29.5166L-46.1086 29.6632L-45.5575 29.8191L-45.0105 29.9843L-44.4677 30.1585L-43.9292 30.3418L-43.3952 30.5341L-42.8658 30.7352L-42.3411 30.945L-41.8214 31.1634L-41.3067 31.3904L-40.7972 31.6258L-40.293 31.8696L-39.7942 32.1215L-39.3011 32.3815L-38.8136 32.6494L-38.3319 32.9253L-37.8563 33.2088L-37.3866 33.5L-36.9232 33.7986L-36.4661 34.1046L-36.0154 34.4178L-35.5712 34.7382L-35.1337 35.0655L-34.7029 35.3996L-34.2789 35.7404L-33.8619 36.0878L-33.452 36.4417L-33.0491 36.8018L-32.6535 37.1681L-32.2653 37.5404L-31.8844 37.9186L-31.5111 38.3025L-31.1453 38.692L-30.7871 39.087L-30.4367 39.4872L-30.0941 39.8926L-29.7594 40.303L-29.4327 40.7182L-29.1139 41.1381L-28.8032 41.5626L-28.5006 41.9915L-28.2063 42.4246L-27.9201 42.8618L-27.6423 43.303L-27.3728 43.7479L-27.1117 44.1965L-26.8591 44.6486L-26.6149 45.1039L-26.3792 45.5625L-26.1521 46.024L-25.9335 46.4884L-25.7236 46.9555L-25.5223 47.4252L-25.3296 47.8972L-25.1457 48.3715L-24.9704 48.8478L-24.8038 49.3261L-24.646 49.8061L-24.4969 50.2877L-24.3565 50.7707L-24.2249 51.2551L-24.1021 51.7406L-23.9879 52.227L-23.8826 52.7143L-23.7859 53.2023L-23.698 53.6908L-23.6188 54.1796L-23.5483 54.6687L-23.4865 55.1578L-23.4334 55.6469L-23.3889 56.1357L-23.353 56.6241L-23.3257 57.112L-23.307 57.5991L-23.2968 58.0855L-23.2951 58.5708L-23.3018 59.0551L-23.317 59.538L-23.3405 60.0196L-23.3724 60.4996L-23.4125 60.9778L-23.4609 61.4543L-23.5175 61.9288L-23.5822 62.4011L-23.6549 62.8712L-23.7357 63.3389L-23.8244 63.8041L-23.921 64.2666L-24.0255 64.7264L-24.1377 65.1832L-24.2576 65.637L-24.3851 66.0876L-24.5201 66.535L-24.6626 66.9789L-24.8125 67.4192L-24.9697 67.856L-25.1341 68.2889L-25.3057 68.7179L-25.4844 69.1429L-25.67 69.5638L-25.8625 69.9805L-26.0618 70.3928L-26.2678 70.8007L-26.4804 71.204L-26.6996 71.6026L-26.9251 71.9965L-27.157 72.3855L-27.3951 72.7695L-27.6393 73.1485L-27.8896 73.5223L-28.1457 73.8909L-28.4077 74.2541L-28.6753 74.6119L-28.9486 74.9642L-29.2273 75.3109L-29.5114 75.6519L-29.8008 75.9872L-30.0953 76.3166L-30.3948 76.6401L-30.6993 76.9576L-31.0085 77.269L-31.3225 77.5744L-31.641 77.8735L-31.964 78.1664L-32.2913 78.4529L-32.6228 78.7331L-32.9584 79.0068L-33.2979 79.274L-33.6414 79.5347L-33.9885 79.7888L-34.3392 80.0362L-34.6934 80.2769L-35.0509 80.5109L-35.4117 80.7381L-35.7756 80.9585L-36.1424 81.172L-36.5121 81.3786L-36.8844 81.5783L-37.2594 81.771L-37.6369 81.9568L-38.0166 82.1355L-38.3986 82.3072L-38.7827 82.4718L-39.1687 82.6293L-39.5565 82.7798L-39.946 82.9231L-40.3371 83.0593L-40.7297 83.1884L-41.1235 83.3103L-41.5185 83.4251L-41.9146 83.5327L-42.3116 83.6332L-42.7095 83.7265L-43.108 83.8127L-43.507 83.8917L-43.9065 83.9636L-44.3062 84.0284L-44.7062 84.086L-45.1062 84.1365L-45.5061 84.18L-45.9058 84.2164L-46.3052 84.2457L-46.7042 84.2681L-47.1026 84.2834L-47.5003 84.2917L-47.8972 84.2931L-48.2932 84.2876L-48.6881 84.2752L-49.0819 84.2559L-49.4744 84.2299L-49.8656 84.1971L-50.2552 84.1575L-50.6432 84.1112L-51.0295 84.0583L-51.4139 83.9988L-51.7964 83.9328L-52.1768 83.8602L-52.555 83.7812L-52.931 83.6958L-53.3046 83.6041L-53.6757 83.506L-54.0442 83.4018L-54.41 83.2913L-54.773 83.1748L-55.1331 83.0522L-55.4903 82.9237L-55.8443 82.7892L-56.1951 82.6489L-56.5427 82.5028L-56.8869 82.351L-57.2276 82.1935L-57.5648 82.0306L-57.8983 81.8621L-58.2281 81.6882L-58.5541 81.509L-58.8762 81.3246L-59.1943 81.1349L-59.5084 80.9402L-59.8183 80.7405L-60.124 80.5359L-60.4254 80.3264L-60.7225 80.1122L-61.0151 79.8933L-61.3031 79.6699L-61.5867 79.4419L-61.8655 79.2096L-62.1397 78.973L-62.4091 78.7321L-62.6736 78.4872L-62.9333 78.2382L-63.1879 77.9853L-63.4376 77.7286L-63.6822 77.4681L-63.9217 77.204L-64.1561 76.9363L-64.3852 76.6652L-64.609 76.3908L-64.8275 76.1131L-65.0407 75.8323L-65.2485 75.5484L-65.4508 75.2616L-65.6477 74.972L-65.839 74.6796L-66.0248 74.3846L-66.205 74.087L-66.3796 73.787L-66.5486 73.4847L-66.7119 73.1802L-66.8695 72.8735L-67.0214 72.5649L-67.1676 72.2543L-67.308 71.942L-67.4426 71.6279L-67.5714 71.3122L-67.6944 70.9951L-67.8116 70.6765L-67.923 70.3567L-68.0286 70.0357L-68.1283 69.7136L-68.2222 69.3906L-68.3102 69.0667L-68.3923 68.742L-68.4686 68.4167L-68.5391 68.0908L-68.6037 67.7645L-68.6625 67.4378L-68.7155 67.1109L-68.7626 66.7838L-68.804 66.4567L-68.8395 66.1297L-68.8693 65.8028L-68.8932 65.4762L-68.9115 65.15L-68.924 64.8242L-68.9308 64.4989L-68.932 64.1743L-68.9275 63.8505L-68.9173 63.5275L-68.9016 63.2055L-68.8803 62.8845L-68.8534 62.5647L-68.8211 62.2461L-68.7833 61.9288L-68.74 61.6129L-68.6913 61.2985L-68.6373 60.9857L-68.578 60.6746L-68.5134 60.3653L-68.4435 60.0579L-68.3685 59.7524L-68.2883 59.4489L-68.2031 59.1475L-68.1128 58.8484L-68.0175 58.5515L-67.9172 58.2571L-67.8121 57.965L-67.7021 57.6755L-67.5874 57.3886L-67.4679 57.1044L-67.3438 56.8229L-67.215 56.5442L-67.0818 56.2685L-66.944 55.9958L-66.8018 55.7261L-66.6553 55.4595L-66.5044 55.1961L-66.3494 54.9359L-66.1901 54.6791L-66.0268 54.4257L-65.8595 54.1757L-65.6882 53.9292L-65.513 53.6863L-65.334 53.447L-65.1513 53.2114L-64.9649 52.9796L-64.7749 52.7515L-64.5814 52.5273L-64.3844 52.307L-64.1841 52.0907L-63.9805 51.8784L-63.7737 51.6701L-63.5637 51.4659L-63.3507 51.2659L-63.1347 51.07L-62.9159 50.8784L-62.6942 50.691L-62.4697 50.508L-62.2427 50.3293L-62.013 50.155L-61.7809 49.9851L-61.5463 49.8196L-61.3095 49.6586L-61.0704 49.5021L-60.8291 49.3502L-60.5858 49.2028L-60.3405 49.06L-60.0933 48.9219L-59.8442 48.7883L-59.5935 48.6594L-59.3411 48.5352L-59.0871 48.4157L-58.8316 48.3009L-58.5748 48.1908L-58.3167 48.0855L-58.0573 47.9848L-57.7968 47.889L-57.5353 47.7979L-57.2728 47.7116L-57.0094 47.6301L-56.7452 47.5533L-56.4803 47.4813L-56.2148 47.4141L-55.9488 47.3517L-55.6823 47.2941L-55.4155 47.2413L-55.1483 47.1932L-54.881 47.1499L-54.6135 47.1113L-54.346 47.0775L-54.0786 47.0485L-53.8113 47.0241L-53.5442 47.0045L-53.2774 46.9896L-53.011 46.9793L-52.745 46.9738L-52.4796 46.9728L-52.2147 46.9765L-51.9506 46.9848L-51.6873 46.9977L-51.4248 47.0151L-51.1632 47.0371L-50.9027 47.0635L-50.6432 47.0944L-50.3849 47.1298L-50.1278 47.1696L-49.872 47.2138L-49.6176 47.2623L-49.3647 47.3151L-49.1132 47.3723L-48.8634 47.4336L-48.6153 47.4992L-48.3688 47.5689L-48.1242 47.6427L-47.8814 47.7207L-47.6406 47.8027L-47.4018 47.8886L-47.165 47.9786L-46.9304 48.0724L-46.698 48.1701L-46.4678 48.2716L-46.2399 48.3769L-46.0144 48.4859L-45.7914 48.5985L-45.5708 48.7148L-45.3528 48.8347L-45.1374 48.958L-44.9247 49.0848L-44.7147 49.215L-44.5074 49.3486L-44.303 49.4854L-44.1014 49.6255L-43.9028 49.7688" stroke="black"/>
 </g>
</svg>
