<?xml version="1.0" encoding="utf-8"?>
<svg xmlns="http://www.w3.org/2000/svg" fill="none" version="1.1" viewBox="-254.068 -379.425 508.136 758.85" x="-254.068pt" y="-379.425pt" width="508.136pt" height="758.85pt" stroke-width="0.566929" stroke-miterlimit="10.000000">
 <path d="M158.108 -351.496L253.068 -351.496L253.068 -378.425L158.108 -378.425Z" fill="black"/>
 <path d="M206.013 -357.165L206.58 -357.165"/>
 <g transform="matrix(1.000000,-0.000000,-0.000000,1.000000,206.296528,-357.165354)">
  <path d="M-40.4207 -0M-30.8333 -6.75664C-31.2672 -5.70286 -32.0317 -3.8019 -32.197 -3.07872L-32.2177 -3.07872C-32.4036 -3.82257 -33.2508 -5.86816 -33.6847 -6.96327L-36.3295 -13.4926C-36.6808 -14.3398 -37.342 -14.3398 -37.7139 -14.3398L-39.4289 -14.3398C-40.1727 -14.3398 -40.4207 -14.1125 -40.4207 -13.348L-40.4207 -0.991801C-40.4207 -0.24795 -40.1934 -0 -39.4289 -0L-38.871 -0C-38.0858 -0 -37.8792 -0.268613 -37.8792 -0.991801L-37.8792 -11.6743L-37.8585 -11.6743C-37.6313 -10.7445 -36.7014 -8.45097 -36.2055 -7.23188L-33.8087 -1.34306C-33.4368 -0.454575 -32.9409 -0.454575 -32.2383 -0.454575C-31.5358 -0.454575 -31.0399 -0.454575 -30.668 -1.34306L-28.0232 -7.8311C-27.8166 -8.327 -26.7008 -11.1371 -26.5561 -11.6743L-26.5355 -11.6743L-26.5355 -0.991801C-26.5355 -0.3306 -26.3908 -0 -25.5437 -0L-24.9858 -0C-24.2006 -0 -23.994 -0.268613 -23.994 -0.991801L-23.994 -13.348C-23.994 -14.0092 -24.1386 -14.3398 -24.9858 -14.3398L-26.7214 -14.3398C-27.238 -14.3398 -27.7546 -14.2985 -28.1058 -13.4513ZM-28.1058 -13.4513" fill="#fff"/>
 </g>
 <g transform="matrix(1.000000,-0.000000,-0.000000,1.000000,206.296528,-357.165354)">
  <path d="M-20.2172 -0M-10.6298 -6.75664C-11.0637 -5.70286 -11.8283 -3.8019 -11.9936 -3.07872L-12.0142 -3.07872C-12.2002 -3.82257 -13.0473 -5.86816 -13.4813 -6.96327L-16.1261 -13.4926C-16.4773 -14.3398 -17.1385 -14.3398 -17.5104 -14.3398L-19.2254 -14.3398C-19.9693 -14.3398 -20.2172 -14.1125 -20.2172 -13.348L-20.2172 -0.991801C-20.2172 -0.24795 -19.9899 -0 -19.2254 -0L-18.6675 -0C-17.8824 -0 -17.6757 -0.268613 -17.6757 -0.991801L-17.6757 -11.6743L-17.6551 -11.6743C-17.4278 -10.7445 -16.498 -8.45097 -16.0021 -7.23188L-13.6052 -1.34306C-13.2333 -0.454575 -12.7374 -0.454575 -12.0349 -0.454575C-11.3324 -0.454575 -10.8364 -0.454575 -10.4645 -1.34306L-7.81972 -7.8311C-7.6131 -8.327 -6.49732 -11.1371 -6.35268 -11.6743L-6.33202 -11.6743L-6.33202 -0.991801C-6.33202 -0.3306 -6.18738 -0 -5.34022 -0L-4.78233 -0C-3.99716 -0 -3.79053 -0.268613 -3.79053 -0.991801L-3.79053 -13.348C-3.79053 -14.0092 -3.93517 -14.3398 -4.78233 -14.3398L-6.51798 -14.3398C-7.03455 -14.3398 -7.55111 -14.2985 -7.90237 -13.4513ZM-7.90237 -13.4513" fill="#fff"/>
 </g>
 <g transform="matrix(1.000000,-0.000000,-0.000000,1.000000,206.296528,-357.165354)">
  <path d="M-1.02624 -0M7.89997 -13.4513C7.59003 -14.3398 6.99082 -14.3398 6.57757 -14.3398L4.75927 -14.3398C4.34602 -14.3398 3.7468 -14.3398 3.43686 -13.4513L-0.922928 -0.971138C-1.02624 -0.702526 -1.02624 -0.661201 -1.02624 -0.557888C-1.02624 -0 -0.509677 -0 -0.220402 -0L0.523449 -0C0.895374 -0 1.53591 -0 1.82519 -0.826501L2.63103 -3.12004L8.35454 -3.12004L9.05707 -1.13644C9.30502 -0.41325 9.44966 -0 10.4415 -0L11.5572 -0C11.8465 -0 12.3631 -0 12.3631 -0.557888C12.3631 -0.661201 12.3631 -0.702526 12.2598 -0.971138ZM12.2598 -0.971138M4.7386 -9.27747C5.04854 -10.1866 5.31715 -10.9718 5.48245 -11.7156L5.50312 -11.7156C5.60643 -11.2197 5.60643 -11.1784 5.77173 -10.7032L7.73467 -4.89702L3.2509 -4.89702ZM3.2509 -4.89702" fill="#fff"/>
 </g>
 <g transform="matrix(1.000000,-0.000000,-0.000000,1.000000,206.296528,-357.165354)">
  <path d="M13.8876 -0M25.8512 -2.95474C25.8512 -3.12004 25.7065 -3.20269 25.6239 -3.20269C25.128 -3.20269 24.5288 -1.85963 21.6154 -1.85963C17.9788 -1.85963 16.9456 -4.09118 16.9456 -7.19056C16.9456 -10.2693 18.0614 -12.5008 21.4501 -12.5008C23.289 -12.5008 24.2602 -11.7776 24.8181 -11.3231C24.942 -11.2197 25.004 -11.1371 25.1487 -11.1371C25.2313 -11.1371 25.3346 -11.2404 25.3553 -11.3231L25.7685 -13.6166C25.7892 -13.6993 25.7685 -13.7819 25.6032 -13.8439C24.3841 -14.2985 23.1237 -14.5877 21.512 -14.5877C16.4704 -14.5877 13.8876 -12.1289 13.8876 -7.21122C13.8876 -2.1489 16.5117 0.206625 21.5327 0.206625C23.289 0.206625 24.3841 -0.041325 25.8925 -0.971138C26.0578 -1.07445 26.0165 -1.21909 26.0165 -1.21909ZM26.0165 -1.21909" fill="#fff"/>
 </g>
 <g transform="matrix(1.000000,-0.000000,-0.000000,1.000000,206.296528,-357.165354)">
  <path d="M28.0162 -0M36.9424 -13.4513C36.6325 -14.3398 36.0333 -14.3398 35.62 -14.3398L33.8017 -14.3398C33.3885 -14.3398 32.7893 -14.3398 32.4793 -13.4513L28.1195 -0.971138C28.0162 -0.702526 28.0162 -0.661201 28.0162 -0.557888C28.0162 -0 28.5328 -0 28.8221 -0L29.5659 -0C29.9378 -0 30.5784 -0 30.8676 -0.826501L31.6735 -3.12004L37.397 -3.12004L38.0995 -1.13644C38.3475 -0.41325 38.4921 -0 39.4839 -0L40.5997 -0C40.889 -0 41.4055 -0 41.4055 -0.557888C41.4055 -0.661201 41.4055 -0.702526 41.3022 -0.971138ZM41.3022 -0.971138M33.7811 -9.27747C34.091 -10.1866 34.3596 -10.9718 34.5249 -11.7156L34.5456 -11.7156C34.6489 -11.2197 34.6489 -11.1784 34.8142 -10.7032L36.7771 -4.89702L32.2934 -4.89702ZM32.2934 -4.89702" fill="#fff"/>
 </g>
 <path d="M206.013 -331.654L206.58 -331.654"/>
 <g transform="matrix(1.000000,-0.000000,-0.000000,1.000000,206.296528,-331.653543)">
  <path d="M-29.9114 -11.7579M-25.378 0.508103L-27.9029 -5.07257C-28.0033 -5.30211 -28.0751 -5.30211 -28.1181 -5.30211C-28.1324 -5.30211 -28.2042 -5.30211 -28.362 -5.18734L-29.7249 -4.15441C-29.9114 -4.01095 -29.9114 -3.96791 -29.9114 -3.92487C-29.9114 -3.85314 -29.8683 -3.76706 -29.7679 -3.76706C-29.6818 -3.76706 -29.4379 -3.96791 -29.2801 -4.08268C-29.1941 -4.15441 -28.9789 -4.31222 -28.8211 -4.42699L-25.9949 1.78491C-25.8944 2.01445 -25.8227 2.01445 -25.6936 2.01445C-25.4784 2.01445 -25.4354 1.92838 -25.3349 1.72753L-18.8218 -11.7579C-18.7213 -11.9587 -18.7213 -12.0161 -18.7213 -12.0448C-18.7213 -12.1883 -18.8361 -12.3317 -19.0083 -12.3317C-19.123 -12.3317 -19.2235 -12.26 -19.3382 -12.0305ZM-19.3382 -12.0305" fill="black"/>
 </g>
 <g transform="matrix(1.000000,-0.000000,-0.000000,1.000000,206.296528,-331.653543)">
  <path d="M-19.0034 -11.7579L-11.9799 -11.7579L-11.9799 -12.3317L-19.0034 -12.3317Z" fill="black"/>
 </g>
 <g transform="matrix(1.000000,-0.000000,-0.000000,1.000000,206.296528,-331.653543)">
  <path d="M-18.3005 -0M-17.1671 -8.22037C-16.5502 -8.01952 -16.0481 -8.00518 -15.8903 -8.00518C-14.2692 -8.00518 -13.2363 -9.19591 -13.2363 -9.39676C-13.2363 -9.45414 -13.265 -9.52587 -13.351 -9.52587C-13.3797 -9.52587 -13.4084 -9.52587 -13.5375 -9.46849C-14.3409 -9.12418 -15.0295 -9.08114 -15.4025 -9.08114C-16.3494 -9.08114 -17.0237 -9.36807 -17.2962 -9.48284C-17.3967 -9.52587 -17.4254 -9.52587 -17.4397 -9.52587C-17.5545 -9.52587 -17.5545 -9.4398 -17.5545 -9.21026L-17.5545 -4.94944C-17.5545 -4.69121 -17.5545 -4.60513 -17.3823 -4.60513C-17.3106 -4.60513 -17.2962 -4.61948 -17.1528 -4.79163C-16.7511 -5.37982 -16.0768 -5.72413 -15.3595 -5.72413C-14.5992 -5.72413 -14.2262 -5.02117 -14.1114 -4.77728C-13.8675 -4.21778 -13.8532 -3.51482 -13.8532 -2.96966C-13.8532 -2.42451 -13.8532 -1.60677 -14.2549 -0.961195C-14.5705 -0.444732 -15.13 -0.0860772 -15.7612 -0.0860772C-16.7081 -0.0860772 -17.6406 -0.731656 -17.8988 -1.77893C-17.8271 -1.75024 -17.741 -1.73589 -17.6692 -1.73589C-17.4254 -1.73589 -17.038 -1.87935 -17.038 -2.36712C-17.038 -2.76882 -17.3106 -2.99835 -17.6692 -2.99835C-17.9275 -2.99835 -18.3005 -2.86924 -18.3005 -2.30974C-18.3005 -1.09031 -17.3249 0.30127 -15.7325 0.30127C-14.1114 0.30127 -12.6911 -1.06162 -12.6911 -2.88359C-12.6911 -4.59078 -13.8388 -6.01106 -15.3452 -6.01106C-16.1629 -6.01106 -16.7941 -5.6524 -17.1671 -5.25071ZM-17.1671 -5.25071" fill="black"/>
 </g>
 <g transform="matrix(1.000000,-0.000000,-0.000000,1.000000,206.296528,-331.653543)">
  <path d="M-6.5228 -0M-1.12863 -10.2432C-1.0569 -10.4297 -1.0569 -10.4584 -1.0569 -10.4871C-1.0569 -10.6736 -1.20036 -10.7596 -1.31513 -10.7596C-1.50163 -10.7596 -1.54467 -10.6305 -1.6164 -10.444L-6.45107 3.07009C-6.5228 3.25659 -6.5228 3.28528 -6.5228 3.31397C-6.5228 3.47178 -6.40803 3.58655 -6.25022 3.58655C-6.06372 3.58655 -6.02068 3.44309 -5.9633 3.28528ZM-5.9633 3.28528" fill="black"/>
 </g>
 <g transform="matrix(1.000000,-0.000000,-0.000000,1.000000,206.296528,-331.653543)">
  <path d="M5.71396 -0M8.54016 -9.19591C8.54016 -9.52587 8.54016 -9.54022 8.25324 -9.54022C7.90893 -9.15287 7.19162 -8.62206 5.71396 -8.62206L5.71396 -8.20602C6.04392 -8.20602 6.76123 -8.20602 7.55027 -8.57903L7.55027 -1.10466C7.55027 -0.588194 7.50723 -0.41604 6.24477 -0.41604L5.80004 -0.41604L5.80004 -0C6.18738 -0.0286924 7.57897 -0.0286924 8.05239 -0.0286924C8.52581 -0.0286924 9.90305 -0.0286924 10.2904 -0L10.2904 -0.41604L9.84566 -0.41604C8.5832 -0.41604 8.54016 -0.588194 8.54016 -1.10466ZM8.54016 -1.10466" fill="black"/>
 </g>
 <g transform="matrix(1.000000,-0.000000,-0.000000,1.000000,206.296528,-331.653543)">
  <path d="M12.0202 -0M15.7072 -5.17898C16.4245 -5.56632 17.4718 -6.22625 17.4718 -7.43133C17.4718 -8.67945 16.2667 -9.54022 14.9468 -9.54022C13.5266 -9.54022 12.4076 -8.49295 12.4076 -7.18744C12.4076 -6.69967 12.551 -6.2119 12.9527 -5.72413C13.1105 -5.53763 13.1249 -5.52329 14.1291 -4.82032C12.7375 -4.17474 12.0202 -3.21355 12.0202 -2.16628C12.0202 -0.645579 13.4692 0.30127 14.9325 0.30127C16.5249 0.30127 17.8591 -0.875118 17.8591 -2.38147C17.8591 -3.84478 16.8262 -4.49036 15.7072 -5.17898ZM15.7072 -5.17898M13.7561 -6.47013C13.5696 -6.59925 12.9958 -6.97225 12.9958 -7.67521C12.9958 -8.60772 13.9713 -9.19591 14.9325 -9.19591C15.9654 -9.19591 16.8836 -8.44991 16.8836 -7.41698C16.8836 -6.54187 16.2524 -5.8389 15.4203 -5.37982ZM15.4203 -5.37982M14.4304 -4.61948L16.1663 -3.48613C16.5393 -3.24224 17.1992 -2.79751 17.1992 -1.92239C17.1992 -0.832079 16.0945 -0.0860772 14.9468 -0.0860772C13.7274 -0.0860772 12.6801 -0.975541 12.6801 -2.16628C12.6801 -3.28528 13.4979 -4.18909 14.4304 -4.61948ZM14.4304 -4.61948" fill="black"/>
 </g>
 <g transform="matrix(1.000000,-0.000000,-0.000000,1.000000,206.296528,-331.653543)">
  <path d="M19.0438 -0M24.8827 -4.59078C24.8827 -5.78152 24.811 -6.94356 24.2945 -8.03387C23.7063 -9.2246 22.6734 -9.54022 21.9704 -9.54022C21.1383 -9.54022 20.1198 -9.12418 19.589 -7.93345C19.1873 -7.02964 19.0438 -6.14017 19.0438 -4.59078C19.0438 -3.1992 19.1442 -2.15193 19.6607 -1.13335C20.2202 -0.0430386 21.2101 0.30127 21.9561 0.30127C23.2042 0.30127 23.9215 -0.444732 24.3375 -1.27681C24.854 -2.35278 24.8827 -3.7587 24.8827 -4.59078ZM24.8827 -4.59078M21.9561 0.0143462C21.497 0.0143462 20.5645 -0.243885 20.2919 -1.80762C20.1341 -2.66839 20.1341 -3.7587 20.1341 -4.76294C20.1341 -5.93933 20.1341 -7.00094 20.3636 -7.84737C20.6075 -8.80856 21.3392 -9.2533 21.9561 -9.2533C22.5012 -9.2533 23.3333 -8.92333 23.6059 -7.68956C23.7924 -6.87183 23.7924 -5.73848 23.7924 -4.76294C23.7924 -3.80174 23.7924 -2.71143 23.6346 -1.83631C23.362 -0.258232 22.4582 0.0143462 21.9561 0.0143462ZM21.9561 0.0143462" fill="black"/>
 </g>
 <g transform="matrix(1.000000,-0.000000,-0.000000,1.000000,206.296528,-331.653543)">
  <path d="M26.0271 -5.20611M29.9026 -7.69677C29.9026 -8.76277 29.0159 -9.62952 27.9698 -9.62952C26.8939 -9.62952 26.0271 -8.74285 26.0271 -7.69677C26.0271 -6.64073 26.8939 -5.76402 27.9698 -5.76402C29.0159 -5.76402 29.9026 -6.63077 29.9026 -7.69677ZM29.9026 -7.69677M27.9698 -6.16252C27.1031 -6.16252 26.4256 -6.85991 26.4256 -7.69677C26.4256 -8.53363 27.113 -9.23102 27.9698 -9.23102C28.7967 -9.23102 29.5041 -8.55356 29.5041 -7.69677C29.5041 -6.83998 28.7967 -6.16252 27.9698 -6.16252ZM27.9698 -6.16252" fill="black"/>
 </g>
 <g stroke-linecap="round" stroke-linejoin="round">
  <path d="M-96.6634 144.546L-236.787 -378.403" stroke="black"/>
 </g>
 <g stroke-linecap="butt" stroke-linejoin="round" stroke-dasharray="2.000000" stroke-dashoffset="0.000000">
  <path d="M-96.6634 144.546L-96.6634 -361.735" stroke="black"/>
 </g>
 <g stroke-linecap="round" stroke-linejoin="round">
  <path d="M-96.6634 144.546L25.8725 -312.765" stroke="black"/>
 </g>
 <g stroke-linecap="butt" stroke-linejoin="round" stroke-dasharray="2.000000" stroke-dashoffset="0.000000">
  <path d="M-96.6634 144.546L124.704 -238.874" stroke="black"/>
 </g>
 <g stroke-linecap="round" stroke-linejoin="round">
  <path d="M-96.6634 144.546L196.092 -148.21" stroke="black"/>
 </g>
 <g stroke-linecap="butt" stroke-linejoin="round" stroke-dasharray="2.000000" stroke-dashoffset="0.000000">
  <path d="M-96.6634 144.546L238.631 -49.037" stroke="black"/>
 </g>
 <g stroke-linecap="round" stroke-linejoin="round">
  <path d="M-96.6634 144.546L253.053 50.8393" stroke="black"/>
 </g>
 <g stroke-linecap="butt" stroke-linejoin="round" stroke-dasharray="2.000000" stroke-dashoffset="0.000000">
  <path d="M-96.6634 144.546L241.907 144.546" stroke="black"/>
 </g>
 <g stroke-linecap="round" stroke-linejoin="round">
  <path d="M-96.6634 144.546L209.159 226.49" stroke="black"/>
 </g>
 <g stroke-linecap="butt" stroke-linejoin="round" stroke-dasharray="2.000000" stroke-dashoffset="0.000000">
  <path d="M-96.6634 144.546L159.745 292.583" stroke="black"/>
 </g>
 <g stroke-linecap="round" stroke-linejoin="round">
  <path d="M-96.6634 144.546L99.1139 340.323" stroke="black"/>
 </g>
 <g stroke-linecap="butt" stroke-linejoin="round" stroke-dasharray="2.000000" stroke-dashoffset="0.000000">
  <path d="M-96.6634 144.546L32.793 368.771" stroke="black"/>
 </g>
 <g stroke-linecap="round" stroke-linejoin="round">
  <path d="M-96.6634 144.546L-33.9983 378.415" stroke="black"/>
 </g>
 <g stroke-linecap="butt" stroke-linejoin="round" stroke-dasharray="2.000000" stroke-dashoffset="0.000000">
  <path d="M-96.6634 144.546L-96.6634 370.961" stroke="black"/>
 </g>
 <g stroke-linecap="round" stroke-linejoin="round">
  <path d="M-96.6634 144.546L-151.463 349.061" stroke="black"/>
 </g>
 <g stroke-linecap="butt" stroke-linejoin="round" stroke-dasharray="2.000000" stroke-dashoffset="0.000000">
  <path d="M-96.6634 144.546L-195.662 316.016" stroke="black"/>
 </g>
 <g stroke-linecap="round" stroke-linejoin="round">
  <path d="M-96.6634 144.546L-227.588 275.47" stroke="black"/>
 </g>
 <g stroke-linecap="butt" stroke-linejoin="round" stroke-dasharray="2.000000" stroke-dashoffset="0.000000">
  <path d="M-96.6634 144.546L-246.612 231.118" stroke="black"/>
 </g>
 <g stroke-linecap="round" stroke-linejoin="round">
  <path d="M-96.6634 144.546L-253.061 186.452" stroke="black"/>
 </g>
 <g stroke-linecap="butt" stroke-linejoin="round" stroke-dasharray="2.000000" stroke-dashoffset="0.000000">
  <path d="M-96.6634 144.546L-248.077 144.546" stroke="black"/>
 </g>
 <g stroke-linecap="round" stroke-linejoin="round">
  <path d="M-96.6634 144.546L-233.431 107.899" stroke="black"/>
 </g>
 <g stroke-linecap="butt" stroke-linejoin="round" stroke-dasharray="2.000000" stroke-dashoffset="0.000000">
  <path d="M-96.6634 144.546L-211.333 78.3413" stroke="black"/>
 </g>
 <g stroke-linecap="round" stroke-linejoin="round">
  <path d="M-96.6634 144.546L-184.218 56.9913" stroke="black"/>
 </g>
 <g stroke-linecap="butt" stroke-linejoin="round" stroke-dasharray="2.000000" stroke-dashoffset="0.000000">
  <path d="M-96.6634 144.546L-154.558 44.269" stroke="black"/>
 </g>
 <g stroke-linecap="round" stroke-linejoin="round">
  <path d="M-96.6634 144.546L-124.688 39.9559" stroke="black"/>
 </g>
 <g stroke-linecap="round" stroke-linejoin="round" stroke-width="1.603518">
  <path d="M-236.787 -378.403L-227.055 -378.425L-217.367 -378.279L-207.726 -377.964L-198.136 -377.484L-188.598 -376.839L-179.115 -376.032L-169.69 -375.063L-160.325 -373.936L-151.023 -372.65L-141.786 -371.209L-132.617 -369.614L-123.518 -367.868L-114.491 -365.971L-105.539 -363.926L-96.6634 -361.735L-87.867 -359.4L-79.1518 -356.923L-70.5198 -354.305L-61.973 -351.55L-53.5136 -348.659L-45.1434 -345.635L-36.8644 -342.479L-28.6783 -339.194L-20.5872 -335.781L-12.5926 -332.244L-4.69633 -328.584L3.09991 -324.804L10.7945 -320.906L18.3859 -316.892L25.8725 -312.765L33.2529 -308.527L40.5256 -304.18L47.6893 -299.726L54.7425 -295.169L61.684 -290.511L68.5126 -285.753L75.227 -280.898L81.8261 -275.949L88.3087 -270.909L94.6739 -265.779L100.921 -260.562L107.048 -255.26L113.055 -249.877L118.94 -244.414L124.704 -238.874L130.345 -233.259L135.862 -227.573L141.255 -221.816L146.523 -215.993L151.665 -210.105L156.682 -204.154L161.572 -198.144L166.335 -192.077L170.97 -185.955L175.478 -179.78L179.858 -173.556L184.11 -167.285L188.233 -160.968L192.227 -154.609L196.092 -148.21L199.828 -141.773L203.435 -135.301L206.913 -128.796L210.262 -122.261L213.482 -115.698L216.573 -109.109L219.536 -102.496L222.37 -95.8632L225.075 -89.2113L227.653 -82.543L230.102 -75.8608L232.425 -69.1668L234.62 -62.4633L236.689 -55.7526L238.631 -49.037L240.448 -42.3185L242.14 -35.5995L243.707 -28.882L245.151 -22.1683L246.471 -15.4605L247.668 -8.76071L248.744 -2.07101L249.698 4.60653L250.532 11.2698L251.246 17.9169L251.841 24.5457L252.319 31.1543L252.679 37.7407L252.924 44.303L253.053 50.8393L253.068 57.3477L252.97 63.8263L252.76 70.2733L252.439 76.687L252.008 83.0654L251.468 89.407L250.82 95.71L250.066 101.973L249.206 108.193L248.243 114.37L247.176 120.502L246.008 126.587L244.739 132.624L243.372 138.61L241.907 144.546L240.345 150.428L238.688 156.256L236.938 162.029L235.096 167.744L233.163 173.402L231.14 178.999L229.029 184.536L226.832 190.01L224.55 195.421L222.185 200.767L219.738 206.048L217.21 211.261L214.603 216.407L211.919 221.484L209.159 226.49L206.324 231.426L203.417 236.289L200.439 241.08L197.392 245.797L194.276 250.439L191.094 255.005L187.848 259.496L184.538 263.909L181.168 268.244L177.737 272.501L174.248 276.678L170.703 280.776L167.103 284.793L163.449 288.729L159.745 292.583L155.99 296.355L152.187 300.045L148.338 303.651L144.443 307.174L140.505 310.613L136.526 313.968L132.507 317.238L128.45 320.423L124.355 323.523L120.226 326.538L116.064 329.467L111.87 332.31L107.646 335.067L103.393 337.738L99.1139 340.323L94.8093 342.821L90.4813 345.234L86.1312 347.56L81.7608 349.799L77.3717 351.953L72.9654 354.02L68.5435 356.001L64.1076 357.896L59.6592 359.705L55.1999 361.429L50.7312 363.067L46.2546 364.62L41.7717 366.088L37.284 367.472L32.793 368.771L28.3001 369.986L23.8068 371.117L19.3146 372.165L14.8248 373.13L10.3391 374.013L5.85864 374.814L1.38496 375.533L-3.08057 376.171L-7.5366 376.729L-11.9818 377.207L-16.4147 377.605L-20.8342 377.924L-25.2388 378.165L-29.6272 378.329L-33.9983 378.415L-38.3507 378.425L-42.6832 378.36L-46.9946 378.219L-51.2837 378.004L-55.5492 377.716L-59.7901 377.355L-64.0051 376.922L-68.1932 376.417L-72.3532 375.843L-76.484 375.198L-80.5845 374.485L-84.6538 373.704L-88.6907 372.855L-92.6942 371.941L-96.6634 370.961L-100.597 369.917L-104.495 368.809L-108.355 367.638L-112.177 366.406L-115.961 365.114L-119.704 363.761L-123.406 362.35L-127.067 360.88L-130.686 359.354L-134.261 357.772L-137.792 356.136L-141.279 354.445L-144.72 352.702L-148.115 350.907L-151.463 349.061L-154.764 347.166L-158.016 345.222L-161.22 343.23L-164.374 341.192L-167.479 339.109L-170.532 336.981L-173.535 334.81L-176.486 332.597L-179.386 330.342L-182.232 328.048L-185.026 325.715L-187.766 323.344L-190.452 320.937L-193.084 318.494L-195.662 316.016L-198.185 313.505L-200.652 310.962L-203.064 308.388L-205.42 305.783L-207.719 303.15L-209.963 300.489L-212.15 297.801L-214.28 295.088L-216.353 292.35L-218.369 289.589L-220.328 286.805L-222.229 284L-224.073 281.175L-225.859 278.332L-227.588 275.47L-229.259 272.591L-230.872 269.697L-232.427 266.788L-233.925 263.865L-235.365 260.93L-236.747 257.983L-238.072 255.026L-239.339 252.06L-240.549 249.085L-241.702 246.103L-242.798 243.114L-243.836 240.121L-244.818 237.123L-245.743 234.122L-246.612 231.118L-247.424 228.114L-248.181 225.109L-248.882 222.105L-249.527 219.102L-250.118 216.102L-250.653 213.106L-251.134 210.114L-251.561 207.128L-251.934 204.148L-252.253 201.176L-252.52 198.211L-252.733 195.256L-252.894 192.31L-253.004 189.375L-253.061 186.452L-253.068 183.542L-253.024 180.644L-252.93 177.761L-252.787 174.893L-252.594 172.04L-252.352 169.204L-252.063 166.386L-251.725 163.585L-251.341 160.803L-250.91 158.04L-250.433 155.298L-249.911 152.577L-249.343 149.877L-248.732 147.2L-248.077 144.546L-247.378 141.915L-246.637 139.308L-245.855 136.727L-245.031 134.171L-244.166 131.641L-243.262 129.137L-242.318 126.661L-241.335 124.213L-240.315 121.793L-239.257 119.403L-238.162 117.041L-237.032 114.709L-235.866 112.408L-234.666 110.138L-233.431 107.899L-232.164 105.692L-230.864 103.516L-229.532 101.374L-228.169 99.2646L-226.776 97.1886L-225.353 95.1464L-223.901 93.1383L-222.421 91.1647L-220.913 89.226L-219.379 87.3223L-217.819 85.4541L-216.233 83.6217L-214.623 81.8252L-212.989 80.065L-211.333 78.3413L-209.653 76.6543L-207.953 75.0043L-206.231 73.3914L-204.49 71.8159L-202.729 70.2779L-200.949 68.7777L-199.152 67.3152L-197.337 65.8907L-195.506 64.5043L-193.66 63.1562L-191.798 61.8463L-189.922 60.5748L-188.033 59.3418L-186.132 58.1473L-184.218 56.9913L-182.293 55.8739L-180.357 54.7951L-178.412 53.7549L-176.457 52.7533L-174.494 51.7903L-172.524 50.8659L-170.546 49.9799L-168.562 49.1324L-166.573 48.3233L-164.579 47.5524L-162.58 46.8198L-160.578 46.1252L-158.574 45.4687L-156.567 44.85L-154.558 44.269L-152.549 43.7257L-150.539 43.2197L-148.53 42.751L-146.523 42.3193L-144.516 41.9245L-142.513 41.5664L-140.512 41.2448L-138.515 40.9594L-136.522 40.71L-134.534 40.4964L-132.552 40.3183L-130.575 40.1755L-128.606 40.0677L-126.643 39.9946L-124.688 39.9559L-122.742 39.9514L-120.804 39.9807L-118.876 40.0436L-116.958 40.1396L-115.05 40.2686L-113.154 40.4301L-111.269 40.6238L-109.396 40.8493L-107.535 41.1064L-105.688 41.3946L-103.854 41.7136L-102.034 42.0629L-100.229 42.4423L-98.4385 42.8513L-96.6634 43.2895L-94.9042 43.7565L-93.1611 44.2519L-91.4347 44.7754L-89.7254 45.3264L-88.0335 45.9046L-86.3594 46.5095L-84.7036 47.1407L-83.0664 47.7977L-81.4482 48.4802L-79.8493 49.1876L-78.27 49.9196L-76.7108 50.6756L-75.1719 51.4553L-73.6536 52.258L-72.1562 53.0835L-70.6802 53.9311L-69.2256 54.8005L-67.7929 55.6912L-66.3823 56.6026L-64.9939 57.5343L-63.6282 58.4859L-62.2854 59.4568L-60.9655 60.4466L-59.669 61.4547L-58.396 62.4807L-57.1466 63.5241L-55.9212 64.5844L-54.7198 65.6611L-53.5427 66.7536L-52.39 67.8617L-51.2618 68.9846L-50.1584 70.1219L-49.0798 71.2732L-48.0262 72.4379L-46.9977 73.6155L-45.9944 74.8056L-45.0164 76.0076L-44.0638 77.2211L-43.1367 78.4455L-42.2351 79.6804L-41.3591 80.9252L-40.5088 82.1795L-39.6842 83.4428L-38.8854 84.7147L-38.1124 85.9945L-37.3651 87.2818L-36.6437 88.5762L-35.9481 89.8772L-35.2783 91.1843L-34.6343 92.4969L-34.0161 93.8147L-33.4236 95.1372L-32.8568 96.4638L-32.3157 97.7942L-31.8002 99.1278L-31.3103 100.464L-30.8458 101.803L-30.4067 103.144L-29.993 104.486L-29.6045 105.829L-29.2411 107.173L-28.9027 108.517L-28.5893 109.86L-28.3006 111.203L-28.0366 112.544L-27.7971 113.884L-27.582 115.222L-27.3912 116.558L-27.2244 117.89L-27.0816 119.22L-26.9625 120.546L-26.867 121.867L-26.7949 123.185L-26.746 124.497L-26.7201 125.804L-26.7171 127.106L-26.7367 128.402L-26.7788 129.691L-26.843 130.974L-26.9292 132.25L-27.0372 133.518L-27.1668 134.778L-27.3176 136.031L-27.4895 137.275L-27.6822 138.51L-27.8955 139.737L-28.1292 140.954L-28.3829 142.161L-28.6564 143.358L-28.9494 144.546L-29.2617 145.722L-29.5931 146.888L-29.9431 148.042L-30.3116 149.185L-30.6982 150.317L-31.1028 151.436L-31.5249 152.544L-31.9643 153.638L-32.4207 154.721L-32.8938 155.79L-33.3833 156.846L-33.8888 157.889L-34.4102 158.918L-34.947 159.933L-35.4991 160.935L-36.0659 161.922L-36.6473 162.894L-37.2429 163.852L-37.8524 164.796L-38.4755 165.724L-39.1119 166.638L-39.7612 167.536L-40.4231 168.418L-41.0972 169.285L-41.7834 170.137L-42.4811 170.972L-43.1902 171.792L-43.9102 172.595L-44.6409 173.382L-45.3818 174.153L-46.1328 174.907L-46.8934 175.645L-47.6633 176.367L-48.4421 177.071L-49.2297 177.759L-50.0255 178.43L-50.8294 179.084L-51.6408 179.721L-52.4597 180.341L-53.2855 180.944L-54.118 181.53L-54.9568 182.098L-55.8016 182.65L-56.6521 183.184L-57.508 183.701L-58.3689 184.201L-59.2345 184.683L-60.1045 185.148L-60.9786 185.596L-61.8564 186.027L-62.7377 186.44L-63.6221 186.837L-64.5092 187.216L-65.3989 187.577L-66.2908 187.922L-67.1845 188.25L-68.0798 188.56L-68.9764 188.854L-69.8739 189.131L-70.7722 189.391L-71.6707 189.634L-72.5694 189.86L-73.4678 190.069L-74.3658 190.263L-75.2629 190.439L-76.159 190.599L-77.0538 190.743L-77.9469 190.871L-78.8381 190.982L-79.7271 191.078L-80.6137 191.157L-81.4976 191.221L-82.3785 191.269L-83.2562 191.302L-84.1304 191.319L-85.0009 191.321L-85.8674 191.308L-86.7297 191.28L-87.5875 191.237L-88.4406 191.18L-89.2888 191.107L-90.1318 191.021L-90.9694 190.92L-91.8014 190.805L-92.6275 190.676L-93.4477 190.533L-94.2615 190.377L-95.0689 190.208L-95.8696 190.025L-96.6634 189.829L-97.4502 189.62L-98.2297 189.398L-99.0018 189.164L-99.7662 188.918L-100.523 188.659L-101.272 188.389L-102.012 188.106L-102.744 187.813L-103.468 187.507L-104.183 187.191L-104.889 186.864L-105.587 186.525L-106.275 186.177L-106.954 185.818L-107.623 185.449L-108.284 185.07L-108.934 184.681L-109.575 184.282L-110.206 183.875L-110.826 183.458L-111.437 183.033L-112.038 182.598L-112.628 182.156L-113.208 181.705L-113.777 181.246L-114.336 180.779L-114.884 180.305L-115.421 179.824L-115.948 179.335L-116.463 178.84L-116.968 178.337L-117.461 177.829L-117.943 177.314L-118.415 176.793L-118.875 176.266L-119.323 175.734L-119.761 175.197L-120.187 174.654L-120.601 174.106L-121.005 173.554L-121.396 172.997L-121.777 172.436L-122.145 171.872L-122.503 171.303L-122.848 170.73L-123.182 170.155L-123.505 169.576L-123.816 168.994L-124.116 168.409L-124.404 167.822L-124.68 167.233L-124.945 166.642L-125.199 166.048L-125.441 165.453L-125.671 164.857L-125.89 164.259L-126.098 163.661L-126.294 163.061L-126.479 162.461L-126.653 161.86L-126.816 161.259L-126.967 160.658L-127.107 160.057L-127.236 159.457L-127.354 158.857L-127.461 158.258L-127.558 157.659L-127.643 157.062L-127.718 156.466L-127.781 155.872L-127.835 155.279L-127.877 154.688L-127.91 154.098L-127.931 153.512L-127.943 152.927L-127.944 152.345L-127.936 151.765L-127.917 151.189L-127.888 150.615L-127.85 150.045L-127.801 149.477L-127.743 148.914L-127.676 148.353L-127.599 147.797L-127.513 147.245L-127.417 146.696L-127.313 146.152L-127.199 145.612L-127.077 145.076L-126.946 144.546L-126.806 144.019L-126.658 143.498L-126.502 142.982L-126.337 142.471L-126.164 141.965L-125.983 141.464L-125.794 140.969L-125.598 140.479L-125.394 139.995L-125.182 139.517L-124.963 139.045L-124.737 138.578L-124.504 138.118L-124.264 137.664L-124.017 137.216L-123.763 136.775L-123.503 136.34L-123.237 135.911L-122.965 135.489L-122.686 135.074L-122.401 134.666L-122.111 134.264L-121.815 133.869L-121.513 133.482L-121.207 133.101L-120.895 132.727L-120.577 132.361L-120.255 132.001L-119.929 131.649L-119.597 131.305L-119.261 130.967L-118.921 130.637L-118.577 130.315L-118.229 130L-117.876 129.692L-117.521 129.392L-117.161 129.099L-116.798 128.815L-116.432 128.537L-116.063 128.268L-115.69 128.006L-115.315 127.751L-114.937 127.505L-114.557 127.266L-114.174 127.035L-113.789 126.811L-113.402 126.595L-113.013 126.387L-112.622 126.187L-112.23 125.995L-111.836 125.81L-111.44 125.632L-111.043 125.463L-110.645 125.301L-110.247 125.147L-109.847 125L-109.446 124.861L-109.045 124.73L-108.644 124.606L-108.242 124.49L-107.841 124.382L-107.439 124.28L-107.037 124.187L-106.635 124.1L-106.234 124.021L-105.833 123.95L-105.433 123.885L-105.034 123.828L-104.635 123.778L-104.238 123.736L-103.841 123.7L-103.446 123.672L-103.052 123.65L-102.659 123.635L-102.268 123.628L-101.879 123.627L-101.492 123.633L-101.106 123.645L-100.722 123.664L-100.341 123.69L-99.9615 123.722L-99.5845 123.761L-99.2099 123.806L-98.8378 123.858L-98.4684 123.915L-98.1016 123.979L-97.7376 124.049L-97.3765 124.125L-97.0185 124.207L-96.6634 124.294L-96.3116 124.388L-95.963 124.487L-95.6177 124.592L-95.2758 124.702L-94.9375 124.817L-94.6026 124.938L-94.2715 125.065L-93.944 125.196L-93.6204 125.332L-93.3006 125.474L-92.9848 125.62L-92.6729 125.772L-92.3651 125.928L-92.0615 126.088L-91.762 126.253L-91.4668 126.423L-91.1759 126.597L-90.8893 126.775L-90.6072 126.957L-90.3295 127.143L-90.0564 127.334L-89.7878 127.528L-89.5239 127.726L-89.2646 127.927L-89.0099 128.133L-88.7601 128.341L-88.515 128.553L-88.2747 128.769L-88.0393 128.987L-87.8087 129.209L-87.5831 129.433L-87.3624 129.661L-87.1467 129.891L-86.936 130.124L-86.7303 130.36L-86.5296 130.598L-86.334 130.838L-86.1435 131.081L-85.9581 131.326L-85.7778 131.573L-85.6026 131.821L-85.4325 132.072L-85.2676 132.325L-85.1078 132.579L-84.9532 132.835L-84.8038 133.093L-84.6595 133.352L-84.5204 133.612L-84.3864 133.873L-84.2576 134.136L-84.134 134.399L-84.0155 134.664L-83.9021 134.929L-83.7939 135.195L-83.6908 135.462L-83.5928 135.729L-83.4999 135.997L-83.4121 136.265L-83.3294 136.534L-83.2517 136.802L-83.179 137.071L-83.1113 137.34L-83.0486 137.608L-82.9909 137.877L-82.9381 138.145L-82.8902 138.413L-82.8472 138.681L-82.809 138.948L-82.7756 139.215L-82.7471 139.48L-82.7233 139.746L-82.7042 140.01L-82.6897 140.273L-82.68 140.536" stroke="black"/>
 </g>
</svg>
