<?xml version="1.0" encoding="utf-8"?>
<svg xmlns="http://www.w3.org/2000/svg" fill="none" version="1.1" viewBox="-188.762 -379.425 377.524 758.85" x="-188.762pt" y="-379.425pt" width="377.524pt" height="758.85pt" stroke-width="0.566929" stroke-miterlimit="10.000000">
 <path d="M92.8015 -351.496L187.762 -351.496L187.762 -378.425L92.8015 -378.425Z" fill="black"/>
 <path d="M140.707 -357.165L141.274 -357.165"/>
 <g transform="matrix(1.000000,-0.000000,-0.000000,1.000000,140.990455,-357.165354)">
  <path d="M-40.4207 -0M-30.8333 -6.75664C-31.2672 -5.70286 -32.0317 -3.8019 -32.197 -3.07872L-32.2177 -3.07872C-32.4036 -3.82257 -33.2508 -5.86816 -33.6847 -6.96327L-36.3295 -13.4926C-36.6808 -14.3398 -37.342 -14.3398 -37.7139 -14.3398L-39.4289 -14.3398C-40.1727 -14.3398 -40.4207 -14.1125 -40.4207 -13.348L-40.4207 -0.991801C-40.4207 -0.24795 -40.1934 -0 -39.4289 -0L-38.871 -0C-38.0858 -0 -37.8792 -0.268613 -37.8792 -0.991801L-37.8792 -11.6743L-37.8585 -11.6743C-37.6313 -10.7445 -36.7014 -8.45097 -36.2055 -7.23188L-33.8087 -1.34306C-33.4368 -0.454575 -32.9409 -0.454575 -32.2383 -0.454575C-31.5358 -0.454575 -31.0399 -0.454575 -30.668 -1.34306L-28.0232 -7.8311C-27.8166 -8.327 -26.7008 -11.1371 -26.5561 -11.6743L-26.5355 -11.6743L-26.5355 -0.991801C-26.5355 -0.3306 -26.3908 -0 -25.5437 -0L-24.9858 -0C-24.2006 -0 -23.994 -0.268613 -23.994 -0.991801L-23.994 -13.348C-23.994 -14.0092 -24.1386 -14.3398 -24.9858 -14.3398L-26.7214 -14.3398C-27.238 -14.3398 -27.7546 -14.2985 -28.1058 -13.4513ZM-28.1058 -13.4513" fill="#fff"/>
 </g>
 <g transform="matrix(1.000000,-0.000000,-0.000000,1.000000,140.990455,-357.165354)">
  <path d="M-20.2172 -0M-10.6298 -6.75664C-11.0637 -5.70286 -11.8283 -3.8019 -11.9936 -3.07872L-12.0142 -3.07872C-12.2002 -3.82257 -13.0473 -5.86816 -13.4813 -6.96327L-16.1261 -13.4926C-16.4773 -14.3398 -17.1385 -14.3398 -17.5104 -14.3398L-19.2254 -14.3398C-19.9693 -14.3398 -20.2172 -14.1125 -20.2172 -13.348L-20.2172 -0.991801C-20.2172 -0.24795 -19.9899 -0 -19.2254 -0L-18.6675 -0C-17.8824 -0 -17.6757 -0.268613 -17.6757 -0.991801L-17.6757 -11.6743L-17.6551 -11.6743C-17.4278 -10.7445 -16.498 -8.45097 -16.0021 -7.23188L-13.6052 -1.34306C-13.2333 -0.454575 -12.7374 -0.454575 -12.0349 -0.454575C-11.3324 -0.454575 -10.8364 -0.454575 -10.4645 -1.34306L-7.81972 -7.8311C-7.6131 -8.327 -6.49732 -11.1371 -6.35268 -11.6743L-6.33202 -11.6743L-6.33202 -0.991801C-6.33202 -0.3306 -6.18738 -0 -5.34022 -0L-4.78233 -0C-3.99716 -0 -3.79053 -0.268613 -3.79053 -0.991801L-3.79053 -13.348C-3.79053 -14.0092 -3.93517 -14.3398 -4.78233 -14.3398L-6.51798 -14.3398C-7.03455 -14.3398 -7.55111 -14.2985 -7.90237 -13.4513ZM-7.90237 -13.4513" fill="#fff"/>
 </g>
 <g transform="matrix(1.000000,-0.000000,-0.000000,1.000000,140.990455,-357.165354)">
  <path d="M-1.02624 -0M7.89997 -13.4513C7.59003 -14.3398 6.99082 -14.3398 6.57757 -14.3398L4.75927 -14.3398C4.34602 -14.3398 3.7468 -14.3398 3.43686 -13.4513L-0.922928 -0.971138C-1.02624 -0.702526 -1.02624 -0.661201 -1.02624 -0.557888C-1.02624 -0 -0.509677 -0 -0.220402 -0L0.523449 -0C0.895374 -0 1.53591 -0 1.82519 -0.826501L2.63103 -3.12004L8.35454 -3.12004L9.05707 -1.13644C9.30502 -0.41325 9.44966 -0 10.4415 -0L11.5572 -0C11.8465 -0 12.3631 -0 12.3631 -0.557888C12.3631 -0.661201 12.3631 -0.702526 12.2598 -0.971138ZM12.2598 -0.971138M4.7386 -9.27747C5.04854 -10.1866 5.31715 -10.9718 5.48245 -11.7156L5.50312 -11.7156C5.60643 -11.2197 5.60643 -11.1784 5.77173 -10.7032L7.73467 -4.89702L3.2509 -4.89702ZM3.2509 -4.89702" fill="#fff"/>
 </g>
 <g transform="matrix(1.000000,-0.000000,-0.000000,1.000000,140.990455,-357.165354)">
  <path d="M13.8876 -0M25.8512 -2.95474C25.8512 -3.12004 25.7065 -3.20269 25.6239 -3.20269C25.128 -3.20269 24.5288 -1.85963 21.6154 -1.85963C17.9788 -1.85963 16.9456 -4.09118 16.9456 -7.19056C16.9456 -10.2693 18.0614 -12.5008 21.4501 -12.5008C23.289 -12.5008 24.2602 -11.7776 24.8181 -11.3231C24.942 -11.2197 25.004 -11.1371 25.1487 -11.1371C25.2313 -11.1371 25.3346 -11.2404 25.3553 -11.3231L25.7685 -13.6166C25.7892 -13.6993 25.7685 -13.7819 25.6032 -13.8439C24.3841 -14.2985 23.1237 -14.5877 21.512 -14.5877C16.4704 -14.5877 13.8876 -12.1289 13.8876 -7.21122C13.8876 -2.1489 16.5117 0.206625 21.5327 0.206625C23.289 0.206625 24.3841 -0.041325 25.8925 -0.971138C26.0578 -1.07445 26.0165 -1.21909 26.0165 -1.21909ZM26.0165 -1.21909" fill="#fff"/>
 </g>
 <g transform="matrix(1.000000,-0.000000,-0.000000,1.000000,140.990455,-357.165354)">
  <path d="M28.0162 -0M36.9424 -13.4513C36.6325 -14.3398 36.0333 -14.3398 35.62 -14.3398L33.8017 -14.3398C33.3885 -14.3398 32.7893 -14.3398 32.4793 -13.4513L28.1195 -0.971138C28.0162 -0.702526 28.0162 -0.661201 28.0162 -0.557888C28.0162 -0 28.5328 -0 28.8221 -0L29.5659 -0C29.9378 -0 30.5784 -0 30.8676 -0.826501L31.6735 -3.12004L37.397 -3.12004L38.0995 -1.13644C38.3475 -0.41325 38.4921 -0 39.4839 -0L40.5997 -0C40.889 -0 41.4055 -0 41.4055 -0.557888C41.4055 -0.661201 41.4055 -0.702526 41.3022 -0.971138ZM41.3022 -0.971138M33.7811 -9.27747C34.091 -10.1866 34.3596 -10.9718 34.5249 -11.7156L34.5456 -11.7156C34.6489 -11.2197 34.6489 -11.1784 34.8142 -10.7032L36.7771 -4.89702L32.2934 -4.89702ZM32.2934 -4.89702" fill="#fff"/>
 </g>
 <path d="M140.707 -331.654L141.274 -331.654"/>
 <g transform="matrix(1.000000,-0.000000,-0.000000,1.000000,140.990455,-331.653543)">
  <path d="M-26.3996 -11.7579M-21.8662 0.508103L-24.3911 -5.07257C-24.4915 -5.30211 -24.5633 -5.30211 -24.6063 -5.30211C-24.6206 -5.30211 -24.6924 -5.30211 -24.8502 -5.18734L-26.2131 -4.15441C-26.3996 -4.01095 -26.3996 -3.96791 -26.3996 -3.92487C-26.3996 -3.85314 -26.3565 -3.76706 -26.2561 -3.76706C-26.17 -3.76706 -25.9262 -3.96791 -25.7683 -4.08268C-25.6823 -4.15441 -25.4671 -4.31222 -25.3093 -4.42699L-22.4831 1.78491C-22.3826 2.01445 -22.3109 2.01445 -22.1818 2.01445C-21.9666 2.01445 -21.9236 1.92838 -21.8231 1.72753L-15.31 -11.7579C-15.2095 -11.9587 -15.2095 -12.0161 -15.2095 -12.0448C-15.2095 -12.1883 -15.3243 -12.3317 -15.4965 -12.3317C-15.6112 -12.3317 -15.7117 -12.26 -15.8264 -12.0305ZM-15.8264 -12.0305" fill="black"/>
 </g>
 <g transform="matrix(1.000000,-0.000000,-0.000000,1.000000,140.990455,-331.653543)">
  <path d="M-15.4916 -11.7579L-8.46808 -11.7579L-8.46808 -12.3317L-15.4916 -12.3317Z" fill="black"/>
 </g>
 <g transform="matrix(1.000000,-0.000000,-0.000000,1.000000,140.990455,-331.653543)">
  <path d="M-14.7887 -0M-13.6553 -8.22037C-13.0385 -8.01952 -12.5363 -8.00518 -12.3785 -8.00518C-10.7574 -8.00518 -9.72448 -9.19591 -9.72448 -9.39676C-9.72448 -9.45414 -9.75317 -9.52587 -9.83925 -9.52587C-9.86794 -9.52587 -9.89663 -9.52587 -10.0257 -9.46849C-10.8291 -9.12418 -11.5178 -9.08114 -11.8908 -9.08114C-12.8376 -9.08114 -13.5119 -9.36807 -13.7845 -9.48284C-13.8849 -9.52587 -13.9136 -9.52587 -13.9279 -9.52587C-14.0427 -9.52587 -14.0427 -9.4398 -14.0427 -9.21026L-14.0427 -4.94944C-14.0427 -4.69121 -14.0427 -4.60513 -13.8705 -4.60513C-13.7988 -4.60513 -13.7845 -4.61948 -13.641 -4.79163C-13.2393 -5.37982 -12.565 -5.72413 -11.8477 -5.72413C-11.0874 -5.72413 -10.7144 -5.02117 -10.5996 -4.77728C-10.3557 -4.21778 -10.3414 -3.51482 -10.3414 -2.96966C-10.3414 -2.42451 -10.3414 -1.60677 -10.7431 -0.961195C-11.0587 -0.444732 -11.6182 -0.0860772 -12.2494 -0.0860772C-13.1963 -0.0860772 -14.1288 -0.731656 -14.387 -1.77893C-14.3153 -1.75024 -14.2292 -1.73589 -14.1575 -1.73589C-13.9136 -1.73589 -13.5262 -1.87935 -13.5262 -2.36712C-13.5262 -2.76882 -13.7988 -2.99835 -14.1575 -2.99835C-14.4157 -2.99835 -14.7887 -2.86924 -14.7887 -2.30974C-14.7887 -1.09031 -13.8131 0.30127 -12.2207 0.30127C-10.5996 0.30127 -9.17932 -1.06162 -9.17932 -2.88359C-9.17932 -4.59078 -10.327 -6.01106 -11.8334 -6.01106C-12.6511 -6.01106 -13.2823 -5.6524 -13.6553 -5.25071ZM-13.6553 -5.25071" fill="black"/>
 </g>
 <g transform="matrix(1.000000,-0.000000,-0.000000,1.000000,140.990455,-331.653543)">
  <path d="M-3.01101 -0M2.38316 -10.2432C2.4549 -10.4297 2.4549 -10.4584 2.4549 -10.4871C2.4549 -10.6736 2.31143 -10.7596 2.19666 -10.7596C2.01016 -10.7596 1.96712 -10.6305 1.89539 -10.444L-2.93927 3.07009C-3.01101 3.25659 -3.01101 3.28528 -3.01101 3.31397C-3.01101 3.47178 -2.89624 3.58655 -2.73843 3.58655C-2.55193 3.58655 -2.50889 3.44309 -2.4515 3.28528ZM-2.4515 3.28528" fill="black"/>
 </g>
 <g transform="matrix(1.000000,-0.000000,-0.000000,1.000000,140.990455,-331.653543)">
  <path d="M8.50844 -0M13.171 -4.17474C13.171 -0.789041 11.6646 -0.0860772 10.8038 -0.0860772C10.4595 -0.0860772 9.69918 -0.129116 9.34052 -0.631233L9.4266 -0.631233C9.52702 -0.60254 10.0435 -0.688617 10.0435 -1.21943C10.0435 -1.53504 9.82829 -1.80762 9.45529 -1.80762C9.08229 -1.80762 8.85275 -1.56374 8.85275 -1.19073C8.85275 -0.30127 9.57006 0.30127 10.8182 0.30127C12.6115 0.30127 14.3473 -1.60677 14.3473 -4.7199C14.3473 -8.57903 12.7406 -9.54022 11.4781 -9.54022C9.90003 -9.54022 8.50844 -8.22037 8.50844 -6.32667C8.50844 -4.43297 9.84264 -3.14182 11.2773 -3.14182C12.3389 -3.14182 12.884 -3.91651 13.171 -4.64817ZM13.171 -4.64817M11.3346 -3.42874C10.4308 -3.42874 10.0435 -4.1604 9.91437 -4.43297C9.68483 -4.97813 9.68483 -5.66675 9.68483 -6.31233C9.68483 -7.11571 9.68483 -7.80433 10.0578 -8.39252C10.3161 -8.77987 10.7034 -9.19591 11.4781 -9.19591C12.2958 -9.19591 12.7119 -8.4786 12.8553 -8.14864C13.1423 -7.44568 13.1423 -6.22625 13.1423 -6.01106C13.1423 -4.80598 12.5971 -3.42874 11.3346 -3.42874ZM11.3346 -3.42874" fill="black"/>
 </g>
 <g transform="matrix(1.000000,-0.000000,-0.000000,1.000000,140.990455,-331.653543)">
  <path d="M15.532 -0M21.3709 -4.59078C21.3709 -5.78152 21.2992 -6.94356 20.7827 -8.03387C20.1945 -9.2246 19.1616 -9.54022 18.4586 -9.54022C17.6266 -9.54022 16.608 -9.12418 16.0772 -7.93345C15.6755 -7.02964 15.532 -6.14017 15.532 -4.59078C15.532 -3.1992 15.6324 -2.15193 16.1489 -1.13335C16.7084 -0.0430386 17.6983 0.30127 18.4443 0.30127C19.6924 0.30127 20.4097 -0.444732 20.8258 -1.27681C21.3422 -2.35278 21.3709 -3.7587 21.3709 -4.59078ZM21.3709 -4.59078M18.4443 0.0143462C17.9852 0.0143462 17.0527 -0.243885 16.7801 -1.80762C16.6223 -2.66839 16.6223 -3.7587 16.6223 -4.76294C16.6223 -5.93933 16.6223 -7.00094 16.8519 -7.84737C17.0958 -8.80856 17.8274 -9.2533 18.4443 -9.2533C18.9895 -9.2533 19.8215 -8.92333 20.0941 -7.68956C20.2806 -6.87183 20.2806 -5.73848 20.2806 -4.76294C20.2806 -3.80174 20.2806 -2.71143 20.1228 -1.83631C19.8502 -0.258232 18.9464 0.0143462 18.4443 0.0143462ZM18.4443 0.0143462" fill="black"/>
 </g>
 <g transform="matrix(1.000000,-0.000000,-0.000000,1.000000,140.990455,-331.653543)">
  <path d="M22.5153 -5.20611M26.3908 -7.69677C26.3908 -8.76277 25.5041 -9.62952 24.4581 -9.62952C23.3821 -9.62952 22.5153 -8.74285 22.5153 -7.69677C22.5153 -6.64073 23.3821 -5.76402 24.4581 -5.76402C25.5041 -5.76402 26.3908 -6.63077 26.3908 -7.69677ZM26.3908 -7.69677M24.4581 -6.16252C23.5913 -6.16252 22.9138 -6.85991 22.9138 -7.69677C22.9138 -8.53363 23.6013 -9.23102 24.4581 -9.23102C25.285 -9.23102 25.9923 -8.55356 25.9923 -7.69677C25.9923 -6.83998 25.285 -6.16252 24.4581 -6.16252ZM24.4581 -6.16252" fill="black"/>
 </g>
 <g stroke-linecap="round" stroke-linejoin="round">
  <path d="M-125.175 238.476L-125.175 -378.425" stroke="black"/>
 </g>
 <g stroke-linecap="butt" stroke-linejoin="round" stroke-dasharray="2.000000" stroke-dashoffset="0.000000">
  <path d="M-125.175 238.476L14.4505 -282.613" stroke="black"/>
 </g>
 <g stroke-linecap="round" stroke-linejoin="round">
  <path d="M-125.175 238.476L110.705 -170.08" stroke="black"/>
 </g>
 <g stroke-linecap="butt" stroke-linejoin="round" stroke-dasharray="2.000000" stroke-dashoffset="0.000000">
  <path d="M-125.175 238.476L166.54 -53.2388" stroke="black"/>
 </g>
 <g stroke-linecap="round" stroke-linejoin="round">
  <path d="M-125.175 238.476L187.258 58.0927" stroke="black"/>
 </g>
 <g stroke-linecap="butt" stroke-linejoin="round" stroke-dasharray="2.000000" stroke-dashoffset="0.000000">
  <path d="M-125.175 238.476L179.56 156.822" stroke="black"/>
 </g>
 <g stroke-linecap="round" stroke-linejoin="round">
  <path d="M-125.175 238.476L150.712 238.476" stroke="black"/>
 </g>
 <g stroke-linecap="butt" stroke-linejoin="round" stroke-dasharray="2.000000" stroke-dashoffset="0.000000">
  <path d="M-125.175 238.476L107.863 300.918" stroke="black"/>
 </g>
 <g stroke-linecap="round" stroke-linejoin="round">
  <path d="M-125.175 238.476L57.5368 343.964" stroke="black"/>
 </g>
 <g stroke-linecap="butt" stroke-linejoin="round" stroke-dasharray="2.000000" stroke-dashoffset="0.000000">
  <path d="M-125.175 238.476L5.28389 368.934" stroke="black"/>
 </g>
 <g stroke-linecap="round" stroke-linejoin="round">
  <path d="M-125.175 238.476L-44.5051 378.2" stroke="black"/>
 </g>
 <g stroke-linecap="butt" stroke-linejoin="round" stroke-dasharray="2.000000" stroke-dashoffset="0.000000">
  <path d="M-125.175 238.476L-88.6582 374.757" stroke="black"/>
 </g>
 <g stroke-linecap="round" stroke-linejoin="round">
  <path d="M-125.175 238.476L-125.175 361.856" stroke="black"/>
 </g>
 <g stroke-linecap="butt" stroke-linejoin="round" stroke-dasharray="2.000000" stroke-dashoffset="0.000000">
  <path d="M-125.175 238.476L-153.1 342.693" stroke="black"/>
 </g>
 <g stroke-linecap="round" stroke-linejoin="round">
  <path d="M-125.175 238.476L-172.351 320.187" stroke="black"/>
 </g>
 <g stroke-linecap="butt" stroke-linejoin="round" stroke-dasharray="2.000000" stroke-dashoffset="0.000000">
  <path d="M-125.175 238.476L-183.518 296.818" stroke="black"/>
 </g>
 <g stroke-linecap="round" stroke-linejoin="round">
  <path d="M-125.175 238.476L-187.661 274.552" stroke="black"/>
 </g>
 <g stroke-linecap="butt" stroke-linejoin="round" stroke-dasharray="2.000000" stroke-dashoffset="0.000000">
  <path d="M-125.175 238.476L-186.122 254.806" stroke="black"/>
 </g>
 <g stroke-linecap="round" stroke-linejoin="round">
  <path d="M-125.175 238.476L-180.352 238.476" stroke="black"/>
 </g>
 <g stroke-linecap="butt" stroke-linejoin="round" stroke-dasharray="2.000000" stroke-dashoffset="0.000000">
  <path d="M-125.175 238.476L-171.782 225.987" stroke="black"/>
 </g>
 <g stroke-linecap="round" stroke-linejoin="round">
  <path d="M-125.175 238.476L-161.717 217.378" stroke="black"/>
 </g>
 <g stroke-linecap="butt" stroke-linejoin="round" stroke-dasharray="2.000000" stroke-dashoffset="0.000000">
  <path d="M-125.175 238.476L-151.266 212.384" stroke="black"/>
 </g>
 <g stroke-linecap="round" stroke-linejoin="round">
  <path d="M-125.175 238.476L-141.309 210.531" stroke="black"/>
 </g>
 <g stroke-linecap="butt" stroke-linejoin="round" stroke-dasharray="2.000000" stroke-dashoffset="0.000000">
  <path d="M-125.175 238.476L-132.478 211.219" stroke="black"/>
 </g>
 <g stroke-linecap="round" stroke-linejoin="round">
  <path d="M-125.175 238.476L-125.175 213.8" stroke="black"/>
 </g>
 <g stroke-linecap="round" stroke-linejoin="round" stroke-width="1.603518">
  <path d="M-125.175 -378.425L-114.504 -372.841L-104.027 -367.122L-93.7432 -361.274L-83.6538 -355.302L-73.7591 -349.208L-64.0593 -342.999L-54.5548 -336.678L-45.2456 -330.25L-36.1318 -323.719L-27.2136 -317.09L-18.4907 -310.366L-9.96313 -303.552L-1.63059 -296.653L6.50719 -289.672L14.4505 -282.613L22.1999 -275.481L29.7557 -268.279L37.1186 -261.012L44.2891 -253.683L51.268 -246.297L58.0559 -238.856L64.6536 -231.366L71.0621 -223.829L77.2822 -216.25L83.3149 -208.632L89.1612 -200.978L94.8222 -193.293L100.299 -185.579L105.593 -177.84L110.705 -170.08L115.636 -162.301L120.389 -154.508L124.963 -146.703L129.361 -138.89L133.584 -131.071L137.634 -123.25L141.512 -115.429L145.219 -107.613L148.758 -99.8029L152.129 -92.0025L155.335 -84.2143L158.378 -76.4412L161.258 -68.6858L163.978 -60.9508L166.54 -53.2388L168.945 -45.5523L171.195 -37.8937L173.293 -30.2656L175.239 -22.6702L177.037 -15.11L178.687 -7.58702L180.193 -0.103645L181.555 7.33803L182.777 14.7359L183.859 22.0879L184.804 29.3921L185.615 36.6466L186.292 43.8494L186.839 50.9987L187.258 58.0927L187.549 65.1298L187.717 72.1082L187.762 79.0263L187.687 85.8826L187.495 92.6755L187.186 99.4036L186.764 106.065L186.23 112.66L185.588 119.185L184.838 125.64L183.983 132.024L183.026 138.335L181.968 144.573L180.812 150.735L179.56 156.822L178.214 162.832L176.776 168.765L175.248 174.619L173.633 180.393L171.933 186.088L170.149 191.701L168.285 197.233L166.342 202.682L164.322 208.048L162.228 213.331L160.061 218.53L157.824 223.644L155.519 228.674L153.147 233.617L150.712 238.476L148.214 243.248L145.657 247.933L143.042 252.532L140.37 257.044L137.645 261.469L134.869 265.807L132.042 270.058L129.167 274.221L126.246 278.297L123.282 282.285L120.275 286.186L117.228 290L114.142 293.726L111.02 297.366L107.863 300.918L104.674 304.384L101.453 307.763L98.2029 311.055L94.9253 314.262L91.622 317.383L88.2946 320.419L84.9448 323.369L81.5743 326.235L78.1848 329.017L74.7778 331.715L71.355 334.33L67.9179 336.861L64.4682 339.311L61.0073 341.678L57.5368 343.964L54.0582 346.17L50.5729 348.295L47.0824 350.341L43.5881 352.308L40.0914 354.196L36.5938 356.007L33.0964 357.741L29.6007 359.399L26.108 360.982L22.6195 362.49L19.1366 363.923L15.6603 365.284L12.192 366.572L8.73281 367.789L5.28389 368.934L1.84638 370.01L-1.57863 371.016L-4.99003 371.954L-8.38678 372.825L-11.7678 373.629L-15.1322 374.367L-18.4789 375.04L-21.8069 375.649L-25.1153 376.196L-28.4032 376.68L-31.6698 377.102L-34.9141 377.465L-38.1352 377.768L-41.3325 378.012L-44.5051 378.2L-47.6521 378.33L-50.773 378.405L-53.8668 378.425L-56.9331 378.392L-59.971 378.306L-62.9799 378.168L-65.9591 377.979L-68.9082 377.74L-71.8264 377.453L-74.7132 377.117L-77.5681 376.735L-80.3906 376.307L-83.18 375.834L-85.9361 375.317L-88.6582 374.757L-91.3461 374.155L-93.9992 373.512L-96.6171 372.829L-99.1995 372.106L-101.746 371.346L-104.256 370.548L-106.73 369.715L-109.167 368.846L-111.567 367.942L-113.93 367.006L-116.255 366.037L-118.542 365.036L-120.791 364.005L-123.002 362.945L-125.175 361.856L-127.309 360.739L-129.404 359.595L-131.461 358.426L-133.479 357.231L-135.458 356.012L-137.398 354.77L-139.299 353.506L-141.161 352.221L-142.983 350.915L-144.767 349.589L-146.512 348.244L-148.217 346.881L-149.884 345.501L-151.511 344.105L-153.1 342.693L-154.65 341.267L-156.161 339.827L-157.633 338.373L-159.068 336.907L-160.463 335.43L-161.821 333.942L-163.14 332.444L-164.422 330.937L-165.666 329.421L-166.873 327.897L-168.042 326.366L-169.174 324.829L-170.269 323.286L-171.328 321.739L-172.351 320.187L-173.337 318.631L-174.287 317.072L-175.202 315.511L-176.082 313.949L-176.927 312.385L-177.737 310.821L-178.512 309.257L-179.254 307.693L-179.961 306.131L-180.636 304.571L-181.277 303.014L-181.885 301.459L-182.461 299.908L-183.005 298.361L-183.518 296.818L-183.999 295.281L-184.449 293.749L-184.868 292.224L-185.258 290.705L-185.617 289.193L-185.947 287.688L-186.248 286.191L-186.521 284.703L-186.765 283.224L-186.981 281.753L-187.171 280.292L-187.333 278.841L-187.468 277.401L-187.578 275.971L-187.661 274.552L-187.72 273.145L-187.753 271.749L-187.762 270.365L-187.747 268.994L-187.709 267.636L-187.647 266.29L-187.562 264.958L-187.456 263.639L-187.327 262.334L-187.177 261.043L-187.006 259.766L-186.815 258.504L-186.603 257.256L-186.372 256.024L-186.122 254.806L-185.852 253.604L-185.565 252.418L-185.259 251.247L-184.936 250.092L-184.596 248.953L-184.24 247.831L-183.867 246.724L-183.478 245.634L-183.074 244.561L-182.655 243.504L-182.222 242.465L-181.774 241.442L-181.313 240.436L-180.839 239.447L-180.352 238.476L-179.853 237.521L-179.341 236.584L-178.818 235.664L-178.284 234.762L-177.739 233.877L-177.183 233.009L-176.618 232.159L-176.043 231.327L-175.459 230.511L-174.866 229.714L-174.265 228.933L-173.655 228.171L-173.038 227.425L-172.414 226.698L-171.782 225.987L-171.144 225.294L-170.5 224.618L-169.85 223.96L-169.195 223.318L-168.534 222.694L-167.869 222.087L-167.199 221.497L-166.525 220.924L-165.847 220.367L-165.165 219.828L-164.481 219.305L-163.793 218.798L-163.103 218.309L-162.411 217.835L-161.717 217.378L-161.021 216.937L-160.324 216.512L-159.626 216.103L-158.927 215.709L-158.228 215.331L-157.528 214.969L-156.829 214.622L-156.13 214.291L-155.431 213.974L-154.734 213.673L-154.037 213.386L-153.342 213.114L-152.648 212.856L-151.956 212.613L-151.266 212.384L-150.579 212.169L-149.894 211.967L-149.212 211.78L-148.532 211.606L-147.856 211.445L-147.183 211.297L-146.514 211.163L-145.848 211.041L-145.187 210.932L-144.529 210.835L-143.876 210.75L-143.227 210.678L-142.583 210.617L-141.943 210.568L-141.309 210.531L-140.679 210.505L-140.055 210.49L-139.436 210.486L-138.823 210.492L-138.215 210.51L-137.614 210.537L-137.018 210.575L-136.428 210.623L-135.844 210.68L-135.267 210.747L-134.696 210.824L-134.132 210.909L-133.574 211.004L-133.022 211.107L-132.478 211.219L-131.94 211.34L-131.41 211.468L-130.886 211.605L-130.37 211.749L-129.86 211.901L-129.358 212.061L-128.864 212.228L-128.376 212.402L-127.896 212.582L-127.424 212.77L-126.959 212.963L-126.501 213.163L-126.051 213.37L-125.609 213.582L-125.175 213.8L-124.748 214.023L-124.329 214.252L-123.917 214.486L-123.514 214.725L-123.118 214.968L-122.73 215.217L-122.35 215.469L-121.978 215.727L-121.613 215.988L-121.256 216.253L-120.907 216.522L-120.566 216.794L-120.233 217.07L-119.907 217.35L-119.59 217.632L-119.28 217.917L-118.978 218.205L-118.683 218.496L-118.396 218.789L-118.117 219.085L-117.846 219.382L-117.582 219.682L-117.325 219.983L-117.076 220.287L-116.835 220.591L-116.601 220.897L-116.375 221.205L-116.156 221.513L-115.944 221.823L-115.74 222.133L-115.542 222.445L-115.352 222.756L-115.169 223.068L-114.993 223.381L-114.824 223.694L-114.662 224.007L-114.507 224.319L-114.359 224.632L-114.217 224.944L-114.083 225.256L-113.954 225.568L-113.833 225.879L-113.717 226.189L-113.609 226.499L-113.506 226.807L-113.41 227.114L-113.32 227.421L-113.236 227.726L-113.158 228.03L-113.086 228.332L-113.02 228.633L-112.96 228.932L-112.906 229.23L-112.857 229.526L-112.813 229.82L-112.776 230.112L-112.743 230.402L-112.716 230.691L-112.694 230.977" stroke="black"/>
 </g>
</svg>
