<?xml version="1.0" encoding="utf-8"?>
<svg xmlns="http://www.w3.org/2000/svg" fill="none" version="1.1" viewBox="-256.118 -288.732 512.236 577.464" x="-256.118pt" y="-288.732pt" width="512.236pt" height="577.464pt" stroke-width="0.566929" stroke-miterlimit="10.000000">
 <path d="M160.157 -260.803L255.118 -260.803L255.118 -287.732L160.157 -287.732Z" fill="black"/>
 <path d="M208.063 -266.472L208.63 -266.472"/>
 <g transform="matrix(1.000000,-0.000000,-0.000000,1.000000,208.346457,-266.472181)">
  <path d="M-40.4207 -0M-30.8333 -6.75664C-31.2672 -5.70286 -32.0317 -3.8019 -32.197 -3.07872L-32.2177 -3.07872C-32.4036 -3.82257 -33.2508 -5.86816 -33.6847 -6.96327L-36.3295 -13.4926C-36.6808 -14.3398 -37.342 -14.3398 -37.7139 -14.3398L-39.4289 -14.3398C-40.1727 -14.3398 -40.4207 -14.1125 -40.4207 -13.348L-40.4207 -0.991801C-40.4207 -0.24795 -40.1934 -0 -39.4289 -0L-38.871 -0C-38.0858 -0 -37.8792 -0.268613 -37.8792 -0.991801L-37.8792 -11.6743L-37.8585 -11.6743C-37.6313 -10.7445 -36.7014 -8.45097 -36.2055 -7.23188L-33.8087 -1.34306C-33.4368 -0.454575 -32.9409 -0.454575 -32.2383 -0.454575C-31.5358 -0.454575 -31.0399 -0.454575 -30.668 -1.34306L-28.0232 -7.8311C-27.8166 -8.327 -26.7008 -11.1371 -26.5561 -11.6743L-26.5355 -11.6743L-26.5355 -0.991801C-26.5355 -0.3306 -26.3908 -0 -25.5437 -0L-24.9858 -0C-24.2006 -0 -23.994 -0.268613 -23.994 -0.991801L-23.994 -13.348C-23.994 -14.0092 -24.1386 -14.3398 -24.9858 -14.3398L-26.7214 -14.3398C-27.238 -14.3398 -27.7546 -14.2985 -28.1058 -13.4513ZM-28.1058 -13.4513" fill="#fff"/>
 </g>
 <g transform="matrix(1.000000,-0.000000,-0.000000,1.000000,208.346457,-266.472181)">
  <path d="M-20.2172 -0M-10.6298 -6.75664C-11.0637 -5.70286 -11.8283 -3.8019 -11.9936 -3.07872L-12.0142 -3.07872C-12.2002 -3.82257 -13.0473 -5.86816 -13.4813 -6.96327L-16.1261 -13.4926C-16.4773 -14.3398 -17.1385 -14.3398 -17.5104 -14.3398L-19.2254 -14.3398C-19.9693 -14.3398 -20.2172 -14.1125 -20.2172 -13.348L-20.2172 -0.991801C-20.2172 -0.24795 -19.9899 -0 -19.2254 -0L-18.6675 -0C-17.8824 -0 -17.6757 -0.268613 -17.6757 -0.991801L-17.6757 -11.6743L-17.6551 -11.6743C-17.4278 -10.7445 -16.498 -8.45097 -16.0021 -7.23188L-13.6052 -1.34306C-13.2333 -0.454575 -12.7374 -0.454575 -12.0349 -0.454575C-11.3324 -0.454575 -10.8364 -0.454575 -10.4645 -1.34306L-7.81972 -7.8311C-7.6131 -8.327 -6.49732 -11.1371 -6.35268 -11.6743L-6.33202 -11.6743L-6.33202 -0.991801C-6.33202 -0.3306 -6.18738 -0 -5.34022 -0L-4.78233 -0C-3.99716 -0 -3.79053 -0.268613 -3.79053 -0.991801L-3.79053 -13.348C-3.79053 -14.0092 -3.93517 -14.3398 -4.78233 -14.3398L-6.51798 -14.3398C-7.03455 -14.3398 -7.55111 -14.2985 -7.90237 -13.4513ZM-7.90237 -13.4513" fill="#fff"/>
 </g>
 <g transform="matrix(1.000000,-0.000000,-0.000000,1.000000,208.346457,-266.472181)">
  <path d="M-1.02624 -0M7.89997 -13.4513C7.59003 -14.3398 6.99082 -14.3398 6.57757 -14.3398L4.75927 -14.3398C4.34602 -14.3398 3.7468 -14.3398 3.43686 -13.4513L-0.922928 -0.971138C-1.02624 -0.702526 -1.02624 -0.661201 -1.02624 -0.557888C-1.02624 -0 -0.509677 -0 -0.220402 -0L0.523449 -0C0.895374 -0 1.53591 -0 1.82519 -0.826501L2.63103 -3.12004L8.35454 -3.12004L9.05707 -1.13644C9.30502 -0.41325 9.44966 -0 10.4415 -0L11.5572 -0C11.8465 -0 12.3631 -0 12.3631 -0.557888C12.3631 -0.661201 12.3631 -0.702526 12.2598 -0.971138ZM12.2598 -0.971138M4.7386 -9.27747C5.04854 -10.1866 5.31715 -10.9718 5.48245 -11.7156L5.50312 -11.7156C5.60643 -11.2197 5.60643 -11.1784 5.77173 -10.7032L7.73467 -4.89702L3.2509 -4.89702ZM3.2509 -4.89702" fill="#fff"/>
 </g>
 <g transform="matrix(1.000000,-0.000000,-0.000000,1.000000,208.346457,-266.472181)">
  <path d="M13.8876 -0M25.8512 -2.95474C25.8512 -3.12004 25.7065 -3.20269 25.6239 -3.20269C25.128 -3.20269 24.5288 -1.85963 21.6154 -1.85963C17.9788 -1.85963 16.9456 -4.09118 16.9456 -7.19056C16.9456 -10.2693 18.0614 -12.5008 21.4501 -12.5008C23.289 -12.5008 24.2602 -11.7776 24.8181 -11.3231C24.942 -11.2197 25.004 -11.1371 25.1487 -11.1371C25.2313 -11.1371 25.3346 -11.2404 25.3553 -11.3231L25.7685 -13.6166C25.7892 -13.6993 25.7685 -13.7819 25.6032 -13.8439C24.3841 -14.2985 23.1237 -14.5877 21.512 -14.5877C16.4704 -14.5877 13.8876 -12.1289 13.8876 -7.21122C13.8876 -2.1489 16.5117 0.206625 21.5327 0.206625C23.289 0.206625 24.3841 -0.041325 25.8925 -0.971138C26.0578 -1.07445 26.0165 -1.21909 26.0165 -1.21909ZM26.0165 -1.21909" fill="#fff"/>
 </g>
 <g transform="matrix(1.000000,-0.000000,-0.000000,1.000000,208.346457,-266.472181)">
  <path d="M28.0162 -0M36.9424 -13.4513C36.6325 -14.3398 36.0333 -14.3398 35.62 -14.3398L33.8017 -14.3398C33.3885 -14.3398 32.7893 -14.3398 32.4793 -13.4513L28.1195 -0.971138C28.0162 -0.702526 28.0162 -0.661201 28.0162 -0.557888C28.0162 -0 28.5328 -0 28.8221 -0L29.5659 -0C29.9378 -0 30.5784 -0 30.8676 -0.826501L31.6735 -3.12004L37.397 -3.12004L38.0995 -1.13644C38.3475 -0.41325 38.4921 -0 39.4839 -0L40.5997 -0C40.889 -0 41.4055 -0 41.4055 -0.557888C41.4055 -0.661201 41.4055 -0.702526 41.3022 -0.971138ZM41.3022 -0.971138M33.7811 -9.27747C34.091 -10.1866 34.3596 -10.9718 34.5249 -11.7156L34.5456 -11.7156C34.6489 -11.2197 34.6489 -11.1784 34.8142 -10.7032L36.7771 -4.89702L32.2934 -4.89702ZM32.2934 -4.89702" fill="#fff"/>
 </g>
 <path d="M208.063 -240.96L208.63 -240.96"/>
 <g transform="matrix(1.000000,-0.000000,-0.000000,1.000000,208.346457,-240.960370)">
  <path d="M-24.9518 -0M-19.4573 -9.82714C-19.4573 -9.95626 -19.5577 -9.95626 -19.6007 -9.95626C-19.7298 -9.95626 -19.7442 -9.92757 -19.8016 -9.68368L-20.5763 -6.59925C-20.6193 -6.41275 -20.6336 -6.3984 -20.648 -6.38406C-20.6623 -6.35536 -20.7628 -6.34102 -20.7914 -6.34102C-23.1442 -6.14017 -24.9518 -4.20344 -24.9518 -2.41016C-24.9518 -0.860772 -23.7611 0.0860772 -22.2691 0.172154C-22.3839 0.616886 -22.4843 1.07596 -22.5991 1.5207C-22.7999 2.28105 -22.9147 2.75447 -22.9147 2.81185C-22.9147 2.84055 -22.9147 2.92662 -22.7712 2.92662C-22.7282 2.92662 -22.6708 2.92662 -22.6421 2.86924C-22.6134 2.84055 -22.5273 2.49624 -22.47 2.30974L-21.9391 0.172154C-19.4859 0.0430386 -17.6209 -1.96543 -17.6209 -3.77305C-17.6209 -5.22202 -18.7112 -6.25494 -20.3037 -6.35536ZM-20.3037 -6.35536M-20.3898 -6.06844C-19.4429 -6.01106 -18.4961 -5.48025 -18.4961 -4.07432C-18.4961 -2.4532 -19.6294 -0.30127 -21.8674 -0.129116ZM-21.8674 -0.129116M-22.1974 -0.11477C-22.9003 -0.157808 -24.0767 -0.530809 -24.0767 -2.10889C-24.0767 -3.91651 -22.7712 -5.92498 -20.7054 -6.05409ZM-20.7054 -6.05409" fill="black"/>
 </g>
 <g transform="matrix(1.000000,-0.000000,-0.000000,1.000000,208.346457,-240.960370)">
  <path d="M-11.8553 -0M-6.46116 -10.2432C-6.38943 -10.4297 -6.38943 -10.4584 -6.38943 -10.4871C-6.38943 -10.6736 -6.53289 -10.7596 -6.64766 -10.7596C-6.83416 -10.7596 -6.8772 -10.6305 -6.94893 -10.444L-11.7836 3.07009C-11.8553 3.25659 -11.8553 3.28528 -11.8553 3.31397C-11.8553 3.47178 -11.7406 3.58655 -11.5827 3.58655C-11.3962 3.58655 -11.3532 3.44309 -11.2958 3.28528ZM-11.2958 3.28528" fill="black"/>
 </g>
 <g transform="matrix(1.000000,-0.000000,-0.000000,1.000000,208.346457,-240.960370)">
  <path d="M-0.335877 -0M1.71563 -5.15028C1.47174 -5.13594 1.41436 -5.12159 1.41436 -4.99248C1.41436 -4.84901 1.48609 -4.84901 1.74432 -4.84901L2.40425 -4.84901C3.62367 -4.84901 4.16883 -3.84478 4.16883 -2.46755C4.16883 -0.588194 3.19329 -0.0860772 2.49032 -0.0860772C1.80171 -0.0860772 0.625318 -0.41604 0.209279 -1.36289C0.668357 -1.29116 1.0844 -1.54939 1.0844 -2.06585C1.0844 -2.48189 0.783127 -2.76882 0.381433 -2.76882C0.0371244 -2.76882 -0.335877 -2.56797 -0.335877 -2.02281C-0.335877 -0.746002 0.940935 0.30127 2.53336 0.30127C4.24056 0.30127 5.50302 -1.00423 5.50302 -2.4532C5.50302 -3.77305 4.44141 -4.80598 3.06417 -5.04986C4.31229 -5.40852 5.11568 -6.45579 5.11568 -7.57479C5.11568 -8.70814 3.93929 -9.54022 2.54771 -9.54022C1.11309 -9.54022 0.0514706 -8.6651 0.0514706 -7.61783C0.0514706 -7.04398 0.496203 -6.92921 0.711396 -6.92921C1.01267 -6.92921 1.35697 -7.14441 1.35697 -7.57479C1.35697 -8.03387 1.01267 -8.23472 0.697049 -8.23472C0.610972 -8.23472 0.58228 -8.23472 0.539241 -8.22037C1.0844 -9.19591 2.43294 -9.19591 2.50467 -9.19591C2.97809 -9.19591 3.9106 -8.98072 3.9106 -7.57479C3.9106 -7.30221 3.86756 -6.49883 3.45152 -5.88194C3.02113 -5.25071 2.53336 -5.20767 2.14602 -5.19332ZM2.14602 -5.19332" fill="black"/>
 </g>
 <g transform="matrix(1.000000,-0.000000,-0.000000,1.000000,208.346457,-240.960370)">
  <path d="M6.6877 -0M7.86408 -4.99248C7.86408 -8.62206 9.62867 -9.19591 10.4034 -9.19591C10.9198 -9.19591 11.4363 -9.0381 11.7089 -8.60772C11.5367 -8.60772 10.9916 -8.60772 10.9916 -8.01952C10.9916 -7.70391 11.2067 -7.43133 11.5797 -7.43133C11.9384 -7.43133 12.1823 -7.64652 12.1823 -8.06256C12.1823 -8.80856 11.6371 -9.54022 10.389 -9.54022C8.58139 -9.54022 6.6877 -7.68956 6.6877 -4.5334C6.6877 -0.588194 8.40924 0.30127 9.62867 0.30127C11.1924 0.30127 12.5266 -1.06162 12.5266 -2.92662C12.5266 -4.83467 11.1924 -6.11148 9.75778 -6.11148C8.48097 -6.11148 8.00755 -5.00682 7.86408 -4.60513ZM7.86408 -4.60513M9.62867 -0.0860772C8.72486 -0.0860772 8.29447 -0.889464 8.16535 -1.19073C8.03624 -1.56374 7.89278 -2.2667 7.89278 -3.27093C7.89278 -4.40428 8.40924 -5.82456 9.7004 -5.82456C10.4894 -5.82456 10.9055 -5.29375 11.1207 -4.80598C11.3502 -4.27517 11.3502 -3.55786 11.3502 -2.94097C11.3502 -2.20931 11.3502 -1.56374 11.0776 -1.01858C10.719 -0.329963 10.2025 -0.0860772 9.62867 -0.0860772ZM9.62867 -0.0860772" fill="black"/>
 </g>
 <g transform="matrix(1.000000,-0.000000,-0.000000,1.000000,208.346457,-240.960370)">
  <path d="M13.7113 -0M19.5502 -4.59078C19.5502 -5.78152 19.4784 -6.94356 18.962 -8.03387C18.3738 -9.2246 17.3409 -9.54022 16.6379 -9.54022C15.8058 -9.54022 14.7872 -9.12418 14.2564 -7.93345C13.8547 -7.02964 13.7113 -6.14017 13.7113 -4.59078C13.7113 -3.1992 13.8117 -2.15193 14.3282 -1.13335C14.8877 -0.0430386 15.8775 0.30127 16.6235 0.30127C17.8717 0.30127 18.589 -0.444732 19.005 -1.27681C19.5215 -2.35278 19.5502 -3.7587 19.5502 -4.59078ZM19.5502 -4.59078M16.6235 0.0143462C16.1645 0.0143462 15.232 -0.243885 14.9594 -1.80762C14.8016 -2.66839 14.8016 -3.7587 14.8016 -4.76294C14.8016 -5.93933 14.8016 -7.00094 15.0311 -7.84737C15.275 -8.80856 16.0067 -9.2533 16.6235 -9.2533C17.1687 -9.2533 18.0008 -8.92333 18.2734 -7.68956C18.4599 -6.87183 18.4599 -5.73848 18.4599 -4.76294C18.4599 -3.80174 18.4599 -2.71143 18.3021 -1.83631C18.0295 -0.258232 17.1257 0.0143462 16.6235 0.0143462ZM16.6235 0.0143462" fill="black"/>
 </g>
 <g transform="matrix(1.000000,-0.000000,-0.000000,1.000000,208.346457,-240.960370)">
  <path d="M20.6946 -5.20611M24.5701 -7.69677C24.5701 -8.76277 23.6834 -9.62952 22.6373 -9.62952C21.5613 -9.62952 20.6946 -8.74285 20.6946 -7.69677C20.6946 -6.64073 21.5613 -5.76402 22.6373 -5.76402C23.6834 -5.76402 24.5701 -6.63077 24.5701 -7.69677ZM24.5701 -7.69677M22.6373 -6.16252C21.7706 -6.16252 21.0931 -6.85991 21.0931 -7.69677C21.0931 -8.53363 21.7805 -9.23102 22.6373 -9.23102C23.4642 -9.23102 24.1716 -8.55356 24.1716 -7.69677C24.1716 -6.83998 23.4642 -6.16252 22.6373 -6.16252ZM22.6373 -6.16252" fill="black"/>
 </g>
 <g stroke-linecap="round" stroke-linejoin="round">
  <path d="M-30.5443 34.449L-197.739 -255.141" stroke="black"/>
 </g>
 <g stroke-linecap="butt" stroke-linejoin="round" stroke-dasharray="2.000000" stroke-dashoffset="0.000000">
  <path d="M-30.5443 34.449L-115.373 -282.135" stroke="black"/>
 </g>
 <g stroke-linecap="round" stroke-linejoin="round">
  <path d="M-30.5443 34.449L-30.5443 -286.797" stroke="black"/>
 </g>
 <g stroke-linecap="butt" stroke-linejoin="round" stroke-dasharray="2.000000" stroke-dashoffset="0.000000">
  <path d="M-30.5443 34.449L50.9497 -269.691" stroke="black"/>
 </g>
 <g stroke-linecap="round" stroke-linejoin="round">
  <path d="M-30.5443 34.449L123.765 -232.822" stroke="black"/>
 </g>
 <g stroke-linecap="butt" stroke-linejoin="round" stroke-dasharray="2.000000" stroke-dashoffset="0.000000">
  <path d="M-30.5443 34.449L183.35 -179.445" stroke="black"/>
 </g>
 <g stroke-linecap="round" stroke-linejoin="round">
  <path d="M-30.5443 34.449L226.221 -113.795" stroke="black"/>
 </g>
 <g stroke-linecap="butt" stroke-linejoin="round" stroke-dasharray="2.000000" stroke-dashoffset="0.000000">
  <path d="M-30.5443 34.449L250.155 -40.7642" stroke="black"/>
 </g>
 <g stroke-linecap="round" stroke-linejoin="round">
  <path d="M-30.5443 34.449L254.289 34.449" stroke="black"/>
 </g>
 <g stroke-linecap="butt" stroke-linejoin="round" stroke-dasharray="2.000000" stroke-dashoffset="0.000000">
  <path d="M-30.5443 34.449L239.122 106.706" stroke="black"/>
 </g>
 <g stroke-linecap="round" stroke-linejoin="round">
  <path d="M-30.5443 34.449L206.432 171.267" stroke="black"/>
 </g>
 <g stroke-linecap="butt" stroke-linejoin="round" stroke-dasharray="2.000000" stroke-dashoffset="0.000000">
  <path d="M-30.5443 34.449L159.105 224.098" stroke="black"/>
 </g>
 <g stroke-linecap="round" stroke-linejoin="round">
  <path d="M-30.5443 34.449L100.896 262.11" stroke="black"/>
 </g>
 <g stroke-linecap="butt" stroke-linejoin="round" stroke-dasharray="2.000000" stroke-dashoffset="0.000000">
  <path d="M-30.5443 34.449L36.1437 283.332" stroke="black"/>
 </g>
 <g stroke-linecap="round" stroke-linejoin="round">
  <path d="M-30.5443 34.449L-30.5443 286.997" stroke="black"/>
 </g>
 <g stroke-linecap="butt" stroke-linejoin="round" stroke-dasharray="2.000000" stroke-dashoffset="0.000000">
  <path d="M-30.5443 34.449L-94.6108 273.549" stroke="black"/>
 </g>
 <g stroke-linecap="round" stroke-linejoin="round">
  <path d="M-30.5443 34.449L-151.855 244.565" stroke="black"/>
 </g>
 <g stroke-linecap="butt" stroke-linejoin="round" stroke-dasharray="2.000000" stroke-dashoffset="0.000000">
  <path d="M-30.5443 34.449L-198.697 202.602" stroke="black"/>
 </g>
 <g stroke-linecap="round" stroke-linejoin="round">
  <path d="M-30.5443 34.449L-232.401 150.991" stroke="black"/>
 </g>
 <g stroke-linecap="butt" stroke-linejoin="round" stroke-dasharray="2.000000" stroke-dashoffset="0.000000">
  <path d="M-30.5443 34.449L-251.217 93.578" stroke="black"/>
 </g>
 <g stroke-linecap="round" stroke-linejoin="round">
  <path d="M-30.5443 34.449L-254.466 34.449" stroke="black"/>
 </g>
 <g stroke-linecap="butt" stroke-linejoin="round" stroke-dasharray="2.000000" stroke-dashoffset="0.000000">
  <path d="M-30.5443 34.449L-242.543 -22.3558" stroke="black"/>
 </g>
 <g stroke-linecap="round" stroke-linejoin="round">
  <path d="M-30.5443 34.449L-216.844 -73.111" stroke="black"/>
 </g>
 <g stroke-linecap="butt" stroke-linejoin="round" stroke-dasharray="2.000000" stroke-dashoffset="0.000000">
  <path d="M-30.5443 34.449L-179.637 -114.644" stroke="black"/>
 </g>
 <g stroke-linecap="round" stroke-linejoin="round">
  <path d="M-30.5443 34.449L-133.876 -144.527" stroke="black"/>
 </g>
 <g stroke-linecap="round" stroke-linejoin="round" stroke-width="1.603518">
  <path d="M-197.739 -255.141L-192.443 -257.624L-187.112 -260.011L-181.746 -262.302L-176.349 -264.496L-170.922 -266.592L-165.466 -268.591L-159.984 -270.492L-154.476 -272.294L-148.946 -273.997L-143.394 -275.602L-137.822 -277.108L-132.232 -278.514L-126.626 -279.821L-121.006 -281.028L-115.373 -282.135L-109.729 -283.142L-104.075 -284.05L-98.4149 -284.857L-92.7487 -285.565L-87.0786 -286.173L-81.4063 -286.682L-75.7336 -287.09L-70.0623 -287.399L-64.3939 -287.609L-58.7304 -287.72L-53.0733 -287.732L-47.4245 -287.645L-41.7856 -287.46L-36.1583 -287.177L-30.5443 -286.797L-24.9452 -286.319L-19.3629 -285.744L-13.7988 -285.072L-8.25479 -284.305L-2.73236 -283.442L2.76681 -282.485L8.24111 -281.432L13.6889 -280.286L19.1087 -279.047L24.4987 -277.715L29.8576 -276.292L35.1836 -274.776L40.4754 -273.171L45.7312 -271.475L50.9497 -269.691L56.1293 -267.818L61.2686 -265.857L66.3661 -263.81L71.4203 -261.677L76.4298 -259.46L81.3932 -257.158L86.3091 -254.773L91.1761 -252.306L95.9928 -249.758L100.758 -247.13L105.47 -244.422L110.128 -241.637L114.731 -238.774L119.277 -235.836L123.765 -232.822L128.194 -229.735L132.562 -226.575L136.869 -223.344L141.113 -220.043L145.293 -216.672L149.408 -213.234L153.457 -209.729L157.439 -206.159L161.353 -202.524L165.198 -198.827L168.972 -195.068L172.676 -191.249L176.307 -187.372L179.865 -183.436L183.35 -179.445L186.759 -175.399L190.094 -171.299L193.351 -167.147L196.532 -162.945L199.634 -158.694L202.658 -154.395L205.603 -150.049L208.467 -145.659L211.25 -141.225L213.952 -136.749L216.572 -132.233L219.11 -127.678L221.564 -123.086L223.935 -118.457L226.221 -113.795L228.423 -109.099L230.539 -104.372L232.57 -99.6147L234.516 -94.8293L236.374 -90.0172L238.147 -85.1799L239.832 -80.3188L241.43 -75.4357L242.94 -70.5319L244.363 -65.6091L245.698 -60.6689L246.945 -55.7127L248.103 -50.7421L249.174 -45.7588L250.155 -40.7642L251.049 -35.76L251.853 -30.7476L252.569 -25.7287L253.197 -20.7047L253.736 -15.6773L254.187 -10.648L254.549 -5.61828L254.823 -0.589741L255.009 4.43609L255.108 9.45769L255.118 14.4735L255.041 19.4821L254.877 24.4818L254.626 29.4713L254.289 34.449L253.865 39.4134L253.355 44.363L252.76 49.2963L252.08 54.212L251.315 59.1084L250.465 63.9843L249.533 68.8381L248.516 73.6684L247.418 78.4738L246.237 83.253L244.974 88.0044L243.631 92.7267L242.207 97.4187L240.704 102.079L239.122 106.706L237.461 111.298L235.723 115.855L233.908 120.375L232.017 124.856L230.05 129.298L228.01 133.698L225.895 138.057L223.708 142.373L221.448 146.643L219.118 150.868L216.717 155.047L214.248 159.177L211.709 163.258L209.104 167.288L206.432 171.267L203.695 175.194L200.893 179.067L198.028 182.886L195.101 186.649L192.113 190.355L189.064 194.004L185.957 197.594L182.791 201.125L179.569 204.595L176.29 208.004L172.958 211.351L169.572 214.634L166.133 217.854L162.644 221.009L159.105 224.098L155.518 227.122L151.883 230.078L148.202 232.966L144.476 235.786L140.706 238.537L136.894 241.218L133.041 243.829L129.149 246.369L125.217 248.837L121.249 251.232L117.245 253.555L113.206 255.805L109.134 257.981L105.03 260.083L100.896 262.11L96.7326 264.063L92.5413 265.939L88.3235 267.74L84.0806 269.465L79.8139 271.113L75.5249 272.684L71.2148 274.178L66.8852 275.595L62.5372 276.935L58.1724 278.196L53.7921 279.38L49.3977 280.485L44.9906 281.512L40.5721 282.461L36.1437 283.332L31.7067 284.124L27.2624 284.837L22.8124 285.472L18.3579 286.029L13.9003 286.507L9.44105 286.906L4.98145 287.228L0.522895 287.471L-3.93327 287.636L-8.38567 287.723L-12.833 287.732L-17.2738 287.664L-21.7069 287.518L-26.1308 287.296L-30.5443 286.997L-34.9459 286.621L-39.3345 286.169L-43.7087 285.641L-48.0671 285.038L-52.4086 284.36L-56.7318 283.607L-61.0354 282.78L-65.3182 281.879L-69.579 280.904L-73.8164 279.857L-78.0292 278.738L-82.2163 277.547L-86.3764 276.285L-90.5083 274.952L-94.6108 273.549L-98.6828 272.076L-102.723 270.535L-106.73 268.926L-110.704 267.249L-114.642 265.506L-118.544 263.696L-122.409 261.821L-126.235 259.882L-130.022 257.879L-133.768 255.812L-137.472 253.684L-141.134 251.494L-144.753 249.244L-148.326 246.934L-151.855 244.565L-155.336 242.138L-158.77 239.654L-162.156 237.113L-165.492 234.518L-168.779 231.868L-172.014 229.165L-175.197 226.41L-178.328 223.603L-181.404 220.746L-184.427 217.839L-187.394 214.884L-190.306 211.882L-193.161 208.834L-195.958 205.74L-198.697 202.602L-201.378 199.421L-203.999 196.198L-206.56 192.934L-209.06 189.631L-211.499 186.288L-213.877 182.909L-216.191 179.492L-218.443 176.041L-220.631 172.555L-222.756 169.037L-224.815 165.487L-226.81 161.906L-228.74 158.295L-230.603 154.657L-232.401 150.991L-234.132 147.299L-235.796 143.583L-237.392 139.843L-238.921 136.081L-240.383 132.298L-241.776 128.495L-243.101 124.674L-244.357 120.835L-245.545 116.98L-246.663 113.11L-247.712 109.226L-248.693 105.33L-249.603 101.422L-250.445 97.5044L-251.217 93.578L-251.919 89.6439L-252.551 85.7034L-253.114 81.7577L-253.608 77.8081L-254.032 73.8558L-254.386 69.902L-254.671 65.9479L-254.886 61.9947L-255.033 58.0437L-255.11 54.0959L-255.118 50.1527L-255.058 46.2152L-254.929 42.2847L-254.731 38.3622L-254.466 34.449L-254.133 30.5462L-253.732 26.6551L-253.264 22.7767L-252.729 18.9123L-252.128 15.0629L-251.46 11.2298L-250.727 7.41393L-249.928 3.61657L-249.064 -0.161215L-248.136 -3.91833L-247.144 -7.65367L-246.088 -11.3662L-244.968 -15.0547L-243.786 -18.7183L-242.543 -22.3558L-241.237 -25.9662L-239.871 -29.5485L-238.444 -33.1016L-236.957 -36.6246L-235.411 -40.1165L-233.807 -43.5762L-232.144 -47.0027L-230.425 -50.3953L-228.649 -53.7528L-226.817 -57.0743L-224.929 -60.359L-222.988 -63.6059L-220.992 -66.8141L-218.944 -69.9827L-216.844 -73.111L-214.692 -76.198L-212.489 -79.2429L-210.237 -82.2448L-207.936 -85.2031L-205.586 -88.1168L-203.19 -90.9853L-200.747 -93.8077L-198.258 -96.5834L-195.725 -99.3115L-193.148 -101.991L-190.528 -104.622L-187.866 -107.204L-185.163 -109.735L-182.42 -112.215L-179.637 -114.644L-176.817 -117.021L-173.959 -119.345L-171.066 -121.616L-168.136 -123.833L-165.173 -125.995L-162.176 -128.103L-159.147 -130.155L-156.087 -132.152L-152.997 -134.092L-149.877 -135.976L-146.729 -137.802L-143.554 -139.571L-140.353 -141.281L-137.127 -142.934L-133.876 -144.527L-130.603 -146.062L-127.308 -147.537L-123.992 -148.953L-120.657 -150.309L-117.302 -151.605L-113.931 -152.84L-110.542 -154.015L-107.139 -155.128L-103.72 -156.181L-100.289 -157.173L-96.8454 -158.104L-93.3908 -158.973L-89.9261 -159.78L-86.4525 -160.526L-82.9711 -161.211L-79.4829 -161.833L-75.9891 -162.394L-72.4906 -162.893L-68.9887 -163.331L-65.4844 -163.706L-61.9788 -164.021L-58.4728 -164.273L-54.9677 -164.464L-51.4645 -164.594L-47.9642 -164.662L-44.468 -164.67L-40.9768 -164.616L-37.4918 -164.502L-34.0139 -164.327L-30.5443 -164.092L-27.0839 -163.796L-23.6338 -163.441L-20.195 -163.026L-16.7686 -162.552L-13.3556 -162.019L-9.95688 -161.427L-6.57358 -160.776L-3.20664 -160.068L0.142942 -159.302L3.47419 -158.479L6.78614 -157.599L10.0778 -156.663L13.3483 -155.67L16.5966 -154.623L19.8218 -153.52L23.023 -152.362L26.1992 -151.151L29.3496 -149.885L32.4733 -148.567L35.5693 -147.197L38.6369 -145.774L41.6751 -144.3L44.683 -142.775L47.66 -141.201L50.605 -139.576L53.5174 -137.903L56.3962 -136.181L59.2408 -134.412L62.0503 -132.596L64.824 -130.734L67.5611 -128.826L70.2608 -126.873L72.9225 -124.876L75.5455 -122.836L78.129 -120.752L80.6723 -118.627L83.1748 -116.461L85.6358 -114.255L88.0547 -112.009L90.4309 -109.724L92.7637 -107.401L95.0525 -105.04L97.2968 -102.644L99.496 -100.212L101.65 -97.7448L103.757 -95.2441L105.817 -92.7104L107.831 -90.1445L109.796 -87.5474L111.714 -84.9198L113.583 -82.2628L115.403 -79.5771L117.173 -76.8637L118.893 -74.1235L120.563 -71.3574L122.182 -68.5664L123.75 -65.7512L125.267 -62.9129L126.732 -60.0524L128.145 -57.1706L129.506 -54.2684L130.814 -51.3469L132.07 -48.4069L133.272 -45.4494L134.421 -42.4754L135.516 -39.4857L136.557 -36.4814L137.545 -33.4635L138.479 -30.4328L139.358 -27.3903L140.183 -24.3371L140.953 -21.274L141.669 -18.202L142.331 -15.1222L142.938 -12.0353L143.49 -8.94255L143.987 -5.84473L144.43 -2.74286L144.817 0.362115L145.151 3.46923L145.429 6.57753L145.653 9.68605L145.823 12.7939L145.938 15.9L145.998 19.0035L146.005 22.1035L145.957 25.1989L145.856 28.289L145.701 31.3726L145.492 34.449L145.23 37.5171L144.915 40.5762L144.547 43.6251L144.127 46.6632L143.654 49.6894L143.129 52.7028L142.553 55.7026L141.925 58.6879L141.246 61.6578L140.516 64.6115L139.736 67.548L138.905 70.4666L138.026 73.3664L137.096 76.2465L136.118 79.1061L135.092 81.9445L134.018 84.7607L132.896 87.554L131.727 90.3236L130.512 93.0687L129.251 95.7886L127.944 98.4824L126.592 101.149L125.196 103.789L123.755 106.4L122.272 108.982L120.745 111.535L119.177 114.057L117.567 116.548L115.915 119.007L114.224 121.434L112.492 123.828L110.721 126.188L108.912 128.514L107.065 130.804L105.181 133.059L103.261 135.278L101.304 137.46L99.3126 139.605L97.2866 141.712L95.2269 143.78L93.1342 145.81L91.0093 147.799L88.8528 149.749L86.6656 151.659L84.4483 153.527L82.2018 155.354L79.9268 157.139L77.624 158.882L75.2943 160.582L72.9384 162.239L70.5572 163.853L68.1514 165.423L65.7218 166.948L63.2692 168.428L60.7945 169.864L58.2984 171.255L55.7818 172.6L53.2455 173.899L50.6904 175.151L48.1172 176.358L45.5268 177.518L42.9201 178.631L40.2978 179.697L37.6609 180.715L35.0101 181.686L32.3463 182.61L29.6704 183.486L26.9833 184.313L24.2857 185.093L21.5785 185.824L18.8626 186.508L16.1389 187.143L13.4081 187.729L10.6712 188.267L7.92893 188.756L5.18224 189.197L2.43196 189.59L-0.32107 189.934L-3.076 190.229L-5.83198 190.476L-8.58816 190.675L-11.3437 190.825L-14.0978 190.927L-16.8495 190.981L-19.5981 190.987L-22.3427 190.944L-25.0825 190.854L-27.8166 190.717L-30.5443 190.532L-33.2646 190.3L-35.9769 190.02L-38.6803 189.694L-41.374 189.321L-44.0572 188.902L-46.729 188.437L-49.3888 187.926L-52.0358 187.369L-54.669 186.767L-57.2879 186.12L-59.8916 185.428L-62.4793 184.692L-65.0504 183.912L-67.6041 183.088L-70.1396 182.221L-72.6562 181.311L-75.1532 180.358L-77.6299 179.364L-80.0856 178.327L-82.5195 177.25L-84.9311 176.132L-87.3196 174.973L-89.6843 173.774L-92.0246 172.536L-94.3399 171.259L-96.6294 169.944L-98.8926 168.59L-101.129 167.199L-103.338 165.772L-105.518 164.308L-107.67 162.808L-109.792 161.272L-111.885 159.702L-113.947 158.098L-115.978 156.461L-117.977 154.79L-119.945 153.087L-121.879 151.353L-123.781 149.587L-125.649 147.79L-127.483 145.964L-129.282 144.109L-131.047 142.225L-132.776 140.313L-134.469 138.373L-136.125 136.407L-137.745 134.415L-139.328 132.398L-140.873 130.357L-142.381 128.291L-143.85 126.202L-145.28 124.091L-146.672 121.958L-148.025 119.803L-149.337 117.629L-150.61 115.435L-151.843 113.221L-153.036 110.99L-154.188 108.741L-155.298 106.476L-156.368 104.194L-157.397 101.898L-158.383 99.5862L-159.328 97.2612L-160.232 94.9232L-161.093 92.5728L-161.911 90.211L-162.688 87.8384L-163.422 85.4559L-164.113 83.064L-164.762 80.6637L-165.367 78.2557L-165.93 75.8406L-166.45 73.4194L-166.927 70.9927L-167.361 68.5613L-167.752 66.1259L-168.1 63.6874L-168.405 61.2464L-168.667 58.8038L-168.886 56.3602L-169.062 53.9164L-169.195 51.4732L-169.286 49.0313L-169.333 46.5915L-169.339 44.1544L-169.301 41.7209L-169.221 39.2917L-169.1 36.8675L-168.936 34.449L-168.73 32.0369L-168.482 29.6321L-168.193 27.2351L-167.862 24.8468L-167.491 22.4677L-167.078 20.0987L-166.625 17.7404L-166.131 15.3935L-165.597 13.0587L-165.023 10.7367L-164.41 8.42811L-163.757 6.13367L-163.066 3.85402L-162.335 1.58981L-161.566 -0.658291L-160.76 -2.88965L-159.915 -5.10363L-159.033 -7.29959L-158.114 -9.47692L-157.159 -11.635L-156.167 -13.7732L-155.14 -15.891L-154.077 -17.9876L-152.979 -20.0627L-151.847 -22.1155L-150.681 -24.1456L-149.481 -26.1522L-148.248 -28.135L-146.982 -30.0934L-145.684 -32.0267L-144.354 -33.9346L-142.992 -35.8164L-141.6 -37.6718L-140.178 -39.5001L-138.726 -41.3009L-137.245 -43.0737L-135.735 -44.818L-134.197 -46.5335L-132.631 -48.2195L-131.039 -49.8758L-129.419 -51.5019L-127.774 -53.0973L-126.104 -54.6617L-124.408 -56.1946L-122.689 -57.6957L-120.946 -59.1646L-119.18 -60.6009L-117.391 -62.0043L-115.581 -63.3745L-113.749 -64.711L-111.897 -66.0137L-110.025 -67.2821L-108.134 -68.516L-106.224 -69.7151L-104.296 -70.8792L-102.35 -72.0079L-100.388 -73.101L-98.4096 -74.1583L-96.4157 -75.1795L-94.407 -76.1645L-92.3841 -77.113L-90.3476 -78.0248L-88.2983 -78.8998L-86.2368 -79.7377L-84.1638 -80.5385L-82.0799 -81.3019L-79.9858 -82.0279L-77.8821 -82.7163L-75.7696 -83.3671L-73.6489 -83.98L-71.5206 -84.5551L-69.3855 -85.0922L-67.2442 -85.5913L-65.0974 -86.0523L-62.9458 -86.4753L-60.79 -86.8601L-58.6307 -87.2067L-56.4685 -87.5152L-54.3042 -87.7856L-52.1385 -88.0178L-49.9718 -88.212L-47.8051 -88.3681L-45.6388 -88.4862L-43.4737 -88.5664L-41.3104 -88.6087L-39.1496 -88.6132L-36.9919 -88.5801L-34.8381 -88.5094L-32.6886 -88.4013L-30.5443 -88.2559L-28.4056 -88.0733L-26.2733 -87.8537L-24.1481 -87.5973L-22.0304 -87.3042L-19.9211 -86.9747L-17.8206 -86.6089L-15.7296 -86.207L-13.6487 -85.7693L-11.5785 -85.2959L-9.5197 -84.7872L-7.4728 -84.2433L-5.43843 -83.6646L-3.41717 -83.0513L-1.40961 -82.4037L0.583675 -81.722L2.56211 -81.0066L4.52514 -80.2578L6.4722 -79.4759L8.40273 -78.6613L10.3162 -77.8142L12.212 -76.935L14.0897 -76.024L15.9488 -75.0817L17.7886 -74.1084L19.6088 -73.1045L21.4087 -72.0703L23.1879 -71.0064L24.946 -69.9129L26.6823 -68.7905L28.3966 -67.6395L30.0882 -66.4603L31.7567 -65.2534L33.4017 -64.0192L35.0228 -62.7582L36.6195 -61.4708L38.1913 -60.1574L39.738 -58.8187L41.259 -57.455L42.7539 -56.0667L44.2225 -54.6545L45.6642 -53.2189L47.0788 -51.7602L48.4659 -50.279L49.825 -48.7759L51.156 -47.2513L52.4584 -45.7057L53.7319 -44.1398L54.9762 -42.554L56.1911 -40.9489L57.3762 -39.325L58.5312 -37.6829L59.6558 -36.023L60.7499 -34.3461L61.8131 -32.6525L62.8452 -30.943L63.8459 -29.218L64.8151 -27.4781L65.7526 -25.724L66.6581 -23.9561L67.5314 -22.175L68.3724 -20.3814L69.1808 -18.5758L69.9566 -16.7588L70.6996 -14.9309L71.4096 -13.0929L72.0865 -11.2452L72.7302 -9.38843L73.3406 -7.52322L73.9176 -5.65015L74.461 -3.76981L74.9709 -1.8828L75.4471 0.0102928L75.8897 1.90887L76.2984 3.81233L76.6734 5.72009L77.0146 7.63154L77.322 9.5461L77.5955 11.4632L77.8353 13.3821L78.0412 15.3024L78.2133 17.2235L78.3517 19.1447L78.4564 21.0654L78.5275 22.9851L78.565 24.9032L78.5691 26.819L78.5397 28.7321L78.477 30.6419L78.3812 32.5477L78.2522 34.449L78.0904 36.3452L77.8957 38.2358L77.6683 40.1202L77.4085 41.9978L77.1163 43.8681L76.7919 45.7305L76.4356 47.5845L76.0475 49.4295L75.6278 51.265L75.1767 53.0904L74.6945 54.9053L74.1814 56.7091L73.6376 58.5013L73.0634 60.2813L72.459 62.0486L71.8247 63.8028L71.1608 65.5433L70.4675 67.2697L69.7451 68.9814L68.9941 70.678L68.2145 72.3589L67.4068 74.0238L66.5713 75.6721L65.7084 77.3034L64.8182 78.9172L63.9013 80.5132L62.9579 82.0907L61.9884 83.6495L60.9932 85.189L59.9727 86.709L58.9272 88.2088L57.8571 89.6882L56.7627 91.1468L55.6447 92.5841L54.5032 93.9998L53.3387 95.3935L52.1517 96.7648L50.9425 98.1134L49.7117 99.439L48.4595 100.741L47.1866 102.019L45.8932 103.274L44.58 104.503L43.2472 105.709L41.8954 106.889L40.5251 108.043L39.1366 109.173L37.7306 110.276L36.3074 111.353L34.8676 112.404L33.4116 113.428L31.9399 114.425L30.453 115.395L28.9514 116.338L27.4357 117.253L25.9062 118.14L24.3635 119L22.8082 119.831L21.2407 120.634L19.6615 121.408L18.0712 122.154L16.4703 122.87L14.8592 123.558L13.2385 124.217L11.6088 124.847L9.97056 125.447L8.32426 126.017L6.67048 126.559L5.00972 127.07L3.34251 127.552L1.66939 128.004L-0.00912617 128.426L-1.6925 128.819L-3.38021 129.181L-5.07173 129.514L-6.76652 129.816L-8.46406 130.089L-10.1638 130.331L-11.8653 130.544L-13.5679 130.726L-15.2712 130.879L-16.9746 131.002L-18.6777 131.095L-20.3798 131.158L-22.0804 131.191L-23.7791 131.194L-25.4754 131.168L-27.1687 131.113L-28.8585 131.028L-30.5443 130.914L-32.2255 130.77L-33.9018 130.597L-35.5726 130.396L-37.2374 130.165L-38.8957 129.906L-40.547 129.619L-42.1908 129.303L-43.8267 128.959L-45.4542 128.587L-47.0727 128.187L-48.6819 127.759L-50.2812 127.304L-51.8702 126.822L-53.4485 126.313L-55.0155 125.777L-56.5709 125.215L-58.1141 124.626L-59.6448 124.011L-61.1625 123.371L-62.6667 122.705L-64.1572 122.014L-65.6333 121.297L-67.0948 120.557L-68.5412 119.792L-69.9721 119.002L-71.3871 118.189L-72.7859 117.353L-74.168 116.493L-75.533 115.611L-76.8807 114.706L-78.2105 113.779L-79.5222 112.83L-80.8155 111.86L-82.0899 110.869L-83.3451 109.856L-84.5808 108.824L-85.7967 107.771L-86.9925 106.699L-88.1677 105.608L-89.3222 104.498L-90.4557 103.369L-91.5677 102.222L-92.6582 101.058L-93.7267 99.8763L-94.773 98.6777L-95.7969 97.4627L-96.7981 96.2317L-97.7763 94.985L-98.7314 93.7231L-99.663 92.4465L-100.571 91.1555L-101.455 89.8506L-102.315 88.5323L-103.151 87.2009L-103.962 85.857L-104.749 84.5009L-105.511 83.1331L-106.248 81.754L-106.96 80.3642L-107.647 78.964L-108.308 77.554L-108.943 76.1345L-109.553 74.706L-110.137 73.2691L-110.695 71.8241L-111.228 70.3715L-111.734 68.9118L-112.213 67.4455L-112.667 65.973L-113.094 64.4947L-113.495 63.0113L-113.87 61.523L-114.217 60.0304L-114.539 58.534L-114.834 57.0342L-115.102 55.5316L-115.343 54.0264L-115.558 52.5193L-115.747 51.0107L-115.909 49.5011L-116.044 47.9908L-116.153 46.4805L-116.235 44.9705L-116.291 43.4613L-116.321 41.9534L-116.324 40.4473L-116.301 38.9433L-116.251 37.4419L-116.176 35.9437L-116.075 34.449L-115.947 32.9583L-115.794 31.472L-115.616 29.9906L-115.411 28.5145L-115.182 27.0442L-114.927 25.58L-114.647 24.1225L-114.341 22.672L-114.012 21.2291L-113.657 19.794L-113.278 18.3672L-112.874 16.9492L-112.447 15.5403L-111.996 14.1409L-111.52 12.7515L-111.022 11.3724L-110.5 10.0041L-109.955 8.64694L-109.387 7.30128L-108.796 5.96752L-108.184 4.64603L-107.549 3.33719L-106.892 2.04137L-106.213 0.758918L-105.514 -0.509799L-104.793 -1.76443L-104.051 -3.00463L-103.289 -4.23006L-102.507 -5.44039L-101.704 -6.63527L-100.882 -7.8144L-100.041 -8.97744L-99.1808 -10.1241L-98.3018 -11.254L-97.4044 -12.367L-96.489 -13.4627L-95.5558 -14.5407L-94.6052 -15.6009L-93.6376 -16.643L-92.6532 -17.6666L-91.6525 -18.6716L-90.6357 -19.6576L-89.6033 -20.6244L-88.5555 -21.5718L-87.4928 -22.4996L-86.4155 -23.4074L-85.324 -24.2951L-84.2186 -25.1624L-83.0998 -26.0092L-81.9679 -26.8353L-80.8232 -27.6404L-79.6662 -28.4243L-78.4973 -29.1869L-77.3169 -29.928L-76.1252 -30.6474L-74.9228 -31.345L-73.7101 -32.0206L-72.4874 -32.674L-71.2551 -33.3052L-70.0136 -33.9139L-68.7634 -34.5001L-67.5048 -35.0636L-66.2382 -35.6044L-64.9642 -36.1223L-63.6829 -36.6172L-62.395 -37.089L-61.1008 -37.5377L-59.8007 -37.9632L-58.4951 -38.3653L-57.1844 -38.7442L-55.869 -39.0996L-54.5495 -39.4315L-53.2261 -39.74L-51.8993 -40.0249L-50.5695 -40.2863L-49.2371 -40.5241L-47.9026 -40.7384L-46.5663 -40.929L-45.2287 -41.0961L-43.8902 -41.2397L-42.5512 -41.3597L-41.212 -41.4561L-39.8732 -41.5291L-38.5351 -41.5787L-37.1981 -41.6048L-35.8626 -41.6076L-34.5291 -41.5872L-33.198 -41.5435L-31.8695 -41.4767L-30.5443 -41.3868L-29.2225 -41.274L-27.9047 -41.1383L-26.5912 -40.9798L-25.2824 -40.7987L-23.9788 -40.595L-22.6806 -40.3689L-21.3883 -40.1205L-20.1022 -39.85L-18.8228 -39.5574L-17.5504 -39.243L-16.2853 -38.9069L-15.028 -38.5492L-13.7788 -38.1702L-12.5381 -37.7699L-11.3061 -37.3486L-10.0834 -36.9065L-8.87017 -36.4437L-7.66683 -35.9605L-6.47369 -35.457L-5.29111 -34.9335L-4.11941 -34.3901L-2.95893 -33.8271L-1.80998 -33.2447L-0.672896 -32.6432L0.452014 -32.0227L1.56444 -31.3836L2.66406 -30.726L3.75059 -30.0502L4.82373 -29.3565L5.88318 -28.6452L6.92865 -27.9164L7.95987 -27.1705L8.97655 -26.4077L9.97842 -25.6283L10.9652 -24.8327L11.9367 -24.021L12.8926 -23.1936L13.8326 -22.3508L14.7565 -21.4928L15.6641 -20.62L16.5552 -19.7327L17.4294 -18.8312L18.2867 -17.9158L19.1267 -16.9868L19.9493 -16.0445L20.7542 -15.0894L21.5413 -14.1216L22.3103 -13.1415L23.0611 -12.1495L23.7935 -11.1458L24.5074 -10.1309L25.2025 -9.10511L25.8786 -8.0687L26.5357 -7.02203L27.1736 -5.96548L27.7921 -4.89937L28.3911 -3.82408L28.9705 -2.73994L29.5301 -1.64732L30.0698 -0.546572L30.5896 0.561947L31.0892 1.67788L31.5687 2.80085L32.0279 3.93051L32.4667 5.0665L32.885 6.20844L33.2829 7.35597L33.6601 8.50873L34.0167 9.66636L34.3526 10.8285L34.6677 11.9947L34.962 13.1647L35.2355 14.3381L35.4882 15.5145L35.7199 16.6935L35.9308 17.8749L36.1208 19.0582L36.2898 20.243L36.438 21.429L36.5652 22.6158L36.6716 23.803L36.7572 24.9904L36.8219 26.1775L36.8658 27.3639L36.889 28.5493L36.8915 29.7334L36.8733 30.9158L36.8346 32.0961L36.7754 33.2739L36.6957 34.449L36.5956 35.6209L36.4753 36.7894L36.3348 37.954L36.1742 39.1144L35.9936 40.2703L35.7931 41.4213L35.5729 42.5672L35.3331 43.7074L35.0737 44.8418L34.7949 45.97L34.4969 47.0917L34.1798 48.2065L33.8437 49.3141L33.4888 50.4142L33.1152 51.5065L32.7232 52.5906L32.3129 53.6663L31.8844 54.7333L31.438 55.7912L30.9738 56.8397L30.492 57.8786L29.9928 58.9076L29.4765 59.9263L28.9431 60.9345L28.393 61.9319L27.8263 62.9182L27.2433 63.8932L26.6441 64.8566L26.029 65.8081L25.3983 66.7474L24.7521 67.6744L24.0908 68.5887L23.4144 69.4902L22.7234 70.3785L22.0179 71.2534L21.2983 72.1148L20.5647 72.9623L19.8174 73.7958L19.0566 74.615L18.2828 75.4197L17.496 76.2098L16.6967 76.9849L15.8851 77.745L15.0614 78.4898L14.2259 79.2192L13.379 79.9328L12.5209 80.6307L11.6519 81.3126L10.7724 81.9783L9.88248 82.6277L8.98262 83.2606L8.07307 83.8769L7.15412 84.4764L6.2261 85.059L5.2893 85.6246L4.34404 86.173L3.39063 86.7041L2.42937 87.2178L1.4606 87.714L0.484619 88.1926L-0.498251 88.6534L-1.48769 89.0964L-2.48338 89.5215L-3.485 89.9287L-4.49222 90.3177L-5.50472 90.6887L-6.52219 91.0414L-7.54428 91.3759L-8.57069 91.6921L-9.60108 91.9899L-10.6351 92.2693L-11.6725 92.5302L-12.7129 92.7727L-13.756 92.9967L-14.8014 93.2022L-15.8488 93.3892L-16.8979 93.5576L-17.9485 93.7075L-19 93.8389L-20.0523 93.9517L-21.105 94.0461L-22.1578 94.1219L-23.2103 94.1793L-24.2623 94.2182L-25.3133 94.2388L-26.3632 94.241L-27.4115 94.2249L-28.458 94.1906L-29.5024 94.138L-30.5443 94.0674L-31.5833 93.9787L-32.6193 93.872L-33.6519 93.7474L-34.6808 93.605L-35.7057 93.4449L-36.7263 93.2672L-37.7422 93.0719L-38.7533 92.8592L-39.7591 92.6292L-40.7594 92.3821L-41.7539 92.1178L-42.7424 91.8366L-43.7244 91.5386L-44.6998 91.224L-45.6683 90.8928L-46.6296 90.5452L-47.5834 90.1814L-48.5294 89.8015L-49.4674 89.4057L-50.397 88.9941L-51.3182 88.5669L-52.2305 88.1243L-53.1337 87.6665L-54.0277 87.1936L-54.912 86.7058L-55.7865 86.2033L-56.651 85.6864L-57.5052 85.1551L-58.3488 84.6098L-59.1817 84.0505L-60.0036 83.4776L-60.8143 82.8912L-61.6136 82.2916L-62.4012 81.6789L-63.177 81.0533L-63.9407 80.4152L-64.6922 79.7648L-65.4312 79.1022L-66.1575 78.4277L-66.871 77.7416L-67.5715 77.044L-68.2588 76.3353L-68.9328 75.6156L-69.5931 74.8853L-70.2398 74.1445L-70.8726 73.3936L-71.4914 72.6328L-72.0959 71.8623L-72.6862 71.0824L-73.262 70.2934L-73.8232 69.4956L-74.3696 68.6891L-74.9012 67.8743L-75.4177 67.0515L-75.9192 66.2209L-76.4054 65.3827L-76.8764 64.5374L-77.3318 63.6851L-77.7718 62.8261L-78.1961 61.9608L-78.6047 61.0893L-78.9975 60.212L-79.3744 59.3292L-79.7354 58.4411L-80.0804 57.5481L-80.4093 56.6503L-80.722 55.7482L-81.0186 54.8419L-81.2989 53.9319L-81.563 53.0183L-81.8107 52.1014L-82.0421 51.1816L-82.2571 50.2592L-82.4557 49.3344L-82.6379 48.4074L-82.8037 47.4787L-82.953 46.5485L-83.0859 45.6171L-83.2024 44.6847L-83.3025 43.7517L-83.3861 42.8183L-83.4533 41.8849L-83.5042 40.9516L-83.5388 40.0189L-83.557 39.087L-83.5589 38.1561L-83.5447 37.2266L-83.5142 36.2987L-83.4677 35.3728L-83.405 34.449L-83.3264 33.5277L-83.2318 32.6091L-83.1213 31.6935L-82.9951 30.7813L-82.8531 29.8726L-82.6955 28.9677L-82.5224 28.0669L-82.3338 27.1704L-82.1299 26.2786L-81.9107 25.3917L-81.6764 24.5099L-81.4271 23.6335L-81.1629 22.7627L-80.8839 21.8979L-80.5903 21.0392L-80.2821 20.1869L-79.9595 19.3412L-79.6226 18.5024L-79.2717 17.6708L-78.9068 16.8465L-78.528 16.0297L-78.1356 15.2208L-77.7296 14.42L-77.3103 13.6274L-76.8779 12.8433L-76.4323 12.0679L-75.974 11.3014L-75.503 10.544L-75.0194 9.796L-74.5236 9.05752L-74.0156 8.32878L-73.4956 7.60998L-72.964 6.90131L-72.4207 6.20296L-71.8661 5.51512L-71.3003 4.83796L-70.7236 4.17168L-70.1361 3.51644L-69.5381 2.87242L-68.9297 2.23977L-68.3112 1.61867L-67.6828 1.00928L-67.0447 0.411743L-66.3972 -0.173783L-65.7404 -0.747151L-65.0746 -1.30822L-64.4 -1.85685L-63.7168 -2.3929L-63.0254 -2.91625L-62.3258 -3.42677L-61.6184 -3.92434L-60.9033 -4.40884L-60.1809 -4.88015L-59.4513 -5.33817L-58.7148 -5.7828L-57.9717 -6.21393L-57.2222 -6.63146L-56.4665 -7.03531L-55.7049 -7.42538L-54.9376 -7.80161L-54.165 -8.1639L-53.3871 -8.51218L-52.6043 -8.84639L-51.8169 -9.16646L-51.0251 -9.47232L-50.2291 -9.76393L-49.4292 -10.0412L-48.6257 -10.3042L-47.8188 -10.5527L-47.0088 -10.7869L-46.1958 -11.0065L-45.3803 -11.2117L-44.5624 -11.4023L-43.7424 -11.5784L-42.9205 -11.74L-42.0971 -11.887L-41.2723 -12.0194L-40.4465 -12.1372L-39.6198 -12.2405L-38.7925 -12.3292L-37.9649 -12.4033L-37.1373 -12.463L-36.3099 -12.5081L-35.4829 -12.5387L-34.6566 -12.5549L-33.8312 -12.5566L-33.007 -12.5439L-32.1843 -12.5169L-31.3633 -12.4756L-30.5443 -12.4201L-29.7274 -12.3504L-28.9129 -12.2665L-28.1011 -12.1686L-27.2923 -12.0566L-26.4866 -11.9307L-25.6842 -11.791L-24.8855 -11.6375L-24.0907 -11.4703L-23.3 -11.2895L-22.5136 -11.0952L-21.7317 -10.8875L-20.9547 -10.6664L-20.1826 -10.4321L-19.4158 -10.1848L-18.6544 -9.92439L-17.8987 -9.65114L-17.1489 -9.36512L-16.4052 -9.06646L-15.6678 -8.75529L-14.937 -8.43172L-14.2128 -8.0959L-13.4956 -7.74795L-12.7855 -7.38802L-12.0827 -7.01625L-11.3875 -6.63279L-10.7 -6.23778L-10.0204 -5.83137L-9.34887 -5.41373L-8.68564 -4.985L-8.03086 -4.54535L-7.38472 -4.09494L-6.7474 -3.63394L-6.11906 -3.16252L-5.49986 -2.68085L-4.88999 -2.1891L-4.28959 -1.68746L-3.69883 -1.1761L-3.11786 -0.655198L-2.54683 -0.124949L-1.9859 0.414463L-1.4352 0.96285L-0.894879 1.52002L-0.365073 2.08578L0.154085 2.65992L0.662463 3.24227L1.15993 3.83261L1.64638 4.43073L2.12167 5.03645L2.5857 5.64955L3.03836 6.26983L3.47952 6.89707L3.90911 7.53107L4.327 8.17161L4.7331 8.81848L5.12733 9.47147L5.50959 10.1304L5.8798 10.7949L6.23787 11.465L6.58373 12.1402L6.91731 12.8205L7.23853 13.5056L7.54734 14.1953L7.84367 14.8894L8.12745 15.5875L8.39865 16.2896L8.65721 16.9954L8.90308 17.7046L9.13623 18.417L9.35661 19.1325L9.56419 19.8507L9.75895 20.5715L9.94086 21.2946L10.1099 22.0198L10.266 22.7468L10.4093 23.4755L10.5396 24.2056L10.657 24.9369L10.7615 25.6692L10.853 26.4022L10.9317 27.1357L10.9974 27.8694L11.0503 28.6032L11.0903 29.3369L11.1175 30.0702L11.1318 30.8028L11.1333 31.5346L11.1221 32.2653L11.0982 32.9948L11.0616 33.7227L11.0123 34.449L10.9505 35.1733L10.8761 35.8954L10.7893 36.6152L10.69 37.3324L10.5784 38.0467L10.4545 38.7581L10.3184 39.4663L10.1702 40.171L10.0099 40.8721L9.83756 41.5694L9.65338 42.2626L9.45738 42.9516L9.24967 43.6361L9.03034 44.316L8.79948 44.9911L8.5572 45.6611L8.3036 46.326L8.0388 46.9854L7.76289 47.6392L7.476 48.2872L7.17824 48.9293L6.86973 49.5652L6.5506 50.1948L6.22097 50.8179L5.88098 51.4343L5.53074 52.0439L5.1704 52.6465L4.80009 53.2419L4.41996 53.83L4.03014 54.4105L3.63079 54.9834L3.22204 55.5485L2.80406 56.1056L2.37698 56.6546L1.94097 57.1954L1.49619 57.7277L1.04279 58.2515L0.580933 58.7666L0.110786 59.2729L-0.367485 59.7703L-0.853712 60.2586L-1.34773 60.7377L-1.84936 61.2074L-2.35843 61.6677L-2.87476 62.1185L-3.39819 62.5596L-3.92852 62.9909L-4.46558 63.4123L-5.00919 63.8237L-5.55916 64.2251L-6.1153 64.6162L-6.67744 64.9971L-7.24537 65.3676L-7.81893 65.7277L-8.3979 66.0773L-8.9821 66.4162L-9.57134 66.7444L-10.1654 67.0619L-10.7642 67.3686L-11.3674 67.6643L-11.9748 67.9492L-12.5863 68.223L-13.2017 68.4857L-13.8207 68.7373L-14.4432 68.9778L-15.069 69.207L-15.6978 69.425L-16.3295 69.6317L-16.9638 69.8272L-17.6007 70.0112L-18.2397 70.1839L-18.8809 70.3452L-19.5239 70.495L-20.1685 70.6335L-20.8146 70.7605L-21.462 70.876L-22.1104 70.9801L-22.7596 71.0728L-23.4095 71.154L-24.0599 71.2237L-24.7105 71.282L-25.3611 71.3289L-26.0116 71.3643L-26.6618 71.3884L-27.3114 71.4011L-27.9602 71.4025L-28.6081 71.3925L-29.2549 71.3713L-29.9003 71.3388L-30.5443 71.2952L-31.1864 71.2404L-31.8267 71.1744L-32.4649 71.0974L-33.1008 71.0094L-33.7342 70.9105L-34.365 70.8006L-34.9929 70.6799L-35.6177 70.5485L-36.2393 70.4064L-36.8576 70.2536L-37.4722 70.0903L-38.0831 69.9165L-38.6901 69.7323L-39.2929 69.5379L-39.8914 69.3332L-40.4855 69.1184L-41.075 68.8935L-41.6597 68.6587L-42.2394 68.4141L-42.814 68.1597L-43.3832 67.8957L-43.9471 67.6222L-44.5053 67.3392L-45.0578 67.0469L-45.6044 66.7455L-46.1448 66.4349L-46.6791 66.1154L-47.207 65.7871L-47.7284 65.4501L-48.2432 65.1044L-48.7511 64.7503L-49.2522 64.3879L-49.7462 64.0173L-50.2329 63.6387L-50.7124 63.2521L-51.1844 62.8577L-51.6488 62.4557L-52.1055 62.0462L-52.5545 61.6293L-52.9954 61.2053L-53.4284 60.7742L-53.8531 60.3361L-54.2697 59.8914L-54.6778 59.44L-55.0775 58.9822L-55.4685 58.5181L-55.851 58.0479L-56.2246 57.5717L-56.5894 57.0897L-56.9453 56.6021L-57.2921 56.109L-57.6298 55.6105L-57.9583 55.107L-58.2776 54.5984L-58.5875 54.0851L-58.888 53.5671L-59.1791 53.0446L-59.4606 52.5179L-59.7325 51.987L-59.9947 51.4522L-60.2472 50.9136L-60.49 50.3714L-60.723 49.8258L-60.9461 49.2769L-61.1593 48.725L-61.3625 48.1702L-61.5558 47.6126L-61.7391 47.0525L-61.9124 46.4901L-62.0756 45.9254L-62.2287 45.3588L-62.3717 44.7903L-62.5046 44.2202L-62.6273 43.6487L-62.7399 43.0758L-62.8424 42.5018L-62.9347 41.9269L-63.0168 41.3512L-63.0888 40.775L-63.1506 40.1984L-63.2023 39.6215L-63.2439 39.0446L-63.2753 38.4679L-63.2967 37.8914L-63.3079 37.3154L-63.3091 36.7401L-63.3003 36.1657L-63.2815 35.5922L-63.2527 35.0199L-63.214 34.449L-63.1654 33.8796L-63.1069 33.3119L-63.0387 32.746L-62.9606 32.1822L-62.8729 31.6206L-62.7755 31.0613L-62.6685 30.5046L-62.5519 29.9506L-62.4259 29.3994L-62.2905 28.8513L-62.1457 28.3063L-61.9916 27.7646L-61.8283 27.2265L-61.6559 26.692L-61.4744 26.1613L-61.2839 25.6345L-61.0845 25.1119L-60.8764 24.5935L-60.6595 24.0795L-60.4339 23.57L-60.1998 23.0653L-59.9573 22.5653L-59.7064 22.0704L-59.4473 21.5805L-59.18 21.0959L-58.9047 20.6167L-58.6214 20.143L-58.3303 19.6749L-58.0314 19.2126L-57.725 18.7562L-57.411 18.3058L-57.0897 17.8616L-56.7611 17.4236L-56.4253 16.992L-56.0826 16.5669L-55.7329 16.1484L-55.3764 15.7366L-55.0134 15.3316L-54.6438 14.9336L-54.2678 14.5426L-53.8855 14.1587L-53.4971 13.7821L-53.1028 13.4128L-52.7026 13.0509L-52.2967 12.6966L-51.8852 12.3498L-51.4682 12.0107L-51.046 11.6794L-50.6187 11.356L-50.1863 11.0405L-49.7491 10.733L-49.3072 10.4335L-48.8607 10.1422L-48.4098 9.85917L-47.9546 9.58437L-47.4954 9.31792L-47.0321 9.05987L-46.5651 8.81028L-46.0944 8.5692L-45.6202 8.33668L-45.1426 8.11277L-44.6619 7.89752L-44.1781 7.69097L-43.6915 7.49316L-43.2021 7.30412L-42.7102 7.1239L-42.2158 6.95251L-41.7192 6.79L-41.2205 6.63639L-40.7199 6.49169L-40.2175 6.35594L-39.7134 6.22914L-39.2079 6.11132L-38.7012 6.00248L-38.1932 5.90264L-37.6843 5.8118L-37.1746 5.72997L-36.6641 5.65714L-36.1532 5.59331L-35.642 5.53849L-35.1305 5.49265L-34.619 5.45581L-34.1076 5.42793L-33.5965 5.409L-33.0858 5.39901L-32.5757 5.39794L-32.0663 5.40576L-31.5579 5.42244L-31.0505 5.44797L-30.5443 5.48229L-30.0394 5.52539L-29.536 5.57723L-29.0343 5.63776L-28.5344 5.70694L-28.0365 5.78474L-27.5406 5.8711L-27.047 5.96597L-26.5557 6.0693L-26.0671 6.18105L-25.581 6.30114L-25.0978 6.42953L-24.6176 6.56614L-24.1404 6.71093L-23.6665 6.86381L-23.1959 7.02473L-22.7289 7.19361L-22.2655 7.37038L-21.8059 7.55496L-21.3501 7.74728L-20.8984 7.94725L-20.4509 8.1548L-20.0076 8.36984L-19.5687 8.59229L-19.1344 8.82206L-18.7047 9.05905L-18.2798 9.30318L-17.8598 9.55435L-17.4448 9.81247L-17.0349 10.0774L-16.6302 10.3492L-16.2309 10.6275L-15.837 10.9124L-15.4486 11.2038L-15.066 11.5015L-14.689 11.8054L-14.318 12.1154L-13.9529 12.4315L-13.5938 12.7534L-13.2409 13.0811L-12.8942 13.4145L-12.5539 13.7534L-12.2199 14.0978L-11.8925 14.4474L-11.5716 14.8023L-11.2574 15.1622L-10.95 15.527L-10.6493 15.8967L-10.3556 16.271L-10.0688 16.65L-9.78906 17.0333L-9.5164 17.421L-9.25091 17.8128L-8.99263 18.2087L-8.74165 18.6085L-8.498 19.012L-8.26175 19.4192L-8.03295 19.83L-7.81165 20.2441L-7.5979 20.6614L-7.39173 21.0819L-7.19321 21.5053L-7.00235 21.9315L-6.81921 22.3605L-6.64382 22.792L-6.47621 23.2259L-6.31642 23.6621L-6.16446 24.1004L-6.02037 24.5407L-5.88416 24.9829L-5.75587 25.4267L-5.6355 25.8722L-5.52308 26.3191L-5.41861 26.7673L-5.32211 27.2166L-5.23359 27.667L-5.15304 28.1182L-5.08048 28.5702L-5.01591 29.0228L-4.95932 29.4758L-4.91071 29.9291L-4.87007 30.3826L-4.8374 30.8361L-4.81268 31.2895L-4.7959 31.7427L-4.78704 32.1955L-4.78609 32.6478L-4.79302 33.0994L-4.80782 33.5502L-4.83045 34.0001L-4.86088 34.449L-4.8991 34.8966L-4.94506 35.3429L-4.99873 35.7878L-5.06007 36.231L-5.12905 36.6725L-5.20562 37.1122L-5.28974 37.5498L-5.38136 37.9854L-5.48044 38.4187L-5.58692 38.8496L-5.70075 39.2781L-5.82188 39.7039L-5.95025 40.127L-6.08581 40.5472L-6.22849 40.9644L-6.37822 41.3785L-6.53496 41.7894L-6.69862 42.1969L-6.86914 42.601L-7.04644 43.0015L-7.23047 43.3983L-7.42114 43.7913L-7.61837 44.1804L-7.82209 44.5655L-8.03222 44.9465L-8.24868 45.3233L-8.47138 45.6957L-8.70025 46.0636L-8.93518 46.4271L-9.1761 46.7859L-9.42292 47.14L-9.67553 47.4892L-9.93386 47.8335L-10.1978 48.1728L-10.4673 48.507L-10.7422 48.836L-11.0224 49.1598L-11.3078 49.4781L-11.5984 49.791L-11.894 50.0984L-12.1945 50.4002L-12.4998 50.6963L-12.8098 50.9866L-13.1245 51.2711L-13.4436 51.5497L-13.7671 51.8223L-14.0948 52.0888L-14.4267 52.3493L-14.7627 52.6036L-15.1026 52.8516L-15.4463 53.0934L-15.7937 53.3288L-16.1448 53.5578L-16.4992 53.7803L-16.8571 53.9963L-17.2181 54.2058L-17.5823 54.4087L-17.9494 54.6049L-18.3195 54.7944L-18.6923 54.9772L-19.0677 55.1532L-19.4456 55.3224L-19.826 55.4848L-20.2085 55.6403L-20.5933 55.789L-20.98 55.9306L-21.3686 56.0654L-21.759 56.1931L-22.1511 56.3139L-22.5447 56.4276L-22.9396 56.5344L-23.3359 56.634L-23.7333 56.7267L-24.1317 56.8122L-24.531 56.8907L-24.9311 56.9621L-25.3318 57.0265L-25.7331 57.0837L-26.1347 57.1339L-26.5367 57.177L-26.9388 57.213L-27.3409 57.242L-27.7429 57.2639L-28.1447 57.2788L-28.5462 57.2867L-28.9472 57.2875L-29.3477 57.2814L-29.7474 57.2682L-30.1463 57.2482L-30.5443 57.2212L-30.9412 57.1873L-31.3369 57.1466L-31.7313 57.099L-32.1243 57.0446L-32.5158 56.9834L-32.9056 56.9155L-33.2936 56.8409L-33.6798 56.7597L-34.064 56.6719L-34.4461 56.5774L-34.826 56.4765L-35.2035 56.3691L-35.5786 56.2553L-35.9512 56.1351L-36.3211 56.0086L-36.6883 55.8758L-37.0526 55.7369L-37.414 55.5918L-37.7722 55.4406L-38.1273 55.2834L-38.4792 55.1202L-38.8277 54.9511L-39.1727 54.7763L-39.5141 54.5956L-39.8519 54.4093L-40.1859 54.2174L-40.5161 54.0199L-40.8424 53.817L-41.1647 53.6087L-41.4828 53.3951L-41.7967 53.1763L-42.1064 52.9523L-42.4117 52.7232L-42.7125 52.4892L-43.0088 52.2503L-43.3006 52.0065L-43.5876 51.7581L-43.8699 51.505L-44.1473 51.2474L-44.4198 50.9853L-44.6874 50.7188L-44.9499 50.4481L-45.2074 50.1732L-45.4596 49.8943L-45.7066 49.6113L-45.9483 49.3245L-46.1847 49.0339L-46.4156 48.7396L-46.641 48.4417L-46.861 48.1403L-47.0753 47.8356L-47.284 47.5275L-47.4871 47.2163L-47.6844 46.902L-47.8759 46.5848L-48.0617 46.2646L-48.2415 45.9417L-48.4155 45.6162L-48.5836 45.2881L-48.7456 44.9576L-48.9017 44.6247L-49.0517 44.2896L-49.1957 43.9524L-49.3336 43.6132L-49.4654 43.272L-49.591 42.9291L-49.7105 42.5846L-49.8237 42.2384L-49.9308 41.8908L-50.0317 41.5418L-50.1263 41.1916L-50.2147 40.8403L-50.2968 40.4879L-50.3727 40.1347L-50.4423 39.7806L-50.5056 39.4259L-50.5626 39.0706L-50.6134 38.7148L-50.6579 38.3587L-50.6961 38.0023L-50.728 37.6458L-50.7537 37.2892L-50.7732 36.9328L-50.7864 36.5765L-50.7933 36.2205L-50.7941 35.865L-50.7886 35.5099L-50.777 35.1555L-50.7592 34.8018L-50.7353 34.449L-50.7052 34.0971L-50.6691 33.7462L-50.6269 33.3965L-50.5787 33.048L-50.5244 32.7009L-50.4643 32.3553L-50.3981 32.0112L-50.3261 31.6688L-50.2482 31.3282L-50.1645 30.9894L-50.075 30.6526L-49.9798 30.3178L-49.8789 29.9852L-49.7723 29.6549L-49.6601 29.3269L-49.5424 29.0013L-49.4192 28.6783L-49.2905 28.3579L-49.1565 28.0403L-49.0171 27.7254L-48.8724 27.4135L-48.7225 27.1045L-48.5675 26.7986L-48.4073 26.4958L-48.2421 26.1963L-48.0719 25.9002L-47.8969 25.6074L-47.7169 25.3181L-47.5323 25.0324L-47.3429 24.7503L-47.1488 24.472L-46.9502 24.1974L-46.7471 23.9267L-46.5396 23.66L-46.3278 23.3972L-46.1117 23.1386L-45.8914 22.8841L-45.667 22.6338L-45.4386 22.3878L-45.2062 22.1462L-44.9699 21.9089L-44.7299 21.6762L-44.4862 21.4479L-44.2388 21.2243L-43.988 21.0053L-43.7337 20.7909L-43.476 20.5814L-43.2151 20.3766L-42.9509 20.1767L-42.6837 19.9817L-42.4135 19.7917L-42.1404 19.6066L-41.8644 19.4266L-41.5858 19.2516L-41.3045 19.0818L-41.0206 18.9171L-40.7343 18.7576L-40.4457 18.6034L-40.1548 18.4544L-39.8617 18.3107L-39.5666 18.1723L-39.2694 18.0393L-38.9705 17.9116L-38.6697 17.7894L-38.3672 17.6725L-38.0632 17.5612L-37.7577 17.4552L-37.4508 17.3548L-37.1425 17.2599L-36.8331 17.1704L-36.5226 17.0865L-36.2111 17.0082L-35.8987 16.9353L-35.5855 16.8681L-35.2716 16.8064L-34.957 16.7502L-34.642 16.6997L-34.3266 16.6546L-34.0108 16.6152L-33.6948 16.5813L-33.3787 16.553L-33.0626 16.5302L-32.7465 16.513L-32.4306 16.5013L-32.115 16.4951L-31.7998 16.4944L-31.485 16.4993L-31.1707 16.5096L-30.8571 16.5254L-30.5443 16.5466L-30.2322 16.5732L-29.9211 16.6053L-29.6111 16.6427L-29.3021 16.6854L-28.9943 16.7335L-28.6879 16.7869L-28.3828 16.8455L-28.0792 16.9094L-27.7772 16.9784L-27.4768 17.0527L-27.1782 17.132L-26.8814 17.2164L-26.5865 17.3059L-26.2936 17.4004L-26.0027 17.4999L-25.7141 17.6042L-25.4277 17.7135L-25.1436 17.8276L-24.862 17.9464L-24.5828 18.07L-24.3062 18.1983L-24.0322 18.3312L-23.761 18.4687L-23.4926 18.6107L-23.227 18.7571L-22.9644 18.908L-22.7048 19.0633L-22.4483 19.2228L-22.195 19.3865L-21.9449 19.5545L-21.6981 19.7265L-21.4547 19.9026L-21.2147 20.0827L-20.9781 20.2666L-20.7452 20.4545L-20.5159 20.6461L-20.2902 20.8414L-20.0683 21.0404L-19.8502 21.2429L-19.6359 21.449L-19.4256 21.6584L-19.2192 21.8712L-19.0168 22.0873L-18.8185 22.3066L-18.6243 22.5291L-18.4343 22.7546L-18.2485 22.983L-18.067 23.2144L-17.8897 23.4486L-17.7168 23.6855L-17.5483 23.9251L-17.3842 24.1673L-17.2246 24.4119L-17.0695 24.659L-16.9189 24.9084L-16.7729 25.1601L-16.6315 25.4139L-16.4947 25.6699L-16.3626 25.9278L-16.2352 26.1877L-16.1125 26.4493L-15.9946 26.7128L-15.8814 26.9779L-15.773 27.2445L-15.6694 27.5127L-15.5706 27.7823L-15.4767 28.0532L-15.3877 28.3253L-15.3035 28.5986L-15.2242 28.8729L-15.1498 29.1482L-15.0803 29.4244L-15.0158 29.7014L-14.9561 29.9792L-14.9014 30.2575L-14.8516 30.5364L-14.8068 30.8157L-14.7669 31.0954L-14.7319 31.3754L-14.7019 31.6555L-14.6767 31.9358L-14.6565 32.2161L-14.6413 32.4963L-14.6309 32.7764L-14.6254 33.0563L-14.6248 33.3358L-14.6291 33.6149L-14.6383 33.8935L-14.6522 34.1716L-14.6711 34.449L-14.6947 34.7256L-14.7231 35.0015L-14.7563 35.2764L-14.7942 35.5503L-14.8368 35.8232L-14.8841 36.0949L-14.9361 36.3654L-14.9927 36.6346L-15.054 36.9024L-15.1198 37.1687L-15.1901 37.4335L-15.265 37.6967L-15.3443 37.9582L-15.4281 38.2179L-15.5163 38.4757L-15.6088 38.7316L-15.7057 38.9856L-15.8068 39.2375L-15.9122 39.4872L-16.0218 39.7347L-16.1355 39.98L-16.2534 40.2229L-16.3753 40.4634L-16.5012 40.7014L-16.6311 40.9368L-16.7648 41.1697L-16.9025 41.3998L-17.0439 41.6272L-17.1891 41.8519L-17.338 42.0736L-17.4905 42.2924L-17.6467 42.5083L-17.8063 42.7211L-17.9695 42.9308L-18.136 43.1373L-18.3059 43.3407L-18.4791 43.5407L-18.6555 43.7375L-18.8351 43.9309L-19.0178 44.1209L-19.2035 44.3074L-19.3922 44.4904L-19.5838 44.6698L-19.7782 44.8456L-19.9754 45.0178L-20.1754 45.1863L-20.3779 45.351L-20.5831 45.512L-20.7907 45.6691L-21.0008 45.8224L-21.2132 45.9718L-21.4279 46.1173L-21.6449 46.2589L-21.8639 46.3964L-22.0851 46.5299L-22.3082 46.6594L-22.5333 46.7847L-22.7602 46.906L-22.9889 47.0231L-23.2193 47.1361L-23.4514 47.2449L-23.6849 47.3495L-23.92 47.4499L-24.1564 47.546L-24.3942 47.6378L-24.6332 47.7254L-24.8734 47.8086L-25.1147 47.8876L-25.357 47.9622L-25.6002 48.0325L-25.8443 48.0985L-26.0892 48.1601L-26.3348 48.2174L-26.5811 48.2702L-26.8279 48.3187L-27.0751 48.3629L-27.3228 48.4026L-27.5708 48.438L-27.819 48.469L-28.0674 48.4957L-28.3159 48.5179L-28.5645 48.5358L-28.8129 48.5494L-29.0613 48.5586L-29.3094 48.5634L-29.5572 48.564L-29.8047 48.5602L-30.0518 48.5521L-30.2983 48.5397" stroke="black"/>
 </g>
</svg>
