<?xml version="1.0" encoding="utf-8"?>
<svg xmlns="http://www.w3.org/2000/svg" fill="none" version="1.1" viewBox="-256.118 -361.791 512.236 723.583" x="-256.118pt" y="-361.791pt" width="512.236pt" height="723.583pt" stroke-width="0.566929" stroke-miterlimit="10.000000">
 <path d="M160.157 -333.862L255.118 -333.862L255.118 -360.791L160.157 -360.791Z" fill="black"/>
 <path d="M208.063 -339.532L208.63 -339.532"/>
 <g transform="matrix(1.000000,-0.000000,-0.000000,1.000000,208.346457,-339.531649)">
  <path d="M-40.4207 -0M-30.8333 -6.75664C-31.2672 -5.70286 -32.0317 -3.8019 -32.197 -3.07872L-32.2177 -3.07872C-32.4036 -3.82257 -33.2508 -5.86816 -33.6847 -6.96327L-36.3295 -13.4926C-36.6808 -14.3398 -37.342 -14.3398 -37.7139 -14.3398L-39.4289 -14.3398C-40.1727 -14.3398 -40.4207 -14.1125 -40.4207 -13.348L-40.4207 -0.991801C-40.4207 -0.24795 -40.1934 -0 -39.4289 -0L-38.871 -0C-38.0858 -0 -37.8792 -0.268613 -37.8792 -0.991801L-37.8792 -11.6743L-37.8585 -11.6743C-37.6313 -10.7445 -36.7014 -8.45097 -36.2055 -7.23188L-33.8087 -1.34306C-33.4368 -0.454575 -32.9409 -0.454575 -32.2383 -0.454575C-31.5358 -0.454575 -31.0399 -0.454575 -30.668 -1.34306L-28.0232 -7.8311C-27.8166 -8.327 -26.7008 -11.1371 -26.5561 -11.6743L-26.5355 -11.6743L-26.5355 -0.991801C-26.5355 -0.3306 -26.3908 -0 -25.5437 -0L-24.9858 -0C-24.2006 -0 -23.994 -0.268613 -23.994 -0.991801L-23.994 -13.348C-23.994 -14.0092 -24.1386 -14.3398 -24.9858 -14.3398L-26.7214 -14.3398C-27.238 -14.3398 -27.7546 -14.2985 -28.1058 -13.4513ZM-28.1058 -13.4513" fill="#fff"/>
 </g>
 <g transform="matrix(1.000000,-0.000000,-0.000000,1.000000,208.346457,-339.531649)">
  <path d="M-20.2172 -0M-10.6298 -6.75664C-11.0637 -5.70286 -11.8283 -3.8019 -11.9936 -3.07872L-12.0142 -3.07872C-12.2002 -3.82257 -13.0473 -5.86816 -13.4813 -6.96327L-16.1261 -13.4926C-16.4773 -14.3398 -17.1385 -14.3398 -17.5104 -14.3398L-19.2254 -14.3398C-19.9693 -14.3398 -20.2172 -14.1125 -20.2172 -13.348L-20.2172 -0.991801C-20.2172 -0.24795 -19.9899 -0 -19.2254 -0L-18.6675 -0C-17.8824 -0 -17.6757 -0.268613 -17.6757 -0.991801L-17.6757 -11.6743L-17.6551 -11.6743C-17.4278 -10.7445 -16.498 -8.45097 -16.0021 -7.23188L-13.6052 -1.34306C-13.2333 -0.454575 -12.7374 -0.454575 -12.0349 -0.454575C-11.3324 -0.454575 -10.8364 -0.454575 -10.4645 -1.34306L-7.81972 -7.8311C-7.6131 -8.327 -6.49732 -11.1371 -6.35268 -11.6743L-6.33202 -11.6743L-6.33202 -0.991801C-6.33202 -0.3306 -6.18738 -0 -5.34022 -0L-4.78233 -0C-3.99716 -0 -3.79053 -0.268613 -3.79053 -0.991801L-3.79053 -13.348C-3.79053 -14.0092 -3.93517 -14.3398 -4.78233 -14.3398L-6.51798 -14.3398C-7.03455 -14.3398 -7.55111 -14.2985 -7.90237 -13.4513ZM-7.90237 -13.4513" fill="#fff"/>
 </g>
 <g transform="matrix(1.000000,-0.000000,-0.000000,1.000000,208.346457,-339.531649)">
  <path d="M-1.02624 -0M7.89997 -13.4513C7.59003 -14.3398 6.99082 -14.3398 6.57757 -14.3398L4.75927 -14.3398C4.34602 -14.3398 3.7468 -14.3398 3.43686 -13.4513L-0.922928 -0.971138C-1.02624 -0.702526 -1.02624 -0.661201 -1.02624 -0.557888C-1.02624 -0 -0.509677 -0 -0.220402 -0L0.523449 -0C0.895374 -0 1.53591 -0 1.82519 -0.826501L2.63103 -3.12004L8.35454 -3.12004L9.05707 -1.13644C9.30502 -0.41325 9.44966 -0 10.4415 -0L11.5572 -0C11.8465 -0 12.3631 -0 12.3631 -0.557888C12.3631 -0.661201 12.3631 -0.702526 12.2598 -0.971138ZM12.2598 -0.971138M4.7386 -9.27747C5.04854 -10.1866 5.31715 -10.9718 5.48245 -11.7156L5.50312 -11.7156C5.60643 -11.2197 5.60643 -11.1784 5.77173 -10.7032L7.73467 -4.89702L3.2509 -4.89702ZM3.2509 -4.89702" fill="#fff"/>
 </g>
 <g transform="matrix(1.000000,-0.000000,-0.000000,1.000000,208.346457,-339.531649)">
  <path d="M13.8876 -0M25.8512 -2.95474C25.8512 -3.12004 25.7065 -3.20269 25.6239 -3.20269C25.128 -3.20269 24.5288 -1.85963 21.6154 -1.85963C17.9788 -1.85963 16.9456 -4.09118 16.9456 -7.19056C16.9456 -10.2693 18.0614 -12.5008 21.4501 -12.5008C23.289 -12.5008 24.2602 -11.7776 24.8181 -11.3231C24.942 -11.2197 25.004 -11.1371 25.1487 -11.1371C25.2313 -11.1371 25.3346 -11.2404 25.3553 -11.3231L25.7685 -13.6166C25.7892 -13.6993 25.7685 -13.7819 25.6032 -13.8439C24.3841 -14.2985 23.1237 -14.5877 21.512 -14.5877C16.4704 -14.5877 13.8876 -12.1289 13.8876 -7.21122C13.8876 -2.1489 16.5117 0.206625 21.5327 0.206625C23.289 0.206625 24.3841 -0.041325 25.8925 -0.971138C26.0578 -1.07445 26.0165 -1.21909 26.0165 -1.21909ZM26.0165 -1.21909" fill="#fff"/>
 </g>
 <g transform="matrix(1.000000,-0.000000,-0.000000,1.000000,208.346457,-339.531649)">
  <path d="M28.0162 -0M36.9424 -13.4513C36.6325 -14.3398 36.0333 -14.3398 35.62 -14.3398L33.8017 -14.3398C33.3885 -14.3398 32.7893 -14.3398 32.4793 -13.4513L28.1195 -0.971138C28.0162 -0.702526 28.0162 -0.661201 28.0162 -0.557888C28.0162 -0 28.5328 -0 28.8221 -0L29.5659 -0C29.9378 -0 30.5784 -0 30.8676 -0.826501L31.6735 -3.12004L37.397 -3.12004L38.0995 -1.13644C38.3475 -0.41325 38.4921 -0 39.4839 -0L40.5997 -0C40.889 -0 41.4055 -0 41.4055 -0.557888C41.4055 -0.661201 41.4055 -0.702526 41.3022 -0.971138ZM41.3022 -0.971138M33.7811 -9.27747C34.091 -10.1866 34.3596 -10.9718 34.5249 -11.7156L34.5456 -11.7156C34.6489 -11.2197 34.6489 -11.1784 34.8142 -10.7032L36.7771 -4.89702L32.2934 -4.89702ZM32.2934 -4.89702" fill="#fff"/>
 </g>
 <path d="M208.063 -314.02L208.63 -314.02"/>
 <g transform="matrix(1.000000,-0.000000,-0.000000,1.000000,208.346457,-314.019838)">
  <path d="M-24.2781 -0M-18.6687 -2.41016L-18.9843 -2.41016C-19.0274 -2.16628 -19.1421 -1.37723 -19.2856 -1.1477C-19.386 -1.01858 -20.2038 -1.01858 -20.6341 -1.01858L-23.2882 -1.01858C-22.9008 -1.34854 -22.0257 -2.2667 -21.6527 -2.61101C-19.4721 -4.61948 -18.6687 -5.36548 -18.6687 -6.78575C-18.6687 -8.43556 -19.9742 -9.54022 -21.6384 -9.54022C-23.3025 -9.54022 -24.2781 -8.11995 -24.2781 -6.88617C-24.2781 -6.15452 -23.6468 -6.15452 -23.6038 -6.15452C-23.3025 -6.15452 -22.9295 -6.36971 -22.9295 -6.82879C-22.9295 -7.23048 -23.2021 -7.50306 -23.6038 -7.50306C-23.7329 -7.50306 -23.7616 -7.50306 -23.8047 -7.48871C-23.5321 -8.46426 -22.7574 -9.12418 -21.8249 -9.12418C-20.6055 -9.12418 -19.8595 -8.1056 -19.8595 -6.78575C-19.8595 -5.56632 -20.5624 -4.50471 -21.3801 -3.58655L-24.2781 -0.344309L-24.2781 -0L-19.0417 -0ZM-19.0417 -0" fill="black"/>
 </g>
 <g transform="matrix(1.000000,-0.000000,-0.000000,1.000000,208.346457,-314.019838)">
  <path d="M-12.5004 -0M-7.10623 -10.2432C-7.0345 -10.4297 -7.0345 -10.4584 -7.0345 -10.4871C-7.0345 -10.6736 -7.17796 -10.7596 -7.29273 -10.7596C-7.47923 -10.7596 -7.52227 -10.6305 -7.594 -10.444L-12.4287 3.07009C-12.5004 3.25659 -12.5004 3.28528 -12.5004 3.31397C-12.5004 3.47178 -12.3856 3.58655 -12.2278 3.58655C-12.0413 3.58655 -11.9983 3.44309 -11.9409 3.28528ZM-11.9409 3.28528" fill="black"/>
 </g>
 <g transform="matrix(1.000000,-0.000000,-0.000000,1.000000,208.346457,-314.019838)">
  <path d="M-0.263639 -0M2.56256 -9.19591C2.56256 -9.52587 2.56256 -9.54022 2.27564 -9.54022C1.93133 -9.15287 1.21402 -8.62206 -0.263639 -8.62206L-0.263639 -8.20602C0.0663231 -8.20602 0.783633 -8.20602 1.57267 -8.57903L1.57267 -1.10466C1.57267 -0.588194 1.52964 -0.41604 0.26717 -0.41604L-0.177562 -0.41604L-0.177562 -0C0.209785 -0.0286924 1.60137 -0.0286924 2.07479 -0.0286924C2.54821 -0.0286924 3.92545 -0.0286924 4.3128 -0L4.3128 -0.41604L3.86806 -0.41604C2.6056 -0.41604 2.56256 -0.588194 2.56256 -1.10466ZM2.56256 -1.10466" fill="black"/>
 </g>
 <g transform="matrix(1.000000,-0.000000,-0.000000,1.000000,208.346457,-314.019838)">
  <path d="M6.04262 -0M9.7296 -5.17898C10.4469 -5.56632 11.4942 -6.22625 11.4942 -7.43133C11.4942 -8.67945 10.2891 -9.54022 8.96925 -9.54022C7.54897 -9.54022 6.42997 -8.49295 6.42997 -7.18744C6.42997 -6.69967 6.57343 -6.2119 6.97513 -5.72413C7.13293 -5.53763 7.14728 -5.52329 8.15151 -4.82032C6.75993 -4.17474 6.04262 -3.21355 6.04262 -2.16628C6.04262 -0.645579 7.49159 0.30127 8.9549 0.30127C10.5473 0.30127 11.8815 -0.875118 11.8815 -2.38147C11.8815 -3.84478 10.8486 -4.49036 9.7296 -5.17898ZM9.7296 -5.17898M7.77851 -6.47013C7.59201 -6.59925 7.01817 -6.97225 7.01817 -7.67521C7.01817 -8.60772 7.99371 -9.19591 8.9549 -9.19591C9.98783 -9.19591 10.906 -8.44991 10.906 -7.41698C10.906 -6.54187 10.2748 -5.8389 9.44267 -5.37982ZM9.44267 -5.37982M8.45278 -4.61948L10.1887 -3.48613C10.5617 -3.24224 11.2216 -2.79751 11.2216 -1.92239C11.2216 -0.832079 10.1169 -0.0860772 8.96925 -0.0860772C7.74982 -0.0860772 6.70255 -0.975541 6.70255 -2.16628C6.70255 -3.28528 7.52028 -4.18909 8.45278 -4.61948ZM8.45278 -4.61948" fill="black"/>
 </g>
 <g transform="matrix(1.000000,-0.000000,-0.000000,1.000000,208.346457,-314.019838)">
  <path d="M13.0662 -0M18.9051 -4.59078C18.9051 -5.78152 18.8334 -6.94356 18.3169 -8.03387C17.7287 -9.2246 16.6958 -9.54022 15.9928 -9.54022C15.1607 -9.54022 14.1422 -9.12418 13.6114 -7.93345C13.2097 -7.02964 13.0662 -6.14017 13.0662 -4.59078C13.0662 -3.1992 13.1666 -2.15193 13.6831 -1.13335C14.2426 -0.0430386 15.2325 0.30127 15.9785 0.30127C17.2266 0.30127 17.9439 -0.444732 18.3599 -1.27681C18.8764 -2.35278 18.9051 -3.7587 18.9051 -4.59078ZM18.9051 -4.59078M15.9785 0.0143462C15.5194 0.0143462 14.5869 -0.243885 14.3143 -1.80762C14.1565 -2.66839 14.1565 -3.7587 14.1565 -4.76294C14.1565 -5.93933 14.1565 -7.00094 14.386 -7.84737C14.6299 -8.80856 15.3616 -9.2533 15.9785 -9.2533C16.5236 -9.2533 17.3557 -8.92333 17.6283 -7.68956C17.8148 -6.87183 17.8148 -5.73848 17.8148 -4.76294C17.8148 -3.80174 17.8148 -2.71143 17.657 -1.83631C17.3844 -0.258232 16.4806 0.0143462 15.9785 0.0143462ZM15.9785 0.0143462" fill="black"/>
 </g>
 <g transform="matrix(1.000000,-0.000000,-0.000000,1.000000,208.346457,-314.019838)">
  <path d="M20.0495 -5.20611M23.925 -7.69677C23.925 -8.76277 23.0383 -9.62952 21.9922 -9.62952C20.9163 -9.62952 20.0495 -8.74285 20.0495 -7.69677C20.0495 -6.64073 20.9163 -5.76402 21.9922 -5.76402C23.0383 -5.76402 23.925 -6.63077 23.925 -7.69677ZM23.925 -7.69677M21.9922 -6.16252C21.1255 -6.16252 20.448 -6.85991 20.448 -7.69677C20.448 -8.53363 21.1354 -9.23102 21.9922 -9.23102C22.8191 -9.23102 23.5265 -8.55356 23.5265 -7.69677C23.5265 -6.83998 22.8191 -6.16252 21.9922 -6.16252ZM21.9922 -6.16252" fill="black"/>
 </g>
 <g stroke-linecap="round" stroke-linejoin="round">
  <path d="M-85.0394 120.264L-213.806 -360.301" stroke="black"/>
 </g>
 <g stroke-linecap="butt" stroke-linejoin="round" stroke-dasharray="2.000000" stroke-dashoffset="0.000000">
  <path d="M-85.0394 120.264L-85.0394 -349.33" stroke="black"/>
 </g>
 <g stroke-linecap="round" stroke-linejoin="round">
  <path d="M-85.0394 120.264L29.6788 -307.87" stroke="black"/>
 </g>
 <g stroke-linecap="butt" stroke-linejoin="round" stroke-dasharray="2.000000" stroke-dashoffset="0.000000">
  <path d="M-85.0394 120.264L124.141 -242.047" stroke="black"/>
 </g>
 <g stroke-linecap="round" stroke-linejoin="round">
  <path d="M-85.0394 120.264L194.183 -158.958" stroke="black"/>
 </g>
 <g stroke-linecap="butt" stroke-linejoin="round" stroke-dasharray="2.000000" stroke-dashoffset="0.000000">
  <path d="M-85.0394 120.264L237.743 -66.0944" stroke="black"/>
 </g>
 <g stroke-linecap="round" stroke-linejoin="round">
  <path d="M-85.0394 120.264L254.771 29.2119" stroke="black"/>
 </g>
 <g stroke-linecap="butt" stroke-linejoin="round" stroke-dasharray="2.000000" stroke-dashoffset="0.000000">
  <path d="M-85.0394 120.264L247.013 120.264" stroke="black"/>
 </g>
 <g stroke-linecap="round" stroke-linejoin="round">
  <path d="M-85.0394 120.264L217.697 201.382" stroke="black"/>
 </g>
 <g stroke-linecap="butt" stroke-linejoin="round" stroke-dasharray="2.000000" stroke-dashoffset="0.000000">
  <path d="M-85.0394 120.264L171.153 268.176" stroke="black"/>
 </g>
 <g stroke-linecap="round" stroke-linejoin="round">
  <path d="M-85.0394 120.264L112.4 317.704" stroke="black"/>
 </g>
 <g stroke-linecap="butt" stroke-linejoin="round" stroke-dasharray="2.000000" stroke-dashoffset="0.000000">
  <path d="M-85.0394 120.264L46.7358 348.505" stroke="black"/>
 </g>
 <g stroke-linecap="round" stroke-linejoin="round">
  <path d="M-85.0394 120.264L-20.656 360.546" stroke="black"/>
 </g>
 <g stroke-linecap="butt" stroke-linejoin="round" stroke-dasharray="2.000000" stroke-dashoffset="0.000000">
  <path d="M-85.0394 120.264L-85.0394 355.061" stroke="black"/>
 </g>
 <g stroke-linecap="round" stroke-linejoin="round">
  <path d="M-85.0394 120.264L-142.398 334.331" stroke="black"/>
 </g>
 <g stroke-linecap="butt" stroke-linejoin="round" stroke-dasharray="2.000000" stroke-dashoffset="0.000000">
  <path d="M-85.0394 120.264L-189.629 301.419" stroke="black"/>
 </g>
 <g stroke-linecap="round" stroke-linejoin="round">
  <path d="M-85.0394 120.264L-224.65 259.875" stroke="black"/>
 </g>
 <g stroke-linecap="butt" stroke-linejoin="round" stroke-dasharray="2.000000" stroke-dashoffset="0.000000">
  <path d="M-85.0394 120.264L-246.43 213.443" stroke="black"/>
 </g>
 <g stroke-linecap="round" stroke-linejoin="round">
  <path d="M-85.0394 120.264L-254.945 165.79" stroke="black"/>
 </g>
 <g stroke-linecap="butt" stroke-linejoin="round" stroke-dasharray="2.000000" stroke-dashoffset="0.000000">
  <path d="M-85.0394 120.264L-251.066 120.264" stroke="black"/>
 </g>
 <g stroke-linecap="round" stroke-linejoin="round">
  <path d="M-85.0394 120.264L-236.408 79.7048" stroke="black"/>
 </g>
 <g stroke-linecap="butt" stroke-linejoin="round" stroke-dasharray="2.000000" stroke-dashoffset="0.000000">
  <path d="M-85.0394 120.264L-213.135 46.3075" stroke="black"/>
 </g>
 <g stroke-linecap="round" stroke-linejoin="round">
  <path d="M-85.0394 120.264L-183.759 21.544" stroke="black"/>
 </g>
 <g stroke-linecap="butt" stroke-linejoin="round" stroke-dasharray="2.000000" stroke-dashoffset="0.000000">
  <path d="M-85.0394 120.264L-150.927 6.14317" stroke="black"/>
 </g>
 <g stroke-linecap="round" stroke-linejoin="round">
  <path d="M-85.0394 120.264L-117.231 0.122736" stroke="black"/>
 </g>
 <g stroke-linecap="round" stroke-linejoin="round" stroke-width="1.603518">
  <path d="M-213.806 -360.301L-204.937 -360.619L-196.098 -360.783L-187.291 -360.791L-178.519 -360.647L-169.785 -360.351L-161.091 -359.904L-152.439 -359.308L-143.832 -358.564L-135.273 -357.673L-126.763 -356.637L-118.305 -355.457L-109.902 -354.135L-101.555 -352.672L-93.2665 -351.07L-85.0394 -349.33L-76.8753 -347.453L-68.7765 -345.443L-60.745 -343.3L-52.7829 -341.025L-44.8921 -338.622L-37.0746 -336.09L-29.3324 -333.433L-21.6673 -330.652L-14.0811 -327.749L-6.57576 -324.725L0.847056 -321.584L8.18559 -318.325L15.4382 -314.952L22.6031 -311.467L29.6788 -307.87L36.6638 -304.165L43.5564 -300.354L50.3552 -296.438L57.0588 -292.419L63.6657 -288.3L70.1747 -284.083L76.5842 -279.769L82.8932 -275.361L89.1004 -270.86L95.2045 -266.27L101.204 -261.593L107.099 -256.829L112.887 -251.982L118.568 -247.054L124.141 -242.047L129.604 -236.963L134.957 -231.804L140.199 -226.572L145.329 -221.271L150.346 -215.901L155.25 -210.466L160.04 -204.967L164.715 -199.407L169.275 -193.788L173.719 -188.112L178.046 -182.381L182.257 -176.598L186.35 -170.765L190.325 -164.885L194.183 -158.958L197.921 -152.988L201.541 -146.977L205.043 -140.927L208.425 -134.84L211.687 -128.719L214.83 -122.566L217.854 -116.382L220.758 -110.171L223.543 -103.934L226.208 -97.6736L228.753 -91.3918L231.179 -85.0908L233.486 -78.7728L235.674 -72.44L237.743 -66.0944L239.693 -59.7382L241.525 -53.3735L243.239 -47.0024L244.836 -40.6269L246.315 -34.2491L247.677 -27.8711L248.923 -21.4949L250.054 -15.1225L251.069 -8.75595L251.969 -2.39715L252.755 3.9519L253.428 10.2892L253.987 16.613L254.435 22.9212L254.771 29.2119L254.996 35.4834L255.112 41.7337L255.118 47.9611L255.016 54.1637L254.807 60.3398L254.491 66.4875L254.069 72.6052L253.543 78.6911L252.913 84.7436L252.18 90.7609L251.346 96.7415L250.411 102.684L249.377 108.586L248.244 114.446L247.013 120.264L245.687 126.037L244.265 131.763L242.75 137.443L241.141 143.073L239.442 148.652L237.652 154.18L235.773 159.655L233.806 165.075L231.753 170.439L229.616 175.746L227.394 180.995L225.09 186.184L222.705 191.312L220.24 196.379L217.697 201.382L215.077 206.321L212.382 211.195L209.613 216.002L206.772 220.742L203.859 225.414L200.877 230.017L197.826 234.549L194.709 239.01L191.527 243.399L188.282 247.715L184.974 251.958L181.606 256.126L178.178 260.219L174.694 264.236L171.153 268.176L167.558 272.04L163.91 275.825L160.211 279.531L156.462 283.159L152.665 286.706L148.822 290.174L144.934 293.561L141.002 296.867L137.029 300.091L133.015 303.233L128.963 306.293L124.874 309.271L120.749 312.165L116.591 314.976L112.4 317.704L108.179 320.347L103.929 322.907L99.6506 325.383L95.3466 327.774L91.0183 330.081L86.6672 332.304L82.2948 334.442L77.9028 336.495L73.4925 338.464L69.0657 340.349L64.6238 342.149L60.1683 343.864L55.7008 345.495L51.2228 347.042L46.7358 348.505L42.2413 349.884L37.7408 351.18L33.2357 352.392L28.7276 353.521L24.2178 354.567L19.7079 355.53L15.1992 356.411L10.6932 357.21L6.19139 357.928L1.69504 358.565L-2.79441 359.121L-7.2756 359.596L-11.7471 359.992L-16.2077 360.308L-20.656 360.546L-25.0906 360.705L-29.5102 360.787L-33.9136 360.791L-38.2995 360.719L-42.6667 360.571L-47.0138 360.348L-51.3396 360.05L-55.643 359.678L-59.9228 359.232L-64.1777 358.714L-68.4065 358.124L-72.6083 357.463L-76.7817 356.732L-80.9258 355.931L-85.0394 355.061L-89.1214 354.122L-93.1708 353.117L-97.1865 352.046L-101.168 350.908L-105.113 349.707L-109.022 348.441L-112.893 347.112L-116.725 345.722L-120.518 344.27L-124.271 342.758L-127.983 341.188L-131.652 339.558L-135.278 337.872L-138.861 336.129L-142.398 334.331L-145.891 332.478L-149.337 330.573L-152.737 328.615L-156.088 326.605L-159.392 324.546L-162.646 322.437L-165.851 320.28L-169.006 318.076L-172.109 315.826L-175.161 313.531L-178.161 311.192L-181.109 308.81L-184.003 306.387L-186.843 303.923L-189.629 301.419L-192.361 298.877L-195.037 296.298L-197.658 293.682L-200.223 291.031L-202.732 288.346L-205.184 285.629L-207.579 282.879L-209.917 280.099L-212.196 277.29L-214.418 274.452L-216.582 271.586L-218.687 268.695L-220.734 265.778L-222.722 262.838L-224.65 259.875L-226.52 256.89L-228.33 253.884L-230.08 250.859L-231.771 247.816L-233.403 244.755L-234.974 241.679L-236.486 238.587L-237.938 235.481L-239.33 232.363L-240.663 229.233L-241.936 226.092L-243.149 222.941L-244.302 219.782L-245.396 216.616L-246.43 213.443L-247.406 210.265L-248.322 207.083L-249.179 203.897L-249.977 200.709L-250.716 197.52L-251.398 194.331L-252.021 191.143L-252.586 187.957L-253.093 184.774L-253.544 181.594L-253.937 178.42L-254.273 175.251L-254.553 172.089L-254.776 168.935L-254.945 165.79L-255.057 162.654L-255.115 159.529L-255.118 156.415L-255.067 153.314L-254.962 150.226L-254.804 147.152L-254.594 144.093L-254.331 141.05L-254.016 138.024L-253.649 135.015L-253.232 132.025L-252.765 129.054L-252.247 126.103L-251.681 123.173L-251.066 120.264L-250.402 117.377L-249.692 114.514L-248.934 111.674L-248.13 108.859L-247.28 106.07L-246.385 103.306L-245.445 100.568L-244.462 97.8584L-243.436 95.1763L-242.367 92.5228L-241.256 89.8984L-240.104 87.3038L-238.911 84.7397L-237.679 82.2065L-236.408 79.7048L-235.098 77.2353L-233.75 74.7984L-232.366 72.3946L-230.945 70.0245L-229.489 67.6886L-227.997 65.3874L-226.472 63.1213L-224.914 60.8907L-223.323 58.6961L-221.7 56.538L-220.046 54.4167L-218.362 52.3326L-216.648 50.2862L-214.906 48.2777L-213.135 46.3075L-211.338 44.376L-209.514 42.4834L-207.665 40.6301L-205.79 38.8164L-203.892 37.0425L-201.97 35.3087L-200.026 33.6152L-198.06 31.9623L-196.073 30.3502L-194.067 28.779L-192.041 27.2491L-189.996 25.7604L-187.934 24.3133L-185.855 22.9077L-183.759 21.544L-181.649 20.2221L-179.523 18.9422L-177.384 17.7044L-175.232 16.5087L-173.068 15.3551L-170.893 14.2438L-168.706 13.1748L-166.51 12.1481L-164.305 11.1636L-162.092 10.2214L-159.871 9.32147L-157.643 8.46373L-155.409 7.64814L-153.17 6.87465L-150.927 6.14317L-148.68 5.45362L-146.429 4.8059L-144.177 4.19988L-141.923 3.63544L-139.668 3.11245L-137.413 2.63075L-135.159 2.19018L-132.906 1.79056L-130.655 1.4317L-128.407 1.11341L-126.162 0.835482L-123.921 0.597686L-121.685 0.399794L-119.455 0.241562L-117.231 0.122736L-115.014 0.0430524L-112.804 0.00223534L-110.602 7.30125e-13L-108.409 0.0360511L-106.226 0.110083L-104.052 0.221782L-101.889 0.370822L-99.7375 0.55687L-97.5977 0.779583L-95.4702 1.03861L-93.3558 1.33358L-91.2549 1.66414L-89.1682 2.02991L-87.0962 2.43048L-85.0394 2.86549L-82.9984 3.33451L-80.9737 3.83714L-78.9658 4.37296L-76.9753 4.94155L-75.0026 5.54248L-73.0482 6.1753L-71.1126 6.83957L-69.1963 7.53484L-67.2998 8.26064L-65.4235 9.01651L-63.5678 9.80199L-61.7331 10.6166L-59.92 11.4598L-58.1288 12.3312L-56.3598 13.2303L-54.6136 14.1565L-52.8904 15.1094L-51.1907 16.0884L-49.5148 17.0931L-47.8631 18.1229L-46.2359 19.1772L-44.6335 20.2557L-43.0562 21.3577L-41.5044 22.4828L-39.9784 23.6303L-38.4784 24.7997L-37.0048 25.9906L-35.5577 27.2023L-34.1375 28.4344L-32.7444 29.6862L-31.3786 30.9572L-30.0403 32.2469L-28.7298 33.5548L-27.4473 34.8801L-26.193 36.2225L-24.967 37.5813L-23.7695 38.956L-22.6008 40.3461L-21.4608 41.7509L-20.3499 43.1699L-19.268 44.6025L-18.2154 46.0482L-17.1921 47.5065L-16.1982 48.9767L-15.2339 50.4584L-14.2992 51.9508L-13.3942 53.4536L-12.5189 54.9661L-11.6734 56.4877L-10.8577 58.018L-10.0719 59.5564L-9.31601 61.1023L-8.58999 62.6551L-7.89387 64.2143L-7.22763 65.7795L-6.59127 67.3499L-5.98476 68.9252L-5.40805 70.5047L-4.86111 72.0879L-4.34388 73.6743L-3.85629 75.2633L-3.39828 76.8545L-2.96976 78.4473L-2.57065 80.0411L-2.20084 81.6356L-1.86022 83.2301L-1.54869 84.8241L-1.26612 86.4172L-1.01237 88.0089L-0.787302 89.5986L-0.590775 91.1858L-0.422628 92.7702L-0.282697 94.3511L-0.17081 95.9282L-0.0867877 97.5009L-0.0304426 99.0687L-0.00158063 100.631L-4.90946e-13 102.188L-0.0254919 103.739L-0.0778406 105.283L-0.156823 106.82L-0.262211 108.349L-0.393767 109.871L-0.551248 111.384L-0.734407 112.888L-0.942987 114.383L-1.17673 115.869L-1.43536 117.344L-1.71861 118.809L-2.0262 120.264L-2.35785 121.707L-2.71327 123.139L-3.09215 124.559L-3.49421 125.966L-3.91912 127.361L-4.3666 128.743L-4.83631 130.112L-5.32793 131.467L-5.84115 132.808L-6.37564 134.134L-6.93105 135.447L-7.50706 136.744L-8.10333 138.026L-8.7195 139.293L-9.35522 140.543L-10.0102 141.778L-10.6839 142.997L-11.3762 144.198L-12.0866 145.383L-12.8148 146.551L-13.5604 147.702L-14.3229 148.835L-15.1022 149.95L-15.8977 151.048L-16.7091 152.127L-17.5361 153.187L-18.3781 154.229L-19.235 155.253L-20.1061 156.257L-20.9913 157.242L-21.8901 158.208L-22.802 159.154L-23.7268 160.081L-24.664 160.988L-25.6132 161.874L-26.574 162.741L-27.5461 163.588L-28.529 164.415L-29.5223 165.221L-30.5257 166.006L-31.5387 166.771L-32.561 167.516L-33.5922 168.239L-34.6318 168.942L-35.6794 169.624L-36.7348 170.285L-37.7974 170.925L-38.8669 171.544L-39.9429 172.141L-41.0249 172.718L-42.1127 173.274L-43.2058 173.808L-44.3038 174.322L-45.4064 174.814L-46.5131 175.285L-47.6236 175.735L-48.7375 176.164L-49.8543 176.572L-50.9738 176.958L-52.0956 177.324L-53.2192 177.669L-54.3443 177.993L-55.4706 178.296L-56.5976 178.578L-57.7251 178.84L-58.8526 179.08L-59.9797 179.301L-61.1062 179.5L-62.2317 179.68L-63.3558 179.839L-64.4781 179.978L-65.5984 180.097L-66.7163 180.196L-67.8315 180.275L-68.9435 180.334L-70.0522 180.374L-71.1571 180.395L-72.2579 180.396L-73.3544 180.378L-74.4462 180.341L-75.533 180.285L-76.6144 180.21L-77.6903 180.117L-78.7602 180.006L-79.8239 179.876L-80.8812 179.729L-81.9316 179.564L-82.975 179.381L-84.011 179.181L-85.0394 178.963L-86.0599 178.728L-87.0722 178.477L-88.0762 178.209L-89.0714 177.925L-90.0578 177.625L-91.035 177.308L-92.0027 176.976L-92.9609 176.628L-93.9092 176.265L-94.8473 175.887L-95.7752 175.495L-96.6925 175.087L-97.5991 174.666L-98.4947 174.23L-99.3791 173.781L-100.252 173.317L-101.114 172.841L-101.964 172.352L-102.802 171.849L-103.628 171.334L-104.441 170.807L-105.242 170.268L-106.031 169.717L-106.807 169.154L-107.57 168.581L-108.32 167.996L-109.057 167.4L-109.78 166.795L-110.49 166.179L-111.187 165.553L-111.87 164.917L-112.539 164.272L-113.194 163.618L-113.835 162.956L-114.463 162.284L-115.076 161.605L-115.674 160.918L-116.259 160.223L-116.829 159.52L-117.384 158.811L-117.925 158.094L-118.451 157.372L-118.963 156.642L-119.46 155.907L-119.942 155.167L-120.409 154.42L-120.862 153.669L-121.3 152.913L-121.722 152.152L-122.13 151.387L-122.523 150.618L-122.901 149.845L-123.264 149.068L-123.612 148.289L-123.945 147.506L-124.263 146.721L-124.567 145.933L-124.855 145.143L-125.128 144.352L-125.387 143.559L-125.631 142.764L-125.86 141.968L-126.074 141.172L-126.274 140.375L-126.459 139.578L-126.629 138.781L-126.785 137.984L-126.926 137.187L-127.053 136.391L-127.165 135.596L-127.264 134.803L-127.348 134.011L-127.418 133.22L-127.474 132.432L-127.516 131.645L-127.544 130.861L-127.558 130.08L-127.559 129.302L-127.546 128.526L-127.52 127.754L-127.481 126.986L-127.428 126.221L-127.362 125.46L-127.283 124.704L-127.192 123.952L-127.088 123.204L-126.971 122.461L-126.841 121.724L-126.7 120.991L-126.546 120.264L-126.38 119.542L-126.202 118.826L-126.013 118.116L-125.812 117.413L-125.599 116.715L-125.376 116.024L-125.141 115.34L-124.895 114.662L-124.638 113.992L-124.371 113.329L-124.094 112.672L-123.806 112.024L-123.507 111.383L-123.199 110.749L-122.881 110.124L-122.554 109.507L-122.217 108.897L-121.871 108.297L-121.516 107.704L-121.152 107.12L-120.779 106.545L-120.398 105.978L-120.008 105.421L-119.61 104.872L-119.204 104.332L-118.791 103.802L-118.37 103.281L-117.942 102.769L-117.506 102.267L-117.063 101.775L-116.614 101.292L-116.158 100.819L-115.696 100.355L-115.227 99.902L-114.752 99.4585L-114.272 99.025L-113.786 98.6017L-113.295 98.1885L-112.798 97.7854L-112.296 97.3926L-111.79 97.0101L-111.279 96.638L-110.763 96.2762L-110.243 95.9248L-109.719 95.5839L-109.192 95.2534L-108.66 94.9334L-108.126 94.624L-107.588 94.325L-107.047 94.0367L-106.503 93.7588L-105.956 93.4916L-105.407 93.2349L-104.856 92.9888L-104.303 92.7532L-103.747 92.5282L-103.19 92.3138L-102.632 92.1099L-102.072 91.9165L-101.511 91.7337L-100.949 91.5613L-100.387 91.3993L-99.8238 91.2478L-99.2602 91.1067L-98.6965 90.976L-98.1328 90.8556L-97.5692 90.7454L-97.0059 90.6455L-96.4432 90.5558L-95.8812 90.4762L-95.32 90.4067L-94.7598 90.3473L-94.2009 90.2978L-93.6433 90.2583L-93.0873 90.2286L-92.533 90.2086L-91.9805 90.1984L-91.4301 90.1979L-90.8818 90.2069L-90.336 90.2254L-89.7926 90.2533L-89.2518 90.2906L-88.7139 90.3371L-88.1789 90.3928L-87.6471 90.4575L-87.1185 90.5313L-86.5933 90.6139L-86.0716 90.7053L-85.5536 90.8055L-85.0394 90.9142L-84.5291 91.0315L-84.0229 91.1572L-83.521 91.2911L-83.0233 91.4333L-82.5302 91.5835L-82.0416 91.7417L-81.5577 91.9078L-81.0786 92.0816L-80.6045 92.263L-80.1354 92.452L-79.6715 92.6484L-79.2128 92.852L-78.7595 93.0628L-78.3117 93.2807L-77.8695 93.5054L-77.4329 93.737L-77.0021 93.9752L-76.5772 94.22L-76.1582 94.4711L-75.7453 94.7286L-75.3385 94.9922L-74.9379 95.2618L-74.5436 95.5373L-74.1556 95.8186L-73.7741 96.1054L-73.3991 96.3978L-73.0307 96.6955L-72.669 96.9985L-72.3139 97.3065L-71.9656 97.6194L-71.6242 97.9372L-71.2896 98.2596L-70.962 98.5866L-70.6414 98.9179L-70.3278 99.2535L-70.0213 99.5932L-69.7219 99.9369L-69.4297 100.284L-69.1447 100.636L-68.867 100.99L-68.5965 101.349L-68.3334 101.71L-68.0775 102.074L-67.8291 102.442L-67.588 102.812L-67.3543 103.186L-67.1281 103.561L-66.9092 103.939L-66.6979 104.32L-66.494 104.702L-66.2975 105.087L-66.1085 105.473L-65.927 105.862L-65.753 106.251L-65.5864 106.643L-65.4273 107.035L-65.2757 107.429L-65.1315 107.824L-64.9948 108.22L-64.8655 108.616L-64.7436 109.014L-64.6291 109.411L-64.522 109.81L-64.4222 110.208L-64.3297 110.607L-64.2446 111.005L-64.1667 111.404L-64.0961 111.802L-64.0326 112.2L-63.9764 112.598L-63.9272 112.994L-63.8852 113.39L-63.8502 113.786L-63.8222 114.18L-63.8012 114.573L-63.7871 114.965L-63.7799 115.356L-63.7795 115.745L-63.7859 116.133L-63.799 116.519L-63.8187 116.903L-63.8451 117.285L-63.878 117.666L-63.9173 118.044L-63.9631 118.42L-64.0153 118.794L-64.0737 119.165L-64.1384 119.534L-64.2092 119.9L-64.2861 120.264L-64.369 120.625L-64.4578 120.983L-64.5526 121.337L-64.6531 121.689L-64.7593 122.038L-64.8712 122.384L-64.9886 122.726L-65.1115 123.065L-65.2398 123.4L-65.3734 123.731L-65.5123 124.06L-65.6563 124.384L-65.8054 124.704L-65.9594 125.021L-66.1183 125.334L-66.2821 125.642L-66.4505 125.947L-66.6236 126.247L-66.8012 126.544L-66.9832 126.836L-67.1696 127.123L-67.3603 127.407L-67.5551 127.685L-67.754 127.96L-67.9568 128.23L-68.1635 128.495L-68.3741 128.755L-68.5883 129.011L-68.8061 129.262L-69.0274 129.508L-69.252 129.75L-69.48 129.986L-69.7112 130.218L-69.9455 130.445L-70.1828 130.666L-70.423 130.883L-70.666 131.095L-70.9118 131.302L-71.1601 131.503L-71.411 131.699L-71.6642 131.891L-71.9198 132.077L-72.1776 132.258L-72.4375 132.433L-72.6994 132.604L-72.9632 132.769L-73.2289 132.929L-73.4963 133.084L-73.7652 133.233L-74.0358 133.377L-74.3077 133.516L-74.581 133.65L-74.8555 133.778L-75.1311 133.901L-75.4078 134.019L-75.6854 134.132L-75.9639 134.239L-76.2431 134.341L-76.523 134.437L-76.8034 134.529L-77.0843 134.615L-77.3656 134.696L-77.6472 134.772L-77.9289 134.842L-78.2108 134.908L-78.4927 134.968L-78.7745 135.023L-79.0561 135.073L-79.3374 135.118L-79.6185 135.158L-79.8991 135.192L-80.1791 135.222L-80.4586 135.247L-80.7374 135.267L-81.0154 135.281L-81.2926 135.291L-81.5688 135.297L-81.844 135.297L-82.1181 135.292L-82.3911 135.283L-82.6628 135.269L-82.9331 135.25L-83.2021 135.227L-83.4696 135.199L-83.7355 135.167L-83.9998 135.13L-84.2624 135.089L-84.5233 135.043L-84.7823 134.993L-85.0394 134.939L-85.2945 134.88L-85.5476 134.817L-85.7986 134.75L-86.0474 134.679L-86.294 134.604L-86.5383 134.525L-86.7802 134.442L-87.0197 134.355L-87.2568 134.264L-87.4914 134.17L-87.7233 134.072L-87.9527 133.97L-88.1793 133.864L-88.4032 133.755" stroke="black"/>
 </g>
</svg>
