<?xml version="1.0" encoding="utf-8"?>
<svg xmlns="http://www.w3.org/2000/svg" fill="none" version="1.1" viewBox="-241.723 -379.425 483.447 758.85" x="-241.723pt" y="-379.425pt" width="483.447pt" height="758.85pt" stroke-width="0.566929" stroke-miterlimit="10.000000">
 <path d="M145.763 -351.496L240.723 -351.496L240.723 -378.425L145.763 -378.425Z" fill="black"/>
 <path d="M193.668 -357.165L194.235 -357.165"/>
 <g transform="matrix(1.000000,-0.000000,-0.000000,1.000000,193.951722,-357.165354)">
  <path d="M-40.4207 -0M-30.8333 -6.75664C-31.2672 -5.70286 -32.0317 -3.8019 -32.197 -3.07872L-32.2177 -3.07872C-32.4036 -3.82257 -33.2508 -5.86816 -33.6847 -6.96327L-36.3295 -13.4926C-36.6808 -14.3398 -37.342 -14.3398 -37.7139 -14.3398L-39.4289 -14.3398C-40.1727 -14.3398 -40.4207 -14.1125 -40.4207 -13.348L-40.4207 -0.991801C-40.4207 -0.24795 -40.1934 -0 -39.4289 -0L-38.871 -0C-38.0858 -0 -37.8792 -0.268613 -37.8792 -0.991801L-37.8792 -11.6743L-37.8585 -11.6743C-37.6313 -10.7445 -36.7014 -8.45097 -36.2055 -7.23188L-33.8087 -1.34306C-33.4368 -0.454575 -32.9409 -0.454575 -32.2383 -0.454575C-31.5358 -0.454575 -31.0399 -0.454575 -30.668 -1.34306L-28.0232 -7.8311C-27.8166 -8.327 -26.7008 -11.1371 -26.5561 -11.6743L-26.5355 -11.6743L-26.5355 -0.991801C-26.5355 -0.3306 -26.3908 -0 -25.5437 -0L-24.9858 -0C-24.2006 -0 -23.994 -0.268613 -23.994 -0.991801L-23.994 -13.348C-23.994 -14.0092 -24.1386 -14.3398 -24.9858 -14.3398L-26.7214 -14.3398C-27.238 -14.3398 -27.7546 -14.2985 -28.1058 -13.4513ZM-28.1058 -13.4513" fill="#fff"/>
 </g>
 <g transform="matrix(1.000000,-0.000000,-0.000000,1.000000,193.951722,-357.165354)">
  <path d="M-20.2172 -0M-10.6298 -6.75664C-11.0637 -5.70286 -11.8283 -3.8019 -11.9936 -3.07872L-12.0142 -3.07872C-12.2002 -3.82257 -13.0473 -5.86816 -13.4813 -6.96327L-16.1261 -13.4926C-16.4773 -14.3398 -17.1385 -14.3398 -17.5104 -14.3398L-19.2254 -14.3398C-19.9693 -14.3398 -20.2172 -14.1125 -20.2172 -13.348L-20.2172 -0.991801C-20.2172 -0.24795 -19.9899 -0 -19.2254 -0L-18.6675 -0C-17.8824 -0 -17.6757 -0.268613 -17.6757 -0.991801L-17.6757 -11.6743L-17.6551 -11.6743C-17.4278 -10.7445 -16.498 -8.45097 -16.0021 -7.23188L-13.6052 -1.34306C-13.2333 -0.454575 -12.7374 -0.454575 -12.0349 -0.454575C-11.3324 -0.454575 -10.8364 -0.454575 -10.4645 -1.34306L-7.81972 -7.8311C-7.6131 -8.327 -6.49732 -11.1371 -6.35268 -11.6743L-6.33202 -11.6743L-6.33202 -0.991801C-6.33202 -0.3306 -6.18738 -0 -5.34022 -0L-4.78233 -0C-3.99716 -0 -3.79053 -0.268613 -3.79053 -0.991801L-3.79053 -13.348C-3.79053 -14.0092 -3.93517 -14.3398 -4.78233 -14.3398L-6.51798 -14.3398C-7.03455 -14.3398 -7.55111 -14.2985 -7.90237 -13.4513ZM-7.90237 -13.4513" fill="#fff"/>
 </g>
 <g transform="matrix(1.000000,-0.000000,-0.000000,1.000000,193.951722,-357.165354)">
  <path d="M-1.02624 -0M7.89997 -13.4513C7.59003 -14.3398 6.99082 -14.3398 6.57757 -14.3398L4.75927 -14.3398C4.34602 -14.3398 3.7468 -14.3398 3.43686 -13.4513L-0.922928 -0.971138C-1.02624 -0.702526 -1.02624 -0.661201 -1.02624 -0.557888C-1.02624 -0 -0.509677 -0 -0.220402 -0L0.523449 -0C0.895374 -0 1.53591 -0 1.82519 -0.826501L2.63103 -3.12004L8.35454 -3.12004L9.05707 -1.13644C9.30502 -0.41325 9.44966 -0 10.4415 -0L11.5572 -0C11.8465 -0 12.3631 -0 12.3631 -0.557888C12.3631 -0.661201 12.3631 -0.702526 12.2598 -0.971138ZM12.2598 -0.971138M4.7386 -9.27747C5.04854 -10.1866 5.31715 -10.9718 5.48245 -11.7156L5.50312 -11.7156C5.60643 -11.2197 5.60643 -11.1784 5.77173 -10.7032L7.73467 -4.89702L3.2509 -4.89702ZM3.2509 -4.89702" fill="#fff"/>
 </g>
 <g transform="matrix(1.000000,-0.000000,-0.000000,1.000000,193.951722,-357.165354)">
  <path d="M13.8876 -0M25.8512 -2.95474C25.8512 -3.12004 25.7065 -3.20269 25.6239 -3.20269C25.128 -3.20269 24.5288 -1.85963 21.6154 -1.85963C17.9788 -1.85963 16.9456 -4.09118 16.9456 -7.19056C16.9456 -10.2693 18.0614 -12.5008 21.4501 -12.5008C23.289 -12.5008 24.2602 -11.7776 24.8181 -11.3231C24.942 -11.2197 25.004 -11.1371 25.1487 -11.1371C25.2313 -11.1371 25.3346 -11.2404 25.3553 -11.3231L25.7685 -13.6166C25.7892 -13.6993 25.7685 -13.7819 25.6032 -13.8439C24.3841 -14.2985 23.1237 -14.5877 21.512 -14.5877C16.4704 -14.5877 13.8876 -12.1289 13.8876 -7.21122C13.8876 -2.1489 16.5117 0.206625 21.5327 0.206625C23.289 0.206625 24.3841 -0.041325 25.8925 -0.971138C26.0578 -1.07445 26.0165 -1.21909 26.0165 -1.21909ZM26.0165 -1.21909" fill="#fff"/>
 </g>
 <g transform="matrix(1.000000,-0.000000,-0.000000,1.000000,193.951722,-357.165354)">
  <path d="M28.0162 -0M36.9424 -13.4513C36.6325 -14.3398 36.0333 -14.3398 35.62 -14.3398L33.8017 -14.3398C33.3885 -14.3398 32.7893 -14.3398 32.4793 -13.4513L28.1195 -0.971138C28.0162 -0.702526 28.0162 -0.661201 28.0162 -0.557888C28.0162 -0 28.5328 -0 28.8221 -0L29.5659 -0C29.9378 -0 30.5784 -0 30.8676 -0.826501L31.6735 -3.12004L37.397 -3.12004L38.0995 -1.13644C38.3475 -0.41325 38.4921 -0 39.4839 -0L40.5997 -0C40.889 -0 41.4055 -0 41.4055 -0.557888C41.4055 -0.661201 41.4055 -0.702526 41.3022 -0.971138ZM41.3022 -0.971138M33.7811 -9.27747C34.091 -10.1866 34.3596 -10.9718 34.5249 -11.7156L34.5456 -11.7156C34.6489 -11.2197 34.6489 -11.1784 34.8142 -10.7032L36.7771 -4.89702L32.2934 -4.89702ZM32.2934 -4.89702" fill="#fff"/>
 </g>
 <path d="M193.668 -331.654L194.235 -331.654"/>
 <g transform="matrix(1.000000,-0.000000,-0.000000,1.000000,193.951722,-331.653543)">
  <path d="M-24.2781 -0M-23.1447 -8.22037C-22.5278 -8.01952 -22.0257 -8.00518 -21.8679 -8.00518C-20.2468 -8.00518 -19.2139 -9.19591 -19.2139 -9.39676C-19.2139 -9.45414 -19.2426 -9.52587 -19.3286 -9.52587C-19.3573 -9.52587 -19.386 -9.52587 -19.5151 -9.46849C-20.3185 -9.12418 -21.0071 -9.08114 -21.3801 -9.08114C-22.327 -9.08114 -23.0013 -9.36807 -23.2738 -9.48284C-23.3743 -9.52587 -23.403 -9.52587 -23.4173 -9.52587C-23.5321 -9.52587 -23.5321 -9.4398 -23.5321 -9.21026L-23.5321 -4.94944C-23.5321 -4.69121 -23.5321 -4.60513 -23.3599 -4.60513C-23.2882 -4.60513 -23.2738 -4.61948 -23.1304 -4.79163C-22.7287 -5.37982 -22.0544 -5.72413 -21.3371 -5.72413C-20.5768 -5.72413 -20.2038 -5.02117 -20.089 -4.77728C-19.8451 -4.21778 -19.8308 -3.51482 -19.8308 -2.96966C-19.8308 -2.42451 -19.8308 -1.60677 -20.2325 -0.961195C-20.5481 -0.444732 -21.1076 -0.0860772 -21.7388 -0.0860772C-22.6857 -0.0860772 -23.6182 -0.731656 -23.8764 -1.77893C-23.8047 -1.75024 -23.7186 -1.73589 -23.6468 -1.73589C-23.403 -1.73589 -23.0156 -1.87935 -23.0156 -2.36712C-23.0156 -2.76882 -23.2882 -2.99835 -23.6468 -2.99835C-23.9051 -2.99835 -24.2781 -2.86924 -24.2781 -2.30974C-24.2781 -1.09031 -23.3025 0.30127 -21.7101 0.30127C-20.089 0.30127 -18.6687 -1.06162 -18.6687 -2.88359C-18.6687 -4.59078 -19.8164 -6.01106 -21.3228 -6.01106C-22.1405 -6.01106 -22.7717 -5.6524 -23.1447 -5.25071ZM-23.1447 -5.25071" fill="black"/>
 </g>
 <g transform="matrix(1.000000,-0.000000,-0.000000,1.000000,193.951722,-331.653543)">
  <path d="M-12.5004 -0M-7.10623 -10.2432C-7.0345 -10.4297 -7.0345 -10.4584 -7.0345 -10.4871C-7.0345 -10.6736 -7.17796 -10.7596 -7.29273 -10.7596C-7.47923 -10.7596 -7.52227 -10.6305 -7.594 -10.444L-12.4287 3.07009C-12.5004 3.25659 -12.5004 3.28528 -12.5004 3.31397C-12.5004 3.47178 -12.3856 3.58655 -12.2278 3.58655C-12.0413 3.58655 -11.9983 3.44309 -11.9409 3.28528ZM-11.9409 3.28528" fill="black"/>
 </g>
 <g transform="matrix(1.000000,-0.000000,-0.000000,1.000000,193.951722,-331.653543)">
  <path d="M-0.86618 -0M4.74318 -2.41016L4.42757 -2.41016C4.38453 -2.16628 4.26976 -1.37723 4.1263 -1.1477C4.02587 -1.01858 3.20814 -1.01858 2.77775 -1.01858L0.123708 -1.01858C0.511055 -1.34854 1.38617 -2.2667 1.75917 -2.61101C3.9398 -4.61948 4.74318 -5.36548 4.74318 -6.78575C4.74318 -8.43556 3.43768 -9.54022 1.77352 -9.54022C0.109362 -9.54022 -0.86618 -8.11995 -0.86618 -6.88617C-0.86618 -6.15452 -0.234947 -6.15452 -0.191908 -6.15452C0.109362 -6.15452 0.482363 -6.36971 0.482363 -6.82879C0.482363 -7.23048 0.209785 -7.50306 -0.191908 -7.50306C-0.321024 -7.50306 -0.349717 -7.50306 -0.392755 -7.48871C-0.120177 -8.46426 0.654517 -9.12418 1.58702 -9.12418C2.80645 -9.12418 3.55245 -8.1056 3.55245 -6.78575C3.55245 -5.56632 2.84949 -4.50471 2.03175 -3.58655L-0.86618 -0.344309L-0.86618 -0L4.37018 -0ZM4.37018 -0" fill="black"/>
 </g>
 <g transform="matrix(1.000000,-0.000000,-0.000000,1.000000,193.951722,-331.653543)">
  <path d="M6.22912 -0M12.2689 -8.90899L12.2689 -9.23895L8.81144 -9.23895C7.07555 -9.23895 7.04686 -9.42545 6.98947 -9.69803L6.67386 -9.69803L6.22912 -6.82879L6.54474 -6.82879C6.58778 -7.08702 6.7169 -7.97648 6.9034 -8.13429C7.01817 -8.22037 8.09413 -8.22037 8.29498 -8.22037L11.3364 -8.22037L9.81567 -6.03975C9.42833 -5.48025 7.97936 -3.12747 7.97936 -0.430386C7.97936 -0.272578 7.97936 0.30127 8.56755 0.30127C9.17009 0.30127 9.17009 -0.258232 9.17009 -0.444732L9.17009 -1.16204C9.17009 -3.29963 9.5144 -4.96378 10.1887 -5.92498ZM10.1887 -5.92498" fill="black"/>
 </g>
 <g transform="matrix(1.000000,-0.000000,-0.000000,1.000000,193.951722,-331.653543)">
  <path d="M13.0662 -0M18.9051 -4.59078C18.9051 -5.78152 18.8334 -6.94356 18.3169 -8.03387C17.7287 -9.2246 16.6958 -9.54022 15.9928 -9.54022C15.1607 -9.54022 14.1422 -9.12418 13.6114 -7.93345C13.2097 -7.02964 13.0662 -6.14017 13.0662 -4.59078C13.0662 -3.1992 13.1666 -2.15193 13.6831 -1.13335C14.2426 -0.0430386 15.2325 0.30127 15.9785 0.30127C17.2266 0.30127 17.9439 -0.444732 18.3599 -1.27681C18.8764 -2.35278 18.9051 -3.7587 18.9051 -4.59078ZM18.9051 -4.59078M15.9785 0.0143462C15.5194 0.0143462 14.5869 -0.243885 14.3143 -1.80762C14.1565 -2.66839 14.1565 -3.7587 14.1565 -4.76294C14.1565 -5.93933 14.1565 -7.00094 14.386 -7.84737C14.6299 -8.80856 15.3616 -9.2533 15.9785 -9.2533C16.5236 -9.2533 17.3557 -8.92333 17.6283 -7.68956C17.8148 -6.87183 17.8148 -5.73848 17.8148 -4.76294C17.8148 -3.80174 17.8148 -2.71143 17.657 -1.83631C17.3844 -0.258232 16.4806 0.0143462 15.9785 0.0143462ZM15.9785 0.0143462" fill="black"/>
 </g>
 <g transform="matrix(1.000000,-0.000000,-0.000000,1.000000,193.951722,-331.653543)">
  <path d="M20.0495 -5.20611M23.925 -7.69677C23.925 -8.76277 23.0383 -9.62952 21.9922 -9.62952C20.9163 -9.62952 20.0495 -8.74285 20.0495 -7.69677C20.0495 -6.64073 20.9163 -5.76402 21.9922 -5.76402C23.0383 -5.76402 23.925 -6.63077 23.925 -7.69677ZM23.925 -7.69677M21.9922 -6.16252C21.1255 -6.16252 20.448 -6.85991 20.448 -7.69677C20.448 -8.53363 21.1354 -9.23102 21.9922 -9.23102C22.8191 -9.23102 23.5265 -8.55356 23.5265 -7.69677C23.5265 -6.83998 22.8191 -6.16252 21.9922 -6.16252ZM21.9922 -6.16252" fill="black"/>
 </g>
 <g stroke-linecap="round" stroke-linejoin="round">
  <path d="M-89.7029 185.191L-240.723 -378.425" stroke="black"/>
 </g>
 <g stroke-linecap="butt" stroke-linejoin="round" stroke-dasharray="2.000000" stroke-dashoffset="0.000000">
  <path d="M-89.7029 185.191L-89.7029 -348.399" stroke="black"/>
 </g>
 <g stroke-linecap="round" stroke-linejoin="round">
  <path d="M-89.7029 185.191L36.588 -286.134" stroke="black"/>
 </g>
 <g stroke-linecap="butt" stroke-linejoin="round" stroke-dasharray="2.000000" stroke-dashoffset="0.000000">
  <path d="M-89.7029 185.191L133.405 -201.243" stroke="black"/>
 </g>
 <g stroke-linecap="round" stroke-linejoin="round">
  <path d="M-89.7029 185.191L198.832 -103.344" stroke="black"/>
 </g>
 <g stroke-linecap="butt" stroke-linejoin="round" stroke-dasharray="2.000000" stroke-dashoffset="0.000000">
  <path d="M-89.7029 185.191L233.453 -1.38329" stroke="black"/>
 </g>
 <g stroke-linecap="round" stroke-linejoin="round">
  <path d="M-89.7029 185.191L239.902 96.8734" stroke="black"/>
 </g>
 <g stroke-linecap="butt" stroke-linejoin="round" stroke-dasharray="2.000000" stroke-dashoffset="0.000000">
  <path d="M-89.7029 185.191L222.342 185.191" stroke="black"/>
 </g>
 <g stroke-linecap="round" stroke-linejoin="round">
  <path d="M-89.7029 185.191L185.929 259.046" stroke="black"/>
 </g>
 <g stroke-linecap="butt" stroke-linejoin="round" stroke-dasharray="2.000000" stroke-dashoffset="0.000000">
  <path d="M-89.7029 185.191L136.285 315.665" stroke="black"/>
 </g>
 <g stroke-linecap="round" stroke-linejoin="round">
  <path d="M-89.7029 185.191L79.0331 353.927" stroke="black"/>
 </g>
 <g stroke-linecap="butt" stroke-linejoin="round" stroke-dasharray="2.000000" stroke-dashoffset="0.000000">
  <path d="M-89.7029 185.191L19.4062 374.173" stroke="black"/>
 </g>
 <g stroke-linecap="round" stroke-linejoin="round">
  <path d="M-89.7029 185.191L-38.0547 377.945" stroke="black"/>
 </g>
 <g stroke-linecap="butt" stroke-linejoin="round" stroke-dasharray="2.000000" stroke-dashoffset="0.000000">
  <path d="M-89.7029 185.191L-89.7029 367.676" stroke="black"/>
 </g>
 <g stroke-linecap="round" stroke-linejoin="round">
  <path d="M-89.7029 185.191L-132.894 346.381" stroke="black"/>
 </g>
 <g stroke-linecap="butt" stroke-linejoin="round" stroke-dasharray="2.000000" stroke-dashoffset="0.000000">
  <path d="M-89.7029 185.191L-166.005 317.349" stroke="black"/>
 </g>
 <g stroke-linecap="round" stroke-linejoin="round">
  <path d="M-89.7029 185.191L-188.38 283.868" stroke="black"/>
 </g>
 <g stroke-linecap="butt" stroke-linejoin="round" stroke-dasharray="2.000000" stroke-dashoffset="0.000000">
  <path d="M-89.7029 185.191L-200.221 248.998" stroke="black"/>
 </g>
 <g stroke-linecap="round" stroke-linejoin="round">
  <path d="M-89.7029 185.191L-202.426 215.395" stroke="black"/>
 </g>
 <g stroke-linecap="butt" stroke-linejoin="round" stroke-dasharray="2.000000" stroke-dashoffset="0.000000">
  <path d="M-89.7029 185.191L-196.421 185.191" stroke="black"/>
 </g>
 <g stroke-linecap="round" stroke-linejoin="round">
  <path d="M-89.7029 185.191L-183.968 159.933" stroke="black"/>
 </g>
 <g stroke-linecap="butt" stroke-linejoin="round" stroke-dasharray="2.000000" stroke-dashoffset="0.000000">
  <path d="M-89.7029 185.191L-166.99 140.569" stroke="black"/>
 </g>
 <g stroke-linecap="round" stroke-linejoin="round">
  <path d="M-89.7029 185.191L-147.41 127.484" stroke="black"/>
 </g>
 <g stroke-linecap="butt" stroke-linejoin="round" stroke-dasharray="2.000000" stroke-dashoffset="0.000000">
  <path d="M-89.7029 185.191L-127.018 120.56" stroke="black"/>
 </g>
 <g stroke-linecap="round" stroke-linejoin="round">
  <path d="M-89.7029 185.191L-107.366 119.27" stroke="black"/>
 </g>
 <g stroke-linecap="round" stroke-linejoin="round" stroke-width="1.603518">
  <path d="M-240.723 -378.425L-230.025 -377.61L-219.406 -376.615L-208.869 -375.441L-198.416 -374.091L-188.051 -372.569L-177.775 -370.876L-167.591 -369.015L-157.502 -366.988L-147.509 -364.799L-137.615 -362.45L-127.822 -359.944L-118.133 -357.283L-108.548 -354.47L-99.0711 -351.508L-89.7029 -348.399L-80.4459 -345.147L-71.3016 -341.755L-62.2719 -338.224L-53.3586 -334.558L-44.5631 -330.76L-35.8872 -326.832L-27.3322 -322.778L-18.8997 -318.6L-10.5912 -314.302L-2.40777 -309.885L5.64911 -305.353L13.5783 -300.709L21.3785 -295.956L29.0488 -291.097L36.588 -286.134L43.9952 -281.07L51.2694 -275.909L58.4097 -270.653L65.4153 -265.305L72.2855 -259.869L79.0194 -254.346L85.6165 -248.74L92.0761 -243.054L98.3978 -237.29L104.581 -231.452L110.625 -225.542L116.53 -219.564L122.295 -213.519L127.92 -207.411L133.405 -201.243L138.749 -195.017L143.953 -188.737L149.016 -182.404L153.938 -176.022L158.72 -169.594L163.361 -163.122L167.862 -156.609L172.222 -150.057L176.441 -143.47L180.521 -136.85L184.461 -130.199L188.262 -123.521L191.924 -116.817L195.447 -110.09L198.832 -103.344L202.079 -96.5796L205.189 -89.8003L208.162 -83.0084L211 -76.2063L213.702 -69.3964L216.27 -62.5811L218.704 -55.7628L221.004 -48.9439L223.172 -42.1266L225.209 -35.3132L227.115 -28.506L228.892 -21.7073L230.54 -14.9191L232.06 -8.14374L233.453 -1.38329L234.72 5.36012L235.863 12.0844L236.882 18.7876L237.778 25.4675L238.553 32.1223L239.208 38.75L239.744 45.3487L240.162 51.9164L240.464 58.4514L240.651 64.9518L240.723 71.4158L240.683 77.8417L240.532 84.2277L240.271 90.5722L239.902 96.8734L239.425 103.13L238.843 109.34L238.156 115.502L237.367 121.615L236.477 127.676L235.487 133.686L234.398 139.641L233.213 145.542L231.933 151.385L230.559 157.171L229.094 162.898L227.537 168.565L225.892 174.17L224.16 179.712L222.342 185.191L220.441 190.604L218.457 195.952L216.392 201.232L214.248 206.445L212.027 211.589L209.73 216.662L207.359 221.665L204.916 226.597L202.402 231.456L199.819 236.241L197.169 240.953L194.453 245.59L191.673 250.152L188.832 254.637L185.929 259.046L182.968 263.378L179.95 267.632L176.876 271.808L173.749 275.904L170.569 279.922L167.34 283.86L164.061 287.718L160.736 291.496L157.366 295.193L153.951 298.809L150.495 302.343L146.999 305.796L143.464 309.168L139.892 312.457L136.285 315.665L132.644 318.79L128.971 321.833L125.268 324.794L121.536 327.673L117.777 330.469L113.992 333.183L110.183 335.815L106.351 338.365L102.499 340.833L98.6275 343.219L94.7382 345.523L90.8325 347.746L86.9121 349.887L82.9785 351.947L79.0331 353.927L75.0774 355.826L71.1128 357.644L67.1409 359.383L63.1629 361.043L59.1805 362.623L55.1949 364.125L51.2075 365.548L47.2198 366.893L43.233 368.161L39.2485 369.353L35.2677 370.467L31.2917 371.506L27.322 372.47L23.3597 373.359L19.4062 374.173L15.4626 374.914L11.5302 375.583L7.61021 376.179L3.70374 376.703L-0.188014 377.156L-4.06391 377.539L-7.92284 377.853L-11.7637 378.097L-15.5854 378.274L-19.3868 378.383L-23.167 378.425L-26.9248 378.402L-30.6594 378.313L-34.3697 378.161L-38.0547 377.945L-41.7135 377.666L-45.3452 377.325L-48.9488 376.924L-52.5235 376.463L-56.0684 375.942L-59.5827 375.363L-63.0655 374.726L-66.516 374.033L-69.9335 373.285L-73.3171 372.481L-76.6663 371.624L-79.9801 370.714L-83.2579 369.752L-86.4991 368.739L-89.7029 367.676L-92.8688 366.564L-95.9961 365.403L-99.0842 364.196L-102.133 362.942L-105.141 361.643L-108.108 360.3L-111.033 358.914L-113.917 357.485L-116.759 356.015L-119.557 354.504L-122.313 352.954L-125.025 351.366L-127.692 349.741L-130.315 348.079L-132.894 346.381L-135.427 344.65L-137.915 342.885L-140.357 341.087L-142.753 339.258L-145.102 337.399L-147.405 335.51L-149.661 333.593L-151.871 331.648L-154.032 329.677L-156.147 327.681L-158.214 325.659L-160.234 323.615L-162.205 321.548L-164.129 319.459L-166.005 317.349L-167.832 315.22L-169.612 313.072L-171.344 310.906L-173.027 308.724L-174.662 306.525L-176.25 304.312L-177.789 302.085L-179.28 299.844L-180.723 297.591L-182.118 295.327L-183.466 293.053L-184.766 290.769L-186.018 288.476L-187.223 286.175L-188.38 283.868L-189.491 281.555L-190.555 279.236L-191.571 276.914L-192.542 274.587L-193.466 272.258L-194.344 269.927L-195.176 267.596L-195.963 265.264L-196.705 262.932L-197.401 260.602L-198.053 258.274L-198.661 255.949L-199.224 253.627L-199.744 251.31L-200.221 248.998L-200.654 246.692L-201.045 244.392L-201.393 242.1L-201.7 239.815L-201.965 237.539L-202.189 235.273L-202.372 233.016L-202.515 230.77L-202.619 228.535L-202.682 226.312L-202.707 224.101L-202.693 221.904L-202.642 219.72L-202.553 217.55L-202.426 215.395L-202.263 213.255L-202.064 211.131L-201.829 209.024L-201.559 206.933L-201.255 204.86L-200.916 202.805L-200.544 200.768L-200.139 198.751L-199.701 196.752L-199.231 194.773L-198.73 192.815L-198.198 190.877L-197.635 188.96L-197.043 187.064L-196.421 185.191L-195.771 183.339L-195.092 181.51L-194.386 179.705L-193.653 177.922L-192.893 176.163L-192.108 174.428L-191.297 172.717L-190.461 171.03L-189.601 169.368L-188.718 167.732L-187.812 166.12L-186.883 164.534L-185.932 162.974L-184.96 161.44L-183.968 159.933L-182.955 158.451L-181.923 156.996L-180.872 155.568L-179.802 154.167L-178.715 152.793L-177.61 151.446L-176.489 150.127L-175.352 148.835L-174.199 147.571L-173.032 146.334L-171.85 145.125L-170.654 143.944L-169.445 142.791L-168.223 141.666L-166.99 140.569L-165.745 139.5L-164.488 138.46L-163.222 137.447L-161.946 136.462L-160.66 135.506L-159.366 134.578L-158.063 133.678L-156.753 132.806L-155.435 131.962L-154.111 131.146L-152.781 130.358L-151.445 129.598L-150.104 128.865L-148.759 128.161L-147.41 127.484L-146.057 126.834L-144.701 126.212L-143.343 125.618L-141.982 125.05L-140.62 124.51L-139.257 123.996L-137.894 123.509L-136.53 123.049L-135.166 122.616L-133.804 122.208L-132.442 121.827L-131.083 121.472L-129.725 121.142L-128.37 120.838L-127.018 120.56L-125.669 120.306L-124.324 120.078L-122.984 119.874L-121.648 119.694L-120.317 119.539L-118.991 119.408L-117.671 119.301L-116.358 119.218L-115.051 119.157L-113.751 119.12L-112.458 119.105L-111.173 119.113L-109.896 119.144L-108.627 119.196L-107.366 119.27L-106.115 119.365L-104.873 119.482L-103.641 119.619L-102.418 119.777L-101.206 119.955L-100.004 120.153L-98.8128 120.37L-97.6328 120.607L-96.464 120.863L-95.3068 121.138L-94.1614 121.431L-93.0281 121.743L-91.9071 122.072L-90.7986 122.418L-89.7029 122.782L-88.6202 123.162L-87.5507 123.559L-86.4946 123.972L-85.4521 124.401L-84.4234 124.845L-83.4086 125.304L-82.408 125.778L-81.4218 126.267L-80.45 126.77L-79.4928 127.286L-78.5505 127.816L-77.6231 128.36L-76.7108 128.915L-75.8137 129.484L-74.9319 130.064L-74.0655 130.657L-73.2147 131.26L-72.3796 131.875L-71.5602 132.5L-70.7567 133.136L-69.9691 133.782L-69.1975 134.438L-68.4419 135.103L-67.7026 135.777L-66.9794 136.46L-66.2724 137.151L-65.5818 137.85L-64.9075 138.557L-64.2496 139.272L-63.6081 139.993L-62.983 140.721L-62.3744 141.456L-61.7822 142.197L-61.2065 142.943L-60.6472 143.695L-60.1044 144.452L-59.578 145.214L-59.0681 145.98L-58.5745 146.75L-58.0973 147.525L-57.6365 148.302L-57.192 149.084L-56.7637 149.868L-56.3516 150.654L-55.9557 151.444L-55.5759 152.235L-55.2122 153.028L-54.8644 153.822L-54.5325 154.618L-54.2165 155.414L-53.9162 156.211L-53.6315 157.009L-53.3624 157.806L-53.1088 158.604L-52.8706 159.4L-52.6476 160.197L-52.4399 160.992L-52.2471 161.786L-52.0694 162.578L-51.9064 163.369L-51.7582 164.158L-51.6246 164.944L-51.5054 165.728L-51.4005 166.509L-51.3099 167.288L-51.2333 168.063L-51.1706 168.835L-51.1217 169.603L-51.0864 170.367L-51.0645 171.127L-51.0561 171.884L-51.0607 172.635L-51.0784 173.382L-51.1089 174.124L-51.1522 174.861L-51.2079 175.593L-51.276 176.319L-51.3563 177.04L-51.4486 177.755L-51.5527 178.464L-51.6685 179.167L-51.7958 179.863L-51.9344 180.553L-52.0842 181.237L-52.2448 181.914L-52.4163 182.583L-52.5983 183.246L-52.7907 183.902L-52.9933 184.55L-53.2059 185.191L-53.4283 185.824L-53.6604 186.449L-53.9019 187.067L-54.1526 187.677L-54.4124 188.278L-54.6811 188.872L-54.9584 189.457L-55.2441 190.034L-55.5382 190.602L-55.8403 191.162L-56.1502 191.713L-56.4679 192.255L-56.793 192.789L-57.1254 193.313L-57.4648 193.829L-57.8112 194.336L-58.1642 194.833L-58.5237 195.321L-58.8894 195.801L-59.2613 196.271L-59.6391 196.731L-60.0225 197.182L-60.4114 197.624L-60.8056 198.057L-61.205 198.48L-61.6092 198.893L-62.0181 199.297L-62.4316 199.691L-62.8493 200.076L-63.2712 200.451L-63.6971 200.817L-64.1267 201.173L-64.5598 201.519L-64.9963 201.856L-65.436 202.183L-65.8787 202.5L-66.3242 202.808L-66.7723 203.106L-67.2229 203.395L-67.6757 203.674L-68.1306 203.943L-68.5874 204.203L-69.0459 204.454L-69.506 204.695L-69.9675 204.926L-70.4301 205.148L-70.8938 205.361L-71.3584 205.564L-71.8236 205.758L-72.2894 205.943L-72.7556 206.119L-73.222 206.285L-73.6884 206.443L-74.1547 206.591L-74.6207 206.73L-75.0863 206.861L-75.5513 206.982L-76.0156 207.095L-76.4791 207.199L-76.9415 207.294L-77.4027 207.381L-77.8626 207.459L-78.3211 207.529L-78.778 207.59L-79.2332 207.643L-79.6865 207.688L-80.1379 207.725L-80.5871 207.753L-81.0341 207.774L-81.4787 207.787L-81.9209 207.792L-82.3604 207.789L-82.7972 207.778L-83.2311 207.761L-83.6621 207.735L-84.0901 207.703L-84.5148 207.663L-84.9363 207.616L-85.3544 207.562L-85.769 207.501L-86.1801 207.433L-86.5874 207.359L-86.991 207.278L-87.3907 207.19L-87.7865 207.096L-88.1782 206.996L-88.5658 206.89L-88.9491 206.777L-89.3282 206.659L-89.7029 206.534L-90.0732 206.404L-90.439 206.269L-90.8002 206.127L-91.1567 205.981L-91.5085 205.829L-91.8556 205.672L-92.1978 205.509L-92.5351 205.342L-92.8674 205.17L-93.1948 204.994L-93.517 204.812L-93.8342 204.627L-94.1462 204.437L-94.453 204.242L-94.7546 204.044L-95.0509 203.841L-95.3418 203.635L-95.6275 203.424L-95.9077 203.211L-96.1825 202.993L-96.4518 202.772L-96.7157 202.548L-96.9741 202.32L-97.227 202.09L-97.4743 201.856L-97.7161 201.62L-97.9523 201.381L-98.1829 201.139L-98.4079 200.895L-98.6273 200.648L-98.841 200.399L-99.0492 200.148L-99.2517 199.895L-99.4486 199.639L-99.6399 199.382L-99.8255 199.123L-100.006 198.863L-100.18 198.601L-100.349 198.337L-100.512 198.072L-100.67 197.806L-100.822 197.539L-100.968 197.271L-101.109 197.002L-101.244 196.732L-101.374 196.462L-101.499 196.19L-101.618 195.919L-101.731 195.647L-101.839 195.374L-101.942 195.102L-102.039 194.829L-102.131 194.556L-102.218 194.283L-102.299 194.011L-102.376 193.739L-102.447 193.467L-102.513 193.195L-102.573 192.924L-102.629 192.654L-102.68 192.384L-102.726 192.115L-102.766 191.847L-102.802 191.58L-102.833 191.313L-102.859 191.048L-102.881 190.784L-102.898 190.522L-102.91 190.26L-102.917 190L-102.92 189.742L-102.918 189.485L-102.912 189.229L-102.902 188.975" stroke="black"/>
 </g>
</svg>
