<?xml version="1.0" encoding="utf-8"?>
<svg xmlns="http://www.w3.org/2000/svg" fill="none" version="1.1" viewBox="-256.118 -312.572 512.236 625.144" x="-256.118pt" y="-312.572pt" width="512.236pt" height="625.144pt" stroke-width="0.566929" stroke-miterlimit="10.000000">
 <path d="M160.157 -284.643L255.118 -284.643L255.118 -311.572L160.157 -311.572Z" fill="black"/>
 <path d="M208.063 -290.312L208.63 -290.312"/>
 <g transform="matrix(1.000000,-0.000000,-0.000000,1.000000,208.346457,-290.312318)">
  <path d="M-40.4207 -0M-30.8333 -6.75664C-31.2672 -5.70286 -32.0317 -3.8019 -32.197 -3.07872L-32.2177 -3.07872C-32.4036 -3.82257 -33.2508 -5.86816 -33.6847 -6.96327L-36.3295 -13.4926C-36.6808 -14.3398 -37.342 -14.3398 -37.7139 -14.3398L-39.4289 -14.3398C-40.1727 -14.3398 -40.4207 -14.1125 -40.4207 -13.348L-40.4207 -0.991801C-40.4207 -0.24795 -40.1934 -0 -39.4289 -0L-38.871 -0C-38.0858 -0 -37.8792 -0.268613 -37.8792 -0.991801L-37.8792 -11.6743L-37.8585 -11.6743C-37.6313 -10.7445 -36.7014 -8.45097 -36.2055 -7.23188L-33.8087 -1.34306C-33.4368 -0.454575 -32.9409 -0.454575 -32.2383 -0.454575C-31.5358 -0.454575 -31.0399 -0.454575 -30.668 -1.34306L-28.0232 -7.8311C-27.8166 -8.327 -26.7008 -11.1371 -26.5561 -11.6743L-26.5355 -11.6743L-26.5355 -0.991801C-26.5355 -0.3306 -26.3908 -0 -25.5437 -0L-24.9858 -0C-24.2006 -0 -23.994 -0.268613 -23.994 -0.991801L-23.994 -13.348C-23.994 -14.0092 -24.1386 -14.3398 -24.9858 -14.3398L-26.7214 -14.3398C-27.238 -14.3398 -27.7546 -14.2985 -28.1058 -13.4513ZM-28.1058 -13.4513" fill="#fff"/>
 </g>
 <g transform="matrix(1.000000,-0.000000,-0.000000,1.000000,208.346457,-290.312318)">
  <path d="M-20.2172 -0M-10.6298 -6.75664C-11.0637 -5.70286 -11.8283 -3.8019 -11.9936 -3.07872L-12.0142 -3.07872C-12.2002 -3.82257 -13.0473 -5.86816 -13.4813 -6.96327L-16.1261 -13.4926C-16.4773 -14.3398 -17.1385 -14.3398 -17.5104 -14.3398L-19.2254 -14.3398C-19.9693 -14.3398 -20.2172 -14.1125 -20.2172 -13.348L-20.2172 -0.991801C-20.2172 -0.24795 -19.9899 -0 -19.2254 -0L-18.6675 -0C-17.8824 -0 -17.6757 -0.268613 -17.6757 -0.991801L-17.6757 -11.6743L-17.6551 -11.6743C-17.4278 -10.7445 -16.498 -8.45097 -16.0021 -7.23188L-13.6052 -1.34306C-13.2333 -0.454575 -12.7374 -0.454575 -12.0349 -0.454575C-11.3324 -0.454575 -10.8364 -0.454575 -10.4645 -1.34306L-7.81972 -7.8311C-7.6131 -8.327 -6.49732 -11.1371 -6.35268 -11.6743L-6.33202 -11.6743L-6.33202 -0.991801C-6.33202 -0.3306 -6.18738 -0 -5.34022 -0L-4.78233 -0C-3.99716 -0 -3.79053 -0.268613 -3.79053 -0.991801L-3.79053 -13.348C-3.79053 -14.0092 -3.93517 -14.3398 -4.78233 -14.3398L-6.51798 -14.3398C-7.03455 -14.3398 -7.55111 -14.2985 -7.90237 -13.4513ZM-7.90237 -13.4513" fill="#fff"/>
 </g>
 <g transform="matrix(1.000000,-0.000000,-0.000000,1.000000,208.346457,-290.312318)">
  <path d="M-1.02624 -0M7.89997 -13.4513C7.59003 -14.3398 6.99082 -14.3398 6.57757 -14.3398L4.75927 -14.3398C4.34602 -14.3398 3.7468 -14.3398 3.43686 -13.4513L-0.922928 -0.971138C-1.02624 -0.702526 -1.02624 -0.661201 -1.02624 -0.557888C-1.02624 -0 -0.509677 -0 -0.220402 -0L0.523449 -0C0.895374 -0 1.53591 -0 1.82519 -0.826501L2.63103 -3.12004L8.35454 -3.12004L9.05707 -1.13644C9.30502 -0.41325 9.44966 -0 10.4415 -0L11.5572 -0C11.8465 -0 12.3631 -0 12.3631 -0.557888C12.3631 -0.661201 12.3631 -0.702526 12.2598 -0.971138ZM12.2598 -0.971138M4.7386 -9.27747C5.04854 -10.1866 5.31715 -10.9718 5.48245 -11.7156L5.50312 -11.7156C5.60643 -11.2197 5.60643 -11.1784 5.77173 -10.7032L7.73467 -4.89702L3.2509 -4.89702ZM3.2509 -4.89702" fill="#fff"/>
 </g>
 <g transform="matrix(1.000000,-0.000000,-0.000000,1.000000,208.346457,-290.312318)">
  <path d="M13.8876 -0M25.8512 -2.95474C25.8512 -3.12004 25.7065 -3.20269 25.6239 -3.20269C25.128 -3.20269 24.5288 -1.85963 21.6154 -1.85963C17.9788 -1.85963 16.9456 -4.09118 16.9456 -7.19056C16.9456 -10.2693 18.0614 -12.5008 21.4501 -12.5008C23.289 -12.5008 24.2602 -11.7776 24.8181 -11.3231C24.942 -11.2197 25.004 -11.1371 25.1487 -11.1371C25.2313 -11.1371 25.3346 -11.2404 25.3553 -11.3231L25.7685 -13.6166C25.7892 -13.6993 25.7685 -13.7819 25.6032 -13.8439C24.3841 -14.2985 23.1237 -14.5877 21.512 -14.5877C16.4704 -14.5877 13.8876 -12.1289 13.8876 -7.21122C13.8876 -2.1489 16.5117 0.206625 21.5327 0.206625C23.289 0.206625 24.3841 -0.041325 25.8925 -0.971138C26.0578 -1.07445 26.0165 -1.21909 26.0165 -1.21909ZM26.0165 -1.21909" fill="#fff"/>
 </g>
 <g transform="matrix(1.000000,-0.000000,-0.000000,1.000000,208.346457,-290.312318)">
  <path d="M28.0162 -0M36.9424 -13.4513C36.6325 -14.3398 36.0333 -14.3398 35.62 -14.3398L33.8017 -14.3398C33.3885 -14.3398 32.7893 -14.3398 32.4793 -13.4513L28.1195 -0.971138C28.0162 -0.702526 28.0162 -0.661201 28.0162 -0.557888C28.0162 -0 28.5328 -0 28.8221 -0L29.5659 -0C29.9378 -0 30.5784 -0 30.8676 -0.826501L31.6735 -3.12004L37.397 -3.12004L38.0995 -1.13644C38.3475 -0.41325 38.4921 -0 39.4839 -0L40.5997 -0C40.889 -0 41.4055 -0 41.4055 -0.557888C41.4055 -0.661201 41.4055 -0.702526 41.3022 -0.971138ZM41.3022 -0.971138M33.7811 -9.27747C34.091 -10.1866 34.3596 -10.9718 34.5249 -11.7156L34.5456 -11.7156C34.6489 -11.2197 34.6489 -11.1784 34.8142 -10.7032L36.7771 -4.89702L32.2934 -4.89702ZM32.2934 -4.89702" fill="#fff"/>
 </g>
 <path d="M208.063 -264.801L208.63 -264.801"/>
 <g transform="matrix(1.000000,-0.000000,-0.000000,1.000000,208.346457,-264.800507)">
  <path d="M-24.0789 -0M-22.1565 -3.32832C-21.7692 -3.32832 -20.7937 -3.35701 -20.105 -3.61524C-19.0147 -4.03128 -18.9143 -4.86336 -18.9143 -5.12159C-18.9143 -5.75282 -19.4595 -6.32667 -20.4063 -6.32667C-21.9127 -6.32667 -24.0789 -4.96378 -24.0789 -2.41016C-24.0789 -0.90381 -23.2182 0.143462 -21.9127 0.143462C-19.9616 0.143462 -18.7278 -1.37723 -18.7278 -1.56374C-18.7278 -1.64981 -18.8139 -1.72154 -18.8713 -1.72154C-18.9143 -1.72154 -18.9287 -1.7072 -19.0578 -1.57808C-19.9759 -0.358655 -21.3388 -0.143462 -21.884 -0.143462C-22.7017 -0.143462 -23.1321 -0.789041 -23.1321 -1.85066C-23.1321 -2.05151 -23.1321 -2.41016 -22.9169 -3.32832ZM-22.9169 -3.32832M-22.8452 -3.61524C-22.2283 -5.82456 -20.8654 -6.03975 -20.4063 -6.03975C-19.7751 -6.03975 -19.3447 -5.66675 -19.3447 -5.12159C-19.3447 -3.61524 -21.6401 -3.61524 -22.2426 -3.61524ZM-22.2426 -3.61524" fill="black"/>
 </g>
 <g transform="matrix(1.000000,-0.000000,-0.000000,1.000000,208.346457,-264.800507)">
  <path d="M-12.7569 -0M-7.36276 -10.2432C-7.29103 -10.4297 -7.29103 -10.4584 -7.29103 -10.4871C-7.29103 -10.6736 -7.43449 -10.7596 -7.54926 -10.7596C-7.73576 -10.7596 -7.7788 -10.6305 -7.85053 -10.444L-12.6852 3.07009C-12.7569 3.25659 -12.7569 3.28528 -12.7569 3.31397C-12.7569 3.47178 -12.6422 3.58655 -12.4844 3.58655C-12.2979 3.58655 -12.2548 3.44309 -12.1974 3.28528ZM-12.1974 3.28528" fill="black"/>
 </g>
 <g transform="matrix(1.000000,-0.000000,-0.000000,1.000000,208.346457,-264.800507)">
  <path d="M-1.23748 -0M0.814027 -5.15028C0.570141 -5.13594 0.512757 -5.12159 0.512757 -4.99248C0.512757 -4.84901 0.584488 -4.84901 0.842719 -4.84901L1.50264 -4.84901C2.72207 -4.84901 3.26723 -3.84478 3.26723 -2.46755C3.26723 -0.588194 2.29168 -0.0860772 1.58872 -0.0860772C0.900104 -0.0860772 -0.276284 -0.41604 -0.692324 -1.36289C-0.233246 -1.29116 0.182794 -1.54939 0.182794 -2.06585C0.182794 -2.48189 -0.118476 -2.76882 -0.520169 -2.76882C-0.864478 -2.76882 -1.23748 -2.56797 -1.23748 -2.02281C-1.23748 -0.746002 0.0393322 0.30127 1.63176 0.30127C3.33896 0.30127 4.60142 -1.00423 4.60142 -2.4532C4.60142 -3.77305 3.5398 -4.80598 2.16257 -5.04986C3.41069 -5.40852 4.21408 -6.45579 4.21408 -7.57479C4.21408 -8.70814 3.03769 -9.54022 1.64611 -9.54022C0.211487 -9.54022 -0.850132 -8.6651 -0.850132 -7.61783C-0.850132 -7.04398 -0.4054 -6.92921 -0.190207 -6.92921C0.111063 -6.92921 0.455372 -7.14441 0.455372 -7.57479C0.455372 -8.03387 0.111063 -8.23472 -0.204553 -8.23472C-0.29063 -8.23472 -0.319323 -8.23472 -0.362361 -8.22037C0.182794 -9.19591 1.53134 -9.19591 1.60307 -9.19591C2.07649 -9.19591 3.00899 -8.98072 3.00899 -7.57479C3.00899 -7.30221 2.96596 -6.49883 2.54992 -5.88194C2.11953 -5.25071 1.63176 -5.20767 1.24441 -5.19332ZM1.24441 -5.19332" fill="black"/>
 </g>
 <g transform="matrix(1.000000,-0.000000,-0.000000,1.000000,208.346457,-264.800507)">
  <path d="M5.78609 -0M6.96248 -4.99248C6.96248 -8.62206 8.72706 -9.19591 9.50176 -9.19591C10.0182 -9.19591 10.5347 -9.0381 10.8073 -8.60772C10.6351 -8.60772 10.09 -8.60772 10.09 -8.01952C10.09 -7.70391 10.3051 -7.43133 10.6781 -7.43133C11.0368 -7.43133 11.2807 -7.64652 11.2807 -8.06256C11.2807 -8.80856 10.7355 -9.54022 9.48741 -9.54022C7.67979 -9.54022 5.78609 -7.68956 5.78609 -4.5334C5.78609 -0.588194 7.50764 0.30127 8.72706 0.30127C10.2908 0.30127 11.625 -1.06162 11.625 -2.92662C11.625 -4.83467 10.2908 -6.11148 8.85618 -6.11148C7.57937 -6.11148 7.10594 -5.00682 6.96248 -4.60513ZM6.96248 -4.60513M8.72706 -0.0860772C7.82325 -0.0860772 7.39287 -0.889464 7.26375 -1.19073C7.13464 -1.56374 6.99117 -2.2667 6.99117 -3.27093C6.99117 -4.40428 7.50764 -5.82456 8.79879 -5.82456C9.58784 -5.82456 10.0039 -5.29375 10.2191 -4.80598C10.4486 -4.27517 10.4486 -3.55786 10.4486 -2.94097C10.4486 -2.20931 10.4486 -1.56374 10.176 -1.01858C9.81737 -0.329963 9.30091 -0.0860772 8.72706 -0.0860772ZM8.72706 -0.0860772" fill="black"/>
 </g>
 <g transform="matrix(1.000000,-0.000000,-0.000000,1.000000,208.346457,-264.800507)">
  <path d="M12.8097 -0M18.6486 -4.59078C18.6486 -5.78152 18.5768 -6.94356 18.0604 -8.03387C17.4722 -9.2246 16.4393 -9.54022 15.7363 -9.54022C14.9042 -9.54022 13.8856 -9.12418 13.3548 -7.93345C12.9531 -7.02964 12.8097 -6.14017 12.8097 -4.59078C12.8097 -3.1992 12.9101 -2.15193 13.4266 -1.13335C13.9861 -0.0430386 14.9759 0.30127 15.7219 0.30127C16.9701 0.30127 17.6874 -0.444732 18.1034 -1.27681C18.6199 -2.35278 18.6486 -3.7587 18.6486 -4.59078ZM18.6486 -4.59078M15.7219 0.0143462C15.2629 0.0143462 14.3304 -0.243885 14.0578 -1.80762C13.9 -2.66839 13.9 -3.7587 13.9 -4.76294C13.9 -5.93933 13.9 -7.00094 14.1295 -7.84737C14.3734 -8.80856 15.1051 -9.2533 15.7219 -9.2533C16.2671 -9.2533 17.0992 -8.92333 17.3718 -7.68956C17.5583 -6.87183 17.5583 -5.73848 17.5583 -4.76294C17.5583 -3.80174 17.5583 -2.71143 17.4004 -1.83631C17.1279 -0.258232 16.2241 0.0143462 15.7219 0.0143462ZM15.7219 0.0143462" fill="black"/>
 </g>
 <g transform="matrix(1.000000,-0.000000,-0.000000,1.000000,208.346457,-264.800507)">
  <path d="M19.793 -5.20611M23.6685 -7.69677C23.6685 -8.76277 22.7818 -9.62952 21.7357 -9.62952C20.6597 -9.62952 19.793 -8.74285 19.793 -7.69677C19.793 -6.64073 20.6597 -5.76402 21.7357 -5.76402C22.7818 -5.76402 23.6685 -6.63077 23.6685 -7.69677ZM23.6685 -7.69677M21.7357 -6.16252C20.869 -6.16252 20.1915 -6.85991 20.1915 -7.69677C20.1915 -8.53363 20.8789 -9.23102 21.7357 -9.23102C22.5626 -9.23102 23.27 -8.55356 23.27 -7.69677C23.27 -6.83998 22.5626 -6.16252 21.7357 -6.16252ZM21.7357 -6.16252" fill="black"/>
 </g>
 <g stroke-linecap="round" stroke-linejoin="round">
  <path d="M-46.9647 76.3098L-255.118 -284.222" stroke="black"/>
 </g>
 <g stroke-linecap="butt" stroke-linejoin="round" stroke-dasharray="2.000000" stroke-dashoffset="0.000000">
  <path d="M-46.9647 76.3098L-150.316 -309.401" stroke="black"/>
 </g>
 <g stroke-linecap="round" stroke-linejoin="round">
  <path d="M-46.9647 76.3098L-46.9647 -306.711" stroke="black"/>
 </g>
 <g stroke-linecap="butt" stroke-linejoin="round" stroke-dasharray="2.000000" stroke-dashoffset="0.000000">
  <path d="M-46.9647 76.3098L48.1227 -278.561" stroke="black"/>
 </g>
 <g stroke-linecap="round" stroke-linejoin="round">
  <path d="M-46.9647 76.3098L129.233 -228.874" stroke="black"/>
 </g>
 <g stroke-linecap="butt" stroke-linejoin="round" stroke-dasharray="2.000000" stroke-dashoffset="0.000000">
  <path d="M-46.9647 76.3098L192.048 -162.703" stroke="black"/>
 </g>
 <g stroke-linecap="round" stroke-linejoin="round">
  <path d="M-46.9647 76.3098L233.818 -85.8002" stroke="black"/>
 </g>
 <g stroke-linecap="butt" stroke-linejoin="round" stroke-dasharray="2.000000" stroke-dashoffset="0.000000">
  <path d="M-46.9647 76.3098L253.427 -4.17991" stroke="black"/>
 </g>
 <g stroke-linecap="round" stroke-linejoin="round">
  <path d="M-46.9647 76.3098L251.332 76.3098" stroke="black"/>
 </g>
 <g stroke-linecap="butt" stroke-linejoin="round" stroke-dasharray="2.000000" stroke-dashoffset="0.000000">
  <path d="M-46.9647 76.3098L229.409 150.364" stroke="black"/>
 </g>
 <g stroke-linecap="round" stroke-linejoin="round">
  <path d="M-46.9647 76.3098L190.713 213.533" stroke="black"/>
 </g>
 <g stroke-linecap="butt" stroke-linejoin="round" stroke-dasharray="2.000000" stroke-dashoffset="0.000000">
  <path d="M-46.9647 76.3098L139.178 262.453" stroke="black"/>
 </g>
 <g stroke-linecap="round" stroke-linejoin="round">
  <path d="M-46.9647 76.3098L79.2867 294.984" stroke="black"/>
 </g>
 <g stroke-linecap="butt" stroke-linejoin="round" stroke-dasharray="2.000000" stroke-dashoffset="0.000000">
  <path d="M-46.9647 76.3098L15.7208 310.255" stroke="black"/>
 </g>
 <g stroke-linecap="round" stroke-linejoin="round">
  <path d="M-46.9647 76.3098L-46.9647 308.624" stroke="black"/>
 </g>
 <g stroke-linecap="butt" stroke-linejoin="round" stroke-dasharray="2.000000" stroke-dashoffset="0.000000">
  <path d="M-46.9647 76.3098L-104.638 291.55" stroke="black"/>
 </g>
 <g stroke-linecap="round" stroke-linejoin="round">
  <path d="M-46.9647 76.3098L-153.834 261.413" stroke="black"/>
 </g>
 <g stroke-linecap="butt" stroke-linejoin="round" stroke-dasharray="2.000000" stroke-dashoffset="0.000000">
  <path d="M-46.9647 76.3098L-191.933 221.278" stroke="black"/>
 </g>
 <g stroke-linecap="round" stroke-linejoin="round">
  <path d="M-46.9647 76.3098L-217.268 174.635" stroke="black"/>
 </g>
 <g stroke-linecap="butt" stroke-linejoin="round" stroke-dasharray="2.000000" stroke-dashoffset="0.000000">
  <path d="M-46.9647 76.3098L-229.162 125.129" stroke="black"/>
 </g>
 <g stroke-linecap="round" stroke-linejoin="round">
  <path d="M-46.9647 76.3098L-227.891 76.3098" stroke="black"/>
 </g>
 <g stroke-linecap="butt" stroke-linejoin="round" stroke-dasharray="2.000000" stroke-dashoffset="0.000000">
  <path d="M-46.9647 76.3098L-214.594 31.3937" stroke="black"/>
 </g>
 <g stroke-linecap="round" stroke-linejoin="round">
  <path d="M-46.9647 76.3098L-191.123 -6.92024" stroke="black"/>
 </g>
 <g stroke-linecap="butt" stroke-linejoin="round" stroke-dasharray="2.000000" stroke-dashoffset="0.000000">
  <path d="M-46.9647 76.3098L-159.866 -36.5917" stroke="black"/>
 </g>
 <g stroke-linecap="round" stroke-linejoin="round">
  <path d="M-46.9647 76.3098L-123.54 -56.3226" stroke="black"/>
 </g>
 <g stroke-linecap="round" stroke-linejoin="round" stroke-width="1.603518">
  <path d="M-255.118 -284.222L-248.234 -286.79L-241.326 -289.231L-234.396 -291.544L-227.445 -293.73L-220.477 -295.788L-213.493 -297.719L-206.496 -299.523L-199.489 -301.2L-192.472 -302.75L-185.449 -304.173L-178.422 -305.47L-171.393 -306.641L-164.364 -307.686L-157.338 -308.606L-150.316 -309.401L-143.3 -310.071L-136.294 -310.617L-129.298 -311.04L-122.316 -311.339L-115.349 -311.517L-108.399 -311.572L-101.469 -311.506L-94.5597 -311.32L-87.6741 -311.015L-80.814 -310.59L-73.9814 -310.047L-67.1782 -309.387L-60.4064 -308.61L-53.6679 -307.718L-46.9647 -306.711L-40.2986 -305.59L-33.6715 -304.357L-27.0853 -303.012L-20.5417 -301.556L-14.0427 -299.991L-7.58987 -298.317L-1.18507 -296.535L5.16998 -294.648L11.4736 -292.655L17.7241 -290.558L23.9198 -288.359L30.0591 -286.059L36.1404 -283.658L42.1621 -281.158L48.1227 -278.561L54.0207 -275.868L59.8545 -273.08L65.6228 -270.199L71.324 -267.225L76.9568 -264.162L82.5198 -261.009L88.0116 -257.768L93.431 -254.442L98.7766 -251.031L104.047 -247.536L109.242 -243.961L114.359 -240.305L119.397 -236.571L124.356 -232.76L129.233 -228.874L134.029 -224.915L138.742 -220.883L143.371 -216.782L147.915 -212.612L152.374 -208.375L156.745 -204.072L161.029 -199.707L165.224 -195.279L169.33 -190.792L173.346 -186.246L177.271 -181.643L181.104 -176.986L184.845 -172.276L188.493 -167.514L192.048 -162.703L195.508 -157.844L198.874 -152.938L202.145 -147.989L205.319 -142.997L208.398 -137.965L211.38 -132.894L214.265 -127.785L217.053 -122.642L219.743 -117.465L222.335 -112.256L224.829 -107.017L227.225 -101.751L229.521 -96.4578L231.719 -91.1403L233.818 -85.8002L235.818 -80.4392L237.719 -75.059L239.52 -69.6615L241.222 -64.2484L242.826 -58.8216L244.33 -53.3827L245.734 -47.9336L247.04 -42.4759L248.248 -37.0115L249.356 -31.5421L250.366 -26.0694L251.278 -20.5951L252.092 -15.1209L252.808 -9.64865L253.427 -4.17991L253.949 1.28361L254.374 6.74022L254.704 12.1883L254.937 17.6261L255.075 23.0521L255.118 28.4646L255.067 33.8621L254.922 39.2428L254.684 44.6053L254.353 49.9479L253.93 55.2692L253.416 60.5675L252.811 65.8414L252.116 71.0894L251.332 76.3098L250.459 81.5014L249.499 86.6626L248.451 91.7919L247.318 96.8881L246.098 101.95L244.795 106.975L243.407 111.963L241.937 116.912L240.385 121.822L238.753 126.689L237.04 131.515L235.248 136.296L233.378 141.032L231.432 145.722L229.409 150.364L227.312 154.957L225.14 159.501L222.896 163.993L220.581 168.433L218.195 172.82L215.739 177.152L213.216 181.429L210.625 185.65L207.968 189.813L205.247 193.918L202.462 197.963L199.615 201.949L196.707 205.872L193.739 209.734L190.713 213.533L187.629 217.268L184.49 220.939L181.295 224.544L178.048 228.083L174.748 231.555L171.397 234.959L167.997 238.295L164.549 241.563L161.054 244.76L157.514 247.888L153.929 250.944L150.302 253.93L146.634 256.843L142.925 259.685L139.178 262.453L135.394 265.148L131.574 267.769L127.72 270.316L123.832 272.789L119.913 275.187L115.963 277.509L111.985 279.756L107.979 281.927L103.947 284.022L99.8906 286.041L95.8107 287.983L91.709 289.849L87.5869 291.637L83.4456 293.349L79.2867 294.984L75.1116 296.541L70.9215 298.021L66.7179 299.424L62.5022 300.75L58.2758 301.999L54.04 303.17L49.7962 304.264L45.5457 305.281L41.2901 306.221L37.0305 307.085L32.7683 307.871L28.5049 308.581L24.2417 309.215L19.9798 309.773L15.7208 310.255L11.4658 310.662L7.21618 310.993L2.97323 311.249L-1.26176 311.431L-5.48753 311.539L-9.7028 311.572L-13.9063 311.532L-18.0969 311.419L-22.2732 311.234L-26.434 310.976L-30.5782 310.647L-34.7046 310.247L-38.8119 309.776L-42.899 309.234L-46.9647 308.624L-51.0079 307.944L-55.0274 307.196L-59.0222 306.38L-62.991 305.497L-66.9329 304.548L-70.8467 303.532L-74.7314 302.452L-78.586 301.307L-82.4093 300.098L-86.2004 298.827L-89.9583 297.493L-93.682 296.097L-97.3705 294.641L-101.023 293.125L-104.638 291.55L-108.215 289.916L-111.754 288.226L-115.252 286.478L-118.71 284.674L-122.127 282.816L-125.501 280.904L-128.832 278.938L-132.119 276.921L-135.361 274.852L-138.558 272.732L-141.709 270.564L-144.812 268.346L-147.868 266.082L-150.876 263.77L-153.834 261.413L-156.743 259.012L-159.602 256.567L-162.409 254.079L-165.165 251.55L-167.869 248.98L-170.521 246.37L-173.119 243.722L-175.664 241.037L-178.154 238.315L-180.59 235.558L-182.97 232.766L-185.295 229.942L-187.564 227.085L-189.777 224.196L-191.933 221.278L-194.032 218.331L-196.073 215.356L-198.057 212.354L-199.983 209.326L-201.85 206.274L-203.659 203.198L-205.409 200.1L-207.1 196.98L-208.731 193.84L-210.303 190.681L-211.816 187.503L-213.269 184.309L-214.662 181.099L-215.995 177.874L-217.268 174.635L-218.481 171.383L-219.634 168.12L-220.727 164.846L-221.759 161.563L-222.731 158.271L-223.644 154.972L-224.496 151.667L-225.288 148.357L-226.02 145.043L-226.692 141.725L-227.305 138.406L-227.858 135.086L-228.352 131.765L-228.786 128.446L-229.162 125.129L-229.478 121.816L-229.736 118.506L-229.936 115.202L-230.077 111.903L-230.161 108.612L-230.187 105.329L-230.156 102.056L-230.068 98.7921L-229.924 95.5396L-229.723 92.2991L-229.467 89.0716L-229.155 85.858L-228.788 82.6592L-228.367 79.4762L-227.891 76.3098L-227.362 73.161L-226.779 70.0306L-226.144 66.9195L-225.456 63.8285L-224.716 60.7586L-223.926 57.7105L-223.084 54.6851L-222.193 51.6832L-221.251 48.7055L-220.261 45.753L-219.222 42.8264L-218.135 39.9264L-217.001 37.0538L-215.821 34.2093L-214.594 31.3937L-213.322 28.6077L-212.005 25.852L-210.644 23.1273L-209.239 20.4342L-207.792 17.7735L-206.303 15.1457L-204.772 12.5515L-203.201 9.99161L-201.589 7.46652L-199.939 4.97685L-198.25 2.5232L-196.523 0.106121L-194.759 -2.27383L-192.959 -4.61612L-191.123 -6.92024L-189.253 -9.18566L-187.349 -11.4119L-185.411 -13.5985L-183.442 -15.745L-181.44 -17.8509L-179.408 -19.9158L-177.346 -21.9393L-175.254 -23.921L-173.135 -25.8605L-170.987 -27.7574L-168.813 -29.6114L-166.613 -31.4222L-164.388 -33.1893L-162.139 -34.9126L-159.866 -36.5917L-157.571 -38.2263L-155.254 -39.8161L-152.916 -41.361L-150.558 -42.8607L-148.181 -44.315L-145.785 -45.7236L-143.372 -47.0865L-140.943 -48.4033L-138.497 -49.674L-136.037 -50.8985L-133.562 -52.0765L-131.075 -53.208L-128.574 -54.2929L-126.063 -55.3311L-123.54 -56.3226L-121.008 -57.2672L-118.466 -58.1651L-115.917 -59.016L-113.36 -59.8201L-110.796 -60.5774L-108.227 -61.2878L-105.653 -61.9514L-103.075 -62.5683L-100.494 -63.1385L-97.9103 -63.6622L-95.3252 -64.1393L-92.7393 -64.57L-90.1535 -64.9545L-87.5686 -65.2928L-84.9854 -65.5852L-82.4046 -65.8318L-79.8271 -66.0327L-77.2536 -66.1882L-74.6849 -66.2984L-72.1219 -66.3636L-69.5652 -66.384L-67.0156 -66.3598L-64.4739 -66.2914L-61.9409 -66.1789L-59.4172 -66.0226L-56.9036 -65.8229L-54.4008 -65.58L-51.9096 -65.2943L-49.4307 -64.9661L-46.9647 -64.5956L-44.5124 -64.1834L-42.0744 -63.7296L-39.6515 -63.2348L-37.2442 -62.6992L-34.8534 -62.1233L-32.4795 -61.5075L-30.1233 -60.8522L-27.7854 -60.1578L-25.4665 -59.4247L-23.167 -58.6534L-20.8878 -57.8444L-18.6292 -56.998L-16.392 -56.1148L-14.1768 -55.1953L-11.984 -54.2399L-9.81425 -53.2491L-7.66811 -52.2235L-5.54609 -51.1635L-3.44872 -50.0697L-1.37653 -48.9426L0.669978 -47.7827L2.69031 -46.5906L4.68399 -45.3668L6.65054 -44.1119L8.58949 -42.8265L10.5004 -41.5111L12.3828 -40.1662L14.2363 -38.7925L16.0605 -37.3906L17.855 -35.9611L19.6193 -34.5045L21.3531 -33.0214L23.056 -31.5125L24.7277 -29.9784L26.3677 -28.4197L27.9759 -26.837L29.5518 -25.231L31.0951 -23.6022L32.6056 -21.9513L34.083 -20.279L35.5269 -18.5858L36.9371 -16.8725L38.3133 -15.1396L39.6554 -13.3879L40.9631 -11.6179L42.2361 -9.83038L43.4743 -8.0259L44.6775 -6.20515L45.8454 -4.36878L46.978 -2.51747L48.0751 -0.651855L49.1365 1.22739L50.162 3.11961L51.1516 5.02415L52.1052 6.94033L53.0227 8.8675L53.9039 10.805L54.7488 12.7522L55.5574 14.7084L56.3295 16.6729L57.0652 18.6451L57.7645 20.6244L58.4272 22.61L59.0534 24.6013L59.6432 26.5978L60.1965 28.5986L60.7133 30.6032L61.1937 32.611L61.6378 34.6212L62.0456 36.6333L62.4172 38.6466L62.7526 40.6605L63.0521 42.6743L63.3156 44.6875L63.5433 46.6993L63.7353 48.7092L63.8918 50.7166L64.0129 52.7208L64.0987 54.7213L64.1495 56.7174L64.1654 58.7086L64.1465 60.6942L64.0932 62.6736L64.0056 64.6464L63.8839 66.6118L63.7284 68.5694L63.5392 70.5186L63.3167 72.4587L63.0611 74.3893L62.7726 76.3098L62.4515 78.2197L62.0982 80.1184L61.7128 82.0054L61.2957 83.8801L60.8472 85.7422L60.3676 87.5909L59.8572 89.4259L59.3164 91.2467L58.7455 93.0527L58.1448 94.8435L57.5147 96.6186L56.8556 98.3775L56.1678 100.12L55.4516 101.845L54.7076 103.553L53.9359 105.243L53.1372 106.914L52.3117 108.567L51.4598 110.2L50.582 111.814L49.6787 113.408L48.7503 114.981L47.7972 116.534L46.8199 118.065L45.8188 119.575L44.7943 121.064L43.7469 122.53L42.6771 123.973L41.5853 125.394L40.472 126.791L39.3376 128.165L38.1826 129.516L37.0075 130.842L35.8127 132.144L34.5988 133.421L33.3662 134.674L32.1154 135.901L30.8469 137.103L29.5612 138.279L28.2588 139.43L26.9401 140.554L25.6058 141.653L24.2562 142.724L22.892 143.77L21.5135 144.788L20.1214 145.779L18.716 146.744L17.298 147.681L15.8679 148.59L14.4261 149.473L12.9731 150.327L11.5096 151.153L10.0359 151.952L8.55266 152.723L7.06033 153.466L5.55945 154.18L4.05052 154.866L2.53406 155.524L1.01059 156.154L-0.519388 156.755L-2.05535 157.328L-3.5968 157.873L-5.14321 158.389L-6.69408 158.877L-8.2489 159.336L-9.80716 159.767L-11.3684 160.17L-12.932 160.544L-14.4976 160.89L-16.0646 161.207L-17.6326 161.497L-19.201 161.758L-20.7693 161.991L-22.3372 162.196L-23.904 162.374L-25.4693 162.523L-27.0327 162.645L-28.5936 162.739L-30.1515 162.806L-31.7061 162.846L-33.2568 162.858L-34.8032 162.843L-36.3448 162.802L-37.8812 162.734L-39.4119 162.639L-40.9365 162.518L-42.4545 162.37L-43.9654 162.197L-45.469 161.998L-46.9647 161.773L-48.4521 161.523L-49.9308 161.248L-51.4004 160.948L-52.8605 160.623L-54.3106 160.274L-55.7504 159.9L-57.1795 159.503L-58.5975 159.082L-60.004 158.637L-61.3987 158.169L-62.7812 157.678L-64.151 157.165L-65.5079 156.629L-66.8516 156.072L-68.1816 155.492L-69.4976 154.891L-70.7993 154.269L-72.0863 153.626L-73.3585 152.963L-74.6153 152.279L-75.8566 151.576L-77.082 150.853L-78.2912 150.11L-79.484 149.349L-80.66 148.57L-81.819 147.772L-82.9608 146.956L-84.085 146.123L-85.1914 145.273L-86.2798 144.406L-87.3499 143.522L-88.4015 142.623L-89.4344 141.707L-90.4483 140.777L-91.4431 139.832L-92.4185 138.872L-93.3743 137.897L-94.3104 136.91L-95.2265 135.908L-96.1226 134.894L-96.9983 133.867L-97.8537 132.828L-98.6884 131.777L-99.5024 130.714L-100.296 129.641L-101.068 128.557L-101.819 127.462L-102.548 126.358L-103.257 125.244L-103.944 124.121L-104.609 122.989L-105.253 121.85L-105.875 120.702L-106.475 119.547L-107.054 118.385L-107.61 117.216L-108.145 116.041L-108.657 114.86L-109.147 113.673L-109.616 112.481L-110.062 111.285L-110.486 110.085L-110.888 108.88L-111.268 107.673L-111.626 106.462L-111.961 105.248L-112.275 104.032L-112.566 102.815L-112.835 101.595L-113.083 100.375L-113.308 99.1537L-113.512 97.9322L-113.693 96.7108L-113.853 95.4898L-113.991 94.2695L-114.108 93.0505L-114.203 91.8329L-114.276 90.6173L-114.328 89.4039L-114.359 88.1932L-114.368 86.9855L-114.357 85.7812L-114.325 84.5806L-114.272 83.3841L-114.198 82.192L-114.103 81.0046L-113.989 79.8224L-113.854 78.6457L-113.699 77.4747L-113.524 76.3098L-113.329 75.1514L-113.115 73.9998L-112.881 72.8553L-112.628 71.7182L-112.356 70.5888L-112.065 69.4675L-111.755 68.3545L-111.427 67.2502L-111.081 66.1548L-110.717 65.0686L-110.335 63.992L-109.935 62.9251L-109.518 61.8683L-109.083 60.8219L-108.632 59.7861L-108.164 58.7612L-107.68 57.7474L-107.179 56.7451L-106.662 55.7543L-106.13 54.7755L-105.582 53.8088L-105.019 52.8545L-104.441 51.9127L-103.848 50.9838L-103.241 50.0679L-102.619 49.1652L-101.984 48.2761L-101.335 47.4005L-100.673 46.5388L-99.9977 45.6912L-99.3097 44.8578L-98.6091 44.0388L-97.8964 43.2344L-97.1717 42.4448L-96.4354 41.67L-95.6878 40.9104L-94.9292 40.166L-94.1598 39.437L-93.38 38.7235L-92.59 38.0256L-91.7902 37.3436L-90.9809 36.6775L-90.1624 36.0274L-89.3349 35.3934L-88.4988 34.7757L-87.6544 34.1744L-86.8021 33.5895L-85.942 33.0211L-85.0746 32.4694L-84.2001 31.9344L-83.3188 31.4162L-82.4311 30.9149L-81.5373 30.4304L-80.6377 29.963L-79.7325 29.5125L-78.8222 29.0791L-77.907 28.6629L-76.9872 28.2638L-76.0632 27.8818L-75.1352 27.5171L-74.2036 27.1696L-73.2687 26.8393L-72.3307 26.5262L-71.3901 26.2304L-70.447 25.9518L-69.5019 25.6905L-68.555 25.4464L-67.6066 25.2194L-66.657 25.0096L-65.7065 24.817L-64.7555 24.6415L-63.8042 24.483L-62.853 24.3416L-61.902 24.2171L-60.9517 24.1096L-60.0023 24.0189L-59.0541 23.945L-58.1073 23.8878L-57.1624 23.8472L-56.2195 23.8232L-55.2789 23.8157L-54.341 23.8246L-53.406 23.8498L-52.4741 23.8912L-51.5457 23.9487L-50.621 24.0221L-49.7003 24.1115L-48.7838 24.2166L-47.8719 24.3373L-46.9647 24.4736L-46.0625 24.6253L-45.1657 24.7922L-44.2743 24.9742L-43.3887 25.1713L-42.5092 25.3831L-41.6359 25.6097L-40.7691 25.8507L-39.909 26.1062L-39.0559 26.3759L-38.21 26.6596L-37.3715 26.9573L-36.5407 27.2686L-35.7176 27.5935L-34.9027 27.9318L-34.096 28.2833L-33.2978 28.6478L-32.5083 29.0251L-31.7276 29.415L-30.9561 29.8174L-30.1937 30.232L-29.4409 30.6587L-28.6976 31.0973L-27.9642 31.5475L-27.2408 32.0091L-26.5275 32.482L-25.8245 32.966L-25.132 33.4607L-24.4501 33.966L-23.779 34.4818L-23.1189 35.0077L-22.4698 35.5435L-21.832 36.0891L-21.2055 36.6442L-20.5906 37.2086L-19.9872 37.782L-19.3956 38.3642L-18.8158 38.9551L-18.2481 39.5543L-17.6924 40.1616L-17.1489 40.7768L-16.6177 41.3997L-16.099 42.03L-15.5927 42.6675L-15.0989 43.3119L-14.6179 43.963L-14.1496 44.6206L-13.694 45.2845L-13.2514 45.9543L-12.8218 46.6298L-12.4051 47.3109L-12.0015 47.9972L-11.6111 48.6885L-11.2338 49.3847L-10.8697 50.0853L-10.5189 50.7902L-10.1814 51.4992L-9.85721 52.212L-9.54638 52.9283L-9.24893 53.6479L-8.96487 54.3706L-8.69422 55.0962L-8.43699 55.8243L-8.19318 56.5548L-7.9628 57.2873L-7.74585 58.0218L-7.54231 58.7579L-7.35218 59.4953L-7.17544 60.2339L-7.01207 60.9735L-6.86205 61.7137L-6.72535 62.4543L-6.60194 63.1952L-6.49178 63.936L-6.39485 64.6766L-6.31108 65.4167L-6.24044 66.1561L-6.18288 66.8946L-6.13834 67.6319L-6.10676 68.3679L-6.08808 69.1022L-6.08223 69.8347L-6.08915 70.5652L-6.10877 71.2934L-6.141 72.0191L-6.18576 72.7421L-6.24298 73.4623L-6.31257 74.1793L-6.39443 74.8931L-6.48847 75.6033L-6.5946 76.3098L-6.71271 77.0124L-6.84271 77.7109L-6.98449 78.4051L-7.13793 79.0948L-7.30292 79.7798L-7.47936 80.4599L-7.66711 81.135L-7.86606 81.8048L-8.07609 82.4692L-8.29707 83.128L-8.52887 83.781L-8.77135 84.4281L-9.02439 85.069L-9.28784 85.7037L-9.56156 86.332L-9.84542 86.9536L-10.1393 87.5685L-10.443 88.1765L-10.7563 88.7774L-11.0793 89.3711L-11.4116 89.9574L-11.7531 90.5362L-12.1037 91.1074L-12.4633 91.6709L-12.8316 92.2264L-13.2084 92.7739L-13.5937 93.3132L-13.9873 93.8442L-14.389 94.3669L-14.7985 94.881L-15.2159 95.3865L-15.6408 95.8832L-16.0731 96.3711L-16.5126 96.85L-16.9592 97.3199L-17.4126 97.7807L-17.8728 98.2322L-18.3394 98.6744L-18.8124 99.1071L-19.2915 99.5304L-19.7766 99.9441L-20.2675 100.348L-20.764 100.742L-21.2659 101.127L-21.773 101.502L-22.2851 101.866L-22.8021 102.221L-23.3238 102.566L-23.8499 102.9L-24.3803 103.225L-24.9148 103.539L-25.4532 103.843L-25.9953 104.137L-26.541 104.421L-27.09 104.694L-27.6421 104.957L-28.1972 105.209L-28.7551 105.451L-29.3156 105.683L-29.8784 105.904L-30.4435 106.115L-31.0105 106.315L-31.5794 106.505L-32.15 106.685L-32.7219 106.854L-33.2952 107.012L-33.8695 107.16L-34.4448 107.298L-35.0207 107.425L-35.5972 107.542L-36.174 107.648L-36.751 107.744L-37.328 107.83L-37.9047 107.906L-38.4811 107.971L-39.057 108.026L-39.6321 108.071L-40.2063 108.105L-40.7795 108.13L-41.3514 108.145L-41.9218 108.149L-42.4907 108.144L-43.0579 108.128L-43.6231 108.103L-44.1862 108.069L-44.747 108.024L-45.3055 107.97L-45.8613 107.906L-46.4145 107.833L-46.9647 107.75L-47.5119 107.658L-48.0559 107.557L-48.5965 107.446L-49.1336 107.327L-49.6671 107.198L-50.1968 107.061L-50.7225 106.915L-51.2442 106.76L-51.7616 106.596L-52.2747 106.424L-52.7832 106.244L-53.2872 106.055L-53.7864 105.858L-54.2807 105.653L-54.7699 105.439L-55.2541 105.218L-55.7329 104.99L-56.2064 104.753L-56.6744 104.509L-57.1368 104.257L-57.5934 103.999L-58.0442 103.733L-58.4891 103.46L-58.9279 103.18L-59.3605 102.893L-59.7869 102.599L-60.2069 102.299L-60.6205 101.993L-61.0275 101.68L-61.4279 101.361L-61.8216 101.036L-62.2084 100.705L-62.5884 100.368L-62.9614 100.026L-63.3274 99.6782L-63.6862 99.325L-64.0378 98.9667L-64.3822 98.6032L-64.7192 98.2349L-65.0489 97.8617L-65.371 97.4839L-65.6857 97.1016L-65.9928 96.715L-66.2923 96.3241L-66.584 95.9292L-66.8681 95.5303L-67.1444 95.1277L-67.4128 94.7214L-67.6734 94.3117L-67.9261 93.8986L-68.1709 93.4823L-68.4078 93.063L-68.6366 92.6408L-68.8574 92.2158L-69.0702 91.7883L-69.2749 91.3583L-69.4715 90.9259L-69.66 90.4915L-69.8405 90.055L-70.0128 89.6166L-70.1769 89.1766L-70.3329 88.7349L-70.4808 88.2919L-70.6205 87.8476L-70.7521 87.4021L-70.8756 86.9556L-70.9909 86.5084L-71.0981 86.0604L-71.1972 85.6118L-71.2882 85.1629L-71.3711 84.7136L-71.4459 84.2643L-71.5128 83.8149L-71.5715 83.3657L-71.6224 82.9168L-71.6652 82.4684L-71.7001 82.0205L-71.7271 81.5733L-71.7463 81.1269L-71.7576 80.6815L-71.7612 80.2372L-71.757 79.7942L-71.7451 79.3525L-71.7255 78.9123L-71.6984 78.4738L-71.6637 78.037L-71.6215 77.602L-71.5718 77.1691L-71.5148 76.7384L-71.4504 76.3098L-71.3788 75.8837L-71.2999 75.46L-71.2139 75.039L-71.1208 74.6207L-71.0208 74.2052L-70.9138 73.7927L-70.7999 73.3832L-70.6792 72.977L-70.5518 72.574L-70.4178 72.1744L-70.2772 71.7783L-70.1301 71.3859L-69.9767 70.9971L-69.8169 70.6122L-69.6508 70.2311L-69.4787 69.8541L-69.3004 69.4811L-69.1162 69.1124L-68.9262 68.7479L-68.7303 68.3878L-68.5287 68.0322L-68.3216 67.6811L-68.1089 67.3346L-67.8909 66.9929L-67.6675 66.656L-67.4389 66.3239L-67.2052 65.9968L-66.9665 65.6747L-66.7229 65.3577L-66.4745 65.0459L-66.2213 64.7393L-65.9636 64.438L-65.7014 64.1421L-65.4348 63.8516L-65.164 63.5666L-64.8889 63.2871L-64.6098 63.0133L-64.3268 62.7451L-64.0399 62.4826L-63.7493 62.2259L-63.4551 61.975L-63.1574 61.7299L-62.8562 61.4907L-62.5518 61.2575L-62.2442 61.0303L-61.9336 60.8091L-61.62 60.5939L-61.3036 60.3848L-60.9845 60.1819L-60.6628 59.985L-60.3386 59.7944L-60.0121 59.61L-59.6832 59.4317L-59.3523 59.2598L-59.0193 59.0941L-58.6844 58.9346L-58.3477 58.7815L-58.0094 58.6347L-57.6694 58.4942L-57.328 58.36L-56.9853 58.2321L-56.6414 58.1106L-56.2963 57.9955L-55.9503 57.8866L-55.6034 57.7842L-55.2557 57.688L-54.9073 57.5982L-54.5584 57.5147L-54.2091 57.4376L-53.8594 57.3667L-53.5096 57.3021L-53.1596 57.2438L-52.8097 57.1918L-52.4598 57.146L-52.1102 57.1064L-51.761 57.0731L-51.4121 57.0459L-51.0638 57.0248L-50.7162 57.0099L-50.3693 57.0011L-50.0233 56.9983L-49.6783 57.0016L-49.3343 57.0109L-48.9915 57.0261L-48.65 57.0472L-48.3098 57.0743L-47.9711 57.1071L-47.6339 57.1458L-47.2984 57.1902L-46.9647 57.2404L-46.6328 57.2961L-46.3029 57.3576L-45.975 57.4245L-45.6492 57.497L-45.3256 57.5749L-45.0043 57.6583L-44.6855 57.747L-44.3691 57.841L-44.0552 57.9402L-43.744 58.0445L-43.4356 58.154L-43.1299 58.2686L-42.8271 58.3881L-42.5273 58.5126L-42.2306 58.6419L-41.9369 58.7759L-41.6465 58.9147L-41.3593 59.0582L-41.0754 59.2062L-40.795 59.3588L-40.518 59.5157L-40.2446 59.6771L-39.9748 59.8427L-39.7087 60.0125L-39.4463 60.1865L-39.1876 60.3645L-38.9329 60.5465L-38.682 60.7324L-38.4352 60.9222L-38.1923 61.1156L-37.9535 61.3128L-37.7189 61.5135L-37.4884 61.7177L-37.2622 61.9253L-37.0402 62.1362L-36.8226 62.3504L-36.6093 62.5678L-36.4004 62.7882L-36.196 63.0116L-35.9961 63.238L-35.8007 63.4671L-35.6098 63.699L-35.4236 63.9335L-35.2419 64.1706L-35.065 64.4101L-34.8927 64.652L-34.7251 64.8962L-34.5623 65.1426L-34.4042 65.3912L-34.2509 65.6417L-34.1025 65.8942L-33.9588 66.1485L-33.82 66.4046L-33.6861 66.6624L-33.557 66.9217L-33.4329 67.1825L-33.3136 67.4447L-33.1993 67.7082L-33.0898 67.973L-32.9853 68.2389L-32.8858 68.5058L-32.7911 68.7736L-32.7015 69.0424L-32.6167 69.3119L-32.5369 69.582L-32.462 69.8528L-32.3921 70.1241L-32.327 70.3958L-32.2669 70.6679L-32.2118 70.9402L-32.1615 71.2127L-32.1161 71.4852L-32.0755 71.7578L-32.0399 72.0302L-32.0091 72.3025L-31.9831 72.5745L-31.9619 72.8462L-31.9455 73.1174L-31.9339 73.3881L-31.927 73.6583L-31.9249 73.9278L-31.9274 74.1965L-31.9346 74.4644L-31.9465 74.7314L-31.963 74.9974L-31.984 75.2623L-32.0096 75.5261L-32.0397 75.7886L-32.0743 76.0499L-32.1134 76.3098L-32.1568 76.5683L-32.2046 76.8253L-32.2568 77.0806L-32.3132 77.3344L-32.3739 77.5864L-32.4388 77.8366L-32.5079 78.0849L-32.5811 78.3313L-32.6584 78.5757L-32.7397 78.8181L-32.8249 79.0583L-32.9141 79.2964L-33.0072 79.5322L-33.1042 79.7657L-33.2049 79.9968L-33.3093 80.2255L-33.4174 80.4517L-33.5291 80.6753L-33.6444 80.8964L-33.7632 81.1148L-33.8854 81.3305L-34.0111 81.5434L-34.1401 81.7536L-34.2723 81.9608L-34.4078 82.1652L-34.5465 82.3666L-34.6882 82.565L-34.833 82.7604L-34.9808 82.9526" stroke="black"/>
 </g>
</svg>
