<?xml version="1.0" encoding="utf-8"?>
<svg xmlns="http://www.w3.org/2000/svg" fill="none" version="1.1" viewBox="-243.044 -379.425 486.088 758.85" x="-243.044pt" y="-379.425pt" width="486.088pt" height="758.85pt" stroke-width="0.566929" stroke-miterlimit="10.000000">
 <path d="M147.084 -351.496L242.044 -351.496L242.044 -378.425L147.084 -378.425Z" fill="black"/>
 <path d="M194.989 -357.165L195.556 -357.165"/>
 <g transform="matrix(1.000000,-0.000000,-0.000000,1.000000,195.272555,-357.165354)">
  <path d="M-40.4207 -0M-30.8333 -6.75664C-31.2672 -5.70286 -32.0317 -3.8019 -32.197 -3.07872L-32.2177 -3.07872C-32.4036 -3.82257 -33.2508 -5.86816 -33.6847 -6.96327L-36.3295 -13.4926C-36.6808 -14.3398 -37.342 -14.3398 -37.7139 -14.3398L-39.4289 -14.3398C-40.1727 -14.3398 -40.4207 -14.1125 -40.4207 -13.348L-40.4207 -0.991801C-40.4207 -0.24795 -40.1934 -0 -39.4289 -0L-38.871 -0C-38.0858 -0 -37.8792 -0.268613 -37.8792 -0.991801L-37.8792 -11.6743L-37.8585 -11.6743C-37.6313 -10.7445 -36.7014 -8.45097 -36.2055 -7.23188L-33.8087 -1.34306C-33.4368 -0.454575 -32.9409 -0.454575 -32.2383 -0.454575C-31.5358 -0.454575 -31.0399 -0.454575 -30.668 -1.34306L-28.0232 -7.8311C-27.8166 -8.327 -26.7008 -11.1371 -26.5561 -11.6743L-26.5355 -11.6743L-26.5355 -0.991801C-26.5355 -0.3306 -26.3908 -0 -25.5437 -0L-24.9858 -0C-24.2006 -0 -23.994 -0.268613 -23.994 -0.991801L-23.994 -13.348C-23.994 -14.0092 -24.1386 -14.3398 -24.9858 -14.3398L-26.7214 -14.3398C-27.238 -14.3398 -27.7546 -14.2985 -28.1058 -13.4513ZM-28.1058 -13.4513" fill="#fff"/>
 </g>
 <g transform="matrix(1.000000,-0.000000,-0.000000,1.000000,195.272555,-357.165354)">
  <path d="M-20.2172 -0M-10.6298 -6.75664C-11.0637 -5.70286 -11.8283 -3.8019 -11.9936 -3.07872L-12.0142 -3.07872C-12.2002 -3.82257 -13.0473 -5.86816 -13.4813 -6.96327L-16.1261 -13.4926C-16.4773 -14.3398 -17.1385 -14.3398 -17.5104 -14.3398L-19.2254 -14.3398C-19.9693 -14.3398 -20.2172 -14.1125 -20.2172 -13.348L-20.2172 -0.991801C-20.2172 -0.24795 -19.9899 -0 -19.2254 -0L-18.6675 -0C-17.8824 -0 -17.6757 -0.268613 -17.6757 -0.991801L-17.6757 -11.6743L-17.6551 -11.6743C-17.4278 -10.7445 -16.498 -8.45097 -16.0021 -7.23188L-13.6052 -1.34306C-13.2333 -0.454575 -12.7374 -0.454575 -12.0349 -0.454575C-11.3324 -0.454575 -10.8364 -0.454575 -10.4645 -1.34306L-7.81972 -7.8311C-7.6131 -8.327 -6.49732 -11.1371 -6.35268 -11.6743L-6.33202 -11.6743L-6.33202 -0.991801C-6.33202 -0.3306 -6.18738 -0 -5.34022 -0L-4.78233 -0C-3.99716 -0 -3.79053 -0.268613 -3.79053 -0.991801L-3.79053 -13.348C-3.79053 -14.0092 -3.93517 -14.3398 -4.78233 -14.3398L-6.51798 -14.3398C-7.03455 -14.3398 -7.55111 -14.2985 -7.90237 -13.4513ZM-7.90237 -13.4513" fill="#fff"/>
 </g>
 <g transform="matrix(1.000000,-0.000000,-0.000000,1.000000,195.272555,-357.165354)">
  <path d="M-1.02624 -0M7.89997 -13.4513C7.59003 -14.3398 6.99082 -14.3398 6.57757 -14.3398L4.75927 -14.3398C4.34602 -14.3398 3.7468 -14.3398 3.43686 -13.4513L-0.922928 -0.971138C-1.02624 -0.702526 -1.02624 -0.661201 -1.02624 -0.557888C-1.02624 -0 -0.509677 -0 -0.220402 -0L0.523449 -0C0.895374 -0 1.53591 -0 1.82519 -0.826501L2.63103 -3.12004L8.35454 -3.12004L9.05707 -1.13644C9.30502 -0.41325 9.44966 -0 10.4415 -0L11.5572 -0C11.8465 -0 12.3631 -0 12.3631 -0.557888C12.3631 -0.661201 12.3631 -0.702526 12.2598 -0.971138ZM12.2598 -0.971138M4.7386 -9.27747C5.04854 -10.1866 5.31715 -10.9718 5.48245 -11.7156L5.50312 -11.7156C5.60643 -11.2197 5.60643 -11.1784 5.77173 -10.7032L7.73467 -4.89702L3.2509 -4.89702ZM3.2509 -4.89702" fill="#fff"/>
 </g>
 <g transform="matrix(1.000000,-0.000000,-0.000000,1.000000,195.272555,-357.165354)">
  <path d="M13.8876 -0M25.8512 -2.95474C25.8512 -3.12004 25.7065 -3.20269 25.6239 -3.20269C25.128 -3.20269 24.5288 -1.85963 21.6154 -1.85963C17.9788 -1.85963 16.9456 -4.09118 16.9456 -7.19056C16.9456 -10.2693 18.0614 -12.5008 21.4501 -12.5008C23.289 -12.5008 24.2602 -11.7776 24.8181 -11.3231C24.942 -11.2197 25.004 -11.1371 25.1487 -11.1371C25.2313 -11.1371 25.3346 -11.2404 25.3553 -11.3231L25.7685 -13.6166C25.7892 -13.6993 25.7685 -13.7819 25.6032 -13.8439C24.3841 -14.2985 23.1237 -14.5877 21.512 -14.5877C16.4704 -14.5877 13.8876 -12.1289 13.8876 -7.21122C13.8876 -2.1489 16.5117 0.206625 21.5327 0.206625C23.289 0.206625 24.3841 -0.041325 25.8925 -0.971138C26.0578 -1.07445 26.0165 -1.21909 26.0165 -1.21909ZM26.0165 -1.21909" fill="#fff"/>
 </g>
 <g transform="matrix(1.000000,-0.000000,-0.000000,1.000000,195.272555,-357.165354)">
  <path d="M28.0162 -0M36.9424 -13.4513C36.6325 -14.3398 36.0333 -14.3398 35.62 -14.3398L33.8017 -14.3398C33.3885 -14.3398 32.7893 -14.3398 32.4793 -13.4513L28.1195 -0.971138C28.0162 -0.702526 28.0162 -0.661201 28.0162 -0.557888C28.0162 -0 28.5328 -0 28.8221 -0L29.5659 -0C29.9378 -0 30.5784 -0 30.8676 -0.826501L31.6735 -3.12004L37.397 -3.12004L38.0995 -1.13644C38.3475 -0.41325 38.4921 -0 39.4839 -0L40.5997 -0C40.889 -0 41.4055 -0 41.4055 -0.557888C41.4055 -0.661201 41.4055 -0.702526 41.3022 -0.971138ZM41.3022 -0.971138M33.7811 -9.27747C34.091 -10.1866 34.3596 -10.9718 34.5249 -11.7156L34.5456 -11.7156C34.6489 -11.2197 34.6489 -11.1784 34.8142 -10.7032L36.7771 -4.89702L32.2934 -4.89702ZM32.2934 -4.89702" fill="#fff"/>
 </g>
 <path d="M194.989 -331.654L195.556 -331.654"/>
 <g transform="matrix(1.000000,-0.000000,-0.000000,1.000000,195.272555,-331.653543)">
  <path d="M-24.0789 -0M-22.1565 -3.32832C-21.7692 -3.32832 -20.7937 -3.35701 -20.105 -3.61524C-19.0147 -4.03128 -18.9143 -4.86336 -18.9143 -5.12159C-18.9143 -5.75282 -19.4595 -6.32667 -20.4063 -6.32667C-21.9127 -6.32667 -24.0789 -4.96378 -24.0789 -2.41016C-24.0789 -0.90381 -23.2182 0.143462 -21.9127 0.143462C-19.9616 0.143462 -18.7278 -1.37723 -18.7278 -1.56374C-18.7278 -1.64981 -18.8139 -1.72154 -18.8713 -1.72154C-18.9143 -1.72154 -18.9287 -1.7072 -19.0578 -1.57808C-19.9759 -0.358655 -21.3388 -0.143462 -21.884 -0.143462C-22.7017 -0.143462 -23.1321 -0.789041 -23.1321 -1.85066C-23.1321 -2.05151 -23.1321 -2.41016 -22.9169 -3.32832ZM-22.9169 -3.32832M-22.8452 -3.61524C-22.2283 -5.82456 -20.8654 -6.03975 -20.4063 -6.03975C-19.7751 -6.03975 -19.3447 -5.66675 -19.3447 -5.12159C-19.3447 -3.61524 -21.6401 -3.61524 -22.2426 -3.61524ZM-22.2426 -3.61524" fill="black"/>
 </g>
 <g transform="matrix(1.000000,-0.000000,-0.000000,1.000000,195.272555,-331.653543)">
  <path d="M-12.7569 -0M-7.36276 -10.2432C-7.29103 -10.4297 -7.29103 -10.4584 -7.29103 -10.4871C-7.29103 -10.6736 -7.43449 -10.7596 -7.54926 -10.7596C-7.73576 -10.7596 -7.7788 -10.6305 -7.85053 -10.444L-12.6852 3.07009C-12.7569 3.25659 -12.7569 3.28528 -12.7569 3.31397C-12.7569 3.47178 -12.6422 3.58655 -12.4844 3.58655C-12.2979 3.58655 -12.2548 3.44309 -12.1974 3.28528ZM-12.1974 3.28528" fill="black"/>
 </g>
 <g transform="matrix(1.000000,-0.000000,-0.000000,1.000000,195.272555,-331.653543)">
  <path d="M-0.520169 -0M2.30603 -9.19591C2.30603 -9.52587 2.30603 -9.54022 2.01911 -9.54022C1.6748 -9.15287 0.957489 -8.62206 -0.520169 -8.62206L-0.520169 -8.20602C-0.190207 -8.20602 0.527103 -8.20602 1.31614 -8.57903L1.31614 -1.10466C1.31614 -0.588194 1.27311 -0.41604 0.0106398 -0.41604L-0.434092 -0.41604L-0.434092 -0C-0.046745 -0.0286924 1.34484 -0.0286924 1.81826 -0.0286924C2.29168 -0.0286924 3.66892 -0.0286924 4.05627 -0L4.05627 -0.41604L3.61153 -0.41604C2.34907 -0.41604 2.30603 -0.588194 2.30603 -1.10466ZM2.30603 -1.10466" fill="black"/>
 </g>
 <g transform="matrix(1.000000,-0.000000,-0.000000,1.000000,195.272555,-331.653543)">
  <path d="M5.78609 -0M9.47307 -5.17898C10.1904 -5.56632 11.2376 -6.22625 11.2376 -7.43133C11.2376 -8.67945 10.0326 -9.54022 8.71272 -9.54022C7.29244 -9.54022 6.17344 -8.49295 6.17344 -7.18744C6.17344 -6.69967 6.3169 -6.2119 6.7186 -5.72413C6.8764 -5.53763 6.89075 -5.52329 7.89498 -4.82032C6.5034 -4.17474 5.78609 -3.21355 5.78609 -2.16628C5.78609 -0.645579 7.23506 0.30127 8.69837 0.30127C10.2908 0.30127 11.625 -0.875118 11.625 -2.38147C11.625 -3.84478 10.5921 -4.49036 9.47307 -5.17898ZM9.47307 -5.17898M7.52198 -6.47013C7.33548 -6.59925 6.76164 -6.97225 6.76164 -7.67521C6.76164 -8.60772 7.73718 -9.19591 8.69837 -9.19591C9.7313 -9.19591 10.6495 -8.44991 10.6495 -7.41698C10.6495 -6.54187 10.0182 -5.8389 9.18614 -5.37982ZM9.18614 -5.37982M8.19625 -4.61948L9.93214 -3.48613C10.3051 -3.24224 10.9651 -2.79751 10.9651 -1.92239C10.9651 -0.832079 9.86041 -0.0860772 8.71272 -0.0860772C7.49329 -0.0860772 6.44602 -0.975541 6.44602 -2.16628C6.44602 -3.28528 7.26375 -4.18909 8.19625 -4.61948ZM8.19625 -4.61948" fill="black"/>
 </g>
 <g transform="matrix(1.000000,-0.000000,-0.000000,1.000000,195.272555,-331.653543)">
  <path d="M12.8097 -0M18.6486 -4.59078C18.6486 -5.78152 18.5768 -6.94356 18.0604 -8.03387C17.4722 -9.2246 16.4393 -9.54022 15.7363 -9.54022C14.9042 -9.54022 13.8856 -9.12418 13.3548 -7.93345C12.9531 -7.02964 12.8097 -6.14017 12.8097 -4.59078C12.8097 -3.1992 12.9101 -2.15193 13.4266 -1.13335C13.9861 -0.0430386 14.9759 0.30127 15.7219 0.30127C16.9701 0.30127 17.6874 -0.444732 18.1034 -1.27681C18.6199 -2.35278 18.6486 -3.7587 18.6486 -4.59078ZM18.6486 -4.59078M15.7219 0.0143462C15.2629 0.0143462 14.3304 -0.243885 14.0578 -1.80762C13.9 -2.66839 13.9 -3.7587 13.9 -4.76294C13.9 -5.93933 13.9 -7.00094 14.1295 -7.84737C14.3734 -8.80856 15.1051 -9.2533 15.7219 -9.2533C16.2671 -9.2533 17.0992 -8.92333 17.3718 -7.68956C17.5583 -6.87183 17.5583 -5.73848 17.5583 -4.76294C17.5583 -3.80174 17.5583 -2.71143 17.4004 -1.83631C17.1279 -0.258232 16.2241 0.0143462 15.7219 0.0143462ZM15.7219 0.0143462" fill="black"/>
 </g>
 <g transform="matrix(1.000000,-0.000000,-0.000000,1.000000,195.272555,-331.653543)">
  <path d="M19.793 -5.20611M23.6685 -7.69677C23.6685 -8.76277 22.7818 -9.62952 21.7357 -9.62952C20.6597 -9.62952 19.793 -8.74285 19.793 -7.69677C19.793 -6.64073 20.6597 -5.76402 21.7357 -5.76402C22.7818 -5.76402 23.6685 -6.63077 23.6685 -7.69677ZM23.6685 -7.69677M21.7357 -6.16252C20.869 -6.16252 20.1915 -6.85991 20.1915 -7.69677C20.1915 -8.53363 20.8789 -9.23102 21.7357 -9.23102C22.5626 -9.23102 23.27 -8.55356 23.27 -7.69677C23.27 -6.83998 22.5626 -6.16252 21.7357 -6.16252ZM21.7357 -6.16252" fill="black"/>
 </g>
 <g stroke-linecap="round" stroke-linejoin="round">
  <path d="M-93.8334 174.705L-242.044 -378.425" stroke="black"/>
 </g>
 <g stroke-linecap="butt" stroke-linejoin="round" stroke-dasharray="2.000000" stroke-dashoffset="0.000000">
  <path d="M-93.8334 174.705L-93.8334 -352.152" stroke="black"/>
 </g>
 <g stroke-linecap="round" stroke-linejoin="round">
  <path d="M-93.8334 174.705L31.6244 -293.51" stroke="black"/>
 </g>
 <g stroke-linecap="butt" stroke-linejoin="round" stroke-dasharray="2.000000" stroke-dashoffset="0.000000">
  <path d="M-93.8334 174.705L129.154 -211.52" stroke="black"/>
 </g>
 <g stroke-linecap="round" stroke-linejoin="round">
  <path d="M-93.8334 174.705L196.304 -115.432" stroke="black"/>
 </g>
 <g stroke-linecap="butt" stroke-linejoin="round" stroke-dasharray="2.000000" stroke-dashoffset="0.000000">
  <path d="M-93.8334 174.705L233.099 -14.0495" stroke="black"/>
 </g>
 <g stroke-linecap="round" stroke-linejoin="round">
  <path d="M-93.8334 174.705L241.657 84.8107" stroke="black"/>
 </g>
 <g stroke-linecap="butt" stroke-linejoin="round" stroke-dasharray="2.000000" stroke-dashoffset="0.000000">
  <path d="M-93.8334 174.705L225.721 174.705" stroke="black"/>
 </g>
 <g stroke-linecap="round" stroke-linejoin="round">
  <path d="M-93.8334 174.705L190.153 250.799" stroke="black"/>
 </g>
 <g stroke-linecap="butt" stroke-linejoin="round" stroke-dasharray="2.000000" stroke-dashoffset="0.000000">
  <path d="M-93.8334 174.705L140.424 309.954" stroke="black"/>
 </g>
 <g stroke-linecap="round" stroke-linejoin="round">
  <path d="M-93.8334 174.705L82.1439 350.682" stroke="black"/>
 </g>
 <g stroke-linecap="butt" stroke-linejoin="round" stroke-dasharray="2.000000" stroke-dashoffset="0.000000">
  <path d="M-93.8334 174.705L20.6521 373" stroke="black"/>
 </g>
 <g stroke-linecap="round" stroke-linejoin="round">
  <path d="M-93.8334 174.705L-39.3097 378.19" stroke="black"/>
 </g>
 <g stroke-linecap="butt" stroke-linejoin="round" stroke-dasharray="2.000000" stroke-dashoffset="0.000000">
  <path d="M-93.8334 174.705L-93.8334 368.525" stroke="black"/>
 </g>
 <g stroke-linecap="round" stroke-linejoin="round">
  <path d="M-93.8334 174.705L-139.987 346.952" stroke="black"/>
 </g>
 <g stroke-linecap="butt" stroke-linejoin="round" stroke-dasharray="2.000000" stroke-dashoffset="0.000000">
  <path d="M-93.8334 174.705L-175.866 316.789" stroke="black"/>
 </g>
 <g stroke-linecap="round" stroke-linejoin="round">
  <path d="M-93.8334 174.705L-200.569 281.441" stroke="black"/>
 </g>
 <g stroke-linecap="butt" stroke-linejoin="round" stroke-dasharray="2.000000" stroke-dashoffset="0.000000">
  <path d="M-93.8334 174.705L-214.105 244.144" stroke="black"/>
 </g>
 <g stroke-linecap="round" stroke-linejoin="round">
  <path d="M-93.8334 174.705L-217.253 207.775" stroke="black"/>
 </g>
 <g stroke-linecap="butt" stroke-linejoin="round" stroke-dasharray="2.000000" stroke-dashoffset="0.000000">
  <path d="M-93.8334 174.705L-211.391 174.705" stroke="black"/>
 </g>
 <g stroke-linecap="round" stroke-linejoin="round">
  <path d="M-93.8334 174.705L-198.306 146.712" stroke="black"/>
 </g>
 <g stroke-linecap="butt" stroke-linejoin="round" stroke-dasharray="2.000000" stroke-dashoffset="0.000000">
  <path d="M-93.8334 174.705L-180.012 124.95" stroke="black"/>
 </g>
 <g stroke-linecap="round" stroke-linejoin="round">
  <path d="M-93.8334 174.705L-158.572 109.967" stroke="black"/>
 </g>
 <g stroke-linecap="butt" stroke-linejoin="round" stroke-dasharray="2.000000" stroke-dashoffset="0.000000">
  <path d="M-93.8334 174.705L-135.95 101.757" stroke="black"/>
 </g>
 <g stroke-linecap="round" stroke-linejoin="round">
  <path d="M-93.8334 174.705L-113.892 99.8471" stroke="black"/>
 </g>
 <g stroke-linecap="round" stroke-linejoin="round" stroke-width="1.603518">
  <path d="M-242.044 -378.425L-231.601 -377.849L-221.227 -377.095L-210.925 -376.166L-200.697 -375.063L-190.548 -373.788L-180.478 -372.345L-170.49 -370.735L-160.587 -368.961L-150.772 -367.025L-141.045 -364.93L-131.411 -362.678L-121.87 -360.272L-112.426 -357.714L-103.08 -355.006L-93.8334 -352.152L-84.6894 -349.153L-75.6495 -346.013L-66.7156 -342.733L-57.8894 -339.318L-49.1728 -335.768L-40.5673 -332.088L-32.0747 -328.279L-23.6966 -324.344L-15.4344 -320.286L-7.28972 -316.108L0.736125 -311.813L8.64174 -307.402L16.4258 -302.88L24.0871 -298.248L31.6244 -293.51L39.0365 -288.667L46.3224 -283.724L53.4811 -278.682L60.5115 -273.545L67.4127 -268.315L74.1839 -262.995L80.8242 -257.588L87.3329 -252.096L93.7092 -246.522L99.9525 -240.87L106.062 -235.141L112.038 -229.339L117.878 -223.467L123.584 -217.526L129.154 -211.52L134.588 -205.452L139.886 -199.324L145.047 -193.138L150.072 -186.899L154.959 -180.608L159.71 -174.267L164.324 -167.881L168.8 -161.45L173.14 -154.979L177.342 -148.469L181.407 -141.923L185.336 -135.344L189.128 -128.734L192.784 -122.096L196.304 -115.432L199.688 -108.745L202.937 -102.038L206.051 -95.3121L209.031 -88.5706L211.876 -81.8157L214.588 -75.0499L217.168 -68.2755L219.615 -61.4949L221.93 -54.7104L224.114 -47.9244L226.169 -41.139L228.094 -34.3567L229.89 -27.5795L231.558 -20.8097L233.099 -14.0495L234.514 -7.30104L235.804 -0.566424L236.97 6.15226L238.013 12.8529L238.933 19.5336L239.732 26.1921L240.411 32.8267L240.971 39.4353L241.413 46.0159L241.739 52.5668L241.949 59.0861L242.044 65.5719L242.027 72.0224L241.897 78.436L241.657 84.8107L241.308 91.1451L240.851 97.4373L240.287 103.686L239.618 109.889L238.845 116.045L237.969 122.153L236.993 128.211L235.917 134.217L234.743 140.17L233.472 146.07L232.106 151.913L230.647 157.7L229.095 163.428L227.453 169.097L225.721 174.705L223.903 180.251L221.998 185.734L220.009 191.153L217.937 196.506L215.784 201.793L213.552 207.013L211.242 212.164L208.855 217.245L206.394 222.257L203.86 227.197L201.255 232.064L198.58 236.859L195.837 241.581L193.027 246.228L190.153 250.799L187.216 255.295L184.218 259.714L181.16 264.056L178.044 268.32L174.872 272.506L171.645 276.613L168.365 280.64L165.034 284.588L161.654 288.455L158.226 292.242L154.751 295.948L151.232 299.572L147.67 303.115L144.067 306.575L140.424 309.954L136.743 313.25L133.027 316.463L129.275 319.593L125.491 322.641L121.675 325.606L117.829 328.487L113.955 331.285L110.055 334L106.13 336.632L102.182 339.181L98.2114 341.647L94.2209 344.03L90.2119 346.33L86.1857 348.548L82.1439 350.682L78.0881 352.735L74.0198 354.706L69.9404 356.594L65.8514 358.401L61.7544 360.127L57.6507 361.772L53.5418 363.337L49.4292 364.821L45.3142 366.225L41.1982 367.55L37.0827 368.796L32.969 369.964L28.8584 371.053L24.7524 372.065L20.6521 373L16.559 373.858L12.4742 374.641L8.39911 375.348L4.33495 375.98L0.282942 376.538L-3.75569 377.023L-7.77975 377.435L-11.7881 377.774L-15.7794 378.043L-19.7528 378.24L-23.7069 378.367L-27.6407 378.425L-31.5532 378.415L-35.4432 378.336L-39.3097 378.19L-43.1516 377.979L-46.968 377.701L-50.7579 377.359L-54.5203 376.953L-58.2542 376.485L-61.9587 375.954L-65.633 375.361L-69.276 374.709L-72.887 373.997L-76.4651 373.226L-80.0094 372.397L-83.5192 371.512L-86.9936 370.571L-90.4319 369.575L-93.8334 368.525L-97.1973 367.422L-100.523 366.266L-103.809 365.06L-107.056 363.804L-110.263 362.498L-113.429 361.144L-116.553 359.743L-119.635 358.295L-122.675 356.802L-125.671 355.265L-128.624 353.685L-131.532 352.063L-134.395 350.399L-137.214 348.695L-139.987 346.952L-142.713 345.17L-145.394 343.352L-148.027 341.497L-150.614 339.607L-153.153 337.683L-155.643 335.726L-158.086 333.737L-160.481 331.716L-162.826 329.666L-165.123 327.587L-167.371 325.479L-169.569 323.345L-171.718 321.184L-173.817 318.999L-175.866 316.789L-177.865 314.557L-179.814 312.303L-181.713 310.027L-183.561 307.732L-185.359 305.417L-187.107 303.085L-188.804 300.735L-190.451 298.37L-192.047 295.989L-193.593 293.594L-195.089 291.186L-196.534 288.766L-197.929 286.334L-199.274 283.892L-200.569 281.441L-201.814 278.981L-203.009 276.513L-204.155 274.039L-205.251 271.559L-206.298 269.074L-207.295 266.585L-208.244 264.093L-209.144 261.598L-209.996 259.102L-210.8 256.606L-211.556 254.11L-212.264 251.615L-212.924 249.121L-213.538 246.631L-214.105 244.144L-214.626 241.661L-215.1 239.184L-215.529 236.712L-215.913 234.247L-216.251 231.79L-216.545 229.34L-216.795 226.899L-217.001 224.468L-217.164 222.047L-217.284 219.637L-217.361 217.239L-217.396 214.853L-217.389 212.48L-217.342 210.121L-217.253 207.775L-217.125 205.445L-216.957 203.13L-216.749 200.832L-216.503 198.55L-216.219 196.285L-215.897 194.038L-215.538 191.81L-215.142 189.6L-214.71 187.41L-214.242 185.24L-213.74 183.09L-213.203 180.961L-212.632 178.854L-212.028 176.768L-211.391 174.705L-210.722 172.665L-210.021 170.648L-209.289 168.654L-208.527 166.685L-207.735 164.74L-206.914 162.82L-206.064 160.925L-205.186 159.056L-204.281 157.212L-203.349 155.395L-202.39 153.604L-201.406 151.84L-200.397 150.103L-199.364 148.394L-198.306 146.712L-197.226 145.058L-196.123 143.432L-194.998 141.835L-193.851 140.266L-192.685 138.726L-191.497 137.215L-190.291 135.734L-189.066 134.281L-187.822 132.859L-186.561 131.466L-185.283 130.102L-183.988 128.769L-182.678 127.466L-181.352 126.193L-180.012 124.95L-178.658 123.737L-177.29 122.555L-175.91 121.404L-174.518 120.283L-173.114 119.192L-171.7 118.132L-170.275 117.103L-168.84 116.104L-167.396 115.135L-165.943 114.198L-164.483 113.291L-163.015 112.414L-161.54 111.568L-160.059 110.752L-158.572 109.967L-157.08 109.212L-155.583 108.487L-154.082 107.792L-152.578 107.127L-151.071 106.492L-149.561 105.887L-148.05 105.311L-146.537 104.765L-145.023 104.249L-143.509 103.761L-141.995 103.303L-140.481 102.874L-138.969 102.473L-137.459 102.101L-135.95 101.757L-134.444 101.441L-132.942 101.153L-131.443 100.893L-129.947 100.66L-128.457 100.455L-126.971 100.277L-125.491 100.125L-124.016 100L-122.548 99.9015L-121.086 99.8289L-119.631 99.782L-118.184 99.7607L-116.745 99.7646L-115.314 99.7935L-113.892 99.8471L-112.478 99.925L-111.074 100.027L-109.68 100.153L-108.296 100.302L-106.922 100.475L-105.559 100.67L-104.208 100.888L-102.868 101.128L-101.539 101.39L-100.223 101.673L-98.9189 101.978L-97.6278 102.304L-96.3496 102.65L-95.0847 103.017L-93.8334 103.403L-92.5959 103.809L-91.3725 104.234L-90.1634 104.677L-88.9689 105.14L-87.7892 105.62L-86.6246 106.118L-85.4753 106.634L-84.3414 107.166L-83.2232 107.715L-82.121 108.281L-81.0348 108.862L-79.9649 109.459L-78.9114 110.071L-77.8746 110.698L-76.8545 111.339L-75.8514 111.995L-74.8654 112.664L-73.8965 113.346L-72.9451 114.041L-72.0111 114.749L-71.0947 115.469L-70.196 116.201L-69.3152 116.944L-68.4523 117.698L-67.6073 118.463L-66.7805 119.238L-65.9718 120.024L-65.1813 120.818L-64.4092 121.622L-63.6553 122.435L-62.9199 123.256L-62.2029 124.086L-61.5044 124.923L-60.8244 125.767L-60.1629 126.619L-59.52 127.477L-58.8956 128.341L-58.2898 129.211L-57.7025 130.087L-57.1338 130.968L-56.5836 131.854L-56.0519 132.745L-55.5387 133.639L-55.0439 134.537L-54.5675 135.439L-54.1095 136.344L-53.6699 137.252L-53.2484 138.162L-52.8452 139.075L-52.4601 139.989L-52.093 140.904L-51.744 141.821L-51.4128 142.739L-51.0995 143.657L-50.8038 144.576L-50.5258 145.494L-50.2653 146.412L-50.0222 147.329L-49.7964 148.245L-49.5879 149.16L-49.3963 150.073L-49.2217 150.985L-49.064 151.894L-48.9229 152.801L-48.7983 153.705L-48.6902 154.606L-48.5983 155.504L-48.5225 156.398L-48.4627 157.289L-48.4186 158.176L-48.3902 159.058L-48.3773 159.936L-48.3797 160.809L-48.3972 161.677L-48.4297 162.539L-48.477 163.397L-48.5388 164.248L-48.6151 165.094L-48.7057 165.933L-48.8103 166.766L-48.9288 167.593L-49.0609 168.413L-49.2065 169.226L-49.3654 170.031L-49.5374 170.83L-49.7223 171.621L-49.9198 172.404L-50.1298 173.179L-50.352 173.946L-50.5864 174.705L-50.8325 175.456L-51.0903 176.198L-51.3595 176.931L-51.6398 177.656L-51.9312 178.371L-52.2333 179.077L-52.546 179.775L-52.8689 180.462L-53.202 181.141L-53.545 181.809L-53.8976 182.468L-54.2596 183.117L-54.6308 183.756L-55.011 184.385L-55.4 185.003L-55.7975 185.612L-56.2032 186.21L-56.6171 186.797L-57.0388 187.375L-57.4681 187.941L-57.9048 188.497L-58.3486 189.042L-58.7994 189.576L-59.2569 190.1L-59.7209 190.612L-60.1911 191.114L-60.6674 191.604L-61.1494 192.083L-61.6371 192.552L-62.1301 193.009L-62.6282 193.455L-63.1312 193.89L-63.6389 194.314L-64.1511 194.726L-64.6675 195.127L-65.188 195.517L-65.7122 195.896L-66.2401 196.263L-66.7713 196.62L-67.3056 196.965L-67.8429 197.298L-68.383 197.621L-68.9256 197.932L-69.4705 198.232L-70.0174 198.521L-70.5663 198.799L-71.1169 199.066L-71.669 199.321L-72.2224 199.566L-72.7769 199.799L-73.3322 200.022L-73.8883 200.234L-74.4449 200.435L-75.0018 200.625L-75.5588 200.804L-76.1158 200.973L-76.6725 201.131L-77.2288 201.278L-77.7845 201.415L-78.3395 201.541L-78.8934 201.658L-79.4462 201.763L-79.9977 201.859L-80.5477 201.945L-81.0961 202.02L-81.6427 202.086L-82.1873 202.142L-82.7298 202.188L-83.2699 202.224L-83.8077 202.251L-84.3428 202.268L-84.8752 202.276L-85.4047 202.274L-85.9311 202.264L-86.4544 202.244L-86.9744 202.215L-87.4908 202.178L-88.0038 202.131L-88.5129 202.076L-89.0183 202.013L-89.5196 201.941L-90.0169 201.861L-90.5099 201.773L-90.9986 201.676L-91.4828 201.572L-91.9625 201.46L-92.4375 201.34L-92.9077 201.213L-93.373 201.078L-93.8334 200.936L-94.2886 200.786L-94.7387 200.63L-95.1835 200.467L-95.6229 200.297L-96.0569 200.12L-96.4853 199.937L-96.9082 199.747L-97.3253 199.551L-97.7366 199.349L-98.1421 199.141L-98.5417 198.927L-98.9353 198.708L-99.3229 198.483L-99.7043 198.252L-100.08 198.016L-100.449 197.775L-100.811 197.529L-101.168 197.278L-101.518 197.022L-101.861 196.762L-102.198 196.497L-102.529 196.228L-102.853 195.954L-103.171 195.677L-103.481 195.395L-103.786 195.11L-104.083 194.821L-104.374 194.529L-104.658 194.233L-104.935 193.934L-105.206 193.632L-105.47 193.327L-105.727 193.019L-105.977 192.708L-106.22 192.395L-106.457 192.079L-106.686 191.761L-106.909 191.441L-107.125 191.119L-107.334 190.795L-107.537 190.469L-107.732 190.142L-107.921 189.812L-108.103 189.482L-108.278 189.15L-108.447 188.817L-108.609 188.483L-108.764 188.149L-108.912 187.813L-109.054 187.477L-109.189 187.14L-109.317 186.802L-109.439 186.465L-109.554 186.127L-109.663 185.789L-109.765 185.451L-109.861 185.114L-109.951 184.776L-110.034 184.439L-110.11 184.103L-110.181 183.767L-110.245 183.431L-110.303 183.097L-110.355 182.763L-110.401 182.431L-110.441 182.099L-110.474 181.769L-110.502 181.44L-110.524 181.112L-110.541 180.786L-110.551 180.461L-110.556 180.139L-110.555 179.817L-110.548 179.498L-110.536 179.181L-110.519 178.865L-110.496 178.552L-110.468 178.241L-110.435 177.932L-110.396 177.626L-110.353 177.322L-110.304 177.02L-110.251 176.721L-110.192 176.425L-110.129 176.131L-110.061 175.84L-109.988 175.552L-109.911 175.267L-109.829 174.984L-109.743 174.705L-109.653 174.429L-109.558 174.156L-109.459 173.886L-109.356 173.62L-109.248 173.357L-109.137 173.097L-109.022 172.84L-108.903 172.587L-108.781 172.338L-108.655 172.092L-108.525 171.849L-108.392 171.611L-108.255 171.376L-108.115 171.144" stroke="black"/>
 </g>
</svg>
