<?xml version="1.0" encoding="utf-8"?>
<svg xmlns="http://www.w3.org/2000/svg" fill="none" version="1.1" viewBox="-256.118 -287.36 512.236 574.721" x="-256.118pt" y="-287.36pt" width="512.236pt" height="574.721pt" stroke-width="0.566929" stroke-miterlimit="10.000000">
 <path d="M160.157 -259.431L255.118 -259.431L255.118 -286.36L160.157 -286.36Z" fill="black"/>
 <path d="M208.063 -265.101L208.63 -265.101"/>
 <g transform="matrix(1.000000,-0.000000,-0.000000,1.000000,208.346457,-265.100554)">
  <path d="M-40.4207 -0M-30.8333 -6.75664C-31.2672 -5.70286 -32.0317 -3.8019 -32.197 -3.07872L-32.2177 -3.07872C-32.4036 -3.82257 -33.2508 -5.86816 -33.6847 -6.96327L-36.3295 -13.4926C-36.6808 -14.3398 -37.342 -14.3398 -37.7139 -14.3398L-39.4289 -14.3398C-40.1727 -14.3398 -40.4207 -14.1125 -40.4207 -13.348L-40.4207 -0.991801C-40.4207 -0.24795 -40.1934 -0 -39.4289 -0L-38.871 -0C-38.0858 -0 -37.8792 -0.268613 -37.8792 -0.991801L-37.8792 -11.6743L-37.8585 -11.6743C-37.6313 -10.7445 -36.7014 -8.45097 -36.2055 -7.23188L-33.8087 -1.34306C-33.4368 -0.454575 -32.9409 -0.454575 -32.2383 -0.454575C-31.5358 -0.454575 -31.0399 -0.454575 -30.668 -1.34306L-28.0232 -7.8311C-27.8166 -8.327 -26.7008 -11.1371 -26.5561 -11.6743L-26.5355 -11.6743L-26.5355 -0.991801C-26.5355 -0.3306 -26.3908 -0 -25.5437 -0L-24.9858 -0C-24.2006 -0 -23.994 -0.268613 -23.994 -0.991801L-23.994 -13.348C-23.994 -14.0092 -24.1386 -14.3398 -24.9858 -14.3398L-26.7214 -14.3398C-27.238 -14.3398 -27.7546 -14.2985 -28.1058 -13.4513ZM-28.1058 -13.4513" fill="#fff"/>
 </g>
 <g transform="matrix(1.000000,-0.000000,-0.000000,1.000000,208.346457,-265.100554)">
  <path d="M-20.2172 -0M-10.6298 -6.75664C-11.0637 -5.70286 -11.8283 -3.8019 -11.9936 -3.07872L-12.0142 -3.07872C-12.2002 -3.82257 -13.0473 -5.86816 -13.4813 -6.96327L-16.1261 -13.4926C-16.4773 -14.3398 -17.1385 -14.3398 -17.5104 -14.3398L-19.2254 -14.3398C-19.9693 -14.3398 -20.2172 -14.1125 -20.2172 -13.348L-20.2172 -0.991801C-20.2172 -0.24795 -19.9899 -0 -19.2254 -0L-18.6675 -0C-17.8824 -0 -17.6757 -0.268613 -17.6757 -0.991801L-17.6757 -11.6743L-17.6551 -11.6743C-17.4278 -10.7445 -16.498 -8.45097 -16.0021 -7.23188L-13.6052 -1.34306C-13.2333 -0.454575 -12.7374 -0.454575 -12.0349 -0.454575C-11.3324 -0.454575 -10.8364 -0.454575 -10.4645 -1.34306L-7.81972 -7.8311C-7.6131 -8.327 -6.49732 -11.1371 -6.35268 -11.6743L-6.33202 -11.6743L-6.33202 -0.991801C-6.33202 -0.3306 -6.18738 -0 -5.34022 -0L-4.78233 -0C-3.99716 -0 -3.79053 -0.268613 -3.79053 -0.991801L-3.79053 -13.348C-3.79053 -14.0092 -3.93517 -14.3398 -4.78233 -14.3398L-6.51798 -14.3398C-7.03455 -14.3398 -7.55111 -14.2985 -7.90237 -13.4513ZM-7.90237 -13.4513" fill="#fff"/>
 </g>
 <g transform="matrix(1.000000,-0.000000,-0.000000,1.000000,208.346457,-265.100554)">
  <path d="M-1.02624 -0M7.89997 -13.4513C7.59003 -14.3398 6.99082 -14.3398 6.57757 -14.3398L4.75927 -14.3398C4.34602 -14.3398 3.7468 -14.3398 3.43686 -13.4513L-0.922928 -0.971138C-1.02624 -0.702526 -1.02624 -0.661201 -1.02624 -0.557888C-1.02624 -0 -0.509677 -0 -0.220402 -0L0.523449 -0C0.895374 -0 1.53591 -0 1.82519 -0.826501L2.63103 -3.12004L8.35454 -3.12004L9.05707 -1.13644C9.30502 -0.41325 9.44966 -0 10.4415 -0L11.5572 -0C11.8465 -0 12.3631 -0 12.3631 -0.557888C12.3631 -0.661201 12.3631 -0.702526 12.2598 -0.971138ZM12.2598 -0.971138M4.7386 -9.27747C5.04854 -10.1866 5.31715 -10.9718 5.48245 -11.7156L5.50312 -11.7156C5.60643 -11.2197 5.60643 -11.1784 5.77173 -10.7032L7.73467 -4.89702L3.2509 -4.89702ZM3.2509 -4.89702" fill="#fff"/>
 </g>
 <g transform="matrix(1.000000,-0.000000,-0.000000,1.000000,208.346457,-265.100554)">
  <path d="M13.8876 -0M25.8512 -2.95474C25.8512 -3.12004 25.7065 -3.20269 25.6239 -3.20269C25.128 -3.20269 24.5288 -1.85963 21.6154 -1.85963C17.9788 -1.85963 16.9456 -4.09118 16.9456 -7.19056C16.9456 -10.2693 18.0614 -12.5008 21.4501 -12.5008C23.289 -12.5008 24.2602 -11.7776 24.8181 -11.3231C24.942 -11.2197 25.004 -11.1371 25.1487 -11.1371C25.2313 -11.1371 25.3346 -11.2404 25.3553 -11.3231L25.7685 -13.6166C25.7892 -13.6993 25.7685 -13.7819 25.6032 -13.8439C24.3841 -14.2985 23.1237 -14.5877 21.512 -14.5877C16.4704 -14.5877 13.8876 -12.1289 13.8876 -7.21122C13.8876 -2.1489 16.5117 0.206625 21.5327 0.206625C23.289 0.206625 24.3841 -0.041325 25.8925 -0.971138C26.0578 -1.07445 26.0165 -1.21909 26.0165 -1.21909ZM26.0165 -1.21909" fill="#fff"/>
 </g>
 <g transform="matrix(1.000000,-0.000000,-0.000000,1.000000,208.346457,-265.100554)">
  <path d="M28.0162 -0M36.9424 -13.4513C36.6325 -14.3398 36.0333 -14.3398 35.62 -14.3398L33.8017 -14.3398C33.3885 -14.3398 32.7893 -14.3398 32.4793 -13.4513L28.1195 -0.971138C28.0162 -0.702526 28.0162 -0.661201 28.0162 -0.557888C28.0162 -0 28.5328 -0 28.8221 -0L29.5659 -0C29.9378 -0 30.5784 -0 30.8676 -0.826501L31.6735 -3.12004L37.397 -3.12004L38.0995 -1.13644C38.3475 -0.41325 38.4921 -0 39.4839 -0L40.5997 -0C40.889 -0 41.4055 -0 41.4055 -0.557888C41.4055 -0.661201 41.4055 -0.702526 41.3022 -0.971138ZM41.3022 -0.971138M33.7811 -9.27747C34.091 -10.1866 34.3596 -10.9718 34.5249 -11.7156L34.5456 -11.7156C34.6489 -11.2197 34.6489 -11.1784 34.8142 -10.7032L36.7771 -4.89702L32.2934 -4.89702ZM32.2934 -4.89702" fill="#fff"/>
 </g>
 <path d="M208.063 -239.589L208.63 -239.589"/>
 <g transform="matrix(1.000000,-0.000000,-0.000000,1.000000,208.346457,-239.588743)">
  <path d="M-29.9114 -11.7579M-25.378 0.508103L-27.9029 -5.07257C-28.0033 -5.30211 -28.0751 -5.30211 -28.1181 -5.30211C-28.1324 -5.30211 -28.2042 -5.30211 -28.362 -5.18734L-29.7249 -4.15441C-29.9114 -4.01095 -29.9114 -3.96791 -29.9114 -3.92487C-29.9114 -3.85314 -29.8683 -3.76706 -29.7679 -3.76706C-29.6818 -3.76706 -29.4379 -3.96791 -29.2801 -4.08268C-29.1941 -4.15441 -28.9789 -4.31222 -28.8211 -4.42699L-25.9949 1.78491C-25.8944 2.01445 -25.8227 2.01445 -25.6936 2.01445C-25.4784 2.01445 -25.4354 1.92838 -25.3349 1.72753L-18.8218 -11.7579C-18.7213 -11.9587 -18.7213 -12.0161 -18.7213 -12.0448C-18.7213 -12.1883 -18.8361 -12.3317 -19.0083 -12.3317C-19.123 -12.3317 -19.2235 -12.26 -19.3382 -12.0305ZM-19.3382 -12.0305" fill="black"/>
 </g>
 <g transform="matrix(1.000000,-0.000000,-0.000000,1.000000,208.346457,-239.588743)">
  <path d="M-19.0034 -11.7579L-11.9799 -11.7579L-11.9799 -12.3317L-19.0034 -12.3317Z" fill="black"/>
 </g>
 <g transform="matrix(1.000000,-0.000000,-0.000000,1.000000,208.346457,-239.588743)">
  <path d="M-18.3005 -0M-12.6911 -2.41016L-13.0067 -2.41016C-13.0498 -2.16628 -13.1645 -1.37723 -13.308 -1.1477C-13.4084 -1.01858 -14.2262 -1.01858 -14.6565 -1.01858L-17.3106 -1.01858C-16.9232 -1.34854 -16.0481 -2.2667 -15.6751 -2.61101C-13.4945 -4.61948 -12.6911 -5.36548 -12.6911 -6.78575C-12.6911 -8.43556 -13.9966 -9.54022 -15.6608 -9.54022C-17.3249 -9.54022 -18.3005 -8.11995 -18.3005 -6.88617C-18.3005 -6.15452 -17.6692 -6.15452 -17.6262 -6.15452C-17.3249 -6.15452 -16.9519 -6.36971 -16.9519 -6.82879C-16.9519 -7.23048 -17.2245 -7.50306 -17.6262 -7.50306C-17.7553 -7.50306 -17.784 -7.50306 -17.8271 -7.48871C-17.5545 -8.46426 -16.7798 -9.12418 -15.8473 -9.12418C-14.6279 -9.12418 -13.8819 -8.1056 -13.8819 -6.78575C-13.8819 -5.56632 -14.5848 -4.50471 -15.4025 -3.58655L-18.3005 -0.344309L-18.3005 -0L-13.0641 -0ZM-13.0641 -0" fill="black"/>
 </g>
 <g transform="matrix(1.000000,-0.000000,-0.000000,1.000000,208.346457,-239.588743)">
  <path d="M-6.5228 -0M-1.12863 -10.2432C-1.0569 -10.4297 -1.0569 -10.4584 -1.0569 -10.4871C-1.0569 -10.6736 -1.20036 -10.7596 -1.31513 -10.7596C-1.50163 -10.7596 -1.54467 -10.6305 -1.6164 -10.444L-6.45107 3.07009C-6.5228 3.25659 -6.5228 3.28528 -6.5228 3.31397C-6.5228 3.47178 -6.40803 3.58655 -6.25022 3.58655C-6.06372 3.58655 -6.02068 3.44309 -5.9633 3.28528ZM-5.9633 3.28528" fill="black"/>
 </g>
 <g transform="matrix(1.000000,-0.000000,-0.000000,1.000000,208.346457,-239.588743)">
  <path d="M5.11142 -0M10.7208 -2.41016L10.4052 -2.41016C10.3621 -2.16628 10.2474 -1.37723 10.1039 -1.1477C10.0035 -1.01858 9.18574 -1.01858 8.75535 -1.01858L6.10131 -1.01858C6.48865 -1.34854 7.36377 -2.2667 7.73677 -2.61101C9.9174 -4.61948 10.7208 -5.36548 10.7208 -6.78575C10.7208 -8.43556 9.41528 -9.54022 7.75112 -9.54022C6.08696 -9.54022 5.11142 -8.11995 5.11142 -6.88617C5.11142 -6.15452 5.74265 -6.15452 5.78569 -6.15452C6.08696 -6.15452 6.45996 -6.36971 6.45996 -6.82879C6.45996 -7.23048 6.18738 -7.50306 5.78569 -7.50306C5.65658 -7.50306 5.62788 -7.50306 5.58484 -7.48871C5.85742 -8.46426 6.63212 -9.12418 7.56462 -9.12418C8.78405 -9.12418 9.53005 -8.1056 9.53005 -6.78575C9.53005 -5.56632 8.82708 -4.50471 8.00935 -3.58655L5.11142 -0.344309L5.11142 -0L10.3478 -0ZM10.3478 -0" fill="black"/>
 </g>
 <g transform="matrix(1.000000,-0.000000,-0.000000,1.000000,208.346457,-239.588743)">
  <path d="M12.2067 -0M18.2465 -8.90899L18.2465 -9.23895L14.789 -9.23895C13.0531 -9.23895 13.0245 -9.42545 12.9671 -9.69803L12.6515 -9.69803L12.2067 -6.82879L12.5223 -6.82879C12.5654 -7.08702 12.6945 -7.97648 12.881 -8.13429C12.9958 -8.22037 14.0717 -8.22037 14.2726 -8.22037L17.314 -8.22037L15.7933 -6.03975C15.4059 -5.48025 13.957 -3.12747 13.957 -0.430386C13.957 -0.272578 13.957 0.30127 14.5452 0.30127C15.1477 0.30127 15.1477 -0.258232 15.1477 -0.444732L15.1477 -1.16204C15.1477 -3.29963 15.492 -4.96378 16.1663 -5.92498ZM16.1663 -5.92498" fill="black"/>
 </g>
 <g transform="matrix(1.000000,-0.000000,-0.000000,1.000000,208.346457,-239.588743)">
  <path d="M19.0438 -0M24.8827 -4.59078C24.8827 -5.78152 24.811 -6.94356 24.2945 -8.03387C23.7063 -9.2246 22.6734 -9.54022 21.9704 -9.54022C21.1383 -9.54022 20.1198 -9.12418 19.589 -7.93345C19.1873 -7.02964 19.0438 -6.14017 19.0438 -4.59078C19.0438 -3.1992 19.1442 -2.15193 19.6607 -1.13335C20.2202 -0.0430386 21.2101 0.30127 21.9561 0.30127C23.2042 0.30127 23.9215 -0.444732 24.3375 -1.27681C24.854 -2.35278 24.8827 -3.7587 24.8827 -4.59078ZM24.8827 -4.59078M21.9561 0.0143462C21.497 0.0143462 20.5645 -0.243885 20.2919 -1.80762C20.1341 -2.66839 20.1341 -3.7587 20.1341 -4.76294C20.1341 -5.93933 20.1341 -7.00094 20.3636 -7.84737C20.6075 -8.80856 21.3392 -9.2533 21.9561 -9.2533C22.5012 -9.2533 23.3333 -8.92333 23.6059 -7.68956C23.7924 -6.87183 23.7924 -5.73848 23.7924 -4.76294C23.7924 -3.80174 23.7924 -2.71143 23.6346 -1.83631C23.362 -0.258232 22.4582 0.0143462 21.9561 0.0143462ZM21.9561 0.0143462" fill="black"/>
 </g>
 <g transform="matrix(1.000000,-0.000000,-0.000000,1.000000,208.346457,-239.588743)">
  <path d="M26.0271 -5.20611M29.9026 -7.69677C29.9026 -8.76277 29.0159 -9.62952 27.9698 -9.62952C26.8939 -9.62952 26.0271 -8.74285 26.0271 -7.69677C26.0271 -6.64073 26.8939 -5.76402 27.9698 -5.76402C29.0159 -5.76402 29.9026 -6.63077 29.9026 -7.69677ZM29.9026 -7.69677M27.9698 -6.16252C27.1031 -6.16252 26.4256 -6.85991 26.4256 -7.69677C26.4256 -8.53363 27.113 -9.23102 27.9698 -9.23102C28.7967 -9.23102 29.5041 -8.55356 29.5041 -7.69677C29.5041 -6.83998 28.7967 -6.16252 27.9698 -6.16252ZM27.9698 -6.16252" fill="black"/>
 </g>
 <g stroke-linecap="round" stroke-linejoin="round">
  <path d="M-29.342 32.9353L-194.811 -253.665" stroke="black"/>
 </g>
 <g stroke-linecap="butt" stroke-linejoin="round" stroke-dasharray="2.000000" stroke-dashoffset="0.000000">
  <path d="M-29.342 32.9353L-113.362 -280.63" stroke="black"/>
 </g>
 <g stroke-linecap="round" stroke-linejoin="round">
  <path d="M-29.342 32.9353L-29.342 -285.501" stroke="black"/>
 </g>
 <g stroke-linecap="butt" stroke-linejoin="round" stroke-dasharray="2.000000" stroke-dashoffset="0.000000">
  <path d="M-29.342 32.9353L51.5037 -268.785" stroke="black"/>
 </g>
 <g stroke-linecap="round" stroke-linejoin="round">
  <path d="M-29.342 32.9353L123.861 -232.421" stroke="black"/>
 </g>
 <g stroke-linecap="butt" stroke-linejoin="round" stroke-dasharray="2.000000" stroke-dashoffset="0.000000">
  <path d="M-29.342 32.9353L183.189 -179.595" stroke="black"/>
 </g>
 <g stroke-linecap="round" stroke-linejoin="round">
  <path d="M-29.342 32.9353L225.99 -114.481" stroke="black"/>
 </g>
 <g stroke-linecap="butt" stroke-linejoin="round" stroke-dasharray="2.000000" stroke-dashoffset="0.000000">
  <path d="M-29.342 32.9353L250.013 -41.9177" stroke="black"/>
 </g>
 <g stroke-linecap="round" stroke-linejoin="round">
  <path d="M-29.342 32.9353L254.352 32.9353" stroke="black"/>
 </g>
 <g stroke-linecap="butt" stroke-linejoin="round" stroke-dasharray="2.000000" stroke-dashoffset="0.000000">
  <path d="M-29.342 32.9353L239.46 104.961" stroke="black"/>
 </g>
 <g stroke-linecap="round" stroke-linejoin="round">
  <path d="M-29.342 32.9353L207.063 169.424" stroke="black"/>
 </g>
 <g stroke-linecap="butt" stroke-linejoin="round" stroke-dasharray="2.000000" stroke-dashoffset="0.000000">
  <path d="M-29.342 32.9353L160.001 222.279" stroke="black"/>
 </g>
 <g stroke-linecap="round" stroke-linejoin="round">
  <path d="M-29.342 32.9353L101.991 260.41" stroke="black"/>
 </g>
 <g stroke-linecap="butt" stroke-linejoin="round" stroke-dasharray="2.000000" stroke-dashoffset="0.000000">
  <path d="M-29.342 32.9353L37.3444 281.812" stroke="black"/>
 </g>
 <g stroke-linecap="round" stroke-linejoin="round">
  <path d="M-29.342 32.9353L-29.342 285.678" stroke="black"/>
 </g>
 <g stroke-linecap="butt" stroke-linejoin="round" stroke-dasharray="2.000000" stroke-dashoffset="0.000000">
  <path d="M-29.342 32.9353L-93.5092 272.411" stroke="black"/>
 </g>
 <g stroke-linecap="round" stroke-linejoin="round">
  <path d="M-29.342 32.9353L-150.94 243.549" stroke="black"/>
 </g>
 <g stroke-linecap="butt" stroke-linejoin="round" stroke-dasharray="2.000000" stroke-dashoffset="0.000000">
  <path d="M-29.342 32.9353L-198.028 201.621" stroke="black"/>
 </g>
 <g stroke-linecap="round" stroke-linejoin="round">
  <path d="M-29.342 32.9353L-231.999 149.939" stroke="black"/>
 </g>
 <g stroke-linecap="butt" stroke-linejoin="round" stroke-dasharray="2.000000" stroke-dashoffset="0.000000">
  <path d="M-29.342 32.9353L-251.066 92.3461" stroke="black"/>
 </g>
 <g stroke-linecap="round" stroke-linejoin="round">
  <path d="M-29.342 32.9353L-254.51 32.9353" stroke="black"/>
 </g>
 <g stroke-linecap="butt" stroke-linejoin="round" stroke-dasharray="2.000000" stroke-dashoffset="0.000000">
  <path d="M-29.342 32.9353L-242.69 -24.2312" stroke="black"/>
 </g>
 <g stroke-linecap="round" stroke-linejoin="round">
  <path d="M-29.342 32.9353L-216.977 -75.3959" stroke="black"/>
 </g>
 <g stroke-linecap="butt" stroke-linejoin="round" stroke-dasharray="2.000000" stroke-dashoffset="0.000000">
  <path d="M-29.342 32.9353L-179.624 -117.347" stroke="black"/>
 </g>
 <g stroke-linecap="round" stroke-linejoin="round">
  <path d="M-29.342 32.9353L-133.581 -147.612" stroke="black"/>
 </g>
 <g stroke-linecap="round" stroke-linejoin="round" stroke-width="1.603518">
  <path d="M-194.811 -253.665L-189.578 -256.138L-184.309 -258.516L-179.007 -260.799L-173.673 -262.986L-168.308 -265.077L-162.914 -267.072L-157.493 -268.97L-152.047 -270.77L-146.577 -272.473L-141.086 -274.078L-135.574 -275.585L-130.044 -276.994L-124.498 -278.305L-118.936 -279.517L-113.362 -280.63L-107.776 -281.645L-102.18 -282.56L-96.5763 -283.377L-90.9665 -284.095L-85.3522 -284.714L-79.7352 -285.235L-74.1172 -285.657L-68.4999 -285.98L-62.885 -286.205L-57.2742 -286.332L-51.6693 -286.36L-46.0719 -286.291L-40.4838 -286.125L-34.9066 -285.861L-29.342 -285.501L-23.7916 -285.044L-18.2572 -284.491L-12.7404 -283.842L-7.24276 -283.098L-1.766 -282.26L3.68829 -281.327L9.11849 -280.3L14.523 -279.18L19.9002 -277.968L25.2486 -276.663L30.5666 -275.268L35.8526 -273.781L41.1052 -272.205L46.3227 -270.539L51.5037 -268.785L56.6466 -266.943L61.7501 -265.014L66.8127 -262.998L71.8328 -260.898L76.8092 -258.713L81.7403 -256.444L86.6248 -254.093L91.4613 -251.659L96.2485 -249.145L100.985 -246.552L105.669 -243.879L110.301 -241.129L114.877 -238.301L119.398 -235.398L123.861 -232.421L128.267 -229.37L132.613 -226.246L136.898 -223.051L141.121 -219.787L145.281 -216.453L149.378 -213.051L153.409 -209.583L157.374 -206.05L161.271 -202.453L165.101 -198.792L168.861 -195.071L172.55 -191.289L176.169 -187.448L179.715 -183.55L183.189 -179.595L186.588 -175.586L189.913 -171.523L193.162 -167.408L196.335 -163.242L199.43 -159.027L202.448 -154.764L205.387 -150.455L208.247 -146.101L211.026 -141.702L213.725 -137.262L216.343 -132.781L218.879 -128.261L221.332 -123.703L223.703 -119.109L225.99 -114.481L228.193 -109.819L230.312 -105.125L232.346 -100.401L234.294 -95.6487L236.157 -90.869L237.934 -86.0637L239.625 -81.2343L241.229 -76.3824L242.746 -71.5095L244.176 -66.6171L245.519 -61.7068L246.774 -56.7802L247.941 -51.8388L249.021 -46.8841L250.013 -41.9177L250.917 -36.9411L251.733 -31.9559L252.46 -26.9637L253.1 -21.9659L253.652 -16.9642L254.115 -11.96L254.491 -6.95489L254.779 -1.95043L254.98 3.05186L255.093 8.05047L255.118 13.0439L255.057 18.0306L254.908 23.009L254.674 27.9778L254.352 32.9353L253.945 37.8801L253.453 42.8107L252.875 47.7256L252.212 52.6234L251.465 57.5027L250.634 62.3619L249.719 67.1996L248.721 72.0145L247.641 76.8051L246.479 81.57L245.236 86.3078L243.911 91.0171L242.507 95.6965L241.023 100.345L239.46 104.961L237.819 109.542L236.1 114.089L234.305 118.599L232.434 123.072L230.487 127.505L228.466 131.898L226.371 136.25L224.203 140.559L221.963 144.824L219.653 149.043L217.272 153.217L214.821 157.343L212.302 161.42L209.716 165.447L207.063 169.424L204.345 173.349L201.563 177.22L198.716 181.038L195.808 184.801L192.838 188.507L189.807 192.156L186.717 195.748L183.57 199.28L180.365 202.752L177.104 206.164L173.788 209.514L170.419 212.801L166.997 216.025L163.524 219.184L160.001 222.279L156.429 225.307L152.81 228.269L149.144 231.164L145.432 233.99L141.677 236.748L137.879 239.437L134.04 242.055L130.161 244.603L126.243 247.079L122.287 249.484L118.295 251.816L114.268 254.075L110.207 256.261L106.114 258.373L101.991 260.41L97.8374 262.373L93.6558 264.26L89.4473 266.072L85.2133 267.808L80.9551 269.468L76.674 271.051L72.3715 272.557L68.049 273.986L63.7077 275.338L59.3491 276.612L54.9746 277.808L50.5854 278.927L46.1831 279.967L41.769 280.929L37.3444 281.812L32.9108 282.617L28.4695 283.344L24.0219 283.993L19.5694 284.563L15.1134 285.054L10.6551 285.467L6.1961 285.802L1.73764 286.058L-2.7189 286.237L-7.17215 286.338L-11.6208 286.36L-16.0634 286.306L-20.4987 286.174L-24.9253 285.964L-29.342 285.678L-33.7473 285.316L-38.14 284.877L-42.5187 284.362L-46.8822 283.771L-51.2291 283.106L-55.5581 282.365L-59.8681 281.55L-64.1576 280.662L-68.4256 279.699L-72.6706 278.664L-76.8915 277.556L-81.087 276.376L-85.2559 275.125L-89.3971 273.803L-93.5092 272.411L-97.5912 270.949L-101.642 269.417L-105.66 267.818L-109.645 266.151L-113.594 264.416L-117.508 262.616L-121.385 260.749L-125.224 258.818L-129.023 256.823L-132.783 254.764L-136.501 252.643L-140.176 250.46L-143.809 248.216L-147.397 245.912L-150.94 243.549L-154.436 241.127L-157.885 238.648L-161.287 236.112L-164.639 233.521L-167.941 230.875L-171.192 228.175L-174.391 225.422L-177.538 222.618L-180.632 219.763L-183.671 216.858L-186.655 213.904L-189.584 210.902L-192.456 207.854L-195.271 204.76L-198.028 201.621L-200.726 198.439L-203.365 195.214L-205.943 191.948L-208.462 188.642L-210.919 185.296L-213.314 181.913L-215.646 178.492L-217.916 175.036L-220.122 171.545L-222.265 168.021L-224.342 164.465L-226.355 160.877L-228.302 157.26L-230.184 153.613L-231.999 149.939L-233.748 146.239L-235.429 142.514L-237.044 138.764L-238.59 134.992L-240.069 131.199L-241.479 127.385L-242.821 123.552L-244.094 119.701L-245.298 115.833L-246.433 111.95L-247.499 108.053L-248.495 104.142L-249.422 100.22L-250.279 96.2879L-251.066 92.3461L-251.784 88.3962L-252.431 84.4394L-253.009 80.4771L-253.516 76.5104L-253.954 72.5405L-254.322 68.5686L-254.621 64.5961L-254.849 60.6241L-255.008 56.6537L-255.098 52.6863L-255.118 48.7231L-255.069 44.7651L-254.952 40.8137L-254.765 36.87L-254.51 32.9353L-254.187 29.0106L-253.796 25.0971L-253.338 21.1962L-252.812 17.3088L-252.218 13.4361L-251.559 9.57933L-250.833 5.7396L-250.041 1.91804L-249.184 -1.88425L-248.261 -5.66613L-247.274 -9.42651L-246.223 -13.1643L-245.109 -16.8784L-243.931 -20.5677L-242.69 -24.2312L-241.388 -27.8679L-240.024 -31.4766L-238.599 -35.0564L-237.113 -38.6061L-235.568 -42.125L-233.964 -45.6118L-232.301 -49.0656L-230.581 -52.4856L-228.803 -55.8706L-226.969 -59.2198L-225.079 -62.5322L-223.134 -65.8069L-221.135 -69.043L-219.083 -72.2397L-216.977 -75.3959L-214.82 -78.511L-212.611 -81.5839L-210.352 -84.614L-208.043 -87.6003L-205.686 -90.5421L-203.281 -93.4386L-200.828 -96.2891L-198.33 -99.0927L-195.786 -101.849L-193.198 -104.556L-190.567 -107.215L-187.892 -109.824L-185.177 -112.383L-182.42 -114.891L-179.624 -117.347L-176.789 -119.75L-173.916 -122.101L-171.006 -124.399L-168.061 -126.642L-165.08 -128.831L-162.066 -130.965L-159.018 -133.043L-155.939 -135.065L-152.83 -137.031L-149.69 -138.939L-146.521 -140.79L-143.325 -142.583L-140.102 -144.318L-136.854 -145.995L-133.581 -147.612L-130.284 -149.17L-126.965 -150.668L-123.625 -152.106L-120.265 -153.484L-116.885 -154.801L-113.487 -156.057L-110.072 -157.253L-106.641 -158.387L-103.196 -159.46L-99.7361 -160.471L-96.2641 -161.421L-92.7804 -162.308L-89.2863 -163.134L-85.7828 -163.897L-82.271 -164.599L-78.752 -165.238L-75.227 -165.815L-71.6969 -166.329L-68.163 -166.781L-64.6262 -167.172L-61.0877 -167.499L-57.5486 -167.765L-54.0099 -167.969L-50.4727 -168.11L-46.9382 -168.19L-43.4073 -168.208L-39.8812 -168.165L-36.3609 -168.06L-32.8475 -167.894L-29.342 -167.667L-25.8455 -167.379L-22.359 -167.031L-18.8836 -166.622L-15.4203 -166.153L-11.9702 -165.625L-8.53422 -165.037L-5.11341 -164.391L-1.70878 -163.685L1.67867 -162.921L5.04795 -162.1L8.39807 -161.22L11.7281 -160.284L15.0369 -159.291L18.3238 -158.242L21.5876 -157.136L24.8275 -155.976L28.0425 -154.761L31.2317 -153.491L34.3942 -152.168L37.5291 -150.791L40.6355 -149.362L43.7125 -147.881L46.7593 -146.348L49.775 -144.764L52.7588 -143.13L55.7098 -141.447L58.6273 -139.714L61.5103 -137.933L64.3582 -136.104L67.1701 -134.229L69.9453 -132.307L72.683 -130.339L75.3825 -128.326L78.043 -126.27L80.6639 -124.169L83.2444 -122.027L85.7838 -119.842L88.2815 -117.616L90.7368 -115.35L93.1492 -113.044L95.5178 -110.7L97.8422 -108.317L100.122 -105.898L102.356 -103.442L104.544 -100.951L106.685 -98.4249L108.78 -95.8655L110.827 -93.2732L112.825 -90.6489L114.775 -87.9936L116.676 -85.3081L118.528 -82.5934L120.329 -79.8502L122.08 -77.0796L123.781 -74.2825L125.43 -71.4597L127.027 -68.6122L128.573 -65.741L130.066 -62.8469L131.507 -59.931L132.895 -56.9941L134.23 -54.0373L135.511 -51.0615L136.738 -48.0675L137.912 -45.0565L139.031 -42.0294L140.096 -38.9871L141.107 -35.9305L142.063 -32.8608L142.964 -29.7788L143.809 -26.6855L144.6 -23.582L145.336 -20.469L146.016 -17.3478L146.641 -14.2191L147.21 -11.0841L147.724 -7.94363L148.182 -4.79871L148.585 -1.65031L148.933 1.50059L149.225 4.65303L149.462 7.80604L149.643 10.9587L149.769 14.1099L149.841 17.2588L149.857 20.4045L149.818 23.5459L149.725 26.6821L149.577 29.8122L149.374 32.9353L149.118 36.0503L148.807 39.1564L148.443 42.2526L148.026 45.338L147.555 48.4118L147.032 51.4729L146.455 54.5205L145.827 57.5537L145.147 60.5715L144.414 63.5732L143.631 66.5578L142.797 69.5245L141.912 72.4724L140.977 75.4006L139.993 78.3084L138.959 81.1948L137.876 84.059L136.745 86.9003L135.566 89.7177L134.34 92.5106L133.067 95.2781L131.747 98.0194L130.381 100.734L128.97 103.421L127.515 106.079L126.015 108.708L124.471 111.307L122.884 113.875L121.255 116.413L119.584 118.918L117.872 121.39L116.119 123.829L114.326 126.234L112.493 128.604L110.622 130.939L108.713 133.238L106.767 135.501L104.784 137.726L102.765 139.913L100.711 142.062L98.6221 144.173L96.4996 146.244L94.344 148.274L92.1562 150.265L89.9368 152.214L87.6866 154.122L85.4064 155.988L83.0969 157.811L80.759 159.592L78.3934 161.329L76.0009 163.023L73.5823 164.672L71.1385 166.277L68.6701 167.837L66.1781 169.352L63.6633 170.821L61.1265 172.245L58.5685 173.622L55.9902 174.952L53.3924 176.235L50.776 177.472L48.1418 178.661L45.4906 179.802L42.8233 180.896L40.1408 181.942L37.4439 182.939L34.7335 183.888L32.0105 184.788L29.2756 185.639L26.5299 186.442L23.7741 187.196L21.0091 187.9L18.2358 188.555L15.4551 189.161L12.6678 189.718L9.87481 190.225L7.07697 190.683L4.27516 191.092L1.47026 191.451L-1.33688 191.76L-4.14538 192.02L-6.95439 192.231L-9.76305 192.393L-12.5705 192.505L-15.3759 192.569L-18.1783 192.583L-20.977 192.549L-23.7711 192.465L-26.5597 192.334L-29.342 192.153L-32.1172 191.925L-34.8844 191.648L-37.6428 191.324L-40.3916 190.952L-43.13 190.533L-45.8571 190.066L-48.5722 189.553L-51.2745 188.993L-53.9631 188.387L-56.6373 187.735L-59.2963 187.037L-61.9393 186.294L-64.5656 185.505L-67.1743 184.672L-69.7648 183.795L-72.3363 182.874L-74.888 181.91L-77.4193 180.902L-79.9294 179.852L-82.4176 178.759L-84.8831 177.625L-87.3254 176.449L-89.7436 175.233L-92.1372 173.976L-94.5054 172.679L-96.8477 171.342L-99.1632 169.967L-101.452 168.554L-103.712 167.102L-105.944 165.613L-108.146 164.088L-110.319 162.526L-112.462 160.929L-114.574 159.296L-116.654 157.629L-118.702 155.929L-120.717 154.195L-122.7 152.428L-124.649 150.629L-126.563 148.799L-128.443 146.938L-130.288 145.047L-132.097 143.127L-133.871 141.178L-135.607 139.201L-137.307 137.196L-138.969 135.164L-140.594 133.107L-142.18 131.024L-143.728 128.917L-145.237 126.785L-146.706 124.63L-148.136 122.453L-149.526 120.254L-150.876 118.034L-152.184 115.794L-153.452 113.534L-154.679 111.255L-155.864 108.958L-157.008 106.643L-158.11 104.312L-159.169 101.965L-160.186 99.6035L-161.16 97.2272L-162.092 94.8374L-162.98 92.4347L-163.825 90.02L-164.627 87.5941L-165.386 85.1576L-166.101 82.7115L-166.772 80.2563L-167.4 77.793L-167.984 75.3223L-168.524 72.8449L-169.019 70.3617L-169.471 67.8735L-169.879 65.3809L-170.243 62.8847L-170.563 60.3859L-170.839 57.885L-171.071 55.3829L-171.259 52.8803L-171.403 50.3781L-171.503 47.877L-171.559 45.3777L-171.572 42.881L-171.541 40.3876L-171.467 37.8984L-171.35 35.414L-171.189 32.9353L-170.986 30.4629L-170.739 27.9976L-170.45 25.5401L-170.119 23.0912L-169.745 20.6516L-169.33 18.2219L-168.872 15.8031L-168.374 13.3956L-167.834 11.0003L-167.253 8.61791L-166.631 6.24902L-165.969 3.89436L-165.266 1.55463L-164.524 -0.76951L-163.743 -3.07738L-162.922 -5.36832L-162.063 -7.64167L-161.165 -9.89678L-160.23 -12.133L-159.256 -14.3497L-158.246 -16.5463L-157.198 -18.7221L-156.115 -20.8765L-154.995 -23.0089L-153.839 -25.1188L-152.649 -27.2055L-151.424 -29.2684L-150.164 -31.307L-148.871 -33.3208L-147.545 -35.3091L-146.186 -37.2715L-144.794 -39.2073L-143.371 -41.1161L-141.917 -42.9974L-140.432 -44.8506L-138.917 -46.6753L-137.372 -48.471L-135.798 -50.2371L-134.195 -51.9733L-132.565 -53.6791L-130.907 -55.354L-129.222 -56.9975L-127.512 -58.6094L-125.775 -60.1892L-124.014 -61.7364L-122.228 -63.2507L-120.418 -64.7316L-118.585 -66.179L-116.729 -67.5922L-114.852 -68.9712L-112.953 -70.3154L-111.033 -71.6245L-109.093 -72.8984L-107.134 -74.1366L-105.156 -75.3389L-103.16 -76.505L-101.147 -77.6346L-99.1166 -78.7275L-97.0702 -79.7834L-95.0083 -80.8022L-92.9317 -81.7836L-90.8409 -82.7273L-88.7366 -83.6333L-86.6196 -84.5013L-84.4905 -85.3311L-82.35 -86.1227L-80.1987 -86.8758L-78.0375 -87.5903L-75.8668 -88.2661L-73.6875 -88.9031L-71.5003 -89.5012L-69.3057 -90.0604L-67.1045 -90.5805L-64.8975 -91.0614L-62.6852 -91.5032L-60.4684 -91.9059L-58.2477 -92.2693L-56.0239 -92.5934L-53.7977 -92.8784L-51.5697 -93.1241L-49.3405 -93.3307L-47.111 -93.4981L-44.8818 -93.6263L-42.6535 -93.7156L-40.4269 -93.7659L-38.2026 -93.7773L-35.9813 -93.7499L-33.7636 -93.6839L-31.5503 -93.5793L-29.342 -93.4362L-27.1393 -93.2549L-24.943 -93.0354L-22.7536 -92.778L-20.5719 -92.4828L-18.3984 -92.1499L-16.2339 -91.7797L-14.0789 -91.3723L-11.9342 -90.9279L-9.80019 -90.4467L-7.67768 -89.9291L-5.56724 -89.3752L-3.46948 -88.7853L-1.38502 -88.1597L0.685555 -87.4986L2.74163 -86.8024L4.78263 -86.0714L6.80795 -85.3058L8.81702 -84.5061L10.8093 -83.6725L12.7841 -82.8053L14.7411 -81.905L16.6795 -80.9718L18.5988 -80.0062L20.4986 -79.0086L22.3783 -77.9792L24.2373 -76.9186L26.0752 -75.827L27.8914 -74.7051L29.6854 -73.553L31.4568 -72.3714L33.2051 -71.1606L34.9297 -69.921L36.6303 -68.6531L38.3063 -67.3575L39.9574 -66.0345L41.583 -64.6846L43.1827 -63.3083L44.7562 -61.9061L46.3029 -60.4784L47.8226 -59.0259L49.3148 -57.549L50.779 -56.0481L52.2151 -54.524L53.6224 -52.9769L55.0009 -51.4076L56.3499 -49.8165L57.6693 -48.2041L58.9587 -46.5711L60.2178 -44.9179L61.4463 -43.2452L62.6439 -41.5534L63.8102 -39.8432L64.9451 -38.1151L66.0482 -36.3698L67.1193 -34.6077L68.1582 -32.8294L69.1646 -31.0356L70.1382 -29.2269L71.079 -27.4037L71.9866 -25.5668L72.8609 -23.7167L73.7017 -21.854L74.5088 -19.9794L75.2821 -18.0933L76.0214 -16.1965L76.7266 -14.2895L77.3975 -12.373L78.0341 -10.4475L78.6362 -8.51366L79.2037 -6.57213L79.7365 -4.62348L80.2347 -2.66835L80.698 -0.70734L81.1265 1.25893L81.5201 3.22985L81.8788 5.20481L82.2026 7.18318L82.4914 9.16435L82.7452 11.1477L82.9641 13.1327L83.1482 15.1186L83.2973 17.1048L83.4116 19.0909L83.4911 21.076L83.5359 23.0597L83.5461 25.0414L83.5217 27.0203L83.4628 28.996L83.3696 30.9679L83.2422 32.9353L83.0807 34.8976L82.8851 36.8543L82.6558 38.8048L82.3928 40.7485L82.0963 42.6848L81.7664 44.6132L81.4035 46.5331L81.0075 48.4439L80.5789 50.345L80.1177 52.236L79.6242 54.1161L79.0987 55.985L78.5413 57.8421L77.9524 59.6868L77.3322 61.5185L76.6809 63.3368L75.9989 65.1412L75.2864 66.9311L74.5437 68.706L73.7711 70.4654L72.969 72.2088L72.1377 73.9357L71.2774 75.6457L70.3886 77.3382L69.4716 79.0128L68.5267 80.669L67.5542 82.3063L66.5546 83.9244L65.5283 85.5227L64.4756 87.1009L63.3968 88.6584L62.2925 90.1949L61.163 91.7099L60.0087 93.2031L58.83 94.674L57.6274 96.1222L56.4013 97.5474L55.152 98.9492L53.8802 100.327L52.5861 101.681L51.2703 103.01L49.9332 104.315L48.5753 105.594L47.1971 106.848L45.7989 108.076L44.3814 109.278L42.945 110.454L41.4901 111.602L40.0173 112.724L38.5271 113.818L37.0199 114.885L35.4963 115.924L33.9567 116.935L32.4018 117.918L30.8319 118.873L29.2477 119.798L27.6496 120.695L26.0382 121.562L24.4139 122.4L22.7774 123.209L21.1292 123.988L19.4697 124.737L17.7996 125.456L16.1193 126.145L14.4294 126.803L12.7305 127.432L11.0231 128.029L9.30764 128.596L7.58481 129.133L5.8551 129.638L4.11906 130.113L2.37723 130.557L0.630168 130.97L-1.12158 131.352L-2.87747 131.702L-4.63695 132.022L-6.39948 132.31L-8.16451 132.567L-9.93149 132.794L-11.6999 132.989L-13.4691 133.153L-15.2387 133.285L-17.008 133.387L-18.7766 133.458L-20.5439 133.498L-22.3093 133.507L-24.0724 133.485L-25.8325 133.433L-27.5892 133.35L-29.342 133.236L-31.0902 133.092L-32.8335 132.918L-34.5712 132.714L-36.3028 132.48L-38.0279 132.215L-39.7459 131.922L-41.4563 131.598L-43.1586 131.246L-44.8523 130.864L-46.5369 130.453L-48.212 130.013L-49.877 129.545L-51.5314 129.048L-53.1749 128.524L-54.8068 127.971L-56.4267 127.391L-58.0342 126.783L-59.6288 126.149L-61.2101 125.487L-62.7775 124.799L-64.3307 124.084L-65.8692 123.343L-67.3926 122.577L-68.9005 121.785L-70.3924 120.968L-71.8679 120.126L-73.3266 119.26L-74.7681 118.369L-76.1921 117.455L-77.598 116.517L-78.9856 115.556L-80.3545 114.572L-81.7042 113.566L-83.0345 112.538L-84.3449 111.488L-85.6352 110.416L-86.9049 109.324L-88.1537 108.211L-89.3814 107.078L-90.5876 105.925L-91.7719 104.753L-92.9341 103.561L-94.0739 102.352L-95.1909 101.124L-96.2849 99.8782L-97.3557 98.6153L-98.4029 97.3356L-99.4263 96.0395L-100.426 94.7274L-101.401 93.3997L-102.351 92.057L-103.277 90.6996L-104.178 89.328L-105.053 87.9427L-105.903 86.5441L-106.728 85.1327L-107.527 83.709L-108.299 82.2734L-109.046 80.8264L-109.767 79.3684L-110.46 77.9L-111.128 76.4215L-111.768 74.9336L-112.382 73.4367L-112.969 71.9312L-113.529 70.4176L-114.061 68.8964L-114.566 67.3682L-115.044 65.8333L-115.495 64.2923L-115.918 62.7457L-116.313 61.1939L-116.681 59.6374L-117.021 58.0768L-117.333 56.5125L-117.618 54.9449L-117.875 53.3747L-118.104 51.8022L-118.306 50.2281L-118.479 48.6526L-118.625 47.0764L-118.744 45.4999L-118.835 43.9236L-118.898 42.3479L-118.933 40.7735L-118.941 39.2007L-118.922 37.6299L-118.875 36.0618L-118.801 34.4968L-118.7 32.9353L-118.572 31.3777L-118.417 29.8247L-118.235 28.2766L-118.026 26.7339L-117.791 25.197L-117.529 23.6665L-117.241 22.1427L-116.926 20.6261L-116.586 19.1171L-116.22 17.6163L-115.829 16.124L-115.411 14.6406L-114.969 13.1667L-114.502 11.7026L-114.009 10.2487L-113.492 8.80552L-112.951 7.3734L-112.386 5.95277L-111.796 4.54404L-111.183 3.1476L-110.546 1.76385L-109.886 0.393185L-109.204 -0.964012L-108.498 -2.30736L-107.77 -3.63649L-107.02 -4.95102L-106.249 -6.25059L-105.455 -7.53485L-104.641 -8.80343L-103.805 -10.056L-102.949 -11.2922L-102.072 -12.5117L-101.176 -13.7142L-100.26 -14.8993L-99.3241 -16.0668L-98.3696 -17.2163L-97.3964 -18.3474L-96.4049 -19.46L-95.3954 -20.5538L-94.3684 -21.6283L-93.324 -22.6835L-92.2628 -23.7189L-91.185 -24.7343L-90.0911 -25.7294L-88.9814 -26.7041L-87.8563 -27.6581L-86.7162 -28.591L-85.5615 -29.5028L-84.3925 -30.3931L-83.2097 -31.2618L-82.0134 -32.1086L-80.8041 -32.9333L-79.5822 -33.7358L-78.348 -34.5158L-77.102 -35.2732L-75.8446 -36.0078L-74.5762 -36.7194L-73.2972 -37.4079L-72.0081 -38.0731L-70.7092 -38.7149L-69.401 -39.3331L-68.0839 -39.9276L-66.7583 -40.4983L-65.4246 -41.0451L-64.0834 -41.5679L-62.7349 -42.0665L-61.3797 -42.541L-60.0182 -42.9911L-58.6508 -43.4168L-57.2779 -43.8181L-55.9 -44.1949L-54.5175 -44.5471L-53.1309 -44.8748L-51.7405 -45.1778L-50.3469 -45.4561L-48.9504 -45.7097L-47.5515 -45.9386L-46.1506 -46.1429L-44.7481 -46.3224L-43.3445 -46.4772L-41.9403 -46.6073L-40.5358 -46.7127L-39.1315 -46.7936L-37.7277 -46.8498L-36.325 -46.8815L-34.9238 -46.8887L-33.5245 -46.8714L-32.1274 -46.8298L-30.7331 -46.7639L-29.342 -46.6738L-27.9544 -46.5595L-26.5708 -46.4213L-25.1916 -46.2591L-23.8172 -46.0731L-22.448 -45.8635L-21.0844 -45.6303L-19.7269 -45.3736L-18.3757 -45.0936L-17.0314 -44.7905L-15.6943 -44.4644L-14.3648 -44.1155L-13.0433 -43.7439L-11.7302 -43.3498L-10.4258 -42.9333L-9.13057 -42.4948L-7.84483 -42.0342L-6.56895 -41.552L-5.30332 -41.0482L-4.04828 -40.523L-2.80419 -39.9767L-1.57141 -39.4095L-0.350288 -38.8217L0.858837 -38.2134L2.05562 -37.5849L3.23974 -36.9365L4.41086 -36.2683L5.56864 -35.5807L6.71278 -34.8739L7.84296 -34.1482L8.95887 -33.4038L10.0602 -32.641L11.1467 -31.8601L12.218 -31.0614L13.2738 -30.2452L14.3139 -29.4118L15.3379 -28.5614L16.3457 -27.6944L17.3369 -26.811L18.3113 -25.9117L19.2687 -24.9966L20.2087 -24.0662L21.1311 -23.1208L22.0357 -22.1606L22.9223 -21.186L23.7907 -20.1974L24.6405 -19.1951L25.4717 -18.1793L26.284 -17.1506L27.0772 -16.1092L27.8511 -15.0554L28.6055 -13.9897L29.3402 -12.9123L30.0551 -11.8237L30.7501 -10.7242L31.4248 -9.61412L32.0793 -8.49389L32.7132 -7.36387L33.3266 -6.22443L33.9193 -5.07592L34.491 -3.91873L35.0418 -2.75324L35.5715 -1.57982L36.0799 -0.398856L36.567 0.78928L37.0328 1.9842L37.477 3.18553L37.8997 4.39287L38.3007 5.60585L38.68 6.82408L39.0375 8.04717L39.3732 9.27474L39.687 10.5064L39.9789 11.7418L40.2488 12.9804L40.4968 14.222L40.7227 15.4662L40.9267 16.7125L41.1086 17.9605L41.2685 19.21L41.4064 20.4604L41.5224 21.7115L41.6163 22.9627L41.6883 24.2138L41.7384 25.4644L41.7666 26.7141L41.773 27.9624L41.7577 29.2091L41.7206 30.4537L41.6619 31.6959L41.5816 32.9353L41.4798 34.1715L41.3567 35.4041L41.2122 36.6329L41.0465 37.8573L40.8597 39.0771L40.6519 40.2919L40.4233 41.5014L40.1739 42.7051L39.9038 43.9027L39.6133 45.0939L39.3024 46.2784L38.9714 47.4557L38.6202 48.6256L38.2492 49.7876L37.8585 50.9416L37.4482 52.0871L37.0186 53.2237L36.5697 54.3513L36.1019 55.4694L35.6152 56.5777L35.1099 57.676L34.5862 58.7639L34.0443 59.8411L33.4844 60.9074L32.9067 61.9623L32.3114 63.0056L31.6988 64.0371L31.0691 65.0564L30.4226 66.0633L29.7594 67.0574L29.0798 68.0386L28.3841 69.0065L27.6726 69.961L26.9454 70.9016L26.2029 71.8282L25.4453 72.7405L24.6729 73.6384L23.8859 74.5215L23.0847 75.3895L22.2695 76.2424L21.4406 77.0799L20.5983 77.9017L19.7428 78.7076L18.8746 79.4975L17.9938 80.2711L17.1008 81.0282L16.1959 81.7687L15.2794 82.4924L14.3516 83.199L13.4128 83.8885L12.4634 84.5606L11.5036 85.2152L10.5337 85.8521L9.55415 86.4712L8.5652 87.0723L7.5672 87.6554L6.56047 88.2202L5.54533 88.7666L4.52213 89.2946L3.4912 89.804L2.45286 90.2947L1.40746 90.7666L0.35534 91.2195L-0.703169 91.6535L-1.76772 92.0685L-2.83798 92.4642L-3.9136 92.8408L-4.99424 93.198L-6.07956 93.5359L-7.16921 93.8545L-8.26285 94.1535L-9.36013 94.4331L-10.4607 94.6931L-11.5642 94.9336L-12.6704 95.1545L-13.7788 95.3558L-14.8891 95.5375L-16.001 95.6996L-17.1141 95.8421L-18.2281 95.9649L-19.3427 96.0682L-20.4575 96.1519L-21.5721 96.2161L-22.6862 96.2607L-23.7995 96.2858L-24.9117 96.2915L-26.0223 96.2779L-27.1312 96.2448L-28.2378 96.1925L-29.342 96.121L-30.4433 96.0303L-31.5415 95.9206L-32.6362 95.7919L-33.727 95.6443L-34.8138 95.4779L-35.896 95.2928L-36.9735 95.089L-38.0459 94.8668L-39.1129 94.6263L-40.1741 94.3674L-41.2294 94.0905L-42.2782 93.7955L-43.3205 93.4827L-44.3558 93.1522L-45.3838 92.8041L-46.4043 92.4386L-47.417 92.0558L-48.4215 91.6559L-49.4176 91.2391L-50.405 90.8055L-51.3835 90.3554L-52.3527 89.8888L-53.3124 89.406L-54.2623 88.9072L-55.2021 88.3925L-56.1316 87.8622L-57.0506 87.3164L-57.9587 86.7554L-58.8557 86.1794L-59.7414 85.5886L-60.6155 84.9832L-61.4778 84.3634L-62.3281 83.7295L-63.1661 83.0816L-63.9917 82.4201L-64.8045 81.7452L-65.6043 81.057L-66.3911 80.3559L-67.1644 79.6421L-67.9243 78.9158L-68.6704 78.1774L-69.4025 77.427L-70.1205 76.6649L-70.8242 75.8914L-71.5134 75.1067L-72.1879 74.3111L-72.8476 73.5049L-73.4923 72.6884L-74.1219 71.8618L-74.7361 71.0255L-75.3349 70.1796L-75.9181 69.3245L-76.4855 68.4605L-77.0371 67.5878L-77.5726 66.7067L-78.0921 65.8176L-78.5953 64.9207L-79.0821 64.0163L-79.5525 63.1048L-80.0063 62.1863L-80.4434 61.2612L-80.8638 60.3299L-81.2674 59.3926L-81.654 58.4495L-82.0237 57.5011L-82.3763 56.5476L-82.7117 55.5894L-83.03 54.6266L-83.3311 53.6597L-83.6148 52.689L-83.8812 51.7146L-84.1303 50.7371L-84.362 49.7566L-84.5762 48.7734L-84.773 47.788L-84.9524 46.8005L-85.1143 45.8113L-85.2587 44.8207L-85.3856 43.829L-85.495 42.8366L-85.5871 41.8436L-85.6616 40.8505L-85.7188 39.8575L-85.7585 38.8649L-85.7809 37.873L-85.786 36.8822L-85.7738 35.8927L-85.7444 34.9049L-85.6978 33.919L-85.6341 32.9353L-85.5533 31.9541L-85.4555 30.9757L-85.3409 30.0005L-85.2094 29.0286L-85.0611 28.0605L-84.8962 27.0963L-84.7147 26.1363L-84.5167 25.181L-84.3024 24.2304L-84.0718 23.2849L-83.8251 22.3448L-83.5623 21.4104L-83.2836 20.4819L-82.9892 19.5595L-82.6791 18.6436L-82.3534 17.7345L-82.0124 16.8323L-81.6562 15.9374L-81.2848 15.0499L-80.8985 14.1702L-80.4975 13.2985L-80.0818 12.435L-79.6517 11.5801L-79.2073 10.7338L-78.7488 9.8965L-78.2763 9.0684L-77.7901 8.24972L-77.2903 7.44069L-76.7771 6.64153L-76.2508 5.85247L-75.7114 5.07371L-75.1592 4.30547L-74.5945 3.54795L-74.0173 2.80137L-73.428 2.06591L-72.8267 1.34179L-72.2136 0.629182L-71.589 -0.0717152L-70.9531 -0.76072L-70.306 -1.43765L-69.6481 -2.10233L-68.9796 -2.7546L-68.3006 -3.39427L-67.6115 -4.02119L-66.9124 -4.6352L-66.2037 -5.23614L-65.4855 -5.82387L-64.758 -6.39824L-64.0216 -6.9591L-63.2765 -7.50632L-62.5229 -8.03977L-61.7611 -8.55932L-60.9913 -9.06485L-60.2139 -9.55623L-59.4289 -10.0334L-58.6368 -10.4961L-57.8378 -10.9444L-57.0321 -11.3781L-56.22 -11.7972L-55.4017 -12.2015L-54.5776 -12.5909L-53.7478 -12.9655L-52.9128 -13.325L-52.0726 -13.6695L-51.2277 -13.9988L-50.3782 -14.3129L-49.5245 -14.6118L-48.6668 -14.8953L-47.8054 -15.1635L-46.9405 -15.4163L-46.0725 -15.6537L-45.2016 -15.8756L-44.3281 -16.082L-43.4522 -16.2729L-42.5742 -16.4482L-41.6945 -16.608L-40.8132 -16.7522L-39.9307 -16.8808L-39.0472 -16.9939L-38.163 -17.0914L-37.2784 -17.1734L-36.3936 -17.2398L-35.509 -17.2907L-34.6247 -17.3262L-33.741 -17.3461L-32.8583 -17.3507L-31.9768 -17.3398L-31.0967 -17.3136L-30.2184 -17.2721L-29.342 -17.2153L-28.4679 -17.1433L-27.5962 -17.0562L-26.7274 -16.9541L-25.8616 -16.8369L-24.999 -16.7048L-24.14 -16.5579L-23.2848 -16.3962L-22.4337 -16.2199L-21.5868 -16.0289L-20.7445 -15.8235L-19.907 -15.6037L-19.0745 -15.3696L-18.2473 -15.1213L-17.4255 -14.859L-16.6096 -14.5827L-15.7996 -14.2926L-14.9959 -13.9888L-14.1986 -13.6714L-13.4079 -13.3405L-12.6242 -12.9964L-11.8476 -12.6391L-11.0784 -12.2688L-10.3167 -11.8856L-9.56273 -11.4897L-8.81678 -11.0812L-8.07903 -10.6603L-7.34967 -10.2271L-6.6289 -9.78183L-5.91693 -9.32465L-5.21396 -8.85571L-4.52016 -8.37519L-3.83573 -7.88327L-3.16086 -7.38012L-2.49573 -6.86594L-1.84052 -6.3409L-1.1954 -5.80519L-0.560538 -5.25901L0.063891 -4.70254L0.677724 -4.13599L1.2808 -3.55955L1.87297 -2.97343L2.45407 -2.37783L3.02395 -1.77295L3.58247 -1.15901L4.12949 -0.536214L4.66487 0.095222L5.18848 0.735084L5.70018 1.38315L6.19986 2.03921L6.68738 2.70304L7.16263 3.37441L7.62549 4.05311L8.07586 4.73889L8.51364 5.43155L8.93871 6.13083L9.35098 6.83653L9.75036 7.5484L10.1368 8.2662L10.5101 8.98972L10.8703 9.7187L11.2172 10.4529L11.5509 11.1921L11.8712 11.9361L12.1781 12.6846L12.4715 13.4373L12.7514 14.1941L13.0176 14.9547L13.2702 15.7188L13.5092 16.4862L13.7344 17.2567L13.9459 18.0301L14.1435 18.806L14.3274 19.5842L14.4975 20.3645L14.6537 21.1467L14.796 21.9304L14.9245 22.7155L15.0391 23.5018L15.1399 24.2889L15.2267 25.0766L15.2998 25.8647L15.3589 26.653L15.4043 27.4411L15.4359 28.2289L15.4536 29.0162L15.4577 29.8026L15.448 30.5879L15.4246 31.372L15.3877 32.1545L15.3371 32.9353L15.273 33.714L15.1954 34.4905L15.1044 35.2646L15 36.036L14.8823 36.8044L14.7514 37.5697L14.6074 38.3316L14.4503 39.0899L14.2801 39.8443L14.0971 40.5947L13.9013 41.3409L13.6927 42.0826L13.4715 42.8195L13.2378 43.5516L12.9917 44.2785L12.7332 45.0001L12.4626 45.7162L12.1798 46.4265L11.8851 47.1309L11.5785 47.8291L11.2602 48.521L10.9303 49.2063L10.5889 49.8849L10.2361 50.5566L9.8722 51.2211L9.49721 51.8784L9.1113 52.5282L8.71462 53.1703L8.30731 53.8046L7.88954 54.4309L7.46145 55.049L7.02319 55.6587L6.57494 56.26L6.11686 56.8526L5.6491 57.4363L5.17184 58.011L4.68524 58.5766L4.18949 59.1329L3.68475 59.6798L3.1712 60.2171L2.64902 60.7446L2.1184 61.2623L1.57952 61.77L1.03256 62.2676L0.477713 62.755L-0.0848331 63.2319L-0.654885 63.6984L-1.23225 64.1543L-1.81673 64.5994L-2.40814 65.0338L-3.00626 65.4572L-3.61091 65.8695L-4.22187 66.2708L-4.83896 66.6608L-5.46195 67.0395L-6.09066 67.4068L-6.72486 67.7626L-7.36435 68.1068L-8.00893 68.4394L-8.65838 68.7603L-9.31249 69.0694L-9.97105 69.3667L-10.6338 69.6521L-11.3007 69.9255L-11.9713 70.1868L-12.6455 70.4362L-13.3231 70.6734L-14.0039 70.8984L-14.6876 71.1113L-15.374 71.3119L-16.063 71.5003L-16.7542 71.6765L-17.4475 71.8403L-18.1427 71.9918L-18.8395 72.1309L-19.5378 72.2578L-20.2372 72.3722L-20.9377 72.4743L-21.6389 72.5641L-22.3407 72.6415L-23.0428 72.7065L-23.7451 72.7593L-24.4472 72.7997L-25.1491 72.8278L-25.8505 72.8436L-26.5511 72.8472L-27.2507 72.8386L-27.9493 72.8178L-28.6464 72.7848L-29.342 72.7398L-30.0358 72.6827L-30.7276 72.6135L-31.4172 72.5325L-32.1044 72.4395L-32.789 72.3346L-33.4708 72.218L-34.1495 72.0897L-34.8251 71.9497L-35.4973 71.7982L-36.1658 71.6351L-36.8306 71.4606L-37.4913 71.2748L-38.1479 71.0778L-38.8001 70.8696L-39.4477 70.6503L-40.0906 70.42L-40.7285 70.1789L-41.3613 69.927L-41.9888 69.6644L-42.6109 69.3913L-43.2273 69.1077L-43.8378 68.8137L-44.4424 68.5096L-45.0408 68.1954L-45.6328 67.8711L-46.2184 67.5371L-46.7973 67.1932L-47.3694 66.8398L-47.9345 66.477L-48.4924 66.1048L-49.0431 65.7234L-49.5863 65.333L-50.122 64.9336L-50.6499 64.5255L-51.1699 64.1088L-51.6819 63.6836L-52.1858 63.2501L-52.6814 62.8084L-53.1686 62.3587L-53.6473 61.9012L-54.1173 61.436L-54.5785 60.9633L-55.0308 60.4832L-55.4741 59.9959L-55.9083 59.5016L-56.3332 59.0004L-56.7488 58.4926L-57.155 57.9782L-57.5516 57.4575L-57.9385 56.9306L-58.3157 56.3977L-58.6831 55.859L-59.0405 55.3147L-59.388 54.765L-59.7254 54.21L-60.0526 53.6498L-60.3696 53.0848L-60.6763 52.5151L-60.9726 51.9409L-61.2585 51.3623L-61.5339 50.7795L-61.7987 50.1928L-62.0529 49.6023L-62.2965 49.0083L-62.5294 48.4108L-62.7515 47.8101L-62.9628 47.2065L-63.1633 46.6L-63.353 45.9909L-63.5317 45.3793L-63.6996 44.7655L-63.8565 44.1497L-64.0024 43.532L-64.1374 42.9127L-64.2614 42.2919L-64.3743 41.6698L-64.4763 41.0467L-64.5673 40.4226L-64.6472 39.7979L-64.7162 39.1727L-64.7742 38.5472L-64.8211 37.9215L-64.8571 37.296L-64.8822 36.6707L-64.8963 36.0459L-64.8995 35.4217L-64.8918 34.7984L-64.8733 34.176L-64.8439 33.555L-64.8038 32.9353L-64.7529 32.3172L-64.6913 31.7008L-64.6191 31.0865L-64.5362 30.4742L-64.4428 29.8643L-64.3389 29.2569L-64.2246 28.6522L-64.0999 28.0504L-63.9649 27.4515L-63.8196 26.8559L-63.6642 26.2637L-63.4987 25.675L-63.3231 25.0901L-63.1376 24.5091L-62.9422 23.9321L-62.7371 23.3594L-62.5223 22.791L-62.2978 22.2273L-62.0639 21.6682L-61.8206 21.114L-61.5679 20.5649L-61.3061 20.0209L-61.0351 19.4823L-60.7552 18.9492L-60.4663 18.4218L-60.1687 17.9001L-59.8624 17.3843L-59.5475 16.8747L-59.2243 16.3713L-58.8927 15.8742L-58.5529 15.3836L-58.205 14.8996L-57.8493 14.4224L-57.4857 13.9521L-57.1144 13.4888L-56.7356 13.0326L-56.3494 12.5837L-55.9559 12.1422L-55.5553 11.7081L-55.1477 11.2817L-54.7333 10.863L-54.3121 10.4521L-53.8844 10.0491L-53.4503 9.65416L-53.0099 9.26735L-52.5634 8.88878L-52.1109 8.51854L-51.6527 8.15671L-51.1888 7.80339L-50.7194 7.45866L-50.2447 7.12261L-49.7648 6.79531L-49.2798 6.47685L-48.79 6.1673L-48.2956 5.86673L-47.7966 5.57521L-47.2932 5.2928L-46.7856 5.01957L-46.274 4.75559L-45.7586 4.5009L-45.2394 4.25555L-44.7167 4.01961L-44.1906 3.79312L-43.6614 3.57613L-43.1291 3.36867L-42.594 3.17078L-42.0562 2.98251L-41.5159 2.80388L-40.9732 2.63492L-40.4284 2.47567L-39.8816 2.32614L-39.3329 2.18635L-38.7826 2.05633L-38.2309 1.93609L-37.6778 1.82564L-37.1236 1.72498L-36.5684 1.63413L-36.0125 1.55309L-35.4559 1.48185L-34.8989 1.42042L-34.3416 1.36878L-33.7842 1.32693L-33.2269 1.29486L-32.6699 1.27255L-32.1132 1.25997L-31.5571 1.25712L-31.0018 1.26397L-30.4474 1.28048L-29.8941 1.30663L-29.342 1.3424L-28.7913 1.38773L-28.2422 1.44259L-27.6949 1.50695L-27.1495 1.58076L-26.6061 1.66396L-26.065 1.75652L-25.5262 1.85838L-24.99 1.96948L-24.4565 2.08976L-23.9259 2.21918L-23.3983 2.35765L-22.8739 2.50513L-22.3527 2.66153L-21.8351 2.82679L-21.3211 3.00084L-20.8108 3.1836L-20.3045 3.37499L-19.8022 3.57493L-19.3042 3.78333L-18.8105 4.00012L-18.3212 4.22521L-17.8366 4.45849L-17.3568 4.69989L-16.8818 4.94931L-16.4119 5.20665L-15.9472 5.47181L-15.4877 5.74469L-15.0336 6.02518L-14.5851 6.31319L-14.1423 6.6086L-13.7052 6.91131L-13.2741 7.2212L-12.8489 7.53816L-12.4299 7.86208L-12.0171 8.19283L-11.6107 8.53031L-11.2108 8.87438L-10.8174 9.22493L-10.4308 9.58184L-10.0508 9.94497L-9.6778 10.3142L-9.31173 10.6894L-8.95272 11.0705L-8.60088 11.4572L-8.25627 11.8496L-7.91901 12.2473L-7.58915 12.6504L-7.2668 13.0587L-6.95203 13.472L-6.64491 13.8902L-6.34552 14.3131L-6.05393 14.7406L-5.77022 15.1727L-5.49444 15.609L-5.22666 16.0495L-4.96694 16.4941L-4.71535 16.9425L-4.47193 17.3947L-4.23675 17.8505L-4.00984 18.3097L-3.79127 18.7723L-3.58107 19.2379L-3.37929 19.7066L-3.18597 20.1781L-3.00114 20.6523L-2.82485 21.1291L-2.65711 21.6082L-2.49797 22.0896L-2.34745 22.573L-2.20557 23.0584L-2.07235 23.5456L-1.94782 24.0344L-1.83198 24.5246L-1.72486 25.0162L-1.62646 25.5089L-1.53679 26.0026L-1.45585 26.4972L-1.38365 26.9925L-1.32018 27.4884L-1.26545 27.9846L-1.21945 28.4811L-1.18216 28.9777L-1.15359 29.4742L-1.13371 29.9705L-1.12251 30.4664L-1.11997 30.9618L-1.12607 31.4565L-1.14078 31.9505L-1.16408 32.4434L-1.19594 32.9353L-1.23632 33.4258L-1.2852 33.915L-1.34254 34.4027L-1.40829 34.8886L-1.48242 35.3727L-1.56488 35.8548L-1.65562 36.3347L-1.7546 36.8124L-1.86177 37.2877L-1.97706 37.7604L-2.10043 38.2305L-2.23181 38.6977L-2.37115 39.162L-2.51839 39.6231L-2.67344 40.0811L-2.83626 40.5357L-3.00677 40.9867L-3.1849 41.4342L-3.37057 41.8779L-3.5637 42.3178L-3.76423 42.7536L-3.97207 43.1854L-4.18713 43.6129L-4.40933 44.036L-4.6386 44.4546L-4.87483 44.8687L-5.11793 45.278L-5.36783 45.6825L-5.62441 46.0821L-5.88759 46.4767L-6.15728 46.866L-6.43336 47.2502L-6.71574 47.6289L-7.00431 48.0022L-7.29898 48.3699L-7.59964 48.732L-7.90618 49.0883L-8.21848 49.4388L-8.53645 49.7833L-8.85996 50.1217L-9.18891 50.4541L-9.52318 50.7802L-9.86266 51.1L-10.2072 51.4135L-10.5568 51.7205L-10.9111 52.021L-11.2702 52.3148L-11.634 52.602L-12.0022 52.8824L-12.3747 53.1561L-12.7515 53.4228L-13.1324 53.6826L-13.5173 53.9353L-13.906 54.181L-14.2985 54.4196L-14.6946 54.651L-15.0941 54.8751L-15.4969 55.092L-15.903 55.3015L-16.3121 55.5036L-16.7242 55.6984L-17.1391 55.8856L-17.5566 56.0654L-17.9767 56.2376L-18.3991 56.4023L-18.8239 56.5593L-19.2507 56.7088L-19.6796 56.8506L-20.1103 56.9847L-20.5427 57.1111L-20.9767 57.2297L-21.4122 57.3407L-21.8489 57.4439L-22.2869 57.5393L-22.7259 57.627L-23.1657 57.7069L-23.6064 57.779L-24.0476 57.8433L-24.4894 57.8999L-24.9315 57.9486L-25.3738 57.9896L-25.8162 58.0228L-26.2585 58.0483L-26.7006 58.066L-27.1425 58.076L-27.5838 58.0782L-28.0246 58.0728L-28.4646 58.0597L-28.9038 58.0389L-29.342 58.0105L-29.779 57.9746L-30.2149 57.931L-30.6493 57.8799L-31.0822 57.8214L-31.5135 57.7553L-31.943 57.6818L-32.3706 57.601L-32.7961 57.5128L-33.2196 57.4174L-33.6407 57.3146L-34.0595 57.2047L-34.4757 57.0877L-34.8893 56.9635L-35.3002 56.8324L-35.7082 56.6942L-36.1132 56.5492L-36.515 56.3973L-36.9137 56.2386L-37.309 56.0732L-37.7009 55.9011L-38.0892 55.7225L-38.4738 55.5373L-38.8546 55.3457L-39.2316 55.1477L-39.6046 54.9435L-39.9735 54.733L-40.3381 54.5164L-40.6985 54.2938L-41.0545 54.0652L-41.406 53.8307L-41.7529 53.5905L-42.0951 53.3445L-42.4325 53.093L-42.7651 52.8359L-43.0927 52.5733L-43.4153 52.3055L-43.7327 52.0324L-44.0449 51.7542L-44.3518 51.4709L-44.6534 51.1827L-44.9495 50.8896L-45.24 50.5918L-45.525 50.2894L-45.8042 49.9824L-46.0777 49.671L-46.3454 49.3553L-46.6072 49.0354L-46.8631 48.7113L-47.1129 48.3833L-47.3567 48.0514L-47.5943 47.7157L-47.8257 47.3763L-48.0509 47.0334L-48.2698 46.6871L-48.4823 46.3375L-48.6885 45.9846L-48.8882 45.6287L-49.0814 45.2698L-49.268 44.908L-49.4481 44.5435L-49.6216 44.1764L-49.7884 43.8068L-49.9486 43.4349L-50.102 43.0606L-50.2487 42.6842L-50.3887 42.3058L-50.5218 41.9256L-50.6481 41.5435L-50.7676 41.1598L-50.8802 40.7745L-50.9859 40.3879L-51.0847 39.9999L-51.1767 39.6108L-51.2617 39.2206L-51.3398 38.8296L-51.411 38.4377L-51.4752 38.0451L-51.5325 37.652L-51.5829 37.2585L-51.6263 36.8646L-51.6629 36.4705L-51.6924 36.0764L-51.7151 35.6823L-51.7309 35.2884L-51.7398 34.8948L-51.7418 34.5016L-51.737 34.1089L-51.7253 33.7169L-51.7068 33.3256L-51.6815 32.9353L-51.6495 32.5459L-51.6107 32.1576L-51.5652 31.7706L-51.513 31.3849L-51.4541 31.0007L-51.3887 30.6181L-51.3167 30.2371L-51.2381 29.858L-51.153 29.4807L-51.0615 29.1055L-50.9636 28.7324L-50.8593 28.3616L-50.7487 27.9931L-50.6319 27.6271L-50.5088 27.2636L-50.3796 26.9028L-50.2443 26.5448L-50.1029 26.1896L-49.9555 25.8375L-49.8022 25.4883L-49.6431 25.1424L-49.4781 24.7997L-49.3074 24.4604L-49.131 24.1246L-48.9491 23.7923L-48.7616 23.4637L-48.5686 23.1388L-48.3703 22.8177L-48.1666 22.5006L-47.9577 22.1874L-47.7437 21.8784L-47.5246 21.5735L-47.3004 21.2729L-47.0714 20.9766L-46.8375 20.6848L-46.5989 20.3974L-46.3556 20.1146L-46.1077 19.8364L-45.8553 19.563L-45.5986 19.2944L-45.3375 19.0306L-45.0722 18.7717L-44.8027 18.5179L-44.5293 18.2691L-44.2518 18.0254L-43.9706 17.7869L-43.6855 17.5537L-43.3969 17.3258L-43.1046 17.1032L-42.8089 16.886L-42.5098 16.6743L-42.2075 16.4681L-41.902 16.2675L-41.5935 16.0725L-41.282 15.8832L-40.9676 15.6995L-40.6505 15.5216L-40.3308 15.3495L-40.0085 15.1832L-39.6838 15.0227L-39.3567 14.8682L-39.0275 14.7195L-38.6961 14.5769L-38.3626 14.4402L-38.0273 14.3095L-37.6902 14.1848L-37.3514 14.0662L-37.011 13.9537L-36.6692 13.8472L-36.326 13.7469L-35.9815 13.6527L-35.6359 13.5647L-35.2892 13.4828L-34.9416 13.407L-34.5932 13.3374L-34.2441 13.274L-33.8944 13.2168L-33.5441 13.1657L-33.1935 13.1209L-32.8426 13.0822L-32.4916 13.0496L-32.1404 13.0233L-31.7894 13.0031L-31.4384 12.989L-31.0877 12.9811L-30.7374 12.9793L-30.3876 12.9836L-30.0383 12.994L-29.6898 13.0105L-29.342 13.033L-28.9951 13.0616L-28.6492 13.0961L-28.3044 13.1367L-27.9608 13.1832L-27.6185 13.2356L-27.2776 13.2939L-26.9382 13.3581L-26.6004 13.428L-26.2643 13.5038L-25.9301 13.5853L-25.5977 13.6726L-25.2673 13.7655L-24.939 13.864L-24.6129 13.9681L-24.2891 14.0778L-23.9677 14.1929L-23.6487 14.3135L-23.3323 14.4394L-23.0186 14.5707L-22.7075 14.7073L-22.3993 14.8491L-22.0941 14.996L-21.7918 15.1481L-21.4926 15.3052L-21.1966 15.4673L-20.9038 15.6344L-20.6143 15.8063L-20.3283 15.983L-20.0457 16.1644L-19.7668 16.3505L-19.4914 16.5412L-19.2198 16.7364L-18.952 16.9361L-18.688 17.1401L-18.428 17.3485L-18.172 17.5611L-17.9201 17.7779L-17.6723 17.9987L-17.4287 18.2235L-17.1893 18.4523L-16.9543 18.6849L-16.7237 18.9213L-16.4976 19.1613L-16.2759 19.4049L-16.0588 19.6521L-15.8464 19.9027L-15.6386 20.1566L-15.4355 20.4138L-15.2372 20.6742L-15.0437 20.9376L-14.8551 21.204L-14.6714 21.4734L-14.4927 21.7455L-14.319 22.0204L-14.1503 22.2979L-13.9867 22.578L-13.8282 22.8605L-13.6748 23.1453L-13.5267 23.4325L-13.3837 23.7218L-13.246 24.0131L-13.1136 24.3065L-12.9865 24.6017L-12.8647 24.8988L-12.7483 25.1975L-12.6372 25.4978L-12.5316 25.7997L-12.4313 26.1029L-12.3365 26.4075L-12.2471 26.7132L-12.1632 27.0201L-12.0847 27.328L-12.0118 27.6369L-11.9443 27.9466L-11.8823 28.257L-11.8258 28.568L-11.7748 28.8796L-11.7293 29.1916L-11.6894 29.5039L-11.6549 29.8165L-11.6259 30.1293L-11.6024 30.4421L-11.5844 30.7549L-11.5719 31.0676L-11.5648 31.38L-11.5632 31.6921L-11.5671 32.0037L-11.5763 32.3149L-11.591 32.6254L-11.6111 32.9353L-11.6365 33.2443L-11.6673 33.5525L-11.7034 33.8597L-11.7449 34.1658L-11.7916 34.4707L-11.8435 34.7744L-11.9007 35.0768L-11.963 35.3777L-12.0305 35.6771L-12.1032 35.9749L-12.1809 36.271L-12.2636 36.5654L-12.3514 36.8578L-12.4442 37.1484L-12.5419 37.4368L-12.6444 37.7232L-12.7518 38.0074L-12.8641 38.2893L-12.981 38.5688L-13.1027 38.8459L-13.229 39.1205L-13.3599 39.3924L-13.4954 39.6617L-13.6354 39.9283L-13.7798 40.192L-13.9286 40.4529L-14.0818 40.7107L-14.2392 40.9656L-14.4008 41.2173L-14.5666 41.4658L-14.7365 41.7111L-14.9105 41.9531L-15.0883 42.1917L-15.2701 42.4268L-15.4558 42.6585L-15.6452 42.8866L-15.8383 43.111L-16.035 43.3318L-16.2353 43.5488L-16.4391 43.7621L-16.6463 43.9714L-16.8569 44.1769L-17.0708 44.3783L-17.2878 44.5758L-17.508 44.7692L-17.7313 44.9585L-17.9575 45.1436L-18.1866 45.3245L-18.4186 45.5012L-18.6533 45.6736L-18.8906 45.8416L-19.1306 46.0052L-19.3731 46.1645L-19.618 46.3192L-19.8652 46.4695L-20.1147 46.6153L-20.3664 46.7565L-20.6202 46.8931L-20.876 47.0251L-21.1337 47.1524L-21.3933 47.2751L-21.6546 47.3931L-21.9177 47.5063L-22.1823 47.6148L-22.4484 47.7186L-22.716 47.8175L-22.9849 47.9116L-23.255 48.001L-23.5264 48.0854L-23.7988 48.1651L-24.0722 48.2398L-24.3465 48.3097L-24.6217 48.3747L-24.8975 48.4348L-25.1741 48.4901L-25.4512 48.5404L-25.7288 48.5858L-26.0067 48.6263L-26.285 48.662L-26.5635 48.6927L-26.8422 48.7185L-27.1209 48.7394L-27.3995 48.7555L-27.678 48.7666L-27.9564 48.7729L-28.2344 48.7743L-28.5121 48.7709L-28.7893 48.7627L-29.0659 48.7496L-29.342 48.7317L-29.6173 48.709L-29.8919 48.6816L-30.1655 48.6494L-30.4382 48.6125L-30.7099 48.5709L-30.9805 48.5246L-31.2499 48.4737L-31.518 48.4182L-31.7847 48.358L-32.05 48.2933L-32.3138 48.2241L-32.576 48.1503L-32.8366 48.0721L-33.0954 47.9895L-33.3524 47.9025L-33.6076 47.8111L-33.8607 47.7154L-34.1119 47.6154L-34.3609 47.5112L-34.6077 47.4028L-34.8524 47.2903L-35.0947 47.1736L-35.3346 47.0529L-35.5721 46.9282L-35.807 46.7996L-36.0394 46.667L-36.2691 46.5306L-36.4962 46.3903L-36.7204 46.2463L-36.9418 46.0986L-37.1604 45.9472L-37.3759 45.7923L-37.5885 45.6338L-37.798 45.4719L-38.0044 45.3065L-38.2076 45.1377L-38.4076 44.9657L-38.6043 44.7904L-38.7976 44.612L-38.9876 44.4304L-39.1741 44.2458L-39.3571 44.0582L-39.5366 43.8677L-39.7125 43.6743L-39.8848 43.4781L-40.0535 43.2792L-40.2184 43.0777L-40.3796 42.8736L-40.537 42.6669L-40.6905 42.4578L-40.8402 42.2463L-40.986 42.0326L-41.1279 41.8166L-41.2658 41.5984L-41.3996 41.3781L-41.5295 41.1558L-41.6553 40.9316L-41.777 40.7055L-41.8946 40.4776L-42.0081 40.248L-42.1173 40.0168L-42.2224 39.7839L-42.3233 39.5496L-42.42 39.3138L-42.5124 39.0767L-42.6006 38.8384L-42.6844 38.5988L-42.764 38.3581L-42.8393 38.1164L-42.9102 37.8737L-42.9768 37.6301L-43.0391 37.3857L-43.097 37.1406L-43.1505 36.8948L-43.1997 36.6484L-43.2446 36.4016L-43.2851 36.1543L-43.3212 35.9066L-43.3529 35.6587L-43.3803 35.4106L-43.4033 35.1623L-43.4219 34.9141L-43.4362 34.6658L-43.4461 34.4177L-43.4517 34.1697L-43.453 33.922L-43.4499 33.6746L-43.4426 33.4277L-43.4309 33.1812" stroke="black"/>
 </g>
</svg>
