<?xml version="1.0" encoding="utf-8"?>
<svg xmlns="http://www.w3.org/2000/svg" fill="none" version="1.1" viewBox="-256.118 -310.665 512.236 621.331" x="-256.118pt" y="-310.665pt" width="512.236pt" height="621.331pt" stroke-width="0.566929" stroke-miterlimit="10.000000">
 <path d="M160.157 -282.736L255.118 -282.736L255.118 -309.665L160.157 -309.665Z" fill="black"/>
 <path d="M208.063 -288.405L208.63 -288.405"/>
 <g transform="matrix(1.000000,-0.000000,-0.000000,1.000000,208.346457,-288.405422)">
  <path d="M-40.4207 -0M-30.8333 -6.75664C-31.2672 -5.70286 -32.0317 -3.8019 -32.197 -3.07872L-32.2177 -3.07872C-32.4036 -3.82257 -33.2508 -5.86816 -33.6847 -6.96327L-36.3295 -13.4926C-36.6808 -14.3398 -37.342 -14.3398 -37.7139 -14.3398L-39.4289 -14.3398C-40.1727 -14.3398 -40.4207 -14.1125 -40.4207 -13.348L-40.4207 -0.991801C-40.4207 -0.24795 -40.1934 -0 -39.4289 -0L-38.871 -0C-38.0858 -0 -37.8792 -0.268613 -37.8792 -0.991801L-37.8792 -11.6743L-37.8585 -11.6743C-37.6313 -10.7445 -36.7014 -8.45097 -36.2055 -7.23188L-33.8087 -1.34306C-33.4368 -0.454575 -32.9409 -0.454575 -32.2383 -0.454575C-31.5358 -0.454575 -31.0399 -0.454575 -30.668 -1.34306L-28.0232 -7.8311C-27.8166 -8.327 -26.7008 -11.1371 -26.5561 -11.6743L-26.5355 -11.6743L-26.5355 -0.991801C-26.5355 -0.3306 -26.3908 -0 -25.5437 -0L-24.9858 -0C-24.2006 -0 -23.994 -0.268613 -23.994 -0.991801L-23.994 -13.348C-23.994 -14.0092 -24.1386 -14.3398 -24.9858 -14.3398L-26.7214 -14.3398C-27.238 -14.3398 -27.7546 -14.2985 -28.1058 -13.4513ZM-28.1058 -13.4513" fill="#fff"/>
 </g>
 <g transform="matrix(1.000000,-0.000000,-0.000000,1.000000,208.346457,-288.405422)">
  <path d="M-20.2172 -0M-10.6298 -6.75664C-11.0637 -5.70286 -11.8283 -3.8019 -11.9936 -3.07872L-12.0142 -3.07872C-12.2002 -3.82257 -13.0473 -5.86816 -13.4813 -6.96327L-16.1261 -13.4926C-16.4773 -14.3398 -17.1385 -14.3398 -17.5104 -14.3398L-19.2254 -14.3398C-19.9693 -14.3398 -20.2172 -14.1125 -20.2172 -13.348L-20.2172 -0.991801C-20.2172 -0.24795 -19.9899 -0 -19.2254 -0L-18.6675 -0C-17.8824 -0 -17.6757 -0.268613 -17.6757 -0.991801L-17.6757 -11.6743L-17.6551 -11.6743C-17.4278 -10.7445 -16.498 -8.45097 -16.0021 -7.23188L-13.6052 -1.34306C-13.2333 -0.454575 -12.7374 -0.454575 -12.0349 -0.454575C-11.3324 -0.454575 -10.8364 -0.454575 -10.4645 -1.34306L-7.81972 -7.8311C-7.6131 -8.327 -6.49732 -11.1371 -6.35268 -11.6743L-6.33202 -11.6743L-6.33202 -0.991801C-6.33202 -0.3306 -6.18738 -0 -5.34022 -0L-4.78233 -0C-3.99716 -0 -3.79053 -0.268613 -3.79053 -0.991801L-3.79053 -13.348C-3.79053 -14.0092 -3.93517 -14.3398 -4.78233 -14.3398L-6.51798 -14.3398C-7.03455 -14.3398 -7.55111 -14.2985 -7.90237 -13.4513ZM-7.90237 -13.4513" fill="#fff"/>
 </g>
 <g transform="matrix(1.000000,-0.000000,-0.000000,1.000000,208.346457,-288.405422)">
  <path d="M-1.02624 -0M7.89997 -13.4513C7.59003 -14.3398 6.99082 -14.3398 6.57757 -14.3398L4.75927 -14.3398C4.34602 -14.3398 3.7468 -14.3398 3.43686 -13.4513L-0.922928 -0.971138C-1.02624 -0.702526 -1.02624 -0.661201 -1.02624 -0.557888C-1.02624 -0 -0.509677 -0 -0.220402 -0L0.523449 -0C0.895374 -0 1.53591 -0 1.82519 -0.826501L2.63103 -3.12004L8.35454 -3.12004L9.05707 -1.13644C9.30502 -0.41325 9.44966 -0 10.4415 -0L11.5572 -0C11.8465 -0 12.3631 -0 12.3631 -0.557888C12.3631 -0.661201 12.3631 -0.702526 12.2598 -0.971138ZM12.2598 -0.971138M4.7386 -9.27747C5.04854 -10.1866 5.31715 -10.9718 5.48245 -11.7156L5.50312 -11.7156C5.60643 -11.2197 5.60643 -11.1784 5.77173 -10.7032L7.73467 -4.89702L3.2509 -4.89702ZM3.2509 -4.89702" fill="#fff"/>
 </g>
 <g transform="matrix(1.000000,-0.000000,-0.000000,1.000000,208.346457,-288.405422)">
  <path d="M13.8876 -0M25.8512 -2.95474C25.8512 -3.12004 25.7065 -3.20269 25.6239 -3.20269C25.128 -3.20269 24.5288 -1.85963 21.6154 -1.85963C17.9788 -1.85963 16.9456 -4.09118 16.9456 -7.19056C16.9456 -10.2693 18.0614 -12.5008 21.4501 -12.5008C23.289 -12.5008 24.2602 -11.7776 24.8181 -11.3231C24.942 -11.2197 25.004 -11.1371 25.1487 -11.1371C25.2313 -11.1371 25.3346 -11.2404 25.3553 -11.3231L25.7685 -13.6166C25.7892 -13.6993 25.7685 -13.7819 25.6032 -13.8439C24.3841 -14.2985 23.1237 -14.5877 21.512 -14.5877C16.4704 -14.5877 13.8876 -12.1289 13.8876 -7.21122C13.8876 -2.1489 16.5117 0.206625 21.5327 0.206625C23.289 0.206625 24.3841 -0.041325 25.8925 -0.971138C26.0578 -1.07445 26.0165 -1.21909 26.0165 -1.21909ZM26.0165 -1.21909" fill="#fff"/>
 </g>
 <g transform="matrix(1.000000,-0.000000,-0.000000,1.000000,208.346457,-288.405422)">
  <path d="M28.0162 -0M36.9424 -13.4513C36.6325 -14.3398 36.0333 -14.3398 35.62 -14.3398L33.8017 -14.3398C33.3885 -14.3398 32.7893 -14.3398 32.4793 -13.4513L28.1195 -0.971138C28.0162 -0.702526 28.0162 -0.661201 28.0162 -0.557888C28.0162 -0 28.5328 -0 28.8221 -0L29.5659 -0C29.9378 -0 30.5784 -0 30.8676 -0.826501L31.6735 -3.12004L37.397 -3.12004L38.0995 -1.13644C38.3475 -0.41325 38.4921 -0 39.4839 -0L40.5997 -0C40.889 -0 41.4055 -0 41.4055 -0.557888C41.4055 -0.661201 41.4055 -0.702526 41.3022 -0.971138ZM41.3022 -0.971138M33.7811 -9.27747C34.091 -10.1866 34.3596 -10.9718 34.5249 -11.7156L34.5456 -11.7156C34.6489 -11.2197 34.6489 -11.1784 34.8142 -10.7032L36.7771 -4.89702L32.2934 -4.89702ZM32.2934 -4.89702" fill="#fff"/>
 </g>
 <path d="M208.063 -262.894L208.63 -262.894"/>
 <g transform="matrix(1.000000,-0.000000,-0.000000,1.000000,208.346457,-262.893611)">
  <path d="M-29.9114 -11.7579M-25.378 0.508103L-27.9029 -5.07257C-28.0033 -5.30211 -28.0751 -5.30211 -28.1181 -5.30211C-28.1324 -5.30211 -28.2042 -5.30211 -28.362 -5.18734L-29.7249 -4.15441C-29.9114 -4.01095 -29.9114 -3.96791 -29.9114 -3.92487C-29.9114 -3.85314 -29.8683 -3.76706 -29.7679 -3.76706C-29.6818 -3.76706 -29.4379 -3.96791 -29.2801 -4.08268C-29.1941 -4.15441 -28.9789 -4.31222 -28.8211 -4.42699L-25.9949 1.78491C-25.8944 2.01445 -25.8227 2.01445 -25.6936 2.01445C-25.4784 2.01445 -25.4354 1.92838 -25.3349 1.72753L-18.8218 -11.7579C-18.7213 -11.9587 -18.7213 -12.0161 -18.7213 -12.0448C-18.7213 -12.1883 -18.8361 -12.3317 -19.0083 -12.3317C-19.123 -12.3317 -19.2235 -12.26 -19.3382 -12.0305ZM-19.3382 -12.0305" fill="black"/>
 </g>
 <g transform="matrix(1.000000,-0.000000,-0.000000,1.000000,208.346457,-262.893611)">
  <path d="M-19.0034 -11.7579L-11.9799 -11.7579L-11.9799 -12.3317L-19.0034 -12.3317Z" fill="black"/>
 </g>
 <g transform="matrix(1.000000,-0.000000,-0.000000,1.000000,208.346457,-262.893611)">
  <path d="M-18.4153 -0M-16.3637 -5.15028C-16.6076 -5.13594 -16.665 -5.12159 -16.665 -4.99248C-16.665 -4.84901 -16.5933 -4.84901 -16.3351 -4.84901L-15.6751 -4.84901C-14.4557 -4.84901 -13.9105 -3.84478 -13.9105 -2.46755C-13.9105 -0.588194 -14.8861 -0.0860772 -15.589 -0.0860772C-16.2777 -0.0860772 -17.4541 -0.41604 -17.8701 -1.36289C-17.411 -1.29116 -16.995 -1.54939 -16.995 -2.06585C-16.995 -2.48189 -17.2962 -2.76882 -17.6979 -2.76882C-18.0422 -2.76882 -18.4153 -2.56797 -18.4153 -2.02281C-18.4153 -0.746002 -17.1384 0.30127 -15.546 0.30127C-13.8388 0.30127 -12.5763 -1.00423 -12.5763 -2.4532C-12.5763 -3.77305 -13.638 -4.80598 -15.0152 -5.04986C-13.7671 -5.40852 -12.9637 -6.45579 -12.9637 -7.57479C-12.9637 -8.70814 -14.1401 -9.54022 -15.5317 -9.54022C-16.9663 -9.54022 -18.0279 -8.6651 -18.0279 -7.61783C-18.0279 -7.04398 -17.5832 -6.92921 -17.368 -6.92921C-17.0667 -6.92921 -16.7224 -7.14441 -16.7224 -7.57479C-16.7224 -8.03387 -17.0667 -8.23472 -17.3823 -8.23472C-17.4684 -8.23472 -17.4971 -8.23472 -17.5401 -8.22037C-16.995 -9.19591 -15.6464 -9.19591 -15.5747 -9.19591C-15.1013 -9.19591 -14.1688 -8.98072 -14.1688 -7.57479C-14.1688 -7.30221 -14.2118 -6.49883 -14.6279 -5.88194C-15.0582 -5.25071 -15.546 -5.20767 -15.9334 -5.19332ZM-15.9334 -5.19332" fill="black"/>
 </g>
 <g transform="matrix(1.000000,-0.000000,-0.000000,1.000000,208.346457,-262.893611)">
  <path d="M-6.5228 -0M-1.12863 -10.2432C-1.0569 -10.4297 -1.0569 -10.4584 -1.0569 -10.4871C-1.0569 -10.6736 -1.20036 -10.7596 -1.31513 -10.7596C-1.50163 -10.7596 -1.54467 -10.6305 -1.6164 -10.444L-6.45107 3.07009C-6.5228 3.25659 -6.5228 3.28528 -6.5228 3.31397C-6.5228 3.47178 -6.40803 3.58655 -6.25022 3.58655C-6.06372 3.58655 -6.02068 3.44309 -5.9633 3.28528ZM-5.9633 3.28528" fill="black"/>
 </g>
 <g transform="matrix(1.000000,-0.000000,-0.000000,1.000000,208.346457,-262.893611)">
  <path d="M5.71396 -0M8.54016 -9.19591C8.54016 -9.52587 8.54016 -9.54022 8.25324 -9.54022C7.90893 -9.15287 7.19162 -8.62206 5.71396 -8.62206L5.71396 -8.20602C6.04392 -8.20602 6.76123 -8.20602 7.55027 -8.57903L7.55027 -1.10466C7.55027 -0.588194 7.50723 -0.41604 6.24477 -0.41604L5.80004 -0.41604L5.80004 -0C6.18738 -0.0286924 7.57897 -0.0286924 8.05239 -0.0286924C8.52581 -0.0286924 9.90305 -0.0286924 10.2904 -0L10.2904 -0.41604L9.84566 -0.41604C8.5832 -0.41604 8.54016 -0.588194 8.54016 -1.10466ZM8.54016 -1.10466" fill="black"/>
 </g>
 <g transform="matrix(1.000000,-0.000000,-0.000000,1.000000,208.346457,-262.893611)">
  <path d="M12.0202 -0M15.7072 -5.17898C16.4245 -5.56632 17.4718 -6.22625 17.4718 -7.43133C17.4718 -8.67945 16.2667 -9.54022 14.9468 -9.54022C13.5266 -9.54022 12.4076 -8.49295 12.4076 -7.18744C12.4076 -6.69967 12.551 -6.2119 12.9527 -5.72413C13.1105 -5.53763 13.1249 -5.52329 14.1291 -4.82032C12.7375 -4.17474 12.0202 -3.21355 12.0202 -2.16628C12.0202 -0.645579 13.4692 0.30127 14.9325 0.30127C16.5249 0.30127 17.8591 -0.875118 17.8591 -2.38147C17.8591 -3.84478 16.8262 -4.49036 15.7072 -5.17898ZM15.7072 -5.17898M13.7561 -6.47013C13.5696 -6.59925 12.9958 -6.97225 12.9958 -7.67521C12.9958 -8.60772 13.9713 -9.19591 14.9325 -9.19591C15.9654 -9.19591 16.8836 -8.44991 16.8836 -7.41698C16.8836 -6.54187 16.2524 -5.8389 15.4203 -5.37982ZM15.4203 -5.37982M14.4304 -4.61948L16.1663 -3.48613C16.5393 -3.24224 17.1992 -2.79751 17.1992 -1.92239C17.1992 -0.832079 16.0945 -0.0860772 14.9468 -0.0860772C13.7274 -0.0860772 12.6801 -0.975541 12.6801 -2.16628C12.6801 -3.28528 13.4979 -4.18909 14.4304 -4.61948ZM14.4304 -4.61948" fill="black"/>
 </g>
 <g transform="matrix(1.000000,-0.000000,-0.000000,1.000000,208.346457,-262.893611)">
  <path d="M19.0438 -0M24.8827 -4.59078C24.8827 -5.78152 24.811 -6.94356 24.2945 -8.03387C23.7063 -9.2246 22.6734 -9.54022 21.9704 -9.54022C21.1383 -9.54022 20.1198 -9.12418 19.589 -7.93345C19.1873 -7.02964 19.0438 -6.14017 19.0438 -4.59078C19.0438 -3.1992 19.1442 -2.15193 19.6607 -1.13335C20.2202 -0.0430386 21.2101 0.30127 21.9561 0.30127C23.2042 0.30127 23.9215 -0.444732 24.3375 -1.27681C24.854 -2.35278 24.8827 -3.7587 24.8827 -4.59078ZM24.8827 -4.59078M21.9561 0.0143462C21.497 0.0143462 20.5645 -0.243885 20.2919 -1.80762C20.1341 -2.66839 20.1341 -3.7587 20.1341 -4.76294C20.1341 -5.93933 20.1341 -7.00094 20.3636 -7.84737C20.6075 -8.80856 21.3392 -9.2533 21.9561 -9.2533C22.5012 -9.2533 23.3333 -8.92333 23.6059 -7.68956C23.7924 -6.87183 23.7924 -5.73848 23.7924 -4.76294C23.7924 -3.80174 23.7924 -2.71143 23.6346 -1.83631C23.362 -0.258232 22.4582 0.0143462 21.9561 0.0143462ZM21.9561 0.0143462" fill="black"/>
 </g>
 <g transform="matrix(1.000000,-0.000000,-0.000000,1.000000,208.346457,-262.893611)">
  <path d="M26.0271 -5.20611M29.9026 -7.69677C29.9026 -8.76277 29.0159 -9.62952 27.9698 -9.62952C26.8939 -9.62952 26.0271 -8.74285 26.0271 -7.69677C26.0271 -6.64073 26.8939 -5.76402 27.9698 -5.76402C29.0159 -5.76402 29.9026 -6.63077 29.9026 -7.69677ZM29.9026 -7.69677M27.9698 -6.16252C27.1031 -6.16252 26.4256 -6.85991 26.4256 -7.69677C26.4256 -8.53363 27.113 -9.23102 27.9698 -9.23102C28.7967 -9.23102 29.5041 -8.55356 29.5041 -7.69677C29.5041 -6.83998 28.7967 -6.16252 27.9698 -6.16252ZM27.9698 -6.16252" fill="black"/>
 </g>
 <g stroke-linecap="round" stroke-linejoin="round">
  <path d="M-43.2236 82.9746L-255.118 -284.037" stroke="black"/>
 </g>
 <g stroke-linecap="butt" stroke-linejoin="round" stroke-dasharray="2.000000" stroke-dashoffset="0.000000">
  <path d="M-43.2236 82.9746L-148.001 -308.058" stroke="black"/>
 </g>
 <g stroke-linecap="round" stroke-linejoin="round">
  <path d="M-43.2236 82.9746L-43.2236 -303.739" stroke="black"/>
 </g>
 <g stroke-linecap="butt" stroke-linejoin="round" stroke-dasharray="2.000000" stroke-dashoffset="0.000000">
  <path d="M-43.2236 82.9746L52.3869 -273.849" stroke="black"/>
 </g>
 <g stroke-linecap="round" stroke-linejoin="round">
  <path d="M-43.2236 82.9746L133.217 -222.63" stroke="black"/>
 </g>
 <g stroke-linecap="butt" stroke-linejoin="round" stroke-dasharray="2.000000" stroke-dashoffset="0.000000">
  <path d="M-43.2236 82.9746L195.137 -155.386" stroke="black"/>
 </g>
 <g stroke-linecap="round" stroke-linejoin="round">
  <path d="M-43.2236 82.9746L235.645 -78.0304" stroke="black"/>
 </g>
 <g stroke-linecap="butt" stroke-linejoin="round" stroke-dasharray="2.000000" stroke-dashoffset="0.000000">
  <path d="M-43.2236 82.9746L253.897 3.36128" stroke="black"/>
 </g>
 <g stroke-linecap="round" stroke-linejoin="round">
  <path d="M-43.2236 82.9746L250.615 82.9746" stroke="black"/>
 </g>
 <g stroke-linecap="butt" stroke-linejoin="round" stroke-dasharray="2.000000" stroke-dashoffset="0.000000">
  <path d="M-43.2236 82.9746L227.903 155.623" stroke="black"/>
 </g>
 <g stroke-linecap="round" stroke-linejoin="round">
  <path d="M-43.2236 82.9746L188.986 217.041" stroke="black"/>
 </g>
 <g stroke-linecap="butt" stroke-linejoin="round" stroke-dasharray="2.000000" stroke-dashoffset="0.000000">
  <path d="M-43.2236 82.9746L137.891 264.089" stroke="black"/>
 </g>
 <g stroke-linecap="round" stroke-linejoin="round">
  <path d="M-43.2236 82.9746L79.1137 294.869" stroke="black"/>
 </g>
 <g stroke-linecap="butt" stroke-linejoin="round" stroke-dasharray="2.000000" stroke-dashoffset="0.000000">
  <path d="M-43.2236 82.9746L17.2694 308.738" stroke="black"/>
 </g>
 <g stroke-linecap="round" stroke-linejoin="round">
  <path d="M-43.2236 82.9746L-43.2236 306.244" stroke="black"/>
 </g>
 <g stroke-linecap="butt" stroke-linejoin="round" stroke-dasharray="2.000000" stroke-dashoffset="0.000000">
  <path d="M-43.2236 82.9746L-98.4244 288.987" stroke="black"/>
 </g>
 <g stroke-linecap="round" stroke-linejoin="round">
  <path d="M-43.2236 82.9746L-145.092 259.416" stroke="black"/>
 </g>
 <g stroke-linecap="butt" stroke-linejoin="round" stroke-dasharray="2.000000" stroke-dashoffset="0.000000">
  <path d="M-43.2236 82.9746L-180.841 220.592" stroke="black"/>
 </g>
 <g stroke-linecap="round" stroke-linejoin="round">
  <path d="M-43.2236 82.9746L-204.229 175.931" stroke="black"/>
 </g>
 <g stroke-linecap="butt" stroke-linejoin="round" stroke-dasharray="2.000000" stroke-dashoffset="0.000000">
  <path d="M-43.2236 82.9746L-214.766 128.939" stroke="black"/>
 </g>
 <g stroke-linecap="round" stroke-linejoin="round">
  <path d="M-43.2236 82.9746L-212.872 82.9746" stroke="black"/>
 </g>
 <g stroke-linecap="butt" stroke-linejoin="round" stroke-dasharray="2.000000" stroke-dashoffset="0.000000">
  <path d="M-43.2236 82.9746L-199.759 41.031" stroke="black"/>
 </g>
 <g stroke-linecap="round" stroke-linejoin="round">
  <path d="M-43.2236 82.9746L-177.29 5.57144" stroke="black"/>
 </g>
 <g stroke-linecap="butt" stroke-linejoin="round" stroke-dasharray="2.000000" stroke-dashoffset="0.000000">
  <path d="M-43.2236 82.9746L-147.79 -21.5921" stroke="black"/>
 </g>
 <g stroke-linecap="round" stroke-linejoin="round">
  <path d="M-43.2236 82.9746L-113.855 -39.3628" stroke="black"/>
 </g>
 <g stroke-linecap="round" stroke-linejoin="round" stroke-width="1.603518">
  <path d="M-255.118 -284.037L-248.055 -286.55L-240.97 -288.932L-233.866 -291.183L-226.747 -293.303L-219.613 -295.293L-212.467 -297.152L-205.311 -298.88L-198.149 -300.479L-190.982 -301.948L-183.812 -303.288L-176.641 -304.498L-169.473 -305.58L-162.308 -306.534L-155.15 -307.36L-148.001 -308.058L-140.862 -308.631L-133.736 -309.077L-126.625 -309.397L-119.531 -309.593L-112.457 -309.665L-105.404 -309.614L-98.3739 -309.44L-91.3698 -309.144L-84.3932 -308.728L-77.4462 -308.191L-70.5307 -307.535L-63.6488 -306.761L-56.8024 -305.87L-49.9934 -304.862L-43.2236 -303.739L-36.4951 -302.502L-29.8096 -301.152L-23.1691 -299.69L-16.5751 -298.117L-10.0297 -296.434L-3.53446 -294.643L2.90882 -292.744L9.29847 -290.74L15.6328 -288.63L21.9102 -286.418L28.1289 -284.103L34.2875 -281.687L40.3844 -279.172L46.418 -276.559L52.3869 -273.849L58.2895 -271.044L64.1244 -268.145L69.8902 -265.154L75.5856 -262.072L81.209 -258.901L86.7594 -255.643L92.2353 -252.298L97.6354 -248.869L102.959 -245.356L108.204 -241.762L113.369 -238.089L118.455 -234.337L123.459 -230.509L128.38 -226.606L133.217 -222.63L137.97 -218.583L142.637 -214.465L147.218 -210.28L151.711 -206.028L156.116 -201.712L160.432 -197.333L164.657 -192.893L168.792 -188.394L172.836 -183.837L176.787 -179.224L180.645 -174.557L184.41 -169.838L188.08 -165.069L191.656 -160.251L195.137 -155.386L198.522 -150.476L201.81 -145.523L205.002 -140.529L208.097 -135.495L211.094 -130.423L213.994 -125.316L216.795 -120.174L219.498 -115L222.102 -109.796L224.607 -104.563L227.013 -99.3026L229.32 -94.0176L231.528 -88.7094L233.636 -83.3797L235.645 -78.0304L237.554 -72.6633L239.364 -67.2801L241.075 -61.8826L242.686 -56.4727L244.197 -51.052L245.61 -45.6224L246.923 -40.1855L248.138 -34.7432L249.254 -29.2972L250.272 -23.8491L251.192 -18.4008L252.014 -12.9539L252.739 -7.51017L253.366 -2.0712L253.897 3.36128L254.332 8.78563L254.671 14.2002L254.915 19.6033L255.063 24.9934L255.118 30.3689L255.079 35.7281L254.947 41.0694L254.722 46.3914L254.406 51.6925L253.998 56.9711L253.499 62.2257L252.911 67.4548L252.234 72.6569L251.468 77.8307L250.615 82.9746L249.675 88.0871L248.649 93.167L247.538 98.2127L246.343 103.223L245.064 108.196L243.703 113.132L242.261 118.028L240.738 122.883L239.135 127.696L237.454 132.466L235.695 137.191L233.859 141.87L231.948 146.503L229.962 151.088L227.903 155.623L225.772 160.108L223.57 164.541L221.297 168.923L218.955 173.25L216.546 177.523L214.07 181.74L211.528 185.901L208.923 190.004L206.254 194.049L203.523 198.034L200.732 201.96L197.881 205.824L194.972 209.626L192.007 213.365L188.986 217.041L185.91 220.652L182.782 224.198L179.602 227.679L176.371 231.093L173.092 234.44L169.764 237.719L166.39 240.93L162.972 244.072L159.509 247.144L156.004 250.146L152.458 253.078L148.872 255.939L145.249 258.728L141.588 261.445L137.891 264.089L134.161 266.661L130.397 269.16L126.602 271.585L122.777 273.937L118.924 276.214L115.043 278.417L111.136 280.546L107.205 282.6L103.25 284.578L99.2738 286.482L95.2771 288.31L91.2613 290.063L87.228 291.741L83.1783 293.343L79.1137 294.869L75.0355 296.32L70.9452 297.695L66.844 298.995L62.7334 300.219L58.6145 301.367L54.4889 302.441L50.3578 303.439L46.2225 304.362L42.0844 305.21L37.9448 305.983L33.805 306.682L29.6663 307.307L25.5299 307.857L21.3972 308.334L17.2694 308.738L13.1478 309.068L9.03358 309.325L4.92809 309.511L0.832501 309.624L-3.25195 309.665L-7.32406 309.636L-11.3826 309.535L-15.4265 309.364L-19.4544 309.124L-23.4652 308.814L-27.4579 308.435L-31.4312 307.988L-35.384 307.474L-39.3151 306.892L-43.2236 306.244L-47.1084 305.53L-50.9682 304.75L-54.8022 303.906L-58.6092 302.998L-62.3882 302.026L-66.1382 300.992L-69.8582 299.896L-73.5473 298.739L-77.2044 297.521L-80.8287 296.243L-84.4191 294.907L-87.9747 293.512L-91.4948 292.06L-94.9783 290.551L-98.4244 288.987L-101.832 287.367L-105.201 285.694L-108.53 283.967L-111.818 282.188L-115.065 280.357L-118.269 278.475L-121.431 276.544L-124.549 274.564L-127.622 272.536L-130.65 270.462L-133.633 268.341L-136.569 266.175L-139.458 263.964L-142.299 261.711L-145.092 259.416L-147.836 257.079L-150.531 254.702L-153.175 252.285L-155.769 249.83L-158.313 247.339L-160.804 244.81L-163.244 242.247L-165.631 239.649L-167.966 237.018L-170.247 234.355L-172.474 231.661L-174.648 228.936L-176.767 226.182L-178.832 223.401L-180.841 220.592L-182.795 217.757L-184.694 214.898L-186.537 212.014L-188.324 209.108L-190.054 206.18L-191.728 203.231L-193.345 200.262L-194.906 197.275L-196.409 194.271L-197.856 191.249L-199.245 188.212L-200.577 185.161L-201.852 182.096L-203.069 179.019L-204.229 175.931L-205.331 172.832L-206.376 169.724L-207.363 166.608L-208.293 163.484L-209.166 160.355L-209.982 157.22L-210.74 154.081L-211.441 150.939L-212.086 147.795L-212.673 144.649L-213.205 141.504L-213.679 138.359L-214.097 135.216L-214.46 132.076L-214.766 128.939L-215.017 125.808L-215.213 122.681L-215.354 119.562L-215.44 116.45L-215.471 113.346L-215.449 110.252L-215.372 107.168L-215.243 104.096L-215.06 101.035L-214.825 97.9877L-214.537 94.9539L-214.197 91.9349L-213.806 88.9314L-213.364 85.9444L-212.872 82.9746L-212.329 80.0228L-211.737 77.09L-211.095 74.1768L-210.405 71.2841L-209.667 68.4127L-208.881 65.5633L-208.048 62.7366L-207.169 59.9336L-206.243 57.1548L-205.273 54.4009L-204.257 51.6728L-203.197 48.9711L-202.094 46.2964L-200.948 43.6495L-199.759 41.031L-198.528 38.4416L-197.257 35.8819L-195.945 33.3525L-194.593 30.854L-193.202 28.387L-191.772 25.9521L-190.305 23.5499L-188.8 21.1809L-187.26 18.8457L-185.683 16.5447L-184.071 14.2785L-182.426 12.0476L-180.746 9.85249L-179.034 7.69362L-177.29 5.57144L-175.514 3.48639L-173.708 1.43891L-171.872 -0.570589L-170.007 -2.54172L-168.113 -4.47409L-166.192 -6.36733L-164.244 -8.2211L-162.27 -10.035L-160.271 -11.8088L-158.248 -13.5422L-156.201 -15.2348L-154.13 -16.8863L-152.038 -18.4966L-149.924 -20.0652L-147.79 -21.5921L-145.636 -23.077L-143.464 -24.5197L-141.273 -25.9199L-139.064 -27.2776L-136.839 -28.5924L-134.599 -29.8644L-132.343 -31.0933L-130.073 -32.279L-127.79 -33.4214L-125.495 -34.5205L-123.187 -35.5761L-120.869 -36.5882L-118.54 -37.5567L-116.202 -38.4815L-113.855 -39.3628L-111.501 -40.2004L-109.139 -40.9943L-106.771 -41.7446L-104.398 -42.4513L-102.02 -43.1145L-99.638 -43.7342L-97.2529 -44.3104L-94.8654 -44.8433L-92.4763 -45.333L-90.0863 -45.7795L-87.6961 -46.183L-85.3066 -46.5436L-82.9185 -46.8615L-80.5325 -47.1368L-78.1493 -47.3698L-75.7697 -47.5605L-73.3944 -47.7092L-71.024 -47.8161L-68.6595 -47.8814L-66.3013 -47.9054L-63.9503 -47.8882L-61.6071 -47.8303L-59.2723 -47.7317L-56.9468 -47.5928L-54.6312 -47.4139L-52.326 -47.1953L-50.032 -46.9373L-47.7499 -46.6402L-45.4802 -46.3043L-43.2236 -45.93L-40.9808 -45.5176L-38.7523 -45.0676L-36.5388 -44.5802L-34.3408 -44.0559L-32.159 -43.4949L-29.9939 -42.8979L-27.8462 -42.265L-25.7163 -41.5968L-23.6048 -40.8937L-21.5124 -40.1561L-19.4394 -39.3845L-17.3866 -38.5793L-15.3543 -37.7409L-13.3431 -36.8698L-11.3535 -35.9666L-9.38593 -35.0316L-7.44096 -34.0653L-5.51902 -33.0683L-3.62058 -32.0411L-1.74608 -30.9841L0.104033 -29.8979L1.92933 -28.783L3.72938 -27.6398L5.50379 -26.469L7.25215 -25.2711L8.97407 -24.0466L10.6692 -22.7961L12.3371 -21.52L13.9775 -20.219L15.59 -18.8937L17.1743 -17.5445L18.7301 -16.1721L20.2569 -14.777L21.7547 -13.3598L23.223 -11.921L24.6615 -10.4613L26.0701 -8.9813L27.4484 -7.48149L28.7962 -5.96249L30.1132 -4.4249L31.3993 -2.86932L32.6542 -1.29633L33.8777 0.293458L35.0697 1.89945L36.2299 3.52104L37.3581 5.15764L38.4543 6.80863L39.5183 8.47341L40.5499 10.1514L41.5489 11.8419L42.5154 13.5444L43.4492 15.2583L44.3501 16.983L45.2182 18.7178L46.0533 20.4622L46.8554 22.2155L47.6244 23.9772L48.3603 25.7466L49.063 27.5231L49.7326 29.3062L50.3691 31.0953L50.9723 32.8897L51.5424 34.6888L52.0794 36.4921L52.5833 38.299L53.0542 40.1089L53.492 41.9212L53.8969 43.7353L54.269 45.5506L54.6083 47.3667L54.9149 49.1828L55.1889 50.9984L55.4304 52.813L55.6396 54.626L55.8166 56.4368L55.9615 58.2449L56.0745 60.0498L56.1558 61.8508L56.2054 63.6475L56.2236 65.4393L56.2106 67.2257L56.1665 69.0062L56.0916 70.7802L55.9861 72.5472L55.8502 74.3067L55.6841 76.0583L55.488 77.8013L55.2622 79.5354L55.007 81.2599L54.7226 82.9746L54.4093 84.6787L54.0674 86.372L53.697 88.054L53.2986 89.7241L52.8724 91.3819L52.4187 93.027L51.9379 94.6589L51.4302 96.2773L50.8959 97.8816L50.3355 99.4716L49.7491 101.047L49.1373 102.606L48.5003 104.151L47.8384 105.679L47.1521 107.191L46.4416 108.686L45.7074 110.164L44.9499 111.624L44.1694 113.066L43.3662 114.491L42.5409 115.896L41.6937 117.283L40.8251 118.651L39.9355 119.999L39.0253 121.328L38.0949 122.636L37.1447 123.924L36.1751 125.192L35.1865 126.438L34.1795 127.663L33.1543 128.867L32.1115 130.049L31.0515 131.209L29.9746 132.347L28.8814 133.463L27.7723 134.556L26.6477 135.626L25.5081 136.674L24.3539 137.698L23.1856 138.699L22.0036 139.676L20.8084 140.629L19.6004 141.559L18.3801 142.465L17.148 143.346L15.9044 144.203L14.65 145.036L13.385 145.845L12.11 146.629L10.8255 147.388L9.53184 148.122L8.22956 148.832L6.91911 149.516L5.60093 150.176L4.2755 150.81L2.94326 151.42L1.60469 152.004L0.260225 152.563L-1.08967 153.097L-2.44453 153.606L-3.80391 154.09L-5.16736 154.548L-6.53442 154.981L-7.90464 155.389L-9.27758 155.772L-10.6528 156.13L-12.0298 156.463L-13.4083 156.77L-14.7876 157.053L-16.1675 157.311L-17.5474 157.544L-18.927 157.752L-20.3058 157.935L-21.6834 158.094L-23.0593 158.229L-24.4332 158.339L-25.8046 158.425L-27.1731 158.487L-28.5383 158.524L-29.8997 158.538L-31.2571 158.528L-32.61 158.495L-33.9579 158.438L-35.3006 158.358L-36.6375 158.254L-37.9684 158.128L-39.2928 157.979L-40.6104 157.808L-41.9208 157.614L-43.2236 157.398L-44.5185 157.16L-45.8052 156.9L-47.0831 156.618L-48.3521 156.316L-49.6118 155.992L-50.8618 155.647L-52.1018 155.282L-53.3315 154.896L-54.5506 154.49L-55.7586 154.064L-56.9554 153.619L-58.1407 153.154L-59.314 152.67L-60.4752 152.167L-61.6239 151.645L-62.7598 151.105L-63.8828 150.548L-64.9924 149.972L-66.0885 149.379L-67.1707 148.769L-68.2389 148.141L-69.2927 147.498L-70.332 146.838L-71.3564 146.162L-72.3658 145.47L-73.36 144.763L-74.3387 144.041L-75.3017 143.305L-76.2487 142.553L-77.1797 141.788L-78.0944 141.009L-78.9926 140.217L-79.8742 139.411L-80.7389 138.593L-81.5866 137.763L-82.4172 136.92L-83.2304 136.065L-84.0261 135.199L-84.8043 134.322L-85.5647 133.435L-86.3072 132.537L-87.0317 131.628L-87.7381 130.711L-88.4263 129.783L-89.0961 128.847L-89.7476 127.902L-90.3804 126.949L-90.9947 125.988L-91.5903 125.019L-92.1671 124.043L-92.7251 123.06L-93.2642 122.071L-93.7844 121.075L-94.2856 120.073L-94.7677 119.066L-95.2308 118.054L-95.6748 117.037L-96.0996 116.015L-96.5054 114.989L-96.892 113.96L-97.2594 112.927L-97.6077 111.891L-97.9369 110.852L-98.2469 109.811L-98.5378 108.768L-98.8097 107.723L-99.0624 106.677L-99.2962 105.629L-99.511 104.581L-99.7069 103.533L-99.8839 102.484L-100.042 101.436L-100.182 100.388L-100.302 99.3416L-100.405 98.2961L-100.488 97.2522L-100.553 96.2102L-100.6 95.1704L-100.629 94.133L-100.64 93.0985L-100.632 92.0672L-100.607 91.0392L-100.563 90.015L-100.502 88.9948L-100.424 87.9789L-100.328 86.9677L-100.215 85.9613L-100.084 84.9602L-99.9371 83.9645L-99.7729 82.9746L-99.5921 81.9906L-99.3946 81.013L-99.1808 80.042L-98.9508 79.0777L-98.7047 78.1206L-98.4428 77.1708L-98.1652 76.2286L-97.872 75.2942L-97.5636 74.368L-97.24 73.45L-96.9015 72.5406L-96.5482 71.6401L-96.1805 70.7485L-95.7983 69.8662L-95.4021 68.9934L-94.9919 68.1302L-94.568 67.277L-94.1306 66.4339L-93.68 65.601L-93.2163 64.7787L-92.7398 63.9671L-92.2507 63.1663L-91.7492 62.3767L-91.2356 61.5983L-90.7101 60.8313L-90.1729 60.0759L-89.6243 59.3322L-89.0645 58.6005L-88.4938 57.8809L-87.9124 57.1735L-87.3205 56.4785L-86.7184 55.796L-86.1064 55.1262L-85.4847 54.4691L-84.8535 53.825L-84.2132 53.1939L-83.5639 52.576L-82.9059 51.9714L-82.2396 51.3801L-81.565 50.8023L-80.8826 50.2381L-80.1925 49.6876L-79.4951 49.1509L-78.7906 48.628L-78.0792 48.119L-77.3612 47.624L-76.637 47.1431L-75.9066 46.6764L-75.1705 46.2239L-74.4289 45.7856L-73.682 45.3616L-72.9302 44.9519L-72.1736 44.5567L-71.4125 44.1759L-70.6473 43.8095L-69.8781 43.4577L-69.1053 43.1203L-68.3291 42.7975L-67.5497 42.4892L-66.7675 42.1954L-65.9826 41.9163L-65.1954 41.6516L-64.4062 41.4015L-63.6151 41.1659L-62.8224 40.9449L-62.0284 40.7383L-61.2334 40.5462L-60.4376 40.3686L-59.6412 40.2054L-58.8445 40.0565L-58.0478 39.922L-57.2513 39.8018L-56.4553 39.6959L-55.6599 39.6041L-54.8655 39.5265L-54.0723 39.4629L-53.2805 39.4133L-52.4904 39.3777L-51.7022 39.3559L-50.9162 39.3479L-50.1325 39.3536L-49.3514 39.373L-48.5732 39.4058L-47.798 39.4521L-47.0261 39.5117L-46.2578 39.5846L-45.4931 39.6706L-44.7324 39.7697L-43.9758 39.8816L-43.2236 40.0064L-42.476 40.1438L-41.7332 40.2938L-40.9954 40.4563L-40.2627 40.6311L-39.5354 40.8181L-38.8137 41.0171L-38.0978 41.228L-37.3878 41.4508L-36.684 41.6851L-35.9866 41.931L-35.2956 42.1882L-34.6113 42.4566L-33.9339 42.7361L-33.2635 43.0264L-32.6002 43.3275L-31.9444 43.6392L-31.2961 43.9613L-30.6554 44.2936L-30.0226 44.636L-29.3978 44.9883L-28.7811 45.3504L-28.1727 45.7221L-27.5726 46.1031L-26.9812 46.4934L-26.3984 46.8927L-25.8244 47.3008L-25.2594 47.7177L-24.7034 48.143L-24.1566 48.5767L-23.6191 49.0185L-23.091 49.4682L-22.5724 49.9257L-22.0634 50.3907L-21.5642 50.8631L-21.0748 51.3427L-20.5953 51.8293L-20.1257 52.3226L-19.6663 52.8225L-19.217 53.3289L-18.778 53.8414L-18.3493 54.3599L-17.931 54.8843L-17.5232 55.4142L-17.1259 55.9495L-16.7391 56.4901L-16.363 57.0356L-15.9977 57.5859L-15.643 58.1408L-15.2991 58.7002L-14.9661 59.2637L-14.644 59.8312L-14.3327 60.4025L-14.0324 60.9774L-13.743 61.5556L-13.4647 62.1371L-13.1973 62.7215L-12.941 63.3088L-12.6957 63.8986L-12.4614 64.4907L-12.2382 65.0851L-12.0261 65.6815L-11.825 66.2796L-11.6349 66.8793L-11.4559 67.4804L-11.288 68.0827L-11.131 68.686L-10.9851 69.2901L-10.8501 69.8948L-10.7261 70.4999L-10.613 71.1053L-10.5108 71.7106L-10.4195 72.3158L-10.3389 72.9207L-10.2692 73.525L-10.2102 74.1286L-10.1619 74.7313L-10.1242 75.333L-10.0972 75.9333L-10.0806 76.5322L-10.0746 77.1295L-10.0789 77.7249L-10.0936 78.3184L-10.1185 78.9098L-10.1537 79.4988L-10.199 80.0853L-10.2544 80.6691L-10.3198 81.2501L-10.395 81.8282L-10.4801 82.403L-10.5749 82.9746L-10.6793 83.5426L-10.7933 84.107L-10.9168 84.6677L-11.0496 85.2244L-11.1916 85.777L-11.3429 86.3254L-11.5031 86.8693L-11.6724 87.4088L-11.8505 87.9436L-12.0373 88.4736L-12.2327 88.9986L-12.4367 89.5185L-12.649 90.0333L-12.8696 90.5427L-13.0984 91.0466L-13.3352 91.5449L-13.5799 92.0375L-13.8325 92.5243L-14.0926 93.0052L-14.3604 93.4799L-14.6355 93.9485L-14.9179 94.4108L-15.2074 94.8668L-15.5039 95.3162L-15.8073 95.759L-16.1175 96.1951L-16.4342 96.6245L-16.7574 97.0469L-17.0869 97.4624L-17.4226 97.8708L-17.7643 98.2721L-18.1119 98.6661L-18.4653 99.0528L-18.8242 99.4322L-19.1886 99.8041L-19.5583 100.168L-19.9332 100.525L-20.3131 100.874L-20.6978 101.216L-21.0872 101.549L-21.4812 101.875L-21.8796 102.193L-22.2823 102.503L-22.6891 102.805L-23.0998 103.098L-23.5143 103.384L-23.9324 103.662L-24.3541 103.931L-24.7791 104.193L-25.2073 104.446L-25.6385 104.69L-26.0726 104.927L-26.5094 105.155L-26.9488 105.375L-27.3906 105.586L-27.8347 105.79L-28.2809 105.984L-28.729 106.171L-29.179 106.349L-29.6306 106.518L-30.0837 106.68L-30.5382 106.832L-30.9939 106.977L-31.4506 107.113L-31.9083 107.24L-32.3667 107.36L-32.8257 107.471L-33.2852 107.573L-33.745 107.667L-34.2049 107.753L-34.6649 107.831L-35.1248 107.9L-35.5844 107.962L-36.0435 108.015L-36.5022 108.059L-36.9602 108.096L-37.4173 108.125L-37.8734 108.145L-38.3285 108.158L-38.7823 108.162L-39.2348 108.159L-39.6857 108.148L-40.1351 108.129L-40.5826 108.102L-41.0283 108.068L-41.4719 108.026L-41.9134 107.976L-42.3526 107.919L-42.7894 107.854L-43.2236 107.782L-43.6553 107.703L-44.0841 107.616L-44.5101 107.522L-44.9331 107.422L-45.353 107.314L-45.7697 107.199L-46.183 107.077L-46.5929 106.948L-46.9993 106.813L-47.402 106.671L-47.8009 106.523L-48.196 106.368L-48.5871 106.206L-48.9742 106.039L-49.3571 105.865L-49.7357 105.685L-50.11 105.499L-50.4799 105.307L-50.8453 105.109L-51.206 104.906L-51.5621 104.697L-51.9133 104.482L-52.2598 104.262L-52.6012 104.037L-52.9377 103.806L-53.2691 103.571L-53.5953 103.33L-53.9163 103.085L-54.232 102.834L-54.5423 102.579L-54.8472 102.319L-55.1466 102.055L-55.4405 101.787L-55.7287 101.514L-56.0113 101.237L-56.2881 100.956L-56.5592 100.671L-56.8245 100.383L-57.0839 100.091L-57.3373 99.7946L-57.5848 99.4952L-57.8263 99.1925L-58.0618 98.8865L-58.2912 98.5775L-58.5145 98.2654L-58.7316 97.9504L-58.9426 97.6327L-59.1473 97.3123L-59.3459 96.9894L-59.5381 96.664L-59.7241 96.3364L-59.9038 96.0066L-60.0772 95.6746L-60.2443 95.3408L-60.405 95.0051L-60.5594 94.6676L-60.7073 94.3286L-60.849 93.9881L-60.9842 93.6462L-61.1131 93.303L-61.2356 92.9587L-61.3517 92.6134L-61.4614 92.2672L-61.5647 91.9201L-61.6617 91.5724L-61.7523 91.2241L-61.8366 90.8753L-61.9145 90.5262L-61.9861 90.1768L-62.0514 89.8273L-62.1104 89.4778L-62.1631 89.1284L-62.2096 88.7792L-62.2499 88.4302L-62.2839 88.0818L-62.3118 87.7338L-62.3336 87.3864L-62.3492 87.0398L-62.3588 86.694L-62.3623 86.3492L-62.3598 86.0054L-62.3513 85.6628L-62.3369 85.3214L-62.3166 84.9813L-62.2904 84.6427L-62.2584 84.3056L-62.2207 83.9702L-62.1773 83.6364L-62.1281 83.3045L-62.0734 82.9746L-62.0131 82.6466L-61.9473 82.3207L-61.876 81.997L-61.7994 81.6756L-61.7173 81.3566L-61.63 81.04L-61.5375 80.7259L-61.4398 80.4144L-61.337 80.1057L-61.2291 79.7997L-61.1163 79.4966L-60.9985 79.1964L-60.8759 78.8992L-60.7485 78.6051L-60.6165 78.3142L-60.4797 78.0265L-60.3384 77.742L-60.1926 77.461L-60.0424 77.1834L-59.8879 76.9093L-59.729 76.6387L-59.566 76.3718L-59.3988 76.1086L-59.2276 75.8491L-59.0525 75.5935L-58.8734 75.3417L-58.6905 75.0938L-58.5039 74.8499L-58.3137 74.61L-58.1199 74.3742L-57.9226 74.1425L-57.7219 73.915L-57.5179 73.6918L-57.3106 73.4727L-57.1003 73.258L-56.8868 73.0477L-56.6704 72.8417L-56.4511 72.6402L-56.2289 72.4431L-56.0041 72.2505L-55.7766 72.0624L-55.5466 71.8789L-55.3141 71.7L-55.0793 71.5257L-54.8422 71.356L-54.6028 71.191L-54.3614 71.0308L-54.118 70.8752L-53.8726 70.7243L-53.6254 70.5782L-53.3764 70.4369L-53.1258 70.3004L-52.8736 70.1686L-52.6199 70.0417L-52.3649 69.9196L-52.1085 69.8023L-51.8509 69.6898L-51.5921 69.5822L-51.3323 69.4794L-51.0716 69.3815L-50.81 69.2885L-50.5476 69.2002L-50.2845 69.1169L-50.0208 69.0383L-49.7566 68.9647L-49.4919 68.8958L-49.2269 68.8318L-48.9616 68.7726L-48.6962 68.7182L-48.4306 68.6686L-48.165 68.6237L-47.8995 68.5837L-47.6342 68.5483L-47.3691 68.5177L-47.1043 68.4919L-46.8399 68.4707L-46.5759 68.4541L-46.3126 68.4423L-46.0498 68.435L-45.7878 68.4323L-45.5266 68.4342L-45.2662 68.4407L-45.0068 68.4516L-44.7484 68.4671L-44.4911 68.487L-44.235 68.5112L-43.9801 68.5399L-43.7266 68.5729L-43.4744 68.6102" stroke="black"/>
 </g>
</svg>
