<?xml version="1.0" encoding="utf-8"?>
<svg xmlns="http://www.w3.org/2000/svg" fill="none" version="1.1" viewBox="-256.118 -309.822 512.236 619.645" x="-256.118pt" y="-309.822pt" width="512.236pt" height="619.645pt" stroke-width="0.566929" stroke-miterlimit="10.000000">
 <path d="M160.157 -281.893L255.118 -281.893L255.118 -308.822L160.157 -308.822Z" fill="black"/>
 <path d="M208.063 -287.563L208.63 -287.563"/>
 <g transform="matrix(1.000000,-0.000000,-0.000000,1.000000,208.346457,-287.562646)">
  <path d="M-40.4207 -0M-30.8333 -6.75664C-31.2672 -5.70286 -32.0317 -3.8019 -32.197 -3.07872L-32.2177 -3.07872C-32.4036 -3.82257 -33.2508 -5.86816 -33.6847 -6.96327L-36.3295 -13.4926C-36.6808 -14.3398 -37.342 -14.3398 -37.7139 -14.3398L-39.4289 -14.3398C-40.1727 -14.3398 -40.4207 -14.1125 -40.4207 -13.348L-40.4207 -0.991801C-40.4207 -0.24795 -40.1934 -0 -39.4289 -0L-38.871 -0C-38.0858 -0 -37.8792 -0.268613 -37.8792 -0.991801L-37.8792 -11.6743L-37.8585 -11.6743C-37.6313 -10.7445 -36.7014 -8.45097 -36.2055 -7.23188L-33.8087 -1.34306C-33.4368 -0.454575 -32.9409 -0.454575 -32.2383 -0.454575C-31.5358 -0.454575 -31.0399 -0.454575 -30.668 -1.34306L-28.0232 -7.8311C-27.8166 -8.327 -26.7008 -11.1371 -26.5561 -11.6743L-26.5355 -11.6743L-26.5355 -0.991801C-26.5355 -0.3306 -26.3908 -0 -25.5437 -0L-24.9858 -0C-24.2006 -0 -23.994 -0.268613 -23.994 -0.991801L-23.994 -13.348C-23.994 -14.0092 -24.1386 -14.3398 -24.9858 -14.3398L-26.7214 -14.3398C-27.238 -14.3398 -27.7546 -14.2985 -28.1058 -13.4513ZM-28.1058 -13.4513" fill="#fff"/>
 </g>
 <g transform="matrix(1.000000,-0.000000,-0.000000,1.000000,208.346457,-287.562646)">
  <path d="M-20.2172 -0M-10.6298 -6.75664C-11.0637 -5.70286 -11.8283 -3.8019 -11.9936 -3.07872L-12.0142 -3.07872C-12.2002 -3.82257 -13.0473 -5.86816 -13.4813 -6.96327L-16.1261 -13.4926C-16.4773 -14.3398 -17.1385 -14.3398 -17.5104 -14.3398L-19.2254 -14.3398C-19.9693 -14.3398 -20.2172 -14.1125 -20.2172 -13.348L-20.2172 -0.991801C-20.2172 -0.24795 -19.9899 -0 -19.2254 -0L-18.6675 -0C-17.8824 -0 -17.6757 -0.268613 -17.6757 -0.991801L-17.6757 -11.6743L-17.6551 -11.6743C-17.4278 -10.7445 -16.498 -8.45097 -16.0021 -7.23188L-13.6052 -1.34306C-13.2333 -0.454575 -12.7374 -0.454575 -12.0349 -0.454575C-11.3324 -0.454575 -10.8364 -0.454575 -10.4645 -1.34306L-7.81972 -7.8311C-7.6131 -8.327 -6.49732 -11.1371 -6.35268 -11.6743L-6.33202 -11.6743L-6.33202 -0.991801C-6.33202 -0.3306 -6.18738 -0 -5.34022 -0L-4.78233 -0C-3.99716 -0 -3.79053 -0.268613 -3.79053 -0.991801L-3.79053 -13.348C-3.79053 -14.0092 -3.93517 -14.3398 -4.78233 -14.3398L-6.51798 -14.3398C-7.03455 -14.3398 -7.55111 -14.2985 -7.90237 -13.4513ZM-7.90237 -13.4513" fill="#fff"/>
 </g>
 <g transform="matrix(1.000000,-0.000000,-0.000000,1.000000,208.346457,-287.562646)">
  <path d="M-1.02624 -0M7.89997 -13.4513C7.59003 -14.3398 6.99082 -14.3398 6.57757 -14.3398L4.75927 -14.3398C4.34602 -14.3398 3.7468 -14.3398 3.43686 -13.4513L-0.922928 -0.971138C-1.02624 -0.702526 -1.02624 -0.661201 -1.02624 -0.557888C-1.02624 -0 -0.509677 -0 -0.220402 -0L0.523449 -0C0.895374 -0 1.53591 -0 1.82519 -0.826501L2.63103 -3.12004L8.35454 -3.12004L9.05707 -1.13644C9.30502 -0.41325 9.44966 -0 10.4415 -0L11.5572 -0C11.8465 -0 12.3631 -0 12.3631 -0.557888C12.3631 -0.661201 12.3631 -0.702526 12.2598 -0.971138ZM12.2598 -0.971138M4.7386 -9.27747C5.04854 -10.1866 5.31715 -10.9718 5.48245 -11.7156L5.50312 -11.7156C5.60643 -11.2197 5.60643 -11.1784 5.77173 -10.7032L7.73467 -4.89702L3.2509 -4.89702ZM3.2509 -4.89702" fill="#fff"/>
 </g>
 <g transform="matrix(1.000000,-0.000000,-0.000000,1.000000,208.346457,-287.562646)">
  <path d="M13.8876 -0M25.8512 -2.95474C25.8512 -3.12004 25.7065 -3.20269 25.6239 -3.20269C25.128 -3.20269 24.5288 -1.85963 21.6154 -1.85963C17.9788 -1.85963 16.9456 -4.09118 16.9456 -7.19056C16.9456 -10.2693 18.0614 -12.5008 21.4501 -12.5008C23.289 -12.5008 24.2602 -11.7776 24.8181 -11.3231C24.942 -11.2197 25.004 -11.1371 25.1487 -11.1371C25.2313 -11.1371 25.3346 -11.2404 25.3553 -11.3231L25.7685 -13.6166C25.7892 -13.6993 25.7685 -13.7819 25.6032 -13.8439C24.3841 -14.2985 23.1237 -14.5877 21.512 -14.5877C16.4704 -14.5877 13.8876 -12.1289 13.8876 -7.21122C13.8876 -2.1489 16.5117 0.206625 21.5327 0.206625C23.289 0.206625 24.3841 -0.041325 25.8925 -0.971138C26.0578 -1.07445 26.0165 -1.21909 26.0165 -1.21909ZM26.0165 -1.21909" fill="#fff"/>
 </g>
 <g transform="matrix(1.000000,-0.000000,-0.000000,1.000000,208.346457,-287.562646)">
  <path d="M28.0162 -0M36.9424 -13.4513C36.6325 -14.3398 36.0333 -14.3398 35.62 -14.3398L33.8017 -14.3398C33.3885 -14.3398 32.7893 -14.3398 32.4793 -13.4513L28.1195 -0.971138C28.0162 -0.702526 28.0162 -0.661201 28.0162 -0.557888C28.0162 -0 28.5328 -0 28.8221 -0L29.5659 -0C29.9378 -0 30.5784 -0 30.8676 -0.826501L31.6735 -3.12004L37.397 -3.12004L38.0995 -1.13644C38.3475 -0.41325 38.4921 -0 39.4839 -0L40.5997 -0C40.889 -0 41.4055 -0 41.4055 -0.557888C41.4055 -0.661201 41.4055 -0.702526 41.3022 -0.971138ZM41.3022 -0.971138M33.7811 -9.27747C34.091 -10.1866 34.3596 -10.9718 34.5249 -11.7156L34.5456 -11.7156C34.6489 -11.2197 34.6489 -11.1784 34.8142 -10.7032L36.7771 -4.89702L32.2934 -4.89702ZM32.2934 -4.89702" fill="#fff"/>
 </g>
 <path d="M208.063 -262.051L208.63 -262.051"/>
 <g transform="matrix(1.000000,-0.000000,-0.000000,1.000000,208.346457,-262.050835)">
  <path d="M-25.3378 -0M-21.9951 -5.40852L-20.374 -5.40852C-20.7614 -3.80174 -21.0053 -2.75447 -21.0053 -1.60677C-21.0053 -1.40593 -21.0053 0.143462 -20.4171 0.143462C-20.1158 0.143462 -19.8576 -0.129116 -19.8576 -0.373001C-19.8576 -0.444732 -19.8576 -0.473424 -19.958 -0.688617C-20.3453 -1.6785 -20.3453 -2.91228 -20.3453 -3.0127C-20.3453 -3.09878 -20.3453 -4.11736 -20.0441 -5.40852L-18.4373 -5.40852C-18.2508 -5.40852 -17.7774 -5.40852 -17.7774 -5.86759C-17.7774 -6.18321 -18.0499 -6.18321 -18.3082 -6.18321L-23.0281 -6.18321C-23.358 -6.18321 -23.8458 -6.18321 -24.5057 -5.48025C-24.8787 -5.06421 -25.3378 -4.30386 -25.3378 -4.21778C-25.3378 -4.1317 -25.2661 -4.10301 -25.18 -4.10301C-25.0796 -4.10301 -25.0652 -4.14605 -24.9935 -4.23213C-24.2475 -5.40852 -23.5015 -5.40852 -23.1428 -5.40852L-22.3251 -5.40852C-22.6407 -4.33255 -22.9994 -3.08443 -24.1758 -0.573848C-24.2905 -0.344309 -24.2905 -0.315616 -24.2905 -0.229539C-24.2905 0.071731 -24.0323 0.143462 -23.9032 0.143462C-23.4871 0.143462 -23.3724 -0.229539 -23.2002 -0.832079C-22.9707 -1.56374 -22.9707 -1.59243 -22.8272 -2.16628ZM-22.8272 -2.16628" fill="black"/>
 </g>
 <g transform="matrix(1.000000,-0.000000,-0.000000,1.000000,208.346457,-262.050835)">
  <path d="M-11.7706 -0M-6.37645 -10.2432C-6.30472 -10.4297 -6.30472 -10.4584 -6.30472 -10.4871C-6.30472 -10.6736 -6.44818 -10.7596 -6.56295 -10.7596C-6.74945 -10.7596 -6.79249 -10.6305 -6.86422 -10.444L-11.6989 3.07009C-11.7706 3.25659 -11.7706 3.28528 -11.7706 3.31397C-11.7706 3.47178 -11.6559 3.58655 -11.498 3.58655C-11.3115 3.58655 -11.2685 3.44309 -11.2111 3.28528ZM-11.2111 3.28528" fill="black"/>
 </g>
 <g transform="matrix(1.000000,-0.000000,-0.000000,1.000000,208.346457,-262.050835)">
  <path d="M-0.251172 -0M1.80033 -5.15028C1.55645 -5.13594 1.49906 -5.12159 1.49906 -4.99248C1.49906 -4.84901 1.57079 -4.84901 1.82903 -4.84901L2.48895 -4.84901C3.70838 -4.84901 4.25353 -3.84478 4.25353 -2.46755C4.25353 -0.588194 3.27799 -0.0860772 2.57503 -0.0860772C1.88641 -0.0860772 0.710023 -0.41604 0.293983 -1.36289C0.753061 -1.29116 1.1691 -1.54939 1.1691 -2.06585C1.1691 -2.48189 0.867831 -2.76882 0.466137 -2.76882C0.121829 -2.76882 -0.251172 -2.56797 -0.251172 -2.02281C-0.251172 -0.746002 1.02564 0.30127 2.61807 0.30127C4.32526 0.30127 5.58773 -1.00423 5.58773 -2.4532C5.58773 -3.77305 4.52611 -4.80598 3.14888 -5.04986C4.397 -5.40852 5.20038 -6.45579 5.20038 -7.57479C5.20038 -8.70814 4.02399 -9.54022 2.63241 -9.54022C1.19779 -9.54022 0.136175 -8.6651 0.136175 -7.61783C0.136175 -7.04398 0.580907 -6.92921 0.7961 -6.92921C1.09737 -6.92921 1.44168 -7.14441 1.44168 -7.57479C1.44168 -8.03387 1.09737 -8.23472 0.781754 -8.23472C0.695677 -8.23472 0.666984 -8.23472 0.623946 -8.22037C1.1691 -9.19591 2.51764 -9.19591 2.58937 -9.19591C3.0628 -9.19591 3.9953 -8.98072 3.9953 -7.57479C3.9953 -7.30221 3.95226 -6.49883 3.53622 -5.88194C3.10584 -5.25071 2.61807 -5.20767 2.23072 -5.19332ZM2.23072 -5.19332" fill="black"/>
 </g>
 <g transform="matrix(1.000000,-0.000000,-0.000000,1.000000,208.346457,-262.050835)">
  <path d="M6.7724 -0M7.94879 -4.99248C7.94879 -8.62206 9.71337 -9.19591 10.4881 -9.19591C11.0045 -9.19591 11.521 -9.0381 11.7936 -8.60772C11.6214 -8.60772 11.0763 -8.60772 11.0763 -8.01952C11.0763 -7.70391 11.2915 -7.43133 11.6645 -7.43133C12.0231 -7.43133 12.267 -7.64652 12.267 -8.06256C12.267 -8.80856 11.7218 -9.54022 10.4737 -9.54022C8.6661 -9.54022 6.7724 -7.68956 6.7724 -4.5334C6.7724 -0.588194 8.49394 0.30127 9.71337 0.30127C11.2771 0.30127 12.6113 -1.06162 12.6113 -2.92662C12.6113 -4.83467 11.2771 -6.11148 9.84249 -6.11148C8.56568 -6.11148 8.09225 -5.00682 7.94879 -4.60513ZM7.94879 -4.60513M9.71337 -0.0860772C8.80956 -0.0860772 8.37917 -0.889464 8.25006 -1.19073C8.12094 -1.56374 7.97748 -2.2667 7.97748 -3.27093C7.97748 -4.40428 8.49394 -5.82456 9.7851 -5.82456C10.5741 -5.82456 10.9902 -5.29375 11.2054 -4.80598C11.4349 -4.27517 11.4349 -3.55786 11.4349 -2.94097C11.4349 -2.20931 11.4349 -1.56374 11.1623 -1.01858C10.8037 -0.329963 10.2872 -0.0860772 9.71337 -0.0860772ZM9.71337 -0.0860772" fill="black"/>
 </g>
 <g transform="matrix(1.000000,-0.000000,-0.000000,1.000000,208.346457,-262.050835)">
  <path d="M13.796 -0M19.6349 -4.59078C19.6349 -5.78152 19.5631 -6.94356 19.0467 -8.03387C18.4585 -9.2246 17.4256 -9.54022 16.7226 -9.54022C15.8905 -9.54022 14.8719 -9.12418 14.3411 -7.93345C13.9394 -7.02964 13.796 -6.14017 13.796 -4.59078C13.796 -3.1992 13.8964 -2.15193 14.4129 -1.13335C14.9724 -0.0430386 15.9622 0.30127 16.7083 0.30127C17.9564 0.30127 18.6737 -0.444732 19.0897 -1.27681C19.6062 -2.35278 19.6349 -3.7587 19.6349 -4.59078ZM19.6349 -4.59078M16.7083 0.0143462C16.2492 0.0143462 15.3167 -0.243885 15.0441 -1.80762C14.8863 -2.66839 14.8863 -3.7587 14.8863 -4.76294C14.8863 -5.93933 14.8863 -7.00094 15.1158 -7.84737C15.3597 -8.80856 16.0914 -9.2533 16.7083 -9.2533C17.2534 -9.2533 18.0855 -8.92333 18.3581 -7.68956C18.5446 -6.87183 18.5446 -5.73848 18.5446 -4.76294C18.5446 -3.80174 18.5446 -2.71143 18.3868 -1.83631C18.1142 -0.258232 17.2104 0.0143462 16.7083 0.0143462ZM16.7083 0.0143462" fill="black"/>
 </g>
 <g transform="matrix(1.000000,-0.000000,-0.000000,1.000000,208.346457,-262.050835)">
  <path d="M20.7793 -5.20611M24.6548 -7.69677C24.6548 -8.76277 23.7681 -9.62952 22.722 -9.62952C21.646 -9.62952 20.7793 -8.74285 20.7793 -7.69677C20.7793 -6.64073 21.646 -5.76402 22.722 -5.76402C23.7681 -5.76402 24.6548 -6.63077 24.6548 -7.69677ZM24.6548 -7.69677M22.722 -6.16252C21.8553 -6.16252 21.1778 -6.85991 21.1778 -7.69677C21.1778 -8.53363 21.8652 -9.23102 22.722 -9.23102C23.5489 -9.23102 24.2563 -8.55356 24.2563 -7.69677C24.2563 -6.83998 23.5489 -6.16252 22.722 -6.16252ZM22.722 -6.16252" fill="black"/>
 </g>
 <g stroke-linecap="round" stroke-linejoin="round">
  <path d="M-41.4757 86.0433L-255.118 -283.996" stroke="black"/>
 </g>
 <g stroke-linecap="butt" stroke-linejoin="round" stroke-dasharray="2.000000" stroke-dashoffset="0.000000">
  <path d="M-41.4757 86.0433L-146.914 -307.458" stroke="black"/>
 </g>
 <g stroke-linecap="round" stroke-linejoin="round">
  <path d="M-41.4757 86.0433L-41.4757 -302.365" stroke="black"/>
 </g>
 <g stroke-linecap="butt" stroke-linejoin="round" stroke-dasharray="2.000000" stroke-dashoffset="0.000000">
  <path d="M-41.4757 86.0433L54.3694 -271.656" stroke="black"/>
 </g>
 <g stroke-linecap="round" stroke-linejoin="round">
  <path d="M-41.4757 86.0433L135.059 -219.723" stroke="black"/>
 </g>
 <g stroke-linecap="butt" stroke-linejoin="round" stroke-dasharray="2.000000" stroke-dashoffset="0.000000">
  <path d="M-41.4757 86.0433L196.553 -151.986" stroke="black"/>
 </g>
 <g stroke-linecap="round" stroke-linejoin="round">
  <path d="M-41.4757 86.0433L236.47 -74.429" stroke="black"/>
 </g>
 <g stroke-linecap="butt" stroke-linejoin="round" stroke-dasharray="2.000000" stroke-dashoffset="0.000000">
  <path d="M-41.4757 86.0433L254.094 6.84578" stroke="black"/>
 </g>
 <g stroke-linecap="round" stroke-linejoin="round">
  <path d="M-41.4757 86.0433L250.268 86.0433" stroke="black"/>
 </g>
 <g stroke-linecap="butt" stroke-linejoin="round" stroke-dasharray="2.000000" stroke-dashoffset="0.000000">
  <path d="M-41.4757 86.0433L227.201 158.035" stroke="black"/>
 </g>
 <g stroke-linecap="round" stroke-linejoin="round">
  <path d="M-41.4757 86.0433L188.193 218.643" stroke="black"/>
 </g>
 <g stroke-linecap="butt" stroke-linejoin="round" stroke-dasharray="2.000000" stroke-dashoffset="0.000000">
  <path d="M-41.4757 86.0433L137.314 264.833" stroke="black"/>
 </g>
 <g stroke-linecap="round" stroke-linejoin="round">
  <path d="M-41.4757 86.0433L79.0592 294.816" stroke="black"/>
 </g>
 <g stroke-linecap="butt" stroke-linejoin="round" stroke-dasharray="2.000000" stroke-dashoffset="0.000000">
  <path d="M-41.4757 86.0433L18.0116 308.053" stroke="black"/>
 </g>
 <g stroke-linecap="round" stroke-linejoin="round">
  <path d="M-41.4757 86.0433L-41.4757 305.179" stroke="black"/>
 </g>
 <g stroke-linecap="butt" stroke-linejoin="round" stroke-dasharray="2.000000" stroke-dashoffset="0.000000">
  <path d="M-41.4757 86.0433L-95.5505 287.853" stroke="black"/>
 </g>
 <g stroke-linecap="round" stroke-linejoin="round">
  <path d="M-41.4757 86.0433L-141.075 258.554" stroke="black"/>
 </g>
 <g stroke-linecap="butt" stroke-linejoin="round" stroke-dasharray="2.000000" stroke-dashoffset="0.000000">
  <path d="M-41.4757 86.0433L-175.769 220.337" stroke="black"/>
 </g>
 <g stroke-linecap="round" stroke-linejoin="round">
  <path d="M-41.4757 86.0433L-198.29 176.58" stroke="black"/>
 </g>
 <g stroke-linecap="butt" stroke-linejoin="round" stroke-dasharray="2.000000" stroke-dashoffset="0.000000">
  <path d="M-41.4757 86.0433L-208.233 130.726" stroke="black"/>
 </g>
 <g stroke-linecap="round" stroke-linejoin="round">
  <path d="M-41.4757 86.0433L-206.074 86.0433" stroke="black"/>
 </g>
 <g stroke-linecap="butt" stroke-linejoin="round" stroke-dasharray="2.000000" stroke-dashoffset="0.000000">
  <path d="M-41.4757 86.0433L-193.06 45.4263" stroke="black"/>
 </g>
 <g stroke-linecap="round" stroke-linejoin="round">
  <path d="M-41.4757 86.0433L-171.053 11.2321" stroke="black"/>
 </g>
 <g stroke-linecap="butt" stroke-linejoin="round" stroke-dasharray="2.000000" stroke-dashoffset="0.000000">
  <path d="M-41.4757 86.0433L-142.347 -14.8279" stroke="black"/>
 </g>
 <g stroke-linecap="round" stroke-linejoin="round">
  <path d="M-41.4757 86.0433L-109.48 -31.7439" stroke="black"/>
 </g>
 <g stroke-linecap="round" stroke-linejoin="round" stroke-width="1.603518">
  <path d="M-255.118 -283.996L-247.97 -286.482L-240.802 -288.835L-233.617 -291.056L-226.418 -293.144L-219.206 -295.1L-211.984 -296.924L-204.754 -298.616L-197.519 -300.177L-190.281 -301.607L-183.042 -302.907L-175.804 -304.075L-168.571 -305.115L-161.343 -306.024L-154.123 -306.806L-146.914 -307.458L-139.718 -307.984L-132.536 -308.382L-125.371 -308.654L-118.226 -308.801L-111.101 -308.822L-104 -308.72L-96.9244 -308.495L-89.8762 -308.147L-82.8574 -307.678L-75.8702 -307.088L-68.9165 -306.378L-61.9982 -305.55L-55.1174 -304.605L-48.2759 -303.543L-41.4757 -302.365L-34.7185 -301.073L-28.0064 -299.667L-21.341 -298.15L-14.7241 -296.522L-8.15764 -294.784L-1.64323 -292.937L4.81739 -290.984L11.2225 -288.924L17.5705 -286.76L23.8598 -284.492L30.0886 -282.123L36.2556 -279.653L42.359 -277.085L48.3975 -274.418L54.3694 -271.656L60.2735 -268.798L66.1082 -265.848L71.8722 -262.805L77.564 -259.673L83.1824 -256.452L88.7262 -253.144L94.1939 -249.751L99.5844 -246.273L104.896 -242.714L110.129 -239.074L115.281 -235.355L120.351 -231.559L125.338 -227.687L130.241 -223.741L135.059 -219.723L139.791 -215.635L144.436 -211.478L148.994 -207.254L153.463 -202.964L157.842 -198.612L162.131 -194.197L166.329 -189.723L170.435 -185.19L174.449 -180.601L178.37 -175.958L182.196 -171.262L185.928 -166.515L189.566 -161.718L193.107 -156.875L196.553 -151.986L199.902 -147.053L203.155 -142.078L206.309 -137.063L209.367 -132.01L212.326 -126.921L215.186 -121.797L217.948 -116.641L220.611 -111.453L223.175 -106.237L225.64 -100.993L228.005 -95.7239L230.271 -90.4311L232.437 -85.1165L234.504 -79.7818L236.47 -74.429L238.338 -69.0597L240.105 -63.6758L241.773 -58.2791L243.342 -52.8714L244.811 -47.4543L246.181 -42.0297L247.452 -36.5993L248.625 -31.1648L249.699 -25.728L250.674 -20.2906L251.553 -14.8544L252.333 -9.42093L253.016 -3.99197L253.603 1.43082L254.094 6.84578L254.488 12.2513L254.787 17.6456L254.992 23.0272L255.102 28.3945L255.118 33.7458L255.041 39.0796L254.872 44.3944L254.611 49.6885L254.258 54.9604L253.815 60.2087L253.282 65.4318L252.66 70.6283L251.95 75.7967L251.152 80.9355L250.268 86.0433L249.297 91.1188L248.242 96.1605L247.102 101.167L245.879 106.137L244.573 111.069L243.186 115.962L241.719 120.815L240.172 125.626L238.546 130.394L236.843 135.118L235.064 139.797L233.208 144.429L231.279 149.014L229.276 153.549L227.201 158.035L225.055 162.47L222.839 166.852L220.554 171.182L218.201 175.457L215.781 179.677L213.297 183.841L210.748 187.948L208.136 191.997L205.462 195.987L202.728 199.917L199.935 203.787L197.083 207.595L194.175 211.341L191.211 215.024L188.193 218.643L185.122 222.197L182 225.686L178.827 229.11L175.605 232.466L172.336 235.756L169.02 238.978L165.659 242.131L162.255 245.215L158.808 248.23L155.32 251.175L151.793 254.049L148.227 256.852L144.624 259.584L140.986 262.245L137.314 264.833L133.609 267.349L129.872 269.791L126.105 272.161L122.31 274.457L118.487 276.68L114.639 278.829L110.766 280.903L106.869 282.904L102.951 284.829L99.0122 286.681L95.0543 288.457L91.0787 290.159L87.0868 291.786L83.0798 293.338L79.0592 294.816L75.0262 296.218L70.9822 297.546L66.9286 298.799L62.8667 299.977L58.7978 301.08L54.7232 302.11L50.6443 303.064L46.5623 303.945L42.4786 304.752L38.3945 305.485L34.3112 306.144L30.23 306.731L26.1521 307.244L22.0789 307.685L18.0116 308.053L13.9514 308.349L9.89958 308.574L5.85731 308.728L1.82582 308.81L-2.1937 308.822L-6.20007 308.765L-10.1921 308.638L-14.1686 308.441L-18.1285 308.177L-22.0707 307.844L-25.9939 307.444L-29.8971 306.976L-33.7792 306.443L-37.6391 305.844L-41.4757 305.179L-45.288 304.45L-49.0749 303.657L-52.8355 302.801L-56.5686 301.883L-60.2734 300.902L-63.9487 299.86L-67.5938 298.758L-71.2075 297.596L-74.7889 296.375L-78.3373 295.096L-81.8515 293.759L-85.3308 292.366L-88.7743 290.916L-92.1812 289.412L-95.5505 287.853L-98.8815 286.241L-102.173 284.577L-105.425 282.86L-108.637 281.093L-111.806 279.276L-114.934 277.409L-118.019 275.495L-121.06 273.533L-124.057 271.525L-127.009 269.471L-129.916 267.373L-132.776 265.231L-135.59 263.047L-138.356 260.82L-141.075 258.554L-143.744 256.247L-146.365 253.902L-148.936 251.518L-151.458 249.098L-153.929 246.643L-156.348 244.152L-158.717 241.628L-161.034 239.071L-163.298 236.482L-165.51 233.862L-167.669 231.212L-169.775 228.534L-171.827 225.828L-173.825 223.095L-175.769 220.337L-177.659 217.554L-179.494 214.747L-181.273 211.918L-182.998 209.067L-184.668 206.196L-186.282 203.305L-187.84 200.396L-189.342 197.469L-190.789 194.526L-192.18 191.567L-193.514 188.594L-194.792 185.608L-196.014 182.61L-197.18 179.6L-198.29 176.58L-199.343 173.551L-200.341 170.513L-201.282 167.469L-202.167 164.418L-202.996 161.361L-203.769 158.301L-204.486 155.237L-205.147 152.171L-205.753 149.104L-206.304 146.036L-206.799 142.969L-207.24 139.903L-207.625 136.84L-207.956 133.781L-208.233 130.726L-208.455 127.676L-208.624 124.633L-208.739 121.596L-208.802 118.568L-208.811 115.549L-208.767 112.54L-208.672 109.541L-208.525 106.554L-208.326 103.58L-208.076 100.619L-207.775 97.6721L-207.424 94.7403L-207.023 91.8244L-206.573 88.9251L-206.074 86.0433L-205.527 83.1798L-204.931 80.3353L-204.288 77.5107L-203.598 74.7066L-202.861 71.9239L-202.079 69.1632L-201.251 66.4254L-200.378 63.711L-199.461 61.0209L-198.5 58.3556L-197.496 55.716L-196.45 53.1026L-195.361 50.5161L-194.231 47.9571L-193.06 45.4263L-191.849 42.9243L-190.599 40.4517L-189.31 38.0091L-187.982 35.597L-186.617 33.216L-185.216 30.8667L-183.777 28.5497L-182.304 26.2653L-180.795 24.0142L-179.253 21.7968L-177.677 19.6136L-176.068 17.4651L-174.427 15.3517L-172.755 13.2739L-171.053 11.2321L-169.32 9.2267L-167.558 7.25813L-165.768 5.32676L-163.951 3.43295L-162.106 1.57706L-160.235 -0.24056L-158.339 -2.01959L-156.418 -3.75971L-154.474 -5.46064L-152.506 -7.12207L-150.516 -8.74374L-148.504 -10.3254L-146.471 -11.8668L-144.419 -13.3677L-142.347 -14.8279L-140.256 -16.2472L-138.148 -17.6254L-136.023 -18.9624L-133.882 -20.2579L-131.725 -21.5119L-129.554 -22.7241L-127.369 -23.8946L-125.17 -25.0232L-122.96 -26.1097L-120.737 -27.1542L-118.504 -28.1566L-116.262 -29.1168L-114.009 -30.0347L-111.749 -30.9104L-109.48 -31.7439L-107.205 -32.5352L-104.923 -33.2842L-102.636 -33.991L-100.345 -34.6558L-98.0489 -35.2784L-95.7501 -35.859L-93.4488 -36.3977L-91.1458 -36.8946L-88.8418 -37.3497L-86.5376 -37.7633L-84.2338 -38.1354L-81.9313 -38.4661L-79.6306 -38.7557L-77.3325 -39.0044L-75.0378 -39.2122L-72.7471 -39.3794L-70.4611 -39.5062L-68.1805 -39.5928L-65.9059 -39.6395L-63.6382 -39.6464L-61.3778 -39.6138L-59.1256 -39.542L-56.882 -39.4313L-54.6479 -39.282L-52.4238 -39.0942L-50.2104 -38.8684L-48.0082 -38.6048L-45.818 -38.3038L-43.6403 -37.9657L-41.4757 -37.5908L-39.3248 -37.1796L-37.1883 -36.7322L-35.0666 -36.2492L-32.9604 -35.7309L-30.8702 -35.1777L-28.7966 -34.5899L-26.7401 -33.9681L-24.7013 -33.3125L-22.6807 -32.6236L-20.6788 -31.9019L-18.6961 -31.1477L-16.7331 -30.3616L-14.7903 -29.5439L-12.8682 -28.6951L-10.9672 -27.8158L-9.08791 -26.9062L-7.23067 -25.9671L-5.39595 -24.9987L-3.58417 -24.0016L-1.79577 -22.9764L-0.0311506 -21.9234L1.70928 -20.8432L3.42512 -19.7364L5.11601 -18.6033L6.78155 -17.4447L8.4214 -16.2609L10.0352 -15.0525L11.6226 -13.82L13.1833 -12.5641L14.7169 -11.2852L16.2232 -9.98381L17.7019 -8.66058L19.1526 -7.31603L20.5751 -5.95071L21.9691 -4.56519L23.3343 -3.16003L24.6706 -1.73579L25.9777 -0.293035L27.2553 1.16765L28.5032 2.64571L29.7213 4.14056L30.9093 5.65163L32.0671 7.17834L33.1945 8.72012L34.2913 10.2764L35.3573 11.8465L36.3925 13.43L37.3968 15.0263L38.3699 16.6346L39.3118 18.2546L40.2223 19.8856L41.1015 21.5269L41.9492 23.1782L42.7653 24.8386L43.5499 26.5078L44.3028 28.185L45.024 29.8698L45.7135 31.5615L46.3713 33.2595L46.9973 34.9634L47.5917 36.6725L48.1543 38.3862L48.6852 40.1041L49.1845 41.8254L49.6521 43.5497L50.0883 45.2764L50.4929 47.005L50.8661 48.7348L51.208 50.4654L51.5186 52.1962L51.7981 53.9266L52.0465 55.6561L52.2641 57.3842L52.4508 59.1103L52.6069 60.834L52.7325 62.5546L52.8278 64.2716L52.8928 65.9847L52.9279 67.6931L52.9331 69.3965L52.9086 71.0943L52.8547 72.786L52.7715 74.4712L52.6593 76.1493L52.5183 77.8199L52.3487 79.4825L52.1507 81.1366L51.9246 82.7817L51.6707 84.4174L51.3891 86.0433L51.0802 87.6589L50.7442 89.2637L50.3814 90.8573L49.9921 92.4394L49.5765 94.0093L49.135 95.5669L48.6679 97.1116L48.1755 98.643L47.6581 100.161L47.116 101.664L46.5495 103.154L45.959 104.628L45.3448 106.087L44.7073 107.531L44.0468 108.959L43.3636 110.371L42.6582 111.766L41.9308 113.144L41.1819 114.505L40.4118 115.848L39.6209 117.173L38.8095 118.481L37.9781 119.769L37.1271 121.04L36.2568 122.291L35.3676 123.522L34.46 124.734L33.5342 125.927L32.5909 127.099L31.6302 128.251L30.6527 129.382L29.6588 130.493L28.6489 131.583L27.6234 132.651L26.5827 133.698L25.5272 134.724L24.4574 135.727L23.3738 136.709L22.2766 137.669L21.1664 138.606L20.0436 139.521L18.9086 140.414L17.7618 141.283L16.6037 142.13L15.4348 142.954L14.2554 143.755L13.066 144.532L11.8671 145.286L10.6589 146.017L9.44215 146.725L8.21709 147.409L6.98421 148.069L5.74394 148.706L4.49672 149.319L3.24299 149.908L1.98317 150.474L0.717704 151.015L-0.552975 151.533L-1.82844 152.027L-3.10825 152.498L-4.39199 152.944L-5.67922 153.367L-6.96953 153.765L-8.26248 154.14L-9.55765 154.492L-10.8546 154.819L-12.153 155.123L-13.4523 155.404L-14.7522 155.66L-16.0522 155.894L-17.352 156.104L-18.6511 156.29L-19.9491 156.454L-21.2456 156.594L-22.5403 156.711L-23.8327 156.806L-25.1224 156.877L-26.4091 156.926L-27.6924 156.952L-28.9718 156.956L-30.2471 156.938L-31.5178 156.897L-32.7836 156.835L-34.0441 156.751L-35.2989 156.645L-36.5477 156.517L-37.7901 156.368L-39.0258 156.199L-40.2544 156.008L-41.4757 155.796L-42.6892 155.564L-43.8946 155.312L-45.0916 155.039L-46.2799 154.747L-47.4592 154.435L-48.6291 154.103L-49.7893 153.752L-50.9396 153.383L-52.0796 152.994L-53.2091 152.587L-54.3277 152.161L-55.4352 151.718L-56.5313 151.256L-57.6157 150.778L-58.6882 150.281L-59.7485 149.768L-60.7964 149.238L-61.8315 148.692L-62.8537 148.13L-63.8627 147.551L-64.8583 146.957L-65.8402 146.348L-66.8082 145.723L-67.7622 145.084L-68.7019 144.43L-69.6271 143.762L-70.5376 143.081L-71.4332 142.385L-72.3137 141.677L-73.179 140.955L-74.0288 140.221L-74.863 139.474L-75.6815 138.716L-76.4841 137.945L-77.2706 137.164L-78.0408 136.371L-78.7947 135.567L-79.5322 134.753L-80.253 133.929L-80.957 133.095L-81.6443 132.252L-82.3145 131.399L-82.9677 130.538L-83.6038 129.668L-84.2226 128.79L-84.8241 127.904L-85.4081 127.011L-85.9747 126.11L-86.5237 125.203L-87.0551 124.289L-87.5689 123.369L-88.0649 122.443L-88.5431 121.511L-89.0036 120.574L-89.4462 119.633L-89.871 118.686L-90.2779 117.736L-90.6669 116.781L-91.038 115.823L-91.3912 114.862L-91.7265 113.898L-92.044 112.931L-92.3435 111.962L-92.6252 110.991L-92.8891 110.018L-93.1351 109.044L-93.3634 108.068L-93.574 107.092L-93.7668 106.116L-93.9421 105.14L-94.0998 104.163L-94.2399 103.187L-94.3627 102.212L-94.468 101.239L-94.5561 100.266L-94.627 99.2954L-94.6807 98.3267L-94.7174 97.3602L-94.7372 96.3963L-94.7401 95.4353L-94.7263 94.4774L-94.6959 93.5229L-94.649 92.5722L-94.5857 91.6254L-94.5061 90.6829L-94.4104 89.7449L-94.2987 88.8117L-94.1712 87.8835L-94.0279 86.9606L-93.869 86.0433L-93.6947 85.1318L-93.5052 84.2264L-93.3005 83.3273L-93.0808 82.4347L-92.8464 81.549L-92.5973 80.6702L-92.3338 79.7987L-92.0559 78.9347L-91.764 78.0784L-91.4582 77.2301L-91.1386 76.3898L-90.8054 75.558L-90.4589 74.7346L-90.0992 73.9201L-89.7266 73.1145L-89.3411 72.3181L-88.9431 71.5311L-88.5328 70.7535L-88.1102 69.9858L-87.6757 69.2279L-87.2295 68.4801L-86.7718 67.7425L-86.3027 67.0154L-85.8225 66.2988L-85.3315 65.593L-84.8299 64.8981L-84.3178 64.2142L-83.7955 63.5415L-83.2633 62.8801L-82.7213 62.2302L-82.1698 61.5918L-81.609 60.9652L-81.0392 60.3504L-80.4607 59.7476L-79.8735 59.1569L-79.278 58.5783L-78.6745 58.012L-78.0631 57.4581L-77.4441 56.9167L-76.8177 56.3879L-76.1842 55.8717L-75.5438 55.3682L-74.8969 54.8776L-74.2435 54.3998L-73.584 53.935L-72.9186 53.4832L-72.2475 53.0445L-71.5711 52.619L-70.8895 52.2066L-70.203 51.8074L-69.5118 51.4216L-68.8162 51.049L-68.1165 50.6898L-67.4128 50.3439L-66.7055 50.0114L-65.9947 49.6924L-65.2807 49.3867L-64.5638 49.0945L-63.8442 48.8158L-63.1222 48.5505L-62.3979 48.2986L-61.6717 48.0602L-60.9437 47.8352L-60.2142 47.6236L-59.4835 47.4254L-58.7518 47.2406L-58.0192 47.0691L-57.2862 46.911L-56.5528 46.7661L-55.8193 46.6345L-55.086 46.516L-54.3531 46.4107L-53.6208 46.3185L-52.8893 46.2394L-52.1588 46.1732L-51.4297 46.12L-50.702 46.0797L-49.9761 46.0521L-49.2521 46.0372L-48.5302 46.035L-47.8107 46.0454L-47.0938 46.0683L-46.3797 46.1035L-45.6685 46.151L-44.9606 46.2108L-44.256 46.2827L-43.5551 46.3666L-42.8579 46.4624L-42.1647 46.57L-41.4757 46.6893L-40.791 46.8203L-40.111 46.9626L-39.4356 47.1164L-38.7652 47.2814L-38.0999 47.4575L-37.4398 47.6446L-36.7852 47.8425L-36.1362 48.0512L-35.493 48.2705L-34.8558 48.5002L-34.2247 48.7403L-33.5999 48.9905L-32.9815 49.2508L-32.3696 49.5209L-31.7645 49.8008L-31.1663 50.0904L-30.5752 50.3893L-29.9911 50.6975L-29.4144 51.0149L-28.8452 51.3413L-28.2835 51.6764L-27.7295 52.0203L-27.1833 52.3726L-26.6451 52.7333L-26.1149 53.1021L-25.5929 53.4789L-25.0793 53.8635L-24.574 54.2558L-24.0772 54.6556L-23.589 55.0627L-23.1095 55.4769L-22.6389 55.8981L-22.1771 56.3261L-21.7243 56.7607L-21.2806 57.2017L-20.846 57.649L-20.4207 58.1024L-20.0046 58.5616L-19.5979 59.0266L-19.2007 59.497L-18.813 59.9729L-18.4348 60.4538L-18.0663 60.9398L-17.7074 61.4306L-17.3583 61.9259L-17.019 62.4257L-16.6895 62.9298L-16.3698 63.4379L-16.0601 63.9498L-15.7602 64.4655L-15.4704 64.9846L-15.1905 65.5071L-14.9207 66.0327L-14.6609 66.5613L-14.4112 67.0926L-14.1715 67.6264L-13.942 68.1627L-13.7225 68.7012L-13.5131 69.2417L-13.3138 69.7841L-13.1247 70.3281L-12.9456 70.8736L-12.7766 71.4204L-12.6177 71.9683L-12.4688 72.5172L-12.33 73.0668L-12.2012 73.617L-12.0824 74.1677L-11.9736 74.7185L-11.8747 75.2694L-11.7857 75.8202L-11.7066 76.3708L-11.6374 76.9208L-11.5779 77.4703L-11.5283 78.0189L-11.4883 78.5666L-11.458 79.1132L-11.4373 79.6585L-11.4261 80.2023L-11.4244 80.7445L-11.4322 81.2849L-11.4494 81.8234L-11.4759 82.3598L-11.5116 82.894L-11.5565 83.4257L-11.6105 83.9549L-11.6735 84.4814L-11.7454 85.0051L-11.8263 85.5258L-11.9159 86.0433L-12.0142 86.5576L-12.1212 87.0684L-12.2367 87.5757L-12.3606 88.0792L-12.4929 88.579L-12.6334 89.0748L-12.7821 89.5664L-12.9388 90.0539L-13.1035 90.537L-13.2761 91.0157L-13.4564 91.4897L-13.6444 91.959L-13.8399 92.4235L-14.0428 92.8831L-14.253 93.3376L-14.4705 93.7869L-14.695 94.231L-14.9266 94.6696L-15.165 95.1028L-15.4101 95.5304L-15.6619 95.9523L-15.9201 96.3684L-16.1847 96.7787L-16.4556 97.183L-16.7327 97.5812L-17.0157 97.9732L-17.3046 98.3591L-17.5993 98.7386L-17.8996 99.1118L-18.2053 99.4784L-18.5165 99.8386L-18.8329 100.192L-19.1543 100.539L-19.4808 100.879L-19.812 101.212L-20.148 101.539L-20.4885 101.858L-20.8335 102.171L-21.1827 102.476L-21.5361 102.775L-21.8935 103.066L-22.2548 103.35L-22.6198 103.627L-22.9884 103.896L-23.3605 104.158L-23.7359 104.413L-24.1145 104.661L-24.4962 104.901L-24.8807 105.134L-25.268 105.359L-25.658 105.577L-26.0504 105.787L-26.4452 105.989L-26.8422 106.185L-27.2413 106.372L-27.6423 106.552L-28.0451 106.725L-28.4496 106.889L-28.8556 107.047L-29.2629 107.196L-29.6716 107.338L-30.0813 107.473L-30.492 107.6L-30.9036 107.719L-31.3159 107.831L-31.7287 107.935L-32.142 108.032L-32.5556 108.121L-32.9693 108.203L-33.3831 108.277L-33.7969 108.344L-34.2104 108.404L-34.6236 108.456L-35.0363 108.5L-35.4484 108.538L-35.8597 108.568L-36.2703 108.59L-36.6798 108.606L-37.0883 108.614L-37.4956 108.616L-37.9015 108.61L-38.306 108.597L-38.7089 108.577L-39.1101 108.55L-39.5095 108.516L-39.907 108.476L-40.3025 108.429L-40.6959 108.374L-41.0869 108.314L-41.4757 108.246L-41.8619 108.173L-42.2456 108.092L-42.6267 108.005L-43.0049 107.912L-43.3803 107.813L-43.7527 107.707L-44.122 107.596L-44.4881 107.478L-44.851 107.354L-45.2105 107.225L-45.5666 107.089L-45.9191 106.948L-46.268 106.801L-46.6132 106.649L-46.9546 106.491L-47.2921 106.328L-47.6256 106.159L-47.9551 105.985L-48.2805 105.806L-48.6017 105.622L-48.9186 105.433L-49.2311 105.239L-49.5393 105.04L-49.8429 104.837L-50.1421 104.628L-50.4366 104.416L-50.7264 104.199L-51.0115 103.977L-51.2917 103.752L-51.5672 103.522L-51.8377 103.289L-52.1032 103.051L-52.3637 102.809L-52.6192 102.564L-52.8695 102.315L-53.1147 102.063L-53.3547 101.807L-53.5894 101.548L-53.8189 101.286L-54.043 101.02L-54.2617 100.752L-54.4751 100.481L-54.683 100.206L-54.8855 99.9296L-55.0824 99.6501L-55.2739 99.3681L-55.4598 99.0837L-55.6402 98.7971L-55.8149 98.5082L-55.9841 98.2173L-56.1476 97.9244L-56.3055 97.6296L-56.4577 97.3331L-56.6043 97.0349L-56.7452 96.7351L-56.8804 96.4339L-57.0099 96.1314L-57.1337 95.8276L-57.2519 95.5226L-57.3643 95.2166L-57.471 94.9097L-57.5721 94.6019L-57.6674 94.2934L-57.7571 93.9843L-57.8411 93.6746L-57.9194 93.3645L-57.9921 93.0541L-58.0591 92.7434L-58.1205 92.4327L-58.1763 92.1218L-58.2264 91.8111L-58.2711 91.5005L-58.3101 91.1901L-58.3437 90.8801L-58.3717 90.5706L-58.3943 90.2616L-58.4114 89.9532L-58.423 89.6456L-58.4293 89.3388L-58.4303 89.0329L-58.4259 88.728L-58.4162 88.4241L-58.4013 88.1215L-58.3811 87.8201L-58.3558 87.5201L-58.3253 87.2216L-58.2898 86.9245L-58.2492 86.6291L-58.2036 86.3353L-58.153 86.0433L-58.0975 85.7532L-58.0372 85.465L-57.972 85.1788L-57.9021 84.8947L-57.8275 84.6127L-57.7482 84.333L-57.6643 84.0556L-57.5759 83.7806L-57.483 83.508L-57.3856 83.238L-57.2839 82.9705L-57.1778 82.7057L-57.0675 82.4437L-56.953 82.1844L-56.8344 81.928L-56.7117 81.6744L-56.585 81.4239L-56.4544 81.1764L-56.3199 80.932L-56.1816 80.6908L-56.0396 80.4528L-55.8939 80.218L-55.7446 79.9865L-55.5917 79.7584L-55.4354 79.5338L-55.2757 79.3126L-55.1127 79.0949L-54.9465 78.8808L-54.7771 78.6702L-54.6046 78.4634L-54.429 78.2602L-54.2505 78.0607L-54.0692 77.865L-53.885 77.6731L-53.6981 77.4851L-53.5085 77.3009L-53.3164 77.1207L-53.1218 76.9444L-52.9248 76.772L-52.7254 76.6037L-52.5237 76.4394L-52.3199 76.2791L-52.114 76.1229L-51.906 75.9709L-51.6961 75.8229L-51.4843 75.6791L-51.2707 75.5395L-51.0553 75.404L-50.8384 75.2728L-50.6199 75.1457L-50.3999 75.0229L-50.1785 74.9043L-49.9557 74.7899L-49.7317 74.6798L-49.5066 74.574L-49.2803 74.4724L-49.0531 74.3752L-48.8249 74.2822L-48.5958 74.1934" stroke="black"/>
 </g>
</svg>
