<?xml version="1.0" encoding="utf-8"?>
<svg xmlns="http://www.w3.org/2000/svg" fill="none" version="1.1" viewBox="-256.118 -357.046 512.236 714.092" x="-256.118pt" y="-357.046pt" width="512.236pt" height="714.092pt" stroke-width="0.566929" stroke-miterlimit="10.000000">
 <path d="M160.157 -329.117L255.118 -329.117L255.118 -356.046L160.157 -356.046Z" fill="black"/>
 <path d="M208.063 -334.786L208.63 -334.786"/>
 <g transform="matrix(1.000000,-0.000000,-0.000000,1.000000,208.346457,-334.786162)">
  <path d="M-40.4207 -0M-30.8333 -6.75664C-31.2672 -5.70286 -32.0317 -3.8019 -32.197 -3.07872L-32.2177 -3.07872C-32.4036 -3.82257 -33.2508 -5.86816 -33.6847 -6.96327L-36.3295 -13.4926C-36.6808 -14.3398 -37.342 -14.3398 -37.7139 -14.3398L-39.4289 -14.3398C-40.1727 -14.3398 -40.4207 -14.1125 -40.4207 -13.348L-40.4207 -0.991801C-40.4207 -0.24795 -40.1934 -0 -39.4289 -0L-38.871 -0C-38.0858 -0 -37.8792 -0.268613 -37.8792 -0.991801L-37.8792 -11.6743L-37.8585 -11.6743C-37.6313 -10.7445 -36.7014 -8.45097 -36.2055 -7.23188L-33.8087 -1.34306C-33.4368 -0.454575 -32.9409 -0.454575 -32.2383 -0.454575C-31.5358 -0.454575 -31.0399 -0.454575 -30.668 -1.34306L-28.0232 -7.8311C-27.8166 -8.327 -26.7008 -11.1371 -26.5561 -11.6743L-26.5355 -11.6743L-26.5355 -0.991801C-26.5355 -0.3306 -26.3908 -0 -25.5437 -0L-24.9858 -0C-24.2006 -0 -23.994 -0.268613 -23.994 -0.991801L-23.994 -13.348C-23.994 -14.0092 -24.1386 -14.3398 -24.9858 -14.3398L-26.7214 -14.3398C-27.238 -14.3398 -27.7546 -14.2985 -28.1058 -13.4513ZM-28.1058 -13.4513" fill="#fff"/>
 </g>
 <g transform="matrix(1.000000,-0.000000,-0.000000,1.000000,208.346457,-334.786162)">
  <path d="M-20.2172 -0M-10.6298 -6.75664C-11.0637 -5.70286 -11.8283 -3.8019 -11.9936 -3.07872L-12.0142 -3.07872C-12.2002 -3.82257 -13.0473 -5.86816 -13.4813 -6.96327L-16.1261 -13.4926C-16.4773 -14.3398 -17.1385 -14.3398 -17.5104 -14.3398L-19.2254 -14.3398C-19.9693 -14.3398 -20.2172 -14.1125 -20.2172 -13.348L-20.2172 -0.991801C-20.2172 -0.24795 -19.9899 -0 -19.2254 -0L-18.6675 -0C-17.8824 -0 -17.6757 -0.268613 -17.6757 -0.991801L-17.6757 -11.6743L-17.6551 -11.6743C-17.4278 -10.7445 -16.498 -8.45097 -16.0021 -7.23188L-13.6052 -1.34306C-13.2333 -0.454575 -12.7374 -0.454575 -12.0349 -0.454575C-11.3324 -0.454575 -10.8364 -0.454575 -10.4645 -1.34306L-7.81972 -7.8311C-7.6131 -8.327 -6.49732 -11.1371 -6.35268 -11.6743L-6.33202 -11.6743L-6.33202 -0.991801C-6.33202 -0.3306 -6.18738 -0 -5.34022 -0L-4.78233 -0C-3.99716 -0 -3.79053 -0.268613 -3.79053 -0.991801L-3.79053 -13.348C-3.79053 -14.0092 -3.93517 -14.3398 -4.78233 -14.3398L-6.51798 -14.3398C-7.03455 -14.3398 -7.55111 -14.2985 -7.90237 -13.4513ZM-7.90237 -13.4513" fill="#fff"/>
 </g>
 <g transform="matrix(1.000000,-0.000000,-0.000000,1.000000,208.346457,-334.786162)">
  <path d="M-1.02624 -0M7.89997 -13.4513C7.59003 -14.3398 6.99082 -14.3398 6.57757 -14.3398L4.75927 -14.3398C4.34602 -14.3398 3.7468 -14.3398 3.43686 -13.4513L-0.922928 -0.971138C-1.02624 -0.702526 -1.02624 -0.661201 -1.02624 -0.557888C-1.02624 -0 -0.509677 -0 -0.220402 -0L0.523449 -0C0.895374 -0 1.53591 -0 1.82519 -0.826501L2.63103 -3.12004L8.35454 -3.12004L9.05707 -1.13644C9.30502 -0.41325 9.44966 -0 10.4415 -0L11.5572 -0C11.8465 -0 12.3631 -0 12.3631 -0.557888C12.3631 -0.661201 12.3631 -0.702526 12.2598 -0.971138ZM12.2598 -0.971138M4.7386 -9.27747C5.04854 -10.1866 5.31715 -10.9718 5.48245 -11.7156L5.50312 -11.7156C5.60643 -11.2197 5.60643 -11.1784 5.77173 -10.7032L7.73467 -4.89702L3.2509 -4.89702ZM3.2509 -4.89702" fill="#fff"/>
 </g>
 <g transform="matrix(1.000000,-0.000000,-0.000000,1.000000,208.346457,-334.786162)">
  <path d="M13.8876 -0M25.8512 -2.95474C25.8512 -3.12004 25.7065 -3.20269 25.6239 -3.20269C25.128 -3.20269 24.5288 -1.85963 21.6154 -1.85963C17.9788 -1.85963 16.9456 -4.09118 16.9456 -7.19056C16.9456 -10.2693 18.0614 -12.5008 21.4501 -12.5008C23.289 -12.5008 24.2602 -11.7776 24.8181 -11.3231C24.942 -11.2197 25.004 -11.1371 25.1487 -11.1371C25.2313 -11.1371 25.3346 -11.2404 25.3553 -11.3231L25.7685 -13.6166C25.7892 -13.6993 25.7685 -13.7819 25.6032 -13.8439C24.3841 -14.2985 23.1237 -14.5877 21.512 -14.5877C16.4704 -14.5877 13.8876 -12.1289 13.8876 -7.21122C13.8876 -2.1489 16.5117 0.206625 21.5327 0.206625C23.289 0.206625 24.3841 -0.041325 25.8925 -0.971138C26.0578 -1.07445 26.0165 -1.21909 26.0165 -1.21909ZM26.0165 -1.21909" fill="#fff"/>
 </g>
 <g transform="matrix(1.000000,-0.000000,-0.000000,1.000000,208.346457,-334.786162)">
  <path d="M28.0162 -0M36.9424 -13.4513C36.6325 -14.3398 36.0333 -14.3398 35.62 -14.3398L33.8017 -14.3398C33.3885 -14.3398 32.7893 -14.3398 32.4793 -13.4513L28.1195 -0.971138C28.0162 -0.702526 28.0162 -0.661201 28.0162 -0.557888C28.0162 -0 28.5328 -0 28.8221 -0L29.5659 -0C29.9378 -0 30.5784 -0 30.8676 -0.826501L31.6735 -3.12004L37.397 -3.12004L38.0995 -1.13644C38.3475 -0.41325 38.4921 -0 39.4839 -0L40.5997 -0C40.889 -0 41.4055 -0 41.4055 -0.557888C41.4055 -0.661201 41.4055 -0.702526 41.3022 -0.971138ZM41.3022 -0.971138M33.7811 -9.27747C34.091 -10.1866 34.3596 -10.9718 34.5249 -11.7156L34.5456 -11.7156C34.6489 -11.2197 34.6489 -11.1784 34.8142 -10.7032L36.7771 -4.89702L32.2934 -4.89702ZM32.2934 -4.89702" fill="#fff"/>
 </g>
 <path d="M208.063 -309.274L208.63 -309.274"/>
 <g transform="matrix(1.000000,-0.000000,-0.000000,1.000000,208.346457,-309.274351)">
  <path d="M-24.0789 -0M-22.1565 -3.32832C-21.7692 -3.32832 -20.7937 -3.35701 -20.105 -3.61524C-19.0147 -4.03128 -18.9143 -4.86336 -18.9143 -5.12159C-18.9143 -5.75282 -19.4595 -6.32667 -20.4063 -6.32667C-21.9127 -6.32667 -24.0789 -4.96378 -24.0789 -2.41016C-24.0789 -0.90381 -23.2182 0.143462 -21.9127 0.143462C-19.9616 0.143462 -18.7278 -1.37723 -18.7278 -1.56374C-18.7278 -1.64981 -18.8139 -1.72154 -18.8713 -1.72154C-18.9143 -1.72154 -18.9287 -1.7072 -19.0578 -1.57808C-19.9759 -0.358655 -21.3388 -0.143462 -21.884 -0.143462C-22.7017 -0.143462 -23.1321 -0.789041 -23.1321 -1.85066C-23.1321 -2.05151 -23.1321 -2.41016 -22.9169 -3.32832ZM-22.9169 -3.32832M-22.8452 -3.61524C-22.2283 -5.82456 -20.8654 -6.03975 -20.4063 -6.03975C-19.7751 -6.03975 -19.3447 -5.66675 -19.3447 -5.12159C-19.3447 -3.61524 -21.6401 -3.61524 -22.2426 -3.61524ZM-22.2426 -3.61524" fill="black"/>
 </g>
 <g transform="matrix(1.000000,-0.000000,-0.000000,1.000000,208.346457,-309.274351)">
  <path d="M-12.7569 -0M-7.36276 -10.2432C-7.29103 -10.4297 -7.29103 -10.4584 -7.29103 -10.4871C-7.29103 -10.6736 -7.43449 -10.7596 -7.54926 -10.7596C-7.73576 -10.7596 -7.7788 -10.6305 -7.85053 -10.444L-12.6852 3.07009C-12.7569 3.25659 -12.7569 3.28528 -12.7569 3.31397C-12.7569 3.47178 -12.6422 3.58655 -12.4844 3.58655C-12.2979 3.58655 -12.2548 3.44309 -12.1974 3.28528ZM-12.1974 3.28528" fill="black"/>
 </g>
 <g transform="matrix(1.000000,-0.000000,-0.000000,1.000000,208.346457,-309.274351)">
  <path d="M-1.12271 -0M4.48665 -2.41016L4.17104 -2.41016C4.128 -2.16628 4.01323 -1.37723 3.86977 -1.1477C3.76934 -1.01858 2.95161 -1.01858 2.52122 -1.01858L-0.132822 -1.01858C0.254525 -1.34854 1.12964 -2.2667 1.50264 -2.61101C3.68327 -4.61948 4.48665 -5.36548 4.48665 -6.78575C4.48665 -8.43556 3.18115 -9.54022 1.51699 -9.54022C-0.147168 -9.54022 -1.12271 -8.11995 -1.12271 -6.88617C-1.12271 -6.15452 -0.491477 -6.15452 -0.448438 -6.15452C-0.147168 -6.15452 0.225833 -6.36971 0.225833 -6.82879C0.225833 -7.23048 -0.046745 -7.50306 -0.448438 -7.50306C-0.577554 -7.50306 -0.606247 -7.50306 -0.649285 -7.48871C-0.376707 -8.46426 0.397987 -9.12418 1.33049 -9.12418C2.54992 -9.12418 3.29592 -8.1056 3.29592 -6.78575C3.29592 -5.56632 2.59296 -4.50471 1.77522 -3.58655L-1.12271 -0.344309L-1.12271 -0L4.11365 -0ZM4.11365 -0" fill="black"/>
 </g>
 <g transform="matrix(1.000000,-0.000000,-0.000000,1.000000,208.346457,-309.274351)">
  <path d="M5.97259 -0M12.0123 -8.90899L12.0123 -9.23895L8.55491 -9.23895C6.81902 -9.23895 6.79033 -9.42545 6.73294 -9.69803L6.41733 -9.69803L5.97259 -6.82879L6.28821 -6.82879C6.33125 -7.08702 6.46037 -7.97648 6.64687 -8.13429C6.76164 -8.22037 7.8376 -8.22037 8.03845 -8.22037L11.0798 -8.22037L9.55914 -6.03975C9.1718 -5.48025 7.72283 -3.12747 7.72283 -0.430386C7.72283 -0.272578 7.72283 0.30127 8.31102 0.30127C8.91356 0.30127 8.91356 -0.258232 8.91356 -0.444732L8.91356 -1.16204C8.91356 -3.29963 9.25787 -4.96378 9.93214 -5.92498ZM9.93214 -5.92498" fill="black"/>
 </g>
 <g transform="matrix(1.000000,-0.000000,-0.000000,1.000000,208.346457,-309.274351)">
  <path d="M12.8097 -0M18.6486 -4.59078C18.6486 -5.78152 18.5768 -6.94356 18.0604 -8.03387C17.4722 -9.2246 16.4393 -9.54022 15.7363 -9.54022C14.9042 -9.54022 13.8856 -9.12418 13.3548 -7.93345C12.9531 -7.02964 12.8097 -6.14017 12.8097 -4.59078C12.8097 -3.1992 12.9101 -2.15193 13.4266 -1.13335C13.9861 -0.0430386 14.9759 0.30127 15.7219 0.30127C16.9701 0.30127 17.6874 -0.444732 18.1034 -1.27681C18.6199 -2.35278 18.6486 -3.7587 18.6486 -4.59078ZM18.6486 -4.59078M15.7219 0.0143462C15.2629 0.0143462 14.3304 -0.243885 14.0578 -1.80762C13.9 -2.66839 13.9 -3.7587 13.9 -4.76294C13.9 -5.93933 13.9 -7.00094 14.1295 -7.84737C14.3734 -8.80856 15.1051 -9.2533 15.7219 -9.2533C16.2671 -9.2533 17.0992 -8.92333 17.3718 -7.68956C17.5583 -6.87183 17.5583 -5.73848 17.5583 -4.76294C17.5583 -3.80174 17.5583 -2.71143 17.4004 -1.83631C17.1279 -0.258232 16.2241 0.0143462 15.7219 0.0143462ZM15.7219 0.0143462" fill="black"/>
 </g>
 <g transform="matrix(1.000000,-0.000000,-0.000000,1.000000,208.346457,-309.274351)">
  <path d="M19.793 -5.20611M23.6685 -7.69677C23.6685 -8.76277 22.7818 -9.62952 21.7357 -9.62952C20.6597 -9.62952 19.793 -8.74285 19.793 -7.69677C19.793 -6.64073 20.6597 -5.76402 21.7357 -5.76402C22.7818 -5.76402 23.6685 -6.63077 23.6685 -7.69677ZM23.6685 -7.69677M21.7357 -6.16252C20.869 -6.16252 20.1915 -6.85991 20.1915 -7.69677C20.1915 -8.53363 20.8789 -9.23102 21.7357 -9.23102C22.5626 -9.23102 23.27 -8.55356 23.27 -7.69677C23.27 -6.83998 22.5626 -6.16252 21.7357 -6.16252ZM21.7357 -6.16252" fill="black"/>
 </g>
 <g stroke-linecap="round" stroke-linejoin="round">
  <path d="M-82.0237 114.473L-207.915 -355.358" stroke="black"/>
 </g>
 <g stroke-linecap="butt" stroke-linejoin="round" stroke-dasharray="2.000000" stroke-dashoffset="0.000000">
  <path d="M-82.0237 114.473L-82.0237 -345.647" stroke="black"/>
 </g>
 <g stroke-linecap="round" stroke-linejoin="round">
  <path d="M-82.0237 114.473L30.6285 -305.951" stroke="black"/>
 </g>
 <g stroke-linecap="butt" stroke-linejoin="round" stroke-dasharray="2.000000" stroke-dashoffset="0.000000">
  <path d="M-82.0237 114.473L123.843 -242.098" stroke="black"/>
 </g>
 <g stroke-linecap="round" stroke-linejoin="round">
  <path d="M-82.0237 114.473L193.382 -160.933" stroke="black"/>
 </g>
 <g stroke-linecap="butt" stroke-linejoin="round" stroke-dasharray="2.000000" stroke-dashoffset="0.000000">
  <path d="M-82.0237 114.473L237.051 -69.7443" stroke="black"/>
 </g>
 <g stroke-linecap="round" stroke-linejoin="round">
  <path d="M-82.0237 114.473L254.625 24.2685" stroke="black"/>
 </g>
 <g stroke-linecap="butt" stroke-linejoin="round" stroke-dasharray="2.000000" stroke-dashoffset="0.000000">
  <path d="M-82.0237 114.473L247.667 114.473" stroke="black"/>
 </g>
 <g stroke-linecap="round" stroke-linejoin="round">
  <path d="M-82.0237 114.473L219.223 195.192" stroke="black"/>
 </g>
 <g stroke-linecap="butt" stroke-linejoin="round" stroke-dasharray="2.000000" stroke-dashoffset="0.000000">
  <path d="M-82.0237 114.473L173.471 261.983" stroke="black"/>
 </g>
 <g stroke-linecap="round" stroke-linejoin="round">
  <path d="M-82.0237 114.473L115.313 311.81" stroke="black"/>
 </g>
 <g stroke-linecap="butt" stroke-linejoin="round" stroke-dasharray="2.000000" stroke-dashoffset="0.000000">
  <path d="M-82.0237 114.473L49.974 343.1" stroke="black"/>
 </g>
 <g stroke-linecap="round" stroke-linejoin="round">
  <path d="M-82.0237 114.473L-17.3891 355.693" stroke="black"/>
 </g>
 <g stroke-linecap="butt" stroke-linejoin="round" stroke-dasharray="2.000000" stroke-dashoffset="0.000000">
  <path d="M-82.0237 114.473L-82.0237 350.707" stroke="black"/>
 </g>
 <g stroke-linecap="round" stroke-linejoin="round">
  <path d="M-82.0237 114.473L-139.861 330.326" stroke="black"/>
 </g>
 <g stroke-linecap="butt" stroke-linejoin="round" stroke-dasharray="2.000000" stroke-dashoffset="0.000000">
  <path d="M-82.0237 114.473L-187.719 297.543" stroke="black"/>
 </g>
 <g stroke-linecap="round" stroke-linejoin="round">
  <path d="M-82.0237 114.473L-223.422 255.872" stroke="black"/>
 </g>
 <g stroke-linecap="butt" stroke-linejoin="round" stroke-dasharray="2.000000" stroke-dashoffset="0.000000">
  <path d="M-82.0237 114.473L-245.842 209.054" stroke="black"/>
 </g>
 <g stroke-linecap="round" stroke-linejoin="round">
  <path d="M-82.0237 114.473L-254.865 160.786" stroke="black"/>
 </g>
 <g stroke-linecap="butt" stroke-linejoin="round" stroke-dasharray="2.000000" stroke-dashoffset="0.000000">
  <path d="M-82.0237 114.473L-251.292 114.473" stroke="black"/>
 </g>
 <g stroke-linecap="round" stroke-linejoin="round">
  <path d="M-82.0237 114.473L-236.689 73.0309" stroke="black"/>
 </g>
 <g stroke-linecap="butt" stroke-linejoin="round" stroke-dasharray="2.000000" stroke-dashoffset="0.000000">
  <path d="M-82.0237 114.473L-213.199 38.7392" stroke="black"/>
 </g>
 <g stroke-linecap="round" stroke-linejoin="round">
  <path d="M-82.0237 114.473L-183.34 13.1571" stroke="black"/>
 </g>
 <g stroke-linecap="butt" stroke-linejoin="round" stroke-dasharray="2.000000" stroke-dashoffset="0.000000">
  <path d="M-82.0237 114.473L-149.794 -2.90756" stroke="black"/>
 </g>
 <g stroke-linecap="round" stroke-linejoin="round">
  <path d="M-82.0237 114.473L-115.208 -9.37298" stroke="black"/>
 </g>
 <g stroke-linecap="round" stroke-linejoin="round" stroke-width="1.603518">
  <path d="M-207.915 -355.358L-199.261 -355.739L-190.634 -355.968L-182.036 -356.046L-173.469 -355.974L-164.937 -355.754L-156.442 -355.386L-147.986 -354.871L-139.571 -354.212L-131.2 -353.409L-122.875 -352.463L-114.599 -351.376L-106.374 -350.15L-98.2011 -348.785L-90.0837 -347.284L-82.0237 -345.647L-74.0232 -343.876L-66.0843 -341.973L-58.209 -339.939L-50.3994 -337.776L-42.6574 -335.486L-34.9851 -333.069L-27.3843 -330.529L-19.8569 -327.866L-12.4048 -325.083L-5.02982 -322.181L2.26636 -319.162L9.48195 -316.027L16.6153 -312.779L23.6647 -309.42L30.6285 -305.951L37.5053 -302.374L44.2933 -298.691L50.9912 -294.905L57.5975 -291.016L64.1108 -287.028L70.5296 -282.942L76.8527 -278.76L83.0788 -274.484L89.2065 -270.116L95.2347 -265.659L101.162 -261.113L106.988 -256.483L112.711 -251.769L118.329 -246.973L123.843 -242.098L129.251 -237.146L134.552 -232.12L139.745 -227.02L144.829 -221.85L149.804 -216.611L154.668 -211.305L159.422 -205.936L164.064 -200.505L168.594 -195.014L173.011 -189.465L177.314 -183.861L181.503 -178.203L185.578 -172.494L189.538 -166.737L193.382 -160.933L197.111 -155.084L200.724 -149.193L204.22 -143.262L207.6 -137.293L210.863 -131.288L214.009 -125.25L217.038 -119.18L219.95 -113.08L222.745 -106.954L225.422 -100.802L227.982 -94.628L230.425 -88.4329L232.75 -82.2192L234.959 -75.989L237.051 -69.7443L239.026 -63.4873L240.885 -57.22L242.627 -50.9446L244.254 -44.6629L245.765 -38.3772L247.162 -32.0894L248.443 -25.8015L249.61 -19.5155L250.664 -13.2334L251.604 -6.95721L252.431 -0.688795L253.147 5.56988L253.75 11.8169L254.243 18.0504L254.625 24.2685L254.898 30.4692L255.062 36.6509L255.118 42.8116L255.067 48.9496L254.909 55.0631L254.645 61.1502L254.276 67.2094L253.804 73.2389L253.228 79.2369L252.551 85.2018L251.772 91.132L250.893 97.0259L249.916 102.882L248.84 108.698L247.667 114.473L246.398 120.206L245.034 125.894L243.577 131.537L242.027 137.133L240.386 142.681L238.655 148.178L236.834 153.624L234.927 159.018L232.932 164.357L230.853 169.642L228.689 174.87L226.443 180.04L224.116 185.151L221.709 190.202L219.223 195.192L216.66 200.12L214.022 204.983L211.308 209.783L208.522 214.516L205.665 219.183L202.737 223.783L199.74 228.313L196.676 232.774L193.547 237.165L190.353 241.485L187.096 245.732L183.778 249.906L180.4 254.007L176.964 258.033L173.471 261.983L169.923 265.858L166.321 269.656L162.667 273.377L158.962 277.02L155.208 280.585L151.407 284.071L147.56 287.477L143.668 290.803L139.733 294.049L135.757 297.213L131.742 300.297L127.688 303.299L123.598 306.218L119.472 309.056L115.313 311.81L111.123 314.482L106.902 317.071L102.652 319.576L98.3747 321.998L94.072 324.336L89.7452 326.59L85.3959 328.761L81.0256 330.847L76.6358 332.849L72.2281 334.768L67.8039 336.602L63.365 338.352L58.9127 340.019L54.4485 341.601L49.974 343.1L45.4906 344.515L40.9999 345.847L36.5034 347.096L32.0024 348.262L27.4985 349.344L22.9931 350.345L18.4876 351.263L13.9835 352.099L9.48217 352.854L4.98506 353.528L0.493543 354.121L-3.991 354.633L-8.46719 355.066L-12.9337 355.419L-17.3891 355.693L-21.8322 355.888L-26.2615 356.006L-30.6759 356.046L-35.0739 356.009L-39.4544 355.896L-43.8161 355.707L-48.1577 355.443L-52.4779 355.104L-56.7757 354.692L-61.0498 354.207L-65.299 353.649L-69.5221 353.019L-73.718 352.318L-77.8856 351.547L-82.0237 350.707L-86.1313 349.798L-90.2073 348.821L-94.2506 347.776L-98.2602 346.666L-102.235 345.49L-106.174 344.249L-110.077 342.945L-113.941 341.578L-117.767 340.149L-121.554 338.659L-125.3 337.109L-129.004 335.5L-132.667 333.832L-136.286 332.107L-139.861 330.326L-143.392 328.49L-146.877 326.599L-150.316 324.655L-153.708 322.659L-157.052 320.611L-160.347 318.513L-163.594 316.366L-166.79 314.171L-169.936 311.928L-173.031 309.64L-176.075 307.306L-179.066 304.929L-182.004 302.508L-184.888 300.046L-187.719 297.543L-190.496 295.001L-193.217 292.42L-195.883 289.802L-198.494 287.147L-201.048 284.458L-203.546 281.734L-205.986 278.977L-208.369 276.188L-210.695 273.369L-212.963 270.52L-215.172 267.643L-217.323 264.738L-219.415 261.807L-221.448 258.852L-223.422 255.872L-225.336 252.869L-227.191 249.844L-228.986 246.799L-230.722 243.734L-232.397 240.651L-234.012 237.551L-235.567 234.435L-237.062 231.303L-238.497 228.158L-239.872 225L-241.186 221.83L-242.44 218.649L-243.634 215.459L-244.768 212.26L-245.842 209.054L-246.856 205.841L-247.81 202.624L-248.705 199.402L-249.54 196.177L-250.316 192.949L-251.033 189.721L-251.691 186.493L-252.29 183.265L-252.831 180.04L-253.314 176.818L-253.739 173.6L-254.106 170.386L-254.416 167.179L-254.669 163.979L-254.865 160.786L-255.005 157.602L-255.089 154.429L-255.118 151.266L-255.092 148.114L-255.011 144.976L-254.875 141.85L-254.686 138.739L-254.443 135.644L-254.148 132.564L-253.8 129.502L-253.4 126.457L-252.949 123.431L-252.447 120.425L-251.895 117.438L-251.292 114.473L-250.641 111.53L-249.941 108.61L-249.193 105.712L-248.397 102.839L-247.554 99.9913L-246.665 97.1688L-245.731 94.3726L-244.751 91.6034L-243.727 88.862L-242.66 86.1489L-241.549 83.4647L-240.396 80.8103L-239.201 78.1861L-237.965 75.5927L-236.689 73.0309L-235.373 70.5011L-234.018 68.0039L-232.625 65.5399L-231.195 63.1095L-229.728 60.7134L-228.225 58.3521L-226.686 56.0259L-225.113 53.7355L-223.506 51.4812L-221.866 49.2636L-220.194 47.083L-218.491 44.9399L-216.757 42.8346L-214.992 40.7676L-213.199 38.7392L-211.377 36.7498L-209.528 34.7997L-207.652 32.8893L-205.75 31.0189L-203.823 29.1888L-201.871 27.3991L-199.896 25.6504L-197.898 23.9427L-195.878 22.2763L-193.836 20.6514L-191.775 19.0683L-189.693 17.5272L-187.593 16.0281L-185.475 14.5714L-183.34 13.1571L-181.188 11.7853L-179.021 10.4562L-176.839 9.16998L-174.643 7.92661L-172.434 6.7262L-170.213 5.56883L-167.98 4.45454L-165.736 3.38336L-163.482 2.35532L-161.219 1.37043L-158.948 0.42867L-156.669 -0.469966L-154.383 -1.32552L-152.091 -2.13803L-149.794 -2.90756L-147.492 -3.63418L-145.186 -4.31798L-142.878 -4.95906L-140.567 -5.55754L-138.254 -6.11353L-135.941 -6.62717L-133.628 -7.09861L-131.315 -7.52802L-129.004 -7.91556L-126.696 -8.26143L-124.389 -8.56582L-122.087 -8.82895L-119.789 -9.05102L-117.496 -9.23228L-115.208 -9.37298L-112.927 -9.47335L-110.653 -9.53367L-108.387 -9.55422L-106.129 -9.53529L-103.88 -9.47716L-101.64 -9.38015L-99.4111 -9.24458L-97.193 -9.07077L-94.9865 -8.85906L-92.7921 -8.6098L-90.6105 -8.32334L-88.4423 -8.00005L-86.288 -7.64031L-84.1483 -7.24449L-82.0237 -6.81299L-79.9148 -6.3462L-77.8221 -5.84455L-75.7462 -5.30844L-73.6876 -4.73829L-71.6469 -4.13455L-69.6245 -3.49764L-67.6209 -2.82803L-65.6367 -2.12615L-63.6724 -1.39247L-61.7283 -0.627455L-59.8051 0.168415L-57.9031 0.994663L-56.0228 1.8508L-54.1646 2.73634L-52.3289 3.65079L-50.5162 4.59363L-48.7269 5.56436L-46.9614 6.56247L-45.22 7.58743L-43.5031 8.63873L-41.8111 9.71584L-40.1443 10.8182L-38.5032 11.9453L-36.8879 13.0967L-35.2989 14.2716L-33.7364 15.4697L-32.2008 16.6904L-30.6923 17.933L-29.2112 19.1971L-27.7578 20.4821L-26.3324 21.7874L-24.9351 23.1124L-23.5662 24.4567L-22.226 25.8196L-20.9147 27.2005L-19.6323 28.599L-18.3793 30.0143L-17.1557 31.446L-15.9617 32.8935L-14.7974 34.3561L-13.6631 35.8334L-12.5588 37.3247L-11.4847 38.8294L-10.4408 40.3471L-9.42744 41.877L-8.44454 43.4187L-7.49223 44.9716L-6.57058 46.535L-5.67966 48.1084L-4.81954 49.6913L-3.99024 51.2831L-3.19181 52.8831L-2.42428 54.4908L-1.68766 56.1058L-0.981953 57.7273L-0.307155 59.3548L0.336745 60.9878L0.949773 62.6257L1.53196 64.268L2.08335 65.9141L2.604 67.5634L3.09397 69.2154L3.55332 70.8696L3.98215 72.5255L4.38053 74.1824L4.74857 75.8398L5.08638 77.4973L5.39406 79.1542L5.67175 80.8102L5.91957 82.4646L6.13768 84.1169L6.32622 85.7667L6.48534 87.4134L6.61522 89.0565L6.71603 90.6956L6.78795 92.3301L6.83118 93.9596L6.8459 95.5835L6.83233 97.2015L6.79068 98.813L6.72117 100.418L6.62403 102.015L6.49949 103.604L6.34779 105.185L6.16919 106.757L5.96393 108.321L5.73229 109.874L5.47452 111.418L5.1909 112.951L4.88172 114.473L4.54725 115.984L4.1878 117.484L3.80366 118.971L3.39514 120.446L2.96253 121.909L2.50617 123.358L2.02637 124.793L1.52345 126.215L0.997746 127.623L0.449591 129.016L-0.120675 130.394L-0.712708 131.757L-1.32616 133.104L-1.96068 134.435L-2.6159 135.751L-3.29148 137.049L-3.98704 138.332L-4.70221 139.597L-5.43663 140.844L-6.18992 142.075L-6.9617 143.287L-7.75159 144.481L-8.55921 145.657L-9.38417 146.815L-10.2261 147.953L-11.0845 149.073L-11.9592 150.173L-12.8496 151.254L-13.7553 152.315L-14.676 153.357L-15.6113 154.378L-16.5608 155.379L-17.524 156.36L-18.5005 157.32L-19.49 158.26L-20.4921 159.179L-21.5062 160.077L-22.532 160.953L-23.5692 161.809L-24.6172 162.643L-25.6757 163.456L-26.7443 164.247L-27.8225 165.017L-28.91 165.765L-30.0062 166.491L-31.1109 167.195L-32.2235 167.877L-33.3438 168.538L-34.4712 169.176L-35.6054 169.793L-36.7459 170.387L-37.8924 170.959L-39.0444 171.509L-40.2015 172.037L-41.3634 172.542L-42.5296 173.026L-43.6997 173.487L-44.8733 173.926L-46.05 174.344L-47.2295 174.739L-48.4113 175.112L-49.595 175.463L-50.7803 175.792L-51.9668 176.099L-53.154 176.385L-54.3416 176.648L-55.5292 176.89L-56.7165 177.111L-57.903 177.31L-59.0885 177.487L-60.2724 177.644L-61.4545 177.779L-62.6344 177.893L-63.8118 177.986L-64.9862 178.058L-66.1574 178.11L-67.325 178.141L-68.4886 178.151L-69.6479 178.141L-70.8026 178.112L-71.9523 178.062L-73.0967 177.992L-74.2355 177.903L-75.3684 177.794L-76.4951 177.666L-77.6151 177.519L-78.7283 177.353L-79.8344 177.169L-80.9329 176.965L-82.0237 176.744L-83.1065 176.504L-84.1809 176.247L-85.2467 175.971L-86.3036 175.679L-87.3514 175.369L-88.3897 175.042L-89.4184 174.698L-90.4371 174.337L-91.4456 173.961L-92.4437 173.568L-93.4311 173.159L-94.4077 172.735L-95.3731 172.296L-96.3271 171.841L-97.2695 171.372L-98.2002 170.887L-99.1189 170.389L-100.025 169.877L-100.919 169.35L-101.801 168.811L-102.67 168.258L-103.525 167.692L-104.368 167.113L-105.197 166.522L-106.013 165.919L-106.815 165.303L-107.604 164.677L-108.378 164.039L-109.139 163.39L-109.885 162.73L-110.617 162.06L-111.334 161.38L-112.037 160.689L-112.725 159.99L-113.398 159.281L-114.057 158.563L-114.7 157.836L-115.328 157.101L-115.941 156.358L-116.539 155.607L-117.121 154.848L-117.688 154.083L-118.24 153.31L-118.776 152.531L-119.296 151.745L-119.801 150.954L-120.289 150.157L-120.763 149.354L-121.22 148.546L-121.662 147.734L-122.087 146.916L-122.497 146.095L-122.891 145.269L-123.27 144.44L-123.632 143.608L-123.978 142.772L-124.309 141.934L-124.624 141.093L-124.923 140.25L-125.206 139.404L-125.473 138.558L-125.725 137.709L-125.96 136.86L-126.181 136.01L-126.385 135.159L-126.574 134.308L-126.748 133.457L-126.906 132.607L-127.048 131.757L-127.175 130.907L-127.287 130.059L-127.384 129.212L-127.466 128.366L-127.532 127.523L-127.584 126.681L-127.621 125.842L-127.643 125.005L-127.651 124.172L-127.644 123.341L-127.623 122.514L-127.587 121.69L-127.537 120.87L-127.473 120.054L-127.395 119.242L-127.303 118.435L-127.198 117.632L-127.079 116.835L-126.947 116.042L-126.801 115.255L-126.642 114.473L-126.471 113.697L-126.286 112.928L-126.089 112.164L-125.879 111.407L-125.657 110.656L-125.423 109.912L-125.176 109.175L-124.918 108.445L-124.648 107.722L-124.367 107.007L-124.074 106.3L-123.77 105.6L-123.455 104.908L-123.129 104.225L-122.793 103.549L-122.446 102.882L-122.089 102.224L-121.722 101.575L-121.345 100.934L-120.958 100.302L-120.562 99.6799L-120.156 99.0668L-119.742 98.463L-119.318 97.8688L-118.886 97.2842L-118.445 96.7094L-117.996 96.1445L-117.539 95.5896L-117.074 95.0447L-116.601 94.51L-116.121 93.9856L-115.634 93.4716L-115.139 92.968L-114.638 92.475L-114.13 91.9926L-113.615 91.5208L-113.094 91.0598L-112.568 90.6097L-112.035 90.1704L-111.497 89.7421L-110.954 89.3248L-110.405 88.9186L-109.852 88.5235L-109.293 88.1395L-108.73 87.7666L-108.163 87.4051L-107.592 87.0547L-107.017 86.7157L-106.438 86.3879L-105.856 86.0715L-105.27 85.7664L-104.682 85.4727L-104.09 85.1903L-103.496 84.9193L-102.899 84.6597L-102.301 84.4115L-101.7 84.1746L-101.097 83.9491L-100.493 83.7349L-99.8877 83.5321L-99.2809 83.3405L-98.6732 83.1603L-98.0646 82.9913L-97.4555 82.8335L-96.8459 82.687L-96.2362 82.5516L-95.6264 82.4273L-95.0169 82.3141L-94.4077 82.212L-93.7991 82.1208L-93.1912 82.0406L-92.5843 81.9712L-91.9785 81.9127L-91.374 81.8649L-90.7711 81.8278L-90.1698 81.8013L-89.5703 81.7854L-88.9729 81.78L-88.3777 81.785L-87.7849 81.8003L-87.1946 81.8259L-86.607 81.8616L-86.0223 81.9075L-85.4407 81.9633L-84.8622 82.029L-84.2872 82.1045L-83.7156 82.1897L-83.1478 82.2845L-82.5838 82.3889L-82.0237 82.5026L-81.4678 82.6256L-80.9162 82.7579L-80.369 82.8992L-79.8264 83.0495L-79.2884 83.2086L-78.7553 83.3765L-78.2272 83.553L-77.7042 83.738L-77.1864 83.9314L-76.6739 84.1331L-76.167 84.3429L-75.6656 84.5607L-75.1699 84.7864L-74.6801 85.0198L-74.1963 85.2608L-73.7184 85.5094L-73.2468 85.7652L-72.7814 86.0283L-72.3224 86.2985L-71.8698 86.5756L-71.4238 86.8596L-70.9844 87.1501L-70.5518 87.4472L-70.1261 87.7507L-69.7072 88.0604L-69.2953 88.3763L-68.8905 88.698L-68.4929 89.0256L-68.1025 89.3588L-67.7194 89.6975L-67.3436 90.0416L-66.9753 90.3909L-66.6145 90.7452L-66.2612 91.1045L-65.9155 91.4685L-65.5775 91.8371L-65.2472 92.2102L-64.9247 92.5876L-64.6099 92.9691L-64.3031 93.3547L-64.004 93.7441L-63.713 94.1372L-63.4298 94.5338L-63.1547 94.9339L-62.8875 95.3372L-62.6285 95.7435L-62.3774 96.1529L-62.1345 96.565L-61.8996 96.9797L-61.6729 97.397L-61.4543 97.8166L-61.2439 98.2383L-61.0415 98.6621L-60.8474 99.0878L-60.6613 99.5152L-60.4835 99.9442L-60.3137 100.375L-60.1521 100.806L-59.9987 101.239L-59.8533 101.673L-59.7161 102.108L-59.5869 102.543L-59.4659 102.98L-59.3528 103.416L-59.2478 103.853L-59.1508 104.29L-59.0617 104.727L-58.9806 105.163L-58.9074 105.6L-58.8421 106.036L-58.7846 106.471L-58.7349 106.906L-58.693 107.34L-58.6588 107.774L-58.6322 108.206L-58.6132 108.636L-58.6018 109.066L-58.5979 109.494L-58.6015 109.921L-58.6125 110.345L-58.6308 110.768L-58.6564 111.189L-58.6893 111.608L-58.7292 112.025L-58.7763 112.439L-58.8304 112.851L-58.8915 113.261L-58.9594 113.668L-59.0342 114.072L-59.1157 114.473L-59.2039 114.872L-59.2986 115.267L-59.3999 115.659L-59.5076 116.048L-59.6216 116.433L-59.7419 116.815L-59.8684 117.194L-60.0009 117.568L-60.1395 117.939L-60.284 118.307L-60.4343 118.67L-60.5904 119.029L-60.7521 119.384L-60.9193 119.735L-61.092 120.082L-61.2701 120.424L-61.4535 120.762L-61.642 121.096L-61.8356 121.425L-62.0341 121.749L-62.2376 122.069L-62.4458 122.383L-62.6587 122.693L-62.8761 122.998L-63.0981 123.299L-63.3244 123.594L-63.5549 123.884L-63.7896 124.169L-64.0284 124.448L-64.2711 124.723L-64.5176 124.992L-64.7679 125.256L-65.0218 125.515L-65.2792 125.768L-65.54 126.015L-65.8042 126.258L-66.0715 126.494L-66.3419 126.725L-66.6153 126.951L-66.8915 127.171L-67.1706 127.385L-67.4522 127.594L-67.7364 127.796L-68.0231 127.994L-68.3121 128.185L-68.6032 128.371L-68.8965 128.551L-69.1918 128.725L-69.489 128.893L-69.788 129.055L-70.0886 129.212L-70.3908 129.363L-70.6945 129.508L-70.9995 129.647L-71.3058 129.78L-71.6132 129.908L-71.9216 130.029L-72.231 130.145L-72.5412 130.255L-72.8521 130.359L-73.1636 130.457L-73.4756 130.55L-73.7881 130.637L-74.1008 130.718L-74.4137 130.793L-74.7268 130.862L-75.0398 130.926L-75.3528 130.984L-75.6656 131.037L-75.9781 131.084L-76.2901 131.125L-76.6017 131.16L-76.9128 131.191L-77.2231 131.215L-77.5327 131.234L-77.8414 131.248L-78.1492 131.256L-78.4559 131.259L-78.7615 131.256L-79.0659 131.248L-79.3689 131.235L-79.6706 131.217L-79.9708 131.193L-80.2694 131.165L-80.5664 131.131L-80.8616 131.092L-81.1551 131.048L-81.4466 131L-81.7362 130.946L-82.0237 130.888L-82.3091 130.824L-82.5923 130.757L-82.8733 130.684L-83.1519 130.607L-83.4281 130.525L-83.7018 130.439L-83.9729 130.348L-84.2415 130.253L-84.5073 130.154L-84.7704 130.051L-85.0307 129.943L-85.2881 129.831L-85.5426 129.715L-85.794 129.595L-86.0425 129.472L-86.2878 129.344L-86.53 129.213L-86.7689 129.077L-87.0046 128.939L-87.2369 128.796L-87.4659 128.651L-87.6915 128.502L-87.9136 128.349L-88.1322 128.193L-88.3472 128.034L-88.5587 127.872L-88.7665 127.707L-88.9707 127.539L-89.1711 127.368L-89.3678 127.194L-89.5607 127.017L-89.7498 126.838L-89.9351 126.656L-90.1165 126.471L-90.2939 126.284L-90.4675 126.095L-90.6371 125.904L-90.8027 125.71L-90.9643 125.514L-91.1218 125.316L-91.2753 125.116L-91.4248 124.914L-91.5701 124.711L-91.7114 124.505" stroke="black"/>
 </g>
</svg>
