<?xml version="1.0" encoding="utf-8"?>
<svg xmlns="http://www.w3.org/2000/svg" fill="none" version="1.1" viewBox="-256.118 -300.505 512.236 601.01" x="-256.118pt" y="-300.505pt" width="512.236pt" height="601.01pt" stroke-width="0.566929" stroke-miterlimit="10.000000">
 <path d="M160.157 -272.576L255.118 -272.576L255.118 -299.505L160.157 -299.505Z" fill="black"/>
 <path d="M208.063 -278.245L208.63 -278.245"/>
 <g transform="matrix(1.000000,-0.000000,-0.000000,1.000000,208.346457,-278.244991)">
  <path d="M-40.4207 -0M-30.8333 -6.75664C-31.2672 -5.70286 -32.0317 -3.8019 -32.197 -3.07872L-32.2177 -3.07872C-32.4036 -3.82257 -33.2508 -5.86816 -33.6847 -6.96327L-36.3295 -13.4926C-36.6808 -14.3398 -37.342 -14.3398 -37.7139 -14.3398L-39.4289 -14.3398C-40.1727 -14.3398 -40.4207 -14.1125 -40.4207 -13.348L-40.4207 -0.991801C-40.4207 -0.24795 -40.1934 -0 -39.4289 -0L-38.871 -0C-38.0858 -0 -37.8792 -0.268613 -37.8792 -0.991801L-37.8792 -11.6743L-37.8585 -11.6743C-37.6313 -10.7445 -36.7014 -8.45097 -36.2055 -7.23188L-33.8087 -1.34306C-33.4368 -0.454575 -32.9409 -0.454575 -32.2383 -0.454575C-31.5358 -0.454575 -31.0399 -0.454575 -30.668 -1.34306L-28.0232 -7.8311C-27.8166 -8.327 -26.7008 -11.1371 -26.5561 -11.6743L-26.5355 -11.6743L-26.5355 -0.991801C-26.5355 -0.3306 -26.3908 -0 -25.5437 -0L-24.9858 -0C-24.2006 -0 -23.994 -0.268613 -23.994 -0.991801L-23.994 -13.348C-23.994 -14.0092 -24.1386 -14.3398 -24.9858 -14.3398L-26.7214 -14.3398C-27.238 -14.3398 -27.7546 -14.2985 -28.1058 -13.4513ZM-28.1058 -13.4513" fill="#fff"/>
 </g>
 <g transform="matrix(1.000000,-0.000000,-0.000000,1.000000,208.346457,-278.244991)">
  <path d="M-20.2172 -0M-10.6298 -6.75664C-11.0637 -5.70286 -11.8283 -3.8019 -11.9936 -3.07872L-12.0142 -3.07872C-12.2002 -3.82257 -13.0473 -5.86816 -13.4813 -6.96327L-16.1261 -13.4926C-16.4773 -14.3398 -17.1385 -14.3398 -17.5104 -14.3398L-19.2254 -14.3398C-19.9693 -14.3398 -20.2172 -14.1125 -20.2172 -13.348L-20.2172 -0.991801C-20.2172 -0.24795 -19.9899 -0 -19.2254 -0L-18.6675 -0C-17.8824 -0 -17.6757 -0.268613 -17.6757 -0.991801L-17.6757 -11.6743L-17.6551 -11.6743C-17.4278 -10.7445 -16.498 -8.45097 -16.0021 -7.23188L-13.6052 -1.34306C-13.2333 -0.454575 -12.7374 -0.454575 -12.0349 -0.454575C-11.3324 -0.454575 -10.8364 -0.454575 -10.4645 -1.34306L-7.81972 -7.8311C-7.6131 -8.327 -6.49732 -11.1371 -6.35268 -11.6743L-6.33202 -11.6743L-6.33202 -0.991801C-6.33202 -0.3306 -6.18738 -0 -5.34022 -0L-4.78233 -0C-3.99716 -0 -3.79053 -0.268613 -3.79053 -0.991801L-3.79053 -13.348C-3.79053 -14.0092 -3.93517 -14.3398 -4.78233 -14.3398L-6.51798 -14.3398C-7.03455 -14.3398 -7.55111 -14.2985 -7.90237 -13.4513ZM-7.90237 -13.4513" fill="#fff"/>
 </g>
 <g transform="matrix(1.000000,-0.000000,-0.000000,1.000000,208.346457,-278.244991)">
  <path d="M-1.02624 -0M7.89997 -13.4513C7.59003 -14.3398 6.99082 -14.3398 6.57757 -14.3398L4.75927 -14.3398C4.34602 -14.3398 3.7468 -14.3398 3.43686 -13.4513L-0.922928 -0.971138C-1.02624 -0.702526 -1.02624 -0.661201 -1.02624 -0.557888C-1.02624 -0 -0.509677 -0 -0.220402 -0L0.523449 -0C0.895374 -0 1.53591 -0 1.82519 -0.826501L2.63103 -3.12004L8.35454 -3.12004L9.05707 -1.13644C9.30502 -0.41325 9.44966 -0 10.4415 -0L11.5572 -0C11.8465 -0 12.3631 -0 12.3631 -0.557888C12.3631 -0.661201 12.3631 -0.702526 12.2598 -0.971138ZM12.2598 -0.971138M4.7386 -9.27747C5.04854 -10.1866 5.31715 -10.9718 5.48245 -11.7156L5.50312 -11.7156C5.60643 -11.2197 5.60643 -11.1784 5.77173 -10.7032L7.73467 -4.89702L3.2509 -4.89702ZM3.2509 -4.89702" fill="#fff"/>
 </g>
 <g transform="matrix(1.000000,-0.000000,-0.000000,1.000000,208.346457,-278.244991)">
  <path d="M13.8876 -0M25.8512 -2.95474C25.8512 -3.12004 25.7065 -3.20269 25.6239 -3.20269C25.128 -3.20269 24.5288 -1.85963 21.6154 -1.85963C17.9788 -1.85963 16.9456 -4.09118 16.9456 -7.19056C16.9456 -10.2693 18.0614 -12.5008 21.4501 -12.5008C23.289 -12.5008 24.2602 -11.7776 24.8181 -11.3231C24.942 -11.2197 25.004 -11.1371 25.1487 -11.1371C25.2313 -11.1371 25.3346 -11.2404 25.3553 -11.3231L25.7685 -13.6166C25.7892 -13.6993 25.7685 -13.7819 25.6032 -13.8439C24.3841 -14.2985 23.1237 -14.5877 21.512 -14.5877C16.4704 -14.5877 13.8876 -12.1289 13.8876 -7.21122C13.8876 -2.1489 16.5117 0.206625 21.5327 0.206625C23.289 0.206625 24.3841 -0.041325 25.8925 -0.971138C26.0578 -1.07445 26.0165 -1.21909 26.0165 -1.21909ZM26.0165 -1.21909" fill="#fff"/>
 </g>
 <g transform="matrix(1.000000,-0.000000,-0.000000,1.000000,208.346457,-278.244991)">
  <path d="M28.0162 -0M36.9424 -13.4513C36.6325 -14.3398 36.0333 -14.3398 35.62 -14.3398L33.8017 -14.3398C33.3885 -14.3398 32.7893 -14.3398 32.4793 -13.4513L28.1195 -0.971138C28.0162 -0.702526 28.0162 -0.661201 28.0162 -0.557888C28.0162 -0 28.5328 -0 28.8221 -0L29.5659 -0C29.9378 -0 30.5784 -0 30.8676 -0.826501L31.6735 -3.12004L37.397 -3.12004L38.0995 -1.13644C38.3475 -0.41325 38.4921 -0 39.4839 -0L40.5997 -0C40.889 -0 41.4055 -0 41.4055 -0.557888C41.4055 -0.661201 41.4055 -0.702526 41.3022 -0.971138ZM41.3022 -0.971138M33.7811 -9.27747C34.091 -10.1866 34.3596 -10.9718 34.5249 -11.7156L34.5456 -11.7156C34.6489 -11.2197 34.6489 -11.1784 34.8142 -10.7032L36.7771 -4.89702L32.2934 -4.89702ZM32.2934 -4.89702" fill="#fff"/>
 </g>
 <path d="M208.063 -252.733L208.63 -252.733"/>
 <g transform="matrix(1.000000,-0.000000,-0.000000,1.000000,208.346457,-252.733180)">
  <path d="M-24.9518 -0M-19.4573 -9.82714C-19.4573 -9.95626 -19.5577 -9.95626 -19.6007 -9.95626C-19.7298 -9.95626 -19.7442 -9.92757 -19.8016 -9.68368L-20.5763 -6.59925C-20.6193 -6.41275 -20.6336 -6.3984 -20.648 -6.38406C-20.6623 -6.35536 -20.7628 -6.34102 -20.7914 -6.34102C-23.1442 -6.14017 -24.9518 -4.20344 -24.9518 -2.41016C-24.9518 -0.860772 -23.7611 0.0860772 -22.2691 0.172154C-22.3839 0.616886 -22.4843 1.07596 -22.5991 1.5207C-22.7999 2.28105 -22.9147 2.75447 -22.9147 2.81185C-22.9147 2.84055 -22.9147 2.92662 -22.7712 2.92662C-22.7282 2.92662 -22.6708 2.92662 -22.6421 2.86924C-22.6134 2.84055 -22.5273 2.49624 -22.47 2.30974L-21.9391 0.172154C-19.4859 0.0430386 -17.6209 -1.96543 -17.6209 -3.77305C-17.6209 -5.22202 -18.7112 -6.25494 -20.3037 -6.35536ZM-20.3037 -6.35536M-20.3898 -6.06844C-19.4429 -6.01106 -18.4961 -5.48025 -18.4961 -4.07432C-18.4961 -2.4532 -19.6294 -0.30127 -21.8674 -0.129116ZM-21.8674 -0.129116M-22.1974 -0.11477C-22.9003 -0.157808 -24.0767 -0.530809 -24.0767 -2.10889C-24.0767 -3.91651 -22.7712 -5.92498 -20.7054 -6.05409ZM-20.7054 -6.05409" fill="black"/>
 </g>
 <g transform="matrix(1.000000,-0.000000,-0.000000,1.000000,208.346457,-252.733180)">
  <path d="M-11.8553 -0M-6.46116 -10.2432C-6.38943 -10.4297 -6.38943 -10.4584 -6.38943 -10.4871C-6.38943 -10.6736 -6.53289 -10.7596 -6.64766 -10.7596C-6.83416 -10.7596 -6.8772 -10.6305 -6.94893 -10.444L-11.7836 3.07009C-11.8553 3.25659 -11.8553 3.28528 -11.8553 3.31397C-11.8553 3.47178 -11.7406 3.58655 -11.5827 3.58655C-11.3962 3.58655 -11.3532 3.44309 -11.2958 3.28528ZM-11.2958 3.28528" fill="black"/>
 </g>
 <g transform="matrix(1.000000,-0.000000,-0.000000,1.000000,208.346457,-252.733180)">
  <path d="M-0.221107 -0M5.38826 -2.41016L5.07264 -2.41016C5.0296 -2.16628 4.91483 -1.37723 4.77137 -1.1477C4.67095 -1.01858 3.85321 -1.01858 3.42283 -1.01858L0.76878 -1.01858C1.15613 -1.34854 2.03125 -2.2667 2.40425 -2.61101C4.58487 -4.61948 5.38826 -5.36548 5.38826 -6.78575C5.38826 -8.43556 4.08275 -9.54022 2.41859 -9.54022C0.754434 -9.54022 -0.221107 -8.11995 -0.221107 -6.88617C-0.221107 -6.15452 0.410125 -6.15452 0.453164 -6.15452C0.754434 -6.15452 1.12744 -6.36971 1.12744 -6.82879C1.12744 -7.23048 0.854858 -7.50306 0.453164 -7.50306C0.324048 -7.50306 0.295356 -7.50306 0.252317 -7.48871C0.524895 -8.46426 1.29959 -9.12418 2.23209 -9.12418C3.45152 -9.12418 4.19752 -8.1056 4.19752 -6.78575C4.19752 -5.56632 3.49456 -4.50471 2.67682 -3.58655L-0.221107 -0.344309L-0.221107 -0L5.01525 -0ZM5.01525 -0" fill="black"/>
 </g>
 <g transform="matrix(1.000000,-0.000000,-0.000000,1.000000,208.346457,-252.733180)">
  <path d="M6.8742 -0M12.9139 -8.90899L12.9139 -9.23895L9.45651 -9.23895C7.72062 -9.23895 7.69193 -9.42545 7.63455 -9.69803L7.31893 -9.69803L6.8742 -6.82879L7.18981 -6.82879C7.23285 -7.08702 7.36197 -7.97648 7.54847 -8.13429C7.66324 -8.22037 8.7392 -8.22037 8.94005 -8.22037L11.9814 -8.22037L10.4607 -6.03975C10.0734 -5.48025 8.62443 -3.12747 8.62443 -0.430386C8.62443 -0.272578 8.62443 0.30127 9.21263 0.30127C9.81517 0.30127 9.81517 -0.258232 9.81517 -0.444732L9.81517 -1.16204C9.81517 -3.29963 10.1595 -4.96378 10.8337 -5.92498ZM10.8337 -5.92498" fill="black"/>
 </g>
 <g transform="matrix(1.000000,-0.000000,-0.000000,1.000000,208.346457,-252.733180)">
  <path d="M13.7113 -0M19.5502 -4.59078C19.5502 -5.78152 19.4784 -6.94356 18.962 -8.03387C18.3738 -9.2246 17.3409 -9.54022 16.6379 -9.54022C15.8058 -9.54022 14.7872 -9.12418 14.2564 -7.93345C13.8547 -7.02964 13.7113 -6.14017 13.7113 -4.59078C13.7113 -3.1992 13.8117 -2.15193 14.3282 -1.13335C14.8877 -0.0430386 15.8775 0.30127 16.6235 0.30127C17.8717 0.30127 18.589 -0.444732 19.005 -1.27681C19.5215 -2.35278 19.5502 -3.7587 19.5502 -4.59078ZM19.5502 -4.59078M16.6235 0.0143462C16.1645 0.0143462 15.232 -0.243885 14.9594 -1.80762C14.8016 -2.66839 14.8016 -3.7587 14.8016 -4.76294C14.8016 -5.93933 14.8016 -7.00094 15.0311 -7.84737C15.275 -8.80856 16.0067 -9.2533 16.6235 -9.2533C17.1687 -9.2533 18.0008 -8.92333 18.2734 -7.68956C18.4599 -6.87183 18.4599 -5.73848 18.4599 -4.76294C18.4599 -3.80174 18.4599 -2.71143 18.3021 -1.83631C18.0295 -0.258232 17.1257 0.0143462 16.6235 0.0143462ZM16.6235 0.0143462" fill="black"/>
 </g>
 <g transform="matrix(1.000000,-0.000000,-0.000000,1.000000,208.346457,-252.733180)">
  <path d="M20.6946 -5.20611M24.5701 -7.69677C24.5701 -8.76277 23.6834 -9.62952 22.6373 -9.62952C21.5613 -9.62952 20.6946 -8.74285 20.6946 -7.69677C20.6946 -6.64073 21.5613 -5.76402 22.6373 -5.76402C23.6834 -5.76402 24.5701 -6.63077 24.5701 -7.69677ZM24.5701 -7.69677M22.6373 -6.16252C21.7706 -6.16252 21.0931 -6.85991 21.0931 -7.69677C21.0931 -8.53363 21.7805 -9.23102 22.6373 -9.23102C23.4642 -9.23102 24.1716 -8.55356 24.1716 -7.69677C24.1716 -6.83998 23.4642 -6.16252 22.6373 -6.16252ZM22.6373 -6.16252" fill="black"/>
 </g>
 <g stroke-linecap="round" stroke-linejoin="round">
  <path d="M-40.5746 47.6339L-222.727 -267.864" stroke="black"/>
 </g>
 <g stroke-linecap="butt" stroke-linejoin="round" stroke-dasharray="2.000000" stroke-dashoffset="0.000000">
  <path d="M-40.5746 47.6339L-132.376 -294.975" stroke="black"/>
 </g>
 <g stroke-linecap="round" stroke-linejoin="round">
  <path d="M-40.5746 47.6339L-40.5746 -297.704" stroke="black"/>
 </g>
 <g stroke-linecap="butt" stroke-linejoin="round" stroke-dasharray="2.000000" stroke-dashoffset="0.000000">
  <path d="M-40.5746 47.6339L46.4477 -277.138" stroke="black"/>
 </g>
 <g stroke-linecap="round" stroke-linejoin="round">
  <path d="M-40.5746 47.6339L123.105 -235.867" stroke="black"/>
 </g>
 <g stroke-linecap="butt" stroke-linejoin="round" stroke-dasharray="2.000000" stroke-dashoffset="0.000000">
  <path d="M-40.5746 47.6339L184.797 -177.737" stroke="black"/>
 </g>
 <g stroke-linecap="round" stroke-linejoin="round">
  <path d="M-40.5746 47.6339L228.166 -107.524" stroke="black"/>
 </g>
 <g stroke-linecap="butt" stroke-linejoin="round" stroke-dasharray="2.000000" stroke-dashoffset="0.000000">
  <path d="M-40.5746 47.6339L251.26 -30.5628" stroke="black"/>
 </g>
 <g stroke-linecap="round" stroke-linejoin="round">
  <path d="M-40.5746 47.6339L253.584 47.6339" stroke="black"/>
 </g>
 <g stroke-linecap="butt" stroke-linejoin="round" stroke-dasharray="2.000000" stroke-dashoffset="0.000000">
  <path d="M-40.5746 47.6339L236.066 121.759" stroke="black"/>
 </g>
 <g stroke-linecap="round" stroke-linejoin="round">
  <path d="M-40.5746 47.6339L200.911 187.056" stroke="black"/>
 </g>
 <g stroke-linecap="butt" stroke-linejoin="round" stroke-dasharray="2.000000" stroke-dashoffset="0.000000">
  <path d="M-40.5746 47.6339L151.397 239.605" stroke="black"/>
 </g>
 <g stroke-linecap="round" stroke-linejoin="round">
  <path d="M-40.5746 47.6339L91.5886 276.547" stroke="black"/>
 </g>
 <g stroke-linecap="butt" stroke-linejoin="round" stroke-dasharray="2.000000" stroke-dashoffset="0.000000">
  <path d="M-40.5746 47.6339L26.0334 296.218" stroke="black"/>
 </g>
 <g stroke-linecap="round" stroke-linejoin="round">
  <path d="M-40.5746 47.6339L-40.5746 298.198" stroke="black"/>
 </g>
 <g stroke-linecap="butt" stroke-linejoin="round" stroke-dasharray="2.000000" stroke-dashoffset="0.000000">
  <path d="M-40.5746 47.6339L-103.715 283.276" stroke="black"/>
 </g>
 <g stroke-linecap="round" stroke-linejoin="round">
  <path d="M-40.5746 47.6339L-159.334 253.332" stroke="black"/>
 </g>
 <g stroke-linecap="butt" stroke-linejoin="round" stroke-dasharray="2.000000" stroke-dashoffset="0.000000">
  <path d="M-40.5746 47.6339L-204.095 211.155" stroke="black"/>
 </g>
 <g stroke-linecap="round" stroke-linejoin="round">
  <path d="M-40.5746 47.6339L-235.563 160.21" stroke="black"/>
 </g>
 <g stroke-linecap="butt" stroke-linejoin="round" stroke-dasharray="2.000000" stroke-dashoffset="0.000000">
  <path d="M-40.5746 47.6339L-252.319 104.371" stroke="black"/>
 </g>
 <g stroke-linecap="round" stroke-linejoin="round">
  <path d="M-40.5746 47.6339L-254.005 47.6339" stroke="black"/>
 </g>
 <g stroke-linecap="butt" stroke-linejoin="round" stroke-dasharray="2.000000" stroke-dashoffset="0.000000">
  <path d="M-40.5746 47.6339L-241.294 -6.14879" stroke="black"/>
 </g>
 <g stroke-linecap="round" stroke-linejoin="round">
  <path d="M-40.5746 47.6339L-215.788 -53.5254" stroke="black"/>
 </g>
 <g stroke-linecap="butt" stroke-linejoin="round" stroke-dasharray="2.000000" stroke-dashoffset="0.000000">
  <path d="M-40.5746 47.6339L-179.862 -91.6531" stroke="black"/>
 </g>
 <g stroke-linecap="round" stroke-linejoin="round">
  <path d="M-40.5746 47.6339L-136.467 -118.457" stroke="black"/>
 </g>
 <g stroke-linecap="round" stroke-linejoin="round" stroke-width="1.603518">
  <path d="M-222.727 -267.864L-216.879 -270.427L-210.997 -272.884L-205.084 -275.234L-199.141 -277.475L-193.171 -279.61L-187.175 -281.636L-181.155 -283.553L-175.114 -285.362L-169.052 -287.062L-162.973 -288.654L-156.878 -290.136L-150.769 -291.51L-144.648 -292.774L-138.516 -293.929L-132.376 -294.975L-126.23 -295.912L-120.08 -296.74L-113.927 -297.46L-107.773 -298.071L-101.62 -298.573L-95.4709 -298.968L-89.3265 -299.254L-83.189 -299.433L-77.0603 -299.505L-70.9422 -299.47L-64.8365 -299.328L-58.7451 -299.08L-52.6697 -298.726L-46.6123 -298.268L-40.5746 -297.704L-34.5583 -297.037L-28.5653 -296.266L-22.5973 -295.392L-16.6561 -294.416L-10.7434 -293.338L-4.86085 -292.159L0.989778 -290.88L6.80682 -289.502L12.5886 -288.025L18.3335 -286.45L24.0398 -284.778L29.706 -283.01L35.3304 -281.147L40.9115 -279.189L46.4477 -277.138L51.9375 -274.994L57.3793 -272.759L62.7716 -270.433L68.113 -268.018L73.402 -265.514L78.6372 -262.923L83.8171 -260.246L88.9404 -257.484L94.0057 -254.638L99.0115 -251.709L103.957 -248.699L108.84 -245.608L113.66 -242.439L118.415 -239.191L123.105 -235.867L127.727 -232.467L132.282 -228.994L136.767 -225.448L141.182 -221.831L145.525 -218.144L149.795 -214.388L153.992 -210.565L158.114 -206.676L162.161 -202.723L166.13 -198.707L170.023 -194.63L173.836 -190.493L177.57 -186.298L181.224 -182.045L184.797 -177.737L188.287 -173.375L191.695 -168.961L195.02 -164.496L198.26 -159.982L201.415 -155.42L204.485 -150.811L207.469 -146.159L210.365 -141.463L213.175 -136.726L215.896 -131.949L218.529 -127.134L221.073 -122.282L223.527 -117.395L225.892 -112.475L228.166 -107.524L230.35 -102.542L232.442 -97.5318L234.444 -92.4949L236.353 -87.4329L238.171 -82.3474L239.897 -77.2401L241.53 -72.1125L243.071 -66.9665L244.52 -61.8035L245.875 -56.6253L247.138 -51.4334L248.308 -46.2296L249.385 -41.0155L250.369 -35.7927L251.26 -30.5628L252.058 -25.3276L252.763 -20.0885L253.376 -14.8473L253.897 -9.60549L254.325 -4.36478L254.661 0.873253L254.905 6.10702L255.057 11.3349L255.118 16.5554L255.088 21.7668L254.967 26.9676L254.756 32.1563L254.455 37.3313L254.064 42.491L253.584 47.6339L253.016 52.7586L252.359 57.8634L251.615 62.9469L250.783 68.0076L249.865 73.0441L248.861 78.0549L247.772 83.0384L246.598 87.9934L245.34 92.9183L243.998 97.8118L242.574 102.672L241.068 107.499L239.481 112.29L237.813 117.044L236.066 121.759L234.24 126.436L232.336 131.071L230.355 135.664L228.297 140.214L226.165 144.719L223.958 149.178L221.678 153.591L219.325 157.955L216.901 162.269L214.406 166.533L211.842 170.746L209.209 174.905L206.509 179.011L203.743 183.061L200.911 187.056L198.016 190.993L195.057 194.873L192.037 198.693L188.955 202.454L185.815 206.153L182.615 209.791L179.359 213.366L176.047 216.877L172.68 220.324L169.259 223.705L165.786 227.02L162.262 230.269L158.688 233.45L155.066 236.562L151.397 239.605L147.681 242.578L143.921 245.481L140.118 248.313L136.272 251.073L132.386 253.761L128.461 256.376L124.498 258.917L120.498 261.384L116.463 263.777L112.394 266.095L108.292 268.338L104.16 270.505L99.9972 272.596L95.8064 274.61L91.5886 276.547L87.3452 278.407L83.0776 280.19L78.7871 281.894L74.4753 283.521L70.1435 285.07L65.7931 286.54L61.4254 287.931L57.042 289.243L52.6442 290.477L48.2334 291.632L43.811 292.707L39.3784 293.704L34.937 294.621L30.4882 295.459L26.0334 296.218L21.574 296.898L17.1114 297.499L12.6469 298.021L8.18195 298.464L3.71792 298.829L-0.743836 299.115L-5.20196 299.323L-9.65508 299.453L-14.1019 299.505L-18.541 299.479L-22.971 299.376L-27.3907 299.196L-31.7988 298.94L-36.1938 298.607L-40.5746 298.198L-44.9397 297.714L-49.288 297.155L-53.6182 296.521L-57.9289 295.812L-62.2189 295.03L-66.4871 294.175L-70.7321 293.247L-74.9527 292.247L-79.1478 291.176L-83.316 290.033L-87.4563 288.82L-91.5675 287.537L-95.6484 286.185L-99.6978 284.764L-103.715 283.276L-107.698 281.721L-111.646 280.099L-115.559 278.411L-119.434 276.659L-123.272 274.843L-127.07 272.963L-130.829 271.02L-134.546 269.016L-138.221 266.951L-141.853 264.826L-145.441 262.642L-148.984 260.4L-152.481 258.1L-155.932 255.743L-159.334 253.332L-162.688 250.865L-165.993 248.345L-169.247 245.772L-172.45 243.147L-175.601 240.472L-178.7 237.747L-181.745 234.973L-184.736 232.152L-187.672 229.284L-190.552 226.37L-193.376 223.412L-196.143 220.41L-198.852 217.366L-201.503 214.28L-204.095 211.155L-206.628 207.99L-209.101 204.787L-211.513 201.548L-213.864 198.272L-216.153 194.962L-218.381 191.618L-220.545 188.243L-222.647 184.835L-224.686 181.398L-226.66 177.932L-228.57 174.439L-230.416 170.918L-232.197 167.373L-233.913 163.803L-235.563 160.21L-237.147 156.596L-238.666 152.961L-240.118 149.306L-241.503 145.633L-242.822 141.944L-244.074 138.238L-245.259 134.517L-246.377 130.784L-247.428 127.038L-248.412 123.28L-249.328 119.513L-250.177 115.738L-250.958 111.955L-251.672 108.165L-252.319 104.371L-252.898 100.572L-253.41 96.7708L-253.854 92.9679L-254.232 89.1647L-254.542 85.3622L-254.786 81.5617L-254.963 77.7643L-255.074 73.9711L-255.118 70.1834L-255.096 66.4021L-255.009 62.6286L-254.855 58.8639L-254.637 55.1091L-254.353 51.3654L-254.005 47.6339L-253.593 43.9157L-253.116 40.2118L-252.576 36.5234L-251.973 32.8515L-251.307 29.1972L-250.578 25.5616L-249.788 21.9458L-248.936 18.3506L-248.023 14.7773L-247.05 11.2268L-246.017 7.70005L-244.924 4.19815L-243.772 0.722068L-242.562 -2.72724L-241.294 -6.14879L-239.969 -9.54165L-238.588 -12.9049L-237.151 -16.2375L-235.658 -19.5387L-234.111 -22.8075L-232.51 -26.043L-230.855 -29.2444L-229.148 -32.4107L-227.389 -35.5412L-225.579 -38.635L-223.718 -41.6913L-221.808 -44.7093L-219.849 -47.6881L-217.842 -50.6271L-215.788 -53.5254L-213.687 -56.3824L-211.54 -59.1972L-209.349 -61.9692L-207.113 -64.6976L-204.834 -67.3818L-202.513 -70.0211L-200.15 -72.6149L-197.747 -75.1625L-195.304 -77.6634L-192.822 -80.1168L-190.302 -82.5222L-187.745 -84.8791L-185.152 -87.1869L-182.524 -89.4451L-179.862 -91.6531L-177.166 -93.8105L-174.438 -95.9167L-171.678 -97.9713L-168.888 -99.9739L-166.069 -101.924L-163.221 -103.821L-160.345 -105.665L-157.443 -107.455L-154.515 -109.192L-151.563 -110.874L-148.587 -112.501L-145.588 -114.073L-142.568 -115.59L-139.527 -117.051L-136.467 -118.457L-133.388 -119.807L-130.292 -121.1L-127.179 -122.337L-124.05 -123.517L-120.907 -124.641L-117.751 -125.707L-114.582 -126.717L-111.401 -127.669L-108.211 -128.564L-105.01 -129.402L-101.802 -130.182L-98.5854 -130.905L-95.3629 -131.571L-92.135 -132.179L-88.9028 -132.73L-85.6672 -133.223L-82.4293 -133.659L-79.1901 -134.038L-75.9505 -134.359L-72.7115 -134.624L-69.4742 -134.832L-66.2396 -134.982L-63.0086 -135.076L-59.7822 -135.114L-56.5613 -135.096L-53.347 -135.021L-50.1403 -134.89L-46.942 -134.704L-43.7531 -134.463L-40.5746 -134.166L-37.4074 -133.815L-34.2524 -133.409L-31.1106 -132.949L-27.9829 -132.435L-24.8702 -131.868L-21.7734 -131.247L-18.6934 -130.574L-15.6311 -129.848L-12.5873 -129.071L-9.56295 -128.242L-6.5589 -127.361L-3.57599 -126.431L-0.615058 -125.45L2.32306 -124.419L5.23754 -123.339L8.12758 -122.211L10.9924 -121.034L13.8311 -119.81L16.6431 -118.538L19.4274 -117.22L22.1834 -115.856L24.9103 -114.447L27.6074 -112.993L30.274 -111.495L32.9093 -109.953L35.5126 -108.368L38.0834 -106.741L40.6207 -105.072L43.1242 -103.363L45.593 -101.613L48.0265 -99.823L50.4241 -97.9944L52.7853 -96.1277L55.1094 -94.2234L57.3958 -92.2823L59.644 -90.3051L61.8534 -88.2925L64.0234 -86.2454L66.1536 -84.1644L68.2434 -82.0503L70.2924 -79.9039L72.3 -77.726L74.2658 -75.5173L76.1893 -73.2786L78.0701 -71.0107L79.9077 -68.7145L81.7018 -66.3906L83.4519 -64.04L85.1577 -61.6635L86.8188 -59.2618L88.4349 -56.8359L90.0056 -54.3864L91.5305 -51.9144L93.0095 -49.4205L94.4421 -46.9058L95.8282 -44.3709L97.1674 -41.8167L98.4595 -39.2442L99.7043 -36.6541L100.902 -34.0474L102.051 -31.4248L103.153 -28.7873L104.206 -26.1357L105.212 -23.4708L106.169 -20.7936L107.077 -18.1049L107.937 -15.4055L108.748 -12.6964L109.511 -9.97843L110.224 -7.25239L110.889 -4.5192L111.505 -1.7797L112.072 0.965227L112.59 3.71473L113.059 6.46794L113.479 9.224L113.851 11.9821L114.173 14.7413L114.447 17.5007L114.673 20.2597L114.849 23.0172L114.978 25.7725L115.058 28.5246L115.09 31.2729L115.074 34.0164L115.011 36.7543L114.9 39.4859L114.741 42.2102L114.535 44.9265L114.283 47.6339L113.984 50.3317L113.638 53.0191L113.246 55.6953L112.808 58.3595L112.325 61.0109L111.796 63.6488L111.223 66.2723L110.605 68.8808L109.942 71.4735L109.236 74.0496L108.486 76.6085L107.694 79.1493L106.858 81.6714L105.98 84.1741L105.06 86.6567L104.099 89.1184L103.097 91.5586L102.054 93.9767L100.971 96.3719L99.8481 98.7436L98.6863 101.091L97.4858 103.414L96.2472 105.711L94.971 107.983L93.6577 110.227L92.3078 112.445L90.9219 114.635L89.5005 116.796L88.0442 118.928L86.5536 121.031L85.0292 123.104L83.4716 125.147L81.8815 127.158L80.2594 129.137L78.606 131.085L76.9218 133L75.2075 134.882L73.4638 136.73L71.6912 138.545L69.8904 140.325L68.0621 142.07L66.207 143.78L64.3256 145.455L62.4187 147.093L60.4869 148.695L58.531 150.261L56.5515 151.789L54.5493 153.28L52.5249 154.733L50.4792 156.148L48.4128 157.524L46.3264 158.862L44.2207 160.161L42.0964 161.421L39.9543 162.641L37.7951 163.822L35.6195 164.962L33.4282 166.063L31.222 167.123L29.0016 168.143L26.7676 169.122L24.521 170.061L22.2624 170.958L19.9924 171.815L17.712 172.63L15.4217 173.404L13.1224 174.136L10.8148 174.827L8.49962 175.477L6.17759 176.084L3.84945 176.651L1.51595 177.175L-0.82218 177.658L-3.1642 178.099L-5.50939 178.499L-7.857 178.857L-10.2063 179.173L-12.5566 179.448L-14.9071 179.681L-17.2572 179.873L-19.606 180.024L-21.953 180.133L-24.2973 180.202L-26.6382 180.229L-28.9752 180.216L-31.3073 180.161L-33.634 180.067L-35.9546 179.932L-38.2684 179.757L-40.5746 179.541L-42.8726 179.286L-45.1617 178.992L-47.4412 178.658L-49.7106 178.285L-51.9691 177.874L-54.216 177.423L-56.4507 176.935L-58.6726 176.408L-60.8811 175.844L-63.0754 175.243L-65.2551 174.604L-67.4193 173.929L-69.5677 173.217L-71.6995 172.469L-73.8141 171.686L-75.911 170.867L-77.9896 170.013L-80.0493 169.125L-82.0895 168.202L-84.1097 167.246L-86.1094 166.256L-88.088 165.234L-90.0449 164.179L-91.9796 163.092L-93.8917 161.973L-95.7806 160.823L-97.6458 159.643L-99.4868 158.432L-101.303 157.191L-103.094 155.922L-104.86 154.623L-106.6 153.296L-108.313 151.942L-109.999 150.56L-111.658 149.152L-113.289 147.717L-114.892 146.257L-116.467 144.772L-118.013 143.262L-119.529 141.728L-121.015 140.171L-122.472 138.59L-123.898 136.988L-125.294 135.364L-126.659 133.718L-127.992 132.052L-129.294 130.366L-130.564 128.66L-131.801 126.936L-133.006 125.193L-134.179 123.433L-135.319 121.656L-136.425 119.862L-137.498 118.053L-138.538 116.228L-139.543 114.389L-140.515 112.536L-141.452 110.669L-142.356 108.79L-143.224 106.899L-144.058 104.996L-144.858 103.082L-145.622 101.158L-146.352 99.2249L-147.046 97.2824L-147.705 95.3315L-148.329 93.373L-148.918 91.4074L-149.471 89.4353L-149.989 87.4574L-150.471 85.4743L-150.918 83.4866L-151.329 81.495L-151.705 79.5001L-152.045 77.5024L-152.35 75.5027L-152.62 73.5016L-152.854 71.4996L-153.053 69.4974L-153.216 67.4957L-153.344 65.4949L-153.438 63.4958L-153.496 61.4989L-153.519 59.5049L-153.508 57.5143L-153.461 55.5277L-153.381 53.5459L-153.266 51.5692L-153.117 49.5984L-152.933 47.6339L-152.716 45.6765L-152.465 43.7266L-152.181 41.7849L-151.863 39.8519L-151.513 37.9281L-151.129 36.0142L-150.713 34.1106L-150.265 32.218L-149.784 30.3368L-149.272 28.4677L-148.728 26.6111L-148.152 24.7675L-147.546 22.9376L-146.909 21.1217L-146.242 19.3205L-145.544 17.5343L-144.817 15.7638L-144.06 14.0094L-143.275 12.2715L-142.46 10.5507L-141.617 8.84736L-140.746 7.16203L-139.847 5.49513L-138.921 3.84711L-137.968 2.2184L-136.989 0.609446L-135.983 -0.979338L-134.952 -2.54753L-133.896 -4.09473L-132.814 -5.62053L-131.708 -7.12454L-130.578 -8.60637L-129.424 -10.0656L-128.247 -11.502L-127.048 -12.9151L-125.826 -14.3045L-124.582 -15.67L-123.317 -17.0112L-122.03 -18.3277L-120.724 -19.6193L-119.397 -20.8856L-118.051 -22.1264L-116.686 -23.3413L-115.303 -24.5301L-113.901 -25.6925L-112.482 -26.8282L-111.046 -27.937L-109.593 -29.0187L-108.124 -30.0729L-106.64 -31.0995L-105.14 -32.0983L-103.627 -33.069L-102.099 -34.0115L-100.558 -34.9255L-99.0033 -35.811L-97.4367 -36.6676L-95.8581 -37.4953L-94.2682 -38.2939L-92.6674 -39.0632L-91.0564 -39.8032L-89.4355 -40.5136L-87.8055 -41.1945L-86.1667 -41.8456L-84.5197 -42.467L-82.8651 -43.0584L-81.2034 -43.6199L-79.5351 -44.1513L-77.8608 -44.6527L-76.181 -45.1239L-74.4962 -45.5649L-72.807 -45.9758L-71.1139 -46.3564L-69.4174 -46.7068L-67.7181 -47.0269L-66.0165 -47.3168L-64.3132 -47.5766L-62.6086 -47.8061L-60.9033 -48.0055L-59.1979 -48.1748L-57.4928 -48.3141L-55.7885 -48.4234L-54.0857 -48.5028L-52.3847 -48.5524L-50.6862 -48.5722L-48.9906 -48.5624L-47.2985 -48.5231L-45.6103 -48.4544L-43.9266 -48.3564L-42.2479 -48.2293L-40.5746 -48.0732L-38.9072 -47.8882L-37.2463 -47.6745L-35.5923 -47.4324L-33.9458 -47.1618L-32.3071 -46.8631L-30.6769 -46.5365L-29.0554 -46.182L-27.4433 -45.8L-25.8409 -45.3907L-24.2488 -44.9542L-22.6673 -44.4909L-21.097 -44.0008L-19.5382 -43.4844L-17.9915 -42.9418L-16.4572 -42.3733L-14.9358 -41.7792L-13.4276 -41.1598L-11.9332 -40.5152L-10.4529 -39.8459L-8.98705 -39.152L-7.53618 -38.434L-6.10061 -37.6921L-4.68075 -36.9266L-3.27696 -36.1378L-1.88963 -35.3262L-0.519126 -34.4919L0.8342 -33.6353L2.16999 -32.7569L3.48789 -31.8568L4.78756 -30.9356L6.06868 -29.9935L7.3309 -29.0308L8.57392 -28.0481L9.79741 -27.0456L11.0011 -26.0237L12.1846 -24.9828L13.3477 -23.9233L14.4901 -22.8457L15.6115 -21.7501L16.7117 -20.6372L17.7904 -19.5072L18.8473 -18.3607L19.8821 -17.1979L20.8947 -16.0194L21.8849 -14.8255L22.8523 -13.6167L23.7968 -12.3933L24.7181 -11.1558L25.6161 -9.90474L26.4906 -8.6404L27.3413 -7.36328L28.1682 -6.0738L28.971 -4.7724L29.7496 -3.45954L30.5038 -2.13565L31.2334 -0.801185L31.9385 0.543417L32.6187 1.8977L33.274 3.26122L33.9043 4.63352L34.5095 6.01415L35.0895 7.40265L35.6441 8.79858L36.1734 10.2015L36.6771 11.6109L37.1554 13.0263L37.6081 14.4474L38.0351 15.8735L38.4365 17.3044L38.8122 18.7395L39.1621 20.1784L39.4863 21.6206L39.7848 23.0656L40.0575 24.5131L40.3045 25.9625L40.5257 27.4134L40.7212 28.8653L40.8911 30.3179L41.0353 31.7706L41.1539 33.223L41.247 34.6747L41.3146 36.1251L41.3569 37.574L41.3738 39.0208L41.3655 40.4651L41.332 41.9065L41.2735 43.3445L41.19 44.7786L41.0817 46.2086L40.9487 47.6339L40.7912 49.0542L40.6092 50.4689L40.4029 51.8778L40.1724 53.2803L39.918 54.6761L39.6397 56.0648L39.3378 57.4459L39.0125 58.8191L38.6638 60.184L38.292 61.5402L37.8973 62.8873L37.4799 64.2249L37.04 65.5527L36.5778 66.8702L36.0936 68.1771L35.5875 69.4731L35.0599 70.7577L34.5108 72.0306L33.9407 73.2916L33.3497 74.5401L32.7381 75.776L32.1061 76.9988L31.4541 78.2083L30.7822 79.404L30.0908 80.5857L29.3802 81.7531L28.6506 82.9059L27.9023 84.0437L27.1356 85.1663L26.3509 86.2734L25.5484 87.3646L24.7285 88.4398L23.8914 89.4986L23.0374 90.5407L22.167 91.566L21.2804 92.5742L20.3779 93.5649L19.4599 94.538L18.5268 95.4932L17.5788 96.4304L16.6163 97.3492L15.6396 98.2494L14.6492 99.1309L13.6453 99.9934L12.6284 100.837L11.5987 101.661L10.5566 102.465L9.50254 103.25L8.43685 104.015L7.35989 104.76L6.27204 105.485L5.17366 106.189L4.06513 106.873L2.94684 107.536L1.81915 108.178L0.682449 108.8L-0.462882 109.4L-1.61646 109.98L-2.77791 110.538L-3.94683 111.075L-5.12285 111.59L-6.30558 112.085L-7.49462 112.557L-8.6896 113.008L-9.89013 113.437L-11.0958 113.844L-12.3063 114.23L-13.5211 114.594L-14.7399 114.936L-15.9623 115.256L-17.1879 115.554L-18.4164 115.83L-19.6473 116.084L-20.8802 116.316L-22.1148 116.527L-23.3507 116.715L-24.5875 116.882L-25.8248 117.026L-27.0622 117.149L-28.2993 117.25L-29.5359 117.33L-30.7714 117.387L-32.0055 117.423L-33.2379 117.437L-34.4682 117.43L-35.6959 117.402L-36.9208 117.352L-38.1424 117.281L-39.3605 117.189L-40.5746 117.075L-41.7843 116.941L-42.9894 116.786L-44.1895 116.61L-45.3841 116.414L-46.5731 116.197L-47.756 115.96L-48.9324 115.703L-50.1021 115.426L-51.2647 115.129L-52.4199 114.812L-53.5674 114.476L-54.7068 114.121L-55.8377 113.746L-56.96 113.352L-58.0732 112.94L-59.1771 112.509L-60.2714 112.059L-61.3557 111.592L-62.4297 111.106L-63.4933 110.603L-64.546 110.082L-65.5876 109.543L-66.6178 108.988L-67.6363 108.416L-68.6429 107.827L-69.6373 107.221L-70.6192 106.6L-71.5884 105.962L-72.5446 105.309L-73.4876 104.641L-74.4171 103.957L-75.333 103.259L-76.2349 102.546L-77.1226 101.819L-77.9959 101.077L-78.8546 100.322L-79.6985 99.5532L-80.5274 98.7713L-81.3411 97.9764L-82.1393 97.1689L-82.922 96.349L-83.6888 95.5171L-84.4397 94.6735L-85.1744 93.8184L-85.8928 92.9521L-86.5947 92.0751L-87.28 91.1874L-87.9485 90.2896L-88.6 89.3818L-89.2345 88.4645L-89.8518 87.5378L-90.4517 86.6022L-91.0342 85.658L-91.5991 84.7054L-92.1463 83.7449L-92.6758 82.7766L-93.1873 81.801L-93.6808 80.8184L-94.1563 79.8291L-94.6137 78.8334L-95.0527 77.8317L-95.4735 76.8242L-95.876 75.8114L-96.26 74.7935L-96.6255 73.7709L-96.9725 72.7439L-97.301 71.7129L-97.6108 70.6781L-97.902 69.6399L-98.1746 68.5986L-98.4285 67.5546L-98.6638 66.5082L-98.8803 65.4598L-99.0782 64.4096L-99.2574 63.3579L-99.4179 62.3052L-99.5597 61.2517L-99.683 60.1978L-99.7876 59.1438L-99.8737 58.09L-99.9412 57.0367L-99.9903 55.9843L-100.021 54.933L-100.033 53.8833L-100.027 52.8354L-100.003 51.7896L-99.9604 50.7462L-99.8999 49.7056L-99.8213 48.6681L-99.7248 47.6339L-99.6105 46.6034L-99.4784 45.577L-99.3288 44.5547L-99.1616 43.5371L-98.977 42.5244L-98.7751 41.5168L-98.556 40.5147L-98.3199 39.5183L-98.0669 38.528L-97.7972 37.544L-97.5108 36.5666L-97.208 35.5961L-96.8888 34.6328L-96.5535 33.6768L-96.2021 32.7286L-95.8349 31.7883L-95.4521 30.8562L-95.0537 29.9326L-94.64 29.0177L-94.2112 28.1118L-93.7675 27.2151L-93.3089 26.3279L-92.8358 25.4503L-92.3484 24.5827L-91.8467 23.7253L-91.3311 22.8783L-90.8017 22.0419L-90.2588 21.2163L-89.7026 20.4018L-89.1332 19.5986L-88.5509 18.8068L-87.956 18.0267L-87.3486 17.2585L-86.729 16.5023L-86.0975 15.7584L-85.4542 15.027L-84.7994 14.3081L-84.1333 13.6021L-83.4563 12.909L-82.7684 12.2291L-82.0701 11.5624L-81.3615 10.9092L-80.6429 10.2696L-79.9145 9.64381L-79.1766 9.03188L-78.4295 8.43399L-77.6734 7.85027L-76.9086 7.28085L-76.1354 6.72585L-75.354 6.18539L-74.5647 5.6596L-73.7678 5.14857L-72.9635 4.65241L-72.1521 4.17123L-71.3338 3.7051L-70.5091 3.25414L-69.6781 2.81841L-68.8411 2.39801L-67.9984 1.99299L-67.1503 1.60344L-66.297 1.22942L-65.4389 0.870991L-64.5761 0.528201L-63.7091 0.201104L-62.838 -0.110257L-61.9632 -0.40584L-61.085 -0.685613L-60.2036 -0.949544L-59.3192 -1.19761L-58.4323 -1.42979L-57.543 -1.64607L-56.6517 -1.84644L-55.7586 -2.03089L-54.864 -2.19943L-53.9683 -2.35206L-53.0716 -2.48879L-52.1742 -2.60963L-51.2765 -2.7146L-50.3786 -2.80373L-49.481 -2.87705L-48.5838 -2.93459L-47.6874 -2.97639L-46.7919 -3.00249L-45.8978 -3.01294L-45.0051 -3.00779L-44.1143 -2.9871L-43.2256 -2.95093L-42.3392 -2.89935L-41.4555 -2.83243L-40.5746 -2.75024L-39.6968 -2.65286L-38.8224 -2.54038L-37.9517 -2.41288L-37.0849 -2.27046L-36.2222 -2.11322L-35.364 -1.94125L-34.5104 -1.75466L-33.6617 -1.55356L-32.8182 -1.33806L-31.98 -1.10828L-31.1474 -0.864351L-30.3208 -0.606385L-29.5002 -0.334516L-28.6859 -0.0488759L-27.8782 0.250397L-27.0772 0.563164L-26.2833 0.889279L-25.4966 1.2286L-24.7173 1.58096L-23.9456 1.94623L-23.1818 2.32423L-22.4261 2.7148L-21.6786 3.11779L-20.9396 3.53302L-20.2092 3.96032L-19.4877 4.39952L-18.7753 4.85044L-18.0721 5.3129L-17.3783 5.78672L-16.6941 6.27171L-16.0196 6.76768L-15.3552 7.27444L-14.7008 7.7918L-14.0567 8.31956L-13.423 8.85752L-12.8 9.40548L-12.1877 9.96323L-11.5862 10.5306L-10.9959 11.1073L-10.4167 11.6932L-9.84886 12.288L-9.29247 12.8916L-8.74767 13.5038L-8.21459 14.1242L-7.69335 14.7527L-7.18407 15.3891L-6.68685 16.0331L-6.20182 16.6846L-5.72908 17.3432L-5.26872 18.0088L-4.82084 18.6811L-4.38555 19.36L-3.96292 20.0451L-3.55305 20.7362L-3.15601 21.4332L-2.77187 22.1357L-2.40072 22.8435L-2.04262 23.5565L-1.69763 24.2743L-1.36581 24.9967L-1.04722 25.7236L-0.741909 26.4545L-0.449921 27.1894L-0.1713 27.9279L0.0939167 28.6699L0.345695 29.4151L0.584005 30.1631L0.808821 30.914L1.02012 31.6672L1.21789 32.4227L1.40212 33.1802L1.57279 33.9394L1.72991 34.7001L1.87347 35.4621L2.00348 36.2252L2.11995 36.989L2.22288 37.7534L2.3123 38.518L2.38822 39.2828L2.45067 40.0474L2.49968 40.8116L2.53529 41.5752L2.55752 42.338L2.56642 43.0996L2.56203 43.86L2.54441 44.6188L2.5136 45.3758L2.46967 46.1308L2.41266 46.8836L2.34265 47.6339L2.2597 48.3816L2.16389 49.1264L2.05529 49.8681L1.93398 50.6064L1.80004 51.3412L1.65355 52.0723L1.49462 52.7994L1.32332 53.5223L1.13976 54.2408L0.944036 54.9548L0.736254 55.6639L0.516519 56.3681L0.28494 57.0671L0.0416325 57.7607L-0.213288 58.4487L-0.479703 59.1309L-0.757488 59.8072L-1.04652 60.4774L-1.34666 61.1412L-1.65779 61.7985L-1.97977 62.4491L-2.31247 63.0928L-2.65573 63.7295L-3.00942 64.359L-3.3734 64.9811L-3.74751 65.5957L-4.1316 66.2025L-4.52553 66.8015L-4.92912 67.3925L-5.34224 67.9753L-5.76471 68.5498L-6.19637 69.1158L-6.63705 69.6732L-7.0866 70.2218L-7.54483 70.7616L-8.01158 71.2923L-8.48668 71.8139L-8.96994 72.3262L-9.4612 72.829L-9.96026 73.3224L-10.467 73.8061L-10.9811 74.28L-11.5025 74.7441L-12.031 75.1981L-12.5664 75.6421L-13.1084 76.0759L-13.657 76.4995L-14.2119 76.9126L-14.7729 77.3153L-15.3399 77.7074L-15.9126 78.0889L-16.4908 78.4597L-17.0744 78.8197L-17.6631 79.1688L-18.2568 79.507L-18.8552 79.8342L-19.4581 80.1504L-20.0654 80.4554L-20.6768 80.7493L-21.2922 81.0319L-21.9113 81.3033L-22.534 81.5634L-23.1599 81.8121L-23.789 82.0494L-24.421 82.2753L-25.0557 82.4898L-25.693 82.6928L-26.3325 82.8843L-26.9741 83.0643L-27.6177 83.2327L-28.2629 83.3896L-28.9096 83.535L-29.5576 83.6689L-30.2066 83.7911L-30.8566 83.9019L-31.5072 84.0011L-32.1583 84.0888L-32.8097 84.1649L-33.4611 84.2296L-34.1124 84.2828L-34.7633 84.3245L-35.4138 84.3549L-36.0635 84.3738L-36.7122 84.3814L-37.3599 84.3777L-38.0062 84.3626L-38.6511 84.3364L-39.2942 84.299L-39.9354 84.2504L-40.5746 84.1908L-41.2114 84.1201L-41.8458 84.0385L-42.4776 83.946L-43.1065 83.8427L-43.7324 83.7286L-44.3551 83.6038L-44.9745 83.4684L-45.5903 83.3225L-46.2023 83.1662L-46.8105 82.9994L-47.4145 82.8225L-48.0143 82.6353L-48.6097 82.438L-49.2005 82.2308L-49.7866 82.0136L-50.3677 81.7867L-50.9438 81.5501L-51.5146 81.3039L-52.08 81.0482L-52.6399 80.7832L-53.1941 80.5089L-53.7424 80.2256L-54.2848 79.9332L-54.821 79.6319L-55.3509 79.3219L-55.8744 79.0032L-56.3913 78.676L-56.9015 78.3405L-57.4049 77.9967L-57.9013 77.6448L-58.3907 77.2849L-58.8728 76.9173L-59.3476 76.5419L-59.8149 76.159L-60.2747 75.7686L-60.7268 75.3711L-61.171 74.9664L-61.6074 74.5547L-62.0357 74.1363L-62.456 73.7112L-62.868 73.2796L-63.2717 72.8416L-63.667 72.3975L-64.0537 71.9473L-64.4319 71.4913L-64.8015 71.0296L-65.1622 70.5623L-65.5141 70.0896L-65.8571 69.6117L-66.1912 69.1288L-66.5161 68.641L-66.832 68.1484L-67.1386 67.6514L-67.436 67.1499L-67.7241 66.6442L-68.0028 66.1345L-68.2721 65.6209L-68.5319 65.1036L-68.7822 64.5828L-69.023 64.0586L-69.2541 63.5313L-69.4756 63.0009L-69.6875 62.4677L-69.8897 61.9319L-70.0821 61.3935L-70.2648 60.8529L-70.4377 60.3101L-70.6008 59.7653L-70.7541 59.2188L-70.8976 58.6706L-71.0313 58.121L-71.1551 57.5701L-71.2691 57.0182L-71.3733 56.4653L-71.4676 55.9117L-71.5521 55.3575L-71.6268 54.8029L-71.6917 54.2481L-71.7467 53.6932L-71.7921 53.1384L-71.8276 52.5839L-71.8535 52.0299L-71.8696 51.4765L-71.876 50.9238L-71.8729 50.3722L-71.8601 49.8216L-71.8377 49.2724L-71.8058 48.7245L-71.7645 48.1783L-71.7137 47.6339L-71.6535 47.0914L-71.584 46.5511L-71.5052 46.0129L-71.4172 45.4772L-71.32 44.944L-71.2137 44.4136L-71.0984 43.8861L-70.9741 43.3615L-70.8409 42.8402L-70.6989 42.3222L-70.5481 41.8076L-70.3887 41.2967L-70.2207 40.7896L-70.0442 40.2863L-69.8592 39.7871L-69.6659 39.2921L-69.4643 38.8014L-69.2546 38.3152L-69.0369 37.8336L-68.8111 37.3567L-68.5775 36.8846L-68.3361 36.4175L-68.087 35.9556L-67.8304 35.4988L-67.5663 35.0475L-67.2949 34.6015L-67.0162 34.1612L-66.7304 33.7266L-66.4376 33.2978L-66.1378 32.875L-65.8313 32.4582L-65.5181 32.0475L-65.1983 31.643L-64.8722 31.245L-64.5397 30.8534L-64.201 30.4683L-63.8563 30.0899L-63.5057 29.7182L-63.1493 29.3533L-62.7872 28.9953L-62.4195 28.6444L-62.0465 28.3005L-61.6682 27.9638L-61.2847 27.6344L-60.8963 27.3122L-60.503 26.9975L-60.1049 26.6902L-59.7023 26.3904L-59.2953 26.0982L-58.8839 25.8137L-58.4684 25.5369L-58.0488 25.2679L-57.6254 25.0067L-57.1983 24.7534L-56.7675 24.508L-56.3333 24.2706L-55.8959 24.0412L-55.4552 23.8199L-55.0116 23.6067L-54.5651 23.4016L-54.1159 23.2047L-53.6641 23.016L-53.21 22.8355L-52.7535 22.6633L-52.295 22.4994L-51.8344 22.3438L-51.3721 22.1965L-50.9081 22.0576L-50.4425 21.927L-49.9756 21.8048L-49.5075 21.6909L-49.0382 21.5854L-48.5681 21.4883L-48.0971 21.3996L-47.6256 21.3192L-47.1535 21.2473L-46.6811 21.1837L-46.2085 21.1284L-45.7358 21.0815L-45.2633 21.0429L-44.791 21.0126L-44.319 20.9906L-43.8476 20.9768L-43.3769 20.9713L-42.907 20.974L-42.438 20.9849L-41.9702 21.004L-41.5035 21.0311L-41.0383 21.0664L-40.5746 21.1096L-40.1125 21.1609L-39.6522 21.2201L-39.1938 21.2872L-38.7375 21.3622L-38.2833 21.445L-37.8315 21.5355L-37.3821 21.6337L-36.9354 21.7396L-36.4913 21.8531L-36.05 21.974L-35.6117 22.1024L-35.1765 22.2382L-34.7445 22.3814L-34.3159 22.5317L-33.8907 22.6893L-33.469 22.8539L-33.051 23.0256L-32.6369 23.2043L-32.2266 23.3898L-31.8204 23.582L-31.4183 23.781L-31.0204 23.9867L-30.6269 24.1988L-30.2379 24.4174L-29.8534 24.6423L-29.4736 24.8736L-29.0985 25.1109L-28.7283 25.3544L-28.3631 25.6038L-28.0029 25.8592L-27.6478 26.1203L-27.298 26.387L-26.9535 26.6594L-26.6145 26.9372L-26.2809 27.2204L-25.9529 27.5089L-25.6305 27.8025L-25.3139 28.1012L-25.0031 28.4048L-24.6982 28.7132L-24.3993 29.0264L-24.1064 29.3442L-23.8196 29.6664L-23.5389 29.993L-23.2645 30.3239L-22.9964 30.6589L-22.7347 30.998L-22.4793 31.3409L-22.2305 31.6876L-21.9881 32.038L-21.7523 32.392L-21.5232 32.7494L-21.3007 33.11L-21.0849 33.4739L-20.8759 33.8408L-20.6737 34.2106L-20.4783 34.5832L-20.2898 34.9586L-20.1081 35.3365L-19.9335 35.7168L-19.7657 36.0994L-19.605 36.4842L-19.4513 36.8711L-19.3046 37.2599L-19.165 37.6505L-19.0325 38.0428L-18.907 38.4366L-18.7886 38.8318L-18.6774 39.2284L-18.5733 39.6261L-18.4763 40.0249L-18.3865 40.4246L-18.3037 40.8251L-18.2282 41.2262L-18.1597 41.6279L-18.0984 42.03L-18.0442 42.4324L-17.9972 42.8349L-17.9572 43.2376L-17.9243 43.6401L-17.8985 44.0424L-17.8798 44.4444L-17.8681 44.8459L-17.8634 45.2469L-17.8657 45.6472L-17.875 46.0466L-17.8912 46.4451L-17.9143 46.8426L-17.9443 47.2389L-17.9812 47.6339L-18.0248 48.0275L-18.0753 48.4196L-18.1325 48.8101L-18.1963 49.1988L-18.2668 49.5856L-18.3439 49.9705L-18.4276 50.3532L-18.5178 50.7338L-18.6144 51.1121L-18.7175 51.4879L-18.8268 51.8613L-18.9425 52.232L-19.0644 52.5999L-19.1925 52.9651L-19.3267 53.3273L-19.467 53.6864L-19.6132 54.0424L-19.7654 54.3952L-19.9234 54.7447L-20.0872 55.0907L-20.2567 55.4332L-20.4318 55.7721L-20.6125 56.1073L-20.7987 56.4387L-20.9903 56.7662L-21.1873 57.0897L-21.3895 57.4092L-21.5969 57.7245L-21.8093 58.0357L-22.0268 58.3425L-22.2492 58.6449L-22.4765 58.9429L-22.7085 59.2363L-22.9451 59.5251L-23.1864 59.8093L-23.4321 60.0887L-23.6822 60.3632L-23.9366 60.6329L-24.1952 60.8977L-24.4579 61.1574L-24.7247 61.412L-24.9953 61.6615L-25.2698 61.9058L-25.548 62.1449L-25.8299 62.3786L-26.1153 62.607L-26.4041 62.8299L-26.6962 63.0474L-26.9915 63.2594L-27.29 63.4659L-27.5915 63.6667L-27.8959 63.8619L-28.2031 64.0514L-28.513 64.2352L-28.8256 64.4132L-29.1406 64.5855L-29.458 64.7519L-29.7777 64.9125L-30.0996 65.0672L-30.4235 65.216L-30.7495 65.3589L-31.0772 65.4958L-31.4068 65.6267L-31.738 65.7516L-32.0707 65.8706L-32.4048 65.9835L-32.7403 66.0903L-33.077 66.1912L-33.4147 66.2859L-33.7535 66.3746L-34.0932 66.4572L-34.4336 66.5337L-34.7748 66.6042L-35.1165 66.6686L-35.4586 66.7269L-35.8011 66.7791L-36.1439 66.8253L-36.4868 66.8653L-36.8297 66.8994L-37.1726 66.9274L-37.5153 66.9494L-37.8577 66.9653L-38.1997 66.9753L-38.5413 66.9793L-38.8822 66.9773L-39.2225 66.9694L-39.562 66.9556L-39.9005 66.9359L-40.2381 66.9104L-40.5746 66.879L-40.9098 66.8418L-41.2438 66.7988L-41.5764 66.7501L-41.9075 66.6957L-42.237 66.6356L-42.5648 66.57L-42.8909 66.4987L-43.215 66.4219L-43.5372 66.3396L-43.8574 66.2518L-44.1754 66.1586L-44.4912 66.0601L-44.8046 65.9562L-45.1156 65.8471L-45.4241 65.7328L-45.7301 65.6134L-46.0333 65.4888L-46.3338 65.3592L-46.6315 65.2246L-46.9263 65.0851L-47.218 64.9407L-47.5067 64.7915L-47.7922 64.6376L-48.0745 64.479L-48.3534 64.3158L-48.629 64.148L-48.9011 63.9758L-49.1697 63.7991L-49.4348 63.6181L-49.6961 63.4329L-49.9537 63.2434L-50.2075 63.0499L-50.4575 62.8523L-50.7035 62.6507L-50.9455 62.4452L-51.1835 62.2359L-51.4174 62.0228L-51.6471 61.8061L-51.8726 61.5859L-52.0938 61.3621L-52.3107 61.1348L-52.5233 60.9043L-52.7313 60.6705L-52.935 60.4335L-53.1341 60.1934L-53.3286 59.9504L-53.5185 59.7044L-53.7038 59.4555L-53.8843 59.2039L-54.0602 58.9497L-54.2313 58.6929L-54.3975 58.4336L-54.559 58.1719L-54.7155 57.9079L-54.8672 57.6417L-55.0139 57.3734L-55.1557 57.103L-55.2925 56.8307L-55.4242 56.5565L-55.551 56.2806L-55.6727 56.0029L-55.7893 55.7237L-55.9008 55.443L-56.0072 55.1609L-56.1085 54.8775L-56.2047 54.5929L-56.2957 54.3072L-56.3816 54.0204L-56.4623 53.7327L-56.5379 53.4441L-56.6082 53.1548L-56.6734 52.8648L-56.7334 52.5742L-56.7883 52.2831L-56.8379 51.9917L-56.8824 51.6999L-56.9217 51.408L-56.9559 51.1159L-56.9849 50.8238L-57.0087 50.5317L-57.0275 50.2398L-57.0411 49.9481L-57.0495 49.6568L-57.0529 49.3659L-57.0513 49.0754L-57.0445 48.7856L-57.0328 48.4965L-57.016 48.2081L-56.9942 47.9205L-56.9675 47.6339L-56.9358 47.3483L-56.8992 47.0639L-56.8577 46.7806L-56.8114 46.4985L-56.7602 46.2179L-56.7043 45.9386L-56.6436 45.6609L-56.5781 45.3848L-56.508 45.1103L-56.4333 44.8376L-56.3539 44.5667L-56.27 44.2978L-56.1815 44.0308L-56.0886 43.7658L-55.9912 43.503L-55.8894 43.2425L-55.7833 42.9841L-55.6729 42.7282L-55.5583 42.4746L-55.4394 42.2235L-55.3165 41.975L-55.1894 41.7292L-55.0583 41.486L-54.9232 41.2455L-54.7841 41.0079L-54.6412 40.7731L-54.4945 40.5413L-54.3441 40.3125L-54.1899 40.0868L-54.0321 39.8642L-53.8707 39.6448L-53.7059 39.4286L-53.5375 39.2157L-53.3658 39.0061L-53.1908 38.7999L-53.0125 38.5972L-52.831 38.398L-52.6464 38.2023L-52.4588 38.0102L-52.2682 37.8218L-52.0746 37.6371L-51.8783 37.456L-51.6791 37.2788L-51.4772 37.1053L-51.2727 36.9357L-51.0657 36.77L-50.8561 36.6083L-50.6442 36.4505L-50.4299 36.2966L-50.2133 36.1469L-49.9946 36.0011L-49.7737 35.8595L-49.5508 35.722L-49.326 35.5887L-49.0992 35.4595L-48.8706 35.3345L-48.6403 35.2137L-48.4084 35.0972L-48.1748 34.985L-47.9398 34.877L-47.7033 34.7734L-47.4655 34.674L-47.2264 34.579L-46.9861 34.4884L-46.7447 34.4021L-46.5022 34.3202L-46.2588 34.2426L-46.0145 34.1695L-45.7695 34.1007L-45.5237 34.0364L-45.2772 33.9765L-45.0302 33.9209L-44.7827 33.8698L-44.5348 33.8231L-44.2865 33.7808L-44.038 33.7429L-43.7893 33.7094L-43.5405 33.6803L-43.2917 33.6556L-43.0429 33.6353L-42.7942 33.6194L-42.5458 33.6078L-42.2976 33.6005L-42.0498 33.5976L-41.8025 33.5991L-41.5556 33.6048L-41.3093 33.6148L-41.0636 33.6291L-40.8187 33.6477" stroke="black"/>
 </g>
</svg>
