<?xml version="1.0" encoding="utf-8"?>
<svg xmlns="http://www.w3.org/2000/svg" fill="none" version="1.1" viewBox="-256.118 -368.944 512.236 737.888" x="-256.118pt" y="-368.944pt" width="512.236pt" height="737.888pt" stroke-width="0.566929" stroke-miterlimit="10.000000">
 <path d="M160.157 -341.015L255.118 -341.015L255.118 -367.944L160.157 -367.944Z" fill="black"/>
 <path d="M208.063 -346.684L208.63 -346.684"/>
 <g transform="matrix(1.000000,-0.000000,-0.000000,1.000000,208.346457,-346.684142)">
  <path d="M-40.4207 -0M-30.8333 -6.75664C-31.2672 -5.70286 -32.0317 -3.8019 -32.197 -3.07872L-32.2177 -3.07872C-32.4036 -3.82257 -33.2508 -5.86816 -33.6847 -6.96327L-36.3295 -13.4926C-36.6808 -14.3398 -37.342 -14.3398 -37.7139 -14.3398L-39.4289 -14.3398C-40.1727 -14.3398 -40.4207 -14.1125 -40.4207 -13.348L-40.4207 -0.991801C-40.4207 -0.24795 -40.1934 -0 -39.4289 -0L-38.871 -0C-38.0858 -0 -37.8792 -0.268613 -37.8792 -0.991801L-37.8792 -11.6743L-37.8585 -11.6743C-37.6313 -10.7445 -36.7014 -8.45097 -36.2055 -7.23188L-33.8087 -1.34306C-33.4368 -0.454575 -32.9409 -0.454575 -32.2383 -0.454575C-31.5358 -0.454575 -31.0399 -0.454575 -30.668 -1.34306L-28.0232 -7.8311C-27.8166 -8.327 -26.7008 -11.1371 -26.5561 -11.6743L-26.5355 -11.6743L-26.5355 -0.991801C-26.5355 -0.3306 -26.3908 -0 -25.5437 -0L-24.9858 -0C-24.2006 -0 -23.994 -0.268613 -23.994 -0.991801L-23.994 -13.348C-23.994 -14.0092 -24.1386 -14.3398 -24.9858 -14.3398L-26.7214 -14.3398C-27.238 -14.3398 -27.7546 -14.2985 -28.1058 -13.4513ZM-28.1058 -13.4513" fill="#fff"/>
 </g>
 <g transform="matrix(1.000000,-0.000000,-0.000000,1.000000,208.346457,-346.684142)">
  <path d="M-20.2172 -0M-10.6298 -6.75664C-11.0637 -5.70286 -11.8283 -3.8019 -11.9936 -3.07872L-12.0142 -3.07872C-12.2002 -3.82257 -13.0473 -5.86816 -13.4813 -6.96327L-16.1261 -13.4926C-16.4773 -14.3398 -17.1385 -14.3398 -17.5104 -14.3398L-19.2254 -14.3398C-19.9693 -14.3398 -20.2172 -14.1125 -20.2172 -13.348L-20.2172 -0.991801C-20.2172 -0.24795 -19.9899 -0 -19.2254 -0L-18.6675 -0C-17.8824 -0 -17.6757 -0.268613 -17.6757 -0.991801L-17.6757 -11.6743L-17.6551 -11.6743C-17.4278 -10.7445 -16.498 -8.45097 -16.0021 -7.23188L-13.6052 -1.34306C-13.2333 -0.454575 -12.7374 -0.454575 -12.0349 -0.454575C-11.3324 -0.454575 -10.8364 -0.454575 -10.4645 -1.34306L-7.81972 -7.8311C-7.6131 -8.327 -6.49732 -11.1371 -6.35268 -11.6743L-6.33202 -11.6743L-6.33202 -0.991801C-6.33202 -0.3306 -6.18738 -0 -5.34022 -0L-4.78233 -0C-3.99716 -0 -3.79053 -0.268613 -3.79053 -0.991801L-3.79053 -13.348C-3.79053 -14.0092 -3.93517 -14.3398 -4.78233 -14.3398L-6.51798 -14.3398C-7.03455 -14.3398 -7.55111 -14.2985 -7.90237 -13.4513ZM-7.90237 -13.4513" fill="#fff"/>
 </g>
 <g transform="matrix(1.000000,-0.000000,-0.000000,1.000000,208.346457,-346.684142)">
  <path d="M-1.02624 -0M7.89997 -13.4513C7.59003 -14.3398 6.99082 -14.3398 6.57757 -14.3398L4.75927 -14.3398C4.34602 -14.3398 3.7468 -14.3398 3.43686 -13.4513L-0.922928 -0.971138C-1.02624 -0.702526 -1.02624 -0.661201 -1.02624 -0.557888C-1.02624 -0 -0.509677 -0 -0.220402 -0L0.523449 -0C0.895374 -0 1.53591 -0 1.82519 -0.826501L2.63103 -3.12004L8.35454 -3.12004L9.05707 -1.13644C9.30502 -0.41325 9.44966 -0 10.4415 -0L11.5572 -0C11.8465 -0 12.3631 -0 12.3631 -0.557888C12.3631 -0.661201 12.3631 -0.702526 12.2598 -0.971138ZM12.2598 -0.971138M4.7386 -9.27747C5.04854 -10.1866 5.31715 -10.9718 5.48245 -11.7156L5.50312 -11.7156C5.60643 -11.2197 5.60643 -11.1784 5.77173 -10.7032L7.73467 -4.89702L3.2509 -4.89702ZM3.2509 -4.89702" fill="#fff"/>
 </g>
 <g transform="matrix(1.000000,-0.000000,-0.000000,1.000000,208.346457,-346.684142)">
  <path d="M13.8876 -0M25.8512 -2.95474C25.8512 -3.12004 25.7065 -3.20269 25.6239 -3.20269C25.128 -3.20269 24.5288 -1.85963 21.6154 -1.85963C17.9788 -1.85963 16.9456 -4.09118 16.9456 -7.19056C16.9456 -10.2693 18.0614 -12.5008 21.4501 -12.5008C23.289 -12.5008 24.2602 -11.7776 24.8181 -11.3231C24.942 -11.2197 25.004 -11.1371 25.1487 -11.1371C25.2313 -11.1371 25.3346 -11.2404 25.3553 -11.3231L25.7685 -13.6166C25.7892 -13.6993 25.7685 -13.7819 25.6032 -13.8439C24.3841 -14.2985 23.1237 -14.5877 21.512 -14.5877C16.4704 -14.5877 13.8876 -12.1289 13.8876 -7.21122C13.8876 -2.1489 16.5117 0.206625 21.5327 0.206625C23.289 0.206625 24.3841 -0.041325 25.8925 -0.971138C26.0578 -1.07445 26.0165 -1.21909 26.0165 -1.21909ZM26.0165 -1.21909" fill="#fff"/>
 </g>
 <g transform="matrix(1.000000,-0.000000,-0.000000,1.000000,208.346457,-346.684142)">
  <path d="M28.0162 -0M36.9424 -13.4513C36.6325 -14.3398 36.0333 -14.3398 35.62 -14.3398L33.8017 -14.3398C33.3885 -14.3398 32.7893 -14.3398 32.4793 -13.4513L28.1195 -0.971138C28.0162 -0.702526 28.0162 -0.661201 28.0162 -0.557888C28.0162 -0 28.5328 -0 28.8221 -0L29.5659 -0C29.9378 -0 30.5784 -0 30.8676 -0.826501L31.6735 -3.12004L37.397 -3.12004L38.0995 -1.13644C38.3475 -0.41325 38.4921 -0 39.4839 -0L40.5997 -0C40.889 -0 41.4055 -0 41.4055 -0.557888C41.4055 -0.661201 41.4055 -0.702526 41.3022 -0.971138ZM41.3022 -0.971138M33.7811 -9.27747C34.091 -10.1866 34.3596 -10.9718 34.5249 -11.7156L34.5456 -11.7156C34.6489 -11.2197 34.6489 -11.1784 34.8142 -10.7032L36.7771 -4.89702L32.2934 -4.89702ZM32.2934 -4.89702" fill="#fff"/>
 </g>
 <path d="M208.063 -321.172L208.63 -321.172"/>
 <g transform="matrix(1.000000,-0.000000,-0.000000,1.000000,208.346457,-321.172331)">
  <path d="M-24.3928 -0M-22.3413 -5.15028C-22.5852 -5.13594 -22.6426 -5.12159 -22.6426 -4.99248C-22.6426 -4.84901 -22.5709 -4.84901 -22.3127 -4.84901L-21.6527 -4.84901C-20.4333 -4.84901 -19.8881 -3.84478 -19.8881 -2.46755C-19.8881 -0.588194 -20.8637 -0.0860772 -21.5666 -0.0860772C-22.2553 -0.0860772 -23.4317 -0.41604 -23.8477 -1.36289C-23.3886 -1.29116 -22.9726 -1.54939 -22.9726 -2.06585C-22.9726 -2.48189 -23.2738 -2.76882 -23.6755 -2.76882C-24.0198 -2.76882 -24.3928 -2.56797 -24.3928 -2.02281C-24.3928 -0.746002 -23.116 0.30127 -21.5236 0.30127C-19.8164 0.30127 -18.5539 -1.00423 -18.5539 -2.4532C-18.5539 -3.77305 -19.6156 -4.80598 -20.9928 -5.04986C-19.7447 -5.40852 -18.9413 -6.45579 -18.9413 -7.57479C-18.9413 -8.70814 -20.1177 -9.54022 -21.5093 -9.54022C-22.9439 -9.54022 -24.0055 -8.6651 -24.0055 -7.61783C-24.0055 -7.04398 -23.5608 -6.92921 -23.3456 -6.92921C-23.0443 -6.92921 -22.7 -7.14441 -22.7 -7.57479C-22.7 -8.03387 -23.0443 -8.23472 -23.3599 -8.23472C-23.446 -8.23472 -23.4747 -8.23472 -23.5177 -8.22037C-22.9726 -9.19591 -21.624 -9.19591 -21.5523 -9.19591C-21.0789 -9.19591 -20.1464 -8.98072 -20.1464 -7.57479C-20.1464 -7.30221 -20.1894 -6.49883 -20.6055 -5.88194C-21.0358 -5.25071 -21.5236 -5.20767 -21.911 -5.19332ZM-21.911 -5.19332" fill="black"/>
 </g>
 <g transform="matrix(1.000000,-0.000000,-0.000000,1.000000,208.346457,-321.172331)">
  <path d="M-12.5004 -0M-7.10623 -10.2432C-7.0345 -10.4297 -7.0345 -10.4584 -7.0345 -10.4871C-7.0345 -10.6736 -7.17796 -10.7596 -7.29273 -10.7596C-7.47923 -10.7596 -7.52227 -10.6305 -7.594 -10.444L-12.4287 3.07009C-12.5004 3.25659 -12.5004 3.28528 -12.5004 3.31397C-12.5004 3.47178 -12.3856 3.58655 -12.2278 3.58655C-12.0413 3.58655 -11.9983 3.44309 -11.9409 3.28528ZM-11.9409 3.28528" fill="black"/>
 </g>
 <g transform="matrix(1.000000,-0.000000,-0.000000,1.000000,208.346457,-321.172331)">
  <path d="M-0.86618 -0M4.74318 -2.41016L4.42757 -2.41016C4.38453 -2.16628 4.26976 -1.37723 4.1263 -1.1477C4.02587 -1.01858 3.20814 -1.01858 2.77775 -1.01858L0.123708 -1.01858C0.511055 -1.34854 1.38617 -2.2667 1.75917 -2.61101C3.9398 -4.61948 4.74318 -5.36548 4.74318 -6.78575C4.74318 -8.43556 3.43768 -9.54022 1.77352 -9.54022C0.109362 -9.54022 -0.86618 -8.11995 -0.86618 -6.88617C-0.86618 -6.15452 -0.234947 -6.15452 -0.191908 -6.15452C0.109362 -6.15452 0.482363 -6.36971 0.482363 -6.82879C0.482363 -7.23048 0.209785 -7.50306 -0.191908 -7.50306C-0.321024 -7.50306 -0.349717 -7.50306 -0.392755 -7.48871C-0.120177 -8.46426 0.654517 -9.12418 1.58702 -9.12418C2.80645 -9.12418 3.55245 -8.1056 3.55245 -6.78575C3.55245 -5.56632 2.84949 -4.50471 2.03175 -3.58655L-0.86618 -0.344309L-0.86618 -0L4.37018 -0ZM4.37018 -0" fill="black"/>
 </g>
 <g transform="matrix(1.000000,-0.000000,-0.000000,1.000000,208.346457,-321.172331)">
  <path d="M6.22912 -0M12.2689 -8.90899L12.2689 -9.23895L8.81144 -9.23895C7.07555 -9.23895 7.04686 -9.42545 6.98947 -9.69803L6.67386 -9.69803L6.22912 -6.82879L6.54474 -6.82879C6.58778 -7.08702 6.7169 -7.97648 6.9034 -8.13429C7.01817 -8.22037 8.09413 -8.22037 8.29498 -8.22037L11.3364 -8.22037L9.81567 -6.03975C9.42833 -5.48025 7.97936 -3.12747 7.97936 -0.430386C7.97936 -0.272578 7.97936 0.30127 8.56755 0.30127C9.17009 0.30127 9.17009 -0.258232 9.17009 -0.444732L9.17009 -1.16204C9.17009 -3.29963 9.5144 -4.96378 10.1887 -5.92498ZM10.1887 -5.92498" fill="black"/>
 </g>
 <g transform="matrix(1.000000,-0.000000,-0.000000,1.000000,208.346457,-321.172331)">
  <path d="M13.0662 -0M18.9051 -4.59078C18.9051 -5.78152 18.8334 -6.94356 18.3169 -8.03387C17.7287 -9.2246 16.6958 -9.54022 15.9928 -9.54022C15.1607 -9.54022 14.1422 -9.12418 13.6114 -7.93345C13.2097 -7.02964 13.0662 -6.14017 13.0662 -4.59078C13.0662 -3.1992 13.1666 -2.15193 13.6831 -1.13335C14.2426 -0.0430386 15.2325 0.30127 15.9785 0.30127C17.2266 0.30127 17.9439 -0.444732 18.3599 -1.27681C18.8764 -2.35278 18.9051 -3.7587 18.9051 -4.59078ZM18.9051 -4.59078M15.9785 0.0143462C15.5194 0.0143462 14.5869 -0.243885 14.3143 -1.80762C14.1565 -2.66839 14.1565 -3.7587 14.1565 -4.76294C14.1565 -5.93933 14.1565 -7.00094 14.386 -7.84737C14.6299 -8.80856 15.3616 -9.2533 15.9785 -9.2533C16.5236 -9.2533 17.3557 -8.92333 17.6283 -7.68956C17.8148 -6.87183 17.8148 -5.73848 17.8148 -4.76294C17.8148 -3.80174 17.8148 -2.71143 17.657 -1.83631C17.3844 -0.258232 16.4806 0.0143462 15.9785 0.0143462ZM15.9785 0.0143462" fill="black"/>
 </g>
 <g transform="matrix(1.000000,-0.000000,-0.000000,1.000000,208.346457,-321.172331)">
  <path d="M20.0495 -5.20611M23.925 -7.69677C23.925 -8.76277 23.0383 -9.62952 21.9922 -9.62952C20.9163 -9.62952 20.0495 -8.74285 20.0495 -7.69677C20.0495 -6.64073 20.9163 -5.76402 21.9922 -5.76402C23.0383 -5.76402 23.925 -6.63077 23.925 -7.69677ZM23.925 -7.69677M21.9922 -6.16252C21.1255 -6.16252 20.448 -6.85991 20.448 -7.69677C20.448 -8.53363 21.1354 -9.23102 21.9922 -9.23102C22.8191 -9.23102 23.5265 -8.55356 23.5265 -7.69677C23.5265 -6.83998 22.8191 -6.16252 21.9922 -6.16252ZM21.9922 -6.16252" fill="black"/>
 </g>
 <g stroke-linecap="round" stroke-linejoin="round">
  <path d="M-89.4615 129.026L-222.549 -367.663" stroke="black"/>
 </g>
 <g stroke-linecap="butt" stroke-linejoin="round" stroke-dasharray="2.000000" stroke-dashoffset="0.000000">
  <path d="M-89.4615 129.026L-89.4615 -354.738" stroke="black"/>
 </g>
 <g stroke-linecap="round" stroke-linejoin="round">
  <path d="M-89.4615 129.026L28.3325 -310.587" stroke="black"/>
 </g>
 <g stroke-linecap="butt" stroke-linejoin="round" stroke-dasharray="2.000000" stroke-dashoffset="0.000000">
  <path d="M-89.4615 129.026L124.625 -241.784" stroke="black"/>
 </g>
 <g stroke-linecap="round" stroke-linejoin="round">
  <path d="M-89.4615 129.026L195.377 -155.812" stroke="black"/>
 </g>
 <g stroke-linecap="butt" stroke-linejoin="round" stroke-dasharray="2.000000" stroke-dashoffset="0.000000">
  <path d="M-89.4615 129.026L238.737 -60.46" stroke="black"/>
 </g>
 <g stroke-linecap="round" stroke-linejoin="round">
  <path d="M-89.4615 129.026L254.923 36.7483" stroke="black"/>
 </g>
 <g stroke-linecap="butt" stroke-linejoin="round" stroke-dasharray="2.000000" stroke-dashoffset="0.000000">
  <path d="M-89.4615 129.026L245.962 129.026" stroke="black"/>
 </g>
 <g stroke-linecap="round" stroke-linejoin="round">
  <path d="M-89.4615 129.026L215.349 210.7" stroke="black"/>
 </g>
 <g stroke-linecap="butt" stroke-linejoin="round" stroke-dasharray="2.000000" stroke-dashoffset="0.000000">
  <path d="M-89.4615 129.026L167.643 277.465" stroke="black"/>
 </g>
 <g stroke-linecap="round" stroke-linejoin="round">
  <path d="M-89.4615 129.026L108.034 326.522" stroke="black"/>
 </g>
 <g stroke-linecap="butt" stroke-linejoin="round" stroke-dasharray="2.000000" stroke-dashoffset="0.000000">
  <path d="M-89.4615 129.026L41.9206 356.586" stroke="black"/>
 </g>
 <g stroke-linecap="round" stroke-linejoin="round">
  <path d="M-89.4615 129.026L-25.4798 367.809" stroke="black"/>
 </g>
 <g stroke-linecap="butt" stroke-linejoin="round" stroke-dasharray="2.000000" stroke-dashoffset="0.000000">
  <path d="M-89.4615 129.026L-89.4615 361.595" stroke="black"/>
 </g>
 <g stroke-linecap="round" stroke-linejoin="round">
  <path d="M-89.4615 129.026L-146.091 340.37" stroke="black"/>
 </g>
 <g stroke-linecap="butt" stroke-linejoin="round" stroke-dasharray="2.000000" stroke-dashoffset="0.000000">
  <path d="M-89.4615 129.026L-192.384 307.292" stroke="black"/>
 </g>
 <g stroke-linecap="round" stroke-linejoin="round">
  <path d="M-89.4615 129.026L-226.397 265.962" stroke="black"/>
 </g>
 <g stroke-linecap="butt" stroke-linejoin="round" stroke-dasharray="2.000000" stroke-dashoffset="0.000000">
  <path d="M-89.4615 129.026L-247.243 220.121" stroke="black"/>
 </g>
 <g stroke-linecap="round" stroke-linejoin="round">
  <path d="M-89.4615 129.026L-255.024 173.388" stroke="black"/>
 </g>
 <g stroke-linecap="butt" stroke-linejoin="round" stroke-dasharray="2.000000" stroke-dashoffset="0.000000">
  <path d="M-89.4615 129.026L-250.716 129.026" stroke="black"/>
 </g>
 <g stroke-linecap="round" stroke-linejoin="round">
  <path d="M-89.4615 129.026L-235.999 89.7612" stroke="black"/>
 </g>
 <g stroke-linecap="butt" stroke-linejoin="round" stroke-dasharray="2.000000" stroke-dashoffset="0.000000">
  <path d="M-89.4615 129.026L-213.065 57.6635" stroke="black"/>
 </g>
 <g stroke-linecap="round" stroke-linejoin="round">
  <path d="M-89.4615 129.026L-184.408 34.0797" stroke="black"/>
 </g>
 <g stroke-linecap="butt" stroke-linejoin="round" stroke-dasharray="2.000000" stroke-dashoffset="0.000000">
  <path d="M-89.4615 129.026L-152.623 19.6262" stroke="black"/>
 </g>
 <g stroke-linecap="round" stroke-linejoin="round">
  <path d="M-89.4615 129.026L-120.221 14.231" stroke="black"/>
 </g>
 <g stroke-linecap="round" stroke-linejoin="round" stroke-width="1.603518">
  <path d="M-222.549 -367.663L-213.355 -367.884L-204.196 -367.944L-195.075 -367.845L-185.993 -367.588L-176.955 -367.174L-167.962 -366.604L-159.016 -365.881L-150.121 -365.005L-141.278 -363.978L-132.491 -362.802L-123.761 -361.478L-115.091 -360.008L-106.483 -358.394L-97.9388 -356.637L-89.4615 -354.738L-81.0529 -352.7L-72.7152 -350.525L-64.4504 -348.214L-56.2606 -345.769L-48.1478 -343.192L-40.114 -340.485L-32.161 -337.649L-24.2909 -334.687L-16.5053 -331.601L-8.80626 -328.393L-1.19537 -325.064L6.32561 -321.617L13.755 -318.054L21.0911 -314.377L28.3325 -310.587L35.4774 -306.688L42.5245 -302.681L49.4723 -298.568L56.3193 -294.352L63.0642 -290.035L69.7056 -285.619L76.2423 -281.105L82.673 -276.498L88.9965 -271.797L95.2117 -267.007L101.317 -262.129L107.313 -257.165L113.196 -252.118L118.968 -246.99L124.625 -241.784L130.169 -236.5L135.597 -231.143L140.909 -225.714L146.105 -220.216L151.183 -214.65L156.143 -209.02L160.984 -203.327L165.706 -197.574L170.308 -191.763L174.789 -185.896L179.15 -179.976L183.39 -174.006L187.507 -167.987L191.503 -161.922L195.377 -155.812L199.128 -149.662L202.756 -143.472L206.262 -137.245L209.644 -130.983L212.904 -124.689L216.04 -118.364L219.053 -112.012L221.943 -105.634L224.71 -99.2332L227.354 -92.8109L229.876 -86.3697L232.274 -79.9118L234.551 -73.4395L236.705 -66.9548L238.737 -60.46L240.649 -53.9572L242.439 -47.4486L244.108 -40.9363L245.657 -34.4224L247.086 -27.909L248.396 -21.3982L249.588 -14.8921L250.661 -8.39265L251.617 -1.90194L252.456 4.57804L253.179 11.0453L253.786 17.4979L254.279 23.9339L254.657 30.3513L254.923 36.7483L255.076 43.1229L255.118 49.4733L255.049 55.7978L254.871 62.0944L254.584 68.3613L254.189 74.5969L253.688 80.7994L253.08 86.967L252.369 93.098L251.553 99.1909L250.635 105.244L249.616 111.256L248.496 117.224L247.278 123.148L245.962 129.026L244.549 134.856L243.041 140.637L241.438 146.368L239.743 152.046L237.956 157.671L236.079 163.241L234.113 168.756L232.059 174.213L229.919 179.611L227.695 184.949L225.387 190.226L222.997 195.441L220.526 200.592L217.977 205.679L215.349 210.7L212.646 215.654L209.867 220.54L207.016 225.357L204.092 230.105L201.099 234.781L198.037 239.386L194.908 243.918L191.713 248.377L188.454 252.762L185.132 257.071L181.75 261.305L178.308 265.461L174.809 269.541L171.254 273.543L167.643 277.465L163.98 281.309L160.266 285.073L156.501 288.756L152.689 292.358L148.83 295.879L144.926 299.318L140.979 302.675L136.99 305.949L132.961 309.14L128.893 312.247L124.789 315.271L120.649 318.21L116.476 321.065L112.27 323.836L108.034 326.522L103.77 329.123L99.4777 331.638L95.1601 334.069L90.8184 336.414L86.4543 338.674L82.0693 340.849L77.6649 342.938L73.2428 344.942L68.8045 346.86L64.3515 348.694L59.8854 350.442L55.4078 352.105L50.9201 353.683L46.4238 355.177L41.9206 356.586L37.4118 357.911L32.899 359.152L28.3836 360.31L23.8671 361.384L19.351 362.375L14.8367 363.283L10.3256 364.109L5.81914 364.854L1.31873 365.516L-3.17424 366.098L-7.65839 366.599L-12.1324 367.02L-16.5948 367.362L-21.0444 367.625L-25.4798 367.809L-29.8997 367.915L-34.3029 367.944L-38.688 367.896L-43.0538 367.773L-47.3991 367.574L-51.7226 367.3L-56.0231 366.952L-60.2995 366.531L-64.5506 366.038L-68.7751 365.472L-72.9721 364.836L-77.1403 364.129L-81.2786 363.353L-85.3861 362.508L-89.4615 361.595L-93.5039 360.616L-97.5123 359.57L-101.486 358.459L-105.423 357.283L-109.323 356.044L-113.185 354.743L-117.009 353.38L-120.792 351.956L-124.535 350.472L-128.237 348.93L-131.895 347.329L-135.511 345.672L-139.083 343.959L-142.61 342.191L-146.091 340.37L-149.526 338.495L-152.914 336.569L-156.254 334.592L-159.546 332.565L-162.788 330.489L-165.981 328.366L-169.124 326.196L-172.215 323.981L-175.255 321.722L-178.243 319.419L-181.178 317.073L-184.061 314.687L-186.889 312.261L-189.664 309.796L-192.384 307.292L-195.049 304.753L-197.658 302.177L-200.212 299.567L-202.71 296.924L-205.151 294.248L-207.536 291.541L-209.863 288.804L-212.133 286.038L-214.346 283.245L-216.5 280.424L-218.596 277.579L-220.635 274.708L-222.614 271.815L-224.535 268.899L-226.397 265.962L-228.201 263.005L-229.945 260.029L-231.63 257.035L-233.257 254.025L-234.824 250.999L-236.331 247.959L-237.78 244.905L-239.169 241.839L-240.499 238.761L-241.771 235.674L-242.983 232.577L-244.136 229.473L-245.23 226.361L-246.266 223.243L-247.243 220.121L-248.162 216.995L-249.022 213.866L-249.825 210.735L-250.57 207.604L-251.257 204.472L-251.887 201.342L-252.459 198.214L-252.975 195.09L-253.435 191.969L-253.838 188.854L-254.186 185.745L-254.478 182.643L-254.715 179.549L-254.897 176.464L-255.024 173.388L-255.098 170.324L-255.118 167.271L-255.085 164.23L-254.999 161.203L-254.861 158.19L-254.671 155.193L-254.43 152.211L-254.138 149.246L-253.796 146.298L-253.404 143.369L-252.963 140.459L-252.473 137.569L-251.935 134.7L-251.349 131.852L-250.716 129.026L-250.037 126.223L-249.312 123.444L-248.541 120.689L-247.726 117.959L-246.867 115.255L-245.965 112.577L-245.02 109.926L-244.033 107.302L-243.004 104.707L-241.934 102.141L-240.825 99.6038L-239.676 97.0968L-238.488 94.6203L-237.262 92.1749L-235.999 89.7612L-234.699 87.3795L-233.364 85.0305L-231.993 82.7146L-230.588 80.4322L-229.148 78.1839L-227.676 75.9701L-226.172 73.7912L-224.636 71.6477L-223.069 69.5398L-221.473 67.4681L-219.846 65.4328L-218.192 63.4344L-216.51 61.4732L-214.8 59.5494L-213.065 57.6635L-211.304 55.8157L-209.518 54.0063L-207.708 52.2355L-205.875 50.5037L-204.02 48.811L-202.143 47.1577L-200.246 45.544L-198.328 43.97L-196.391 42.436L-194.435 40.9422L-192.462 39.4886L-190.472 38.0755L-188.466 36.7029L-186.444 35.3709L-184.408 34.0797L-182.357 32.8294L-180.294 31.6199L-178.218 30.4514L-176.131 29.3239L-174.033 28.2374L-171.925 27.192L-169.808 26.1876L-167.682 25.2243L-165.548 24.3019L-163.407 23.4206L-161.26 22.5801L-159.107 21.7806L-156.95 21.0218L-154.788 20.3037L-152.623 19.6262L-150.456 18.9891L-148.286 18.3925L-146.116 17.836L-143.944 17.3197L-141.773 16.8432L-139.603 16.4065L-137.434 16.0094L-135.268 15.6516L-133.104 15.333L-130.944 15.0533L-128.788 14.8124L-126.637 14.6099L-124.492 14.4457L-122.353 14.3195L-120.221 14.231L-118.096 14.1799L-115.979 14.1659L-113.871 14.1889L-111.772 14.2483L-109.683 14.344L-107.604 14.4756L-105.537 14.6428L-103.481 14.8452L-101.437 15.0825L-99.4065 15.3543L-97.3888 15.6603L-95.3849 16L-93.3954 16.3732L-91.4208 16.7793L-89.4615 17.2181L-87.5181 17.689L-85.5911 18.1918L-83.6809 18.726L-81.7881 19.2911L-79.9131 19.8867L-78.0563 20.5124L-76.2182 21.1677L-74.3992 21.8522L-72.5998 22.5655L-70.8204 23.307L-69.0614 24.0764L-67.3231 24.873L-65.6061 25.6966L-63.9105 26.5465L-62.2369 27.4223L-60.5856 28.3235L-58.9568 29.2496L-57.3511 30.2001L-55.7686 31.1745L-54.2097 32.1723L-52.6747 33.193L-51.164 34.2361L-49.6777 35.3011L-48.2162 36.3874L-46.7798 37.4945L-45.3686 38.6219L-43.983 39.7692L-42.6231 40.9356L-41.2893 42.1208L-39.9817 43.3242L-38.7005 44.5452L-37.4459 45.7834L-36.2181 47.0382L-35.0173 48.309L-33.8437 49.5953L-32.6973 50.8966L-31.5784 52.2124L-30.4871 53.542L-29.4235 54.8851L-28.3877 56.2409L-27.3799 57.6091L-26.4001 58.989L-25.4484 60.3801L-24.5248 61.7819L-23.6296 63.1939L-22.7626 64.6154L-21.924 66.0461L-21.1138 67.4853L-20.3321 68.9325L-19.5787 70.3872L-18.8539 71.8489L-18.1575 73.317L-17.4895 74.7911L-16.85 76.2705L-16.2389 77.7548L-15.6562 79.2435L-15.1018 80.7361L-14.5757 82.232L-14.0778 83.7307L-13.608 85.2318L-13.1663 86.7347L-12.7526 88.239L-12.3668 89.7441L-12.0088 91.2496L-11.6784 92.755L-11.3756 94.2598L-11.1003 95.7635L-10.8522 97.2656L-10.6313 98.7657L-10.4374 100.263L-10.2703 101.758L-10.13 103.249L-10.0161 104.737L-9.92858 106.22L-9.8672 107.699L-9.83178 109.172L-9.82212 110.64L-9.83801 112.101L-9.87924 113.557L-9.94559 115.005L-10.0368 116.446L-10.1527 117.88L-10.2931 119.305L-10.4576 120.722L-10.6461 122.13L-10.8582 123.529L-11.0938 124.919L-11.3525 126.298L-11.6341 127.667L-11.9383 129.026L-12.2649 130.373L-12.6135 131.709L-12.9839 133.034L-13.3757 134.346L-13.7887 135.646L-14.2225 136.934L-14.6769 138.208L-15.1515 139.469L-15.646 140.717L-16.1602 141.951L-16.6936 143.17L-17.246 144.376L-17.817 145.566L-18.4063 146.742L-19.0135 147.902L-19.6384 149.047L-20.2805 150.177L-20.9396 151.29L-21.6152 152.387L-22.307 153.468L-23.0148 154.532L-23.738 155.58L-24.4764 156.61L-25.2296 157.624L-25.9972 158.62L-26.779 159.598L-27.5744 160.559L-28.3832 161.502L-29.2049 162.427L-30.0393 163.333L-30.8859 164.222L-31.7444 165.091L-32.6144 165.943L-33.4956 166.775L-34.3875 167.589L-35.2897 168.384L-36.202 169.16L-37.124 169.916L-38.0552 170.654L-38.9953 171.372L-39.9439 172.071L-40.9007 172.75L-41.8652 173.41L-42.8372 174.05L-43.8162 174.671L-44.8018 175.272L-45.7938 175.854L-46.7917 176.415L-47.7951 176.958L-48.8038 177.48L-49.8172 177.982L-50.8352 178.465L-51.8572 178.928L-52.883 179.372L-53.9122 179.796L-54.9444 180.2L-55.9793 180.584L-57.0165 180.949L-58.0556 181.294L-59.0964 181.62L-60.1385 181.926L-61.1815 182.213L-62.2251 182.48L-63.2689 182.729L-64.3127 182.958L-65.3561 183.168L-66.3987 183.358L-67.4402 183.53L-68.4803 183.684L-69.5188 183.818L-70.5551 183.934L-71.5892 184.031L-72.6205 184.11L-73.6489 184.171L-74.674 184.213L-75.6956 184.238L-76.7132 184.245L-77.7267 184.234L-78.7357 184.205L-79.74 184.159L-80.7393 184.096L-81.7332 184.015L-82.7216 183.918L-83.7041 183.804L-84.6805 183.673L-85.6505 183.526L-86.6138 183.363L-87.5703 183.184L-88.5196 182.988L-89.4615 182.777L-90.3958 182.551L-91.3222 182.309L-92.2405 182.052L-93.1505 181.781L-94.0519 181.494L-94.9446 181.194L-95.8282 180.879L-96.7027 180.55L-97.5677 180.207L-98.4232 179.85L-99.2689 179.48L-100.105 179.097L-100.93 178.701L-101.745 178.293L-102.55 177.872L-103.344 177.438L-104.127 176.993L-104.899 176.536L-105.659 176.068L-106.409 175.588L-107.147 175.097L-107.873 174.596L-108.588 174.084L-109.29 173.562L-109.981 173.029L-110.659 172.487L-111.325 171.936L-111.979 171.375L-112.62 170.805L-113.249 170.227L-113.865 169.64L-114.468 169.045L-115.058 168.441L-115.636 167.83L-116.2 167.212L-116.751 166.586L-117.289 165.954L-117.813 165.315L-118.325 164.669L-118.823 164.017L-119.307 163.359L-119.778 162.696L-120.236 162.027L-120.68 161.353L-121.11 160.675L-121.527 159.991L-121.93 159.303L-122.32 158.611L-122.695 157.916L-123.058 157.216L-123.406 156.514L-123.741 155.808L-124.062 155.099L-124.369 154.388L-124.663 153.674L-124.943 152.959L-125.21 152.241L-125.463 151.522L-125.702 150.801L-125.928 150.08L-126.14 149.357L-126.339 148.634L-126.525 147.91L-126.697 147.187L-126.856 146.463L-127.001 145.74L-127.134 145.017L-127.253 144.295L-127.359 143.573L-127.452 142.853L-127.533 142.135L-127.6 141.418L-127.655 140.703L-127.697 139.99L-127.726 139.279L-127.743 138.571L-127.748 137.865L-127.74 137.162L-127.721 136.463L-127.689 135.766L-127.645 135.073L-127.589 134.384L-127.522 133.699L-127.443 133.018L-127.352 132.341L-127.25 131.668L-127.137 131L-127.012 130.337L-126.877 129.679L-126.731 129.026L-126.574 128.378L-126.406 127.736L-126.228 127.099L-126.04 126.468L-125.841 125.843L-125.633 125.224L-125.414 124.611L-125.186 124.005L-124.948 123.405L-124.701 122.812L-124.445 122.226L-124.179 121.646L-123.905 121.074L-123.621 120.509L-123.329 119.951L-123.029 119.401L-122.72 118.858L-122.403 118.322L-122.079 117.795L-121.746 117.275L-121.406 116.764L-121.058 116.26L-120.703 115.765L-120.341 115.277L-119.972 114.799L-119.596 114.328L-119.214 113.866L-118.825 113.413L-118.43 112.968L-118.029 112.533L-117.622 112.105L-117.209 111.687L-116.791 111.278L-116.367 110.878L-115.938 110.487L-115.505 110.104L-115.066 109.731L-114.623 109.368L-114.175 109.013L-113.723 108.668L-113.267 108.332L-112.807 108.005L-112.343 107.688L-111.876 107.38L-111.405 107.082L-110.932 106.793L-110.455 106.513L-109.975 106.243L-109.493 105.983L-109.008 105.732L-108.52 105.49L-108.031 105.258L-107.54 105.035L-107.047 104.822L-106.552 104.618L-106.056 104.424L-105.558 104.239L-105.059 104.064L-104.56 103.898L-104.06 103.741L-103.559 103.594L-103.057 103.456L-102.555 103.328L-102.054 103.208L-101.552 103.098L-101.05 102.997L-100.549 102.905L-100.048 102.823L-99.5482 102.749L-99.049 102.684L-98.5507 102.629L-98.0536 102.582L-97.5578 102.544L-97.0634 102.515L-96.5706 102.494L-96.0795 102.483L-95.5902 102.479L-95.103 102.485L-94.6179 102.498L-94.1351 102.521L-93.6547 102.551L-93.1769 102.59L-92.7017 102.636L-92.2294 102.691L-91.76 102.754L-91.2937 102.825L-90.8305 102.903L-90.3707 102.989L-89.9143 103.083L-89.4615 103.185L-89.0124 103.294L-88.567 103.41L-88.1255 103.533L-87.688 103.664L-87.2547 103.802L-86.8255 103.946L-86.4007 104.098L-85.9803 104.256L-85.5644 104.421L-85.1532 104.592L-84.7466 104.77L-84.3449 104.954L-83.948 105.144L-83.5562 105.341L-83.1693 105.543L-82.7877 105.751L-82.4113 105.965L-82.0401 106.185L-81.6744 106.41L-81.3141 106.641L-80.9593 106.877L-80.6102 107.118L-80.2667 107.364L-79.9289 107.615L-79.5969 107.871L-79.2707 108.132L-78.9505 108.397L-78.6362 108.666L-78.3279 108.94L-78.0257 109.218L-77.7296 109.501L-77.4396 109.787L-77.1559 110.077L-76.8783 110.371L-76.6071 110.668L-76.3421 110.969L-76.0835 111.273L-75.8313 111.58L-75.5855 111.89L-75.3461 112.204L-75.1132 112.52L-74.8867 112.839L-74.6668 113.16L-74.4533 113.484L-74.2464 113.811L-74.046 114.139L-73.8522 114.47L-73.665 114.803L-73.4843 115.137L-73.3102 115.473L-73.1426 115.811L-72.9817 116.15L-72.8273 116.491L-72.6795 116.833L-72.5383 117.176L-72.4036 117.52L-72.2755 117.865L-72.1539 118.211L-72.0388 118.557L-71.9302 118.904L-71.8281 119.251L-71.7325 119.599L-71.6433 119.947L-71.5606 120.295L-71.4843 120.643L-71.4143 120.991L-71.3506 121.338L-71.2933 121.685L-71.2422 122.032L-71.1974 122.378L-71.1588 122.724L-71.1264 123.068L-71.1001 123.412L-71.0798 123.755L-71.0656 124.097L-71.0575 124.437L-71.0552 124.776L-71.0589 125.114L-71.0684 125.451L-71.0838 125.785L-71.1048 126.118L-71.1316 126.45L-71.1641 126.779L-71.2021 127.107L-71.2457 127.432L-71.2947 127.755L-71.3491 128.077L-71.4089 128.395L-71.474 128.712L-71.5443 129.026L-71.6198 129.337L-71.7004 129.646L-71.786 129.952L-71.8765 130.255L-71.972 130.556L-72.0722 130.854L-72.1773 131.148L-72.2869 131.44L-72.4012 131.728L-72.5201 132.013L-72.6434 132.295L-72.771 132.573L-72.903 132.849L-73.0392 133.12L-73.1795 133.389L-73.324 133.653L-73.4724 133.914L-73.6247 134.172L-73.7808 134.425L-73.9407 134.675L-74.1043 134.921L-74.2715 135.163L-74.4421 135.401L-74.6162 135.635L-74.7936 135.866L-74.9743 136.092L-75.1581 136.314L-75.3451 136.532L-75.535 136.745L-75.7278 136.955L-75.9235 137.16L-76.1219 137.361L-76.323 137.558L-76.5266 137.751L-76.7328 137.939L-76.9413 138.122L-77.1522 138.302L-77.3652 138.476L-77.5805 138.647L-77.7977 138.813L-78.017 138.974L-78.2381 139.131L-78.461 139.284L-78.6857 139.432" stroke="black"/>
 </g>
</svg>
