<?xml version="1.0" encoding="utf-8"?>
<svg xmlns="http://www.w3.org/2000/svg" fill="none" version="1.1" viewBox="-256.118 -293.672 512.236 587.344" x="-256.118pt" y="-293.672pt" width="512.236pt" height="587.344pt" stroke-width="0.566929" stroke-miterlimit="10.000000">
 <path d="M160.157 -265.743L255.118 -265.743L255.118 -292.672L160.157 -292.672Z" fill="black"/>
 <path d="M208.063 -271.412L208.63 -271.412"/>
 <g transform="matrix(1.000000,-0.000000,-0.000000,1.000000,208.346457,-271.412340)">
  <path d="M-40.4207 -0M-30.8333 -6.75664C-31.2672 -5.70286 -32.0317 -3.8019 -32.197 -3.07872L-32.2177 -3.07872C-32.4036 -3.82257 -33.2508 -5.86816 -33.6847 -6.96327L-36.3295 -13.4926C-36.6808 -14.3398 -37.342 -14.3398 -37.7139 -14.3398L-39.4289 -14.3398C-40.1727 -14.3398 -40.4207 -14.1125 -40.4207 -13.348L-40.4207 -0.991801C-40.4207 -0.24795 -40.1934 -0 -39.4289 -0L-38.871 -0C-38.0858 -0 -37.8792 -0.268613 -37.8792 -0.991801L-37.8792 -11.6743L-37.8585 -11.6743C-37.6313 -10.7445 -36.7014 -8.45097 -36.2055 -7.23188L-33.8087 -1.34306C-33.4368 -0.454575 -32.9409 -0.454575 -32.2383 -0.454575C-31.5358 -0.454575 -31.0399 -0.454575 -30.668 -1.34306L-28.0232 -7.8311C-27.8166 -8.327 -26.7008 -11.1371 -26.5561 -11.6743L-26.5355 -11.6743L-26.5355 -0.991801C-26.5355 -0.3306 -26.3908 -0 -25.5437 -0L-24.9858 -0C-24.2006 -0 -23.994 -0.268613 -23.994 -0.991801L-23.994 -13.348C-23.994 -14.0092 -24.1386 -14.3398 -24.9858 -14.3398L-26.7214 -14.3398C-27.238 -14.3398 -27.7546 -14.2985 -28.1058 -13.4513ZM-28.1058 -13.4513" fill="#fff"/>
 </g>
 <g transform="matrix(1.000000,-0.000000,-0.000000,1.000000,208.346457,-271.412340)">
  <path d="M-20.2172 -0M-10.6298 -6.75664C-11.0637 -5.70286 -11.8283 -3.8019 -11.9936 -3.07872L-12.0142 -3.07872C-12.2002 -3.82257 -13.0473 -5.86816 -13.4813 -6.96327L-16.1261 -13.4926C-16.4773 -14.3398 -17.1385 -14.3398 -17.5104 -14.3398L-19.2254 -14.3398C-19.9693 -14.3398 -20.2172 -14.1125 -20.2172 -13.348L-20.2172 -0.991801C-20.2172 -0.24795 -19.9899 -0 -19.2254 -0L-18.6675 -0C-17.8824 -0 -17.6757 -0.268613 -17.6757 -0.991801L-17.6757 -11.6743L-17.6551 -11.6743C-17.4278 -10.7445 -16.498 -8.45097 -16.0021 -7.23188L-13.6052 -1.34306C-13.2333 -0.454575 -12.7374 -0.454575 -12.0349 -0.454575C-11.3324 -0.454575 -10.8364 -0.454575 -10.4645 -1.34306L-7.81972 -7.8311C-7.6131 -8.327 -6.49732 -11.1371 -6.35268 -11.6743L-6.33202 -11.6743L-6.33202 -0.991801C-6.33202 -0.3306 -6.18738 -0 -5.34022 -0L-4.78233 -0C-3.99716 -0 -3.79053 -0.268613 -3.79053 -0.991801L-3.79053 -13.348C-3.79053 -14.0092 -3.93517 -14.3398 -4.78233 -14.3398L-6.51798 -14.3398C-7.03455 -14.3398 -7.55111 -14.2985 -7.90237 -13.4513ZM-7.90237 -13.4513" fill="#fff"/>
 </g>
 <g transform="matrix(1.000000,-0.000000,-0.000000,1.000000,208.346457,-271.412340)">
  <path d="M-1.02624 -0M7.89997 -13.4513C7.59003 -14.3398 6.99082 -14.3398 6.57757 -14.3398L4.75927 -14.3398C4.34602 -14.3398 3.7468 -14.3398 3.43686 -13.4513L-0.922928 -0.971138C-1.02624 -0.702526 -1.02624 -0.661201 -1.02624 -0.557888C-1.02624 -0 -0.509677 -0 -0.220402 -0L0.523449 -0C0.895374 -0 1.53591 -0 1.82519 -0.826501L2.63103 -3.12004L8.35454 -3.12004L9.05707 -1.13644C9.30502 -0.41325 9.44966 -0 10.4415 -0L11.5572 -0C11.8465 -0 12.3631 -0 12.3631 -0.557888C12.3631 -0.661201 12.3631 -0.702526 12.2598 -0.971138ZM12.2598 -0.971138M4.7386 -9.27747C5.04854 -10.1866 5.31715 -10.9718 5.48245 -11.7156L5.50312 -11.7156C5.60643 -11.2197 5.60643 -11.1784 5.77173 -10.7032L7.73467 -4.89702L3.2509 -4.89702ZM3.2509 -4.89702" fill="#fff"/>
 </g>
 <g transform="matrix(1.000000,-0.000000,-0.000000,1.000000,208.346457,-271.412340)">
  <path d="M13.8876 -0M25.8512 -2.95474C25.8512 -3.12004 25.7065 -3.20269 25.6239 -3.20269C25.128 -3.20269 24.5288 -1.85963 21.6154 -1.85963C17.9788 -1.85963 16.9456 -4.09118 16.9456 -7.19056C16.9456 -10.2693 18.0614 -12.5008 21.4501 -12.5008C23.289 -12.5008 24.2602 -11.7776 24.8181 -11.3231C24.942 -11.2197 25.004 -11.1371 25.1487 -11.1371C25.2313 -11.1371 25.3346 -11.2404 25.3553 -11.3231L25.7685 -13.6166C25.7892 -13.6993 25.7685 -13.7819 25.6032 -13.8439C24.3841 -14.2985 23.1237 -14.5877 21.512 -14.5877C16.4704 -14.5877 13.8876 -12.1289 13.8876 -7.21122C13.8876 -2.1489 16.5117 0.206625 21.5327 0.206625C23.289 0.206625 24.3841 -0.041325 25.8925 -0.971138C26.0578 -1.07445 26.0165 -1.21909 26.0165 -1.21909ZM26.0165 -1.21909" fill="#fff"/>
 </g>
 <g transform="matrix(1.000000,-0.000000,-0.000000,1.000000,208.346457,-271.412340)">
  <path d="M28.0162 -0M36.9424 -13.4513C36.6325 -14.3398 36.0333 -14.3398 35.62 -14.3398L33.8017 -14.3398C33.3885 -14.3398 32.7893 -14.3398 32.4793 -13.4513L28.1195 -0.971138C28.0162 -0.702526 28.0162 -0.661201 28.0162 -0.557888C28.0162 -0 28.5328 -0 28.8221 -0L29.5659 -0C29.9378 -0 30.5784 -0 30.8676 -0.826501L31.6735 -3.12004L37.397 -3.12004L38.0995 -1.13644C38.3475 -0.41325 38.4921 -0 39.4839 -0L40.5997 -0C40.889 -0 41.4055 -0 41.4055 -0.557888C41.4055 -0.661201 41.4055 -0.702526 41.3022 -0.971138ZM41.3022 -0.971138M33.7811 -9.27747C34.091 -10.1866 34.3596 -10.9718 34.5249 -11.7156L34.5456 -11.7156C34.6489 -11.2197 34.6489 -11.1784 34.8142 -10.7032L36.7771 -4.89702L32.2934 -4.89702ZM32.2934 -4.89702" fill="#fff"/>
 </g>
 <path d="M208.063 -245.901L208.63 -245.901"/>
 <g transform="matrix(1.000000,-0.000000,-0.000000,1.000000,208.346457,-245.900529)">
  <path d="M-29.9114 -11.7579M-25.378 0.508103L-27.9029 -5.07257C-28.0033 -5.30211 -28.0751 -5.30211 -28.1181 -5.30211C-28.1324 -5.30211 -28.2042 -5.30211 -28.362 -5.18734L-29.7249 -4.15441C-29.9114 -4.01095 -29.9114 -3.96791 -29.9114 -3.92487C-29.9114 -3.85314 -29.8683 -3.76706 -29.7679 -3.76706C-29.6818 -3.76706 -29.4379 -3.96791 -29.2801 -4.08268C-29.1941 -4.15441 -28.9789 -4.31222 -28.8211 -4.42699L-25.9949 1.78491C-25.8944 2.01445 -25.8227 2.01445 -25.6936 2.01445C-25.4784 2.01445 -25.4354 1.92838 -25.3349 1.72753L-18.8218 -11.7579C-18.7213 -11.9587 -18.7213 -12.0161 -18.7213 -12.0448C-18.7213 -12.1883 -18.8361 -12.3317 -19.0083 -12.3317C-19.123 -12.3317 -19.2235 -12.26 -19.3382 -12.0305ZM-19.3382 -12.0305" fill="black"/>
 </g>
 <g transform="matrix(1.000000,-0.000000,-0.000000,1.000000,208.346457,-245.900529)">
  <path d="M-19.0034 -11.7579L-11.9799 -11.7579L-11.9799 -12.3317L-19.0034 -12.3317Z" fill="black"/>
 </g>
 <g transform="matrix(1.000000,-0.000000,-0.000000,1.000000,208.346457,-245.900529)">
  <path d="M-18.4153 -0M-16.3637 -5.15028C-16.6076 -5.13594 -16.665 -5.12159 -16.665 -4.99248C-16.665 -4.84901 -16.5933 -4.84901 -16.3351 -4.84901L-15.6751 -4.84901C-14.4557 -4.84901 -13.9105 -3.84478 -13.9105 -2.46755C-13.9105 -0.588194 -14.8861 -0.0860772 -15.589 -0.0860772C-16.2777 -0.0860772 -17.4541 -0.41604 -17.8701 -1.36289C-17.411 -1.29116 -16.995 -1.54939 -16.995 -2.06585C-16.995 -2.48189 -17.2962 -2.76882 -17.6979 -2.76882C-18.0422 -2.76882 -18.4153 -2.56797 -18.4153 -2.02281C-18.4153 -0.746002 -17.1384 0.30127 -15.546 0.30127C-13.8388 0.30127 -12.5763 -1.00423 -12.5763 -2.4532C-12.5763 -3.77305 -13.638 -4.80598 -15.0152 -5.04986C-13.7671 -5.40852 -12.9637 -6.45579 -12.9637 -7.57479C-12.9637 -8.70814 -14.1401 -9.54022 -15.5317 -9.54022C-16.9663 -9.54022 -18.0279 -8.6651 -18.0279 -7.61783C-18.0279 -7.04398 -17.5832 -6.92921 -17.368 -6.92921C-17.0667 -6.92921 -16.7224 -7.14441 -16.7224 -7.57479C-16.7224 -8.03387 -17.0667 -8.23472 -17.3823 -8.23472C-17.4684 -8.23472 -17.4971 -8.23472 -17.5401 -8.22037C-16.995 -9.19591 -15.6464 -9.19591 -15.5747 -9.19591C-15.1013 -9.19591 -14.1688 -8.98072 -14.1688 -7.57479C-14.1688 -7.30221 -14.2118 -6.49883 -14.6279 -5.88194C-15.0582 -5.25071 -15.546 -5.20767 -15.9334 -5.19332ZM-15.9334 -5.19332" fill="black"/>
 </g>
 <g transform="matrix(1.000000,-0.000000,-0.000000,1.000000,208.346457,-245.900529)">
  <path d="M-6.5228 -0M-1.12863 -10.2432C-1.0569 -10.4297 -1.0569 -10.4584 -1.0569 -10.4871C-1.0569 -10.6736 -1.20036 -10.7596 -1.31513 -10.7596C-1.50163 -10.7596 -1.54467 -10.6305 -1.6164 -10.444L-6.45107 3.07009C-6.5228 3.25659 -6.5228 3.28528 -6.5228 3.31397C-6.5228 3.47178 -6.40803 3.58655 -6.25022 3.58655C-6.06372 3.58655 -6.02068 3.44309 -5.9633 3.28528ZM-5.9633 3.28528" fill="black"/>
 </g>
 <g transform="matrix(1.000000,-0.000000,-0.000000,1.000000,208.346457,-245.900529)">
  <path d="M4.99665 -0M7.04816 -5.15028C6.80427 -5.13594 6.74689 -5.12159 6.74689 -4.99248C6.74689 -4.84901 6.81862 -4.84901 7.07685 -4.84901L7.73677 -4.84901C8.9562 -4.84901 9.50136 -3.84478 9.50136 -2.46755C9.50136 -0.588194 8.52581 -0.0860772 7.82285 -0.0860772C7.13423 -0.0860772 5.95785 -0.41604 5.54181 -1.36289C6.00088 -1.29116 6.41692 -1.54939 6.41692 -2.06585C6.41692 -2.48189 6.11565 -2.76882 5.71396 -2.76882C5.36965 -2.76882 4.99665 -2.56797 4.99665 -2.02281C4.99665 -0.746002 6.27346 0.30127 7.86589 0.30127C9.57309 0.30127 10.8356 -1.00423 10.8356 -2.4532C10.8356 -3.77305 9.77393 -4.80598 8.3967 -5.04986C9.64482 -5.40852 10.4482 -6.45579 10.4482 -7.57479C10.4482 -8.70814 9.27182 -9.54022 7.88024 -9.54022C6.44562 -9.54022 5.384 -8.6651 5.384 -7.61783C5.384 -7.04398 5.82873 -6.92921 6.04392 -6.92921C6.34519 -6.92921 6.6895 -7.14441 6.6895 -7.57479C6.6895 -8.03387 6.34519 -8.23472 6.02958 -8.23472C5.9435 -8.23472 5.91481 -8.23472 5.87177 -8.22037C6.41692 -9.19591 7.76547 -9.19591 7.8372 -9.19591C8.31062 -9.19591 9.24312 -8.98072 9.24312 -7.57479C9.24312 -7.30221 9.20009 -6.49883 8.78405 -5.88194C8.35366 -5.25071 7.86589 -5.20767 7.47854 -5.19332ZM7.47854 -5.19332" fill="black"/>
 </g>
 <g transform="matrix(1.000000,-0.000000,-0.000000,1.000000,208.346457,-245.900529)">
  <path d="M12.0202 -0M13.1966 -4.99248C13.1966 -8.62206 14.9612 -9.19591 15.7359 -9.19591C16.2524 -9.19591 16.7688 -9.0381 17.0414 -8.60772C16.8692 -8.60772 16.3241 -8.60772 16.3241 -8.01952C16.3241 -7.70391 16.5393 -7.43133 16.9123 -7.43133C17.2709 -7.43133 17.5148 -7.64652 17.5148 -8.06256C17.5148 -8.80856 16.9697 -9.54022 15.7215 -9.54022C13.9139 -9.54022 12.0202 -7.68956 12.0202 -4.5334C12.0202 -0.588194 13.7418 0.30127 14.9612 0.30127C16.5249 0.30127 17.8591 -1.06162 17.8591 -2.92662C17.8591 -4.83467 16.5249 -6.11148 15.0903 -6.11148C13.8135 -6.11148 13.3401 -5.00682 13.1966 -4.60513ZM13.1966 -4.60513M14.9612 -0.0860772C14.0574 -0.0860772 13.627 -0.889464 13.4979 -1.19073C13.3688 -1.56374 13.2253 -2.2667 13.2253 -3.27093C13.2253 -4.40428 13.7418 -5.82456 15.0329 -5.82456C15.822 -5.82456 16.238 -5.29375 16.4532 -4.80598C16.6827 -4.27517 16.6827 -3.55786 16.6827 -2.94097C16.6827 -2.20931 16.6827 -1.56374 16.4102 -1.01858C16.0515 -0.329963 15.535 -0.0860772 14.9612 -0.0860772ZM14.9612 -0.0860772" fill="black"/>
 </g>
 <g transform="matrix(1.000000,-0.000000,-0.000000,1.000000,208.346457,-245.900529)">
  <path d="M19.0438 -0M24.8827 -4.59078C24.8827 -5.78152 24.811 -6.94356 24.2945 -8.03387C23.7063 -9.2246 22.6734 -9.54022 21.9704 -9.54022C21.1383 -9.54022 20.1198 -9.12418 19.589 -7.93345C19.1873 -7.02964 19.0438 -6.14017 19.0438 -4.59078C19.0438 -3.1992 19.1442 -2.15193 19.6607 -1.13335C20.2202 -0.0430386 21.2101 0.30127 21.9561 0.30127C23.2042 0.30127 23.9215 -0.444732 24.3375 -1.27681C24.854 -2.35278 24.8827 -3.7587 24.8827 -4.59078ZM24.8827 -4.59078M21.9561 0.0143462C21.497 0.0143462 20.5645 -0.243885 20.2919 -1.80762C20.1341 -2.66839 20.1341 -3.7587 20.1341 -4.76294C20.1341 -5.93933 20.1341 -7.00094 20.3636 -7.84737C20.6075 -8.80856 21.3392 -9.2533 21.9561 -9.2533C22.5012 -9.2533 23.3333 -8.92333 23.6059 -7.68956C23.7924 -6.87183 23.7924 -5.73848 23.7924 -4.76294C23.7924 -3.80174 23.7924 -2.71143 23.6346 -1.83631C23.362 -0.258232 22.4582 0.0143462 21.9561 0.0143462ZM21.9561 0.0143462" fill="black"/>
 </g>
 <g transform="matrix(1.000000,-0.000000,-0.000000,1.000000,208.346457,-245.900529)">
  <path d="M26.0271 -5.20611M29.9026 -7.69677C29.9026 -8.76277 29.0159 -9.62952 27.9698 -9.62952C26.8939 -9.62952 26.0271 -8.74285 26.0271 -7.69677C26.0271 -6.64073 26.8939 -5.76402 27.9698 -5.76402C29.0159 -5.76402 29.9026 -6.63077 29.9026 -7.69677ZM29.9026 -7.69677M27.9698 -6.16252C27.1031 -6.16252 26.4256 -6.85991 26.4256 -7.69677C26.4256 -8.53363 27.113 -9.23102 27.9698 -9.23102C28.7967 -9.23102 29.5041 -8.55356 29.5041 -7.69677C29.5041 -6.83998 28.7967 -6.16252 27.9698 -6.16252ZM27.9698 -6.16252" fill="black"/>
 </g>
 <g stroke-linecap="round" stroke-linejoin="round">
  <path d="M-34.8159 39.9409L-208.249 -260.454" stroke="black"/>
 </g>
 <g stroke-linecap="butt" stroke-linejoin="round" stroke-dasharray="2.000000" stroke-dashoffset="0.000000">
  <path d="M-34.8159 39.9409L-122.56 -287.525" stroke="black"/>
 </g>
 <g stroke-linecap="round" stroke-linejoin="round">
  <path d="M-34.8159 39.9409L-34.8159 -291.405" stroke="black"/>
 </g>
 <g stroke-linecap="butt" stroke-linejoin="round" stroke-dasharray="2.000000" stroke-dashoffset="0.000000">
  <path d="M-34.8159 39.9409L49.0022 -272.873" stroke="black"/>
 </g>
 <g stroke-linecap="round" stroke-linejoin="round">
  <path d="M-34.8159 39.9409L123.444 -234.174" stroke="black"/>
 </g>
 <g stroke-linecap="butt" stroke-linejoin="round" stroke-dasharray="2.000000" stroke-dashoffset="0.000000">
  <path d="M-34.8159 39.9409L183.933 -178.808" stroke="black"/>
 </g>
 <g stroke-linecap="round" stroke-linejoin="round">
  <path d="M-34.8159 39.9409L227.034 -111.238" stroke="black"/>
 </g>
 <g stroke-linecap="butt" stroke-linejoin="round" stroke-dasharray="2.000000" stroke-dashoffset="0.000000">
  <path d="M-34.8159 39.9409L250.631 -36.5444" stroke="black"/>
 </g>
 <g stroke-linecap="round" stroke-linejoin="round">
  <path d="M-34.8159 39.9409L254.014 39.9409" stroke="black"/>
 </g>
 <g stroke-linecap="butt" stroke-linejoin="round" stroke-dasharray="2.000000" stroke-dashoffset="0.000000">
  <path d="M-34.8159 39.9409L237.859 113.004" stroke="black"/>
 </g>
 <g stroke-linecap="round" stroke-linejoin="round">
  <path d="M-34.8159 39.9409L204.126 177.894" stroke="black"/>
 </g>
 <g stroke-linecap="butt" stroke-linejoin="round" stroke-dasharray="2.000000" stroke-dashoffset="0.000000">
  <path d="M-34.8159 39.9409L155.865 230.622" stroke="black"/>
 </g>
 <g stroke-linecap="round" stroke-linejoin="round">
  <path d="M-34.8159 39.9409L96.9647 268.192" stroke="black"/>
 </g>
 <g stroke-linecap="butt" stroke-linejoin="round" stroke-dasharray="2.000000" stroke-dashoffset="0.000000">
  <path d="M-34.8159 39.9409L31.8552 288.761" stroke="black"/>
 </g>
 <g stroke-linecap="round" stroke-linejoin="round">
  <path d="M-34.8159 39.9409L-34.8159 291.709" stroke="black"/>
 </g>
 <g stroke-linecap="butt" stroke-linejoin="round" stroke-dasharray="2.000000" stroke-dashoffset="0.000000">
  <path d="M-34.8159 39.9409L-98.5039 277.628" stroke="black"/>
 </g>
 <g stroke-linecap="round" stroke-linejoin="round">
  <path d="M-34.8159 39.9409L-155.068 248.223" stroke="black"/>
 </g>
 <g stroke-linecap="butt" stroke-linejoin="round" stroke-dasharray="2.000000" stroke-dashoffset="0.000000">
  <path d="M-34.8159 39.9409L-201.029 206.154" stroke="black"/>
 </g>
 <g stroke-linecap="round" stroke-linejoin="round">
  <path d="M-34.8159 39.9409L-233.779 154.812" stroke="black"/>
 </g>
 <g stroke-linecap="butt" stroke-linejoin="round" stroke-dasharray="2.000000" stroke-dashoffset="0.000000">
  <path d="M-34.8159 39.9409L-251.709 98.0571" stroke="black"/>
 </g>
 <g stroke-linecap="round" stroke-linejoin="round">
  <path d="M-34.8159 39.9409L-254.279 39.9409" stroke="black"/>
 </g>
 <g stroke-linecap="butt" stroke-linejoin="round" stroke-dasharray="2.000000" stroke-dashoffset="0.000000">
  <path d="M-34.8159 39.9409L-242.004 -15.575" stroke="black"/>
 </g>
 <g stroke-linecap="round" stroke-linejoin="round">
  <path d="M-34.8159 39.9409L-216.372 -64.8808" stroke="black"/>
 </g>
 <g stroke-linecap="butt" stroke-linejoin="round" stroke-dasharray="2.000000" stroke-dashoffset="0.000000">
  <path d="M-34.8159 39.9409L-179.702 -104.945" stroke="black"/>
 </g>
 <g stroke-linecap="round" stroke-linejoin="round">
  <path d="M-34.8159 39.9409L-134.948 -133.492" stroke="black"/>
 </g>
 <g stroke-linecap="round" stroke-linejoin="round" stroke-width="1.603518">
  <path d="M-208.249 -260.454L-202.724 -262.972L-197.163 -265.39L-191.571 -267.708L-185.947 -269.923L-180.294 -272.037L-174.613 -274.049L-168.907 -275.959L-163.178 -277.766L-157.426 -279.47L-151.655 -281.071L-145.865 -282.569L-140.059 -283.963L-134.238 -285.254L-128.404 -286.441L-122.56 -287.525L-116.707 -288.505L-110.846 -289.381L-104.98 -290.154L-99.1098 -290.823L-93.2382 -291.388L-87.3666 -291.851L-81.4967 -292.21L-75.6304 -292.467L-69.7695 -292.621L-63.9158 -292.672L-58.0709 -292.622L-52.2368 -292.469L-46.4151 -292.215L-40.6075 -291.861L-34.8159 -291.405L-29.0419 -290.85L-23.2873 -290.194L-17.5538 -289.44L-11.843 -288.587L-6.15668 -287.636L-0.496452 -286.587L5.13601 -285.441L10.7391 -284.2L16.3111 -282.862L21.8505 -281.43L27.3556 -279.904L32.8249 -278.284L38.2568 -276.572L43.6497 -274.768L49.0022 -272.873L54.3127 -270.888L59.5797 -268.813L64.8017 -266.651L69.9773 -264.401L75.1049 -262.064L80.1833 -259.642L85.211 -257.136L90.1865 -254.546L95.1086 -251.874L99.9758 -249.121L104.787 -246.287L109.541 -243.375L114.236 -240.384L118.871 -237.317L123.444 -234.174L127.956 -230.956L132.403 -227.666L136.786 -224.303L141.103 -220.87L145.353 -217.367L149.535 -213.796L153.647 -210.158L157.689 -206.454L161.66 -202.687L165.559 -198.856L169.384 -194.964L173.135 -191.012L176.811 -187.001L180.411 -182.933L183.933 -178.808L187.378 -174.63L190.745 -170.398L194.032 -166.115L197.239 -161.781L200.365 -157.399L203.41 -152.97L206.372 -148.496L209.251 -143.977L212.047 -139.415L214.758 -134.813L217.385 -130.171L219.926 -125.491L222.382 -120.774L224.751 -116.023L227.034 -111.238L229.229 -106.422L231.337 -101.575L233.357 -96.6999L235.288 -91.7977L237.131 -86.87L238.885 -81.9185L240.549 -76.9447L242.124 -71.9502L243.61 -66.9367L245.005 -61.9057L246.311 -56.8588L247.526 -51.7977L248.652 -46.7238L249.686 -41.6389L250.631 -36.5444L251.485 -31.442L252.249 -26.3333L252.923 -21.2198L253.506 -16.1032L253.999 -10.985L254.402 -5.86676L254.716 -0.750093L254.939 4.36345L255.073 9.47232L255.118 14.575L255.074 19.6698L254.941 24.7554L254.72 29.8301L254.411 34.8924L254.014 39.9409L253.529 44.974L252.958 49.9902L252.3 54.988L251.557 59.966L250.728 64.9227L249.814 69.8567L248.815 74.7664L247.733 79.6505L246.567 84.5075L245.318 89.3361L243.988 94.1349L242.576 98.9024L241.084 103.637L239.511 108.338L237.859 113.004L236.129 117.633L234.321 122.224L232.435 126.776L230.474 131.288L228.438 135.757L226.326 140.184L224.142 144.567L221.884 148.904L219.555 153.194L217.155 157.437L214.685 161.631L212.146 165.774L209.539 169.867L206.866 173.907L204.126 177.894L201.321 181.826L198.453 185.703L195.522 189.524L192.529 193.287L189.476 196.991L186.363 200.637L183.192 204.221L179.963 207.745L176.679 211.206L173.34 214.604L169.947 217.939L166.502 221.209L163.006 224.413L159.46 227.551L155.865 230.622L152.222 233.625L148.534 236.559L144.8 239.424L141.023 242.22L137.203 244.945L133.342 247.599L129.441 250.181L125.502 252.691L121.526 255.127L117.514 257.491L113.468 259.781L109.388 261.996L105.277 264.137L101.135 266.202L96.9647 268.192L92.7663 270.105L88.5416 271.943L84.2919 273.703L80.0187 275.387L75.7233 276.993L71.4072 278.522L67.0716 279.973L62.718 281.346L58.3478 282.641L53.9623 283.857L49.563 284.995L45.1513 286.055L40.7285 287.035L36.296 287.938L31.8552 288.761L27.4075 289.505L22.9543 290.171L18.497 290.758L14.0369 291.267L9.57545 291.697L5.11397 292.048L0.653845 292.321L-3.80356 292.516L-8.25688 292.633L-12.7048 292.672L-17.1459 292.634L-21.5789 292.518L-26.0025 292.325L-30.4152 292.055L-34.8159 291.709L-39.2032 291.287L-43.5757 290.789L-47.9323 290.216L-52.2715 289.568L-56.5922 288.845L-60.893 288.048L-65.1728 287.178L-69.4302 286.234L-73.664 285.218L-77.873 284.13L-82.056 282.97L-86.2118 281.74L-90.3391 280.438L-94.4369 279.068L-98.5039 277.628L-102.539 276.119L-106.541 274.543L-110.509 272.9L-114.441 271.19L-118.338 269.415L-122.196 267.575L-126.017 265.671L-129.797 263.703L-133.537 261.672L-137.235 259.58L-140.891 257.427L-144.503 255.214L-148.071 252.942L-151.592 250.611L-155.068 248.223L-158.495 245.778L-161.875 243.278L-165.205 240.723L-168.485 238.114L-171.715 235.453L-174.892 232.739L-178.017 229.975L-181.088 227.161L-184.105 224.298L-187.068 221.387L-189.974 218.43L-192.824 215.427L-195.617 212.379L-198.353 209.288L-201.029 206.154L-203.647 202.979L-206.205 199.764L-208.703 196.509L-211.14 193.217L-213.515 189.887L-215.828 186.522L-218.079 183.122L-220.267 179.688L-222.391 176.222L-224.451 172.725L-226.447 169.198L-228.378 165.642L-230.244 162.058L-232.044 158.448L-233.779 154.812L-235.447 151.152L-237.048 147.47L-238.583 143.765L-240.051 140.041L-241.451 136.296L-242.783 132.534L-244.048 128.755L-245.245 124.96L-246.374 121.15L-247.434 117.328L-248.426 113.493L-249.35 109.647L-250.205 105.792L-250.991 101.928L-251.709 98.0571L-252.358 94.1802L-252.938 90.2984L-253.45 86.413L-253.893 82.5252L-254.268 78.6362L-254.574 74.7472L-254.812 70.8594L-254.982 66.9739L-255.084 63.092L-255.118 59.2148L-255.085 55.3436L-254.984 51.4794L-254.816 47.6235L-254.581 43.7769L-254.279 39.9409L-253.911 36.1166L-253.477 32.3051L-252.977 28.5075L-252.412 24.7251L-251.782 20.9588L-251.088 17.2098L-250.329 13.4792L-249.506 9.76812L-248.621 6.07756L-247.672 2.40863L-246.661 -1.23763L-245.588 -4.86015L-244.454 -8.45791L-243.259 -12.0299L-242.004 -15.575L-240.689 -19.0924L-239.315 -22.5809L-237.883 -26.0396L-236.393 -29.4676L-234.845 -32.8638L-233.241 -36.2274L-231.581 -39.5574L-229.866 -42.8529L-228.096 -46.113L-226.272 -49.3368L-224.396 -52.5234L-222.467 -55.6719L-220.486 -58.7815L-218.454 -61.8515L-216.372 -64.8808L-214.241 -67.8688L-212.062 -70.8147L-209.835 -73.7176L-207.561 -76.5769L-205.241 -79.3917L-202.875 -82.1614L-200.466 -84.8853L-198.013 -87.5625L-195.517 -90.1926L-192.98 -92.7747L-190.402 -95.3083L-187.785 -97.7928L-185.128 -100.227L-182.433 -102.612L-179.702 -104.945L-176.934 -107.227L-174.131 -109.457L-171.294 -111.634L-168.424 -113.758L-165.522 -115.828L-162.588 -117.845L-159.624 -119.807L-156.631 -121.714L-153.61 -123.566L-150.562 -125.361L-147.487 -127.101L-144.387 -128.785L-141.264 -130.411L-138.117 -131.98L-134.948 -133.492L-131.757 -134.946L-128.547 -136.342L-125.318 -137.68L-122.071 -138.959L-118.808 -140.18L-115.528 -141.341L-112.234 -142.444L-108.926 -143.487L-105.605 -144.471L-102.273 -145.395L-98.93 -146.26L-95.5778 -147.065L-92.2172 -147.81L-88.8493 -148.496L-85.475 -149.121L-82.0955 -149.687L-78.7118 -150.193L-75.325 -150.639L-71.936 -151.026L-68.546 -151.352L-65.156 -151.619L-61.7671 -151.827L-58.3802 -151.975L-54.9964 -152.064L-51.6167 -152.093L-48.2422 -152.064L-44.8738 -151.976L-41.5127 -151.83L-38.1597 -151.625L-34.8159 -151.362L-31.4823 -151.041L-28.1599 -150.663L-24.8496 -150.227L-21.5525 -149.735L-18.2695 -149.185L-15.0016 -148.58L-11.7497 -147.919L-8.51473 -147.202L-5.29772 -146.43L-2.09956 -145.603L1.07882 -144.721L4.23652 -143.786L7.37264 -142.798L10.4863 -141.756L13.5765 -140.662L16.6425 -139.516L19.6834 -138.318L22.6983 -137.07L25.6865 -135.771L28.6469 -134.422L31.5789 -133.024L34.4816 -131.577L37.3543 -130.081L40.196 -128.539L43.0061 -126.949L45.7839 -125.313L48.5284 -123.631L51.239 -121.905L53.915 -120.134L56.5557 -118.319L59.1603 -116.462L61.7281 -114.562L64.2586 -112.62L66.751 -110.638L69.2046 -108.616L71.6189 -106.554L73.9932 -104.454L76.327 -102.316L78.6196 -100.14L80.8704 -97.9287L83.0789 -95.6816L85.2445 -93.3997L87.3668 -91.084L89.4451 -88.7352L91.4791 -86.3541L93.4681 -83.9415L95.4117 -81.4983L97.3096 -79.0254L99.1611 -76.5235L100.966 -73.9936L102.724 -71.4364L104.434 -68.853L106.096 -66.244L107.71 -63.6104L109.276 -60.9532L110.792 -58.2731L112.26 -55.5711L113.677 -52.848L115.045 -50.1048L116.363 -47.3424L117.631 -44.5616L118.848 -41.7634L120.014 -38.9487L121.129 -36.1184L122.193 -33.2734L123.205 -30.4146L124.166 -27.543L125.076 -24.6595L125.933 -21.7649L126.739 -18.8603L127.493 -15.9465L128.195 -13.0244L128.844 -10.095L129.442 -7.15919L129.987 -4.2179L130.48 -1.27204L130.921 1.67748L131.31 4.62974L131.647 7.58383L131.932 10.5388L132.164 13.4938L132.345 16.4479L132.474 19.4002L132.552 22.3499L132.578 25.2959L132.552 28.2374L132.475 31.1735L132.348 34.1034L132.169 37.0262L131.94 39.9409L131.66 42.8467L131.331 45.7429L130.951 48.6284L130.521 51.5024L130.043 54.3642L129.515 57.2128L128.939 60.0474L128.314 62.8672L127.641 65.6715L126.92 68.4593L126.152 71.2298L125.336 73.9823L124.475 76.716L123.567 79.4301L122.613 82.1239L121.614 84.7965L120.57 87.4472L119.482 90.0752L118.349 92.6799L117.174 95.2605L115.955 97.8163L114.693 100.347L113.39 102.851L112.045 105.328L110.66 107.777L109.234 110.199L107.768 112.591L106.263 114.954L104.719 117.286L103.137 119.588L101.518 121.859L99.8619 124.097L98.1696 126.303L96.4417 128.475L94.6788 130.614L92.8816 132.719L91.0508 134.788L89.187 136.823L87.2908 138.821L85.363 140.783L83.4042 142.708L81.4152 144.596L79.3966 146.446L77.3492 148.257L75.2736 150.03L73.1706 151.764L71.0409 153.458L68.8853 155.113L66.7045 156.727L64.4991 158.3L62.2701 159.832L60.0181 161.323L57.7439 162.772L55.4483 164.179L53.132 165.544L50.7958 166.865L48.4405 168.145L46.0668 169.38L43.6756 170.573L41.2677 171.722L38.8437 172.826L36.4046 173.887L33.951 174.904L31.4839 175.876L29.0039 176.803L26.512 177.686L24.0089 178.523L21.4953 179.316L18.9722 180.064L16.4402 180.766L13.9003 181.423L11.3532 182.035L8.79966 182.601L6.24057 183.122L3.67668 183.597L1.10881 184.027L-1.46224 184.411L-4.03568 184.75L-6.61071 185.044L-9.18654 185.292L-11.7624 185.495L-14.3374 185.653L-16.9109 185.765L-19.482 185.833L-22.05 185.855L-24.6141 185.833L-27.1735 185.766L-29.7275 185.655L-32.2752 185.499L-34.8159 185.3L-37.3489 185.056L-39.8734 184.768L-42.3886 184.437L-44.8939 184.063L-47.3885 183.646L-49.8715 183.186L-52.3425 182.683L-54.8005 182.138L-57.2449 181.552L-59.6749 180.924L-62.09 180.254L-64.4893 179.543L-66.8723 178.792L-69.2381 178.001L-71.5862 177.169L-73.9159 176.299L-76.2264 175.389L-78.5173 174.44L-80.7878 173.453L-83.0372 172.428L-85.2651 171.365L-87.4706 170.266L-89.6534 169.13L-91.8126 167.958L-93.9479 166.75L-96.0585 165.507L-98.1439 164.229L-100.204 162.917L-102.237 161.571L-104.243 160.193L-106.222 158.781L-108.174 157.338L-110.096 155.862L-111.99 154.356L-113.854 152.82L-115.689 151.253L-117.493 149.657L-119.266 148.032L-121.008 146.38L-122.718 144.699L-124.397 142.992L-126.042 141.258L-127.655 139.498L-129.234 137.714L-130.779 135.904L-132.291 134.071L-133.768 132.215L-135.21 130.336L-136.616 128.435L-137.988 126.512L-139.323 124.569L-140.623 122.606L-141.886 120.624L-143.112 118.623L-144.302 116.604L-145.454 114.567L-146.569 112.514L-147.646 110.445L-148.686 108.361L-149.687 106.262L-150.65 104.149L-151.575 102.023L-152.461 99.884L-153.308 97.7335L-154.117 95.5717L-154.886 93.3995L-155.616 91.2176L-156.307 89.0266L-156.959 86.8272L-157.571 84.6201L-158.144 82.4061L-158.677 80.1858L-159.171 77.96L-159.625 75.7292L-160.039 73.4943L-160.414 71.256L-160.749 69.0148L-161.044 66.7716L-161.3 64.527L-161.517 62.2816L-161.693 60.0363L-161.831 57.7917L-161.929 55.5484L-161.988 53.3072L-162.007 51.0687L-161.988 48.8336L-161.93 46.6027L-161.833 44.3764L-161.697 42.1556L-161.523 39.9409L-161.31 37.7329L-161.06 35.5324L-160.771 33.3398L-160.445 31.156L-160.081 28.9816L-159.68 26.8171L-159.242 24.6632L-158.767 22.5206L-158.256 20.3899L-157.708 18.2716L-157.125 16.1665L-156.505 14.075L-155.851 11.9978L-155.161 9.93556L-154.436 7.88877L-153.677 5.85804L-152.884 3.84394L-152.057 1.84704L-151.196 -0.132106L-150.303 -2.09293L-149.377 -4.03491L-148.418 -5.95749L-147.428 -7.86014L-146.406 -9.74234L-145.353 -11.6036L-144.27 -13.4434L-143.156 -15.2612L-142.012 -17.0565L-140.839 -18.8289L-139.638 -20.5779L-138.407 -22.3031L-137.149 -24.0039L-135.863 -25.6799L-134.55 -27.3307L-133.211 -28.9558L-131.845 -30.5549L-130.454 -32.1275L-129.038 -33.6732L-127.597 -35.1917L-126.132 -36.6825L-124.644 -38.1453L-123.132 -39.5797L-121.599 -40.9853L-120.043 -42.3619L-118.466 -43.709L-116.868 -45.0264L-115.25 -46.3138L-113.612 -47.5708L-111.955 -48.7971L-110.279 -49.9925L-108.585 -51.1568L-106.874 -52.2895L-105.146 -53.3905L-103.402 -54.4596L-101.642 -55.4965L-99.8667 -56.5009L-98.0771 -57.4728L-96.2735 -58.4118L-94.4566 -59.3179L-92.6269 -60.1907L-90.7851 -61.0302L-88.9318 -61.8362L-87.0675 -62.6086L-85.1928 -63.3472L-83.3085 -64.0518L-81.415 -64.7225L-79.5131 -65.359L-77.6032 -65.9613L-75.686 -66.5294L-73.7621 -67.063L-71.8322 -67.5623L-69.8968 -68.0271L-67.9566 -68.4573L-66.0121 -68.8531L-64.0639 -69.2143L-62.1128 -69.5409L-60.1592 -69.833L-58.2038 -70.0906L-56.2472 -70.3136L-54.29 -70.5022L-52.3328 -70.6564L-50.3762 -70.7762L-48.4207 -70.8617L-46.4671 -70.913L-44.5159 -70.9301L-42.5676 -70.9133L-40.6229 -70.8625L-38.6823 -70.7779L-36.7464 -70.6596L-34.8159 -70.5078L-32.8912 -70.3226L-30.973 -70.1042L-29.0619 -69.8527L-27.1583 -69.5683L-25.2628 -69.2512L-23.3761 -68.9017L-21.4986 -68.5198L-19.6309 -68.1059L-17.7736 -67.6601L-15.9271 -67.1827L-14.0921 -66.674L-12.269 -66.1341L-10.4583 -65.5633L-8.66069 -64.9619L-6.87653 -64.3303L-5.10636 -63.6686L-3.3507 -62.9771L-1.61003 -62.2563L0.115155 -61.5063L1.82438 -60.7275L3.51717 -59.9202L5.19305 -59.0847L6.85157 -58.2215L8.49226 -57.3308L10.1147 -56.413L11.7184 -55.4685L13.3029 -54.4977L14.8679 -53.5008L16.4129 -52.4783L17.9375 -51.4307L19.4413 -50.3582L20.9238 -49.2613L22.3848 -48.1404L23.8238 -46.996L25.2404 -45.8284L26.6343 -44.638L28.0051 -43.4254L29.3525 -42.1909L30.6761 -40.935L31.9756 -39.6581L33.2507 -38.3608L34.501 -37.0434L35.7263 -35.7064L36.9262 -34.3503L38.1005 -32.9755L39.2489 -31.5826L40.3711 -30.1721L41.4668 -28.7443L42.5358 -27.2999L43.5778 -25.8392L44.5926 -24.3628L45.58 -22.8713L46.5397 -21.365L47.4716 -19.8445L48.3755 -18.3103L49.251 -16.763L50.0982 -15.203L50.9167 -13.6308L51.7065 -12.047L52.4674 -10.4521L53.1992 -8.84665L53.9017 -7.23111L54.575 -5.60604L55.2188 -3.97196L55.833 -2.3294L56.4176 -0.678895L56.9725 0.979032L57.4975 2.64385L57.9927 4.31502L58.4579 5.99202L58.8931 7.67431L59.2982 9.36137L59.6733 11.0527L60.0182 12.7476L60.3331 14.4458L60.6178 16.1466L60.8724 17.8495L61.0969 19.554L61.2914 21.2595L61.4558 22.9656L61.5901 24.6717L61.6946 26.3772L61.7691 28.0817L61.8138 29.7847L61.8288 31.4856L61.8141 33.1839L61.7698 34.8791L61.696 36.5706L61.5929 38.2581L61.4606 39.9409L61.2992 41.6186L61.1088 43.2907L60.8896 44.9566L60.6417 46.6159L60.3653 48.2682L60.0606 49.9128L59.7278 51.5494L59.3669 53.1774L58.9784 54.7964L58.5622 56.406L58.1187 58.0056L57.6481 59.5947L57.1506 61.173L56.6264 62.74L56.0758 64.2952L55.499 65.8383L54.8963 67.3687L54.2679 68.886L53.6141 70.3898L52.9352 71.8797L52.2315 73.3553L51.5033 74.8161L50.7509 76.2618L49.9745 77.692L49.1744 79.1062L48.3511 80.5042L47.5048 81.8854L46.6359 83.2496L45.7446 84.5963L44.8314 85.9253L43.8965 87.2361L42.9404 88.5284L41.9633 89.8019L40.9657 91.0562L39.9479 92.2911L38.9103 93.5061L37.8533 94.701L36.7772 95.8755L35.6824 97.0293L34.5694 98.1621L33.4385 99.2736L32.2902 100.363L31.1247 101.432L29.9426 102.477L28.7443 103.501L27.5301 104.502L26.3006 105.48L25.056 106.435L23.7969 107.367L22.5237 108.276L21.2367 109.16L19.9365 110.021L18.6235 110.857L17.2982 111.67L15.9608 112.458L14.612 113.221L13.2522 113.959L11.8818 114.673L10.5012 115.361L9.11097 116.024L7.7115 116.662L6.30325 117.275L4.8867 117.862L3.4623 118.423L2.03051 118.958L0.591783 119.468L-0.853408 119.952L-2.3046 120.409L-3.76134 120.841L-5.22316 121.246L-6.68959 121.626L-8.16017 121.979L-9.63444 122.306L-11.1119 122.606L-12.5922 122.881L-14.0748 123.129L-15.5592 123.351L-17.0449 123.547L-18.5316 123.716L-20.0188 123.86L-21.5059 123.977L-22.9927 124.068L-24.4785 124.133L-25.9629 124.172L-27.4455 124.185L-28.9259 124.172L-30.4036 124.133L-31.8781 124.069L-33.349 123.979L-34.8159 123.864L-36.2783 123.723L-37.7358 123.557L-39.188 123.366L-40.6344 123.15L-42.0747 122.909L-43.5083 122.643L-44.9349 122.353L-46.354 122.039L-47.7653 121.7L-49.1683 121.337L-50.5626 120.951L-51.9479 120.54L-53.3236 120.107L-54.6896 119.65L-56.0452 119.17L-57.3903 118.667L-58.7243 118.142L-60.0469 117.594L-61.3578 117.024L-62.6565 116.432L-63.9427 115.819L-65.2161 115.184L-66.4763 114.528L-67.723 113.851L-68.9558 113.154L-70.1743 112.436L-71.3783 111.699L-72.5674 110.941L-73.7414 110.164L-74.8998 109.368L-76.0424 108.553L-77.1689 107.72L-78.279 106.868L-79.3724 105.999L-80.4488 105.111L-81.5079 104.207L-82.5495 103.286L-83.5733 102.348L-84.5791 101.393L-85.5665 100.423L-86.5353 99.4373L-87.4854 98.4363L-88.4164 97.4204L-89.3281 96.39L-90.2204 95.3454L-91.093 94.287L-91.9456 93.2152L-92.7782 92.1304L-93.5904 91.0328L-94.3822 89.923L-95.1533 88.8012L-95.9036 87.6678L-96.6328 86.5233L-97.3409 85.368L-98.0277 84.2023L-98.693 83.0265L-99.3367 81.8412L-99.9586 80.6466L-100.559 79.4432L-101.137 78.2313L-101.693 77.0114L-102.227 75.7839L-102.738 74.5491L-103.227 73.3075L-103.694 72.0594L-104.138 70.8053L-104.56 69.5455L-104.959 68.2805L-105.335 67.0107L-105.689 65.7365L-106.019 64.4582L-106.327 63.1763L-106.612 61.8912L-106.874 60.6033L-107.113 59.313L-107.33 58.0207L-107.523 56.7267L-107.694 55.4316L-107.842 54.1357L-107.967 52.8393L-108.069 51.543L-108.148 50.2471L-108.205 48.9519L-108.239 47.6579L-108.25 46.3655L-108.239 45.0751L-108.205 43.7871L-108.149 42.5017L-108.071 41.2196L-107.97 39.9409L-107.848 38.6661L-107.703 37.3956L-107.536 36.1298L-107.348 34.869L-107.138 33.6135L-106.906 32.3639L-106.654 31.1203L-106.379 29.8833L-106.084 28.6531L-105.768 27.4301L-105.431 26.2147L-105.073 25.0072L-104.695 23.808L-104.297 22.6173L-103.879 21.4356L-103.44 20.2631L-102.982 19.1003L-102.505 17.9474L-102.008 16.8047L-101.492 15.6727L-100.958 14.5515L-100.404 13.4415L-99.8326 12.343L-99.2426 11.2563L-98.6348 10.1817L-98.0092 9.11948L-97.3661 8.06997L-96.7059 7.03342L-96.0287 6.01011L-95.3347 5.00033L-94.6244 4.00432L-93.8979 3.02237L-93.1555 2.05472L-92.3975 1.10164L-91.6241 0.163355L-90.8357 -0.759876L-90.0325 -1.66782L-89.2149 -2.56025L-88.3831 -3.43693L-87.5373 -4.29764L-86.678 -5.14218L-85.8055 -5.97033L-84.9199 -6.78188L-84.0217 -7.57664L-83.1112 -8.35441L-82.1886 -9.11502L-81.2544 -9.85827L-80.3087 -10.584L-79.352 -11.292L-78.3846 -11.9822L-77.4067 -12.6544L-76.4188 -13.3083L-75.4211 -13.944L-74.414 -14.5612L-73.3979 -15.1599L-72.373 -15.7398L-71.3398 -16.3009L-70.2985 -16.8431L-69.2495 -17.3662L-68.1931 -17.8701L-67.1297 -18.3548L-66.0597 -18.8201L-64.9834 -19.2661L-63.901 -19.6925L-62.8131 -20.0993L-61.7199 -20.4865L-60.6218 -20.854L-59.5191 -21.2018L-58.4123 -21.5297L-57.3015 -21.8378L-56.1873 -22.1261L-55.0699 -22.3944L-53.9497 -22.6428L-52.827 -22.8713L-51.7023 -23.0799L-50.5758 -23.2685L-49.4479 -23.4371L-48.3189 -23.5858L-47.1893 -23.7146L-46.0593 -23.8235L-44.9293 -23.9125L-43.7996 -23.9816L-42.6707 -24.031L-41.5427 -24.0606L-40.4162 -24.0705L-39.2913 -24.0608L-38.1686 -24.0315L-37.0482 -23.9826L-35.9305 -23.9143L-34.8159 -23.8267L-33.7047 -23.7198L-32.5972 -23.5936L-31.4938 -23.4485L-30.3948 -23.2843L-29.3004 -23.1012L-28.2111 -22.8994L-27.1272 -22.6789L-26.0488 -22.44L-24.9765 -22.1826L-23.9105 -21.907L-22.851 -21.6132L-21.7984 -21.3015L-20.7531 -20.972L-19.7152 -20.6248L-18.6851 -20.2601L-17.6631 -19.8781L-16.6495 -19.4789L-15.6445 -19.0627L-14.6484 -18.6296L-13.6616 -18.18L-12.6843 -17.7139L-11.7167 -17.2316L-10.7592 -16.7332L-9.81192 -16.219L-8.87522 -15.6891L-7.94932 -15.1438L-7.03447 -14.5832L-6.13093 -14.0077L-5.23893 -13.4174L-4.35871 -12.8125L-3.49051 -12.1933L-2.63456 -11.56L-1.79107 -10.9129L-0.96028 -10.2521L-0.142394 -9.578L0.662373 -8.89076L1.45382 -8.19064L2.23173 -7.47791L2.99592 -6.75282L3.74619 -6.01562L4.48236 -5.26659L5.20425 -4.50598L5.91166 -3.73407L6.60445 -2.95113L7.28242 -2.15743L7.94543 -1.35324L8.59331 -0.538851L9.22592 0.285464L9.8431 1.11942L10.4447 1.96273L11.0306 2.81512L11.6007 3.67628L12.1548 4.54593L12.6928 5.42378L13.2147 6.30954L13.7202 7.2029L14.2093 8.10357L14.6819 9.01126L15.1378 9.92566L15.5771 10.8465L15.9996 11.7734L16.4053 12.7061L16.794 13.6444L17.1657 14.5878L17.5203 15.5361L17.8578 16.489L18.1782 17.4463L18.4813 18.4074L18.7672 19.3723L19.0357 20.3405L19.287 21.3118L19.5209 22.2858L19.7374 23.2623L19.9366 24.2409L20.1184 25.2213L20.2828 26.2033L20.4298 27.1864L20.5594 28.1705L20.6717 29.1552L20.7666 30.1402L20.8442 31.1252L20.9044 32.1099L20.9475 33.094L20.9733 34.0772L20.9819 35.0592L20.9734 36.0397L20.9479 37.0184L20.9053 37.9951L20.8458 38.9693L20.7694 39.9409L20.6762 40.9095L20.5662 41.8749L20.4397 42.8367L20.2966 43.7947L20.137 44.7487L19.9611 45.6982L19.7689 46.6431L19.5606 47.583L19.3362 48.5178L19.096 49.447L18.8399 50.3705L18.5682 51.288L18.281 52.1993L17.9783 53.104L17.6604 54.0019L17.3274 54.8928L16.9794 55.7763L16.6166 56.6523L16.2392 57.5206L15.8472 58.3808L15.441 59.2327L15.0205 60.0761L14.5861 60.9108L14.1378 61.7365L13.6759 62.553L13.2006 63.3601L12.712 64.1576L12.2103 64.9452L11.6957 65.7227L11.1685 66.49L10.6287 67.2468L10.0767 67.9929L9.5126 68.7282L8.93663 69.4524L8.34901 70.1653L7.74995 70.8668L7.13967 71.5567L6.51839 72.2348L5.88633 72.9009L5.24373 73.5549L4.59081 74.1966L3.9278 74.8259L3.25494 75.4425L2.57246 76.0464L1.8806 76.6374L1.1796 77.2153L0.469708 77.7801L-0.248835 78.3315L-0.975783 78.8695L-1.71089 79.3939L-2.4539 79.9046L-3.20456 80.4016L-3.96262 80.8846L-4.72783 81.3536L-5.49993 81.8084L-6.27866 82.2491L-7.06377 82.6754L-7.85498 83.0874L-8.65205 83.4849L-9.45471 83.8678L-10.2627 84.236L-11.0757 84.5896L-11.8936 84.9285L-12.716 85.2525L-13.5426 85.5616L-14.3733 85.8558L-15.2076 86.135L-16.0455 86.3993L-16.8865 86.6485L-17.7305 86.8826L-18.5772 87.1016L-19.4262 87.3055L-20.2774 87.4943L-21.1304 87.6679L-21.985 87.8263L-22.841 87.9696L-23.698 88.0978L-24.5558 88.2107L-25.4142 88.3086L-26.2728 88.3913L-27.1314 88.459L-27.9897 88.5115L-28.8476 88.549L-29.7046 88.5715L-30.5606 88.5791L-31.4153 88.5717L-32.2684 88.5494L-33.1198 88.5123L-33.969 88.4604L-34.8159 88.3938L-35.6602 88.3125L-36.5017 88.2167L-37.3401 88.1064L-38.1752 87.9816L-39.0068 87.8425L-39.8344 87.6892L-40.6581 87.5217L-41.4774 87.3401L-42.2922 87.1445L-43.1022 86.9351L-43.9073 86.7119L-44.707 86.4751L-45.5014 86.2247L-46.29 85.9609L-47.0727 85.6838L-47.8492 85.3935L-48.6194 85.0901L-49.383 84.7739L-50.1399 84.4449L-50.8897 84.1032L-51.6323 83.7491L-52.3675 83.3826L-53.0951 83.0039L-53.8148 82.6132L-54.5266 82.2105L-55.2301 81.7962L-55.9252 81.3703L-56.6118 80.933L-57.2895 80.4844L-57.9584 80.0248L-58.6181 79.5543L-59.2684 79.0731L-59.9093 78.5814L-60.5406 78.0793L-61.1621 77.5671L-61.7736 77.0449L-62.3749 76.513L-62.966 75.9714L-63.5467 75.4204L-64.1168 74.8603L-64.6761 74.2912L-65.2246 73.7132L-65.7622 73.1267L-66.2886 72.5318L-66.8037 71.9287L-67.3075 71.3177L-67.7998 70.6989L-68.2804 70.0725L-68.7494 69.4388L-69.2065 68.7981L-69.6517 68.1504L-70.0849 67.496L-70.5059 66.8353L-70.9147 66.1682L-71.3112 65.4952L-71.6953 64.8164L-72.067 64.132L-72.4261 63.4423L-72.7725 62.7475L-73.1063 62.0479L-73.4273 61.3436L-73.7356 60.6348L-74.0309 59.9219L-74.3133 59.2051L-74.5828 58.4845L-74.8393 57.7604L-75.0827 57.0331L-75.313 56.3028L-75.5302 55.5697L-75.7343 54.834L-75.9252 54.096L-76.1029 53.3559L-76.2675 52.6139L-76.4188 51.8703L-76.5569 51.1254L-76.6818 50.3792L-76.7935 49.6322L-76.892 48.8845L-76.9773 48.1362L-77.0494 47.3878L-77.1084 46.6394L-77.1542 45.8912L-77.1869 45.1434L-77.2065 44.3963L-77.2131 43.6502L-77.2066 42.9051L-77.1872 42.1615L-77.1549 41.4194L-77.1096 40.6791L-77.0516 39.9409L-76.9808 39.2049L-76.8972 38.4714L-76.8011 37.7405L-76.6923 37.0126L-76.5711 36.2878L-76.4374 35.5663L-76.2914 34.8483L-76.1331 34.1341L-75.9626 33.4239L-75.7801 32.7178L-75.5855 32.0161L-75.3791 31.3189L-75.1608 30.6265L-74.9308 29.9391L-74.6893 29.2569L-74.4363 28.5799L-74.1718 27.9086L-73.8962 27.2429L-73.6094 26.5832L-73.3116 25.9296L-73.0029 25.2823L-72.6834 24.6414L-72.3533 24.0072L-72.0127 23.3798L-71.6617 22.7594L-71.3006 22.1461L-70.9293 21.5402L-70.5481 20.9418L-70.1571 20.3509L-69.7565 19.7679L-69.3464 19.1929L-68.9269 18.626L-68.4983 18.0673L-68.0606 17.517L-67.6141 16.9753L-67.159 16.4423L-66.6952 15.9181L-66.2232 15.4028L-65.7429 14.8967L-65.2546 14.3998L-64.7585 13.9122L-64.2547 13.434L-63.7435 12.9655L-63.2249 12.5066L-62.6992 12.0576L-62.1666 11.6185L-61.6272 11.1893L-61.0812 10.7703L-60.5288 10.3616L-59.9703 9.96308L-59.4057 9.57501L-58.8353 9.19743L-58.2593 8.83042L-57.6779 8.47407L-57.0912 8.12844L-56.4995 7.79362L-55.903 7.46967L-55.3018 7.15666L-54.6961 6.85464L-54.0862 6.56369L-53.4723 6.28386L-52.8545 6.01519L-52.2331 5.75774L-51.6082 5.51155L-50.9801 5.27666L-50.3489 5.05311L-49.715 4.84093L-49.0783 4.64016L-48.4393 4.45081L-47.798 4.27292L-47.1547 4.10651L-46.5095 3.95158L-45.8628 3.80815L-45.2146 3.67624L-44.5652 3.55584L-43.9149 3.44696L-43.2637 3.34959L-42.6119 3.26374L-41.9597 3.18939L-41.3073 3.12652L-40.6549 3.07514L-40.0027 3.0352L-39.3509 3.0067L-38.6996 2.98961L-38.0492 2.98389L-37.3998 2.98951L-36.7516 3.00644L-36.1047 3.03464L-35.4594 3.07407L-34.8159 3.12467L-34.1743 3.1864L-33.5349 3.25921L-32.8979 3.34304L-32.2634 3.43783L-31.6315 3.54352L-31.0026 3.66004L-30.3768 3.78732L-29.7542 3.92529L-29.1351 4.07389L-28.5196 4.23302L-27.908 4.40261L-27.3003 4.58258L-26.6967 4.77283L-26.0975 4.97328L-25.5028 5.18384L-24.9127 5.40441L-24.3275 5.63489L-23.7473 5.87518L-23.1722 6.12518L-22.6025 6.38478L-22.0382 6.65387L-21.4796 6.93235L-20.9267 7.22009L-20.3798 7.51699L-19.839 7.82291L-19.3045 8.13775L-18.7763 8.46138L-18.2546 8.79366L-17.7396 9.13448L-17.2314 9.48371L-16.7302 9.8412L-16.236 10.2068L-15.749 10.5805L-15.2693 10.9619L-14.7971 11.3511L-14.3325 11.7479L-13.8756 12.1521L-13.4264 12.5636L-12.9852 12.9823L-12.5521 13.4079L-12.127 13.8403L-11.7103 14.2795L-11.3018 14.7251L-10.9019 15.1772L-10.5104 15.6354L-10.1276 16.0997L-9.75358 16.5699L-9.38835 17.0458L-9.03202 17.5273L-8.68468 18.0142L-8.3464 18.5063L-8.01727 19.0035L-7.69735 19.5056L-7.38672 20.0124L-7.08545 20.5238L-6.79359 21.0396L-6.5112 21.5596L-6.23835 22.0837L-5.97509 22.6116L-5.72148 23.1432L-5.47755 23.6784L-5.24335 24.2169L-5.01894 24.7586L-4.80434 25.3033L-4.59959 25.8508L-4.40472 26.401L-4.21977 26.9536L-4.04476 27.5085L-3.87971 28.0656L-3.72465 28.6246L-3.57958 29.1854L-3.44453 29.7477L-3.31951 30.3115L-3.20452 30.8765L-3.09957 31.4425L-3.00466 32.0095L-2.91979 32.5771L-2.84495 33.1453L-2.78014 33.7138L-2.72535 34.2825L-2.68055 34.8512L-2.64574 35.4197L-2.6209 35.9878L-2.606 36.5555L-2.60101 37.1225L-2.60591 37.6886L-2.62067 38.2536L-2.64526 38.8175L-2.67962 39.38L-2.72373 39.9409L-2.77754 40.5001L-2.84101 41.0575L-2.91408 41.6128L-2.99671 42.1659L-3.08883 42.7167L-3.1904 43.2649L-3.30135 43.8104L-3.42162 44.3531L-3.55115 44.8927L-3.68986 45.4293L-3.83769 45.9624L-3.99457 46.4922L-4.16041 47.0183L-4.33514 47.5406L-4.51868 48.059L-4.71094 48.5734L-4.91185 49.0835L-5.12131 49.5893L-5.33923 50.0905L-5.56552 50.5872L-5.80009 51.079L-6.04283 51.566L-6.29365 52.0479L-6.55245 52.5246L-6.81912 52.996L-7.09356 53.462L-7.37566 53.9224L-7.66531 54.3771L-7.9624 54.826L-8.26681 55.269L-8.57843 55.706L-8.89714 56.1367L-9.22283 56.5612L-9.55536 56.9793L-9.89463 57.391L-10.2405 57.796L-10.5928 58.1943L-10.9515 58.5858L-11.3165 58.9704L-11.6875 59.348L-12.0644 59.7185L-12.4472 60.0818L-12.8357 60.4378L-13.2297 60.7864L-13.6292 61.1276L-14.0339 61.4613L-14.4437 61.7874L-14.8586 62.1057L-15.2783 62.4163L-15.7027 62.7191L-16.1317 63.014L-16.5651 63.3009L-17.0028 63.5797L-17.4445 63.8505L-17.8903 64.1131L-18.3399 64.3675L-18.7932 64.6137L-19.25 64.8515L-19.7102 65.081L-20.1736 65.3021L-20.6401 65.5147L-21.1095 65.7189L-21.5817 65.9145L-22.0565 66.1015L-22.5338 66.28L-23.0133 66.4499L-23.4951 66.6111L-23.9788 66.7637L-24.4644 66.9075L-24.9517 67.0427L-25.4405 67.1691L-25.9307 67.2869L-26.4221 67.3958L-26.9146 67.4961L-27.408 67.5876L-27.9022 67.6703L-28.397 67.7443L-28.8922 67.8095L-29.3878 67.866L-29.8835 67.9138L-30.3792 67.9528L-30.8748 67.9832L-31.3701 68.0048L-31.8649 68.0178L-32.3591 68.0222L-32.8526 68.0179L-33.3451 68.005L-33.8366 67.9836L-34.3269 67.9536L-34.8159 67.9152L-35.3034 67.8683L-35.7892 67.8129L-36.2733 67.7493L-36.7554 67.6772L-37.2355 67.5969L-37.7134 67.5084L-38.1889 67.4117L-38.6619 67.3068L-39.1324 67.1939L-39.6 67.073L-40.0648 66.9442L-40.5266 66.8074L-40.9852 66.6628L-41.4405 66.5105L-41.8923 66.3505L-42.3407 66.183L-42.7854 66.0078L-43.2262 65.8252L-43.6632 65.6353L-44.0961 65.438L-44.5248 65.2336L-44.9493 65.022L-45.3694 64.8033L-45.7849 64.5777L-46.1959 64.3453L-46.602 64.1061L-47.0034 63.8602L-47.3998 63.6077L-47.7911 63.3487L-48.1772 63.0834L-48.5581 62.8117L-48.9336 62.5339L-49.3036 62.25L-49.6681 61.9601L-50.0269 61.6644L-50.3799 61.3629L-50.7271 61.0558L-51.0684 60.7431L-51.4036 60.425L-51.7328 60.1016L-52.0557 59.773L-52.3724 59.4394L-52.6827 59.1007L-52.9866 58.7573L-53.2841 58.4091L-53.5749 58.0563L-53.8591 57.699L-54.1367 57.3374L-54.4074 56.9715L-54.6713 56.6016L-54.9284 56.2277L-55.1785 55.8499L-55.4215 55.4684L-55.6576 55.0833L-55.8865 54.6947L-56.1083 54.3028L-56.3228 53.9077L-56.5301 53.5095L-56.7302 53.1083L-56.9229 52.7044L-57.1082 52.2977L-57.2862 51.8886L-57.4567 51.477L-57.6198 51.0631L-57.7753 50.6471L-57.9234 50.229L-58.0639 49.8091L-58.1969 49.3874L-58.3223 48.9642L-58.4401 48.5394L-58.5504 48.1133L-58.653 47.686L-58.748 47.2577L-58.8354 46.8284L-58.9151 46.3983L-58.9872 45.9675L-59.0517 45.5362L-59.1086 45.1045L-59.1578 44.6725L-59.1995 44.2404L-59.2335 43.8083L-59.2599 43.3763L-59.2788 42.9446L-59.2901 42.5132L-59.2939 42.0824L-59.2902 41.6523L-59.279 41.223L-59.2603 40.7945L-59.2342 40.3671L-59.2007 39.9409L-59.1598 39.516L-59.1116 39.0925L-59.056 38.6705L-58.9933 38.2503L-58.9233 37.8318L-58.8461 37.4152L-58.7618 37.0007L-58.6704 36.5884L-58.572 36.1783L-58.4666 35.7706L-58.3543 35.3655L-58.2351 34.963L-58.109 34.5633L-57.9763 34.1664L-57.8368 33.7725L-57.6907 33.3816L-57.5381 32.994L-57.3789 32.6097L-57.2133 32.2288L-57.0414 31.8515L-56.8632 31.4777L-56.6787 31.1077L-56.4881 30.7416L-56.2915 30.3794L-56.0889 30.0212L-55.8803 29.6671L-55.666 29.3173L-55.4459 28.9717L-55.2202 28.6306L-54.9888 28.294L-54.7521 27.962L-54.5099 27.6347L-54.2624 27.3122L-54.0098 26.9945L-53.752 26.6817L-53.4892 26.374L-53.2214 26.0713L-52.9489 25.7738L-52.6716 25.4816L-52.3897 25.1947L-52.1033 24.9132L-51.8124 24.6372L-51.5172 24.3666L-51.2179 24.1017L-50.9143 23.8425L-50.6068 23.5889L-50.2954 23.3412L-49.9802 23.0993L-49.6613 22.8633L-49.3388 22.6332L-49.0128 22.4091L-48.6835 22.1911L-48.351 21.9793L-48.0153 21.7735L-47.6766 21.574L-47.3349 21.3807L-46.9905 21.1936L-46.6434 21.0129L-46.2938 20.8385L-45.9416 20.6706L-45.5872 20.509L-45.2305 20.3539L-44.8717 20.2052L-44.5109 20.0631L-44.1483 19.9275L-43.7839 19.7984L-43.4179 19.6759L-43.0503 19.56L-42.6814 19.4507L-42.3111 19.348L-41.9397 19.2519L-41.5672 19.1625L-41.1938 19.0796L-40.8196 19.0035L-40.4447 18.934L-40.0692 18.8711L-39.6932 18.8149L-39.3169 18.7653L-38.9404 18.7224L-38.5637 18.6861L-38.187 18.6564L-37.8105 18.6334L-37.4342 18.6169L-37.0582 18.6071L-36.6827 18.6038L-36.3077 18.607L-35.9335 18.6168L-35.56 18.6331L-35.1874 18.6558L-34.8159 18.685L-34.4455 18.7207L-34.0763 18.7627L-33.7085 18.8111L-33.3422 18.8658L-32.9774 18.9269L-32.6143 18.9941L-32.253 19.0676L-31.8935 19.1473L-31.5361 19.2331L-31.1808 19.3249L-30.8276 19.4229L-30.4767 19.5268L-30.1283 19.6366L-29.7823 19.7523L-29.439 19.8739L-29.0983 20.0012L-28.7604 20.1343L-28.4254 20.273L-28.0934 20.4174L-27.7645 20.5673L-27.4387 20.7226L-27.1162 20.8834L-26.797 21.0495L-26.4812 21.2209L-26.169 21.3976L-25.8604 21.5793L-25.5554 21.7662L-25.2542 21.958L-24.9569 22.1548L-24.6635 22.3564L-24.3741 22.5628L-24.0888 22.7739L-23.8076 22.9896L-23.5307 23.2099L-23.2581 23.4346L-22.9898 23.6637L-22.726 23.897L-22.4667 24.1346L-22.212 24.3763L-21.9619 24.6221L-21.7165 24.8717L-21.4759 25.1253L-21.24 25.3826L-21.0091 25.6436L-20.7831 25.9081L-20.5621 26.1762L-20.3462 26.4476L-20.1353 26.7224L-19.9296 27.0004L-19.729 27.2815L-19.5337 27.5656L-19.3437 27.8527L-19.159 28.1426L-18.9797 28.4352L-18.8057 28.7304L-18.6372 29.0282L-18.4742 29.3285L-18.3166 29.631L-18.1647 29.9358L-18.0182 30.2428L-17.8774 30.5517L-17.7422 30.8626L-17.6126 31.1754L-17.4887 31.4899L-17.3705 31.806L-17.258 32.1236L-17.1512 32.4427L-17.0502 32.7631L-16.9549 33.0847L-16.8654 33.4074L-16.7816 33.7312L-16.7036 34.0559L-16.6315 34.3814L-16.5651 34.7076L-16.5045 35.0344L-16.4497 35.3617L-16.4007 35.6894L-16.3575 36.0174L-16.32 36.3457L-16.2884 36.674L-16.2625 37.0023L-16.2425 37.3306L-16.2281 37.6586L-16.2195 37.9863L-16.2166 38.3137L-16.2195 38.6405L-16.228 38.9667L-16.2422 39.2923L-16.262 39.617L-16.2875 39.9409L-16.3185 40.2638L-16.3552 40.5856L-16.3974 40.9062L-16.4451 41.2255L-16.4983 41.5435L-16.5569 41.86L-16.621 42.175L-16.6904 42.4883L-16.7652 42.7998L-16.8453 43.1096L-16.9306 43.4174L-17.0212 43.7233L-17.1169 44.027L-17.2178 44.3286L-17.3238 44.6279L-17.4348 44.9248L-17.5508 45.2194L-17.6717 45.5114L-17.7975 45.8008L-17.9282 46.0875L-18.0636 46.3715L-18.2038 46.6526L-18.3486 46.9309L-18.498 47.2061L-18.652 47.4783L-18.8104 47.7473L-18.9733 48.0131L-19.1405 48.2757L-19.312 48.5348L-19.4878 48.7906L-19.6677 49.0429L-19.8517 49.2916L-20.0397 49.5367L-20.2317 49.778L-20.4276 50.0157L-20.6273 50.2495L-20.8307 50.4795L-21.0378 50.7055L-21.2485 50.9276L-21.4627 51.1456L-21.6803 51.3595L-21.9013 51.5692L-22.1256 51.7748L-22.3531 51.9761L-22.5837 52.1731L-22.8174 52.3657L-23.054 52.554L-23.2935 52.7378L-23.5359 52.9171L-23.7809 53.0919L-24.0286 53.2621L-24.2788 53.4278L-24.5315 53.5888L-24.7865 53.7451L-25.0439 53.8967L-25.3035 54.0436L-25.5652 54.1857L-25.8289 54.3231L-26.0946 54.4555L-26.3622 54.5832L-26.6315 54.7059L-26.9025 54.8238L-27.1751 54.9368L-27.4493 55.0448L-27.7248 55.1478L-28.0017 55.2459L-28.2798 55.3389L-28.5591 55.427L-28.8394 55.5101L-29.1208 55.5881L-29.403 55.6611L-29.686 55.7291L-29.9697 55.792L-30.2541 55.8499L-30.5389 55.9027L-30.8243 55.9505L-31.1099 55.9932L-31.3959 56.0308L-31.682 56.0635L-31.9682 56.091L-32.2544 56.1136L-32.5405 56.1311L-32.8265 56.1436L-33.1121 56.1511L-33.3975 56.1536L-33.6824 56.1511L-33.9667 56.1437L-34.2505 56.1313L-34.5336 56.1141L-34.8159 56.0919L-35.0973 56.0648L-35.3778 56.0328L-35.6573 55.9961L-35.9357 55.9545L-36.2129 55.9081L-36.4888 55.857L-36.7633 55.8012L-37.0364 55.7406L-37.308 55.6754L-37.578 55.6056L-37.8464 55.5312L-38.1129 55.4523L-38.3777 55.3688L-38.6406 55.2809L-38.9015 55.1885L-39.1603 55.0918L-39.4171 54.9906L-39.6716 54.8852L-39.9239 54.7756L-40.1738 54.6617L-40.4214 54.5436L-40.6664 54.4215L-40.909 54.2952L-41.1489 54.165L-41.3861 54.0308L-41.6206 53.8927L-41.8523 53.7507L-42.0812 53.6049L-42.3071 53.4554L-42.5301 53.3022L-42.75 53.1454L-42.9667 52.985L-43.1804 52.8211L-43.3908 52.6537L-43.598 52.483L-43.8018 52.3089L-44.0022 52.1316L-44.1993 51.9511L-44.3928 51.7674L-44.5829 51.5807L-44.7693 51.391L-44.9521 51.1983L-45.1313 51.0028L-45.3068 50.8045L-45.4785 50.6035L-45.6464 50.3998L-45.8105 50.1935L-45.9708 49.9848L-46.1271 49.7735L-46.2794 49.56L-46.4278 49.3441L-46.5722 49.1259L-46.7126 48.9057L-46.8488 48.6833L-46.981 48.459L-47.109 48.2327L-47.2329 48.0046L-47.3526 47.7747L-47.4681 47.5431L-47.5794 47.3099L-47.6864 47.0751L-47.7891 46.8389L-47.8876 46.6012L-47.9817 46.3623L-48.0715 46.1221L-48.157 45.8807L-48.2382 45.6383L-48.3149 45.3949L-48.3873 45.1505L-48.4554 44.9053L-48.519 44.6593L-48.5782 44.4126L-48.6331 44.1652L-48.6835 43.9174L-48.7296 43.6691L-48.7712 43.4203L-48.8084 43.1713L-48.8413 42.9221L-48.8697 42.6727L-48.8938 42.4232L-48.9134 42.1737L-48.9287 41.9243L-48.9396 41.6751L-48.9461 41.426L-48.9483 41.1773L-48.9461 40.929L-48.9397 40.6811L-48.9289 40.4337L-48.9138 40.187" stroke="black"/>
 </g>
</svg>
