<?xml version="1.0" encoding="UTF-8" standalone="no"?>
<svg version="1.1" xmlns="http://www.w3.org/2000/svg" xmlns:xlink="http://www.w3.org/1999/xlink" width="510" height="400" viewBox="0 0 510 400">

<title>Logarithmic Spiral</title>

<desc>
	Four Tours of the Logarithmic Spiral
	  x(t) = cos(t)*pow(1.19,t)*27.655
	  y(t) = sin(t)*pow(1.19,t)*27.655
	  t    = -4*pi ... 4*pi
</desc>

<g transform="matrix (1 0 0 -1 228 172)" fill="none" stroke-width="2">
	<path stroke="#808080" d="M -220,0 H 274 M 0,-220 V 166"/>
	<path stroke="red" d="M 3.108,0 C 3.178,0.407 3.171,0.842 3.074,1.273 S 2.791,2.132 2.519,2.519 S 1.887,3.253 1.46,3.524 S 0.534,3.991 0,4.084 S -1.107,4.167 -1.673,4.04 S -2.802,3.668 -3.311,3.311 S -4.275,2.48 -4.631,1.918 S -5.245,0.702 -5.367,0 S -5.476,-1.455 -5.309,-2.199 S -4.821,-3.683 -4.351,-4.351 S -3.26,-5.618 -2.521,-6.087 S -0.922,-6.893 0,-7.054 S 1.912,-7.197 2.89,-6.978 S 4.84,-6.336 5.718,-5.718 S 7.384,-4.284 7.999,-3.313 S 9.059,-1.212 9.27,0 S 9.458,2.513 9.17,3.798 S 8.327,6.361 7.515,7.515 S 5.63,9.704 4.355,10.513 S 1.593,11.906 0,12.183 S -3.302,12.43 -4.992,12.052 S -8.36,10.943 -9.876,9.876 S -12.753,7.399 -13.816,5.723 S -15.647,2.094 -16.012,0 S -16.336,-4.34 -15.839,-6.561 S -14.382,-10.987 -12.979,-12.979 S -9.724,-16.761 -7.521,-18.157 S -2.752,-20.564 0,-21.043 S 5.704,-21.47 8.622,-20.816 S 14.439,-18.901 17.058,-17.058 S 22.027,-12.78 23.863,-9.884 S 27.026,-3.617 27.655,0 S 28.216,7.496 27.356,11.331 S 24.84,18.976 22.418,22.418 S 16.796,28.949 12.99,31.361 S 4.753,35.518 0,36.345 S -9.851,37.082 -14.892,35.952 S -24.939,32.645 -29.462,29.462 S -38.045,22.074 -41.215,17.072 S -46.679,6.247 -47.765,0 S -48.734,-12.947 -47.249,-19.571 S -42.902,-32.775 -38.72,-38.72 S -29.01,-50 -22.436,-54.166 S -8.209,-61.346 0,-62.774 S 17.015,-64.047 25.721,-62.096 S 43.074,-56.383 50.886,-50.886 S 65.711,-38.125 71.186,-29.486 S 80.622,-10.789 82.499,0 S 84.172,22.362 81.608,33.803 S 74.1,56.609 66.876,66.876 S 50.105,86.359 38.752,93.555 S 14.179,105.956 0,108.422 S -29.388,110.621 -44.425,107.251 S -74.396,97.384 -87.89,87.89 S -113.495,65.849 -122.952,50.928 S -139.249,18.634 -142.491,0 S -145.38,-38.623 -140.951,-58.384 S -127.984,-97.773 -115.507,-115.507 S -86.54,-149.157 -66.931,-161.586 S -24.49,-183.005 0,-187.265 S 50.759,-191.062 76.73,-185.242 S 128.496,-168.2 151.801,-151.801 S 196.026,-113.733 212.36,-87.962 S 240.509,-32.185 246.107,0"/>
</g>
</svg>